<?xml version="1.0" encoding="utf-8"?>
<!-- Generator: Adobe Illustrator 22.1.0, SVG Export Plug-In . SVG Version: 6.00 Build 0)  -->
<svg version="1.1" id="Capa_1" xmlns="http://www.w3.org/2000/svg" xmlns:xlink="http://www.w3.org/1999/xlink" x="0px" y="0px"
	 viewBox="0 0 512 512" style="enable-background:new 0 0 512 512;" xml:space="preserve">
<style type="text/css">
	.st0{fill:url(#SVGID_1_);}
	.st1{fill:url(#SVGID_2_);}
	.st2{fill:url(#SVGID_3_);}
	.st3{fill:#FFFFFF;}
</style>
<g>
	<linearGradient id="SVGID_1_" gradientUnits="userSpaceOnUse" x1="104.3443" y1="256.0055" x2="407.6667" y2="256.0055">
		<stop  offset="0" style="stop-color:#6E376E"/>
		<stop  offset="1" style="stop-color:#CA4B7C"/>
	</linearGradient>
	<path class="st0" d="M118.6,220c2.6-2.6,5.4-4.7,8.3-6.6L323.1,17.3c19.1-19.1,50.2-19.1,69.3,0c19.1,19.1,19.1,50.2,0,69.3
		l-169,169l169.8,169.8c19.1,19.1,19.1,50.2,0,69.3c-9.6,9.6-22.1,14.4-34.7,14.4s-25.1-4.8-34.7-14.4L126.9,297.7
		c-2.9-1.9-5.7-4-8.3-6.6c-9.8-9.8-14.5-22.7-14.3-35.5C104.1,242.7,108.8,229.8,118.6,220z"/>
</g>
</svg>
