<svg id="Layer_1" data-name="Layer 1" xmlns="http://www.w3.org/2000/svg" xmlns:xlink="http://www.w3.org/1999/xlink" viewBox="0 0 500 500"><defs><style>.cls-1{opacity:0.3;fill:url(#Degradado_sin_nombre_11);}.cls-2{fill:url(#Degradado_sin_nombre_8);}.cls-3{fill:#595959;}.cls-4{fill:#c1c1c1;}.cls-5{fill:#ddd;}.cls-19,.cls-6{fill:#afafaf;}.cls-7{fill:#a5a5a5;}.cls-8{fill:#ef8e2e;}.cls-9{fill:#ffa357;}.cls-10{fill:#ffbe83;}.cls-11{fill:#ffb176;}.cls-12{fill:#3f3f3f;}.cls-13{fill:#cecece;}.cls-14{fill:#d8d8d8;}.cls-15{fill:#eaeaea;}.cls-16{fill:#f9d5b2;}.cls-17{fill:#e8b679;}.cls-18{fill:#f2c18b;}.cls-19{opacity:0.5;}.cls-20{fill:#7c5045;}.cls-21{fill:#684337;}.cls-22{fill:#8c5d54;}.cls-23{fill:#56352c;}.cls-24{fill:#4d4d4d;}.cls-25{fill:#444;}.cls-26{fill:#303030;}.cls-27{fill:#494949;}.cls-28{fill:#969696;}.cls-29{fill:#fff;}.cls-30{fill:#383838;}.cls-31{fill:#262626;}.cls-32{fill:#ffa543;}.cls-33{fill:#dd7a22;}.cls-34{fill:#bbb;}.cls-35{fill:#fcb275;}.cls-36{fill:#ffb061;}.cls-37{fill:#d87923;}.cls-38{fill:#ccc;}.cls-39{fill:#ededed;}.cls-40{fill:#5b5b5b;}.cls-41{fill:#59362d;}.cls-42{fill:#f4f4f4;}.cls-43{fill:#f93d3d;}.cls-44{fill:#ff5252;}.cls-45{fill:#ff6e6e;}</style><linearGradient id="Degradado_sin_nombre_11" x1="7.41" y1="250" x2="492.59" y2="250" gradientUnits="userSpaceOnUse"><stop offset="0" stop-color="#ca4b7c"/><stop offset="1" stop-color="#fe7087"/></linearGradient><linearGradient id="Degradado_sin_nombre_8" x1="107.84" y1="349.63" x2="427.78" y2="349.63" gradientUnits="userSpaceOnUse"><stop offset="0" stop-color="#6e376e"/><stop offset="1" stop-color="#ca4b7c"/></linearGradient></defs><title>Kategori konsultasi</title><circle class="cls-1" cx="250" cy="250" r="242.59"/><path class="cls-2" d="M107.84,334.76l128.87,75.09,22.35-13,67.88,38.94,100.84-59.07L231.26,263.46Zm112.69-23-27.05-15.74,36.34-20.95,27.06,15.66Z"/><polygon class="cls-3" points="150.97 296.83 182.22 314.75 218.19 293.84 186.93 275.92 150.97 296.83"/><polygon class="cls-4" points="154.91 290.29 181.92 305.78 213.01 287.71 185.99 272.22 154.91 290.29"/><polygon class="cls-5" points="167.38 285.39 184.12 294.9 200.7 285.32 183.96 275.81 167.38 285.39"/><polygon class="cls-6" points="154.91 290.29 154.91 295.24 181.93 310.72 181.92 305.78 154.91 290.29"/><polygon class="cls-7" points="181.92 305.78 181.93 310.72 213.01 292.65 213.01 287.71 181.92 305.78"/><polygon class="cls-4" points="146.28 69.95 152.47 73.51 166.55 65.38 160.35 61.82 146.28 69.95"/><polygon class="cls-6" points="146.28 76.43 152.47 79.98 152.47 73.51 146.28 69.95 146.28 76.43"/><polygon class="cls-7" points="152.47 79.98 166.55 71.85 166.55 65.38 152.47 73.51 152.47 79.98"/><polygon class="cls-8" points="195.19 177.07 196.43 176.35 196.43 83.98 195.19 84.7 195.19 177.07"/><polygon class="cls-9" points="193.96 176.35 195.19 177.07 195.19 84.7 193.96 83.98 193.96 176.35"/><polygon class="cls-10" points="193.96 83.98 195.19 84.7 196.43 83.98 195.19 83.23 193.96 83.98"/><polygon class="cls-11" points="173.97 235.84 173.97 237.28 183.97 231.5 182.72 230.78 173.97 235.84"/><polygon class="cls-9" points="173.97 238.58 183.97 232.79 183.97 231.49 173.97 237.28 173.97 238.58"/><polygon class="cls-11" points="183.97 231.5 193.98 237.28 193.98 235.84 185.22 230.78 183.97 231.5"/><polygon class="cls-9" points="183.97 232.79 193.98 238.58 193.98 237.28 183.97 231.49 183.97 232.79"/><polygon class="cls-11" points="173.97 251.27 173.97 252.71 183.97 246.93 182.72 246.21 173.97 251.27"/><polygon class="cls-9" points="173.97 254.01 183.97 248.22 183.97 246.93 173.97 252.71 173.97 254.01"/><polygon class="cls-11" points="183.97 246.93 193.98 252.71 193.98 251.27 185.22 246.21 183.97 246.93"/><polygon class="cls-9" points="183.97 248.22 193.98 254.01 193.98 252.71 183.97 246.93 183.97 248.22"/><polygon class="cls-11" points="173.97 220.66 173.97 222.1 183.97 216.32 182.72 215.6 173.97 220.66"/><polygon class="cls-9" points="173.97 223.4 183.97 217.61 183.97 216.31 173.97 222.1 173.97 223.4"/><polygon class="cls-11" points="183.97 216.32 193.98 222.1 193.98 220.66 185.22 215.6 183.97 216.32"/><polygon class="cls-9" points="183.97 217.61 193.98 223.4 193.98 222.1 183.97 216.31 183.97 217.61"/><polygon class="cls-11" points="173.97 205.4 173.97 206.84 183.97 201.06 182.72 200.34 173.97 205.4"/><polygon class="cls-9" points="173.97 208.14 183.97 202.36 183.97 201.06 173.97 206.84 173.97 208.14"/><polygon class="cls-11" points="183.97 201.06 193.98 206.84 193.98 205.4 185.22 200.34 183.97 201.06"/><polygon class="cls-9" points="183.97 202.36 193.98 208.14 193.98 206.84 183.97 201.06 183.97 202.36"/><polygon class="cls-11" points="173.97 190.14 173.97 191.59 183.97 185.81 182.72 185.09 173.97 190.14"/><polygon class="cls-9" points="173.97 192.88 183.97 187.1 183.97 185.8 173.97 191.59 173.97 192.88"/><polygon class="cls-11" points="183.97 185.81 193.98 191.59 193.98 190.14 185.22 185.09 183.97 185.81"/><polygon class="cls-9" points="183.97 187.1 193.98 192.88 193.98 191.59 183.97 185.8 183.97 187.1"/><polygon class="cls-11" points="173.97 174.89 173.97 176.33 183.97 170.55 182.72 169.83 173.97 174.89"/><polygon class="cls-9" points="173.97 177.63 183.97 171.84 183.97 170.54 173.97 176.33 173.97 177.63"/><polygon class="cls-11" points="183.97 170.55 193.98 176.33 193.98 174.89 185.22 169.83 183.97 170.55"/><polygon class="cls-9" points="183.97 171.84 193.98 177.63 193.98 176.33 183.97 170.54 183.97 171.84"/><polygon class="cls-11" points="173.97 159.63 173.97 161.07 183.97 155.29 182.72 154.57 173.97 159.63"/><polygon class="cls-9" points="173.97 162.37 183.97 156.59 183.97 155.29 173.97 161.07 173.97 162.37"/><polygon class="cls-11" points="183.97 155.29 193.98 161.07 193.98 159.63 185.22 154.57 183.97 155.29"/><polygon class="cls-9" points="183.97 156.59 193.98 162.37 193.98 161.07 183.97 155.29 183.97 156.59"/><polygon class="cls-11" points="173.97 144.37 173.97 145.81 183.97 140.04 182.72 139.32 173.97 144.37"/><polygon class="cls-9" points="173.97 147.11 183.97 141.33 183.97 140.03 173.97 145.81 173.97 147.11"/><polygon class="cls-11" points="183.97 140.04 193.98 145.81 193.98 144.37 185.22 139.32 183.97 140.04"/><polygon class="cls-9" points="183.97 141.33 193.98 147.11 193.98 145.81 183.97 140.03 183.97 141.33"/><polygon class="cls-11" points="173.97 129.12 173.97 130.56 183.97 124.78 182.72 124.06 173.97 129.12"/><polygon class="cls-9" points="173.97 131.85 183.97 126.07 183.97 124.77 173.97 130.56 173.97 131.85"/><polygon class="cls-11" points="183.97 124.78 193.98 130.56 193.98 129.12 185.22 124.06 183.97 124.78"/><polygon class="cls-9" points="183.97 126.07 193.98 131.85 193.98 130.56 183.97 124.77 183.97 126.07"/><polygon class="cls-11" points="173.97 113.86 173.97 115.3 183.97 109.52 182.72 108.8 173.97 113.86"/><polygon class="cls-9" points="173.97 116.6 183.97 110.81 183.97 109.52 173.97 115.3 173.97 116.6"/><polygon class="cls-11" points="183.97 109.52 193.98 115.3 193.98 113.86 185.22 108.8 183.97 109.52"/><polygon class="cls-9" points="183.97 110.81 193.98 116.6 193.98 115.3 183.97 109.52 183.97 110.81"/><polygon class="cls-11" points="173.97 98.6 173.97 100.04 183.97 94.27 182.72 93.55 173.97 98.6"/><polygon class="cls-9" points="173.97 101.34 183.97 95.56 183.97 94.26 173.97 100.04 173.97 101.34"/><polygon class="cls-11" points="183.97 94.27 193.98 100.04 193.98 98.6 185.22 93.55 183.97 94.27"/><polygon class="cls-9" points="183.97 95.56 193.98 101.34 193.98 100.04 183.97 94.26 183.97 95.56"/><rect class="cls-12" x="211.53" y="41.05" width="0.5" height="125.18" transform="translate(16.19 235.31) rotate(-60.02)"/><path class="cls-12" d="M157.56,72.14a.4.4,0,0,0-.17.32c0,.12.07.18.17.13a.42.42,0,0,0,.16-.32C157.72,72.15,157.65,72.09,157.56,72.14Z"/><rect class="cls-12" x="215.41" y="38.97" width="0.5" height="125.18" transform="translate(19.94 237.63) rotate(-60.02)"/><path class="cls-12" d="M161.44,70.07a.37.37,0,0,0-.17.31c0,.13.07.18.17.13a.39.39,0,0,0,.16-.32C161.6,70.07,161.53,70,161.44,70.07Z"/><polygon class="cls-11" points="173.97 266.53 173.97 267.97 183.97 262.2 182.72 261.48 173.97 266.53"/><polygon class="cls-9" points="173.97 269.27 183.97 263.49 183.97 262.19 173.97 267.97 173.97 269.27"/><polygon class="cls-11" points="183.97 262.2 193.98 267.97 193.98 266.53 185.22 261.48 183.97 262.2"/><polygon class="cls-9" points="183.97 263.49 193.98 269.27 193.98 267.97 183.97 262.19 183.97 263.49"/><polygon class="cls-8" points="172.73 285.42 173.97 284.71 173.97 174.52 172.73 175.23 172.73 285.42"/><polygon class="cls-9" points="171.49 284.71 172.73 285.42 172.73 175.23 171.49 174.52 171.49 284.71"/><polygon class="cls-10" points="171.49 174.52 172.73 175.23 173.97 174.52 172.73 173.77 171.49 174.52"/><polygon class="cls-8" points="183.96 261.14 185.2 260.42 185.2 168.05 183.96 168.76 183.96 261.14"/><polygon class="cls-9" points="182.72 260.42 183.96 261.14 183.96 168.76 182.72 168.05 182.72 260.42"/><polygon class="cls-10" points="182.72 168.05 183.96 168.76 185.2 168.05 183.96 167.3 182.72 168.05"/><polygon class="cls-8" points="195.19 285.42 196.43 284.71 196.43 174.52 195.19 175.23 195.19 285.42"/><polygon class="cls-9" points="193.96 284.71 195.19 285.42 195.19 175.23 193.96 174.52 193.96 284.71"/><polygon class="cls-8" points="183.96 291.89 185.2 291.18 185.2 180.99 183.96 181.7 183.96 291.89"/><polygon class="cls-9" points="182.72 291.18 183.96 291.89 183.96 181.7 182.72 180.99 182.72 291.18"/><polygon class="cls-10" points="182.72 180.99 183.96 181.7 185.2 180.99 183.96 180.24 182.72 180.99"/><polygon class="cls-8" points="172.73 177.07 173.97 176.35 173.97 83.98 172.73 84.7 172.73 177.07"/><polygon class="cls-9" points="171.49 176.35 172.73 177.07 172.73 84.7 171.49 83.98 171.49 176.35"/><polygon class="cls-10" points="171.49 83.98 172.73 84.7 173.97 83.98 172.73 83.23 171.49 83.98"/><polygon class="cls-8" points="183.96 170.6 185.2 169.88 185.2 77.51 183.96 78.23 183.96 170.6"/><polygon class="cls-9" points="182.72 169.88 183.96 170.6 183.96 78.23 182.72 77.51 182.72 169.88"/><polygon class="cls-10" points="182.72 77.51 183.96 78.23 185.2 77.51 183.96 76.76 182.72 77.51"/><polygon class="cls-8" points="183.96 183.54 185.2 182.82 185.2 90.45 183.96 91.17 183.96 183.54"/><polygon class="cls-9" points="182.72 182.82 183.96 183.54 183.96 91.17 182.72 90.45 182.72 182.82"/><polygon class="cls-10" points="182.72 90.45 183.96 91.17 185.2 90.45 183.96 89.7 182.72 90.45"/><polygon class="cls-6" points="167.38 290.33 184.12 299.84 184.12 294.9 167.38 285.39 167.38 290.33"/><polygon class="cls-7" points="184.12 299.84 200.7 290.26 200.7 285.32 184.12 294.9 184.12 299.84"/><polygon class="cls-11" points="172.73 83.23 173.97 83.99 183.97 78.22 182.72 77.49 172.73 83.23"/><polygon class="cls-9" points="173.97 85.29 183.97 79.51 183.97 78.21 173.97 83.99 173.97 85.29"/><polygon class="cls-11" points="183.97 89.73 185.21 90.49 195.22 84.71 193.97 83.99 183.97 89.73"/><polygon class="cls-9" points="185.21 91.79 195.22 86 195.22 84.71 185.21 90.49 185.21 91.79"/><polygon class="cls-11" points="172.73 237.95 182.74 243.73 182.74 242.29 173.98 237.23 172.73 237.95"/><polygon class="cls-9" points="172.73 239.25 182.74 245.03 182.74 243.73 172.73 237.95 172.73 239.25"/><polygon class="cls-11" points="185.2 242.29 185.2 243.73 195.21 237.95 193.96 237.23 185.2 242.29"/><polygon class="cls-9" points="185.2 245.03 195.21 239.25 195.21 237.95 185.2 243.73 185.2 245.03"/><polygon class="cls-11" points="172.73 253.38 182.74 259.16 182.74 257.72 173.98 252.66 172.73 253.38"/><polygon class="cls-9" points="172.73 254.68 182.74 260.46 182.74 259.16 172.73 253.38 172.73 254.68"/><polygon class="cls-11" points="185.2 257.72 185.2 259.16 195.21 253.38 193.96 252.66 185.2 257.72"/><polygon class="cls-9" points="185.2 260.46 195.21 254.68 195.21 253.38 185.2 259.16 185.2 260.46"/><polygon class="cls-11" points="172.73 268.65 182.74 274.43 182.74 272.98 173.98 267.93 172.73 268.65"/><polygon class="cls-9" points="172.73 269.94 182.74 275.72 182.74 274.43 172.73 268.64 172.73 269.94"/><polygon class="cls-11" points="185.2 272.98 185.2 274.43 195.21 268.65 193.96 267.93 185.2 272.98"/><polygon class="cls-9" points="185.2 275.72 195.21 269.94 195.21 268.64 185.2 274.43 185.2 275.72"/><polygon class="cls-11" points="172.73 222.77 182.74 228.55 182.74 227.11 173.98 222.05 172.73 222.77"/><polygon class="cls-9" points="172.73 224.07 182.74 229.85 182.74 228.55 172.73 222.77 172.73 224.07"/><polygon class="cls-11" points="185.2 227.11 185.2 228.55 195.21 222.77 193.96 222.05 185.2 227.11"/><polygon class="cls-9" points="185.2 229.85 195.21 224.07 195.21 222.77 185.2 228.55 185.2 229.85"/><polygon class="cls-11" points="172.73 207.52 182.74 213.29 182.74 211.85 173.98 206.8 172.73 207.52"/><polygon class="cls-9" points="172.73 208.81 182.74 214.59 182.74 213.29 172.73 207.51 172.73 208.81"/><polygon class="cls-11" points="185.2 211.85 185.2 213.29 195.21 207.52 193.96 206.8 185.2 211.85"/><polygon class="cls-9" points="185.2 214.59 195.21 208.81 195.21 207.51 185.2 213.29 185.2 214.59"/><polygon class="cls-11" points="172.73 192.26 182.74 198.04 182.74 196.59 173.98 191.54 172.73 192.26"/><polygon class="cls-9" points="172.73 193.55 182.74 199.34 182.74 198.04 172.73 192.25 172.73 193.55"/><polygon class="cls-11" points="185.2 196.59 185.2 198.04 195.21 192.26 193.96 191.54 185.2 196.59"/><polygon class="cls-9" points="185.2 199.34 195.21 193.55 195.21 192.25 185.2 198.04 185.2 199.34"/><polygon class="cls-11" points="172.73 177 182.74 182.78 182.74 181.34 173.98 176.28 172.73 177"/><polygon class="cls-9" points="172.73 178.29 182.74 184.08 182.74 182.78 172.73 177 172.73 178.29"/><polygon class="cls-11" points="185.2 181.34 185.2 182.78 195.21 177 193.96 176.28 185.2 181.34"/><polygon class="cls-9" points="185.2 184.08 195.21 178.29 195.21 177 185.2 182.78 185.2 184.08"/><polygon class="cls-11" points="172.73 161.75 182.74 167.52 182.74 166.08 173.98 161.03 172.73 161.75"/><polygon class="cls-9" points="172.73 163.04 182.74 168.82 182.74 167.52 172.73 161.74 172.73 163.04"/><polygon class="cls-11" points="185.2 166.08 185.2 167.52 195.21 161.75 193.96 161.03 185.2 166.08"/><polygon class="cls-9" points="185.2 168.82 195.21 163.04 195.21 161.74 185.2 167.52 185.2 168.82"/><polygon class="cls-11" points="172.73 146.49 182.74 152.27 182.74 150.82 173.98 145.77 172.73 146.49"/><polygon class="cls-9" points="172.73 147.78 182.74 153.56 182.74 152.27 172.73 146.48 172.73 147.78"/><polygon class="cls-11" points="185.2 150.82 185.2 152.27 195.21 146.49 193.96 145.77 185.2 150.82"/><polygon class="cls-9" points="185.2 153.56 195.21 147.78 195.21 146.48 185.2 152.27 185.2 153.56"/><polygon class="cls-11" points="172.73 131.23 182.74 137.01 182.74 135.57 173.98 130.51 172.73 131.23"/><polygon class="cls-9" points="172.73 132.52 182.74 138.31 182.74 137.01 172.73 131.23 172.73 132.52"/><polygon class="cls-11" points="185.2 135.57 185.2 137.01 195.21 131.23 193.96 130.51 185.2 135.57"/><polygon class="cls-9" points="185.2 138.31 195.21 132.52 195.21 131.23 185.2 137.01 185.2 138.31"/><polygon class="cls-11" points="172.73 115.97 182.74 121.75 182.74 120.31 173.98 115.25 172.73 115.97"/><polygon class="cls-9" points="172.73 117.27 182.74 123.05 182.74 121.75 172.73 115.97 172.73 117.27"/><polygon class="cls-11" points="185.2 120.31 185.2 121.75 195.21 115.97 193.96 115.25 185.2 120.31"/><polygon class="cls-9" points="185.2 123.05 195.21 117.27 195.21 115.97 185.2 121.75 185.2 123.05"/><polygon class="cls-11" points="172.73 100.72 182.74 106.5 182.74 105.05 173.98 100 172.73 100.72"/><polygon class="cls-9" points="172.73 102.01 182.74 107.79 182.74 106.5 172.73 100.71 172.73 102.01"/><polygon class="cls-11" points="185.2 105.05 185.2 106.5 195.21 100.72 193.96 100 185.2 105.05"/><polygon class="cls-9" points="185.2 107.79 195.21 102.01 195.21 100.71 185.2 106.5 185.2 107.79"/><path class="cls-12" d="M278.17,171.6c0-1.31.05-2.78.05-2.78l-2.28,1.31v3.51c0,1.74,1,2.13,1.58,2.76s1.31,3.38-.35,4.34-2.52-1.15-2.52-1.15-.84,2.1-.07,2.9c.92,1,3.14,2,5-1.54a6.7,6.7,0,0,0-.58-7.09A3.26,3.26,0,0,1,278.17,171.6Z"/><polygon class="cls-5" points="268.19 166.17 272.82 168.82 283.32 162.75 278.69 160.1 268.19 166.17"/><polygon class="cls-6" points="268.19 171 272.82 173.65 272.82 168.82 268.19 166.17 268.19 171"/><polygon class="cls-7" points="272.82 173.65 283.32 167.58 283.32 162.75 272.82 168.82 272.82 173.65"/><rect class="cls-12" x="272.57" y="139.01" width="0.5" height="29.19"/><path class="cls-12" d="M272.82,168.07c-.13,0-.24.06-.24.14s.11.13.24.13.23-.06.23-.13S273,168.07,272.82,168.07Z"/><rect class="cls-12" x="268.73" y="136.92" width="0.5" height="29.19"/><path class="cls-12" d="M269,166c-.13,0-.23.06-.23.13s.1.14.23.14.24-.06.24-.14S269.11,166,269,166Z"/><rect class="cls-12" x="282.26" y="133.51" width="0.5" height="29.19"/><path class="cls-12" d="M282.51,162.58c-.13,0-.24.06-.24.14s.11.13.24.13.24-.06.24-.13S282.64,162.58,282.51,162.58Z"/><rect class="cls-12" x="278.42" y="131.43" width="0.5" height="29.19"/><path class="cls-12" d="M278.67,160.5c-.13,0-.24.06-.24.13s.11.13.24.13.24-.06.24-.13S278.8,160.5,278.67,160.5Z"/><polygon class="cls-4" points="256.6 139.49 268.2 146.18 293.05 131.84 281.45 125.14 256.6 139.49"/><polygon class="cls-6" points="256.6 139.48 256.61 142.15 268.2 148.85 268.19 146.18 256.6 139.48"/><polygon class="cls-7" points="268.19 146.18 268.2 148.85 293.05 134.51 293.05 131.84 268.19 146.18"/><polygon class="cls-9" points="158.11 63.32 293.33 141.39 293.33 139.75 158.11 61.68 158.11 63.32"/><polygon class="cls-10" points="158.11 61.7 293.33 139.75 294.79 138.91 159.57 60.86 158.11 61.7"/><polygon class="cls-8" points="293.33 141.39 294.79 140.53 294.79 138.91 293.33 139.75 293.33 141.39"/><polygon class="cls-10" points="146.81 68.13 148.24 68.95 159.58 62.55 158.11 61.74 146.81 68.13"/><polygon class="cls-10" points="154.27 54.03 159.68 62.59 161 61.68 155.91 53.08 154.27 54.03"/><polygon class="cls-9" points="145.36 70.58 280.58 148.65 280.58 147.02 145.36 68.95 145.36 70.58"/><polygon class="cls-10" points="145.36 68.97 280.58 147.02 282.04 146.18 146.81 68.13 145.36 68.97"/><polygon class="cls-8" points="280.58 148.65 282.04 147.8 282.04 146.18 280.58 147.02 280.58 148.65"/><polygon class="cls-9" points="153.25 53.08 158.11 61.74 159.58 62.55 154.76 53.96 153.25 53.08"/><polygon class="cls-10" points="146.72 69.76 148.24 68.95 154.56 53.69 153.34 53.07 146.72 69.76"/><polygon class="cls-10" points="270.66 121 280.62 147.02 282.04 146.18 272.28 120.89 270.66 121"/><polygon class="cls-10" points="271.02 121.86 293.44 139.75 294.86 138.91 272.64 121.74 271.02 121.86"/><polygon class="cls-10" points="239.31 103.53 261.72 121.51 263.13 120.67 240.93 103.42 239.31 103.53"/><polygon class="cls-10" points="207.51 85.17 229.91 103.15 231.32 102.31 209.13 85.06 207.51 85.17"/><polygon class="cls-10" points="175.8 66.85 198.2 84.83 199.62 83.99 177.42 66.74 175.8 66.85"/><polygon class="cls-10" points="239.12 102.94 249.09 128.95 250.5 128.11 240.75 102.82 239.12 102.94"/><polygon class="cls-10" points="207.75 84.85 217.72 110.87 219.13 110.02 209.38 84.73 207.75 84.85"/><polygon class="cls-10" points="176.17 66.67 186.14 92.68 187.71 92.24 177.8 66.55 176.17 66.67"/><polygon class="cls-9" points="152.49 53.36 287.71 131.43 287.71 129.79 152.49 51.73 152.49 53.36"/><polygon class="cls-10" points="152.49 51.74 287.71 129.79 289.17 128.95 153.95 50.9 152.49 51.74"/><polygon class="cls-8" points="287.71 131.43 289.17 130.57 289.17 128.95 287.71 129.79 287.71 131.43"/><polygon class="cls-9" points="268.19 118.56 278.66 145.88 280.62 147.02 270.16 119.69 268.19 118.56"/><polygon class="cls-9" points="249.1 128.86 251.07 129.99 271.02 121.8 269.05 120.67 249.1 128.86"/><polygon class="cls-9" points="236.67 100.49 247.14 127.82 249.1 128.95 238.64 101.63 236.67 100.49"/><polygon class="cls-9" points="216.6 110.92 218.57 112.05 239.5 103.43 237.53 102.29 216.6 110.92"/><polygon class="cls-9" points="205.26 82.29 215.73 109.62 217.69 110.75 207.23 83.42 205.26 82.29"/><polygon class="cls-9" points="186.18 92.59 188.14 93.72 208.09 85.53 206.12 84.4 186.18 92.59"/><polygon class="cls-9" points="173.75 64.22 184.21 91.55 186.18 92.68 175.71 65.36 173.75 64.22"/><polygon class="cls-9" points="153.67 74.65 155.64 75.78 176.57 67.16 174.6 66.02 153.67 74.65"/><polygon class="cls-9" points="145.36 68.97 146.72 69.76 154 52.62 152.49 51.74 145.36 68.97"/><polygon class="cls-9" points="149.41 69.63 159.58 63.95 159.58 62.55 148.24 68.95 149.41 69.63"/><polygon class="cls-8" points="287.71 129.79 280.62 147.02 280.58 148.65 294.79 140.53 294.86 138.91 289.17 128.95 287.71 129.79"/><polygon class="cls-9" points="278.66 145.88 280.62 147.02 287.71 129.79 285.78 128.68 278.66 145.88"/><polygon class="cls-13" points="353.66 278.89 353.66 337.98 418.38 374.56 417.54 315.19 353.66 278.89"/><polygon class="cls-4" points="114.74 334.16 230.86 267.12 230.86 205.65 114.74 272.7 114.74 334.16"/><path class="cls-5" d="M114.74,334.16l27,15.57V299.4l22.54,13v50.33L237.53,405V344.08L114.74,272.7Zm69.13-10.11,35.29,20.58v35.76l-35.29-20.58Z"/><polygon class="cls-13" points="230.86 267.12 248.78 277.17 353.66 337.98 353.66 276.75 230.86 205.65 230.86 267.12"/><polygon class="cls-5" points="181.28 295.93 199.19 305.98 228.85 323.03 228.85 272.7 251.83 285.94 251.83 336.4 304.07 366.8 304.07 307.47 181.28 236.32 181.28 295.93"/><polygon class="cls-4" points="237.53 405.03 353.66 337.98 353.66 277.06 237.53 344.11 237.53 405.03"/><path class="cls-4" d="M326.46,431.06l94.27-54.45V315.2l-94.27,55.19Zm47.14-77,35.28-20.58v35.76L373.6,389.79Z"/><path class="cls-14" d="M259.3,392.28l10.14,5.86V347.87l23,13.32v50.23l34,19.64V370.39L259.3,331.62Zm42.31-21.89,16.29,9.51v25l-16.29-9.5Z"/><polygon class="cls-4" points="313.73 361.03 353.66 337.98 353.66 278.89 262.69 331.86 313.73 361.03"/><polygon class="cls-6" points="141.72 349.73 143.74 348.4 143.74 300.56 141.72 299.4 141.72 349.73"/><polygon class="cls-6" points="183.88 359.81 185.49 358.9 185.49 324.99 183.88 324.05 183.88 359.81"/><polygon class="cls-15" points="183.88 359.81 219.16 380.39 219.16 378.54 185.49 358.9 183.88 359.81"/><polygon class="cls-6" points="407.26 368.3 408.88 369.21 408.88 333.45 407.26 334.39 407.26 368.3"/><polygon class="cls-15" points="373.6 387.94 373.6 389.79 408.88 369.21 407.26 368.3 373.6 387.94"/><polygon class="cls-6" points="269.44 398.2 271.46 396.87 271.46 349.03 269.44 347.87 269.44 398.2"/><polygon class="cls-6" points="301.61 395.36 303.02 394.62 303.02 371.22 301.61 370.39 301.61 395.36"/><polygon class="cls-15" points="301.61 395.36 317.9 404.87 317.9 403.29 303.02 394.62 301.61 395.36"/><polygon class="cls-6" points="228.85 323.03 230.86 321.69 230.86 273.86 228.85 272.7 228.85 323.03"/><path class="cls-15" d="M114.74,272.7l122.79,71.41,116.13-67.42-122.8-71Zm107.14-23.5L195.69,234l35.17-20.28,26.19,15.15Z"/><polygon class="cls-15" points="257.68 330.68 326.46 370.39 420.73 315.19 350.26 274.74 257.68 330.68"/><polygon class="cls-16" points="282.89 327.92 288.95 331.17 320.32 313.06 314.26 309.81 282.89 327.92"/><polygon class="cls-17" points="288.95 332.64 320.32 314.52 320.32 313.06 288.95 331.17 288.95 332.64"/><polygon class="cls-18" points="282.89 329.39 288.95 332.64 288.95 331.17 282.89 327.92 282.89 329.39"/><polygon class="cls-16" points="282.07 324.32 288.13 327.57 319.5 309.46 313.44 306.2 282.07 324.32"/><polygon class="cls-17" points="288.13 329.03 319.5 310.92 319.5 309.46 288.13 327.57 288.13 329.03"/><polygon class="cls-18" points="282.07 325.78 288.13 329.03 288.13 327.57 282.07 324.32 282.07 325.78"/><polygon class="cls-16" points="280.22 337.53 286.28 340.78 317.65 322.67 311.59 319.42 280.22 337.53"/><polygon class="cls-17" points="286.28 342.25 317.65 324.14 317.65 322.67 286.28 340.78 286.28 342.25"/><polygon class="cls-18" points="280.22 339 286.28 342.25 286.28 340.78 280.22 337.53 280.22 339"/><polygon class="cls-16" points="279.39 333.93 285.45 337.18 316.82 319.07 310.76 315.82 279.39 333.93"/><polygon class="cls-17" points="285.45 338.65 316.82 320.54 316.82 319.07 285.45 337.18 285.45 338.65"/><polygon class="cls-18" points="279.39 335.4 285.45 338.65 285.45 337.18 279.39 333.93 279.39 335.4"/><polygon class="cls-16" points="299.35 341.83 305.4 345.09 336.77 326.98 330.71 323.72 299.35 341.83"/><polygon class="cls-17" points="305.4 346.55 336.77 328.44 336.77 326.98 305.4 345.09 305.4 346.55"/><polygon class="cls-18" points="299.35 343.3 305.4 346.55 305.4 345.08 299.35 341.83 299.35 343.3"/><polygon class="cls-16" points="298.52 338.23 304.58 341.48 335.95 323.37 329.89 320.12 298.52 338.23"/><polygon class="cls-17" points="304.58 342.95 335.95 324.84 335.95 323.37 304.58 341.48 304.58 342.95"/><polygon class="cls-18" points="298.52 339.7 304.58 342.95 304.58 341.48 298.52 338.23 298.52 339.7"/><polygon class="cls-16" points="312.63 346.03 318.69 349.28 350.06 331.17 344 327.92 312.63 346.03"/><polygon class="cls-17" points="318.69 350.75 350.06 332.64 350.06 331.17 318.69 349.28 318.69 350.75"/><polygon class="cls-18" points="312.63 347.5 318.69 350.75 318.69 349.28 312.63 346.03 312.63 347.5"/><polygon class="cls-16" points="311.81 342.43 317.87 345.68 349.24 327.57 343.18 324.32 311.81 342.43"/><polygon class="cls-17" points="317.87 347.14 349.24 329.03 349.24 327.57 317.87 345.68 317.87 347.14"/><polygon class="cls-18" points="311.81 343.89 317.87 347.14 317.87 345.68 311.81 342.43 311.81 343.89"/><polygon class="cls-19" points="126.27 272.76 133.82 277.12 173.27 254.42 165.72 250.07 126.27 272.76"/><polygon class="cls-19" points="139.76 276.69 147.31 281.04 170.32 267.78 162.78 263.42 139.76 276.69"/><path class="cls-20" d="M290.39,443.89a.92.92,0,0,0,.39-.23,1,1,0,0,0,.12-.77,1.18,1.18,0,0,0-1.2-.84c.82-1.35,1.13-2.64-.18-3.77-.64-.55-1.48-.52-2.07-1-.38-.28-.43-.62-.75-1a3,3,0,0,0-1.82-1c-.46-.09-1.15.08-1.51-.24-.06-.05-.19-.87-.24-1a2.61,2.61,0,0,0-1.44-1.41,2.71,2.71,0,0,0-1-1.76,2.75,2.75,0,0,0-2.69-.4l-.12,0c-.43,0-.82.26-1.21.28a6.51,6.51,0,0,1-2.83-.65,5.91,5.91,0,0,0-2.84-.54,4.6,4.6,0,0,0-3.61,2.75c-5.05-2.41-8.49,6.26-5.18,7.85a2.09,2.09,0,0,0,.12,2.78,4.79,4.79,0,0,0,4.81,1.22c-.47,2.12,3.22,3.26,4.95,3,1.21-.19.87-.21,1.83.17a2.27,2.27,0,0,0,1.26.31,1.72,1.72,0,0,0,1.4-.92,4.71,4.71,0,0,0,4.33,2.53,3,3,0,0,0,2.51-3.18c.85.47,2.28.48,2.72-.36a4.32,4.32,0,0,0,4.18.42A1.27,1.27,0,0,0,290.39,443.89Z"/><path class="cls-21" d="M272.5,427.89a2,2,0,0,0-.77,1.89.31.31,0,0,0,0,.1c.19,2.13,2.65,3.38,4.6,3.08s3.08-2,1.61-3.57C276.71,428.08,274.21,426.64,272.5,427.89Z"/><path class="cls-21" d="M265.31,429.3c-2.05,1.36-1.7,4.1.78,4.62,1.79.38,5.72-1.11,5.41-3.39C271.16,428,266.48,428.52,265.31,429.3Z"/><path class="cls-21" d="M279.16,434.22a3.74,3.74,0,0,0-3.38.55c-1.95,1.72.15,4.14,2.08,4.52,1.05.21,5,.14,4.66-1.76a3.43,3.43,0,0,0,2.77,0,1.88,1.88,0,0,0,.75-2.72C284.85,432.46,280.59,431.7,279.16,434.22Z"/><path class="cls-21" d="M267.59,436.1c-1.29,1.75-.23,4,1.47,5s4.15,1.05,4.75-1.22c.34-1.31-.21-2.46-1-3.79C271.81,434.26,268.86,434.37,267.59,436.1Z"/><path class="cls-21" d="M284.83,443c-2.77-1.83-5.32-1.11-5.41.93s2.86,3.33,4.51,3.11A2.17,2.17,0,0,0,284.83,443Z"/><path class="cls-21" d="M273,444.36c-1,1.32-1.19,3.47.45,4.38s3.53-.61,4.21-2a3.81,3.81,0,0,0-.24-3.33C276.31,441.75,273.84,443.14,273,444.36Z"/><path class="cls-21" d="M291.43,441.65c-1.3-.53-3.24-.92-4.1.53v0a1,1,0,0,0,.07,1.25c.89,1.22,3.74,1,5,.54.48-.19.86-.57.68-1.13S292,441.89,291.43,441.65Z"/><path class="cls-21" d="M286.83,448.26c-.41,1.57,1.38,2.24,2.58,2.28a2.57,2.57,0,0,0,2.22-.61,1.08,1.08,0,0,0,0-1.49C290.11,447.06,287.24,446.71,286.83,448.26Z"/><path class="cls-22" d="M275.63,428.33a2,2,0,0,0-2.17-.34c-1.12.81.39,2.05,1.15,2.33.56.21,2.81.47,2.34-.75A2.55,2.55,0,0,0,275.63,428.33Z"/><path class="cls-22" d="M284.24,433.76a3.57,3.57,0,0,0-1.66-.46c-.66-.05-1.56.23-1.19.91a3.06,3.06,0,0,0,2.64,1,.83.83,0,0,0,.82-.63C284.92,434.19,284.58,433.94,284.24,433.76Z"/><path class="cls-22" d="M276.9,435.68c.11,1.11,1.57,1.53,2.5,1.59s2-.87,1.14-1.57C278.58,434.1,276.79,434.62,276.9,435.68Z"/><path class="cls-22" d="M268.75,429.42a3.19,3.19,0,0,0-2.8.68.94.94,0,0,0,0,1.23c.66.78,2.1.56,2.85.06a1.57,1.57,0,0,0,.78-1.13C269.6,429.78,269.14,429.55,268.75,429.42Z"/><path class="cls-22" d="M271.2,435.44c-.95-.4-1.77.06-1.69,1a3,3,0,0,0,1.89,2.48,1,1,0,0,0,1.11-.45,2.25,2.25,0,0,0-.06-1.49A2.09,2.09,0,0,0,271.2,435.44Z"/><path class="cls-22" d="M284.23,443.22c-2.09-1.25-4-.8-3.9.06s1.67,1.6,2.47,1.65S285.24,443.83,284.23,443.22Z"/><path class="cls-21" d="M285.65,438.56c-.67.94.64,1.58,1.39,1.6s2.57-.59,1.81-1.4A2.63,2.63,0,0,0,285.65,438.56Z"/><path class="cls-23" d="M275,440.23c-.07,1,1,1.6,1.81,1.7a1.52,1.52,0,0,0,1.32-.33.9.9,0,0,0,0-1.08C277,439,275,439.37,275,440.23Z"/><path class="cls-21" d="M264.05,433.63a2.36,2.36,0,0,0-3,1.1c-.32,1.2.93,1.65,1.85,1.27C263.69,435.69,265.2,434.19,264.05,433.63Z"/><path class="cls-23" d="M286.19,438.8a1.14,1.14,0,0,0-1.16-.37,1.9,1.9,0,0,0-1.71,2.19c.32,1.22,1.67,1,2.36.25a2.15,2.15,0,0,0,.58-1.31h0A.75.75,0,0,0,286.19,438.8Z"/><path class="cls-23" d="M277.53,433c-.82,1.05.8,1.56,1.61,1.47s2.42-.63,1.58-1.59A2.27,2.27,0,0,0,277.53,433Z"/><path class="cls-23" d="M274.73,432c-1.79-.72-3.07.36-2.51,1.26a2.18,2.18,0,0,0,2.52.53A1,1,0,0,0,274.73,432Z"/><path class="cls-23" d="M273.76,440.34c-1.23-.71-2.34,1.41-2,2a1.14,1.14,0,0,0,1.85.1C274.06,442,274.59,440.82,273.76,440.34Z"/><path class="cls-23" d="M279.37,445a.75.75,0,0,0-.54.81,2,2,0,0,0,1.57,1.62c.66.16,1.65,0,1.48-.89A3.75,3.75,0,0,0,279.37,445Z"/><path class="cls-23" d="M282,447.87c.25,1,1.53,1.24,2.41,1s1.69-1.25.85-1.92C283.83,445.82,281.81,447,282,447.87Z"/><path class="cls-12" d="M270.09,443.44c-.93-1.48-1.77-3-2.84-4.42s-1.95-1.62-3-1.41a7.56,7.56,0,0,0-5.81.88,10.66,10.66,0,0,0-3.13,2.93,13.32,13.32,0,0,1-2.46,2.34c-1.69,1.3-4.48,3.48-5.23,5.94-1,1.05-.36,2.21,1.28,2.7-.39,1.31,1.39,3.33,3.29,2.56,3.32,1.14,6.1,1.06,9.26,2.72a4.76,4.76,0,0,0,5.19.57c2.11.89,5.29.78,5.29-.83,2,.94,4.87.36,3.74-1.69,2.85-1-.48-5.4-1.54-6.77A68.19,68.19,0,0,1,270.09,443.44Z"/><path class="cls-24" d="M264.2,436.65c-.78,0-1.3.75-1.4,1.52a1.12,1.12,0,0,0-.17.46,1.54,1.54,0,0,0,.57,1.37,2.51,2.51,0,0,0,1.91.33c.52-.08,1.22-.19,1.42-.76C266.91,438.49,265.23,436.72,264.2,436.65Z"/><path class="cls-24" d="M253.1,447c-.78,0-1.3.75-1.4,1.52a1.12,1.12,0,0,0-.17.46,1.54,1.54,0,0,0,.57,1.37,2.51,2.51,0,0,0,1.91.33c.52-.08,1.22-.19,1.42-.76C255.81,448.86,254.13,447.09,253.1,447Z"/><path class="cls-24" d="M253.8,452.91c-.79-.05-1.31.75-1.41,1.52a1.13,1.13,0,0,0-.17.45,1.58,1.58,0,0,0,.57,1.38,2.52,2.52,0,0,0,1.92.33c.52-.08,1.21-.19,1.41-.76C256.51,454.75,254.83,453,253.8,452.91Z"/><path class="cls-24" d="M263.28,443.61c-.77.05-2,1.38-1.74,2.18.15.43.67.51,1.06.57a1.84,1.84,0,0,0,1.43-.25,1.13,1.13,0,0,0,.43-1,1,1,0,0,0-.13-.34C264.26,444.17,263.87,443.57,263.28,443.61Z"/><path class="cls-25" d="M264.72,441.68a1.59,1.59,0,0,0-2.15-.37,1.3,1.3,0,0,0,0,2.24c.75.44,2.48.84,3.16.09C266.22,443.05,265.42,442.17,264.72,441.68Z"/><path class="cls-25" d="M276.31,452.39a1.6,1.6,0,0,0-2.15-.36,1.3,1.3,0,0,0,0,2.24c.74.44,2.47.83,3.15.08C277.81,453.76,277,452.88,276.31,452.39Z"/><path class="cls-24" d="M269.08,440.55c-.74-.42-1.62.23-2,.92a1.49,1.49,0,0,0-.13,1.3c.18.38.53.38.9.32.74-.11,2-.74,2-1.62A1.16,1.16,0,0,0,269.08,440.55Z"/><path class="cls-25" d="M259.79,439.16c-.74-.42-1.63.23-2,.92a1.49,1.49,0,0,0-.13,1.3c.18.38.53.38.91.32.73-.11,2-.74,2-1.62A1.16,1.16,0,0,0,259.79,439.16Z"/><path class="cls-25" d="M250.32,452.53c-.74-.42-1.62.23-2,.92a1.49,1.49,0,0,0-.13,1.3c.18.37.53.38.9.32.73-.11,2-.74,2-1.62A1.12,1.12,0,0,0,250.32,452.53Z"/><path class="cls-25" d="M262.21,449.53c-.74-.42-1.62.23-2,.92a1.49,1.49,0,0,0-.13,1.3c.18.38.53.38.9.32.74-.11,2-.74,2-1.62A1.13,1.13,0,0,0,262.21,449.53Z"/><path class="cls-24" d="M256.2,441.33c-.74-.42-1.63.22-2,.92a1.47,1.47,0,0,0-.13,1.29c.18.38.53.39.91.33.73-.11,2-.74,2-1.63A1.15,1.15,0,0,0,256.2,441.33Z"/><path class="cls-24" d="M268.37,444.3a1.65,1.65,0,0,0-1.56-.28.89.89,0,0,0-.22.16,1.08,1.08,0,0,0-.63,1.07,1.2,1.2,0,0,0,1,.9,5.23,5.23,0,0,0,1.84.23.73.73,0,0,0,.65-.91C269.36,444.92,268.82,444.57,268.37,444.3Z"/><path class="cls-24" d="M259.94,448.34a1.25,1.25,0,0,0-.22-.16,1.67,1.67,0,0,0-1.56.28c-.45.28-1,.62-1.1,1.18a.72.72,0,0,0,.65.9,5.47,5.47,0,0,0,1.84-.22,1.24,1.24,0,0,0,1-.9A1.11,1.11,0,0,0,259.94,448.34Z"/><path class="cls-24" d="M253.34,450.2a.73.73,0,0,0-.22-.16,1.62,1.62,0,0,0-1.55.28c-.46.27-1,.61-1.11,1.17a.72.72,0,0,0,.65.9,5.23,5.23,0,0,0,1.84-.22,1.2,1.2,0,0,0,1-.9A1.08,1.08,0,0,0,253.34,450.2Z"/><path class="cls-24" d="M261.71,453.18a.89.89,0,0,0-.22-.16,1.64,1.64,0,0,0-1.56.28c-.45.27-1,.62-1.1,1.17a.73.73,0,0,0,.65.91,5.15,5.15,0,0,0,1.83-.23,1.21,1.21,0,0,0,1-.9A1.1,1.1,0,0,0,261.71,453.18Z"/><path class="cls-24" d="M267,456.13a1.63,1.63,0,0,0-1.55-.29,1,1,0,0,0-.23.17,1.07,1.07,0,0,0-.62,1.07,1.21,1.21,0,0,0,1,.9,5.44,5.44,0,0,0,1.83.22.73.73,0,0,0,.66-.9A2,2,0,0,0,267,456.13Z"/><path class="cls-24" d="M260.69,456.19a1.62,1.62,0,0,0-1.55-.28.94.94,0,0,0-.23.16,1.07,1.07,0,0,0-.62,1.07,1.22,1.22,0,0,0,1,.91,5.44,5.44,0,0,0,1.83.22.73.73,0,0,0,.66-.9A2,2,0,0,0,260.69,456.19Z"/><path class="cls-25" d="M258.92,446.79a1.65,1.65,0,0,0-1.55-.29,1.37,1.37,0,0,0-.23.17,1.07,1.07,0,0,0-.62,1.07,1.2,1.2,0,0,0,1,.9,5.44,5.44,0,0,0,1.83.22.72.72,0,0,0,.66-.9A2,2,0,0,0,258.92,446.79Z"/><path class="cls-25" d="M263.22,438.79a1.28,1.28,0,0,0-1.81-.31c-.7.67.11,1.52.76,1.78s1.69,0,1.42-.94A1.09,1.09,0,0,0,263.22,438.79Z"/><path class="cls-25" d="M269.57,443a1.25,1.25,0,0,0-.87.48c-.44.32-.77.81-.47,1.32.42.69,1.47.18,1.86-.28S270.4,443,269.57,443Z"/><path class="cls-25" d="M260.75,444c-1,.05-.91,1.25-.51,1.85s1.42,1.15,1.94.47a.68.68,0,0,0,.1-.65A1.71,1.71,0,0,0,260.75,444Z"/><path class="cls-25" d="M272.75,446.93c-1,.05-.92,1.25-.51,1.85s1.42,1.15,1.93.47a.65.65,0,0,0,.1-.65A1.72,1.72,0,0,0,272.75,446.93Z"/><path class="cls-24" d="M268.7,448.68c-.77.05-2,1.38-1.74,2.18.15.43.67.51,1.06.57a1.84,1.84,0,0,0,1.43-.25,1.14,1.14,0,0,0,.43-1,.93.93,0,0,0-.13-.35C269.68,449.24,269.29,448.64,268.7,448.68Z"/><path class="cls-25" d="M255,443.87c-.78.05-2,1.37-1.75,2.18.16.43.68.51,1.06.57a1.83,1.83,0,0,0,1.43-.25,1.14,1.14,0,0,0,.43-1,.93.93,0,0,0-.12-.34C256,444.43,255.58,443.83,255,443.87Z"/><path class="cls-24" d="M264.18,454.55c-.77.06-2,1.38-1.74,2.19.16.42.68.5,1.06.56a1.88,1.88,0,0,0,1.43-.24,1.15,1.15,0,0,0,.43-1,.89.89,0,0,0-.13-.34C265.16,455.11,264.77,454.51,264.18,454.55Z"/><path class="cls-24" d="M272.85,456.29c-.78,0-2,1.37-1.74,2.18.15.42.67.51,1.05.56a1.82,1.82,0,0,0,1.44-.24,1.15,1.15,0,0,0,.42-1,.87.87,0,0,0-.12-.34C273.82,456.85,273.43,456.24,272.85,456.29Z"/><path class="cls-25" d="M270.14,446.75a1.59,1.59,0,0,0-2.15-.37,1.3,1.3,0,0,0,0,2.24c.75.44,2.48.84,3.16.09C271.64,448.12,270.84,447.24,270.14,446.75Z"/><path class="cls-24" d="M265.18,446.7c-.74-.42-1.62.23-2,.92a1.53,1.53,0,0,0-.14,1.3c.19.38.54.38.91.32.73-.11,2-.74,2-1.62A1.13,1.13,0,0,0,265.18,446.7Z"/><path class="cls-24" d="M273.85,452.49c-.74-.42-1.62.23-2,.92a1.49,1.49,0,0,0-.13,1.3c.18.37.53.38.9.32.73-.11,2-.74,2-1.62A1.12,1.12,0,0,0,273.85,452.49Z"/><path class="cls-25" d="M266.68,452.49c-.74-.42-1.62.23-2,.92a1.49,1.49,0,0,0-.13,1.3c.18.37.53.38.9.32.73-.11,2-.74,2-1.62A1.12,1.12,0,0,0,266.68,452.49Z"/><path class="cls-24" d="M273.19,449.22a1.62,1.62,0,0,0-1.55-.28.73.73,0,0,0-.22.16,1.08,1.08,0,0,0-.63,1.07,1.2,1.2,0,0,0,1,.9,5.23,5.23,0,0,0,1.84.23.74.74,0,0,0,.65-.91C274.19,449.84,273.65,449.49,273.19,449.22Z"/><path class="cls-25" d="M266.17,449c-1,.05-.91,1.25-.51,1.85s1.42,1.15,1.94.47a.65.65,0,0,0,.09-.65A1.7,1.7,0,0,0,266.17,449Z"/><path class="cls-25" d="M251.82,446.31c-1,0-.91,1.24-.51,1.84s1.42,1.16,1.94.48a.68.68,0,0,0,.1-.65A1.71,1.71,0,0,0,251.82,446.31Z"/><path class="cls-25" d="M247.72,448.24c-1,.05-.92,1.25-.52,1.85s1.43,1.15,1.94.47a.65.65,0,0,0,.1-.65A1.72,1.72,0,0,0,247.72,448.24Z"/><path class="cls-25" d="M268.84,453.75c-1,0-.92,1.25-.52,1.85s1.43,1.15,1.94.47a.68.68,0,0,0,.1-.65A1.71,1.71,0,0,0,268.84,453.75Z"/><path class="cls-25" d="M256.12,451.6c-1,0-.92,1.25-.52,1.85s1.43,1.15,1.94.47a.68.68,0,0,0,.1-.65A1.71,1.71,0,0,0,256.12,451.6Z"/><path class="cls-26" d="M114.23,396.1c-3.07-1.77-5.55.1-5.55,4.19s2.48,8.83,5.55,10.6,5.55-.11,5.55-4.19S117.29,397.86,114.23,396.1Z"/><polygon class="cls-26" points="106.66 398.01 113.66 413.52 117.67 411.26 110.5 395.86 106.66 398.01"/><path class="cls-27" d="M110.06,398.42c-3.06-1.77-5.55.11-5.55,4.19s2.49,8.83,5.55,10.6,5.55-.11,5.55-4.19S113.12,400.19,110.06,398.42Z"/><path class="cls-28" d="M110.06,401.15c-2-1.15-3.6.07-3.6,2.72s1.61,5.72,3.6,6.87,3.6-.07,3.6-2.72S112.05,402.3,110.06,401.15Z"/><path class="cls-29" d="M110.06,402.51c-1.43-.83-2.58.05-2.58,1.95a6.18,6.18,0,0,0,2.58,4.93c1.42.82,2.58-.05,2.58-1.95A6.19,6.19,0,0,0,110.06,402.51Z"/><path class="cls-30" d="M110.06,404.28c-.69-.4-1.25,0-1.25,1a3,3,0,0,0,1.25,2.38c.69.4,1.25,0,1.25-.94A3,3,0,0,0,110.06,404.28Z"/><path class="cls-30" d="M109.82,403.23a.59.59,0,0,0,.24.46c.13.08.24,0,.24-.18a.59.59,0,0,0-.24-.46C109.93,403,109.82,403.06,109.82,403.23Z"/><path class="cls-30" d="M108.2,403.23a.59.59,0,0,0,.24.46c.13.08.24,0,.24-.18a.59.59,0,0,0-.24-.46C108.31,403,108.2,403.06,108.2,403.23Z"/><path class="cls-30" d="M111.31,405a.56.56,0,0,0,.24.46c.13.08.24,0,.24-.18a.59.59,0,0,0-.24-.46C111.41,404.77,111.31,404.85,111.31,405Z"/><path class="cls-30" d="M108.2,406.59a.59.59,0,0,0,.24.46c.13.08.24,0,.24-.18a.59.59,0,0,0-.24-.46C108.31,406.34,108.2,406.42,108.2,406.59Z"/><path class="cls-30" d="M111.31,408.38a.56.56,0,0,0,.24.46c.13.08.24,0,.24-.18a.59.59,0,0,0-.24-.46C111.41,408.13,111.31,408.21,111.31,408.38Z"/><path class="cls-30" d="M107.82,404.78a.56.56,0,0,0,.24.46c.13.08.23,0,.23-.18a.58.58,0,0,0-.23-.46C107.92,404.52,107.82,404.61,107.82,404.78Z"/><path class="cls-30" d="M111.79,407.07a.59.59,0,0,0,.23.46c.14.07.24,0,.24-.19a.54.54,0,0,0-.24-.45C111.89,406.81,111.79,406.89,111.79,407.07Z"/><path class="cls-30" d="M109.82,408.38a.59.59,0,0,0,.24.46c.13.08.24,0,.24-.18a.59.59,0,0,0-.24-.46C109.93,408.13,109.82,408.21,109.82,408.38Z"/><path class="cls-26" d="M127.25,403.72c-3.06-1.77-5.55.11-5.55,4.2s2.49,8.83,5.55,10.59,5.55-.1,5.55-4.19S130.31,405.49,127.25,403.72Z"/><polygon class="cls-26" points="119.68 405.64 126.68 421.15 130.7 418.89 123.53 403.49 119.68 405.64"/><path class="cls-27" d="M123.08,406c-3.06-1.77-5.55.11-5.55,4.2s2.49,8.83,5.55,10.6,5.55-.11,5.55-4.2S126.15,407.81,123.08,406Z"/><path class="cls-28" d="M123.08,408.78c-2-1.15-3.59.07-3.59,2.71s1.61,5.73,3.59,6.88,3.6-.07,3.6-2.72S125.07,409.92,123.08,408.78Z"/><path class="cls-29" d="M123.08,410.13c-1.42-.82-2.58.05-2.58,1.95a6.19,6.19,0,0,0,2.58,4.93c1.43.83,2.58-.05,2.58-1.95A6.16,6.16,0,0,0,123.08,410.13Z"/><path class="cls-30" d="M123.08,411.91c-.69-.4-1.25,0-1.25.94a3,3,0,0,0,1.25,2.38c.69.4,1.25,0,1.25-.94A3,3,0,0,0,123.08,411.91Z"/><path class="cls-30" d="M122.84,410.86a.6.6,0,0,0,.24.46c.13.07.24,0,.24-.19a.57.57,0,0,0-.24-.45C123,410.6,122.84,410.68,122.84,410.86Z"/><path class="cls-30" d="M121.22,410.86a.6.6,0,0,0,.24.46c.14.07.24,0,.24-.19a.54.54,0,0,0-.24-.45C121.33,410.6,121.22,410.68,121.22,410.86Z"/><path class="cls-30" d="M124.33,412.65a.6.6,0,0,0,.24.46c.13.07.24,0,.24-.19a.57.57,0,0,0-.24-.45C124.44,412.39,124.33,412.47,124.33,412.65Z"/><path class="cls-30" d="M121.22,414.22a.57.57,0,0,0,.24.45c.14.08.24,0,.24-.18a.54.54,0,0,0-.24-.45C121.33,414,121.22,414,121.22,414.22Z"/><path class="cls-30" d="M124.33,416a.6.6,0,0,0,.24.46c.13.07.24,0,.24-.19a.57.57,0,0,0-.24-.45C124.44,415.75,124.33,415.83,124.33,416Z"/><path class="cls-30" d="M120.84,412.41a.57.57,0,0,0,.24.45c.13.08.24,0,.24-.18a.57.57,0,0,0-.24-.45C121,412.15,120.84,412.23,120.84,412.41Z"/><path class="cls-30" d="M124.81,414.69a.56.56,0,0,0,.24.46c.13.08.24,0,.24-.18a.59.59,0,0,0-.24-.46C124.91,414.44,124.81,414.52,124.81,414.69Z"/><path class="cls-30" d="M122.84,416a.6.6,0,0,0,.24.46c.13.07.24,0,.24-.19a.57.57,0,0,0-.24-.45C123,415.75,122.84,415.83,122.84,416Z"/><path class="cls-31" d="M174.32,441l4.26-2.58,2.86-2.29s-2.28-.84-2.49-1S173.22,437,174.32,441Z"/><path class="cls-26" d="M184.36,436.37c-3.06-1.76-5.54.11-5.54,4.2s2.48,8.83,5.54,10.6,5.55-.11,5.55-4.2S187.43,438.14,184.36,436.37Z"/><polygon class="cls-26" points="176.8 438.29 183.79 453.8 187.81 451.54 180.64 436.14 176.8 438.29"/><path class="cls-27" d="M180.2,438.7c-3.07-1.77-5.55.11-5.55,4.19s2.48,8.83,5.55,10.6,5.54-.11,5.54-4.19S183.26,440.47,180.2,438.7Z"/><path class="cls-28" d="M180.2,441.43c-2-1.15-3.6.07-3.6,2.72s1.61,5.72,3.6,6.87,3.59-.07,3.59-2.72S182.18,442.58,180.2,441.43Z"/><path class="cls-29" d="M180.2,442.78c-1.43-.82-2.59.05-2.59,2a6.19,6.19,0,0,0,2.59,4.94c1.42.82,2.58-.06,2.58-2A6.2,6.2,0,0,0,180.2,442.78Z"/><path class="cls-30" d="M180.2,444.56c-.69-.4-1.25,0-1.25.94a3,3,0,0,0,1.25,2.39c.68.4,1.24,0,1.24-.94A3,3,0,0,0,180.2,444.56Z"/><path class="cls-30" d="M180,443.51a.56.56,0,0,0,.24.46c.13.08.23,0,.23-.18a.58.58,0,0,0-.23-.46C180.06,443.25,180,443.34,180,443.51Z"/><path class="cls-30" d="M178.34,443.51a.59.59,0,0,0,.24.46c.13.08.24,0,.24-.18a.59.59,0,0,0-.24-.46C178.45,443.25,178.34,443.34,178.34,443.51Z"/><path class="cls-30" d="M181.44,445.3a.59.59,0,0,0,.24.46c.13.08.24,0,.24-.18a.59.59,0,0,0-.24-.46C181.55,445,181.44,445.13,181.44,445.3Z"/><path class="cls-30" d="M178.34,446.87a.59.59,0,0,0,.24.46c.13.07.24,0,.24-.18a.59.59,0,0,0-.24-.46C178.45,446.61,178.34,446.7,178.34,446.87Z"/><path class="cls-30" d="M181.44,448.66a.59.59,0,0,0,.24.46c.13.07.24,0,.24-.18a.59.59,0,0,0-.24-.46C181.55,448.4,181.44,448.49,181.44,448.66Z"/><path class="cls-30" d="M178,445.06a.59.59,0,0,0,.24.46c.13.07.24,0,.24-.18a.59.59,0,0,0-.24-.46C178.06,444.8,178,444.88,178,445.06Z"/><path class="cls-30" d="M181.92,447.35a.57.57,0,0,0,.24.45c.13.08.24,0,.24-.18a.57.57,0,0,0-.24-.45C182,447.09,181.92,447.17,181.92,447.35Z"/><path class="cls-30" d="M180,448.66a.56.56,0,0,0,.24.46c.13.07.23,0,.23-.18a.58.58,0,0,0-.23-.46C180.06,448.4,180,448.49,180,448.66Z"/><polygon class="cls-26" points="166.29 442.08 198.25 423.74 198.25 416.82 166.29 435.17 166.29 442.08"/><polygon class="cls-27" points="130.31 421.34 166.29 442.1 166.29 435.3 130.31 414.54 130.31 421.34"/><polygon class="cls-26" points="131.37 417.29 165.47 436.96 165.47 435.94 131.37 416.26 131.37 417.29"/><polygon class="cls-26" points="131.37 420.31 165.47 439.98 165.47 438.96 131.37 419.29 131.37 420.31"/><polygon class="cls-3" points="130.31 414.54 166.29 435.3 173.63 430.95 137 410.42 130.31 414.54"/><polygon class="cls-10" points="97.47 352.62 164.28 391.26 200.78 370.22 133.97 331.58 97.47 352.62"/><polygon class="cls-32" points="164.28 428.96 200.78 408.02 200.78 374.93 164.28 395.88 164.28 428.96"/><polygon class="cls-8" points="97.47 390.42 164.28 428.96 164.28 391.17 97.47 352.62 97.47 390.42"/><polygon class="cls-33" points="152.42 413.08 157.93 416.26 157.93 393.33 152.42 390.15 152.42 413.08"/><polygon class="cls-33" points="142.57 407.55 148.08 410.73 148.08 387.8 142.57 384.62 142.57 407.55"/><polygon class="cls-33" points="132.82 401.98 138.33 405.16 138.33 382.23 132.82 379.05 132.82 401.98"/><polygon class="cls-33" points="122.97 396.45 128.48 399.63 128.48 376.7 122.97 373.52 122.97 396.45"/><polygon class="cls-33" points="113.17 390.77 118.69 393.94 118.69 371.02 113.17 367.84 113.17 390.77"/><polygon class="cls-33" points="103.32 385.23 108.84 388.41 108.84 365.48 103.32 362.3 103.32 385.23"/><polygon class="cls-26" points="164.28 432.44 200.78 411.5 200.78 407.51 164.28 428.46 164.28 432.44"/><polygon class="cls-27" points="97.47 393.9 164.28 432.44 164.28 428.6 97.47 390.05 97.47 393.9"/><polygon class="cls-29" points="100.62 389.15 102.51 390.24 102.51 387.72 100.62 386.63 100.62 389.15"/><polygon class="cls-34" points="102.51 390.24 103.02 389.95 103.02 387.43 102.51 387.72 102.51 390.24"/><polygon class="cls-13" points="100.62 386.63 102.51 387.72 103.02 387.43 101.13 386.34 100.62 386.63"/><polygon class="cls-29" points="157.11 422.19 159 423.29 159 420.76 157.11 419.67 157.11 422.19"/><polygon class="cls-34" points="159 423.29 159.51 422.99 159.51 420.47 159 420.76 159 423.29"/><polygon class="cls-13" points="157.11 419.68 159 420.76 159.51 420.47 157.62 419.38 157.11 419.68"/><polygon class="cls-10" points="171.65 395.5 208.15 374.43 208.15 369.71 171.65 390.79 171.65 395.5"/><polygon class="cls-8" points="164.28 397.75 171.65 395.5 171.65 390.79 164.28 391.17 164.28 397.75"/><polygon class="cls-35" points="164.28 391.17 171.65 390.79 208.15 369.71 200.78 370.22 164.28 391.17"/><polygon class="cls-8" points="134.16 371.86 164.28 389.28 197.54 370.22 134.16 333.56 134.16 371.86"/><polygon class="cls-32" points="100.89 352.62 134.16 371.86 134.16 333.56 134.15 333.56 100.89 352.62"/><path class="cls-32" d="M222.65,402.38l-36.42,21L197,444.5l20.6-12.05,8.44,4.87.17-14.48L225,409.72A21.21,21.21,0,0,0,222.65,402.38Z"/><path class="cls-36" d="M218.78,397.77l-.15-.08L183.47,418l2.76,5.42,36.42-21A10.84,10.84,0,0,0,218.78,397.77Z"/><path class="cls-8" d="M189.84,414.6l-21-12.12v35.36l4.79,2.77c.72-4.13,3.74-5.8,7.36-3.71s6.65,7.25,7.36,12.21l8.74,5V439.64L196,426.55C195.77,423,193,416.28,189.84,414.6Z"/><polygon class="cls-37" points="183.13 439.11 183.74 439.11 183.74 411.15 183.13 410.8 183.13 439.11"/><path class="cls-29" d="M181,436.9c-3.62-2.09-6.64-.42-7.36,3.71l.69.4c.65-3.75,3.39-5.26,6.67-3.36s6,6.57,6.68,11.06l.68.4C187.64,444.15,184.61,439,181,436.9Z"/><polygon class="cls-32" points="197.09 454.15 226.2 437.35 226.2 422.84 197.09 439.64 197.09 454.15"/><path class="cls-27" d="M222.33,430.31v4.08c0,1,.64,1.52,1.42,1.07l2.51-1.6V426l-2.51,1.59A3.48,3.48,0,0,0,222.33,430.31Z"/><path class="cls-27" d="M199.59,441.4l-2.5,1.45v7.84l2.5-1.44a3.38,3.38,0,0,0,1.41-2.7v-4.08C201,441.44,200.37,441,199.59,441.4Z"/><path class="cls-29" d="M199.05,442.13a3.2,3.2,0,0,0-1.34,2.55c0,1,.6,1.44,1.34,1a3.24,3.24,0,0,0,1.33-2.56C200.38,442.16,199.78,441.7,199.05,442.13Z"/><path class="cls-29" d="M198.75,446.45a2.47,2.47,0,0,0-1,2c0,.76.46,1.11,1,.78a2.5,2.5,0,0,0,1-2C199.79,446.47,199.32,446.12,198.75,446.45Z"/><path class="cls-29" d="M224.37,427.42A3.23,3.23,0,0,0,223,430c0,1,.6,1.43,1.33,1a3.21,3.21,0,0,0,1.34-2.56C225.71,427.45,225.11,427,224.37,427.42Z"/><path class="cls-29" d="M224.08,431.74a2.47,2.47,0,0,0-1,2c0,.76.46,1.12,1,.78a2.5,2.5,0,0,0,1-2C225.12,431.76,224.65,431.41,224.08,431.74Z"/><path class="cls-7" d="M191.51,452.68A3,3,0,0,0,193,455l.4-3.31-1.9-1.83Z"/><polygon class="cls-38" points="196.99 454.39 197.06 457.4 202.1 454.49 202.06 451.47 196.99 454.39"/><polygon class="cls-38" points="223.03 442.37 228.07 439.45 228.07 436.48 223.03 439.38 223.03 442.37"/><polygon class="cls-30" points="202.1 454.49 223.03 442.37 223.03 439.38 202.06 451.47 202.1 454.49"/><polygon class="cls-29" points="206.3 451.46 219.5 443.82 219.5 442.04 206.26 449.67 206.3 451.46"/><path class="cls-7" d="M192.34,453.84a2.05,2.05,0,0,0,1,1.41l3.72,2.15v-3l-4.72-2.73Z"/><path class="cls-39" d="M226.2,436.25l-29.14,16.83-5.55-3.21.22,1a3.36,3.36,0,0,0,1.5,1.36l3.83,2.22,31-17.95-1.87-1Z"/><path class="cls-29" d="M204.31,450.66a1.88,1.88,0,0,0-.78,1.49c0,.58.35.84.78.59a1.88,1.88,0,0,0,.78-1.49C205.09,450.68,204.74,450.41,204.31,450.66Z"/><path class="cls-29" d="M221.39,440.8a1.88,1.88,0,0,0-.78,1.49c0,.57.35.84.78.59a1.88,1.88,0,0,0,.78-1.49C222.17,440.82,221.82,440.55,221.39,440.8Z"/><polygon class="cls-10" points="168.84 402.55 189.72 414.6 218.83 397.79 197.96 385.74 168.84 402.55"/><polygon class="cls-32" points="185.5 406.38 188.4 408.01 207.62 396.91 204.72 395.28 185.5 406.38"/><polygon class="cls-32" points="181.2 403.95 184.09 405.57 203.31 394.47 200.42 392.85 181.2 403.95"/><polygon class="cls-32" points="176.88 401.51 179.78 403.13 199 392.03 196.11 390.4 176.88 401.51"/><polygon class="cls-29" points="188.97 447.18 190.86 448.28 190.86 445.75 188.97 444.66 188.97 447.18"/><polygon class="cls-34" points="190.86 448.28 191.37 447.98 191.37 445.46 190.86 445.75 190.86 448.28"/><polygon class="cls-13" points="188.97 444.67 190.86 445.75 191.37 445.46 189.47 444.37 188.97 444.67"/><polygon class="cls-29" points="170.69 437.61 172.58 438.7 172.58 436.18 170.69 435.09 170.69 437.61"/><polygon class="cls-34" points="172.58 438.7 173.09 438.41 173.09 435.89 172.58 436.18 172.58 438.7"/><polygon class="cls-13" points="170.69 435.09 172.58 436.18 173.09 435.89 171.2 434.8 170.69 435.09"/><path class="cls-30" d="M192,421.07l-5.53-3.19a.76.76,0,0,0-1.21.42,1,1,0,0,1,.59.14l5.53,3.2a3.1,3.1,0,0,1,1.29,2.47l.65,10.2a1.55,1.55,0,0,1-.09.55c.42,0,.71-.45.71-1.12l-.64-10.2A3.11,3.11,0,0,0,192,421.07Z"/><path class="cls-27" d="M191.41,421.64l-5.53-3.2a1,1,0,0,0-.59-.14,1.82,1.82,0,0,0-.08.55v9.76a3.1,3.1,0,0,0,1.29,2.47l6.18,3.64a1,1,0,0,0,.58.14,1.55,1.55,0,0,0,.09-.55l-.65-10.2A3.1,3.1,0,0,0,191.41,421.64Z"/><polygon class="cls-30" points="197.09 441.61 226.2 424.8 226.2 422.84 197.09 439.64 197.09 441.61"/><path class="cls-30" d="M201.76,438.68s.09.43.21,1.06l19.39-11.19c.12-.78.21-1.3.21-1.3l-11.45,6.61Z"/><path class="cls-30" d="M202.48,442.36l18.37-10.61c.12-.71.23-1.45.34-2.12l-19.05,11C202.25,441.18,202.37,441.78,202.48,442.36Z"/><path class="cls-30" d="M202.87,444.45l0,.12,17.53-10.13a.8.8,0,0,0,0-.15c.06-.36.14-.88.23-1.46l-18,10.41C202.74,443.72,202.82,444.15,202.87,444.45Z"/><path class="cls-30" d="M205.51,445.24c1.11-.53,4.25-2.37,6.16-3.52s5-2.83,6.15-3.59a5.62,5.62,0,0,0,2.29-2.51l-16.89,9.74C203.63,445.88,204.34,445.8,205.51,445.24Z"/><path class="cls-27" d="M202.65,443.24l18-10.41c.05-.34.11-.71.16-1.08l-18.37,10.61C202.54,442.66,202.59,443,202.65,443.24Z"/><path class="cls-27" d="M202.14,440.63l19.05-11,.17-1.08L202,439.74Z"/><path class="cls-27" d="M203.22,445.36l16.89-9.74a5.64,5.64,0,0,0,.32-1.18L202.9,444.57A1.88,1.88,0,0,0,203.22,445.36Z"/><path class="cls-29" d="M211.88,432.52a3.21,3.21,0,0,0-1.34,2.56c0,1,.6,1.43,1.34,1a3.23,3.23,0,0,0,1.33-2.56C213.21,432.55,212.61,432.09,211.88,432.52Z"/><path class="cls-27" d="M197.2,425.07l.91,8.1c0,.95.59,1.39,1.3,1l24.09-13.56a3.15,3.15,0,0,0,1.3-2.48l-1-8.42Z"/><path class="cls-30" d="M222.33,406.8l-24.09,13.57a3.09,3.09,0,0,0-1.3,2.47l.26,2.23,26.64-15.38-.22-1.91C223.62,406.83,223,406.39,222.33,406.8Z"/><polygon class="cls-30" points="205.28 402.93 207.62 404.27 207.62 400.56 205.28 399.21 205.28 402.93"/><polygon class="cls-27" points="207.62 400.56 207.62 404.27 214.04 400.56 214.03 396.84 207.62 400.56"/><polygon class="cls-32" points="208.15 400.78 208.15 403.43 213.57 400.28 213.57 397.64 208.15 400.78"/><polygon class="cls-40" points="205.28 399.21 207.62 400.56 214.03 396.84 211.67 395.49 205.28 399.21"/><path class="cls-29" d="M212.36,398.64a1.71,1.71,0,0,0-.71,1.36c0,.52.32.76.71.53a1.69,1.69,0,0,0,.71-1.35C213.07,398.66,212.75,398.42,212.36,398.64Z"/><path class="cls-29" d="M209.53,400.35a1.71,1.71,0,0,0-.71,1.36c0,.52.32.76.71.53a1.69,1.69,0,0,0,.71-1.35C210.24,400.37,209.92,400.13,209.53,400.35Z"/><polygon class="cls-30" points="193.17 409.92 195.51 411.27 195.51 407.55 193.17 406.2 193.17 409.92"/><polygon class="cls-27" points="195.51 407.55 195.51 411.27 201.93 407.55 201.93 403.83 195.51 407.55"/><polygon class="cls-32" points="196.04 407.77 196.04 410.42 201.46 407.28 201.46 404.63 196.04 407.77"/><polygon class="cls-40" points="193.17 406.2 195.51 407.55 201.93 403.83 199.56 402.48 193.17 406.2"/><path class="cls-29" d="M200.25,405.64a1.69,1.69,0,0,0-.71,1.35c0,.52.32.76.71.54a1.72,1.72,0,0,0,.71-1.36C201,405.65,200.64,405.41,200.25,405.64Z"/><path class="cls-29" d="M197.42,407.35a1.69,1.69,0,0,0-.71,1.35c0,.52.32.76.71.54a1.72,1.72,0,0,0,.71-1.36C198.13,407.36,197.81,407.12,197.42,407.35Z"/><path class="cls-21" d="M183.39,368c-1.3.06-1.75.45-3.22.21-.74-.12-1.37-.48-2.15-.55a6.74,6.74,0,0,0-3.36.61,9.28,9.28,0,0,0-5.82-7.16c-1.18-.44-2.63-.38-3.74-1-.46-.27-.78-.86-1.27-1.14a3.48,3.48,0,0,0-3.26-.19s0,0,0,0c.5-1.2.93-1.89-.15-3.59a2.5,2.5,0,0,0-1.44-1c-.57-.1-1.27,0-1.74-.89s-.45-1.89-1.74-2.8a3.84,3.84,0,0,0-3.77-.22c-.33-1.35-1.93-1.77-3.34-2.6-1.16-.7-1.68-1.65-2.73-2.46-1.32-1-2.81-1.56-4-2.84-2.7-2.86-7-3.8-10.27-1.24h0a3.11,3.11,0,0,0-3,.27c-.88.56-1.37,1.48-2.25,2.09-.72.49-1.29.45-1.93,1.12s-.72,1.82-1.44,2.35-1.59.19-2.46.51c-1.6.57-2.44,2.06-3.09,3.55a4.64,4.64,0,0,0-4.85.15,19.56,19.56,0,0,1-3.18,1.42A9.63,9.63,0,0,0,108,353a4.46,4.46,0,0,0-2.47,2.31c.35.23,1.14.64,1.66,1l31.41,18.17c1.11-1.54,4.51-1.22,6.21-.15,2.53-2.17,5.84.93,7,3.49a5.35,5.35,0,0,1,5.92,4.4,8.73,8.73,0,0,1,3.67,0c0-2.32,2.64-2.69,4.76-2a3.33,3.33,0,0,1,3.68-2.95,2.76,2.76,0,0,1,3.75-3,2.2,2.2,0,0,1,2.65-1.61,3.65,3.65,0,0,1,2.67,2.81c1.52-1.29,3.93-1.77,4.39.26a1.89,1.89,0,0,1,2.05-.16,1.26,1.26,0,0,1,.73,1.37l6.74-3.86C190,369.94,187.45,367.8,183.39,368Z"/><path class="cls-41" d="M185.31,375.44a1.89,1.89,0,0,0-2.05.16c-.46-2-2.87-1.55-4.39-.26a3.65,3.65,0,0,0-2.67-2.81,2.2,2.2,0,0,0-2.65,1.61,2.76,2.76,0,0,0-3.75,3,3.33,3.33,0,0,0-3.68,2.95c-2.12-.65-4.78-.28-4.76,2a8.73,8.73,0,0,0-3.67,0,5.35,5.35,0,0,0-5.92-4.4c-1.17-2.56-4.48-5.66-7-3.49-1.7-1.07-5.1-1.39-6.21.15l25.73,14.88L186,376.81A1.26,1.26,0,0,0,185.31,375.44Z"/><path class="cls-41" d="M128.58,346.77c.15,1.63,2.38,1.65,3.56,1.48s2.81-1.14,1.59-2.32S128.45,345.19,128.58,346.77Z"/><path class="cls-41" d="M138.63,347c-.95.27-2.31,1.62-1.31,2.57s2.49-.57,2.85-1.38C140.89,346.6,139.7,346.67,138.63,347Z"/><path class="cls-41" d="M112.47,353.38c-1,.28-2.32,1.62-1.32,2.57s2.49-.57,2.86-1.38C114.73,353,113.54,353.07,112.47,353.38Z"/><path class="cls-41" d="M167.52,370.51c-1,.28-2.32,1.62-1.32,2.58s2.49-.57,2.86-1.38C169.77,370.14,168.58,370.21,167.52,370.51Z"/><path class="cls-41" d="M140.5,354.66c-.78-.36-2.67-.42-2.67.91s3.13,2.15,3.88,1.56C142.85,356.22,141.32,355,140.5,354.66Z"/><path class="cls-41" d="M146.36,355.65c-.43,1.12,1.23,1.42,2,1.38s2.68-.64,2.12-1.67S146.66,354.84,146.36,355.65Z"/><path class="cls-41" d="M160.12,375.2c-.43,1.12,1.23,1.43,2,1.39s2.68-.65,2.12-1.67C163.55,373.75,160.43,374.4,160.12,375.2Z"/><path class="cls-41" d="M127,355.1c1.07-3.83-6.6-5.18-7.15-.51-1.21-.3-3.18-.49-3.43.91-.14.82.44,1.16,1.08,1.21-1.19,2.64,4.14,7.4,7.63,5.42,1,1.39,3.33,2.51,4.6.89.84-1.08.12-3-1-3.83,1-.32,2.07-.83,1.75-2.12S128.41,355.14,127,355.1Z"/><path class="cls-41" d="M160.43,363.49a1.45,1.45,0,0,0-.23-1.16c-.72-1.13-2.29-.8-3.44-.5a1.55,1.55,0,0,0-3-.09c-1.85-1.11-4.61-1.69-5.65.42-1.23,2.47,1.43,3.59,3.49,3.86a1.89,1.89,0,0,0,.76,2c1.09.91,2.5.57,3.52,1,.48.2.71.93,1.32,1.17a2.4,2.4,0,0,0,1.75,0,2.43,2.43,0,0,0,1.43-2.72c1.41,0,3.37-.08,3.31-1.76S161.9,363.55,160.43,363.49Z"/><path class="cls-41" d="M141.26,365.59a3.7,3.7,0,0,0-4.18-2.2c-2,.43-1.76,1.68-.87,2.8a2.05,2.05,0,0,0-1.47,1.32,1.79,1.79,0,0,0,.88,2.07c1.6,1.07,5,1.11,6-.79,1.17.64,2.58.84,3-.73C145.07,366.24,142.81,365.3,141.26,365.59Z"/><polygon class="cls-4" points="414.7 317.08 417.77 315.3 417.77 257.14 414.7 258.92 414.7 317.08"/><polygon class="cls-5" points="411.62 315.3 414.7 317.08 414.7 258.92 411.62 257.14 411.62 315.3"/><polygon class="cls-15" points="411.62 257.14 414.7 258.92 417.77 257.14 414.69 255.36 411.62 257.14"/><polygon class="cls-4" points="351.6 281.78 354.68 280.01 354.68 221.84 351.6 223.62 351.6 281.78"/><polygon class="cls-5" points="348.52 280.01 351.6 281.78 351.6 223.62 348.52 221.84 348.52 280.01"/><polygon class="cls-15" points="348.52 221.84 351.61 223.63 354.68 221.84 351.6 220.06 348.52 221.84"/><polygon class="cls-4" points="326.38 368.47 329.46 366.69 329.46 308.53 326.38 310.31 326.38 368.47"/><polygon class="cls-5" points="323.31 366.69 326.38 368.47 326.38 310.31 323.31 308.53 323.31 366.69"/><polygon class="cls-15" points="323.31 308.53 326.39 310.31 329.46 308.53 326.38 306.75 323.31 308.53"/><polygon class="cls-4" points="264.83 332.42 267.91 330.64 267.91 272.48 264.83 274.26 264.83 332.42"/><polygon class="cls-5" points="261.75 330.64 264.83 332.42 264.83 274.26 261.75 272.48 261.75 330.64"/><polygon class="cls-15" points="261.75 272.48 264.83 274.26 267.91 272.48 264.82 270.7 261.75 272.48"/><polygon class="cls-4" points="231.31 211.31 234.39 209.53 234.39 151.37 231.31 153.14 231.31 211.31"/><polygon class="cls-5" points="228.23 209.53 231.31 211.31 231.31 153.14 228.23 151.37 228.23 209.53"/><polygon class="cls-15" points="228.23 151.37 231.32 153.15 234.39 151.37 231.31 149.58 228.23 151.37"/><polygon class="cls-4" points="122.09 274.62 125.17 272.84 125.17 214.68 122.09 216.46 122.09 274.62"/><polygon class="cls-5" points="119.01 272.84 122.09 274.62 122.09 216.46 119.01 214.68 119.01 272.84"/><polygon class="cls-15" points="119.01 214.68 122.1 216.46 125.17 214.68 122.09 212.9 119.01 214.68"/><polygon class="cls-4" points="288.26 244.55 291.34 242.77 291.34 184.61 288.26 186.39 288.26 244.55"/><polygon class="cls-5" points="285.18 242.77 288.26 244.55 288.26 186.39 285.18 184.61 285.18 242.77"/><polygon class="cls-15" points="285.18 184.61 288.26 186.39 291.34 184.61 288.25 182.83 285.18 184.61"/><polygon class="cls-42" points="257.68 272.92 326.46 312.63 420.73 257.43 350.26 216.98 257.68 272.92"/><polygon class="cls-14" points="257.68 276.17 326.46 315.88 326.46 312.63 257.68 272.92 257.68 276.17"/><polygon class="cls-4" points="326.46 315.88 420.73 260.68 420.73 257.43 326.46 312.63 326.46 315.88"/><polygon class="cls-7" points="198.06 235.35 230.86 216.46 230.86 213.69 195.69 233.97 198.06 235.35"/><polygon class="cls-4" points="230.86 216.46 254.66 230.23 257.05 228.84 230.86 213.69 230.86 216.46"/><polygon class="cls-19" points="354.21 244.9 393.67 267.59 401.21 263.24 361.76 240.54 354.21 244.9"/><polygon class="cls-19" points="368.84 264.83 379.88 271.2 387.42 266.84 376.39 260.47 368.84 264.83"/><polygon class="cls-19" points="375.92 246.25 403.79 262.1 411.34 257.75 383.47 241.89 375.92 246.25"/><polygon class="cls-43" points="167.66 253.23 167.66 255.71 170.05 254.32 170.04 251.85 167.66 253.23"/><polygon class="cls-44" points="162.38 252.65 167.66 255.71 167.66 253.23 162.38 250.18 162.38 252.65"/><polygon class="cls-45" points="162.38 250.18 167.66 253.23 170.04 251.85 164.79 248.8 162.38 250.18"/><polygon class="cls-43" points="164.53 255 164.53 257.48 166.92 256.1 166.92 253.63 164.53 255"/><polygon class="cls-44" points="159.25 254.42 164.53 257.48 164.53 255 159.25 251.95 159.25 254.42"/><polygon class="cls-45" points="159.25 251.95 164.53 255 166.92 253.63 161.66 250.57 159.25 251.95"/><polygon class="cls-43" points="161.4 256.83 161.4 259.3 163.79 257.92 163.79 255.45 161.4 256.83"/><polygon class="cls-44" points="156.12 256.25 161.4 259.3 161.4 256.83 156.13 253.78 156.12 256.25"/><polygon class="cls-45" points="156.13 253.78 161.4 256.83 163.79 255.45 158.53 252.4 156.13 253.78"/><polygon class="cls-43" points="158.27 258.6 158.27 261.07 160.66 259.69 160.66 257.22 158.27 258.6"/><polygon class="cls-44" points="153 258.02 158.27 261.07 158.27 258.6 153 255.55 153 258.02"/><polygon class="cls-45" points="153 255.55 158.27 258.6 160.66 257.22 155.41 254.17 153 255.55"/><polygon class="cls-43" points="165.9 251.54 165.9 254.01 168.29 252.63 168.29 250.16 165.9 251.54"/><polygon class="cls-44" points="160.62 250.95 165.9 254.01 165.9 251.54 160.62 248.48 160.62 250.95"/><polygon class="cls-45" points="160.62 248.48 165.9 251.54 168.29 250.16 163.03 247.1 160.62 248.48"/><polygon class="cls-43" points="162.77 253.36 162.77 255.83 165.16 254.45 165.16 251.98 162.77 253.36"/><polygon class="cls-44" points="157.49 252.78 162.77 255.83 162.77 253.36 157.5 250.31 157.49 252.78"/><polygon class="cls-45" points="157.5 250.31 162.77 253.36 165.16 251.98 159.91 248.93 157.5 250.31"/><polygon class="cls-43" points="159.64 255.13 159.64 257.61 162.03 256.23 162.03 253.75 159.64 255.13"/><polygon class="cls-44" points="154.37 254.55 159.64 257.61 159.64 255.13 154.37 252.08 154.37 254.55"/><polygon class="cls-45" points="154.37 252.08 159.64 255.13 162.03 253.75 156.78 250.7 154.37 252.08"/><polygon class="cls-43" points="164.34 249.76 164.34 252.24 166.73 250.85 166.72 248.38 164.34 249.76"/><polygon class="cls-44" points="159.06 249.18 164.34 252.24 164.34 249.76 159.06 246.71 159.06 249.18"/><polygon class="cls-45" points="159.06 246.71 164.34 249.76 166.72 248.38 161.47 245.33 159.06 246.71"/><polygon class="cls-43" points="161.21 251.54 161.21 254.01 163.6 252.63 163.6 250.16 161.21 251.54"/><polygon class="cls-44" points="155.93 250.95 161.21 254.01 161.21 251.54 155.93 248.48 155.93 250.95"/><polygon class="cls-45" points="155.93 248.48 161.21 251.54 163.6 250.16 158.34 247.1 155.93 248.48"/><polygon class="cls-43" points="162.65 248.08 162.65 250.56 165.04 249.17 165.04 246.7 162.65 248.08"/><polygon class="cls-44" points="157.37 247.5 162.65 250.56 162.65 248.08 157.38 245.03 157.37 247.5"/><polygon class="cls-45" points="157.38 245.03 162.65 248.08 165.04 246.7 159.78 243.65 157.38 245.03"/><polygon class="cls-43" points="155.06 260.65 155.06 263.12 157.45 261.74 157.45 259.27 155.06 260.65"/><polygon class="cls-44" points="149.78 260.06 155.06 263.12 155.06 260.65 149.79 257.59 149.78 260.06"/><polygon class="cls-45" points="149.79 257.59 155.06 260.65 157.45 259.27 152.2 256.21 149.79 257.59"/><polygon class="cls-43" points="151.93 262.42 151.93 264.89 154.33 263.51 154.32 261.04 151.93 262.42"/><polygon class="cls-44" points="146.66 261.83 151.93 264.89 151.93 262.42 146.66 259.37 146.66 261.83"/><polygon class="cls-45" points="146.66 259.37 151.93 262.42 154.32 261.04 149.07 257.99 146.66 259.37"/><polygon class="cls-43" points="148.81 264.25 148.81 266.72 151.2 265.34 151.2 262.87 148.81 264.25"/><polygon class="cls-44" points="143.53 263.66 148.81 266.72 148.81 264.25 143.53 261.19 143.53 263.66"/><polygon class="cls-45" points="143.53 261.19 148.81 264.25 151.2 262.87 145.94 259.81 143.53 261.19"/><polygon class="cls-43" points="145.68 266.02 145.68 268.49 148.07 267.11 148.07 264.64 145.68 266.02"/><polygon class="cls-44" points="140.4 265.43 145.68 268.49 145.68 266.02 140.4 262.96 140.4 265.43"/><polygon class="cls-45" points="140.4 262.96 145.68 266.02 148.07 264.64 142.81 261.58 140.4 262.96"/><polygon class="cls-43" points="153.31 258.95 153.31 261.42 155.7 260.04 155.69 257.57 153.31 258.95"/><polygon class="cls-44" points="148.03 258.37 153.31 261.42 153.31 258.95 148.03 255.9 148.03 258.37"/><polygon class="cls-45" points="148.03 255.9 153.31 258.95 155.69 257.57 150.44 254.52 148.03 255.9"/><polygon class="cls-43" points="150.18 260.78 150.18 263.25 152.57 261.87 152.57 259.4 150.18 260.78"/><polygon class="cls-44" points="144.9 260.19 150.18 263.25 150.18 260.78 144.9 257.72 144.9 260.19"/><polygon class="cls-45" points="144.9 257.72 150.18 260.78 152.57 259.4 147.31 256.34 144.9 257.72"/><polygon class="cls-43" points="147.05 262.55 147.05 265.02 149.44 263.64 149.44 261.17 147.05 262.55"/><polygon class="cls-44" points="141.77 261.96 147.05 265.02 147.05 262.55 141.78 259.49 141.77 261.96"/><polygon class="cls-45" points="141.78 259.49 147.05 262.55 149.44 261.17 144.19 258.11 141.78 259.49"/><polygon class="cls-43" points="151.74 257.18 151.74 259.65 154.13 258.27 154.13 255.8 151.74 257.18"/><polygon class="cls-44" points="146.47 256.6 151.74 259.65 151.74 257.18 146.47 254.13 146.47 256.6"/><polygon class="cls-45" points="146.47 254.13 151.74 257.18 154.13 255.8 148.88 252.75 146.47 254.13"/><polygon class="cls-43" points="148.61 258.95 148.61 261.42 151.01 260.04 151 257.57 148.61 258.95"/><polygon class="cls-44" points="143.34 258.37 148.61 261.42 148.61 258.95 143.34 255.9 143.34 258.37"/><polygon class="cls-45" points="143.34 255.9 148.61 258.95 151 257.57 145.75 254.52 143.34 255.9"/><polygon class="cls-43" points="150.06 255.5 150.06 257.97 152.45 256.59 152.45 254.12 150.06 255.5"/><polygon class="cls-44" points="144.78 254.91 150.06 257.97 150.06 255.5 144.78 252.44 144.78 254.91"/><polygon class="cls-45" points="144.78 252.44 150.06 255.5 152.45 254.12 147.19 251.06 144.78 252.44"/><polygon class="cls-43" points="142.8 267.83 142.8 270.31 145.19 268.93 145.19 266.45 142.8 267.83"/><polygon class="cls-44" points="137.53 267.25 142.8 270.31 142.8 267.83 137.53 264.78 137.53 267.25"/><polygon class="cls-45" points="137.53 264.78 142.8 267.83 145.19 266.45 139.94 263.4 137.53 264.78"/><polygon class="cls-43" points="139.68 269.61 139.68 272.08 142.07 270.7 142.06 268.23 139.68 269.61"/><polygon class="cls-44" points="134.4 269.02 139.68 272.08 139.68 269.61 134.4 266.55 134.4 269.02"/><polygon class="cls-45" points="134.4 266.55 139.68 269.61 142.06 268.23 136.81 265.17 134.4 266.55"/><polygon class="cls-43" points="136.55 271.43 136.55 273.9 138.94 272.52 138.94 270.05 136.55 271.43"/><polygon class="cls-44" points="131.27 270.85 136.55 273.9 136.55 271.43 131.27 268.38 131.27 270.85"/><polygon class="cls-45" points="131.27 268.38 136.55 271.43 138.94 270.05 133.68 267 131.27 268.38"/><polygon class="cls-43" points="133.42 273.2 133.42 275.68 135.81 274.3 135.81 271.82 133.42 273.2"/><polygon class="cls-44" points="128.14 272.62 133.42 275.68 133.42 273.2 128.15 270.15 128.14 272.62"/><polygon class="cls-45" points="128.15 270.15 133.42 273.2 135.81 271.82 130.56 268.77 128.15 270.15"/><polygon class="cls-43" points="141.05 266.14 141.05 268.61 143.44 267.23 143.44 264.76 141.05 266.14"/><polygon class="cls-44" points="135.77 265.55 141.05 268.61 141.05 266.14 135.77 263.08 135.77 265.55"/><polygon class="cls-45" points="135.77 263.08 141.05 266.14 143.44 264.76 138.18 261.7 135.77 263.08"/><polygon class="cls-43" points="137.92 267.96 137.92 270.44 140.31 269.05 140.31 266.58 137.92 267.96"/><polygon class="cls-44" points="132.64 267.38 137.92 270.44 137.92 267.96 132.65 264.91 132.64 267.38"/><polygon class="cls-45" points="132.65 264.91 137.92 267.96 140.31 266.58 135.06 263.53 132.65 264.91"/><polygon class="cls-43" points="134.79 269.74 134.79 272.21 137.18 270.83 137.18 268.36 134.79 269.74"/><polygon class="cls-44" points="129.51 269.15 134.79 272.21 134.79 269.74 129.52 266.68 129.51 269.15"/><polygon class="cls-45" points="129.52 266.68 134.79 269.74 137.18 268.36 131.93 265.3 129.52 266.68"/><polygon class="cls-43" points="139.48 264.37 139.48 266.84 141.88 265.46 141.87 262.99 139.48 264.37"/><polygon class="cls-44" points="134.21 263.78 139.48 266.84 139.48 264.37 134.21 261.31 134.21 263.78"/><polygon class="cls-45" points="134.21 261.31 139.48 264.37 141.87 262.99 136.62 259.93 134.21 261.31"/><polygon class="cls-43" points="136.35 266.14 136.35 268.61 138.75 267.23 138.74 264.76 136.35 266.14"/><polygon class="cls-44" points="131.08 265.55 136.35 268.61 136.35 266.14 131.08 263.08 131.08 265.55"/><polygon class="cls-45" points="131.08 263.08 136.35 266.14 138.74 264.76 133.49 261.7 131.08 263.08"/><polygon class="cls-43" points="137.8 262.68 137.8 265.16 140.19 263.77 140.19 261.31 137.8 262.68"/><polygon class="cls-44" points="132.52 262.1 137.8 265.16 137.8 262.68 132.52 259.63 132.52 262.1"/><polygon class="cls-45" points="132.52 259.63 137.8 262.68 140.19 261.31 134.93 258.25 132.52 259.63"/><polygon class="cls-43" points="141.36 276.38 143.75 277.76 143.75 275.29 141.36 273.91 141.36 276.38"/><polygon class="cls-44" points="143.75 275.29 143.75 277.76 149.03 274.7 149.03 272.23 143.75 275.29"/><polygon class="cls-45" points="141.36 273.91 143.75 275.29 149.03 272.23 146.62 270.85 141.36 273.91"/><polygon class="cls-43" points="146.12 277.35 148.51 278.73 148.51 276.26 146.12 274.88 146.12 277.35"/><polygon class="cls-44" points="148.51 276.26 148.51 278.73 153.79 275.68 153.78 273.21 148.51 276.26"/><polygon class="cls-45" points="146.12 274.88 148.51 276.26 153.78 273.21 151.38 271.83 146.12 274.88"/><polygon class="cls-43" points="379.68 246.36 382.07 247.75 382.07 245.27 379.68 243.89 379.68 246.36"/><polygon class="cls-44" points="382.07 245.27 382.07 247.75 387.35 244.69 387.35 242.22 382.07 245.27"/><polygon class="cls-45" points="379.68 243.89 382.07 245.27 387.35 242.22 384.94 240.84 379.68 243.89"/><polygon class="cls-43" points="382.81 248.13 385.2 249.52 385.2 247.04 382.81 245.66 382.81 248.13"/><polygon class="cls-44" points="385.2 247.04 385.2 249.52 390.48 246.46 390.48 243.99 385.2 247.04"/><polygon class="cls-45" points="382.81 245.66 385.2 247.04 390.48 243.99 388.07 242.61 382.81 245.66"/><polygon class="cls-43" points="385.94 249.96 388.33 251.34 388.33 248.87 385.94 247.49 385.94 249.96"/><polygon class="cls-44" points="388.33 248.87 388.33 251.34 393.61 248.29 393.6 245.82 388.33 248.87"/><polygon class="cls-45" points="385.94 247.49 388.33 248.87 393.6 245.82 391.19 244.44 385.94 247.49"/><polygon class="cls-43" points="389.06 251.73 391.46 253.11 391.46 250.64 389.07 249.26 389.06 251.73"/><polygon class="cls-44" points="391.46 250.64 391.46 253.11 396.73 250.06 396.73 247.59 391.46 250.64"/><polygon class="cls-45" points="389.07 249.26 391.46 250.64 396.73 247.59 394.32 246.21 389.07 249.26"/><polygon class="cls-43" points="381.44 244.67 383.83 246.05 383.83 243.57 381.44 242.2 381.44 244.67"/><polygon class="cls-44" points="383.83 243.57 383.83 246.05 389.11 242.99 389.1 240.52 383.83 243.57"/><polygon class="cls-45" points="381.44 242.2 383.83 243.57 389.1 240.52 386.69 239.14 381.44 242.2"/><polygon class="cls-43" points="384.56 246.49 386.96 247.87 386.96 245.4 384.57 244.02 384.56 246.49"/><polygon class="cls-44" points="386.96 245.4 386.96 247.87 392.23 244.82 392.23 242.35 386.96 245.4"/><polygon class="cls-45" points="384.57 244.02 386.96 245.4 392.23 242.35 389.82 240.97 384.57 244.02"/><polygon class="cls-43" points="387.69 248.26 390.08 249.65 390.08 247.17 387.7 245.79 387.69 248.26"/><polygon class="cls-44" points="390.08 247.17 390.08 249.65 395.36 246.59 395.36 244.12 390.08 247.17"/><polygon class="cls-45" points="387.7 245.79 390.08 247.17 395.36 244.12 392.95 242.74 387.7 245.79"/><polygon class="cls-43" points="383 242.89 385.39 244.28 385.39 241.8 383 240.42 383 242.89"/><polygon class="cls-44" points="385.39 241.8 385.39 244.28 390.67 241.22 390.67 238.75 385.39 241.8"/><polygon class="cls-45" points="383 240.42 385.39 241.8 390.67 238.75 388.26 237.37 383 240.42"/><polygon class="cls-43" points="386.13 244.67 388.52 246.05 388.52 243.57 386.13 242.2 386.13 244.67"/><polygon class="cls-44" points="388.52 243.57 388.52 246.05 393.8 242.99 393.8 240.52 388.52 243.57"/><polygon class="cls-45" points="386.13 242.2 388.52 243.57 393.8 240.52 391.38 239.14 386.13 242.2"/><polygon class="cls-43" points="384.69 241.21 387.08 242.59 387.08 240.12 384.69 238.74 384.69 241.21"/><polygon class="cls-44" points="387.08 240.12 387.08 242.59 392.36 239.54 392.35 237.07 387.08 240.12"/><polygon class="cls-45" points="384.69 238.74 387.08 240.12 392.35 237.07 389.94 235.69 384.69 238.74"/><polygon class="cls-43" points="392.27 253.78 394.67 255.16 394.67 252.69 392.28 251.31 392.27 253.78"/><polygon class="cls-44" points="394.67 252.69 394.67 255.16 399.94 252.1 399.94 249.63 394.67 252.69"/><polygon class="cls-45" points="392.28 251.31 394.67 252.69 399.94 249.63 397.53 248.25 392.28 251.31"/><polygon class="cls-43" points="395.4 255.55 397.79 256.93 397.79 254.46 395.4 253.08 395.4 255.55"/><polygon class="cls-44" points="397.79 254.46 397.79 256.93 403.07 253.88 403.07 251.4 397.79 254.46"/><polygon class="cls-45" points="395.4 253.08 397.79 254.46 403.07 251.4 400.66 250.03 395.4 253.08"/><polygon class="cls-43" points="398.53 257.38 400.92 258.76 400.92 256.29 398.53 254.91 398.53 257.38"/><polygon class="cls-44" points="400.92 256.29 400.92 258.76 406.2 255.7 406.19 253.23 400.92 256.29"/><polygon class="cls-45" points="398.53 254.91 400.92 256.29 406.19 253.23 403.79 251.85 398.53 254.91"/><polygon class="cls-43" points="401.66 259.15 404.05 260.53 404.05 258.06 401.66 256.68 401.66 259.15"/><polygon class="cls-44" points="404.05 258.06 404.05 260.53 409.33 257.47 409.32 255 404.05 258.06"/><polygon class="cls-45" points="401.66 256.68 404.05 258.06 409.32 255 406.91 253.62 401.66 256.68"/><polygon class="cls-43" points="394.03 252.08 396.42 253.46 396.42 250.99 394.03 249.61 394.03 252.08"/><polygon class="cls-44" points="396.42 250.99 396.42 253.46 401.7 250.41 401.7 247.94 396.42 250.99"/><polygon class="cls-45" points="394.03 249.61 396.42 250.99 401.7 247.94 399.29 246.56 394.03 249.61"/><polygon class="cls-43" points="397.16 253.91 399.55 255.29 399.55 252.82 397.16 251.44 397.16 253.91"/><polygon class="cls-44" points="399.55 252.82 399.55 255.29 404.83 252.23 404.82 249.76 399.55 252.82"/><polygon class="cls-45" points="397.16 251.44 399.55 252.82 404.82 249.76 402.41 248.38 397.16 251.44"/><polygon class="cls-43" points="400.29 255.68 402.68 257.06 402.68 254.59 400.29 253.21 400.29 255.68"/><polygon class="cls-44" points="402.68 254.59 402.68 257.06 407.95 254 407.95 251.53 402.68 254.59"/><polygon class="cls-45" points="400.29 253.21 402.68 254.59 407.95 251.53 405.54 250.15 400.29 253.21"/><polygon class="cls-43" points="395.59 250.31 397.99 251.69 397.99 249.22 395.6 247.84 395.59 250.31"/><polygon class="cls-44" points="397.99 249.22 397.99 251.69 403.26 248.63 403.26 246.16 397.99 249.22"/><polygon class="cls-45" points="395.6 247.84 397.99 249.22 403.26 246.16 400.85 244.78 395.6 247.84"/><polygon class="cls-43" points="398.72 252.08 401.11 253.46 401.11 250.99 398.72 249.61 398.72 252.08"/><polygon class="cls-44" points="401.11 250.99 401.11 253.46 406.39 250.41 406.39 247.94 401.11 250.99"/><polygon class="cls-45" points="398.72 249.61 401.11 250.99 406.39 247.94 403.98 246.56 398.72 249.61"/><polygon class="cls-43" points="397.28 248.63 399.67 250.01 399.67 247.54 397.28 246.16 397.28 248.63"/><polygon class="cls-44" points="399.67 247.54 399.67 250.01 404.95 246.95 404.95 244.48 399.67 247.54"/><polygon class="cls-45" points="397.28 246.16 399.67 247.54 404.95 244.48 402.54 243.1 397.28 246.16"/><polygon class="cls-43" points="356.96 244.77 359.35 246.15 359.35 243.68 356.96 242.3 356.96 244.77"/><polygon class="cls-44" points="359.35 243.68 359.35 246.15 364.63 243.09 364.63 240.62 359.35 243.68"/><polygon class="cls-45" points="356.96 242.3 359.35 243.68 364.63 240.62 362.22 239.24 356.96 242.3"/><polygon class="cls-43" points="360.09 246.54 362.48 247.92 362.48 245.45 360.09 244.07 360.09 246.54"/><polygon class="cls-44" points="362.48 245.45 362.48 247.92 367.76 244.87 367.76 242.39 362.48 245.45"/><polygon class="cls-45" points="360.09 244.07 362.48 245.45 367.76 242.39 365.35 241.01 360.09 244.07"/><polygon class="cls-43" points="363.22 248.37 365.61 249.75 365.61 247.28 363.22 245.9 363.22 248.37"/><polygon class="cls-44" points="365.61 247.28 365.61 249.75 370.88 246.69 370.88 244.22 365.61 247.28"/><polygon class="cls-45" points="363.22 245.9 365.61 247.28 370.88 244.22 368.47 242.84 363.22 245.9"/><polygon class="cls-43" points="366.35 250.14 368.74 251.52 368.74 249.05 366.35 247.67 366.35 250.14"/><polygon class="cls-44" points="368.74 249.05 368.74 251.52 374.01 248.46 374.01 245.99 368.74 249.05"/><polygon class="cls-45" points="366.35 247.67 368.74 249.05 374.01 245.99 371.6 244.61 366.35 247.67"/><polygon class="cls-43" points="358.72 243.07 361.11 244.45 361.11 241.98 358.72 240.6 358.72 243.07"/><polygon class="cls-44" points="361.11 241.98 361.11 244.45 366.39 241.4 366.38 238.93 361.11 241.98"/><polygon class="cls-45" points="358.72 240.6 361.11 241.98 366.38 238.93 363.98 237.55 358.72 240.6"/><polygon class="cls-43" points="361.85 244.9 364.24 246.28 364.24 243.81 361.85 242.43 361.85 244.9"/><polygon class="cls-44" points="364.24 243.81 364.24 246.28 369.51 243.22 369.51 240.75 364.24 243.81"/><polygon class="cls-45" points="361.85 242.43 364.24 243.81 369.51 240.75 367.1 239.37 361.85 242.43"/><polygon class="cls-43" points="364.97 246.67 367.37 248.05 367.37 245.58 364.98 244.2 364.97 246.67"/><polygon class="cls-44" points="367.37 245.58 367.37 248.05 372.64 244.99 372.64 242.52 367.37 245.58"/><polygon class="cls-45" points="364.98 244.2 367.37 245.58 372.64 242.52 370.23 241.14 364.98 244.2"/><polygon class="cls-43" points="360.28 241.3 362.67 242.68 362.67 240.21 360.28 238.83 360.28 241.3"/><polygon class="cls-44" points="362.67 240.21 362.67 242.68 367.95 239.62 367.95 237.15 362.67 240.21"/><polygon class="cls-45" points="360.28 238.83 362.67 240.21 367.95 237.15 365.54 235.78 360.28 238.83"/><polygon class="cls-43" points="363.41 243.07 365.8 244.45 365.8 241.98 363.41 240.6 363.41 243.07"/><polygon class="cls-44" points="365.8 241.98 365.8 244.45 371.08 241.4 371.08 238.93 365.8 241.98"/><polygon class="cls-45" points="363.41 240.6 365.8 241.98 371.08 238.93 368.67 237.55 363.41 240.6"/><polygon class="cls-43" points="361.97 239.62 364.36 241 364.36 238.53 361.97 237.15 361.97 239.62"/><polygon class="cls-44" points="364.36 238.53 364.36 241 369.64 237.94 369.63 235.47 364.36 238.53"/><polygon class="cls-45" points="361.97 237.15 364.36 238.53 369.63 235.47 367.22 234.09 361.97 237.15"/><polygon class="cls-43" points="369.55 252.18 371.95 253.56 371.95 251.09 369.56 249.71 369.55 252.18"/><polygon class="cls-44" points="371.95 251.09 371.95 253.56 377.22 250.51 377.22 248.04 371.95 251.09"/><polygon class="cls-45" points="369.56 249.71 371.95 251.09 377.22 248.04 374.81 246.66 369.56 249.71"/><polygon class="cls-43" points="372.68 253.95 375.07 255.34 375.07 252.86 372.69 251.48 372.68 253.95"/><polygon class="cls-44" points="375.07 252.86 375.07 255.34 380.35 252.28 380.35 249.81 375.07 252.86"/><polygon class="cls-45" points="372.69 251.48 375.07 252.86 380.35 249.81 377.94 248.43 372.69 251.48"/><polygon class="cls-43" points="375.81 255.78 378.2 257.16 378.2 254.69 375.81 253.31 375.81 255.78"/><polygon class="cls-44" points="378.2 254.69 378.2 257.16 383.48 254.11 383.48 251.63 378.2 254.69"/><polygon class="cls-45" points="375.81 253.31 378.2 254.69 383.48 251.63 381.07 250.26 375.81 253.31"/><polygon class="cls-43" points="378.94 257.55 381.33 258.93 381.33 256.46 378.94 255.08 378.94 257.55"/><polygon class="cls-44" points="381.33 256.46 381.33 258.93 386.61 255.88 386.6 253.41 381.33 256.46"/><polygon class="cls-45" points="378.94 255.08 381.33 256.46 386.6 253.41 384.19 252.03 378.94 255.08"/><polygon class="cls-43" points="371.31 250.49 373.7 251.87 373.7 249.39 371.31 248.01 371.31 250.49"/><polygon class="cls-44" points="373.7 249.39 373.7 251.87 378.98 248.81 378.98 246.34 373.7 249.39"/><polygon class="cls-45" points="371.31 248.01 373.7 249.39 378.98 246.34 376.57 244.96 371.31 248.01"/><polygon class="cls-43" points="374.44 252.31 376.83 253.69 376.83 251.22 374.44 249.84 374.44 252.31"/><polygon class="cls-44" points="376.83 251.22 376.83 253.69 382.11 250.64 382.1 248.17 376.83 251.22"/><polygon class="cls-45" points="374.44 249.84 376.83 251.22 382.1 248.17 379.69 246.79 374.44 249.84"/><polygon class="cls-43" points="377.57 254.08 379.96 255.46 379.96 252.99 377.57 251.61 377.57 254.08"/><polygon class="cls-44" points="379.96 252.99 379.96 255.46 385.24 252.41 385.23 249.94 379.96 252.99"/><polygon class="cls-45" points="377.57 251.61 379.96 252.99 385.23 249.94 382.82 248.56 377.57 251.61"/><polygon class="cls-43" points="372.87 248.71 375.27 250.09 375.27 247.62 372.88 246.24 372.87 248.71"/><polygon class="cls-44" points="375.27 247.62 375.27 250.09 380.54 247.04 380.54 244.57 375.27 247.62"/><polygon class="cls-45" points="372.88 246.24 375.27 247.62 380.54 244.57 378.13 243.19 372.88 246.24"/><polygon class="cls-43" points="376 250.49 378.39 251.87 378.39 249.39 376 248.01 376 250.49"/><polygon class="cls-44" points="378.39 249.39 378.39 251.87 383.67 248.81 383.67 246.34 378.39 249.39"/><polygon class="cls-45" points="376 248.01 378.39 249.39 383.67 246.34 381.26 244.96 376 248.01"/><polygon class="cls-43" points="374.56 247.03 376.95 248.41 376.95 245.94 374.56 244.56 374.56 247.03"/><polygon class="cls-44" points="376.95 245.94 376.95 248.41 382.23 245.36 382.23 242.89 376.95 245.94"/><polygon class="cls-45" points="374.56 244.56 376.95 245.94 382.23 242.89 379.82 241.51 374.56 244.56"/><polygon class="cls-43" points="381.81 259.37 384.2 260.75 384.2 258.28 381.82 256.9 381.81 259.37"/><polygon class="cls-44" points="384.2 258.28 384.2 260.75 389.48 257.69 389.48 255.22 384.2 258.28"/><polygon class="cls-45" points="381.82 256.9 384.2 258.28 389.48 255.22 387.07 253.84 381.82 256.9"/><polygon class="cls-43" points="384.94 261.14 387.33 262.52 387.33 260.05 384.94 258.67 384.94 261.14"/><polygon class="cls-44" points="387.33 260.05 387.33 262.52 392.61 259.47 392.61 257 387.33 260.05"/><polygon class="cls-45" points="384.94 258.67 387.33 260.05 392.61 257 390.2 255.62 384.94 258.67"/><polygon class="cls-43" points="388.07 262.97 390.46 264.35 390.46 261.88 388.07 260.5 388.07 262.97"/><polygon class="cls-44" points="390.46 261.88 390.46 264.35 395.74 261.29 395.74 258.82 390.46 261.88"/><polygon class="cls-45" points="388.07 260.5 390.46 261.88 395.74 258.82 393.32 257.44 388.07 260.5"/><polygon class="cls-43" points="391.2 264.74 393.59 266.12 393.59 263.65 391.2 262.27 391.2 264.74"/><polygon class="cls-44" points="393.59 263.65 393.59 266.12 398.87 263.06 398.86 260.59 393.59 263.65"/><polygon class="cls-45" points="391.2 262.27 393.59 263.65 398.86 260.59 396.45 259.21 391.2 262.27"/><polygon class="cls-43" points="383.57 257.67 385.96 259.05 385.96 256.58 383.57 255.2 383.57 257.67"/><polygon class="cls-44" points="385.96 256.58 385.96 259.05 391.24 256 391.24 253.53 385.96 256.58"/><polygon class="cls-45" points="383.57 255.2 385.96 256.58 391.24 253.53 388.83 252.15 383.57 255.2"/><polygon class="cls-43" points="386.7 259.5 389.09 260.88 389.09 258.41 386.7 257.03 386.7 259.5"/><polygon class="cls-44" points="389.09 258.41 389.09 260.88 394.37 257.82 394.36 255.35 389.09 258.41"/><polygon class="cls-45" points="386.7 257.03 389.09 258.41 394.36 255.35 391.95 253.97 386.7 257.03"/><polygon class="cls-43" points="389.82 261.27 392.22 262.65 392.22 260.18 389.83 258.8 389.82 261.27"/><polygon class="cls-44" points="392.22 260.18 392.22 262.65 397.49 259.6 397.49 257.13 392.22 260.18"/><polygon class="cls-45" points="389.83 258.8 392.22 260.18 397.49 257.13 395.08 255.75 389.83 258.8"/><polygon class="cls-43" points="385.13 255.9 387.52 257.28 387.52 254.81 385.13 253.43 385.13 255.9"/><polygon class="cls-44" points="387.52 254.81 387.52 257.28 392.8 254.23 392.8 251.75 387.52 254.81"/><polygon class="cls-45" points="385.13 253.43 387.52 254.81 392.8 251.75 390.39 250.38 385.13 253.43"/><polygon class="cls-43" points="388.26 257.67 390.65 259.05 390.65 256.58 388.26 255.2 388.26 257.67"/><polygon class="cls-44" points="390.65 256.58 390.65 259.05 395.93 256 395.93 253.53 390.65 256.58"/><polygon class="cls-45" points="388.26 255.2 390.65 256.58 395.93 253.53 393.52 252.15 388.26 255.2"/><polygon class="cls-43" points="386.82 254.22 389.21 255.6 389.21 253.13 386.82 251.75 386.82 254.22"/><polygon class="cls-44" points="389.21 253.13 389.21 255.6 394.49 252.54 394.49 250.07 389.21 253.13"/><polygon class="cls-45" points="386.82 251.75 389.21 253.13 394.49 250.07 392.07 248.69 386.82 251.75"/><polygon class="cls-43" points="383.26 265.73 383.26 268.2 385.65 266.82 385.65 264.35 383.26 265.73"/><polygon class="cls-44" points="377.98 265.15 383.26 268.2 383.26 265.73 377.98 262.68 377.98 265.15"/><polygon class="cls-45" points="377.98 262.68 383.26 265.73 385.65 264.35 380.39 261.3 377.98 262.68"/><polygon class="cls-43" points="378.5 266.7 378.5 269.18 380.89 267.8 380.89 265.32 378.5 266.7"/><polygon class="cls-44" points="373.22 266.12 378.5 269.18 378.5 266.7 373.22 263.65 373.22 266.12"/><polygon class="cls-45" points="373.22 263.65 378.5 266.7 380.89 265.32 375.63 262.27 373.22 263.65"/><polygon class="cls-43" points="164.16 266.28 164.16 268.75 166.55 267.37 166.55 264.9 164.16 266.28"/><polygon class="cls-44" points="158.88 265.7 164.16 268.75 164.16 266.28 158.88 263.23 158.88 265.7"/><polygon class="cls-45" points="158.88 263.23 164.16 266.28 166.55 264.9 161.29 261.85 158.88 263.23"/><polygon class="cls-43" points="157.96 271.1 157.96 273.57 160.35 272.19 160.35 269.72 157.96 271.1"/><polygon class="cls-44" points="152.68 270.52 157.96 273.57 157.96 271.1 152.68 268.05 152.68 270.52"/><polygon class="cls-45" points="152.68 268.05 157.96 271.1 160.35 269.72 155.09 266.67 152.68 268.05"/></svg>