<svg id="Layer_1" data-name="Layer 1" xmlns="http://www.w3.org/2000/svg" xmlns:xlink="http://www.w3.org/1999/xlink" viewBox="0 0 500 500"><defs><style>.cls-1{opacity:0.3;fill:url(#Degradado_sin_nombre_11);}.cls-2{fill:url(#Degradado_sin_nombre_3);}.cls-3{fill:url(#Degradado_sin_nombre_13);}.cls-4{fill:#2c3144;}.cls-5{fill:#24126a;}.cls-6{fill:url(#Degradado_sin_nombre_8);}.cls-7{fill:url(#Degradado_sin_nombre_8-2);}.cls-8{fill:#f0f6ff;}.cls-9{fill:#fcd1c5;}.cls-10{fill:url(#Degradado_sin_nombre_8-3);}.cls-11{fill:url(#Degradado_sin_nombre_8-4);}.cls-12{fill:#453c9e;}.cls-13{fill:#aa8383;}.cls-14{fill:#c4ccd6;}.cls-15{fill:#e2b1a6;}.cls-16{fill:#936d6d;}.cls-17{fill:url(#Degradado_sin_nombre_8-5);}.cls-18{fill:url(#Degradado_sin_nombre_8-6);}.cls-19{fill:url(#Degradado_sin_nombre_8-7);}.cls-20{fill:#ca4b7c;}.cls-21{fill:#6e376e;}.cls-22{fill:#160a5b;}.cls-23{fill:url(#Áåçûìÿííûé_ãðàäèåíò_2);}.cls-24{fill:#722318;}.cls-25{fill:url(#Áåçûìÿííûé_ãðàäèåíò_2-2);}.cls-26{fill:url(#Degradado_sin_nombre_8-8);}</style><linearGradient id="Degradado_sin_nombre_11" x1="7.41" y1="250" x2="492.59" y2="250" gradientUnits="userSpaceOnUse"><stop offset="0" stop-color="#ca4b7c"/><stop offset="1" stop-color="#fe7087"/></linearGradient><linearGradient id="Degradado_sin_nombre_3" x1="1323.24" y1="154.43" x2="1665.66" y2="154.43" gradientTransform="matrix(0.88, -0.43, 0.43, 0.88, -1133.41, 875.18)" gradientUnits="userSpaceOnUse"><stop offset="0" stop-color="#fe7087"/><stop offset="1" stop-color="#fe734c"/></linearGradient><linearGradient id="Degradado_sin_nombre_13" x1="1281.53" y1="72.73" x2="1601.16" y2="72.73" gradientTransform="translate(-1104.2 877.22) rotate(-23.83)" gradientUnits="userSpaceOnUse"><stop offset="0" stop-color="#fe7087"/><stop offset="1" stop-color="#fe9d82"/></linearGradient><linearGradient id="Degradado_sin_nombre_8" x1="239.72" y1="248.26" x2="345.1" y2="274.69" gradientUnits="userSpaceOnUse"><stop offset="0" stop-color="#6e376e"/><stop offset="1" stop-color="#ca4b7c"/></linearGradient><linearGradient id="Degradado_sin_nombre_8-2" x1="-2987.53" y1="170.06" x2="-3081.98" y2="154.67" gradientTransform="matrix(-1, 0, 0, 1, -2750.76, 0)" xlink:href="#Degradado_sin_nombre_8"/><linearGradient id="Degradado_sin_nombre_8-3" x1="-2982.14" y1="161.32" x2="-3027.7" y2="139.18" gradientTransform="matrix(-1, 0, 0, 1, -2750.76, 0)" xlink:href="#Degradado_sin_nombre_8"/><linearGradient id="Degradado_sin_nombre_8-4" x1="-3008.24" y1="181.4" x2="-3088.44" y2="149.63" gradientTransform="matrix(-1, 0, 0, 1, -2750.76, 0)" xlink:href="#Degradado_sin_nombre_8"/><linearGradient id="Degradado_sin_nombre_8-5" x1="212.79" y1="308.95" x2="124.14" y2="345.01" xlink:href="#Degradado_sin_nombre_8"/><linearGradient id="Degradado_sin_nombre_8-6" x1="206.05" y1="188.49" x2="111.25" y2="208.42" xlink:href="#Degradado_sin_nombre_8"/><linearGradient id="Degradado_sin_nombre_8-7" x1="144.32" y1="230.47" x2="194.52" y2="230.47" xlink:href="#Degradado_sin_nombre_8"/><linearGradient id="Áåçûìÿííûé_ãðàäèåíò_2" x1="-3483.99" y1="124.94" x2="-3476.99" y2="124.94" gradientTransform="matrix(-1, -0.09, -0.09, 1, -3273.42, -119.54)" gradientUnits="userSpaceOnUse"><stop offset="0" stop-color="#5761d7"/><stop offset="0.07" stop-color="#5472d8"/><stop offset="0.28" stop-color="#4e9cdb"/><stop offset="0.48" stop-color="#49bddd"/><stop offset="0.67" stop-color="#45d5df"/><stop offset="0.85" stop-color="#43e3e0"/><stop offset="1" stop-color="#42e8e0"/></linearGradient><linearGradient id="Áåçûìÿííûé_ãðàäèåíò_2-2" x1="-3497.25" y1="111.65" x2="-3490.26" y2="111.65" xlink:href="#Áåçûìÿííûé_ãðàäèåíò_2"/><linearGradient id="Degradado_sin_nombre_8-8" x1="184.6" y1="283" x2="194.3" y2="283" xlink:href="#Degradado_sin_nombre_8"/></defs><title>Kategori konsultasi</title><circle class="cls-1" cx="250" cy="250" r="242.59"/><path class="cls-2" d="M67.53,397.11c-9.82-27.56,9.52-51.29,19.27-62.49,23.82-27.34,80.91-61.58,190-63.7,79.74-1.55,113.1,28.61,127,55.92,10.9,21.45,20.35,45.91-3.65,83.15-21.79,33.81-78.6,63.64-143.69,31.95C173.22,401.45,88.33,455.53,67.53,397.11Z"/><path class="cls-3" d="M76.69,377.33c-3.39-12,5.47-27.86,15.21-38.21C115.67,313.85,177,262.41,281.36,264c76.29,1.16,107.08,31,119.35,57.48a59.22,59.22,0,0,1-8.54,62.91c-24.74,29.47-79.76,76.41-140.82,44.06C173.3,387.1,95.29,442.87,76.69,377.33Z"/><path class="cls-4" d="M289,311.43s-1.4,1.47-2.86,3.19-5.56,4.13-7.28,5.2-9.61,7.05-11.26,12.93,4,6.67,9.76,5.65,11.15-6.35,12.72-8.27,7-6.28,14.1-9.94,2.8-8.58,2.8-8.58Z"/><path class="cls-4" d="M341.54,328.92A21.84,21.84,0,0,1,343,335c.33,3.41.81,10.79,1,12.95a18.31,18.31,0,0,1-3.56,12.5c-3.8,5.06-5.76,7.06-10.81,5.07s-4.94-10.47-4-14.83a121.86,121.86,0,0,0,1.63-15.14,3.07,3.07,0,0,1,.29-1.68Z"/><path class="cls-5" d="M271.58,211.41s1.07,38.88,10.13,59.51a150.36,150.36,0,0,1,7.34,39.8s-1.49,3.72.63,6.75,15.43,5.79,17.62-4.15,1.36-28.54-1.06-36.3.86-29.14.86-29.14,3.64,2.33,8.4,17.69,8.28,21.22,9.91,25.46,3.15,30.27,2.11,43c0,0,10.77,1.53,13.89-3.62s4.15-31.78,3.36-40.27-4.34-35.7-3.85-44.12,2.24-15.26.32-23.66-58.77-27.09-58.77-27.09Z"/><path class="cls-6" d="M271.58,211.41s1.07,38.88,10.13,59.51a150.36,150.36,0,0,1,7.34,39.8s-1.49,3.72.63,6.75,15.43,5.79,17.62-4.15,1.36-28.54-1.06-36.3.86-29.14.86-29.14,3.64,2.33,8.4,17.69,8.28,21.22,9.91,25.46,3.15,30.27,2.11,43c0,0,10.77,1.53,13.89-3.62s4.15-31.78,3.36-40.27-4.34-35.7-3.85-44.12,2.24-15.26.32-23.66-58.77-27.09-58.77-27.09Z"/><path class="cls-4" d="M340.92,246c.49-8.42,2.24-15.26.32-23.66-.73-3.16-9.21-7.78-19.52-12.3-17.39-1.59-39.45-3.43-41-3.2a56.38,56.38,0,0,0-7.95,2.77l-1.22,1.8s.07,2.36.3,6.22c4.06,1.22,11.86,0,11.86,0,1.1,2.72,7.88,12.42,16.31,16.6s33.1,2.75,34.52,4.34,1.69,22.88,1.53,25.58,2.32,19.75,4.62,34.81c2.26,14.82-1.18,32.84-1.29,33.41a6,6,0,0,0,2-1.95c3.11-5.14,4.15-31.78,3.36-40.27S340.43,254.42,340.92,246Z"/><path class="cls-7" d="M290.61,84.25S278,87.13,273.75,88.12a2.17,2.17,0,0,0-1.53,1.34c-1.23,3.1-4.3,12.73-2,26.8,2.84,17.28,1.94,28.92,1.94,28.92l-5.83,30.35s-7.34,28.92-6.7,29.71,16.88,13.16,22,11.41S285,212,285,212s4.12,21,22.33,20.75,33.09-.14,36.18-7.5-.84-38.32-4.06-50.57S328.63,138,328.63,138l26.67-29.52L332.51,91.11S327.06,81,324.82,79.7s-3.41-.2-3.41-.2Z"/><path class="cls-4" d="M281.92,210c0,1.05-.59,2.62-3.87,3.74-3.53,1.21-12.2-4.05-17.88-8,2.84,2.36,16.79,12.55,21.44,11a8.1,8.1,0,0,0,2.29-1.14A36.94,36.94,0,0,1,281.92,210Z"/><path class="cls-8" d="M324.33,79.45s4.65,5.63-2.05,13.24C318.16,97.37,311.06,107.47,305,118c-3.78,6.55-7.27,10-9.25,15.67,0,0-.28-6.69-.54-17-.25-9.74-.38-19.86,0-22.41C296.18,89,319.18,76.89,324.33,79.45Z"/><path class="cls-9" d="M306.91,96.4s-2.39,1.48-3.21,1.36-3.46-2.69-3.46-2.69-6.61-.12-7.34-2.95S291.71,86.43,291,85s-3.52-8.54-3.55-11.41.09-8-1.15-10.7S283.43,33,309.64,33.77s18.06,28,18.06,28,1.91.82.75,4.32-1.41,3.86-2,5.6-.88,2.85-2.54,4.27l-.44,3.22a12.93,12.93,0,0,1-2,9.72C318.19,93.66,306.91,96.4,306.91,96.4Z"/><path class="cls-5" d="M273,88.44s-2.79.41-11.85,23.22c-5.06,12.72-12.87,25.9-14.52,35.36s-.73,19.56,1.13,20.27,34.37,12.88,44.57,16.72a1,1,0,0,0,1.28-.73l2.81-15.73-20.21-7.81s-3.85-4.7-7.47-6.47c0,0,4.05-7.46,3.79-9.5s.36-23.14-2-31.72S273,88.44,273,88.44Z"/><path class="cls-10" d="M273,88.44s-2.79.41-11.85,23.22c-5.06,12.72-12.87,25.9-14.52,35.36s-.73,19.56,1.13,20.27,34.37,12.88,44.57,16.72a1,1,0,0,0,1.28-.73l2.81-15.73-20.21-7.81s-3.85-4.7-7.47-6.47c0,0,4.05-7.46,3.79-9.5s.36-23.14-2-31.72S273,88.44,273,88.44Z"/><path class="cls-9" d="M284.87,148.7a39,39,0,0,0-3.47-2.13c-.69-.27-4.41-1.54-5.12-1.86a14.27,14.27,0,0,0-3.78.06,1.15,1.15,0,0,0-.93.61c-.86,1.6-3.25,6.24-3,8,0,0,6.73,4.25,7.48,6.15l1.07.23S281.65,150.1,284.87,148.7Z"/><path class="cls-4" d="M339.47,174.72c-.77-2.95-1.8-6.6-2.92-10.45l-40.93,17.55a43.19,43.19,0,0,0,33.73,14.1,28.3,28.3,0,0,0,13.3-4.21A162.44,162.44,0,0,0,339.47,174.72Z"/><path class="cls-5" d="M355.3,108.52s-10.79,1.48-19.51,15.31a209.19,209.19,0,0,0-15.08,29.82l-.3,1.8a7.28,7.28,0,0,1-10.15,5.45c-9.21-4.11-22.85-10.33-25.39-12.2a23.5,23.5,0,0,0-10.38,15.16c-1.77,8.5-1.32,8.52-1.32,8.52s36.34,17,50.38,16.8,31.85-46.32,33.81-55.86S361.48,111.21,355.3,108.52Z"/><path class="cls-11" d="M355.3,108.52s-10.79,1.48-19.51,15.31a209.19,209.19,0,0,0-15.08,29.82l-.3,1.8a7.28,7.28,0,0,1-10.15,5.45c-9.21-4.11-22.85-10.33-25.39-12.2a23.5,23.5,0,0,0-10.38,15.16c-1.77,8.5-1.32,8.52-1.32,8.52s36.34,17,50.38,16.8,31.85-46.32,33.81-55.86S361.48,111.21,355.3,108.52Z"/><path class="cls-12" d="M315.48,163.05s4.59,4.29,6.58,1.94,1.41-2.61,1.41-2.61,4.13,0,4.63-2.62,2.53-1.22,2.65-4.1-3.34-2.29-3.34-2.29Z"/><path class="cls-9" d="M309.94,160.76s1.26-1.18,2.89-2.55,4.25-7.07,4.7-7.58,5.93-4.7,8.57-4.78.68,2.89.07,3.31-3.19,1.7-3.19,1.7-2.65,2.23-3,2.55,7.38-.52,8.6.23a2.07,2.07,0,0,1,.08,3.24,3,3,0,0,1-1.52.52,2.67,2.67,0,0,1-1.44,3.38c-2.31,1.08-2.84.48-2.84.48s-.2,4-4,3.2Z"/><path class="cls-13" d="M285.75,49s-3.42,10.89,5.58,7.79,17.15-8.29,20-6.31c2.15,1.5,2.05,6.11,1.88,8.22a3.11,3.11,0,0,0,.54,2l2.67,3.88a3,3,0,0,1,.52,1.48l.19,2.7A1.34,1.34,0,0,0,318.38,70l.61,0a1.36,1.36,0,0,0,1.42-1.12l.69-4s2.12-5.33,6.6-3.24c0,0,3-4,2-12.63s-4.85-17.55-21.74-19S285.75,49,285.75,49Z"/><path class="cls-14" d="M311.56,106,309,104a13.58,13.58,0,0,0-3.25,4c-.91,2.06,0,8.61,0,8.61L305,118l-.95-1.73-.8-7.74s.86-5.72.94-5.87,4.87.51,4.87.51A9.91,9.91,0,0,1,311.56,106Z"/><path class="cls-14" d="M299.41,98.28s-2.7.18-3.92,1.19c0,0,2.84.14,3.29.19S299.41,98.28,299.41,98.28Z"/><path class="cls-4" d="M304.55,98.89l4.53,4.23s-4,1.83-5.08,5.39c0,0-4.94.92-5.38-.87s0-6.28-.58-8.28S304.55,98.89,304.55,98.89Z"/><path class="cls-4" d="M298.8,107.54a25.06,25.06,0,0,1-1.76,5.24c-.92,1.53-1.87,3.25-1.87,3.25l.11,21.74s8-16.48,9.74-19.82c0,0-.27-7.94-1-9.44S298.8,107.54,298.8,107.54Z"/><path class="cls-15" d="M320.27,75.41c-5.25,15.16-20,19.66-20,19.66s2.64,2.56,3.46,2.69,3.21-1.36,3.21-1.36,11.28-2.74,14.54-7.53a12.93,12.93,0,0,0,2-9.72l.44-3.22A3.58,3.58,0,0,1,320.27,75.41Z"/><path class="cls-4" d="M332.29,93.16s-2.08,7.15-2.34,7.42-5.22-.3-5.22-.3l2.41,4.54s-24.88,26.68-30,41c0,0,11.77-18.19,32.49-39.91l-2.93-4.44,5.09,1Z"/><path class="cls-4" d="M291.43,86.84l-1.32,1.51,1.55,1.44L287.06,94s-1.41,29.18,4.21,48.51c0,0-7.63-17.73-5.9-49.3l5-3.38-1.63-1.6Z"/><path class="cls-4" d="M307.1,247.88l.17.14-6.44-6.86c3,4.2-.45,23.4-.81,27.8s3.44,13.48,4.86,24.12-1.49,25.8-1.49,25.84a8.18,8.18,0,0,0,3.91-5.6c2.2-9.94,1.36-28.54-1.06-36.3S307.1,247.88,307.1,247.88Z"/><path class="cls-16" d="M319,70.06a1.36,1.36,0,0,0,1.42-1.12l.69-4s2.12-5.33,6.6-3.24c0,0,2.82-3.82,2.06-12-5,7.47-16,10.92-16,10.92l2.67,3.88a3,3,0,0,1,.52,1.48l.19,2.7A1.34,1.34,0,0,0,318.38,70Z"/><path class="cls-4" d="M157.23,385.28a65.73,65.73,0,0,0,11.36,1.64c5.59.22,20.78,3.27,20.41,8.94s-8.32,13.88-18.27,15.09-22.77-1.65-29.27-1.47-11-6.46-8.41-12.81S157.23,385.28,157.23,385.28Z"/><path class="cls-4" d="M123.68,370s-2.12,3.43-1.08,5.53,3.83,7.34,12.93,2.27,26.54-12.25,26.54-12.25,10-5.33,9.47-11.62-9.77-5.33-9.77-5.33Z"/><path class="cls-5" d="M182.74,280.78s-3.86,40.87-12.08,56.36c-8.35,15.74-10.65,44.58-12.39,50.08s-7.16,13.49-15.68,15.18-9.92-4.11-9.5-7.59,2.78-9.09,2.81-12.86-.84-5.51-1-7.23c0,0-9.76,2.87-11.25-4.69a21,21,0,0,0,.93-3.33c.13-1.12-.84-28.48-1.08-31.8s1.55-21.19,4.26-30,1.8-27.32,1.8-27.32l27.79-3.88Z"/><path class="cls-17" d="M182.74,280.78s-3.86,40.87-12.08,56.36c-8.35,15.74-10.65,44.58-12.39,50.08s-7.16,13.49-15.68,15.18-9.92-4.11-9.5-7.59,2.78-9.09,2.81-12.86-.84-5.51-1-7.23c0,0-9.76,2.87-11.25-4.69a21,21,0,0,0,.93-3.33c.13-1.12-.84-28.48-1.08-31.8s1.55-21.19,4.26-30,1.8-27.32,1.8-27.32l27.79-3.88Z"/><path class="cls-4" d="M137.82,280.54a31.36,31.36,0,0,0,2.77,11.74S140.54,314,142.77,325c0,0-3.6,22.09-5.86,29.05s-2,20.67-2,20.67a9.6,9.6,0,0,1-2.7.47c-1.6.06-1.71-27,.74-31.77s4.27-25.85,3.36-32.27-.6-24.66-1.81-27.89a4.08,4.08,0,0,1,1.51-4.92Z"/><path class="cls-4" d="M161.21,133.11s8.07,5.84,7.66,15.93l-6-1.3S164.66,136.58,161.21,133.11Z"/><path class="cls-4" d="M158.07,289.44c-18.42.57-28.36-7.6-28.36-7.6,0-2.58-.12-4.26-.12-4.26l27.79-3.88,25.36,7.08s-.77,8.06-2.33,18.38c-4.52.49-9-10.61-9-10.61l-12.63.8S176.48,288.88,158.07,289.44Z"/><path class="cls-12" d="M179.19,281.39s-40.05,16.34-59.41-14.66a5.45,5.45,0,0,1-.77-3.05l.24-7.23a7.54,7.54,0,0,0-.39-2.68h0a11.4,11.4,0,0,1-.39-5.77c1.49-8.08,5.55-30,6.51-36.13,1.16-7.43-2.78-37.18-9.43-50.06-6.54-12.7,10.27-41.25,10.27-41.25A10.93,10.93,0,0,1,138,116.17s-7.71,5.39-3.49,11.08,16.9,10.3,16.9,10.3,23.41,12.15,31.42,26.93a61.58,61.58,0,0,1,3,17.41c.25,9.83-.84,33.42-.43,36.7s1.66,25.77,1.53,26.82S179.19,281.39,179.19,281.39Z"/><path class="cls-18" d="M179.19,281.39s-40.05,16.34-59.41-14.66a5.45,5.45,0,0,1-.77-3.05l.24-7.23a7.54,7.54,0,0,0-.39-2.68h0a11.4,11.4,0,0,1-.39-5.77c1.49-8.08,5.55-30,6.51-36.13,1.16-7.43-2.78-37.18-9.43-50.06-6.54-12.7,10.27-41.25,10.27-41.25A10.93,10.93,0,0,1,138,116.17s-7.71,5.39-3.49,11.08,16.9,10.3,16.9,10.3,23.41,12.15,31.42,26.93a61.58,61.58,0,0,1,3,17.41c.25,9.83-.84,33.42-.43,36.7s1.66,25.77,1.53,26.82S179.19,281.39,179.19,281.39Z"/><path class="cls-4" d="M134.26,120.3a5.78,5.78,0,0,1,.14-4.54,12,12,0,0,1,3.63.41A14.4,14.4,0,0,0,134.26,120.3Z"/><path class="cls-4" d="M167.05,284.73s-23.59-63.69-22.47-86.8c1.1-22.54,34.43,45.66,34.43,45.66l.18,37.8S171.62,284.17,167.05,284.73Z"/><path class="cls-19" d="M179.77,209.49a104.12,104.12,0,0,1-1.41-15.62c-.1-9.06-2.65-24.08-19-21.47-23.16,3.69-13.25,36.14-10.71,41.81s12.69,31.41,13.22,32.87,16.52,33.46,22.25,41.16a1.4,1.4,0,0,0,2.08.26c2.32-2,7.53-6.68,8.22-9.66.87-3.83-2.47-17.71-2.47-17.71s-9-34.69-9.79-36.31C181.55,223.61,181.16,217.91,179.77,209.49Z"/><path class="cls-9" d="M160.81,133.84s1.84-4.18,6.09-4.61,6.66-1.62,7.09-3.19.45-3.48,1.48-5.82a42.42,42.42,0,0,0,1.88-8.22c0-.14,3.21-1.11,3.37-2.53s-1.52-6.49-1.33-6.88,1.91-3.5,1.68-5.92a29.85,29.85,0,0,0-1.84-8.86c-1.28-3-10.29-20.92-33.71-11.67-23.69,9.36-5.67,29.23-8,42.12,0,0-2.1,2.71,1.76,7.32S154.35,131.22,160.81,133.84Z"/><path class="cls-15" d="M139.26,125.58c-3.86-4.61-1.76-7.32-1.76-7.32a17.59,17.59,0,0,0-.05-5.74l9.28,1.77s13.69-12.18,12.71-5.66,2.35,7.7,2.35,7.7L159,119.91c-.72.91-.29,2,.3,3,3.9,6.72,13.39,4.7,13.41,4.71a13.62,13.62,0,0,1-5.79,1.61c-4.25.43-6.09,4.61-6.09,4.61C154.35,131.22,143.14,130.21,139.26,125.58Z"/><path class="cls-13" d="M180.24,81s1.64,4.8-1,6.83-5.06,3.93-5.06,3.93v6.1a4.54,4.54,0,0,1-.72,2.48l-3.34,5.14a6.27,6.27,0,0,0-1,3.36v2.5a1.44,1.44,0,0,1-1.26,1.42l-.87.1a1.42,1.42,0,0,1-1.56-1.28l-.36-3.46s-1.75-2.79-5.61.53L156,110.05a3.69,3.69,0,0,0-2.09,2.18c-1,2.67-3,7.93-4.59,8.81-2.1,1.18-10.2-3-11.28-4.87s-3.82-14.2-5.51-20.09-.69-20.32,16.76-24S177.84,75.74,180.24,81Z"/><path class="cls-16" d="M138,116.17c-1.08-1.85-3.82-14.2-5.51-20.09A42.61,42.61,0,0,0,148,101.91c8.77,1.34,26.14-8.54,26.14-8.54v4.47a4.54,4.54,0,0,1-.72,2.48l-3.34,5.14a6.27,6.27,0,0,0-1,3.36v2.5a1.44,1.44,0,0,1-1.26,1.42l-.87.1a1.42,1.42,0,0,1-1.56-1.28l-.36-3.46s-1.75-2.79-5.61.53l-5,2.05s-3,9.18-5.13,10.36S139.11,118,138,116.17Z"/><path class="cls-8" d="M137.68,116.76s-6.79,4.18-3.4,10.11,28,16.57,29.22,18.14c0,0,1-8.89-2.29-11.9,0,0-18.84-3.67-21.76-8.48S137.68,116.76,137.68,116.76Z"/><path class="cls-14" d="M137.68,116.76s-1.14,3.09,1.77,7.87c2.21,3.64,13.53,6.63,18.91,7.86h0s-2,1.14-5.35,6.84c-7.56-3.93-16.75-9-18.73-12.46C130.89,120.94,137.68,116.76,137.68,116.76Z"/><path class="cls-4" d="M133.09,135.73s11,6.28,16.3,9.12,11.2,6.63,11.2,6.63l2-2,2.46,5.41s8.41,5.06,12.35,9.27a43.06,43.06,0,0,1,7.37,11S174.31,161.34,166,157.25l-2.23-1.12-1.26-4.29-2,2.15S136.43,139.47,133.09,135.73Z"/><path class="cls-20" d="M161.35,321.67h0a5.39,5.39,0,0,1,1.46-2.36l45.08-37.85c1.19-1,2.34-.23,2.57,1.7l5.27,44.07a7.09,7.09,0,0,1-1.76,5.58l-37.86,32.74,1.31,12.74-11.32-5.21v0a2.75,2.75,0,0,1-1-2.16l-4.21-46A7.73,7.73,0,0,1,161.35,321.67Z"/><path class="cls-20" d="M220.18,285.81l-10.66-4.61-.34-.14a1.46,1.46,0,0,0-1.28.4l-45.08,37.85a5.49,5.49,0,0,0-1.47,2.36l1.61.77h0l9.18,4.44,39.52-33.78h0Z"/><path class="cls-5" d="M225.08,337.75,179,377.91c-1.27,1.1-2.46.26-2.67-1.88l-4.48-46.28a7.21,7.21,0,0,1,1.88-5.57l45-38c1.18-1,2.34-.23,2.58,1.71l5.54,44.29A7.11,7.11,0,0,1,225.08,337.75Z"/><path class="cls-21" d="M225.08,337.75,179,377.91c-1.27,1.1-2.46.26-2.67-1.88l-4.48-46.28a7.21,7.21,0,0,1,1.88-5.57l45-38c1.18-1,2.34-.23,2.58,1.71l5.54,44.29A7.11,7.11,0,0,1,225.08,337.75Z"/><path class="cls-22" d="M170.59,373.33l-4.35-46.17a7.18,7.18,0,0,1,1.89-5.55l45-37.94a1.56,1.56,0,0,1,1.07-.43,1.37,1.37,0,0,0-1.44.35l-45,37.93a7.19,7.19,0,0,0-1.89,5.55l4.33,46.16c.14,1.47.71,2.39,1.49,2.41C171.1,375.39,170.7,374.54,170.59,373.33Z"/><path class="cls-22" d="M187.09,305.36l-2.35-1.18a2.33,2.33,0,0,0-1.47-.26l-.19,0c-.24.05-.36.31-.32.67l0,.42,6.64,3.32-.05-.43a2,2,0,0,0-.5-1.08l-.22-.24A5.44,5.44,0,0,0,187.09,305.36Z"/><polygon class="cls-22" points="186.25 311.06 189.44 308.37 182.86 304.11 179.72 306.74 186.25 311.06"/><path class="cls-23" d="M183.91,308l-2.36-1.18a2.19,2.19,0,0,0-1.47-.26l-.19,0c-.23.05-.36.31-.32.67l0,.43,6.65,3.32,0-.43a2.1,2.1,0,0,0-.5-1.08l-.22-.25A5.57,5.57,0,0,0,183.91,308Z"/><polygon class="cls-24" points="182.5 309.18 182.3 307.23 182.5 307.33 182.7 309.28 182.5 309.18"/><polygon class="cls-24" points="182.3 307.23 185.57 304.6 185.74 304.69 182.5 307.33 182.3 307.23"/><path class="cls-22" d="M201.41,293.32l-2.35-1.16a2.17,2.17,0,0,0-1.46-.26l-.19,0c-.23.05-.35.3-.31.65l.05.43,6.62,3.27-.05-.42a2.08,2.08,0,0,0-.51-1.07l-.22-.24A5.48,5.48,0,0,0,201.41,293.32Z"/><polygon class="cls-22" points="200.62 298.95 203.77 296.29 197.19 292.08 194.09 294.68 200.62 298.95"/><path class="cls-25" d="M198.27,296l-2.35-1.17a2.33,2.33,0,0,0-1.47-.26l-.18,0c-.24.05-.36.3-.32.66l.05.42,6.62,3.29-.05-.43a2,2,0,0,0-.5-1.06l-.23-.25A5.45,5.45,0,0,0,198.27,296Z"/><polygon class="cls-24" points="196.87 297.09 196.66 295.17 196.86 295.27 197.07 297.19 196.87 297.09"/><polygon class="cls-24" points="196.66 295.17 199.89 292.57 200.06 292.65 196.86 295.27 196.66 295.17"/><path class="cls-12" d="M181,298l.85,8.21,2.13-1.79-.84-8a4.27,4.27,0,0,1,1.28-3.36l9.18-7.67c.82-.69,1.58-.31,1.71.84l.88,7.9,2.11-1.77-.92-8.1c-.28-2.53-2-3.37-3.78-1.86l-9.78,8.17A9.42,9.42,0,0,0,181,298Z"/><path class="cls-12" d="M196.84,284.87l-3.78-.39-10.93,10.2-.47,6.29.22,5.25,2.44,1.23.08-6.56.13-4.47,2.27-3.24s4.1-3.32,4.14-3.41S196.84,284.87,196.84,284.87Z"/><polygon class="cls-12" points="198.66 295.37 196.22 294.16 195.57 288.34 197.9 288.53 198.59 288.65 198.66 295.37"/><path class="cls-12" d="M198.58,283.07,196,281.78s.69,1.44.71,1.43.86.3.87.3Z"/><path class="cls-22" d="M183.46,299.22l.86,8.23,2.14-1.8-.85-8a4.29,4.29,0,0,1,1.27-3.36l9.18-7.68c.81-.69,1.58-.31,1.71.84l.89,7.91,2.11-1.77-.93-8.11c-.29-2.54-2-3.37-3.78-1.87l-9.78,8.18A9.49,9.49,0,0,0,183.46,299.22Z"/><path class="cls-9" d="M193.72,278.5s1.56,8,1.12,10.06-4.29,5.91-6.6,6.62-1.37-2.05-1.89-3.78a24.45,24.45,0,0,1-.43-5.51Z"/><path class="cls-15" d="M185.92,285.89l7.8-7.39s.32,1.65.63,3.64c0,0-2.9,6-8.2,8.34A31,31,0,0,1,185.92,285.89Z"/><path class="cls-26" d="M194.3,279.1s-2.76,8.66-9.7,9.48L187,279.1s5.86-1.65,6-1.67S194.3,279.1,194.3,279.1Z"/></svg>