<svg id="Layer_1" data-name="Layer 1" xmlns="http://www.w3.org/2000/svg" xmlns:xlink="http://www.w3.org/1999/xlink" viewBox="0 0 500 500"><defs><style>.cls-1,.cls-16{opacity:0.3;}.cls-1{fill:url(#Degradado_sin_nombre_11);}.cls-2{opacity:0.1;}.cls-3{fill:url(#Degradado_sin_nombre_11-2);}.cls-4{fill:url(#Degradado_sin_nombre_11-3);}.cls-5{fill:url(#Degradado_sin_nombre_11-4);}.cls-6{fill:url(#Degradado_sin_nombre_13);}.cls-7{fill:#2c3144;}.cls-8{fill:#fff;}.cls-9{fill:url(#Degradado_sin_nombre_8);}.cls-10{fill:url(#Degradado_sin_nombre_13-2);}.cls-11{fill:url(#Degradado_sin_nombre_13-3);}.cls-12{fill:url(#Degradado_sin_nombre_13-4);}.cls-13{fill:#e9eaf4;}.cls-14,.cls-17{fill:none;stroke:#ccc1e0;stroke-miterlimit:10;}.cls-14{stroke-width:0.98px;}.cls-15{fill:#ccc1e0;}.cls-16{fill:#c8cad7;}.cls-17{stroke-width:1.18px;}.cls-18{fill:url(#Degradado_sin_nombre_8-2);}.cls-19{fill:url(#Degradado_sin_nombre_8-3);}.cls-20{fill:#ffb69b;}.cls-21{opacity:0.05;}.cls-22{fill:#75524f;}.cls-23{fill:#eba88f;}.cls-24{fill:#8e6863;}.cls-25{fill:#89605c;}.cls-26{fill:#a27771;}.cls-27{fill:#1e212e;}.cls-28{fill:#ff748e;}.cls-29{fill:url(#Degradado_sin_nombre_13-5);}.cls-30{fill:#6e6b87;}.cls-31{fill:url(#Degradado_sin_nombre_13-6);}.cls-32{fill:#f26886;}.cls-33{fill:url(#Degradado_sin_nombre_8-4);}.cls-34{fill:url(#Degradado_sin_nombre_8-5);}</style><linearGradient id="Degradado_sin_nombre_11" x1="7.41" y1="250" x2="492.59" y2="250" gradientUnits="userSpaceOnUse"><stop offset="0" stop-color="#ca4b7c"/><stop offset="1" stop-color="#fe7087"/></linearGradient><linearGradient id="Degradado_sin_nombre_11-2" x1="156.12" y1="380.42" x2="326.93" y2="380.42" xlink:href="#Degradado_sin_nombre_11"/><linearGradient id="Degradado_sin_nombre_11-3" x1="186.97" y1="356.45" x2="296.07" y2="356.45" xlink:href="#Degradado_sin_nombre_11"/><linearGradient id="Degradado_sin_nombre_11-4" x1="205.92" y1="338.88" x2="266.97" y2="338.88" xlink:href="#Degradado_sin_nombre_11"/><linearGradient id="Degradado_sin_nombre_13" x1="84.73" y1="212.82" x2="398.31" y2="212.82" gradientUnits="userSpaceOnUse"><stop offset="0" stop-color="#fe7087"/><stop offset="1" stop-color="#fe9d82"/></linearGradient><linearGradient id="Degradado_sin_nombre_8" x1="93.81" y1="106.26" x2="389.24" y2="106.26" gradientUnits="userSpaceOnUse"><stop offset="0" stop-color="#6e376e"/><stop offset="1" stop-color="#ca4b7c"/></linearGradient><linearGradient id="Degradado_sin_nombre_13-2" x1="110.96" y1="107.27" x2="119.03" y2="107.27" xlink:href="#Degradado_sin_nombre_13"/><linearGradient id="Degradado_sin_nombre_13-3" x1="122.51" y1="107.27" x2="130.58" y2="107.27" xlink:href="#Degradado_sin_nombre_13"/><linearGradient id="Degradado_sin_nombre_13-4" x1="133.62" y1="107.27" x2="141.69" y2="107.27" xlink:href="#Degradado_sin_nombre_13"/><linearGradient id="Degradado_sin_nombre_8-2" x1="255.79" y1="137.4" x2="275.06" y2="137.4" xlink:href="#Degradado_sin_nombre_8"/><linearGradient id="Degradado_sin_nombre_8-3" x1="121.96" y1="222.3" x2="138.06" y2="222.3" xlink:href="#Degradado_sin_nombre_8"/><linearGradient id="Degradado_sin_nombre_13-5" x1="349.26" y1="245.18" x2="395.87" y2="245.18" xlink:href="#Degradado_sin_nombre_13"/><linearGradient id="Degradado_sin_nombre_13-6" x1="344.75" y1="218.15" x2="368.8" y2="218.15" xlink:href="#Degradado_sin_nombre_13"/><linearGradient id="Degradado_sin_nombre_8-4" x1="371.38" y1="179.33" x2="398.96" y2="179.33" xlink:href="#Degradado_sin_nombre_8"/><linearGradient id="Degradado_sin_nombre_8-5" x1="372.18" y1="179.14" x2="394" y2="179.14" xlink:href="#Degradado_sin_nombre_8"/></defs><title>Kategori konsultasi</title><circle class="cls-1" cx="250" cy="250" r="242.59"/><ellipse class="cls-2" cx="250.03" cy="382.03" rx="156.22" ry="15.06"/><ellipse class="cls-2" cx="377.59" cy="402.65" rx="37.67" ry="10.37"/><path class="cls-3" d="M320.32,387H162.73a6.61,6.61,0,0,1-6.61-6.6h0a6.61,6.61,0,0,1,6.61-6.61H320.32a6.61,6.61,0,0,1,6.61,6.61h0A6.61,6.61,0,0,1,320.32,387Z"/><path class="cls-4" d="M296.07,378.34H187c20.1-7.77,21.78-24.77,20.69-35.15a42.61,42.61,0,0,0-1.74-8.63H267a55.3,55.3,0,0,0-1.47,8.63C262.86,375,296.07,378.34,296.07,378.34Z"/><path class="cls-5" d="M267,334.56a55.3,55.3,0,0,0-1.47,8.63H207.66a42.61,42.61,0,0,0-1.74-8.63Z"/><path class="cls-6" d="M398.31,104.88V320.76a17.9,17.9,0,0,1-17.9,17.91H102.64a17.91,17.91,0,0,1-17.91-17.91V104.88A17.9,17.9,0,0,1,102.64,87H380.41A17.89,17.89,0,0,1,398.31,104.88Z"/><path class="cls-7" d="M398.31,104.88V298.63H84.73V104.88A17.9,17.9,0,0,1,102.64,87H380.41A17.89,17.89,0,0,1,398.31,104.88Z"/><rect class="cls-8" x="93.81" y="99.56" width="295.42" height="190.62" rx="8.67" ry="8.67"/><path class="cls-9" d="M389.24,108.23V113H93.81v-4.73a8.67,8.67,0,0,1,8.68-8.67H380.56A8.67,8.67,0,0,1,389.24,108.23Z"/><path class="cls-10" d="M119,107.27a4,4,0,1,1-4-4A4,4,0,0,1,119,107.27Z"/><path class="cls-11" d="M130.58,107.27a4,4,0,1,1-4-4A4,4,0,0,1,130.58,107.27Z"/><path class="cls-12" d="M141.69,107.27a4,4,0,1,1-4-4A4,4,0,0,1,141.69,107.27Z"/><rect class="cls-13" x="114.97" y="125.47" width="120.66" height="29.71" rx="4.47" ry="4.47"/><rect class="cls-14" x="119.04" y="130.01" width="20.63" height="20.63" rx="4.35" ry="4.35"/><path class="cls-15" d="M228.77,139.36H152.11a2.79,2.79,0,0,1-2.79-2.8h0a2.79,2.79,0,0,1,2.79-2.79h76.66a2.79,2.79,0,0,1,2.79,2.79h0A2.79,2.79,0,0,1,228.77,139.36Z"/><path class="cls-15" d="M182.76,146.88H152.11a2.79,2.79,0,0,1-2.79-2.79h0a2.79,2.79,0,0,1,2.79-2.79h30.65a2.79,2.79,0,0,1,2.79,2.79h0A2.79,2.79,0,0,1,182.76,146.88Z"/><rect class="cls-13" x="114.97" y="166.46" width="120.66" height="29.71" rx="4.47" ry="4.47"/><rect class="cls-14" x="119.04" y="171" width="20.63" height="20.63" rx="4.35" ry="4.35"/><path class="cls-15" d="M228.77,180.34H152.11a2.79,2.79,0,0,1-2.79-2.79h0a2.79,2.79,0,0,1,2.79-2.79h76.66a2.79,2.79,0,0,1,2.79,2.79h0A2.79,2.79,0,0,1,228.77,180.34Z"/><path class="cls-15" d="M182.76,187.87H152.11a2.79,2.79,0,0,1-2.79-2.8h0a2.79,2.79,0,0,1,2.79-2.79h30.65a2.79,2.79,0,0,1,2.79,2.79h0A2.79,2.79,0,0,1,182.76,187.87Z"/><rect class="cls-13" x="247.42" y="166.46" width="120.66" height="29.71" rx="4.47" ry="4.47"/><rect class="cls-14" x="251.49" y="171" width="20.63" height="20.63" rx="4.35" ry="4.35"/><path class="cls-15" d="M361.22,180.34H284.55a2.79,2.79,0,0,1-2.79-2.79h0a2.79,2.79,0,0,1,2.79-2.79h76.67a2.79,2.79,0,0,1,2.79,2.79h0A2.79,2.79,0,0,1,361.22,180.34Z"/><path class="cls-15" d="M315.21,187.87H284.55a2.79,2.79,0,0,1-2.79-2.8h0a2.79,2.79,0,0,1,2.79-2.79h30.66a2.79,2.79,0,0,1,2.79,2.79h0A2.79,2.79,0,0,1,315.21,187.87Z"/><rect class="cls-13" x="247.42" y="207.44" width="120.66" height="29.71" rx="4.47" ry="4.47"/><rect class="cls-14" x="251.49" y="211.98" width="20.63" height="20.63" rx="4.35" ry="4.35"/><path class="cls-15" d="M361.22,221.33H284.55a2.79,2.79,0,0,1-2.79-2.79h0a2.78,2.78,0,0,1,2.79-2.79h76.67a2.78,2.78,0,0,1,2.79,2.79h0A2.79,2.79,0,0,1,361.22,221.33Z"/><path class="cls-15" d="M315.21,228.85H284.55a2.79,2.79,0,0,1-2.79-2.79h0a2.79,2.79,0,0,1,2.79-2.79h30.66a2.79,2.79,0,0,1,2.79,2.79h0A2.79,2.79,0,0,1,315.21,228.85Z"/><rect class="cls-13" x="114.97" y="248.43" width="120.66" height="29.71" rx="4.47" ry="4.47"/><rect class="cls-14" x="119.04" y="252.97" width="20.63" height="20.63" rx="4.35" ry="4.35"/><rect class="cls-15" x="149.32" y="256.73" width="82.24" height="5.58" rx="1.43" ry="1.43"/><path class="cls-15" d="M182.76,269.84H152.11a2.79,2.79,0,0,1-2.79-2.79h0a2.78,2.78,0,0,1,2.79-2.79h30.65a2.78,2.78,0,0,1,2.79,2.79h0A2.79,2.79,0,0,1,182.76,269.84Z"/><rect class="cls-13" x="247.42" y="248.43" width="120.66" height="29.71" rx="4.47" ry="4.47"/><rect class="cls-14" x="251.49" y="252.97" width="20.63" height="20.63" rx="4.35" ry="4.35"/><rect class="cls-15" x="281.76" y="256.73" width="82.24" height="5.58" rx="1.43" ry="1.43"/><path class="cls-15" d="M315.21,269.84H284.55a2.79,2.79,0,0,1-2.79-2.79h0a2.78,2.78,0,0,1,2.79-2.79h30.66a2.78,2.78,0,0,1,2.79,2.79h0A2.79,2.79,0,0,1,315.21,269.84Z"/><rect class="cls-16" x="244.37" y="124.12" width="144.46" height="35.57" rx="5.36" ry="5.36"/><rect class="cls-13" x="247.42" y="119.61" width="144.46" height="35.57" rx="5.36" ry="5.36"/><rect class="cls-17" x="252.29" y="125.05" width="24.7" height="24.7" rx="5.21" ry="5.21"/><path class="cls-15" d="M383.66,136.23H291.88a3.33,3.33,0,0,1-3.34-3.34h0a3.34,3.34,0,0,1,3.34-3.34h91.78a3.35,3.35,0,0,1,3.34,3.34h0A3.34,3.34,0,0,1,383.66,136.23Z"/><path class="cls-15" d="M328.58,145.24h-36.7a3.33,3.33,0,0,1-3.34-3.34h0a3.34,3.34,0,0,1,3.34-3.34h36.7a3.35,3.35,0,0,1,3.34,3.34h0A3.34,3.34,0,0,1,328.58,145.24Z"/><polygon class="cls-18" points="258.57 134.8 255.79 137.21 262.46 145.92 275.06 131.47 272.65 128.87 262.89 140.92 258.57 134.8"/><rect class="cls-13" x="114.97" y="207.44" width="120.66" height="29.71" rx="4.47" ry="4.47"/><rect class="cls-14" x="119.04" y="211.98" width="20.63" height="20.63" rx="4.35" ry="4.35"/><path class="cls-15" d="M228.77,221.33H152.11a2.79,2.79,0,0,1-2.79-2.79h0a2.78,2.78,0,0,1,2.79-2.79h76.66a2.78,2.78,0,0,1,2.79,2.79h0A2.79,2.79,0,0,1,228.77,221.33Z"/><path class="cls-15" d="M182.76,228.85H152.11a2.79,2.79,0,0,1-2.79-2.79h0a2.79,2.79,0,0,1,2.79-2.79h30.65a2.79,2.79,0,0,1,2.79,2.79h0A2.79,2.79,0,0,1,182.76,228.85Z"/><polygon class="cls-19" points="124.28 220.13 121.96 222.14 127.53 229.42 138.06 217.34 136.05 215.18 127.89 225.24 124.28 220.13"/><rect class="cls-20" x="373.74" y="194.42" width="8.61" height="18.12"/><path class="cls-21" d="M382.35,196.28v5.92a44.48,44.48,0,0,1-8.61,1.87v-5.15l5.95-3.71S380.86,195.67,382.35,196.28Z"/><path class="cls-22" d="M385.93,388.94s7.79-3.5,11.71-1.22C397.64,387.72,395,393.76,385.93,388.94Z"/><path class="cls-23" d="M385,375.57l2.52,16s9.4-1.84,9.45-2.3-3.12-17-3.12-17Z"/><path class="cls-24" d="M371.66,397.55c-1.07-.75-1.41-1.56-1.27-2.3.25-1.49,2.38-2.73,4.4-2.72a12.92,12.92,0,0,0,3.22-.62l.64-.19c.49-.15,1-.32,1.48-.49l.64-.23,1.14-.42.63-.24c1.92-.75,3.39-1.4,3.39-1.4,8.57,2.88,11.71-1.22,11.71-1.22,3.66,3.2,2.48,5.42,2.39,6.89a1.58,1.58,0,0,0,.14.82C403.46,401.4,374.85,399.78,371.66,397.55Z"/><path class="cls-22" d="M371.66,397.55c-1.07-.75-1.41-1.56-1.27-2.3.31.18.61.38.92.54a17.83,17.83,0,0,0,3.84,1.45,34.6,34.6,0,0,0,8.36.9,43.51,43.51,0,0,0,6.46-.37c1.87-.28,3.7-.74,5.53-1.2a11.91,11.91,0,0,0,2.62-.89c.56-.3,1.06-.69,1.63-1l.28-.11a1.58,1.58,0,0,0,.14.82C403.46,401.4,374.85,399.78,371.66,397.55Z"/><path class="cls-25" d="M370.15,396.3s7.39-4.26,11.52-2.4C381.67,393.9,379.69,400.18,370.15,396.3Z"/><path class="cls-20" d="M367.81,383.11,372,398.78s9.16-2.79,9.16-3.25S376.28,379,376.28,379Z"/><path class="cls-26" d="M356.83,406.32c-1.14-.63-1.56-1.4-1.5-2.15.09-1.51,2.1-3,4.1-3.16a13,13,0,0,0,3.14-.94l.62-.26c.47-.2.95-.42,1.42-.64l.62-.29,1.08-.53.61-.31c1.83-.94,3.23-1.74,3.23-1.74,8.82,2,11.52-2.4,11.52-2.4,4,2.81,3,5.14,3.09,6.61a1.39,1.39,0,0,0,.22.8C388.86,406.92,360.23,408.22,356.83,406.32Z"/><path class="cls-25" d="M356.83,406.32c-1.14-.63-1.56-1.4-1.5-2.15.32.14.64.31,1,.44a18.31,18.31,0,0,0,4,1.05,34.22,34.22,0,0,0,8.4,0,41.62,41.62,0,0,0,6.4-1c1.82-.47,3.6-1.11,5.37-1.76a11.28,11.28,0,0,0,2.52-1.15c.52-.36,1-.79,1.52-1.12l.28-.14a1.39,1.39,0,0,0,.22.8C388.86,406.92,360.23,408.22,356.83,406.32Z"/><path class="cls-8" d="M367.81,402.41a.31.31,0,0,1-.3.24h-.06a10.24,10.24,0,0,1-4.88-2.57l.62-.26a9.74,9.74,0,0,0,4.38,2.24A.31.31,0,0,1,367.81,402.41Z"/><path class="cls-8" d="M369.51,401.2a.29.29,0,0,1-.29.24h-.06a10.14,10.14,0,0,1-4.55-2.27l.62-.29a9.44,9.44,0,0,0,4,2A.3.3,0,0,1,369.51,401.2Z"/><path class="cls-8" d="M371,400.16a.3.3,0,0,1-.3.25h-.06a10.13,10.13,0,0,1-4.28-2.06l.61-.31a9.2,9.2,0,0,0,3.79,1.77A.31.31,0,0,1,371,400.16Z"/><path class="cls-7" d="M380.7,385.76l-2.29.45-11.82,2.31s-11.53-25.72-14.11-38.95c-2.13-11-1.77-24.69-1.77-24.69l3.16-54L375.56,274l-.57,4.22-7.63,56.35Z"/><path class="cls-27" d="M380.7,385.76l-2.29.45a7.11,7.11,0,0,1-.56-.83c-2-3.62-2.73-7.76-3.68-11.77a139.29,139.29,0,0,0-6.6-20.29,55.18,55.18,0,0,1-3-8.43,44.27,44.27,0,0,1-.85-8.83c-.29-10.52-.13-21.1,1.66-31.47a101,101,0,0,1,4.46-17,71.07,71.07,0,0,0,2.19-7,2.56,2.56,0,0,1,1.07-1.84,7.51,7.51,0,0,1,1.87-.63l-7.63,56.35Z"/><path class="cls-7" d="M396.49,378.09l-1.07.21-11.65,2.32L375.34,329s-1.08-55.82-1.24-56.74l20.09-2.15-.31,6.38-2.6,53.89Z"/><path class="cls-27" d="M396.49,378.09l-1.07.21a7.65,7.65,0,0,1-1.06-1.92,20.69,20.69,0,0,1-1.23-4.63c-.32-2.14-.28-4.31-.5-6.46-.24-2.43-.78-4.81-1.26-7.2a143,143,0,0,1-2.44-19,229,229,0,0,1,.82-34.74c.53-5.87,1.19-11.72,1.91-17.57.35-2.81.39-5.93,1.09-8.66a2.31,2.31,0,0,1,1.13-1.59l-2.6,53.89Z"/><path class="cls-23" d="M403.06,256.55c-6.9,4.37-15.41,16.33-15.41,16.33l-3.23-14.26,10.91-9.36.08-.07-4-4.67-5.2-6.14-.06-.34c-.57-3.15-4.72-27.21,2.6-29.79,0,0,6.9,1.38,9,12.42.7,3.76,1.4,7.35,2.07,10.56,1.3,6.22,2.46,11,3.22,12.67C404.21,246.43,410,252.18,403.06,256.55Z"/><path class="cls-28" d="M399.84,231.23c-.89.5-1.8,1-2.72,1.38-2.76,1.3-5.62,2.4-8.27,3.92A10.3,10.3,0,0,1,386.2,238c-.58-3.15-4.72-27.21,2.59-29.79,0,0,6.91,1.38,9,12.42C398.46,224.43,399.17,228,399.84,231.23Z"/><path class="cls-2" d="M396.19,244.14c0,.6,0,1.21-.05,1.82a2.54,2.54,0,0,1-.11.82,14.18,14.18,0,0,1-.62,2.41l-4-4.67c-.19-1.2-.26-2.43-.4-3.64-.19-1.71-.5-3.43-.74-5.14a20.76,20.76,0,0,1,.05-7.54,3.2,3.2,0,0,1,.6-1.4,3.5,3.5,0,0,1,1.07-.75c.77-.4,2.29-1.12,2.8-.18a13.27,13.27,0,0,1,.84,4c.18,1.08.3,2.17.39,3.25A99.29,99.29,0,0,1,396.19,244.14Z"/><path class="cls-29" d="M395.86,217.69s-2.28,30.67-.13,51.22c2,19.31-18.19,15.32-33.88,12.23l-2.93-.57c-11.07-2.14-10.31-9.45-8.82-13.71a75.43,75.43,0,0,0,3-11.85l5.09-28.15,2.55-14.07c3.06-7.67,8.89-6.14,22.08-5.83S395.86,217.69,395.86,217.69Z"/><rect class="cls-30" x="382.8" y="376.13" width="14.57" height="4.52" rx="1.12" ry="1.12" transform="translate(-68.43 86.65) rotate(-11.66)"/><path class="cls-20" d="M368.8,206.8l-4.14,25.07-19.91-14.41-6.5-4.7s-7.5-5.17-6.94-32.41h6.21s5.75,14,5.29,19.09a40.45,40.45,0,0,0,10.65,5A50.65,50.65,0,0,0,368.8,206.8Z"/><path class="cls-31" d="M368.8,206.8l-4.14,25.07-19.91-14.41c2.53-4.33,6-8.18,8.46-12.56l.25-.47A50.65,50.65,0,0,0,368.8,206.8Z"/><path class="cls-20" d="M333.77,169.33a.63.63,0,0,0,1,.27.48.48,0,0,0,.17-.23.76.76,0,0,0,0-.47.64.64,0,0,0-.34-.48.71.71,0,0,0-.21,0,.62.62,0,0,0-.54.23.5.5,0,0,0,0,.36c0,.11,0,.21,0,.32a1.11,1.11,0,0,0-.3-.17.73.73,0,0,0-.36,0,.74.74,0,0,0-.32.19s-.2.29-.15.31l-.21-.08a.91.91,0,0,0-1.23.75v.05c-.54-.54-1.42.2-1.64.92-.86,2.78,1.39,5.53,1.63,8.43.07.77.05,1.68.68,2.14a2.27,2.27,0,0,0,1.39.27l2.36-.06c.72,0,1.6-.15,1.85-.82a3.29,3.29,0,0,0,0-1.13c0-1.08.83-2,1.46-2.83,1.31-1.8,1.92-4.43.58-6.22a55.56,55.56,0,0,1-4.09-6.93c-.32-.57-.76-1.21-1.44-1.13a1.16,1.16,0,0,0-.93,1.21,4.44,4.44,0,0,0,1.11,2.29,2.76,2.76,0,0,1,.49,1.29,1.45,1.45,0,0,1-.09.65c-.1.23-.52.15-.7.16,0,0,0,0-.05,0a0,0,0,0,0,0,0c0,.22,0,.45,0,.67"/><rect class="cls-30" x="364.95" y="383.7" width="16.6" height="4.52" rx="1.16" ry="1.16" transform="translate(-85.18 106.46) rotate(-14.59)"/><path class="cls-32" d="M361.85,281.14l-2.93-.57c-11.07-2.14-10.31-9.45-8.82-13.71a75.43,75.43,0,0,0,3-11.85l5.09-28.15a27.23,27.23,0,0,1,1.13,8.73,45.94,45.94,0,0,1-.46,5.74c-.84,5.81-2.55,11.45-3.55,17.23a14,14,0,0,0-.24,4.42c.34,2.26,1.64,4.24,2.78,6.21a27.68,27.68,0,0,1,3.93,11.13A7.5,7.5,0,0,1,361.85,281.14Z"/><path class="cls-33" d="M383.62,163.75a9.5,9.5,0,0,0-4.59-1c-2.5,0-5.29.58-6.69,2.65a7.4,7.4,0,0,0-.9,4.88c.27,2.86,1.44,5.9,4,7.21,2,1,4.5.88,6.05,2.43a6.68,6.68,0,0,1,1.39,2.41,44,44,0,0,1,2.95,13.53c3.09-3.92,7.2-6.77,10.29-10.7,1.78-2.27,2.62-5.79,2.83-8.67a8.61,8.61,0,0,0-4.15-7.66c-2.27-1.43-4.51-1.45-7.07-1.62-2-.13-1,.18-2-1.27A6.23,6.23,0,0,0,383.62,163.75Z"/><path class="cls-20" d="M377.81,201.93c-6.25.76-8.12,1.53-9-5.35-.08-.7-.16-1.47-.23-2.33,0-.47-.07-1-.1-1.48-.71-10.93,5.74-22.35,5.74-22.35,16.42,1.2,15.21,11,15.19,15.85S385.05,201.06,377.81,201.93Z"/><path class="cls-34" d="M373.76,175.51a10.46,10.46,0,0,0,3.27,1c2.58.52,5.39,1.45,6.68,3.76.88,1.58.86,3.49,1.29,5.26s1.7,3.62,3.51,3.61c1.57,0,2.74-1.39,3.62-2.69a9.27,9.27,0,0,0,1.85-4.24,6.56,6.56,0,0,0-.3-2.45c-1.29-4.19-5.38-6.8-9.32-8.72a14.85,14.85,0,0,0-6.56-1.92C374.83,169.18,369.53,173,373.76,175.51Z"/><path class="cls-20" d="M390.18,187.79a3.17,3.17,0,1,1-2.47-3.74A3.16,3.16,0,0,1,390.18,187.79Z"/><path class="cls-20" d="M366.13,187.51a2,2,0,0,0-.94,1.29c-.05.82.84,1.36,1.62,1.61a11.63,11.63,0,0,0,2.18.48,2.17,2.17,0,0,0,2.65-2.64,10.18,10.18,0,0,0-.45-3.29c-.44-1.43-1.09-1.25-1.93-.39A27.27,27.27,0,0,1,366.13,187.51Z"/></svg>