<svg id="Layer_1" data-name="Layer 1" xmlns="http://www.w3.org/2000/svg" xmlns:xlink="http://www.w3.org/1999/xlink" viewBox="0 0 500 500"><defs><style>.cls-1{fill:#eea886;}.cls-2{opacity:0.3;fill:url(#Degradado_sin_nombre_11);}.cls-3{fill:#2c3144;}.cls-4{fill:#decbc4;}.cls-5{fill:#495055;}.cls-6{fill:#353a3d;}.cls-7{fill:#a77860;}.cls-8{fill:url(#Degradado_sin_nombre_8);}.cls-9{fill:url(#linear-gradient);}.cls-10{fill:url(#Degradado_sin_nombre_11-2);}.cls-11{fill:url(#Degradado_sin_nombre_11-3);}.cls-12{fill:#f5e2d9;}.cls-13{fill:#ad9f99;}.cls-14{fill:#69737a;}.cls-15{fill:#2d3133;}.cls-16{fill:url(#Degradado_sin_nombre_8-2);}.cls-17{fill:url(#Degradado_sin_nombre_8-3);}.cls-18{fill:url(#Degradado_sin_nombre_8-4);}</style><linearGradient id="Degradado_sin_nombre_11" x1="7.41" y1="250" x2="492.59" y2="250" gradientUnits="userSpaceOnUse"><stop offset="0" stop-color="#ca4b7c"/><stop offset="1" stop-color="#fe7087"/></linearGradient><linearGradient id="Degradado_sin_nombre_8" x1="255.58" y1="334.33" x2="382.14" y2="334.33" gradientUnits="userSpaceOnUse"><stop offset="0" stop-color="#6e376e"/><stop offset="1" stop-color="#ca4b7c"/></linearGradient><linearGradient id="linear-gradient" x1="53.34" y1="336.42" x2="233.25" y2="336.42" gradientUnits="userSpaceOnUse"><stop offset="0" stop-color="#ca4b7c"/><stop offset="1" stop-color="#6e376e"/></linearGradient><linearGradient id="Degradado_sin_nombre_11-2" x1="255.58" y1="272.5" x2="306.51" y2="272.5" xlink:href="#Degradado_sin_nombre_11"/><linearGradient id="Degradado_sin_nombre_11-3" x1="206.46" y1="273.46" x2="233.5" y2="273.46" xlink:href="#Degradado_sin_nombre_11"/><linearGradient id="Degradado_sin_nombre_8-2" x1="263.63" y1="119.27" x2="288.68" y2="119.27" xlink:href="#Degradado_sin_nombre_8"/><linearGradient id="Degradado_sin_nombre_8-3" x1="238.38" y1="134.45" x2="279.81" y2="134.45" xlink:href="#Degradado_sin_nombre_8"/><linearGradient id="Degradado_sin_nombre_8-4" x1="233.25" y1="148.58" x2="241.91" y2="148.58" xlink:href="#Degradado_sin_nombre_8"/></defs><title>Kategori konsultasi</title><path class="cls-1" d="M57.28,363c3.32-3.07,9.72-4.85,15.2-8.51s.9-7.44.9-7.44c5.63-1.93,5-4.5,4.3-6.25-1-2.37-7.12-1.7-7.12-1.7a61.14,61.14,0,0,0,7.78-2.22c2.27-1,1.5-5-2-6.21s-17.7,2.26-17.7,2.26S61,331.8,68,328.28s8.55-6.72,4.41-8.25C69.52,319,63.87,321.2,53,328.48c-8.16,5.49-7.5,6.2-7.5,6.2S53.32,366.68,57.28,363Z"/><circle class="cls-2" cx="250" cy="250" r="242.59"/><path class="cls-3" d="M320.9,474.3a199.34,199.34,0,0,1-138.82.19c4.54-20.42,7.93-35.35,7.93-35.35s109.49-50.51,121.24-17.83C316.25,435.21,319.24,453.75,320.9,474.3Z"/><path class="cls-4" d="M339.11,210.48l-52-21.46-44.45,3.75h0L233.5,197l-53.8,27.88,14,102.53c4.75,18.36-3.67,54-4.62,73-.77,15.06,4.19,21.84,4.33,22h0l115.78-16.29h0s5.13-36.39,5.53-56.06Z"/><path class="cls-5" d="M193.44,422.44s-2.67,3.19-3.44,16.7c0,0,109.65-12.79,121.25-17.83,0,0,.45-14.89-2-15.15C306.54,405.88,193.44,422.44,193.44,422.44Z"/><path class="cls-1" d="M287,185.3c-.34,17.21-33.66,26.62-33.66,26.62s-13.94-17.47-10.61-19.15c1.31-.65,1.84-3.26,2-6.19a59.35,59.35,0,0,0-.19-7.8c-.1-1.22-.19-2-.19-2s4.76-5,10.82-11c10.58-10.47,25.13-23.87,25.15-18.54a4.43,4.43,0,0,1-.12,1C277.59,160.25,287,185.3,287,185.3Z"/><path class="cls-6" d="M202.59,420.68s-1.92,13.72-2,18.9l5.37-.7s1.1-17.13,1.71-18.92Z"/><path class="cls-7" d="M274.12,160.08h0c-.07.1-1.48,2.22-3.89,5.25-5.12,6.44-14.74,17-25.55,21.25a59.35,59.35,0,0,0-.19-7.8,17.81,17.81,0,0,1-3.31-.4,103,103,0,0,1,7.25-10.61l6.69-2Z"/><path class="cls-1" d="M280.52,147.47c-2.89,6.27-5.63,10.81-6.4,12.61h0a22.46,22.46,0,0,1-3.89,5.25c-5.5,5.92-15.7,13.72-25.74,13.45a17.81,17.81,0,0,1-3.31-.4c-4.05-.89-8.83-2.77-11.46-7.92-20.79-40.7-5.74-74-5.74-74s56.84-16.07,65.73,1C296,109.52,287.29,132.73,280.52,147.47Z"/><path class="cls-3" d="M224,96.48s-5.28-.29-6.59-10.3,1.32-12.63,1.32-12.63,23.47-9.82,31.89-11.1,29.15-2.5,34,3c0,0,11.8-2.74,15,16.85,5.1,31.08-17.38,61.25-17.38,61.25s.2-20.3-4.28-23-8.34,3.71-8.34,3.71L260.46,126s13.91-30-2.78-31.15S233.53,98.22,224,96.48Z"/><path class="cls-8" d="M382.14,344.37v-.59c-.32-13.08-6.75-65.45-17.59-100.18-5.27-16.87-6.48-28.66-8.52-30.11-3.53-2.53-34.94-11.83-48.26-17.05-6-2.36-5.79-2.27-8.19-3.18a216.67,216.67,0,0,0-14.78,18.87c-13.77,19.57-31.69,51.25-28.94,80.51.88,9.39,2,22.88,3.8,38,.15,1.3.31,2.6.48,3.92.44,3.48.93,7,1.46,10.64.32,2.15.65,4.34,1,6.52,3.64,22.69,15.06,38.16,25.21,56.66l.26.46.15.27c.2.39.43.78.64,1.19.35.64.69,1.3,1,1.95.19.38.4.75.58,1.13,1.95,3.73,3.85,7.54,5.69,11.36,1.19,2.47,2.36,4.95,3.5,7.42l.36.77s1.86,4.34,4.26,9.91l2.78,6.47c.66,1.53,1.32,3.06,1.95,4.55q.86,2,1.62,3.78c1.15,2.68,2.15,5,2.85,6.67.52,1.23.88,2.06,1,2.34,1.28,3.21,2.43,6.14,3.43,8.73l3-1.09a198,198,0,0,0,40.21-20.57,63.56,63.56,0,0,0-3-14.15A160,160,0,0,0,349.8,421c-1.35-2.64-2.77-5.32-4.21-8,11-19.17,22.09-38.95,29.14-52.4C379.29,351.93,382.14,345.88,382.14,344.37Zm-39.79-5.79c-.2,3.6-3.79,12.72-9,24.4a0,0,0,0,1,0,0c-1.89,4.25-4,8.85-6.26,13.64-.09-.19-.17-.4-.25-.6-3.26-8-5.39-15.43-5.39-22,0,0,1.44-50.84,4.94-64.61a.56.56,0,0,1,0-.12.75.75,0,0,1,0-.16,2.44,2.44,0,0,1,.06-.26.5.5,0,0,0,0-.13s0,0,0,0,0,0,0,0S343.64,315.41,342.35,338.58Z"/><path class="cls-9" d="M233.25,197.4S228.56,213,222.5,252a0,0,0,0,1,0,0c-.21,1.31-.41,2.64-.62,4a4,4,0,0,1-.07.48c-.13.9-.28,1.81-.41,2.74l0,.32c-.1.62-.18,1.25-.28,1.88-.23,1.54-.45,3.11-.68,4.71-2.71,19-6.5,51.25-10.15,83.83h0c-2.89,25.68-9.45,52-11.54,71.71v0A139.62,139.62,0,0,1,196,436.5c-.15.65-.31,1.32-.47,2-2.76,11.68-6.75,25.65-10.21,37.16-1.07-.37-2.13-.76-3.2-1.16-5.48-2-10.85-4.31-16.1-6.8,7.41-25,21.36-75.94,24.26-113.34v0c1.07-13.76-3-26.73-5.29-39,0,.11-.08.22-.11.33-2,5.43-4.13,11.34-6.31,17.09-2.92,7.72-5.88,15.15-8.42,20.78s-4.66,9.42-5.91,9.88c-4.85,1.78-85.17-19.8-106-28-3-1.19-4.8-2.12-4.89-2.63l2.41-9.1,4.74-17.87L139.91,323l37.87-99c.83-.66,11.69-6.5,18.88-9.92,7.47-3.56,16.94-8,25.35-11.84l11-5.05Z"/><path class="cls-10" d="M290.33,236l-16.21,9.14,6.92,7.06L262.6,351.74c-3.76-23.34-5.47-45.5-6.74-59.09-4.24-45.24,40.91-96.27,43.72-99.39,2.17.82,4.51,1.73,6.93,2.69Z"/><path class="cls-11" d="M233.5,197s-6.06,19.78-13.12,69.16c-2.7,19-6.5,51.25-10.15,83.83l-3.77-93.25,7.72-8.36-6.87-8.58L222,202.25c4-1.85,7.79-3.59,11-5.05Z"/><path class="cls-12" d="M300.39,193.46,287,185.3s-.38,7.37-33.66,26.62l9.45,26.62Z"/><path class="cls-12" d="M244.44,189s.52,8,8.85,22.91L234.84,236l-1.34-39Z"/><path class="cls-3" d="M253.34,211.92s3.57,14.3,2.29,18.3c0,0-7.87,2.86-13.52-.71A63,63,0,0,1,253.34,211.92Z"/><path class="cls-13" d="M234.86,418.16c-2-10.09-.1-40.32,0-41.6l1.72.11c0,.31-2,31.29,0,41.16Z"/><path class="cls-14" d="M248.86,413.51s-16.14,1.93-21.47,3.26l.7,18.08,21.12-2.25Z"/><path class="cls-3" d="M245.33,228.22s-18,45.45-15.06,96.31c3,52.74,8,71.86,8,71.86l11.1,13.91,4.89-17.1S239.4,326,249,260.54c1.74-11.86,4.33-34.32,4.33-34.32Z"/><path class="cls-15" d="M185.46,292.24c-.6,12.2-.51,23-.51,23h0c0,.06,0,.39,0,.93,0-.2,0-.41-.08-.61-2,5.43-4.11,11.34-6.3,17.09a184.64,184.64,0,0,1-.48-18.62c.87-34.22,11.63-52.17,11.63-52.17C187.22,267.88,186,280.67,185.46,292.24Z"/><path class="cls-3" d="M136.58,376.58H68.79a10.06,10.06,0,0,1-9.78-7.7L29.56,247.31a10.07,10.07,0,0,1,9.78-12.43h67.79a10.08,10.08,0,0,1,9.79,7.69l29.44,121.57A10.07,10.07,0,0,1,136.58,376.58Z"/><path class="cls-16" d="M263.8,117.42c-1.14,7.62,3.47,14.63,10.29,15.65s13.28-4.33,14.42-11.95-3.46-14.63-10.28-15.65S265,109.79,263.8,117.42Z"/><path class="cls-17" d="M238.86,148.76l-.48-2.84c25.67-4.34,38.84-25.57,39-25.78l2.46,1.49C279.25,122.55,265.81,144.2,238.86,148.76Z"/><path class="cls-18" d="M233.25,148.58a4.33,4.33,0,1,0,4.33-4.33A4.33,4.33,0,0,0,233.25,148.58Z"/></svg>