<svg id="Layer_1" data-name="Layer 1" xmlns="http://www.w3.org/2000/svg" xmlns:xlink="http://www.w3.org/1999/xlink" viewBox="0 0 500 500"><defs><style>.cls-1,.cls-42{opacity:0.3;}.cls-1{fill:url(#Degradado_sin_nombre_11);}.cls-2{fill:#e7e7e7;}.cls-3{fill:url(#Degradado_sin_nombre_13);}.cls-33,.cls-4{fill:#fff;}.cls-5{fill:url(#Degradado_sin_nombre_13-2);}.cls-6{fill:url(#Degradado_sin_nombre_13-3);}.cls-7{fill:url(#Degradado_sin_nombre_13-4);}.cls-8{fill:url(#Degradado_sin_nombre_13-5);}.cls-9{fill:url(#Degradado_sin_nombre_13-6);}.cls-10{fill:url(#Degradado_sin_nombre_13-7);}.cls-11{fill:url(#Degradado_sin_nombre_11-2);}.cls-12{fill:#007cff;}.cls-13{fill:#2c3144;}.cls-14{fill:url(#Degradado_sin_nombre_8);}.cls-15{opacity:0.4;}.cls-16,.cls-17,.cls-18,.cls-19,.cls-20,.cls-21,.cls-22,.cls-23,.cls-24,.cls-25,.cls-26,.cls-27,.cls-28,.cls-32{opacity:0.6;}.cls-16{fill:url(#Degradado_sin_nombre_13-8);}.cls-17{fill:url(#Degradado_sin_nombre_13-9);}.cls-18{fill:url(#Degradado_sin_nombre_13-10);}.cls-19{fill:url(#Degradado_sin_nombre_13-11);}.cls-20{fill:url(#Degradado_sin_nombre_13-12);}.cls-21{fill:url(#Degradado_sin_nombre_13-13);}.cls-22{fill:url(#Degradado_sin_nombre_13-14);}.cls-23{fill:url(#Degradado_sin_nombre_13-15);}.cls-24{fill:url(#Degradado_sin_nombre_13-16);}.cls-25{fill:url(#Degradado_sin_nombre_13-17);}.cls-26{fill:url(#Degradado_sin_nombre_13-18);}.cls-27{fill:url(#Degradado_sin_nombre_13-19);}.cls-28{fill:url(#Degradado_sin_nombre_13-20);}.cls-29{fill:url(#Degradado_sin_nombre_8-2);}.cls-30{fill:url(#Degradado_sin_nombre_8-3);}.cls-31,.cls-32{fill:url(#Degradado_sin_nombre_13-21);}.cls-33{opacity:0.5;}.cls-34{fill:url(#Degradado_sin_nombre_8-4);}.cls-35,.cls-40{fill:#1a2e35;}.cls-36{fill:url(#Degradado_sin_nombre_8-5);}.cls-37{fill:#ffc3bd;}.cls-38{fill:#ff847f;}.cls-39{opacity:0.2;}.cls-40{opacity:0.8;}.cls-41{fill:url(#Degradado_sin_nombre_8-6);}.cls-43{fill:url(#Degradado_sin_nombre_8-7);}.cls-44{fill:url(#Degradado_sin_nombre_8-8);}</style><linearGradient id="Degradado_sin_nombre_11" x1="7.41" y1="250" x2="492.59" y2="250" gradientUnits="userSpaceOnUse"><stop offset="0" stop-color="#ca4b7c"/><stop offset="1" stop-color="#fe7087"/></linearGradient><linearGradient id="Degradado_sin_nombre_13" x1="101.36" y1="149.17" x2="397.33" y2="149.17" gradientTransform="translate(100.18 398.51) rotate(-90)" gradientUnits="userSpaceOnUse"><stop offset="0" stop-color="#fe7087"/><stop offset="1" stop-color="#fe9d82"/></linearGradient><linearGradient id="Degradado_sin_nombre_13-2" x1="131.76" y1="149.17" x2="151.53" y2="149.17" gradientTransform="matrix(1, 0, 0, 1, 0, 0)" xlink:href="#Degradado_sin_nombre_13"/><linearGradient id="Degradado_sin_nombre_13-3" x1="176.79" y1="149.17" x2="192.93" y2="149.17" gradientTransform="matrix(1, 0, 0, 1, 0, 0)" xlink:href="#Degradado_sin_nombre_13"/><linearGradient id="Degradado_sin_nombre_13-4" x1="217.21" y1="149.17" x2="238.92" y2="149.17" gradientTransform="matrix(1, 0, 0, 1, 0, 0)" xlink:href="#Degradado_sin_nombre_13"/><linearGradient id="Degradado_sin_nombre_13-5" x1="259.86" y1="149.17" x2="282.69" y2="149.17" gradientTransform="matrix(1, 0, 0, 1, 0, 0)" xlink:href="#Degradado_sin_nombre_13"/><linearGradient id="Degradado_sin_nombre_13-6" x1="303.35" y1="149.17" x2="325.61" y2="149.17" gradientTransform="matrix(1, 0, 0, 1, 0, 0)" xlink:href="#Degradado_sin_nombre_13"/><linearGradient id="Degradado_sin_nombre_13-7" x1="347.15" y1="149.17" x2="368.24" y2="149.17" gradientTransform="matrix(1, 0, 0, 1, 0, 0)" xlink:href="#Degradado_sin_nombre_13"/><linearGradient id="Degradado_sin_nombre_11-2" x1="88.87" y1="400.33" x2="411.13" y2="400.33" xlink:href="#Degradado_sin_nombre_11"/><linearGradient id="Degradado_sin_nombre_8" x1="218.88" y1="245.45" x2="390.58" y2="245.45" gradientUnits="userSpaceOnUse"><stop offset="0" stop-color="#6e376e"/><stop offset="1" stop-color="#ca4b7c"/></linearGradient><linearGradient id="Degradado_sin_nombre_13-8" x1="335.88" y1="185.78" x2="366.29" y2="185.78" gradientTransform="matrix(1, 0, 0, 1, 0, 0)" xlink:href="#Degradado_sin_nombre_13"/><linearGradient id="Degradado_sin_nombre_13-9" x1="333.51" y1="224.07" x2="363.91" y2="224.07" gradientTransform="matrix(1, 0, 0, 1, 0, 0)" xlink:href="#Degradado_sin_nombre_13"/><linearGradient id="Degradado_sin_nombre_13-10" x1="331.13" y1="262.36" x2="361.54" y2="262.36" gradientTransform="matrix(1, 0, 0, 1, 0, 0)" xlink:href="#Degradado_sin_nombre_13"/><linearGradient id="Degradado_sin_nombre_13-11" x1="328.76" y1="300.64" x2="359.16" y2="300.64" gradientTransform="matrix(1, 0, 0, 1, 0, 0)" xlink:href="#Degradado_sin_nombre_13"/><linearGradient id="Degradado_sin_nombre_13-12" x1="255.94" y1="179.35" x2="319.16" y2="179.35" gradientTransform="matrix(1, 0, 0, 1, 0, 0)" xlink:href="#Degradado_sin_nombre_13"/><linearGradient id="Degradado_sin_nombre_13-13" x1="265.96" y1="192.21" x2="318.36" y2="192.21" gradientTransform="matrix(1, 0, 0, 1, 0, 0)" xlink:href="#Degradado_sin_nombre_13"/><linearGradient id="Degradado_sin_nombre_13-14" x1="252.76" y1="230.5" x2="315.99" y2="230.5" gradientTransform="matrix(1, 0, 0, 1, 0, 0)" xlink:href="#Degradado_sin_nombre_13"/><linearGradient id="Degradado_sin_nombre_13-15" x1="264.39" y1="217.64" x2="316.78" y2="217.64" gradientTransform="matrix(1, 0, 0, 1, 0, 0)" xlink:href="#Degradado_sin_nombre_13"/><linearGradient id="Degradado_sin_nombre_13-16" x1="251.18" y1="255.93" x2="314.41" y2="255.93" gradientTransform="matrix(1, 0, 0, 1, 0, 0)" xlink:href="#Degradado_sin_nombre_13"/><linearGradient id="Degradado_sin_nombre_13-17" x1="284.41" y1="268.79" x2="313.61" y2="268.79" gradientTransform="matrix(1, 0, 0, 1, 0, 0)" xlink:href="#Degradado_sin_nombre_13"/><linearGradient id="Degradado_sin_nombre_13-18" x1="261.21" y1="268.79" x2="279.59" y2="268.79" gradientTransform="matrix(1, 0, 0, 1, 0, 0)" xlink:href="#Degradado_sin_nombre_13"/><linearGradient id="Degradado_sin_nombre_13-19" x1="248.81" y1="294.21" x2="312.03" y2="294.21" gradientTransform="matrix(1, 0, 0, 1, 0, 0)" xlink:href="#Degradado_sin_nombre_13"/><linearGradient id="Degradado_sin_nombre_13-20" x1="258.84" y1="307.07" x2="311.24" y2="307.07" gradientTransform="matrix(1, 0, 0, 1, 0, 0)" xlink:href="#Degradado_sin_nombre_13"/><linearGradient id="Degradado_sin_nombre_8-2" x1="337.51" y1="182.71" x2="370.11" y2="182.71" xlink:href="#Degradado_sin_nombre_8"/><linearGradient id="Degradado_sin_nombre_8-3" x1="334.25" y1="221.79" x2="367.93" y2="221.79" xlink:href="#Degradado_sin_nombre_8"/><linearGradient id="Degradado_sin_nombre_13-21" x1="280.07" y1="143.61" x2="337.83" y2="143.61" gradientTransform="matrix(1, 0, 0, 1, 0, 0)" xlink:href="#Degradado_sin_nombre_13"/><linearGradient id="Degradado_sin_nombre_8-4" x1="177.55" y1="288.84" x2="207.42" y2="288.84" xlink:href="#Degradado_sin_nombre_8"/><linearGradient id="Degradado_sin_nombre_8-5" x1="195.12" y1="201.45" x2="220.6" y2="201.45" xlink:href="#Degradado_sin_nombre_8"/><linearGradient id="Degradado_sin_nombre_8-6" x1="117.57" y1="380.24" x2="133.74" y2="380.24" xlink:href="#Degradado_sin_nombre_8"/><linearGradient id="Degradado_sin_nombre_8-7" x1="164.68" y1="381.75" x2="179.92" y2="381.75" xlink:href="#Degradado_sin_nombre_8"/><linearGradient id="Degradado_sin_nombre_8-8" x1="144.9" y1="187.51" x2="189.84" y2="187.51" xlink:href="#Degradado_sin_nombre_8"/></defs><title>Kategori konsultasi</title><circle class="cls-1" cx="250" cy="250" r="242.59"/><rect class="cls-2" x="191.75" y="1.18" width="117.82" height="295.98" transform="translate(399.82 -101.49) rotate(90)"/><rect class="cls-3" x="190.44" y="1.18" width="117.82" height="295.98" transform="translate(398.51 -100.18) rotate(90)"/><rect class="cls-4" x="108.89" y="97.79" width="280.91" height="102.75"/><polygon class="cls-5" points="141.65 140.61 131.76 157.73 151.53 157.73 141.65 140.61"/><rect class="cls-6" x="176.79" y="141.1" width="16.14" height="16.14"/><polygon class="cls-7" points="228.06 138.84 217.21 146.73 221.36 159.49 234.77 159.49 238.92 146.73 228.06 138.84"/><polygon class="cls-8" points="276.98 139.28 265.57 139.28 259.86 149.17 265.57 159.05 276.98 159.05 282.69 149.17 276.98 139.28"/><polygon class="cls-9" points="314.48 138.32 305.56 142.62 303.36 152.27 309.53 160.01 319.43 160.01 325.61 152.27 323.41 142.62 314.48 138.32"/><polygon class="cls-10" points="362.06 138.62 353.32 138.62 347.14 144.8 347.14 153.53 353.32 159.71 362.06 159.71 368.24 153.53 368.24 144.8 362.06 138.62"/><ellipse id="_Path_" data-name="&lt;Path&gt;" class="cls-11" cx="250" cy="400.33" rx="161.13" ry="9.41"/><path class="cls-12" d="M240.47,142.41H388.58a5.36,5.36,0,0,1,5.39,5.75L381.89,342.75a6.21,6.21,0,0,1-6.1,5.74H227.68a5.34,5.34,0,0,1-5.38-5.74l12.07-194.59A6.22,6.22,0,0,1,240.47,142.41Z"/><path class="cls-13" d="M240.47,142.41H388.58a5.36,5.36,0,0,1,5.39,5.75L381.89,342.75a6.21,6.21,0,0,1-6.1,5.74H227.68a5.34,5.34,0,0,1-5.38-5.74l12.07-194.59A6.22,6.22,0,0,1,240.47,142.41Z"/><path class="cls-14" d="M237.07,142.41H385.18a5.36,5.36,0,0,1,5.39,5.75L378.49,342.75a6.21,6.21,0,0,1-6.1,5.74H224.28a5.35,5.35,0,0,1-5.39-5.74L231,148.16A6.21,6.21,0,0,1,237.07,142.41Z"/><polygon class="cls-15" points="226.92 337.99 371.08 339.72 382.77 151.25 238.51 151.25 226.92 337.99"/><path class="cls-4" d="M222.71,336.08h146c8-73.67,10.51-113.45,11.61-187.13h-146C233.22,222.63,230.76,262.41,222.71,336.08Z"/><path class="cls-16" d="M362.87,200.2H337.74a1.86,1.86,0,0,1-1.35-.58,1.8,1.8,0,0,1-.5-1.39l1.56-25.13a1.85,1.85,0,0,1,1.85-1.74h25.13a1.85,1.85,0,0,1,1.86,2l-1.56,25.13A1.85,1.85,0,0,1,362.87,200.2Zm-23.16-3.71h21.42l1.33-21.42H341Z"/><path class="cls-17" d="M360.5,238.49H335.36a1.86,1.86,0,0,1-1.35-.58,1.89,1.89,0,0,1-.5-1.39l1.56-25.14a1.86,1.86,0,0,1,1.85-1.74h25.14a1.86,1.86,0,0,1,1.85,2l-1.56,25.14A1.85,1.85,0,0,1,360.5,238.49Zm-23.16-3.71h21.41l1.33-21.42H338.67Z"/><path class="cls-18" d="M358.12,276.78H333a1.85,1.85,0,0,1-1.86-2l1.56-25.14a1.87,1.87,0,0,1,1.86-1.74h25.13a1.88,1.88,0,0,1,1.86,2L360,275A1.87,1.87,0,0,1,358.12,276.78ZM335,273.07h21.42l1.33-21.43H336.29Z"/><path class="cls-19" d="M355.75,315.07H330.61a1.86,1.86,0,0,1-1.85-2L330.32,288a1.85,1.85,0,0,1,1.85-1.74h25.14a1.86,1.86,0,0,1,1.35.58,1.89,1.89,0,0,1,.5,1.39l-1.56,25.14A1.85,1.85,0,0,1,355.75,315.07Zm-23.16-3.71H354l1.33-21.43H333.91Z"/><path class="cls-20" d="M258.89,182.49h56.93a3.38,3.38,0,0,0,3.33-3.14h0a2.92,2.92,0,0,0-2.94-3.14H259.28a3.4,3.4,0,0,0-3.34,3.14h0A2.92,2.92,0,0,0,258.89,182.49Z"/><path class="cls-21" d="M268.92,195.35H315a3.4,3.4,0,0,0,3.34-3.14h0a2.93,2.93,0,0,0-2.95-3.14h-46.1a3.4,3.4,0,0,0-3.34,3.14h0A2.92,2.92,0,0,0,268.92,195.35Z"/><path class="cls-22" d="M256.1,227.36H313a2.92,2.92,0,0,1,3,3.14h0a3.4,3.4,0,0,1-3.34,3.14H255.71a2.92,2.92,0,0,1-2.94-3.14h0A3.4,3.4,0,0,1,256.1,227.36Z"/><path class="cls-23" d="M267.73,214.5h46.1a2.92,2.92,0,0,1,2.95,3.14h0a3.4,3.4,0,0,1-3.34,3.14h-46.1a2.92,2.92,0,0,1-2.95-3.14h0A3.4,3.4,0,0,1,267.73,214.5Z"/><path class="cls-24" d="M254.14,259.07h56.93a3.4,3.4,0,0,0,3.33-3.14h0a2.93,2.93,0,0,0-2.94-3.15H254.53a3.41,3.41,0,0,0-3.34,3.15h0A2.93,2.93,0,0,0,254.14,259.07Z"/><path class="cls-25" d="M287.36,271.93h22.91a3.39,3.39,0,0,0,3.33-3.14h0a2.92,2.92,0,0,0-2.94-3.15H287.75a3.41,3.41,0,0,0-3.34,3.15h0A2.93,2.93,0,0,0,287.36,271.93Z"/><path class="cls-26" d="M264.16,271.93h12.08a3.41,3.41,0,0,0,3.34-3.14h0a2.93,2.93,0,0,0-2.95-3.15H264.55a3.4,3.4,0,0,0-3.33,3.15h0A2.93,2.93,0,0,0,264.16,271.93Z"/><path class="cls-27" d="M251.76,297.36h56.93a3.41,3.41,0,0,0,3.34-3.15h0a2.93,2.93,0,0,0-2.95-3.14H252.15a3.41,3.41,0,0,0-3.34,3.14h0A2.94,2.94,0,0,0,251.76,297.36Z"/><path class="cls-28" d="M261.79,310.22h46.1a3.41,3.41,0,0,0,3.34-3.15h0a2.93,2.93,0,0,0-3-3.14h-46.1a3.41,3.41,0,0,0-3.34,3.14h0A2.93,2.93,0,0,0,261.79,310.22Z"/><path class="cls-29" d="M349.05,193.32A1.85,1.85,0,0,1,348,193l-9.68-6.62a1.85,1.85,0,1,1,2.09-3.06l8.28,5.65c3-3.64,11.64-13.52,18.8-16.72a1.86,1.86,0,1,1,1.52,3.39c-7.83,3.49-18.4,16.84-18.5,17A1.85,1.85,0,0,1,349.05,193.32Z"/><path class="cls-30" d="M344.54,230.87a1.88,1.88,0,0,1-1.29-.52l-8.43-8.13a1.85,1.85,0,1,1,2.57-2.67l7.18,6.92c3.55-3.18,13.51-11.64,21-13.69a1.86,1.86,0,0,1,1,3.58c-8.21,2.24-20.63,13.89-20.75,14A1.85,1.85,0,0,1,344.54,230.87Z"/><path class="cls-15" d="M328.77,153.41l2.74,0a5.51,5.51,0,0,0,5.55-5.46l0-5a.54.54,0,0,0-.55-.56h-7.62a.64.64,0,0,0-.63.62l-.07,9.83A.54.54,0,0,0,328.77,153.41Z"/><path class="cls-31" d="M287.37,133.31h45.94a4.44,4.44,0,0,1,4.48,5.18l-1.38,10.24a6.15,6.15,0,0,1-5.89,5.18H284.59a4.44,4.44,0,0,1-4.48-5.18l1.38-10.24A6.15,6.15,0,0,1,287.37,133.31Z"/><path class="cls-32" d="M287.37,133.31h45.94a4.44,4.44,0,0,1,4.48,5.18l-1.38,10.24a6.15,6.15,0,0,1-5.89,5.18H284.59a4.44,4.44,0,0,1-4.48-5.18l1.38-10.24A6.15,6.15,0,0,1,287.37,133.31Z"/><path class="cls-33" d="M332.11,138.26H311.47a1.39,1.39,0,1,1,0-2.78h20.64a1.39,1.39,0,0,1,0,2.78Z"/><path class="cls-33" d="M304.55,138.26h-2.18a1.39,1.39,0,0,1,0-2.78h2.18a1.39,1.39,0,0,1,0,2.78Z"/><polygon class="cls-34" points="177.56 337.74 186.43 339.43 207.42 240.74 194.38 238.25 177.56 337.74"/><polygon class="cls-35" points="208.76 172.21 219.39 168.72 220.13 164.86 210.22 164.56 208.76 172.21"/><polygon class="cls-36" points="208.49 169.97 220.6 166.03 208.16 236.88 195.12 234.39 208.49 169.97"/><rect class="cls-35" x="195.17" y="235.6" width="12.19" height="3.93" transform="translate(354.45 508.64) rotate(-169.2)"/><path class="cls-12" d="M179.15,349.42c-.11.59.13,1.12.55,1.2s.84-.33,1-.91-.14-1.13-.55-1.21S179.26,348.84,179.15,349.42Z"/><polygon class="cls-35" points="178.54 349.5 181.19 350 186.43 339.43 177.56 337.74 178.54 349.5"/><path class="cls-35" d="M194.54,216.45a1.18,1.18,0,0,1-.48-.1,1.12,1.12,0,0,1-.54-1.49c5.57-12,10.1-36.92,10.71-42.86a4.88,4.88,0,0,1,2.92-4l2.94-1.27a1.12,1.12,0,0,1,.88,2.06L208,170.09a2.61,2.61,0,0,0-1.57,2.14c-.64,6.24-5.14,31.2-10.91,43.58A1.12,1.12,0,0,1,194.54,216.45Z"/><path class="cls-37" d="M153.1,168.76c-2.24,3.83-4.51,7.91-6.63,11.9q-1.59,3-3.07,6.06c-.94,2-1.89,4.06-2.7,6.1l-.15.37s0,0,0,0a.51.51,0,0,0-.06.19,4,4,0,0,0-.07.88,14.2,14.2,0,0,0,.38,2.64,46.61,46.61,0,0,0,2,6.08c.8,2.07,1.72,4.15,2.67,6.23s2,4.18,3,6.21l-4.27,2.92a79,79,0,0,1-8.47-11.94,44.47,44.47,0,0,1-3.28-7,23,23,0,0,1-1.08-4.24,13.2,13.2,0,0,1-.1-2.64,10.06,10.06,0,0,1,.21-1.55c0-.27.14-.56.22-.84l.15-.46A100.19,100.19,0,0,1,137.21,176a129.21,129.21,0,0,1,7-12.76Z"/><path class="cls-37" d="M147.77,214.14l4,3.13-6.14,5.07s-2.8-2.71-2.37-6Z"/><polygon class="cls-37" points="153.43 221.84 149.34 227.1 145.65 222.34 151.79 217.27 153.43 221.84"/><path class="cls-35" d="M176.28,131.26c.11.55.49.93.84.86s.56-.58.45-1.12-.49-.93-.85-.86S176.17,130.72,176.28,131.26Z"/><path class="cls-38" d="M176.72,132.2a19.66,19.66,0,0,0,3.55,4.13,3.23,3.23,0,0,1-2.51,1Z"/><path class="cls-35" d="M173.67,128.64a.35.35,0,0,1-.22-.08.34.34,0,0,1,0-.47,3.27,3.27,0,0,1,2.78-1.08.33.33,0,0,1,.26.38.32.32,0,0,1-.37.27h0a2.58,2.58,0,0,0-2.19.88A.33.33,0,0,1,173.67,128.64Z"/><path class="cls-37" d="M160.76,138.92c1,5,2,14.28-1.55,17.64,0,0,1.38,5.11,10.75,5.11,10.3,0,4.92-5.11,4.92-5.11-5.62-1.34-5.48-5.51-4.5-9.43Z"/><path class="cls-13" d="M157.22,156.94c-.75-1.78.85-7.17,2.56-7.7,1.88-.58,9-.26,12.57,1.22,2.52,2.56,3.25,7.86,3.25,7.86Z"/><path class="cls-12" d="M127.8,392.49a2.22,2.22,0,0,0,1.71-.09.67.67,0,0,0,.16-.76.72.72,0,0,0-.42-.48c-.93-.44-3.07.43-3.16.47a.15.15,0,0,0-.1.14.16.16,0,0,0,.09.15A8.77,8.77,0,0,0,127.8,392.49Zm1.12-1.1a.84.84,0,0,1,.19.07.44.44,0,0,1,.25.27c.09.3,0,.39-.06.42-.37.32-1.74,0-2.71-.36A5.41,5.41,0,0,1,128.92,391.39Z"/><path class="cls-12" d="M126.12,391.94h.08c.78-.22,2.45-1.41,2.47-2.19a.55.55,0,0,0-.42-.53.91.91,0,0,0-.72.06c-.92.47-1.51,2.38-1.53,2.46a.16.16,0,0,0,0,.16Zm1.95-2.44.07,0c.2.07.2.17.2.21,0,.46-1.11,1.39-1.92,1.77a3.92,3.92,0,0,1,1.25-1.94A.58.58,0,0,1,128.07,389.5Z"/><path class="cls-12" d="M177.54,393.65c.88,0,1.74-.12,2-.52a.62.62,0,0,0,0-.71A.79.79,0,0,0,179,392c-1.14-.32-3.55,1.06-3.65,1.11a.15.15,0,0,0-.08.17.17.17,0,0,0,.12.14A13,13,0,0,0,177.54,393.65Zm1.09-1.34a1.08,1.08,0,0,1,.32,0,.52.52,0,0,1,.32.23c.11.2.07.3,0,.36-.32.44-2.06.45-3.35.27A7.58,7.58,0,0,1,178.63,392.31Z"/><path class="cls-12" d="M175.46,393.46l.06,0c.84-.37,2.48-1.86,2.36-2.64,0-.18-.16-.41-.61-.45a1.17,1.17,0,0,0-.91.28,4.72,4.72,0,0,0-1.07,2.65.18.18,0,0,0,.07.15A.17.17,0,0,0,175.46,393.46Zm1.68-2.79h.1c.29,0,.31.15.31.18.08.47-1,1.64-1.89,2.15a3.87,3.87,0,0,1,.91-2.12A.87.87,0,0,1,177.14,390.67Z"/><polygon class="cls-37" points="167.88 393.3 174.77 393.3 175.46 377.34 168.57 377.34 167.88 393.3"/><polygon class="cls-37" points="118.16 390.11 125.07 391.56 129.96 376.7 123.04 375.24 118.16 390.11"/><path class="cls-13" d="M125.82,390.89l-7.56-1.64a.61.61,0,0,0-.68.34L115,395.28a1,1,0,0,0,.72,1.41c2.66.53,4,.65,7.3,1.37,2,.45,6.67,1.57,9.49,2.18s3.8-2.1,2.7-2.6c-4.94-2.26-7-4.25-8.34-6.1A1.66,1.66,0,0,0,125.82,390.89Z"/><path class="cls-13" d="M174.73,392.5H167.2a.6.6,0,0,0-.59.47l-1.36,6.12a1,1,0,0,0,1,1.23c2.72-.05,6.64-.21,10-.21,4,0,2.44.22,7.12.22,2.83,0,3.61-2.86,2.43-3.12-5.39-1.18-4.8-1.3-9.46-4.18A3.16,3.16,0,0,0,174.73,392.5Z"/><path class="cls-13" d="M146.87,158.12c-6.45,1.48-11.78,18-11.78,18l13,9.88a28.33,28.33,0,0,0,6.88-12.73C157.16,164.6,153.48,156.61,146.87,158.12Z"/><path class="cls-39" d="M152.41,170.24c-3.51,3.47-4.65,9.79-4.92,15.29l.57.44a28.33,28.33,0,0,0,6.88-12.74c.13-.51.25-1,.34-1.53Z"/><path class="cls-35" d="M185.48,158.47s7.33,8.29.4,59.56H149c-.25-5.66,3.3-33.25-2.16-59.91a96,96,0,0,1,12.34-1.56,134.19,134.19,0,0,1,15.67,0A69.58,69.58,0,0,1,185.48,158.47Z"/><polygon class="cls-39" points="175.46 377.34 175.1 385.57 168.21 385.57 168.56 377.34 175.46 377.34"/><polygon class="cls-39" points="123.03 375.25 129.96 376.71 127.44 384.37 120.52 382.91 123.03 375.25"/><path class="cls-37" d="M157.88,133.8c1.77,6.6,2.47,10.56,6.55,13.31,6.13,4.13,13.76-.61,14-7.61.21-6.31-2.72-16-9.81-17.38A9.32,9.32,0,0,0,157.88,133.8Z"/><path class="cls-37" d="M164.46,146.34h-.09a6.7,6.7,0,0,1-5.45-2.77c-2.07-2.89-5-7.9-5.31-13.68,2.62-2.77,12.5-4.6,16.89-3.6,3.66.84,3.13,11.26-.33,16.9A6.73,6.73,0,0,1,164.46,146.34Z"/><path class="cls-40" d="M164.46,146.34h-.09a6.7,6.7,0,0,1-5.45-2.77c-2.07-2.89-5-7.9-5.31-13.68,2.62-2.77,12.5-4.6,16.89-3.6,3.66.84,3.13,11.26-.33,16.9A6.73,6.73,0,0,1,164.46,146.34Z"/><path class="cls-13" d="M157.61,132.24a6,6,0,0,1-5.42-3.85c-.79-2.34.05-7.27,4.74-7.42s5.2-2.82,3.75-3.37c3.07.22,2.1,2.37,2.1,2.37.82,0,1.6-2.2,6.27-2s7-.83,6.4-1.88c2.22.45,1.6,3.15-.28,3.87,0,0,4.45,3.38,5.5,1.53.75,1.35-.72,3-6.35,2.23,2.25,3.13-3.06,2.43-5.32,3.86S160.71,132.46,157.61,132.24Z"/><path class="cls-37" d="M169.12,133.49a7.76,7.76,0,0,0,2.78,4.11c1.79,1.33,3.13,0,3-2-.11-1.82-1.18-4.72-3.16-5.26S168.6,131.51,169.12,133.49Z"/><path class="cls-13" d="M172.81,218S165,270.69,160.7,290.41c-4.7,21.61-29.91,93.08-29.91,93.08l-12.33-2.67s17.62-58.25,21.57-88.45c3-23.2,9-74.34,9-74.34Z"/><path class="cls-41" d="M133.74,379.37c.06,0-2.3,4.46-2.3,4.46l-13.87-3,1.17-4.17Z"/><path class="cls-42" d="M167.87,236.79c-9,1.77-8.09,35.49-7,52.83,2.61-12.25,6.43-35.84,9-52.59A3.07,3.07,0,0,0,167.87,236.79Z"/><path class="cls-13" d="M185.88,218s1,51.52.2,72.53c-.78,21.85-8.41,93.42-8.41,93.42H166s-.43-70.29-.95-91.75c-.57-23.4-3.39-74.2-3.39-74.2Z"/><path class="cls-43" d="M179.92,379.33c.05,0-.66,4.84-.66,4.84h-14.2l-.38-4.32Z"/><path class="cls-44" d="M185.64,157.56c1.81.75,3.55,2.09,4.07,6.54.5,4.28-.47,41.72-1.64,53.68a1.74,1.74,0,0,1-1.52,1.64c-7.37.32-30.19-2.76-37.89-1.41-.89.16-1.68-.82-1.63-1.72.61-11.66-.27-30.45-1.69-42.39-.93-7.8-.94-16,5.61-17.34C155.79,155.53,178.61,154.63,185.64,157.56Z"/><path class="cls-37" d="M188.5,167.91c.41,2,.86,4.13,1.35,6.18s1,4.13,1.58,6.15,1.17,4,1.86,5.91a32.75,32.75,0,0,0,2.29,5.21,10.7,10.7,0,0,0,1.21,1.76c.16.19.3.31.33.35s0,.08.18.14a4.78,4.78,0,0,0,1.82.23,21.05,21.05,0,0,0,2.67-.29A78.29,78.29,0,0,0,213.72,190l2.61,4.47A45.35,45.35,0,0,1,204,201.56a21.66,21.66,0,0,1-3.83,1,14,14,0,0,1-4.78.08,9.8,9.8,0,0,1-2.93-1,11.09,11.09,0,0,1-2.29-1.66,18.57,18.57,0,0,1-2.88-3.44,54.4,54.4,0,0,1-5.86-13.37c-.68-2.23-1.3-4.44-1.81-6.68s-1-4.42-1.4-6.8Z"/><path class="cls-13" d="M173.34,165.21c-5.59,11.26,7.7,24,7.7,24l14.83-7.75a81.27,81.27,0,0,0-5.07-17.37C186.48,154.46,176.56,158.74,173.34,165.21Z"/><path class="cls-37" d="M212.35,190.71l5-3.31,2.09,7.52s-2.25,2.64-6.37-.23Z"/><path class="cls-37" d="M221.75,190.44l-.16,1.58a2.93,2.93,0,0,1-1,2l-1.11.94-2.09-7.52.65-.16A3,3,0,0,1,221.75,190.44Z"/></svg>