<svg xmlns="http://www.w3.org/2000/svg" xmlns:xlink="http://www.w3.org/1999/xlink" viewBox="0 0 500 500"><defs><style>.cls-1{isolation:isolate;}.cls-2,.cls-20{opacity:0.3;}.cls-2{fill:url(#Degradado_sin_nombre_11);}.cls-20,.cls-3{fill:#c2a49d;mix-blend-mode:multiply;}.cls-4{fill:#cdad8a;}.cls-5{fill:#a48465;}.cls-6{fill:#f0cfa8;}.cls-7{fill:#f0dcc5;}.cls-8{fill:#7f6b59;}.cls-9{fill:#e6d3bd;}.cls-10{fill:#b29778;}.cls-11{fill:#e0c5a4;}.cls-12{fill:url(#Degradado_sin_nombre_8);}.cls-13{fill:#c5b9ab;}.cls-14{fill:url(#Degradado_sin_nombre_8-2);}.cls-15{fill:url(#Degradado_sin_nombre_8-3);}.cls-16{fill:url(#Degradado_sin_nombre_8-4);}.cls-17{fill:url(#Degradado_sin_nombre_8-5);}.cls-18{fill:url(#Degradado_sin_nombre_8-6);}.cls-19{fill:url(#Degradado_sin_nombre_8-7);}.cls-21{fill:#bb9673;}.cls-22{fill:url(#Degradado_sin_nombre_8-8);}.cls-23{fill:url(#Degradado_sin_nombre_8-9);}.cls-24{fill:url(#Degradado_sin_nombre_8-10);}.cls-25{fill:url(#Degradado_sin_nombre_8-11);}.cls-26{fill:url(#Degradado_sin_nombre_8-12);}.cls-27{fill:url(#Degradado_sin_nombre_8-13);}.cls-28{fill:#8f6e4f;}</style><linearGradient id="Degradado_sin_nombre_11" x1="7.41" y1="250" x2="492.59" y2="250" gradientUnits="userSpaceOnUse"><stop offset="0" stop-color="#ca4b7c"/><stop offset="1" stop-color="#fe7087"/></linearGradient><linearGradient id="Degradado_sin_nombre_8" x1="209.86" y1="145.87" x2="236.57" y2="145.87" gradientUnits="userSpaceOnUse"><stop offset="0" stop-color="#6e376e"/><stop offset="1" stop-color="#ca4b7c"/></linearGradient><linearGradient id="Degradado_sin_nombre_8-2" x1="170.9" y1="189.73" x2="198.62" y2="189.73" xlink:href="#Degradado_sin_nombre_8"/><linearGradient id="Degradado_sin_nombre_8-3" x1="170.9" y1="194.53" x2="198.62" y2="194.53" xlink:href="#Degradado_sin_nombre_8"/><linearGradient id="Degradado_sin_nombre_8-4" x1="170.9" y1="196.88" x2="198.62" y2="196.88" xlink:href="#Degradado_sin_nombre_8"/><linearGradient id="Degradado_sin_nombre_8-5" x1="170.9" y1="199.23" x2="198.62" y2="199.23" xlink:href="#Degradado_sin_nombre_8"/><linearGradient id="Degradado_sin_nombre_8-6" x1="170.9" y1="203.8" x2="190.94" y2="203.8" xlink:href="#Degradado_sin_nombre_8"/><linearGradient id="Degradado_sin_nombre_8-7" x1="201.82" y1="222.67" x2="214.24" y2="222.67" xlink:href="#Degradado_sin_nombre_8"/><linearGradient id="Degradado_sin_nombre_8-8" x1="342.42" y1="322.12" x2="371.73" y2="322.12" xlink:href="#Degradado_sin_nombre_8"/><linearGradient id="Degradado_sin_nombre_8-9" x1="271.25" y1="354.14" x2="304.88" y2="354.14" xlink:href="#Degradado_sin_nombre_8"/><linearGradient id="Degradado_sin_nombre_8-10" x1="271.25" y1="359.96" x2="304.88" y2="359.96" xlink:href="#Degradado_sin_nombre_8"/><linearGradient id="Degradado_sin_nombre_8-11" x1="271.25" y1="362.81" x2="304.88" y2="362.81" xlink:href="#Degradado_sin_nombre_8"/><linearGradient id="Degradado_sin_nombre_8-12" x1="271.25" y1="365.66" x2="304.88" y2="365.66" xlink:href="#Degradado_sin_nombre_8"/><linearGradient id="Degradado_sin_nombre_8-13" x1="271.25" y1="371.2" x2="295.56" y2="371.2" xlink:href="#Degradado_sin_nombre_8"/></defs><title>Kategori konsultasi</title><g class="cls-1"><g id="Layer_1" data-name="Layer 1"><circle class="cls-2" cx="250" cy="250" r="242.59"/><polygon class="cls-3" points="156.24 353.46 220.65 363.37 350.88 284.29 291.2 250.25 278.01 247.47 156.24 353.46"/><polygon class="cls-4" points="156.24 166.27 156.24 353.46 131.64 339.25 118.39 331.61 89.42 314.88 89.42 127.69 118.39 144.41 118.39 144.42 131.64 152.06 156.24 166.27"/><polygon class="cls-5" points="285.07 279.08 156.24 353.46 156.24 166.27 285.07 91.89 285.07 279.08"/><polygon class="cls-6" points="285.07 91.89 156.24 166.27 131.64 152.06 118.38 144.41 89.42 127.69 218.24 53.31 247.21 70.03 260.48 77.69 285.07 91.89"/><polygon class="cls-7" points="257.51 75.7 128.68 150.07 115.41 142.42 244.24 68.04 257.51 75.7"/><path class="cls-8" d="M119.2,118.44a3.93,3.93,0,0,0-.58-.33s-.15.41,0,.62l0,0c-2.68,1.78-.34,3.32-.34,3.32l0,0a.28.28,0,0,1,.1-.47,1.14,1.14,0,0,1,.82-.06l.05,0a.28.28,0,0,1,.1-.47,1.15,1.15,0,0,1,.82-.06l.05,0a.28.28,0,0,1,.1-.47,1.15,1.15,0,0,1,.82-.06l0,0a.29.29,0,0,1-.07-.29l3.41,2c.18.11.19.27,0,.36a.68.68,0,0,1-.62,0l-.55-.32a.59.59,0,0,0-.52,0c-.13.08-.12.21,0,.3l.55.32a1.83,1.83,0,0,0,1.66,0c.44-.25.41-.68-.07-.95l-3.4-2a1.17,1.17,0,0,1,.49,0l0,0a.28.28,0,0,1,.11-.47,1.07,1.07,0,0,1,.81-.06l0,0a.28.28,0,0,1,.11-.47,1,1,0,0,1,.81-.06l.06,0c-.15-.16-.12-.35.1-.47a1,1,0,0,1,.81-.06l0,0A6.91,6.91,0,0,0,119.2,118.44Z"/><path class="cls-8" d="M117.27,119.4c.21,0,.31-.17.17-.38a2.61,2.61,0,0,0-.75-.49s-.15.41,0,.62A.59.59,0,0,0,117.27,119.4Z"/><path class="cls-8" d="M117.83,118.46c.21,0,.31-.18.17-.39a2.47,2.47,0,0,0-.74-.49s-.16.42,0,.63A.57.57,0,0,0,117.83,118.46Z"/><path class="cls-8" d="M120.07,116.67a.58.58,0,0,0,.59.25c.22,0,.32-.18.18-.39a2.61,2.61,0,0,0-.75-.49S119.94,116.46,120.07,116.67Z"/><path class="cls-8" d="M121.53,117.31a.57.57,0,0,0,.59.25c.21,0,.31-.18.17-.39a2.47,2.47,0,0,0-.74-.49S121.39,117.1,121.53,117.31Z"/><path class="cls-8" d="M118.39,117.37c.21,0,.31-.18.18-.39a2.61,2.61,0,0,0-.75-.49s-.16.42,0,.63A.58.58,0,0,0,118.39,117.37Z"/><path class="cls-8" d="M119.31,117.63a.59.59,0,0,0,.6.25c.21,0,.31-.18.17-.39a2.61,2.61,0,0,0-.75-.49S119.18,117.42,119.31,117.63Z"/><path class="cls-8" d="M119.07,116.36c.21,0,.31-.18.17-.39a2.47,2.47,0,0,0-.74-.49s-.16.42,0,.63A.57.57,0,0,0,119.07,116.36Z"/><path class="cls-8" d="M132.34,120l-10.82,6.25a.42.42,0,0,1-.38,0l-11.71-6.76c-.1-.06-.11-.16,0-.22L120.24,113a.4.4,0,0,1,.37,0l11.71,6.76C132.43,119.87,132.43,120,132.34,120Zm-11,5.92,10.46-6-11.32-6.53-10.46,6Z"/><path class="cls-8" d="M105.9,121.25,95.08,127.5c-.1,0-.09.15,0,.21l11.71,6.76a.4.4,0,0,0,.37,0L118,128.23c.1,0,.09-.15,0-.21l-11.71-6.76A.4.4,0,0,0,105.9,121.25Zm11.53,6.86-10.46,6-11.32-6.53,10.46-6Z"/><path class="cls-8" d="M105.8,127.8l3.41,2-.87,1.11,1.4-.8.54-.31,1.44-.84-2,.53-3.4-2a1.8,1.8,0,0,0,.94-1.59,2.35,2.35,0,0,0-1.35-1.76l-3.69,2.13.2.5.88-.2.33,1.39-.91-.72-.62,0-.61-.6-1.41.82A6.73,6.73,0,0,0,105.8,127.8Z"/><polygon class="cls-8" points="130.87 108.97 130.17 110.73 133.21 110.32 133.91 108.57 130.87 108.97"/><polygon class="cls-8" points="132.23 111.97 135.26 111.56 133.24 110.39 130.21 110.8 132.23 111.97"/><polygon class="cls-8" points="134.04 108.58 133.34 110.34 135.37 111.5 136.07 109.75 134.04 108.58"/><path class="cls-8" d="M132.65,112.47c-.19,0-.35.07-.36.18s0,.12.1.18a.75.75,0,0,0,.39.12l1.91.08c.12,0,.23,0,.24.12a.12.12,0,0,1-.06.1.38.38,0,0,1-.16,0l-1.88-.08a.62.62,0,0,1-.31-.08l-.79-.46-.37-.21-1.19-.69a1,1,0,0,0-.91,0c-.24.14-.23.38,0,.53l2.21,1.27a3.64,3.64,0,0,0,1.43.44l2.39.27a1.93,1.93,0,0,1,.82.26l1.41.81,1.39-.8-2.43-1.4a4.44,4.44,0,0,0-2-.55Z"/><path class="cls-8" d="M135.66,108c-.24.14-.22.38,0,.53l2.35,1.36c.09,0,.14.11.14.17l.14,1.09a.1.1,0,0,1-.06.09.29.29,0,0,1-.17,0c-.11,0-.2-.07-.21-.14l-.14-1.1a.32.32,0,0,0-.2-.23.51.51,0,0,0-.31-.06c-.19,0-.33.1-.31.21l.17,1.09a1.75,1.75,0,0,0,.94,1.14l2.43,1.4,1.39-.8-1.41-.81a.91.91,0,0,1-.44-.48l-.46-1.38a1.63,1.63,0,0,0-.77-.82l-2.2-1.28A1,1,0,0,0,135.66,108Z"/><path class="cls-8" d="M146.75,111.89l-10.82,6.25a.4.4,0,0,1-.37,0l-11.71-6.76c-.11-.06-.12-.16,0-.21l10.82-6.25a.4.4,0,0,1,.37,0l11.71,6.76C146.84,111.74,146.85,111.84,146.75,111.89Zm-11,5.92,10.46-6-11.32-6.53-10.46,6Z"/><polygon class="cls-8" points="154.3 103.31 150.59 101.17 151.41 100.69 147.12 99.97 148.37 102.45 149.18 101.98 152.89 104.12 150.9 105.27 147.19 103.13 148.01 102.66 143.72 101.94 144.97 104.41 145.78 103.94 149.49 106.08 148.39 106.71 150.14 107.72 157.19 103.65 155.45 102.64 154.3 103.31"/><path class="cls-8" d="M161,103.68l-10.82,6.25a.44.44,0,0,1-.37,0l-11.71-6.76c-.1-.06-.11-.16,0-.22l10.82-6.24a.38.38,0,0,1,.37,0L161,103.47C161.1,103.53,161.11,103.62,161,103.68Zm-11,5.92,10.46-6L149.12,97l-10.46,6Z"/><path class="cls-9" d="M249.75,72.43a1.65,1.65,0,0,0-1.5,0c-30.28,17.33-97.56,56.4-125.09,72.39a.46.46,0,0,0,0,.87h0a1.65,1.65,0,0,0,1.5,0c27.53-16,94.81-55.06,125.08-72.39a.46.46,0,0,0,0-.87Z"/><path class="cls-10" d="M90.5,130l64.7,37.35c.17.1.31,0,.31-.13a.62.62,0,0,0-.31-.47L90.5,129.35c-.16-.09-.3,0-.3.13A.65.65,0,0,0,90.5,130Z"/><polygon class="cls-11" points="128.68 150.07 128.68 337.26 115.42 329.62 115.42 142.42 128.68 150.07"/><path class="cls-12" d="M231.54,146.1l-16.64,9.61c-2.78,1.6-5,.65-5-2.13h0c0-2.78,2.26-6.34,5-7.94L231.54,136c2.78-1.61,5-.65,5,2.13h0C236.57,140.94,234.32,144.5,231.54,146.1Z"/><polygon class="cls-13" points="208.03 222.6 166.47 246.6 166.47 222.75 208.03 198.75 208.03 222.6"/><polygon class="cls-14" points="198.62 183.07 170.9 199.08 170.9 196.39 198.62 180.39 198.62 183.07"/><polygon class="cls-15" points="198.62 187.2 170.9 203.2 170.9 201.86 198.62 185.85 198.62 187.2"/><polygon class="cls-16" points="198.62 189.55 170.9 205.55 170.9 204.21 198.62 188.21 198.62 189.55"/><polygon class="cls-17" points="198.62 191.9 170.9 207.9 170.9 206.56 198.62 190.56 198.62 191.9"/><polygon class="cls-18" points="190.94 198.68 170.9 210.25 170.9 208.91 190.94 197.34 190.94 198.68"/><path class="cls-19" d="M208,218.92c2.07-1.2,3.76-.49,3.76,1.58a7.81,7.81,0,0,1-3.76,5.93c-2.07,1.19-3.76.48-3.76-1.59a7.79,7.79,0,0,1,3.76-5.92Zm0-2.45c-3.43,2-6.21,6.36-6.21,9.79s2.78,4.6,6.21,2.62,6.21-6.36,6.21-9.79-2.78-4.6-6.21-2.62Z"/><polygon class="cls-20" points="230.82 435.93 288.57 444.81 461.97 346.18 396.8 309.01 380.58 305.58 230.82 435.93"/><polygon class="cls-4" points="230.82 349.52 230.82 435.93 131.16 378.39 131.16 291.99 230.82 349.52"/><polygon class="cls-5" points="392.06 342.83 230.81 435.93 230.81 349.52 392.06 256.42 392.06 342.83"/><polygon class="cls-6" points="392.06 256.42 241.33 343.45 230.82 349.52 131.17 291.99 141.68 285.91 292.41 198.88 392.06 256.42"/><polygon class="cls-21" points="230.82 360.04 230.82 349.52 392.06 256.42 392.06 266.94 230.82 360.04"/><polygon class="cls-7" points="230.82 349.52 220.3 343.45 381.54 250.35 392.06 256.43 230.82 349.52"/><polygon class="cls-7" points="141.68 298.06 131.16 291.99 292.39 198.89 302.91 204.96 141.68 298.06"/><polygon class="cls-7" points="241.33 343.45 230.82 349.52 131.17 291.99 141.68 285.91 241.33 343.45"/><polygon class="cls-7" points="392.06 256.42 381.54 262.5 281.89 204.96 292.41 198.89 392.06 256.42"/><polygon class="cls-11" points="230.82 349.52 230.82 360.04 131.16 302.5 131.16 291.99 230.82 349.52"/><path class="cls-5" d="M391,259.63l-158.8,91.61c-.2.11-.36.05-.36-.16a.75.75,0,0,1,.36-.57L391,258.9c.2-.12.36,0,.36.15A.77.77,0,0,1,391,259.63Z"/><path class="cls-8" d="M190.88,347.67a3.82,3.82,0,0,0,0-.66s-.45.06-.57.27c0,0,0,0,0,.05-3-1.51-3.16,1.27-3.16,1.27h0c.07-.2.25-.26.48-.13a1.16,1.16,0,0,1,.47.68l.06,0c.06-.2.25-.27.48-.14a1.11,1.11,0,0,1,.47.69l.06,0c.06-.2.25-.26.47-.13a1,1,0,0,1,.48.68l.06,0a.27.27,0,0,1,.22-.19v3.9c0,.21-.14.29-.32.19a.71.71,0,0,1-.31-.55v-.63a.57.57,0,0,0-.26-.45c-.14-.09-.26,0-.26.15v.63a1.91,1.91,0,0,0,.83,1.47c.46.26.83,0,.83-.51v-3.91a1.35,1.35,0,0,1,.22.45l.06,0c.06-.19.25-.26.48-.13a1.11,1.11,0,0,1,.47.69l.06,0c.06-.2.25-.26.47-.13a1,1,0,0,1,.48.68l.06,0c.06-.2.25-.26.47-.13a1.13,1.13,0,0,1,.48.68l0,0A7,7,0,0,0,190.88,347.67Z"/><path class="cls-8" d="M189,346.43c.15.17.33.19.44,0a2.34,2.34,0,0,0,.05-.88s-.45.06-.57.28A.56.56,0,0,0,189,346.43Z"/><path class="cls-8" d="M190.15,346.48c.14.17.32.19.44,0a2.58,2.58,0,0,0,0-.88s-.46.06-.58.27A.58.58,0,0,0,190.15,346.48Z"/><path class="cls-8" d="M192.93,347.59a.56.56,0,0,0,.08.64c.14.16.32.19.44,0a2.64,2.64,0,0,0,.05-.89S193,347.37,192.93,347.59Z"/><path class="cls-8" d="M193.11,349.17a.54.54,0,0,0,.08.63c.14.17.32.19.44,0a2.58,2.58,0,0,0,.05-.88S193.22,349,193.11,349.17Z"/><path class="cls-8" d="M191.42,346.46c.15.16.32.18.44,0a2.4,2.4,0,0,0,0-.89s-.45.06-.57.28A.57.57,0,0,0,191.42,346.46Z"/><path class="cls-8" d="M191.67,347.38a.56.56,0,0,0,.08.64c.14.17.32.19.44,0a2.34,2.34,0,0,0,.05-.88S191.78,347.17,191.67,347.38Z"/><path class="cls-8" d="M192.68,346.57c.14.17.32.19.44,0a2.34,2.34,0,0,0,0-.88s-.45.06-.57.27A.57.57,0,0,0,192.68,346.57Z"/><path class="cls-8" d="M196.28,359.88,185,353.39a.44.44,0,0,1-.19-.33V339.64a.12.12,0,0,1,.19-.11L196.28,346a.44.44,0,0,1,.19.33v13.42A.12.12,0,0,1,196.28,359.88Zm-11.06-6.83,10.87,6.28v-13l-10.87-6.28Z"/><path class="cls-8" d="M196.28,362.31,185,355.81a.12.12,0,0,0-.19.12v13.41a.41.41,0,0,0,.19.33l11.25,6.5c.1.06.19,0,.19-.12V362.64A.44.44,0,0,0,196.28,362.31Zm-.19,13.31-10.87-6.28v-13l10.87,6.28Z"/><path class="cls-8" d="M190.33,365.32v3.91l-1.46-.24,1.46.84.56.32,1.5.87-1.5-1.47v-3.9a2,2,0,0,0,1.92.08,2.25,2.25,0,0,0,.88-2l-3.84-2.21-.34.41.64.67-1.09.95.18-1.14-.37-.52.22-.81-1.47-.85A6.78,6.78,0,0,0,190.33,365.32Z"/><polygon class="cls-8" points="205.47 353.39 203.53 353.6 205.47 356.06 207.41 355.85 205.47 353.39"/><polygon class="cls-8" points="203.48 355.98 205.42 358.44 205.42 356.13 203.48 353.67 203.48 355.98"/><polygon class="cls-8" points="207.47 355.97 205.53 356.19 205.53 358.51 207.47 358.29 207.47 355.97"/><path class="cls-8" d="M203.25,356.59c-.1-.17-.25-.28-.36-.23s-.1.07-.11.17a.77.77,0,0,0,.1.4l.93,1.71c.05.1.06.22,0,.26a.13.13,0,0,1-.12,0,.36.36,0,0,1-.11-.13l-.91-1.68a.61.61,0,0,1-.09-.3v-.91c0-.13,0-.26,0-.42v-1.37a1,1,0,0,0-.45-.81c-.25-.14-.46,0-.46.28v2.53a3.57,3.57,0,0,0,.35,1.46l1,2.21a2.06,2.06,0,0,1,.2.84v1.62l1.44.83v-2.78a4.38,4.38,0,0,0-.54-2Z"/><path class="cls-8" d="M208.8,357.13c-.25-.14-.46,0-.46.28v2.7a.23.23,0,0,1-.08.2l-.91.63s-.07,0-.11,0a.3.3,0,0,1-.12-.13c-.05-.11,0-.21,0-.25l.93-.64a.3.3,0,0,0,.09-.29.48.48,0,0,0-.11-.3c-.1-.16-.26-.24-.35-.17l-.88.66a1.65,1.65,0,0,0-.55,1.37V364l1.45.83v-1.61a.86.86,0,0,1,.2-.61l1-1.06a1.5,1.5,0,0,0,.35-1.06v-2.52A1,1,0,0,0,208.8,357.13Z"/><path class="cls-8" d="M211.09,368.63l-11.25-6.5a.43.43,0,0,1-.18-.33V348.39c0-.13.08-.18.18-.12l11.25,6.5a.4.4,0,0,1,.19.33v13.41C211.28,368.63,211.2,368.68,211.09,368.63ZM200,361.79l10.88,6.28v-13L200,348.82Z"/><polygon class="cls-8" points="222.75 371.16 222.75 366.91 223.6 367.4 222.02 363.32 220.44 365.58 221.29 366.07 221.29 370.32 219.22 369.12 219.22 364.87 220.07 365.36 218.49 361.28 216.91 363.54 217.76 364.03 217.76 368.28 216.62 367.62 216.62 369.61 223.95 373.85 223.95 371.85 222.75 371.16"/><path class="cls-8" d="M225.91,377.2l-11.25-6.49a.41.41,0,0,1-.19-.33V357c0-.12.08-.17.19-.11l11.25,6.49a.43.43,0,0,1,.18.33v13.42C226.09,377.21,226,377.26,225.91,377.2Zm-11.07-6.83,10.88,6.28v-13l-10.88-6.28Z"/><path class="cls-22" d="M371.14,313.94a1.26,1.26,0,0,0-.62.95s-.12,3.25-5.48,6.34c-3.05,1.76-4.43,1.55-5.76,1.34a5.7,5.7,0,0,0-3.87.49,4.25,4.25,0,0,0-.71-2.44,5,5,0,0,1,3.86-.69c1.43.22,3,.48,6.48-1.51,6.52-3.77,6.69-8.18,6.69-8.22,0-.34-.26-.46-.59-.28a1.32,1.32,0,0,0-.62.94c0,.13-.18,3.3-5.48,6.35-3.05,1.76-4.43,1.55-5.76,1.34a6,6,0,0,0-4.63.89c-.25.14-.48.3-.72.45-1.19-.76-3-.64-5,.52-3.58,2.07-6.5,6.66-6.5,10.25s2.92,4.81,6.5,2.74a14,14,0,0,0,6.39-9.08,4.79,4.79,0,0,1,3.25-.37c1.43.22,3,.48,6.48-1.51,6.52-3.77,6.69-8.18,6.69-8.22C371.74,313.88,371.47,313.76,371.14,313.94Zm-22.22,18.25c-2.92,1.69-5.29.69-5.29-2.23s2.37-6.66,5.29-8.34a4.44,4.44,0,0,1,3.59-.66,24.48,24.48,0,0,0-5.4,6.86c-.2.39-.13.72.14.76a.54.54,0,0,0,.35-.09,1.3,1.3,0,0,0,.49-.54,21.66,21.66,0,0,1,5.29-6.45,3.17,3.17,0,0,1,.82,2.24c-4.35,2.75-7,7.88-7.09,8.1-.2.38-.13.72.14.76s.65-.24.84-.63a20.83,20.83,0,0,1,6-7A11.48,11.48,0,0,1,348.92,332.19Z"/><polygon class="cls-23" points="304.88 346.06 271.25 365.48 271.25 362.22 304.88 342.8 304.88 346.06"/><polygon class="cls-24" points="304.88 351.06 271.25 370.48 271.25 368.85 304.88 349.43 304.88 351.06"/><polygon class="cls-25" points="304.88 353.91 271.25 373.33 271.25 371.7 304.88 352.29 304.88 353.91"/><polygon class="cls-26" points="304.88 356.76 271.25 376.18 271.25 374.56 304.88 355.14 304.88 356.76"/><polygon class="cls-27" points="295.56 365 271.25 379.04 271.25 377.41 295.56 363.37 295.56 365"/><polygon class="cls-3" points="282.43 313.27 291.25 314.63 392.06 256.42 375.21 246.7 366.99 236.85 282.43 313.27"/><polygon class="cls-4" points="282.43 223.38 282.43 313.27 236.04 286.48 223.97 279.51 189.64 259.7 189.64 169.81 223.97 189.63 236.04 196.59 282.43 223.38"/><polygon class="cls-5" points="375.21 169.81 375.21 259.7 339.73 280.18 327.67 287.14 282.43 313.27 282.43 223.38 327.67 197.25 339.73 190.3 375.21 169.81"/><polygon class="cls-6" points="375.21 169.81 282.43 223.38 236.38 196.78 236.37 196.78 224.31 189.83 189.64 169.81 235.12 143.55 247.19 136.58 282.43 116.24 317.09 136.26 329.15 143.21 375.21 169.81"/><polygon class="cls-11" points="236.04 196.59 236.04 286.48 223.97 279.51 223.97 189.63 236.04 196.59"/><polygon class="cls-7" points="339.73 190.29 327.67 197.25 281.86 170.8 269.79 163.84 234.8 143.68 246.87 136.71 281.86 156.87 293.92 163.84 339.73 190.29"/><polygon class="cls-7" points="329.01 143.07 293.78 163.42 281.72 170.39 281.7 170.39 236.24 196.64 236.23 196.64 235.89 196.84 223.83 189.88 224.17 189.69 269.64 163.42 281.72 156.46 316.95 136.11 329.01 143.07"/><path class="cls-28" d="M373.92,173l-89.8,51.85c-.23.14-.42.06-.42-.17a.87.87,0,0,1,.42-.66l89.8-51.85c.23-.14.42-.06.42.17A.85.85,0,0,1,373.92,173Z"/><polygon class="cls-21" points="339.73 190.3 339.73 280.18 327.67 287.14 327.67 197.25 339.73 190.3"/><path class="cls-9" d="M333.11,193.63a1.23,1.23,0,0,1-1.09,0c-22-12.61-71-41-91-52.66a.34.34,0,0,1,0-.64h0a1.2,1.2,0,0,1,1.09,0c20,11.63,69,40,91,52.65.31.18.31.46,0,.64Z"/><path class="cls-8" d="M364.07,188.62a3.85,3.85,0,0,0,0-.68,4.67,4.67,0,0,0-.59,1,.19.19,0,0,0,0,.07,7.1,7.1,0,0,0-3.29,5.11l0,0a1.17,1.17,0,0,1,.5-.71c.23-.13.42-.07.49.14l.06,0a1.17,1.17,0,0,1,.5-.71c.23-.14.42-.07.49.13l.06,0a1.13,1.13,0,0,1,.5-.71c.23-.13.42-.07.49.14l.06,0a1.17,1.17,0,0,1,.23-.46v4a.73.73,0,0,1-.33.58c-.18.1-.33,0-.33-.2v-.65c0-.18-.12-.25-.26-.17a.61.61,0,0,0-.27.48v.65c0,.56.39.8.86.53a1.94,1.94,0,0,0,.86-1.53v-4a.26.26,0,0,1,.23.2l.06,0a1.16,1.16,0,0,1,.49-.71c.23-.13.43-.07.5.14l.06,0a1.21,1.21,0,0,1,.49-.71c.23-.13.43-.07.5.14l.06,0a1.16,1.16,0,0,1,.49-.71c.23-.14.43-.07.5.13h0S367.25,186.93,364.07,188.62Z"/><path class="cls-8" d="M362.12,189.59c.15,0,.33-.19.45-.56a2.72,2.72,0,0,0,.06-1,4.41,4.41,0,0,0-.6,1C361.91,189.4,362,189.59,362.12,189.59Z"/><path class="cls-8" d="M363.31,188.27c.15,0,.33-.19.45-.56a2.94,2.94,0,0,0,.05-1,4.67,4.67,0,0,0-.59,1C363.1,188.08,363.16,188.27,363.31,188.27Z"/><path class="cls-8" d="M366.19,186.09c-.12.37-.06.56.09.56s.33-.19.45-.56a2.72,2.72,0,0,0,.06-1A4.85,4.85,0,0,0,366.19,186.09Z"/><path class="cls-8" d="M366.38,187.51c-.12.37-.06.56.08.56s.34-.19.46-.56a2.94,2.94,0,0,0,.05-1A4.67,4.67,0,0,0,366.38,187.51Z"/><path class="cls-8" d="M364.63,186.71c.15,0,.34-.19.46-.55a2.94,2.94,0,0,0,.05-1,4.8,4.8,0,0,0-.59,1C364.42,186.52,364.48,186.71,364.63,186.71Z"/><path class="cls-8" d="M364.89,187.38c-.13.37-.07.56.08.57s.34-.19.46-.56a2.94,2.94,0,0,0,.05-1A4.8,4.8,0,0,0,364.89,187.38Z"/><path class="cls-8" d="M365.94,185.32c.15,0,.33-.19.45-.56a2.72,2.72,0,0,0,.06-1,4.85,4.85,0,0,0-.6,1C365.73,185.13,365.79,185.32,365.94,185.32Z"/><path class="cls-8" d="M369.68,194.83,358,201.58c-.11.06-.19,0-.19-.12V187.53a.45.45,0,0,1,.19-.35l11.69-6.74c.1-.06.19,0,.19.12v13.93A.44.44,0,0,1,369.68,194.83ZM358.18,201l11.3-6.52V181l-11.3,6.52Z"/><path class="cls-8" d="M355.52,188.58l-11.68,6.75a.41.41,0,0,0-.19.34V209.6c0,.13.08.19.19.12L355.52,203a.44.44,0,0,0,.2-.35V188.7C355.72,188.57,355.63,188.52,355.52,188.58Zm-.19,14L344,209.15V195.68l11.3-6.53Z"/><path class="cls-8" d="M349.35,198.84v4.06l-1.52,1.5,1.52-.87.57-.33,1.56-.9-1.56.27v-4a6.48,6.48,0,0,0,2-2.23,6.62,6.62,0,0,0,.91-3.14l-4,2.3-.36.84.66-.07L348,198.5l.2-1.4-.39-.09.23-1.1-1.53.87C346.53,198.71,347.77,199.58,349.35,198.84Z"/><polygon class="cls-8" points="349.68 210.84 347.66 213.4 349.68 213.62 351.7 211.07 349.68 210.84"/><polygon class="cls-8" points="347.62 215.93 349.63 216.15 349.63 213.75 347.62 213.52 347.62 215.93"/><polygon class="cls-8" points="351.76 211.13 349.74 213.68 349.74 216.09 351.76 213.53 351.76 211.13"/><path class="cls-8" d="M347.37,216.84c-.09-.07-.25,0-.36.18a.61.61,0,0,0-.12.31.31.31,0,0,0,.11.3l1,.66a.24.24,0,0,1,0,.26.36.36,0,0,1-.13.14.11.11,0,0,1-.11,0l-1-.66a.28.28,0,0,1-.09-.21v-1c0-.14,0-.27,0-.43V215c0-.32-.21-.45-.47-.3a1.09,1.09,0,0,0-.47.84v2.62a1.53,1.53,0,0,0,.36,1.1l1,1.1a.93.93,0,0,1,.21.64v1.67l1.49-.86V219a1.71,1.71,0,0,0-.56-1.42Z"/><path class="cls-8" d="M353.14,210.74a1.05,1.05,0,0,0-.47.84v2.8a.64.64,0,0,1-.09.31l-.94,1.75a.51.51,0,0,1-.12.13s-.09,0-.12,0,0-.16,0-.27l1-1.77a.86.86,0,0,0,.1-.42c0-.1,0-.15-.11-.18s-.27.06-.37.25l-.92,1.74a4.63,4.63,0,0,0-.56,2.07v2.89L352,220v-1.68a2.13,2.13,0,0,1,.21-.88l1-2.3a3.78,3.78,0,0,0,.36-1.51V211C353.62,210.72,353.4,210.59,353.14,210.74Z"/><path class="cls-8" d="M355.52,219.93l-11.68,6.74c-.11.07-.19,0-.19-.11V212.62a.41.41,0,0,1,.19-.34l11.68-6.75c.11-.06.2,0,.2.12v13.94A.44.44,0,0,1,355.52,219.93ZM344,226.1l11.3-6.52V206.1L344,212.63Z"/><polygon class="cls-8" points="366.4 209.66 366.4 205.25 367.29 204.73 365.64 202.39 364 206.63 364.88 206.12 364.88 210.53 362.73 211.78 362.73 207.36 363.61 206.85 361.97 204.51 360.33 208.75 361.21 208.24 361.21 212.65 360.02 213.34 360.02 215.41 367.64 211.01 367.64 208.94 366.4 209.66"/><path class="cls-8" d="M369.68,212.15,358,218.9c-.11.06-.19,0-.19-.12V204.84a.41.41,0,0,1,.19-.34l11.69-6.75c.1-.06.19,0,.19.12v13.94A.46.46,0,0,1,369.68,212.15Zm-11.5,6.17,11.3-6.52V198.32l-11.3,6.53Z"/><polygon class="cls-3" points="156.37 276.92 219.48 276.92 218.39 186.41 189.64 169.81 189.64 258.22 156.37 276.92"/></g></g></svg>