<?xml version="1.0" encoding="utf-8"?>
<!-- Generator: Adobe Illustrator 22.1.0, SVG Export Plug-In . SVG Version: 6.00 Build 0)  -->
<svg version="1.1" id="Layer_1" xmlns="http://www.w3.org/2000/svg" xmlns:xlink="http://www.w3.org/1999/xlink" x="0px" y="0px"
	 viewBox="0 0 500 500" style="enable-background:new 0 0 500 500;" xml:space="preserve">
<style type="text/css">
	.st0{opacity:0.3;fill:url(#SVGID_1_);}
	.st1{opacity:0.3;fill:url(#SVGID_2_);}
	.st2{opacity:0.3;fill:url(#SVGID_3_);}
	.st3{opacity:0.3;fill:url(#SVGID_4_);}
	.st4{fill:#C2A49D;}
	.st5{fill:#CDAD8A;}
	.st6{fill:#A48465;}
	.st7{fill:#F0CFA8;}
	.st8{fill:#F0DCC5;}
	.st9{fill:#7F6B59;}
	.st10{fill:#E6D3BD;}
	.st11{fill:#B29778;}
	.st12{fill:#E0C5A4;}
	.st13{fill:url(#SVGID_5_);}
	.st14{fill:#C5B9AB;}
	.st15{fill:url(#SVGID_6_);}
	.st16{fill:url(#SVGID_7_);}
	.st17{fill:url(#SVGID_8_);}
	.st18{fill:url(#SVGID_9_);}
	.st19{fill:url(#SVGID_10_);}
	.st20{fill:url(#SVGID_11_);}
	.st21{opacity:0.3;fill:#C2A49D;}
	.st22{fill:#BB9673;}
	.st23{fill:url(#SVGID_12_);}
	.st24{fill:url(#SVGID_13_);}
	.st25{fill:url(#SVGID_14_);}
	.st26{fill:url(#SVGID_15_);}
	.st27{fill:url(#SVGID_16_);}
	.st28{fill:url(#SVGID_17_);}
	.st29{fill:#8F6E4F;}
	.st30{opacity:0.3;fill:url(#SVGID_18_);}
	.st31{fill:url(#SVGID_19_);}
	.st32{fill:#595959;}
	.st33{fill:#C1C1C1;}
	.st34{fill:#DDDDDD;}
	.st35{fill:#AFAFAF;}
	.st36{fill:#A5A5A5;}
	.st37{fill:#EF8E2E;}
	.st38{fill:#FFA357;}
	.st39{fill:#FFBE83;}
	.st40{fill:#FFB176;}
	.st41{fill:#3F3F3F;}
	.st42{fill:#CECECE;}
	.st43{fill:#D8D8D8;}
	.st44{fill:#EAEAEA;}
	.st45{fill:#F9D5B2;}
	.st46{fill:#E8B679;}
	.st47{fill:#F2C18B;}
	.st48{opacity:0.5;fill:#AFAFAF;}
	.st49{fill:#7C5045;}
	.st50{fill:#684337;}
	.st51{fill:#8C5D54;}
	.st52{fill:#56352C;}
	.st53{fill:#4D4D4D;}
	.st54{fill:#444444;}
	.st55{fill:#303030;}
	.st56{fill:#494949;}
	.st57{fill:#969696;}
	.st58{fill:#FFFFFF;}
	.st59{fill:#383838;}
	.st60{fill:#262626;}
	.st61{fill:#FFA543;}
	.st62{fill:#DD7A22;}
	.st63{fill:#BBBBBB;}
	.st64{fill:#FCB275;}
	.st65{fill:#FFB061;}
	.st66{fill:#D87923;}
	.st67{fill:#CCCCCC;}
	.st68{fill:#EDEDED;}
	.st69{fill:#5B5B5B;}
	.st70{fill:#59362D;}
	.st71{fill:#F4F4F4;}
	.st72{fill:#F93D3D;}
	.st73{fill:#FF5252;}
	.st74{fill:#FF6E6E;}
	.st75{opacity:0.3;fill:url(#SVGID_20_);}
	.st76{fill:url(#SVGID_21_);}
	.st77{fill:url(#SVGID_22_);}
	.st78{fill:#2C3144;}
	.st79{fill:#24126A;}
	.st80{fill:url(#SVGID_23_);}
	.st81{fill:url(#SVGID_24_);}
	.st82{fill:#F0F6FF;}
	.st83{fill:#FCD1C5;}
	.st84{fill:url(#SVGID_25_);}
	.st85{fill:url(#SVGID_26_);}
	.st86{fill:#453C9E;}
	.st87{fill:#AA8383;}
	.st88{fill:#C4CCD6;}
	.st89{fill:#E2B1A6;}
	.st90{fill:#936D6D;}
	.st91{fill:url(#SVGID_27_);}
	.st92{fill:url(#SVGID_28_);}
	.st93{fill:url(#SVGID_29_);}
	.st94{fill:#CA4B7C;}
	.st95{fill:#6E376E;}
	.st96{fill:#160A5B;}
	.st97{fill:url(#SVGID_30_);}
	.st98{fill:#722318;}
	.st99{fill:url(#SVGID_31_);}
	.st100{fill:url(#SVGID_32_);}
	.st101{opacity:0.3;fill:url(#SVGID_33_);}
	.st102{fill:#BBD070;}
	.st103{fill:#97A43C;}
	.st104{fill:#48753A;}
	.st105{fill:url(#SVGID_34_);}
	.st106{fill:url(#SVGID_35_);}
	.st107{fill:url(#SVGID_36_);}
	.st108{fill:url(#SVGID_37_);}
	.st109{fill:url(#SVGID_38_);}
	.st110{fill:url(#SVGID_39_);}
	.st111{fill:url(#SVGID_40_);}
	.st112{fill:url(#SVGID_41_);}
	.st113{fill:#E3F2FF;}
	.st114{fill:url(#SVGID_42_);}
	.st115{fill:url(#SVGID_43_);}
	.st116{opacity:0.58;}
	.st117{fill:#E0F1FF;}
	.st118{fill:url(#SVGID_44_);}
	.st119{fill:url(#SVGID_45_);}
	.st120{fill:url(#SVGID_46_);}
	.st121{fill:#1D3B54;}
	.st122{fill:#EEA886;}
	.st123{fill:#D4D8E8;}
	.st124{fill:#A9ADBA;}
	.st125{fill:#E8734D;}
	.st126{fill:url(#SVGID_47_);}
	.st127{fill:url(#SVGID_48_);}
	.st128{fill:url(#SVGID_49_);}
	.st129{fill:url(#SVGID_50_);}
	.st130{fill:#FE9D82;}
	.st131{fill:url(#SVGID_51_);}
	.st132{fill:url(#SVGID_52_);}
	.st133{fill:url(#SVGID_53_);}
	.st134{fill:url(#SVGID_54_);}
	.st135{fill:url(#SVGID_55_);}
	.st136{fill:#E7E7E7;}
	.st137{fill:url(#SVGID_56_);}
	.st138{fill:url(#SVGID_57_);}
	.st139{fill:url(#SVGID_58_);}
	.st140{fill:url(#SVGID_59_);}
	.st141{fill:url(#SVGID_60_);}
	.st142{fill:url(#SVGID_61_);}
	.st143{fill:url(#SVGID_62_);}
	.st144{fill:url(#_x3C_Path_x3E__1_);}
	.st145{fill:#007CFF;}
	.st146{fill:url(#SVGID_63_);}
	.st147{opacity:0.4;}
	.st148{opacity:0.6;fill:url(#SVGID_64_);}
	.st149{opacity:0.6;fill:url(#SVGID_65_);}
	.st150{opacity:0.6;fill:url(#SVGID_66_);}
	.st151{opacity:0.6;fill:url(#SVGID_67_);}
	.st152{opacity:0.6;fill:url(#SVGID_68_);}
	.st153{opacity:0.6;fill:url(#SVGID_69_);}
	.st154{opacity:0.6;fill:url(#SVGID_70_);}
	.st155{opacity:0.6;fill:url(#SVGID_71_);}
	.st156{opacity:0.6;fill:url(#SVGID_72_);}
	.st157{opacity:0.6;fill:url(#SVGID_73_);}
	.st158{opacity:0.6;fill:url(#SVGID_74_);}
	.st159{opacity:0.6;fill:url(#SVGID_75_);}
	.st160{opacity:0.6;fill:url(#SVGID_76_);}
	.st161{fill:url(#SVGID_77_);}
	.st162{fill:url(#SVGID_78_);}
	.st163{fill:url(#SVGID_79_);}
	.st164{opacity:0.6;fill:url(#SVGID_80_);}
	.st165{opacity:0.5;fill:#FFFFFF;}
	.st166{fill:url(#SVGID_81_);}
	.st167{fill:#1A2E35;}
	.st168{fill:url(#SVGID_82_);}
	.st169{fill:#FFC3BD;}
	.st170{fill:#FF847F;}
	.st171{opacity:0.2;}
	.st172{opacity:0.8;fill:#1A2E35;}
	.st173{fill:url(#SVGID_83_);}
	.st174{opacity:0.3;}
	.st175{fill:url(#SVGID_84_);}
	.st176{fill:url(#SVGID_85_);}
	.st177{fill:none;stroke:url(#SVGID_86_);stroke-miterlimit:10;}
	.st178{fill:none;stroke:url(#SVGID_87_);stroke-miterlimit:10;}
	.st179{fill:none;stroke:url(#SVGID_88_);stroke-miterlimit:10;}
	.st180{fill:none;stroke:url(#SVGID_89_);stroke-miterlimit:10;}
	.st181{fill:none;stroke:url(#SVGID_90_);stroke-miterlimit:10;}
	.st182{fill:url(#SVGID_91_);}
	.st183{fill:url(#SVGID_92_);}
	.st184{fill:url(#SVGID_93_);}
	.st185{fill:url(#SVGID_94_);}
	.st186{fill:url(#SVGID_95_);}
	.st187{fill:url(#SVGID_96_);}
	.st188{fill:url(#SVGID_97_);}
	.st189{fill:url(#SVGID_98_);}
	.st190{fill:url(#SVGID_99_);}
	.st191{fill:url(#SVGID_100_);}
	.st192{fill:url(#SVGID_101_);}
	.st193{opacity:0.3;fill:url(#SVGID_102_);}
	.st194{fill:#DECBC4;}
	.st195{fill:#495055;}
	.st196{fill:#353A3D;}
	.st197{fill:#A77860;}
	.st198{fill:url(#SVGID_103_);}
	.st199{fill:url(#SVGID_104_);}
	.st200{fill:url(#SVGID_105_);}
	.st201{fill:url(#SVGID_106_);}
	.st202{fill:#F5E2D9;}
	.st203{fill:#AD9F99;}
	.st204{fill:#69737A;}
	.st205{fill:#2D3133;}
	.st206{fill:url(#SVGID_107_);}
	.st207{fill:url(#SVGID_108_);}
	.st208{fill:url(#SVGID_109_);}
	.st209{opacity:0.1;}
	.st210{fill:url(#SVGID_110_);}
	.st211{fill:url(#SVGID_111_);}
	.st212{fill:url(#SVGID_112_);}
	.st213{fill:url(#SVGID_113_);}
	.st214{fill:url(#SVGID_114_);}
	.st215{fill:url(#SVGID_115_);}
	.st216{fill:url(#SVGID_116_);}
	.st217{fill:url(#SVGID_117_);}
	.st218{fill:#E9EAF4;}
	.st219{fill:none;stroke:#CCC1E0;stroke-width:0.9846;stroke-miterlimit:10;}
	.st220{fill:#CCC1E0;}
	.st221{opacity:0.3;fill:#C8CAD7;}
	.st222{fill:none;stroke:#CCC1E0;stroke-width:1.1787;stroke-miterlimit:10;}
	.st223{fill:url(#SVGID_118_);}
	.st224{fill:url(#SVGID_119_);}
	.st225{fill:#FFB69B;}
	.st226{opacity:5.000000e-02;}
	.st227{fill:#75524F;}
	.st228{fill:#EBA88F;}
	.st229{fill:#8E6863;}
	.st230{fill:#89605C;}
	.st231{fill:#A27771;}
	.st232{fill:#1E212E;}
	.st233{fill:#FF748E;}
	.st234{fill:url(#SVGID_120_);}
	.st235{fill:#6E6B87;}
	.st236{fill:url(#SVGID_121_);}
	.st237{fill:#F26886;}
	.st238{fill:url(#SVGID_122_);}
	.st239{fill:url(#SVGID_123_);}
</style>
<linearGradient id="SVGID_1_" gradientUnits="userSpaceOnUse" x1="7.4139" y1="250" x2="492.5861" y2="250">
	<stop  offset="0" style="stop-color:#CA4B7C"/>
	<stop  offset="1" style="stop-color:#FE7087"/>
</linearGradient>
<circle class="st0" cx="250" cy="250" r="242.6"/>
<g>
	
		<rect x="131.9" y="88" transform="matrix(0.9976 6.978057e-02 -6.978057e-02 0.9976 18.0546 -16.8357)" class="st78" width="236.2" height="324.1"/>
	<rect x="135.1" y="92.4" class="st58" width="229.8" height="315.2"/>
	<g>
		<path class="st78" d="M171.2,152.7c-1.5-1.6-2.2-3.8-2.2-6.7V126c0-2.9,0.7-5.1,2.2-6.7s3.6-2.4,6.4-2.4c2.8,0,4.9,0.8,6.4,2.4
			c1.5,1.6,2.2,3.8,2.2,6.7v3.9h-5.5v-4.3c0-2.3-1-3.4-2.9-3.4s-2.9,1.1-2.9,3.4v20.7c0,2.3,1,3.4,2.9,3.4s2.9-1.1,2.9-3.4v-5.7h5.5
			v5.2c0,2.9-0.7,5.1-2.2,6.7c-1.5,1.6-3.6,2.4-6.4,2.4C174.8,155.1,172.7,154.3,171.2,152.7z"/>
		<path class="st78" d="M191.7,152.6c-1.5-1.6-2.3-3.9-2.3-6.9v-19.5c0-3,0.8-5.3,2.3-6.9c1.5-1.6,3.7-2.4,6.6-2.4s5,0.8,6.6,2.4
			c1.5,1.6,2.3,3.9,2.3,6.9v19.5c0,3-0.8,5.3-2.3,6.9c-1.5,1.6-3.7,2.4-6.6,2.4S193.2,154.2,191.7,152.6z M201.2,146.1v-20.2
			c0-2.4-1-3.7-3-3.7c-2,0-3,1.2-3,3.7v20.2c0,2.4,1,3.7,3,3.7C200.2,149.8,201.2,148.5,201.2,146.1z"/>
		<path class="st78" d="M211,117.4h7.3l5.7,22.2h0.1v-22.2h5.2v37.1h-6l-7-27.1h-0.1v27.1H211V117.4z"/>
		<path class="st78" d="M238.2,122.7h-6.1v-5.3h18v5.3H244v31.8h-5.8V122.7z"/>
		<path class="st78" d="M252.9,117.4h8.6c3,0,5.2,0.7,6.6,2.1c1.4,1.4,2.1,3.5,2.1,6.4v2.3c0,3.8-1.3,6.3-3.8,7.3v0.1
			c1.4,0.4,2.4,1.3,3,2.6c0.6,1.3,0.9,3.1,0.9,5.2v6.5c0,1.1,0,1.9,0.1,2.6c0.1,0.7,0.2,1.3,0.5,1.9h-5.9c-0.2-0.6-0.4-1.2-0.4-1.7
			c-0.1-0.5-0.1-1.5-0.1-2.9v-6.8c0-1.7-0.3-2.9-0.8-3.5c-0.5-0.7-1.5-1-2.8-1h-2v15.9h-5.8V117.4z M260.8,133.3
			c1.2,0,2-0.3,2.6-0.9c0.6-0.6,0.9-1.6,0.9-3v-2.9c0-1.3-0.2-2.3-0.7-2.9c-0.5-0.6-1.2-0.9-2.3-0.9h-2.6v10.6H260.8z"/>
		<path class="st78" d="M278.7,117.4h7.9l6,37.1h-5.8l-1.1-7.4v0.1h-6.6l-1.1,7.3h-5.4L278.7,117.4z M285.1,142.2l-2.6-18.3h-0.1
			l-2.5,18.3H285.1z"/>
		<path class="st78" d="M297.2,152.7c-1.5-1.6-2.2-3.8-2.2-6.7V126c0-2.9,0.7-5.1,2.2-6.7s3.6-2.4,6.4-2.4c2.8,0,4.9,0.8,6.4,2.4
			c1.5,1.6,2.2,3.8,2.2,6.7v3.9h-5.5v-4.3c0-2.3-1-3.4-2.9-3.4s-2.9,1.1-2.9,3.4v20.7c0,2.3,1,3.4,2.9,3.4s2.9-1.1,2.9-3.4v-5.7h5.5
			v5.2c0,2.9-0.7,5.1-2.2,6.7c-1.5,1.6-3.6,2.4-6.4,2.4C300.8,155.1,298.7,154.3,297.2,152.7z"/>
		<path class="st78" d="M320.2,122.7h-6.1v-5.3h18v5.3H326v31.8h-5.8V122.7z"/>
	</g>
	<linearGradient id="SVGID_2_" gradientUnits="userSpaceOnUse" x1="303.7987" y1="360.1349" x2="328.4215" y2="360.1349">
		<stop  offset="0" style="stop-color:#6E376E"/>
		<stop  offset="1" style="stop-color:#CA4B7C"/>
	</linearGradient>
	<circle style="fill:none;stroke:url(#SVGID_2_);stroke-miterlimit:10;" cx="316.1" cy="360.1" r="11.8"/>
	<linearGradient id="SVGID_3_" gradientUnits="userSpaceOnUse" x1="296.9982" y1="360.1349" x2="335.222" y2="360.1349">
		<stop  offset="0" style="stop-color:#6E376E"/>
		<stop  offset="1" style="stop-color:#CA4B7C"/>
	</linearGradient>
	<circle style="fill:none;stroke:url(#SVGID_3_);stroke-miterlimit:10;" cx="316.1" cy="360.1" r="18.6"/>
	<linearGradient id="SVGID_4_" gradientUnits="userSpaceOnUse" x1="293.419" y1="360.1349" x2="338.8013" y2="360.1349">
		<stop  offset="0" style="stop-color:#6E376E"/>
		<stop  offset="1" style="stop-color:#CA4B7C"/>
	</linearGradient>
	<circle style="fill:none;stroke:url(#SVGID_4_);stroke-miterlimit:10;" cx="316.1" cy="360.1" r="22.2"/>
	<linearGradient id="SVGID_5_" gradientUnits="userSpaceOnUse" x1="170.4362" y1="164.7099" x2="327.9215" y2="164.7099">
		<stop  offset="0" style="stop-color:#6E376E"/>
		<stop  offset="1" style="stop-color:#CA4B7C"/>
	</linearGradient>
	<line style="fill:none;stroke:url(#SVGID_5_);stroke-miterlimit:10;" x1="170.4" y1="164.7" x2="327.9" y2="164.7"/>
	<linearGradient id="SVGID_6_" gradientUnits="userSpaceOnUse" x1="170.4362" y1="328.28" x2="327.9215" y2="328.28">
		<stop  offset="0" style="stop-color:#6E376E"/>
		<stop  offset="1" style="stop-color:#CA4B7C"/>
	</linearGradient>
	<line style="fill:none;stroke:url(#SVGID_6_);stroke-miterlimit:10;" x1="170.4" y1="328.3" x2="327.9" y2="328.3"/>
	<rect x="170.4" y="176.5" class="st78" width="157.5" height="6.1"/>
	<rect x="170.4" y="188.5" class="st78" width="157.5" height="6.1"/>
	<rect x="170.4" y="200.5" class="st78" width="157.5" height="6.1"/>
	<rect x="170.4" y="212.6" class="st78" width="157.5" height="6.1"/>
	<linearGradient id="SVGID_7_" gradientUnits="userSpaceOnUse" x1="194.3353" y1="269.0477" x2="327.9215" y2="269.0477">
		<stop  offset="0" style="stop-color:#6E376E"/>
		<stop  offset="1" style="stop-color:#CA4B7C"/>
	</linearGradient>
	<rect x="194.3" y="266" class="st16" width="133.6" height="6.1"/>
	<linearGradient id="SVGID_8_" gradientUnits="userSpaceOnUse" x1="194.3353" y1="290.2069" x2="327.9215" y2="290.2069">
		<stop  offset="0" style="stop-color:#6E376E"/>
		<stop  offset="1" style="stop-color:#CA4B7C"/>
	</linearGradient>
	<rect x="194.3" y="287.2" class="st17" width="133.6" height="6.1"/>
	<linearGradient id="SVGID_9_" gradientUnits="userSpaceOnUse" x1="194.3353" y1="311.366" x2="327.9215" y2="311.366">
		<stop  offset="0" style="stop-color:#6E376E"/>
		<stop  offset="1" style="stop-color:#CA4B7C"/>
	</linearGradient>
	<rect x="194.3" y="308.3" class="st18" width="133.6" height="6.1"/>
	<rect x="170.4" y="224.6" class="st78" width="115.9" height="6.1"/>
	<rect x="170.4" y="236.6" class="st78" width="157.5" height="6.1"/>
	<rect x="170.4" y="248.6" class="st78" width="157.5" height="6.1"/>
	<linearGradient id="SVGID_10_" gradientUnits="userSpaceOnUse" x1="170.4362" y1="375.9367" x2="233.566" y2="375.9367">
		<stop  offset="0" style="stop-color:#6E376E"/>
		<stop  offset="1" style="stop-color:#CA4B7C"/>
	</linearGradient>
	<rect x="170.4" y="372.9" class="st19" width="63.1" height="6.1"/>
	<linearGradient id="SVGID_11_" gradientUnits="userSpaceOnUse" x1="170.4362" y1="366.7493" x2="215.7636" y2="366.7493">
		<stop  offset="0" style="stop-color:#6E376E"/>
		<stop  offset="1" style="stop-color:#CA4B7C"/>
	</linearGradient>
	<rect x="170.4" y="363.7" class="st20" width="45.3" height="6.1"/>
	<g>
		<linearGradient id="SVGID_12_" gradientUnits="userSpaceOnUse" x1="171.7944" y1="269.4225" x2="187.3001" y2="269.4225">
			<stop  offset="0" style="stop-color:#FE7087"/>
			<stop  offset="1" style="stop-color:#FE9D82"/>
		</linearGradient>
		<polygon class="st23" points="187.3,277.2 187.3,261.7 171.8,277.2 		"/>
		<linearGradient id="SVGID_13_" gradientUnits="userSpaceOnUse" x1="171.7944" y1="269.4225" x2="187.3001" y2="269.4225">
			<stop  offset="0" style="stop-color:#FE7087"/>
			<stop  offset="1" style="stop-color:#FE9D82"/>
		</linearGradient>
		<polygon class="st24" points="171.8,277.2 187.3,261.7 171.8,261.7 		"/>
		<path class="st78" d="M176.8,277.9c0.5,0.5,1.1,0.7,1.7,0.7h0c0.6,0,1.2-0.2,1.7-0.7l10.6-10.6c0.9-0.9,0.9-2.4,0-3.3
			c-0.9-0.9-2.4-0.9-3.3,0l-8.9,8.9l0,0l-4-4c-0.9-0.9-2.4-0.9-3.3,0c-0.9,0.9-0.9,2.4,0,3.3L176.8,277.9z"/>
		<linearGradient id="SVGID_14_" gradientUnits="userSpaceOnUse" x1="171.7944" y1="290.2069" x2="187.3001" y2="290.2069">
			<stop  offset="0" style="stop-color:#FE7087"/>
			<stop  offset="1" style="stop-color:#FE9D82"/>
		</linearGradient>
		<polygon class="st25" points="187.3,298 187.3,282.5 171.8,298 		"/>
		<linearGradient id="SVGID_15_" gradientUnits="userSpaceOnUse" x1="171.7944" y1="290.2069" x2="187.3001" y2="290.2069">
			<stop  offset="0" style="stop-color:#FE7087"/>
			<stop  offset="1" style="stop-color:#FE9D82"/>
		</linearGradient>
		<polygon class="st26" points="171.8,298 187.3,282.5 171.8,282.5 		"/>
		<path class="st78" d="M176.8,298.6c0.5,0.5,1.1,0.7,1.7,0.7h0c0.6,0,1.2-0.2,1.7-0.7l10.6-10.6c0.9-0.9,0.9-2.4,0-3.3
			c-0.9-0.9-2.4-0.9-3.3,0l-8.9,8.9h0l-4-4c-0.9-0.9-2.4-0.9-3.3,0c-0.9,0.9-0.9,2.4,0,3.3L176.8,298.6z"/>
		<linearGradient id="SVGID_16_" gradientUnits="userSpaceOnUse" x1="171.7944" y1="310.9912" x2="187.3001" y2="310.9912">
			<stop  offset="0" style="stop-color:#FE7087"/>
			<stop  offset="1" style="stop-color:#FE9D82"/>
		</linearGradient>
		<polygon class="st27" points="187.3,318.7 187.3,303.2 171.8,318.7 		"/>
		<linearGradient id="SVGID_17_" gradientUnits="userSpaceOnUse" x1="171.7944" y1="310.9912" x2="187.3001" y2="310.9912">
			<stop  offset="0" style="stop-color:#FE7087"/>
			<stop  offset="1" style="stop-color:#FE9D82"/>
		</linearGradient>
		<polygon class="st28" points="171.8,318.7 187.3,303.2 171.8,303.2 		"/>
		<path class="st78" d="M176.8,319.4c0.5,0.5,1.1,0.7,1.7,0.7h0c0.6,0,1.2-0.2,1.7-0.7l10.6-10.6c0.9-0.9,0.9-2.4,0-3.3
			c-0.9-0.9-2.4-0.9-3.3,0l-8.9,8.9h0l-4-4c-0.9-0.9-2.4-0.9-3.3,0c-0.9,0.9-0.9,2.4,0,3.3L176.8,319.4z"/>
	</g>
</g>
</svg>
