<svg id="Layer_1" data-name="Layer 1" xmlns="http://www.w3.org/2000/svg" xmlns:xlink="http://www.w3.org/1999/xlink" viewBox="0 0 500 500"><defs><style>.cls-1{opacity:0.3;fill:url(#Degradado_sin_nombre_11);}.cls-2{fill:#bbd070;}.cls-3{fill:#97a43c;}.cls-4{fill:#48753a;}.cls-5{fill:url(#Degradado_sin_nombre_8);}.cls-6{fill:url(#Degradado_sin_nombre_13);}.cls-7{fill:#fff;}.cls-8{fill:url(#Degradado_sin_nombre_11-2);}.cls-9{fill:#2c3144;}.cls-10{fill:#6e376e;}.cls-11{fill:#ca4b7c;}.cls-12{fill:url(#Degradado_sin_nombre_11-3);}.cls-13{fill:url(#Degradado_sin_nombre_8-2);}.cls-14{fill:url(#Degradado_sin_nombre_11-4);}.cls-15{fill:url(#Degradado_sin_nombre_13-2);}.cls-16{fill:url(#Degradado_sin_nombre_11-5);}.cls-17{fill:#e3f2ff;}.cls-18{fill:url(#Degradado_sin_nombre_13-3);}.cls-19{fill:url(#Degradado_sin_nombre_13-4);}.cls-20{opacity:0.58;}.cls-21{fill:#e0f1ff;}.cls-22{fill:url(#Degradado_sin_nombre_13-5);}.cls-23{fill:url(#Degradado_sin_nombre_13-6);}.cls-24{fill:url(#Degradado_sin_nombre_8-3);}.cls-25{fill:#1d3b54;}.cls-26{fill:#eea886;}.cls-27{fill:#d4d8e8;}.cls-28{fill:#a9adba;}.cls-29{fill:#e8734d;}.cls-30{fill:url(#Degradado_sin_nombre_8-4);}.cls-31{fill:url(#Degradado_sin_nombre_11-6);}.cls-32{fill:url(#Degradado_sin_nombre_13-7);}.cls-33{fill:url(#Degradado_sin_nombre_8-5);}.cls-34{fill:#fe9d82;}.cls-35{fill:url(#Degradado_sin_nombre_13-8);}.cls-36{fill:url(#Degradado_sin_nombre_13-9);}.cls-37{fill:url(#Degradado_sin_nombre_11-7);}.cls-38{fill:url(#Degradado_sin_nombre_11-8);}.cls-39{fill:url(#Degradado_sin_nombre_13-10);}</style><linearGradient id="Degradado_sin_nombre_11" x1="7.41" y1="250" x2="492.59" y2="250" gradientUnits="userSpaceOnUse"><stop offset="0" stop-color="#ca4b7c"/><stop offset="1" stop-color="#fe7087"/></linearGradient><linearGradient id="Degradado_sin_nombre_8" x1="103.26" y1="251.04" x2="363.57" y2="251.04" gradientUnits="userSpaceOnUse"><stop offset="0" stop-color="#6e376e"/><stop offset="1" stop-color="#ca4b7c"/></linearGradient><linearGradient id="Degradado_sin_nombre_13" x1="286.75" y1="129.2" x2="398.32" y2="129.2" gradientUnits="userSpaceOnUse"><stop offset="0" stop-color="#fe7087"/><stop offset="1" stop-color="#fe9d82"/></linearGradient><linearGradient id="Degradado_sin_nombre_11-2" x1="89.47" y1="201.42" x2="200.59" y2="201.42" xlink:href="#Degradado_sin_nombre_11"/><linearGradient id="Degradado_sin_nombre_11-3" x1="90.05" y1="291.85" x2="146.36" y2="291.85" xlink:href="#Degradado_sin_nombre_11"/><linearGradient id="Degradado_sin_nombre_8-2" x1="133.57" y1="294.96" x2="146.36" y2="294.96" xlink:href="#Degradado_sin_nombre_8"/><linearGradient id="Degradado_sin_nombre_11-4" x1="125.93" y1="273.85" x2="143.14" y2="273.85" xlink:href="#Degradado_sin_nombre_11"/><linearGradient id="Degradado_sin_nombre_13-2" x1="119.91" y1="267.99" x2="128.51" y2="267.99" xlink:href="#Degradado_sin_nombre_13"/><linearGradient id="Degradado_sin_nombre_11-5" x1="220.5" y1="230.83" x2="342.53" y2="230.83" xlink:href="#Degradado_sin_nombre_11"/><linearGradient id="Degradado_sin_nombre_13-3" x1="236.18" y1="179.92" x2="326.85" y2="179.92" xlink:href="#Degradado_sin_nombre_13"/><linearGradient id="Degradado_sin_nombre_13-4" x1="236.18" y1="255.14" x2="326.85" y2="255.14" xlink:href="#Degradado_sin_nombre_13"/><linearGradient id="Degradado_sin_nombre_13-5" x1="156.67" y1="275.12" x2="195.15" y2="275.12" xlink:href="#Degradado_sin_nombre_13"/><linearGradient id="Degradado_sin_nombre_13-6" x1="156.67" y1="291.85" x2="195.15" y2="291.85" xlink:href="#Degradado_sin_nombre_13"/><linearGradient id="Degradado_sin_nombre_8-3" x1="156.67" y1="308.57" x2="195.15" y2="308.57" xlink:href="#Degradado_sin_nombre_8"/><linearGradient id="Degradado_sin_nombre_8-4" x1="281.48" y1="371.58" x2="373.65" y2="371.58" xlink:href="#Degradado_sin_nombre_8"/><linearGradient id="Degradado_sin_nombre_11-6" x1="302.19" y1="363.41" x2="320.5" y2="363.41" xlink:href="#Degradado_sin_nombre_11"/><linearGradient id="Degradado_sin_nombre_13-7" x1="317.24" y1="355.99" x2="323.95" y2="355.99" xlink:href="#Degradado_sin_nombre_13"/><linearGradient id="Degradado_sin_nombre_8-5" x1="319.08" y1="348.24" x2="323.92" y2="348.24" xlink:href="#Degradado_sin_nombre_8"/><linearGradient id="Degradado_sin_nombre_13-8" x1="267.06" y1="430.12" x2="277.13" y2="430.12" xlink:href="#Degradado_sin_nombre_13"/><linearGradient id="Degradado_sin_nombre_13-9" x1="203.65" y1="424.03" x2="214.52" y2="424.03" xlink:href="#Degradado_sin_nombre_13"/><linearGradient id="Degradado_sin_nombre_11-7" x1="245.4" y1="382.68" x2="297.74" y2="382.68" xlink:href="#Degradado_sin_nombre_11"/><linearGradient id="Degradado_sin_nombre_11-8" x1="204.69" y1="379.96" x2="264.93" y2="379.96" xlink:href="#Degradado_sin_nombre_11"/><linearGradient id="Degradado_sin_nombre_13-10" x1="251.62" y1="359.24" x2="259.5" y2="359.24" xlink:href="#Degradado_sin_nombre_13"/></defs><title>Kategori konsultasi</title><circle class="cls-1" cx="250" cy="250" r="242.59"/><path class="cls-2" d="M324.36,118s10.24,15.53,1.6,23.78-9.65-1-9.65-1-4.62.3,4.57-10.21C325.21,125.7,324.36,118,324.36,118Z"/><path class="cls-3" d="M351.77,110.12s7.3,14.1-9.88,27.32-17.1,22.32-17.1,22.32S312.69,127.07,351.77,110.12Z"/><path class="cls-4" d="M322.58,153.75c-6.53-.18,3-16.77,13.68-20.13s19.13-2,25.6-6.09C361.86,127.53,354.74,154.64,322.58,153.75Z"/><path class="cls-5" d="M344.82,349.07H122c-10.34,0-18.75-8.79-18.75-19.59V172.61c0-10.81,8.41-19.6,18.75-19.6H344.82c10.34,0,18.75,8.79,18.75,19.6V329.48C363.57,340.28,355.16,349.07,344.82,349.07ZM122,154.66c-9.43,0-17.11,8.05-17.11,18V329.48c0,9.89,7.68,17.94,17.11,17.94H344.82c9.43,0,17.1-8.05,17.1-17.94V172.61c0-9.9-7.67-18-17.1-18Z"/><path class="cls-6" d="M389.11,117.13A48,48,0,0,0,384,104.8L389.2,97,382,89.75l-7.22-7.22-7.83,5.2a48,48,0,0,0-12.33-5.11l-1.85-9.21H332.32l-1.85,9.21a47.69,47.69,0,0,0-12.33,5.11l-7.83-5.2-7.22,7.22L295.87,97l5.2,7.83A48,48,0,0,0,296,117.13L286.75,119v20.43l9.21,1.85a47.69,47.69,0,0,0,5.11,12.33l-5.2,7.83,7.22,7.22,7.22,7.22,7.83-5.2a47.69,47.69,0,0,0,12.33,5.11l1.85,9.21h20.43l1.85-9.21a48,48,0,0,0,12.33-5.11l7.83,5.2,7.22-7.22,7.22-7.22-5.2-7.83a47.69,47.69,0,0,0,5.11-12.33l9.21-1.85V119ZM342.53,165a35.79,35.79,0,1,1,35.79-35.78A35.78,35.78,0,0,1,342.53,165Z"/><rect class="cls-7" x="71.75" y="133.62" width="270.78" height="194.41" rx="18.77" ry="18.77"/><path class="cls-8" d="M197.33,182.71a55.54,55.54,0,1,0-104.6,37.41c.42,1.18.88,2.34,1.37,3.47a55,55,0,0,0,8.61,13.82,55.55,55.55,0,0,0,94.62-54.7Zm-38.27,57.92A41.58,41.58,0,0,1,106.85,218c-.37-.85-.71-1.72-1-2.6a41.65,41.65,0,1,1,53.24,25.19Z"/><path class="cls-9" d="M105.28,189,92,184.86a55.66,55.66,0,0,1,51.36-39l.42,13.9A41.73,41.73,0,0,0,105.28,189Z"/><path class="cls-10" d="M106.85,218,94.1,223.59c-.49-1.13-.95-2.29-1.37-3.47A55.24,55.24,0,0,1,92,184.86L105.28,189a41.45,41.45,0,0,0,.54,26.43C106.14,216.32,106.48,217.19,106.85,218Z"/><path class="cls-11" d="M102.71,237.41a55,55,0,0,1-8.61-13.82L106.85,218a41.3,41.3,0,0,0,6.45,10.37Z"/><path class="cls-12" d="M106.17,317.29a28.15,28.15,0,0,0,24.08-50.89q-.87-.4-1.74-.75a28.15,28.15,0,0,0-22.34,51.64Zm-7-34.47a21,21,0,0,1,26.8-10.61c.44.17.87.36,1.3.56a21.1,21.1,0,1,1-28.1,10.05Z"/><path class="cls-13" d="M136.9,282.05l6.24-3.27a28.17,28.17,0,0,1-4.44,32.37l-5.13-4.83a21.14,21.14,0,0,0,3.33-24.27Z"/><path class="cls-14" d="M125.93,272.21l2.58-6.56q.87.35,1.74.75a28,28,0,0,1,12.89,12.38l-6.24,3.27a20.94,20.94,0,0,0-9.67-9.28C126.8,272.57,126.37,272.38,125.93,272.21Z"/><path class="cls-15" d="M120.47,263.78a28,28,0,0,1,8,1.87l-2.58,6.56a21.16,21.16,0,0,0-6-1.41Z"/><path class="cls-16" d="M342.53,152.39V309.26A18.77,18.77,0,0,1,323.76,328H220.5V133.62H323.76A18.77,18.77,0,0,1,342.53,152.39Z"/><rect class="cls-17" x="236.18" y="153.79" width="90.67" height="9.88" rx="1.63" ry="1.63"/><rect class="cls-18" x="236.18" y="174.98" width="90.67" height="9.88" rx="1.63" ry="1.63"/><rect class="cls-19" x="236.18" y="199.29" width="90.67" height="111.71" rx="5.47" ry="5.47"/><g class="cls-20"><rect class="cls-21" x="230.28" y="194.53" width="32.2" height="82.79" rx="6.51" ry="6.51"/></g><rect class="cls-22" x="156.67" y="269.99" width="38.48" height="10.26" rx="1.7" ry="1.7"/><rect class="cls-23" x="156.67" y="286.72" width="38.48" height="10.26" rx="1.7" ry="1.7"/><rect class="cls-24" x="156.67" y="303.44" width="38.48" height="10.26" rx="1.7" ry="1.7"/><path class="cls-25" d="M217.52,431.42s4.22,5.68,3.64,6.58-5,1-7.71,0-2.76-7.68-4-10.54c-.52-1.2.58-4.73,2.12-5a6.48,6.48,0,0,1,3.21.49S213.2,427,217.52,431.42Z"/><polygon class="cls-25" points="209.35 426.96 209.35 432.9 210.12 432.9 210.12 428.31 209.35 426.96"/><path class="cls-26" d="M324.05,330.22a2.71,2.71,0,0,0,1.41-.64c.89-.91,1-2.83,2.77-3s3.45,5.32,3.16,6.44-2.67,2-6.42,1.83S324.05,330.22,324.05,330.22Z"/><path class="cls-27" d="M287.72,292.76l2.31-.92s5.85,1.35,9.22,6l-.29,1.4S290.05,297.34,287.72,292.76Z"/><path class="cls-28" d="M296.64,326.86a9.6,9.6,0,0,1-1.09,1.34l-.6.49h0l-.22-8.79s1.1,3.39,1.27,3.89S296.64,326.86,296.64,326.86Z"/><path class="cls-26" d="M309.39,286.18c.21-.66-.29-3.21-1.91-1.76s-1.62,4.69-.7,5S308.87,287.87,309.39,286.18Z"/><path class="cls-29" d="M303.32,271.9s-7.86-5.59-7.9,13.47Z"/><path class="cls-26" d="M307.17,270.12s9.06,1.61,9.14,9.29-6.94,18.78-11.5,18-9.75-4.88-9.57-9.54,1.47-10.8,3.57-14.17S304.64,270,307.17,270.12Z"/><path class="cls-29" d="M295.55,284.27s0,1.57,3.14,2.81,8.84-.5,10.27-.21,1.87-.4,1.87-.4l.1,1.53,1.21.82s.86-4.07,3.42-4.43,4.69-12.05-6.35-14.26c0,0-8.17-2.22-10.27,1.92S295.16,281.35,295.55,284.27Z"/><rect class="cls-30" x="281.48" y="325.49" width="92.17" height="92.17" rx="8.05" ry="8.05"/><rect class="cls-17" x="330.81" y="339.04" width="35.8" height="9.92" rx="1.65" ry="1.65"/><rect class="cls-17" x="330.81" y="353.99" width="35.8" height="52.55" rx="3.79" ry="3.79"/><path class="cls-17" d="M302.19,367a16.64,16.64,0,0,0,5.07.87,16.45,16.45,0,0,0,16.68-16.26c0-.37,0-.74,0-1.1A16.47,16.47,0,1,0,302.19,367Zm-7.06-15.76a12.35,12.35,0,0,1,23.95-4.06h0a12.52,12.52,0,0,1,.72,3.54c0,.27,0,.55,0,.83a12.34,12.34,0,0,1-12.5,12.19,12.63,12.63,0,0,1-3.81-.65A12.36,12.36,0,0,1,295.13,351.23Z"/><path class="cls-31" d="M317.24,359l3.26,2.53a16.45,16.45,0,0,1-13.24,6.38,16.7,16.7,0,0,1-5.07-.87l1.32-3.9a12.63,12.63,0,0,0,3.81.65A12.33,12.33,0,0,0,317.24,359Z"/><path class="cls-32" d="M319.81,350.72l4.11-.22c0,.36,0,.73,0,1.1a16.38,16.38,0,0,1-3.44,9.88L317.24,359a12.24,12.24,0,0,0,2.58-7.4C319.83,351.27,319.82,351,319.81,350.72Z"/><path class="cls-33" d="M319.81,350.72a12.52,12.52,0,0,0-.72-3.54h0l3.88-1.41a16.51,16.51,0,0,1,1,4.74Z"/><path class="cls-34" d="M297.57,338.23A16.48,16.48,0,0,1,323,345.76l-3.87,1.42h0a12.35,12.35,0,0,0-19.1-5.6Z"/><path class="cls-26" d="M327.63,326.75a56.7,56.7,0,0,1,5.27-2.33c2.5-.95,5.59-1.62,5.93-1.19.74,1-2.17,1.63-4.6,2.73a19.48,19.48,0,0,0-1.85.85s-.16-.06,2.46-.7c2.82-.7,5.77-1.14,6.15-.61.18.26.51,1.16-.67,1.12.61-.12.52-.22.58,0,.31,1.27-3.71,2.92-5.3,3.58,1.22-.5,2.17-.74,1.84.2s-6.15,3.15-8.16,4.09C327.09,335.54,327.63,326.75,327.63,326.75Z"/><path class="cls-27" d="M284.72,292.71a68.52,68.52,0,0,0-9.65,0c-4,.41-9.52,3.67-12.86,4.62s-11.4,6.36-11.18,7.1a60,60,0,0,0,9.11,16.72C265.08,327.28,284.72,292.71,284.72,292.71Z"/><path class="cls-28" d="M272.51,296.26s-6.1,4.52-8.23,8.66a33.7,33.7,0,0,0-2.85,9.07Z"/><path class="cls-9" d="M277.13,430.81a14.89,14.89,0,0,0,2.76,2.34c1,.49,13,2.56,13.86,3.54s.82,4.85-2.29,4.85-13.45-.06-15.2,0-9.1,1.52-9.86,0-.69-8.65.66-10.35S277.13,430.81,277.13,430.81Z"/><path class="cls-35" d="M276.76,428.64l.37,2.17s-3.21,1.47-10.07.38V429Z"/><path class="cls-9" d="M203.65,424.82a11.7,11.7,0,0,0-2,3.59c-.43,1.3-2.45,7.36-1.58,8.83s7.73,1.68,11.16,1.14,10.9.6,11.66-.87,1.2-3.62-1-4.45-7.36-3-8.28-5.3S203.65,424.82,203.65,424.82Z"/><path class="cls-36" d="M214.52,425.31l-1,2.45s-9.84-.74-9.92-2.94l3.11-4.53Z"/><path class="cls-26" d="M295.25,288.53s-5.48,4.66-7,4.28,5.38,9.84,5.38,9.84,6.6-6.5,8.09-6.69S295.25,288.53,295.25,288.53Z"/><path class="cls-27" d="M295.62,306.91c-1.86,1.13-2.18,1.49-2,6.83s2.44,9.64,2.6,11.12,3.13,16.06,3.94,16.87,10.59-1.08,12.56-1.7c3-.91,15.47-5.15,15.47-5.15l-2.75-5.74s-15.8,3.52-16.31,2.29-1.74-11.61-2.18-13.86.33-5.79-2.36-11.13C302.22,301.66,295.62,306.91,295.62,306.91Z"/><path class="cls-37" d="M277.1,347.08s3.35,3.56,4.29,4.72c6.41,7.93,15.14,22.48,16.23,25s-5.4,20.52-8.06,26.8c-1.4,3.3-10.64,26-10.35,26.5s-9.78.84-14.28-1.48c0,0,6.47-19.19,7.83-22.95,2.06-5.68,9.21-21.41,9.42-22.93s-11.54-14.11-15.46-16.5-13.51-10.9-14.6-12-7.27-4-6.69-9.51,4.69-9.88,4.69-9.88Z"/><path class="cls-38" d="M259.5,360.74,258,364.61c-1.85,4.85-4.84,12.68-5.33,13.92-.73,1.82-4.36,9.66-6.1,11.19S216.16,425.67,216.09,426s-10.75-5.23-11.4-7.34c0,0,15.54-20.26,17.94-23.24s7.41-7.41,9.08-14.45,13.65-34.14,13.69-35.16c0,0,1.92-8.35,4.72-10.89s13,.44,14.56,5.74S259.5,360.74,259.5,360.74Z"/><path class="cls-39" d="M259.5,360.74,258,364.61c-2-2.25-6.41-10.74-6.41-10.74.29.21,1.22,1.08,1.44,1.28Z"/><path class="cls-27" d="M296.64,326.86a9.6,9.6,0,0,1-1.09,1.34l-.6.49h0a93.81,93.81,0,0,1-9.49,6.47c-2.55,1.38-7.37,13-7.37,13s-22.74-1.54-28-13.3a103.44,103.44,0,0,1,7.08-13.18c3.38-4.91,10.79-22.56,14.71-25.06s7.3-4.14,15-3.92a16.18,16.18,0,0,1,12,6.35s5.89,6.32,6.47,9.66C305.93,311.61,299.54,322.82,296.64,326.86Z"/></svg>