<svg id="Layer_1" data-name="Layer 1" xmlns="http://www.w3.org/2000/svg" xmlns:xlink="http://www.w3.org/1999/xlink" viewBox="0 0 500 500"><defs><style>.cls-1{opacity:0.3;fill:url(#Degradado_sin_nombre_11);}.cls-2,.cls-4{fill:#2c3144;}.cls-3{fill:#fff;}.cls-4{font-size:52.97px;font-family:BebasNeue-Regular, Bebas Neue;}.cls-5{letter-spacing:0em;}.cls-6{letter-spacing:0em;}.cls-10,.cls-11,.cls-7,.cls-8,.cls-9{fill:none;stroke-miterlimit:10;}.cls-7{stroke:url(#Degradado_sin_nombre_8);}.cls-8{stroke:url(#Degradado_sin_nombre_8-2);}.cls-9{stroke:url(#Degradado_sin_nombre_8-3);}.cls-10{stroke:url(#Degradado_sin_nombre_8-4);}.cls-11{stroke:url(#Degradado_sin_nombre_8-5);}.cls-12{fill:url(#Degradado_sin_nombre_8-6);}.cls-13{fill:url(#Degradado_sin_nombre_8-7);}.cls-14{fill:url(#Degradado_sin_nombre_8-8);}.cls-15{fill:url(#Degradado_sin_nombre_8-9);}.cls-16{fill:url(#Degradado_sin_nombre_8-10);}.cls-17{fill:url(#Degradado_sin_nombre_13);}.cls-18{fill:url(#Degradado_sin_nombre_13-3);}.cls-19{fill:url(#Degradado_sin_nombre_13-5);}</style><linearGradient id="Degradado_sin_nombre_11" x1="7.41" y1="250" x2="492.59" y2="250" gradientUnits="userSpaceOnUse"><stop offset="0" stop-color="#ca4b7c"/><stop offset="1" stop-color="#fe7087"/></linearGradient><linearGradient id="Degradado_sin_nombre_8" x1="303.8" y1="360.13" x2="328.42" y2="360.13" gradientUnits="userSpaceOnUse"><stop offset="0" stop-color="#6e376e"/><stop offset="1" stop-color="#ca4b7c"/></linearGradient><linearGradient id="Degradado_sin_nombre_8-2" x1="297" y1="360.13" x2="335.22" y2="360.13" xlink:href="#Degradado_sin_nombre_8"/><linearGradient id="Degradado_sin_nombre_8-3" x1="293.42" y1="360.13" x2="338.8" y2="360.13" xlink:href="#Degradado_sin_nombre_8"/><linearGradient id="Degradado_sin_nombre_8-4" x1="170.44" y1="164.71" x2="327.92" y2="164.71" xlink:href="#Degradado_sin_nombre_8"/><linearGradient id="Degradado_sin_nombre_8-5" x1="170.44" y1="328.28" x2="327.92" y2="328.28" xlink:href="#Degradado_sin_nombre_8"/><linearGradient id="Degradado_sin_nombre_8-6" x1="194.34" y1="269.05" x2="327.92" y2="269.05" xlink:href="#Degradado_sin_nombre_8"/><linearGradient id="Degradado_sin_nombre_8-7" x1="194.34" y1="290.21" x2="327.92" y2="290.21" xlink:href="#Degradado_sin_nombre_8"/><linearGradient id="Degradado_sin_nombre_8-8" x1="194.34" y1="311.37" x2="327.92" y2="311.37" xlink:href="#Degradado_sin_nombre_8"/><linearGradient id="Degradado_sin_nombre_8-9" x1="170.44" y1="375.94" x2="233.57" y2="375.94" xlink:href="#Degradado_sin_nombre_8"/><linearGradient id="Degradado_sin_nombre_8-10" x1="170.44" y1="366.75" x2="215.76" y2="366.75" xlink:href="#Degradado_sin_nombre_8"/><linearGradient id="Degradado_sin_nombre_13" x1="171.79" y1="269.42" x2="187.3" y2="269.42" gradientUnits="userSpaceOnUse"><stop offset="0" stop-color="#fe7087"/><stop offset="1" stop-color="#fe9d82"/></linearGradient><linearGradient id="Degradado_sin_nombre_13-3" x1="171.79" y1="290.21" x2="187.3" y2="290.21" xlink:href="#Degradado_sin_nombre_13"/><linearGradient id="Degradado_sin_nombre_13-5" x1="171.79" y1="310.99" x2="187.3" y2="310.99" xlink:href="#Degradado_sin_nombre_13"/></defs><title>Kategori konsultasi</title><circle class="cls-1" cx="250" cy="250" r="242.59"/><rect class="cls-2" x="131.88" y="87.97" width="236.23" height="324.06" transform="translate(18.05 -16.84) rotate(4)"/><rect class="cls-3" x="135.11" y="92.4" width="229.77" height="315.2"/><text class="cls-4" transform="translate(167.23 154.52)"><tspan class="cls-5">C</tspan><tspan x="20.39" y="0">ONTR</tspan><tspan class="cls-6" x="104.83" y="0">A</tspan><tspan x="125.97" y="0">CT</tspan></text><circle class="cls-7" cx="316.11" cy="360.13" r="11.81"/><circle class="cls-8" cx="316.11" cy="360.13" r="18.61"/><circle class="cls-9" cx="316.11" cy="360.13" r="22.19"/><line class="cls-10" x1="170.44" y1="164.71" x2="327.92" y2="164.71"/><line class="cls-11" x1="170.44" y1="328.28" x2="327.92" y2="328.28"/><rect class="cls-2" x="170.44" y="176.52" width="157.49" height="6.07"/><rect class="cls-2" x="170.44" y="188.53" width="157.49" height="6.07"/><rect class="cls-2" x="170.44" y="200.54" width="157.49" height="6.07"/><rect class="cls-2" x="170.44" y="212.55" width="157.49" height="6.07"/><rect class="cls-12" x="194.34" y="266.01" width="133.59" height="6.07"/><rect class="cls-13" x="194.34" y="287.17" width="133.59" height="6.07"/><rect class="cls-14" x="194.34" y="308.33" width="133.59" height="6.07"/><rect class="cls-2" x="170.44" y="224.57" width="115.95" height="6.07"/><rect class="cls-2" x="170.44" y="236.58" width="157.49" height="6.07"/><rect class="cls-2" x="170.44" y="248.59" width="157.49" height="6.07"/><rect class="cls-15" x="170.44" y="372.9" width="63.13" height="6.07"/><rect class="cls-16" x="170.44" y="363.71" width="45.33" height="6.07"/><polygon class="cls-17" points="187.3 277.18 187.3 261.67 171.79 277.18 187.3 277.18"/><polygon class="cls-17" points="171.79 277.18 187.3 261.67 171.79 261.67 171.79 277.18"/><path class="cls-2" d="M176.76,277.86a2.37,2.37,0,0,0,1.66.68h0a2.37,2.37,0,0,0,1.66-.68l10.55-10.56a2.34,2.34,0,1,0-3.32-3.31l-8.89,8.89h0l-4-4a2.35,2.35,0,0,0-3.32,3.32Z"/><polygon class="cls-18" points="187.3 297.96 187.3 282.45 171.79 297.96 187.3 297.96"/><polygon class="cls-18" points="171.79 297.96 187.3 282.45 171.79 282.45 171.79 297.96"/><path class="cls-2" d="M176.76,298.64a2.34,2.34,0,0,0,1.66.69h0a2.34,2.34,0,0,0,1.66-.69l10.55-10.55a2.35,2.35,0,1,0-3.32-3.32l-8.89,8.9h0l-4-4a2.35,2.35,0,0,0-3.32,3.32Z"/><polygon class="cls-19" points="187.3 318.74 187.3 303.24 171.79 318.74 187.3 318.74"/><polygon class="cls-19" points="171.79 318.74 187.3 303.24 171.79 303.24 171.79 318.74"/><path class="cls-2" d="M176.76,319.43a2.37,2.37,0,0,0,1.66.68h0a2.37,2.37,0,0,0,1.66-.68l10.55-10.56a2.35,2.35,0,0,0-3.32-3.32l-8.89,8.9h0l-4-4a2.35,2.35,0,1,0-3.32,3.32Z"/></svg>