<?xml version="1.0" encoding="utf-8"?>
<!-- Generator: Adobe Illustrator 22.1.0, SVG Export Plug-In . SVG Version: 6.00 Build 0)  -->
<svg version="1.1" id="Layer_1" xmlns="http://www.w3.org/2000/svg" xmlns:xlink="http://www.w3.org/1999/xlink" x="0px" y="0px"
	 viewBox="0 0 841.9 595.3" style="enable-background:new 0 0 841.9 595.3;" xml:space="preserve">
<style type="text/css">
	.st0{fill:#FFFFFF;stroke:#FFD071;stroke-width:10;stroke-miterlimit:10;}
	.st1{fill:#F17171;}
	.st2{fill:#EE4D4D;}
	.st3{fill:#D64545;}
	.st4{fill:#71D0FF;}
	.st5{fill:#4DC4FF;}
	.st6{fill:#45B0E5;}
	.st7{fill:#FFA071;}
	.st8{fill:#FF884D;}
	.st9{fill:#E57A45;}
	.st10{fill:#7EA9FF;}
	.st11{fill:#5E94FF;}
	.st12{fill:#5485E5;}
	.st13{fill:#FFD071;}
	.st14{fill:#FFC44D;}
	.st15{fill:#E5B045;}
	.st16{fill:#B38DFF;}
	.st17{fill:#A071FF;}
	.st18{fill:#9065E5;}
	.st19{fill:#A2D471;}
	.st20{fill:#8BC94D;}
	.st21{fill:#7DB545;}
	.st22{fill:#FF71B7;}
	.st23{fill:#FF4DA5;}
	.st24{fill:#E54594;}
	.st25{fill:#71E2D0;}
	.st26{fill:#4DDBC4;}
	.st27{fill:#45C5B0;}
	.st28{fill:#A2ADB8;}
	.st29{fill:#8B98A6;}
	.st30{fill:#7D8995;}
	.st31{fill:#FFFFFF;stroke:#A2D471;stroke-width:10;stroke-miterlimit:10;}
	.st32{fill:#FFFFFF;stroke:#FFA071;stroke-width:10;stroke-miterlimit:10;}
	.st33{fill:#FFFFFF;stroke:#71D0FF;stroke-width:10;stroke-miterlimit:10;}
	.st34{fill:#C2A49D;}
	.st35{fill:#CDAD8A;}
	.st36{fill:#A48465;}
	.st37{fill:#F0CFA8;}
	.st38{fill:#F0DCC5;}
	.st39{fill:#7F6B59;}
	.st40{fill:#E6D3BD;}
	.st41{fill:#B29778;}
	.st42{fill:#E0C5A4;}
	.st43{fill:url(#SVGID_1_);}
	.st44{fill:#C5B9AB;}
	.st45{fill:url(#SVGID_2_);}
	.st46{fill:url(#SVGID_3_);}
	.st47{fill:url(#SVGID_4_);}
	.st48{fill:url(#SVGID_5_);}
	.st49{fill:url(#SVGID_6_);}
	.st50{fill:url(#SVGID_7_);}
	.st51{opacity:0.3;fill:#C2A49D;}
	.st52{fill:#BB9673;}
	.st53{fill:url(#SVGID_8_);}
	.st54{fill:url(#SVGID_9_);}
	.st55{fill:url(#SVGID_10_);}
	.st56{fill:url(#SVGID_11_);}
	.st57{fill:url(#SVGID_12_);}
	.st58{fill:url(#SVGID_13_);}
	.st59{fill:#8F6E4F;}
	.st60{fill:url(#SVGID_14_);}
	.st61{fill:url(#SVGID_15_);}
	.st62{fill:url(#SVGID_16_);}
	.st63{fill:url(#SVGID_17_);}
	.st64{fill:url(#SVGID_18_);}
	.st65{fill:url(#SVGID_19_);}
	.st66{fill:url(#SVGID_20_);}
	.st67{fill:url(#SVGID_21_);}
	.st68{fill:url(#SVGID_22_);}
	.st69{fill:url(#SVGID_23_);}
	.st70{fill:url(#SVGID_24_);}
	.st71{fill:url(#SVGID_25_);}
	.st72{fill:url(#SVGID_26_);}
	.st73{fill:url(#SVGID_27_);}
	.st74{fill:url(#SVGID_28_);}
	.st75{fill:url(#SVGID_29_);}
	.st76{fill:url(#SVGID_30_);}
	.st77{fill:url(#SVGID_31_);}
	.st78{fill:url(#SVGID_32_);}
	.st79{fill:url(#SVGID_33_);}
	.st80{fill:url(#SVGID_34_);}
	.st81{fill:url(#SVGID_35_);}
	.st82{fill:url(#SVGID_36_);}
	.st83{fill:url(#SVGID_37_);}
	.st84{fill:url(#SVGID_38_);}
	.st85{fill:url(#SVGID_39_);}
	.st86{fill:#FFFFFF;stroke:#F17171;stroke-width:10;stroke-miterlimit:10;}
	.st87{fill:url(#SVGID_40_);}
	.st88{fill:url(#SVGID_41_);}
	.st89{fill:url(#SVGID_42_);}
	.st90{fill:url(#SVGID_43_);}
	.st91{fill:url(#SVGID_44_);}
	.st92{fill:url(#SVGID_45_);}
	.st93{fill:url(#SVGID_46_);}
	.st94{fill:url(#SVGID_47_);}
	.st95{fill:url(#SVGID_48_);}
	.st96{fill:url(#SVGID_49_);}
	.st97{fill:url(#SVGID_50_);}
	.st98{fill:url(#SVGID_51_);}
	.st99{fill:url(#SVGID_52_);}
	.st100{fill:url(#SVGID_53_);}
	.st101{fill:url(#SVGID_54_);}
	.st102{fill:url(#SVGID_55_);}
	.st103{fill:url(#SVGID_56_);}
	.st104{fill:url(#SVGID_57_);}
	.st105{fill:url(#SVGID_58_);}
	.st106{fill:url(#SVGID_59_);}
	.st107{fill:url(#SVGID_60_);}
	.st108{fill:url(#SVGID_61_);}
	.st109{fill:url(#SVGID_62_);}
	.st110{fill:url(#SVGID_63_);}
	.st111{fill:url(#SVGID_64_);}
	.st112{fill:url(#SVGID_65_);}
	.st113{opacity:0.3;fill:url(#SVGID_66_);}
	.st114{opacity:0.3;fill:url(#SVGID_67_);}
	.st115{opacity:0.3;fill:url(#SVGID_68_);}
	.st116{opacity:0.3;fill:url(#SVGID_69_);}
	.st117{fill:url(#SVGID_70_);}
	.st118{fill:url(#SVGID_71_);}
	.st119{fill:url(#SVGID_72_);}
	.st120{fill:url(#SVGID_73_);}
	.st121{fill:url(#SVGID_74_);}
	.st122{fill:url(#SVGID_75_);}
	.st123{fill:url(#SVGID_76_);}
	.st124{fill:url(#SVGID_77_);}
	.st125{fill:url(#SVGID_78_);}
	.st126{fill:url(#SVGID_79_);}
	.st127{fill:url(#SVGID_80_);}
	.st128{fill:url(#SVGID_81_);}
	.st129{fill:url(#SVGID_82_);}
	.st130{fill:url(#SVGID_83_);}
	.st131{fill:#595959;}
	.st132{fill:#C1C1C1;}
	.st133{fill:#DDDDDD;}
	.st134{fill:#AFAFAF;}
	.st135{fill:#A5A5A5;}
	.st136{fill:#EF8E2E;}
	.st137{fill:#FFA357;}
	.st138{fill:#FFBE83;}
	.st139{fill:#FFB176;}
	.st140{fill:#3F3F3F;}
	.st141{fill:#CECECE;}
	.st142{fill:#D8D8D8;}
	.st143{fill:#EAEAEA;}
	.st144{fill:#F9D5B2;}
	.st145{fill:#E8B679;}
	.st146{fill:#F2C18B;}
	.st147{opacity:0.5;fill:#AFAFAF;}
	.st148{fill:#7C5045;}
	.st149{fill:#684337;}
	.st150{fill:#8C5D54;}
	.st151{fill:#56352C;}
	.st152{fill:#4D4D4D;}
	.st153{fill:#444444;}
	.st154{fill:#303030;}
	.st155{fill:#494949;}
	.st156{fill:#969696;}
	.st157{fill:#FFFFFF;}
	.st158{fill:#383838;}
	.st159{fill:#262626;}
	.st160{fill:#FFA543;}
	.st161{fill:#DD7A22;}
	.st162{fill:#BBBBBB;}
	.st163{fill:#FCB275;}
	.st164{fill:#FFB061;}
	.st165{fill:#D87923;}
	.st166{fill:#CCCCCC;}
	.st167{fill:#EDEDED;}
	.st168{fill:#5B5B5B;}
	.st169{fill:#59362D;}
	.st170{fill:#F4F4F4;}
	.st171{fill:#F93D3D;}
	.st172{fill:#FF5252;}
	.st173{fill:#FF6E6E;}
	.st174{fill:url(#SVGID_84_);}
	.st175{fill:url(#SVGID_85_);}
	.st176{fill:url(#SVGID_86_);}
	.st177{fill:url(#SVGID_87_);}
	.st178{fill:url(#SVGID_88_);}
	.st179{fill:#A77860;}
	.st180{fill:#EEA886;}
	.st181{fill:#2C3144;}
	.st182{fill:url(#SVGID_89_);}
	.st183{fill:url(#SVGID_90_);}
	.st184{fill:url(#SVGID_91_);}
	.st185{opacity:0.3;fill:url(#SVGID_92_);}
	.st186{fill:#DECBC4;}
	.st187{fill:#495055;}
	.st188{fill:#353A3D;}
	.st189{fill:url(#SVGID_93_);}
	.st190{fill:url(#SVGID_94_);}
	.st191{fill:url(#SVGID_95_);}
	.st192{fill:url(#SVGID_96_);}
	.st193{fill:#F5E2D9;}
	.st194{fill:#AD9F99;}
	.st195{fill:#69737A;}
	.st196{fill:url(#SVGID_97_);}
	.st197{fill:#2D3133;}
	.st198{fill:url(#SVGID_98_);}
	.st199{opacity:0.3;fill:url(#SVGID_99_);}
	.st200{opacity:0.3;fill:url(#SVGID_100_);}
	.st201{fill:url(#SVGID_101_);}
	.st202{fill:url(#SVGID_102_);}
	.st203{fill:#24126A;}
	.st204{fill:url(#SVGID_103_);}
	.st205{fill:url(#SVGID_104_);}
	.st206{fill:#F0F6FF;}
	.st207{fill:#FCD1C5;}
	.st208{fill:url(#SVGID_105_);}
	.st209{fill:url(#SVGID_106_);}
	.st210{fill:#453C9E;}
	.st211{fill:#AA8383;}
	.st212{fill:#C4CCD6;}
	.st213{fill:#E2B1A6;}
	.st214{fill:#936D6D;}
	.st215{fill:url(#SVGID_107_);}
	.st216{fill:url(#SVGID_108_);}
	.st217{fill:url(#SVGID_109_);}
	.st218{fill:#CA4B7C;}
	.st219{fill:#6E376E;}
	.st220{fill:#160A5B;}
	.st221{fill:url(#SVGID_110_);}
	.st222{fill:#722318;}
	.st223{fill:url(#SVGID_111_);}
	.st224{fill:url(#SVGID_112_);}
	.st225{font-family:'MyriadPro-Bold';}
	.st226{font-size:62.2504px;}
	.st227{font-family:'MyriadPro-Regular';}
	.st228{fill:url(#SVGID_113_);}
	.st229{fill:url(#SVGID_114_);}
	.st230{fill:url(#SVGID_115_);}
	.st231{fill:url(#SVGID_116_);}
	.st232{fill:url(#SVGID_117_);}
	.st233{fill:url(#SVGID_118_);}
	.st234{fill:url(#SVGID_119_);}
	.st235{fill:url(#SVGID_120_);}
	.st236{fill:url(#SVGID_121_);}
	.st237{fill:url(#SVGID_122_);}
	.st238{fill:url(#SVGID_123_);}
	.st239{fill:url(#SVGID_124_);}
	.st240{fill:url(#SVGID_125_);}
	.st241{fill:url(#SVGID_126_);}
	.st242{fill:url(#SVGID_127_);}
	.st243{fill:url(#SVGID_128_);}
	.st244{fill:url(#SVGID_129_);}
	.st245{fill:url(#SVGID_130_);}
	.st246{fill:url(#SVGID_131_);}
	.st247{fill:url(#SVGID_132_);}
	.st248{fill:url(#SVGID_133_);}
	.st249{fill:url(#SVGID_134_);}
	.st250{fill:url(#SVGID_135_);}
	.st251{fill:url(#SVGID_136_);}
	.st252{fill:url(#SVGID_137_);}
	.st253{fill:url(#SVGID_138_);}
	.st254{fill:url(#SVGID_139_);}
	.st255{fill:url(#SVGID_140_);}
	.st256{fill:url(#SVGID_141_);}
	.st257{fill:url(#SVGID_142_);}
	.st258{fill:url(#SVGID_143_);}
	.st259{fill:url(#SVGID_144_);}
	.st260{fill:url(#SVGID_145_);}
	.st261{fill:url(#SVGID_146_);}
	.st262{fill:url(#SVGID_147_);}
	.st263{fill:url(#SVGID_148_);}
	.st264{fill:url(#SVGID_149_);}
	.st265{fill:url(#SVGID_150_);}
	.st266{fill:url(#SVGID_151_);}
	.st267{fill:url(#SVGID_152_);}
	.st268{fill:url(#SVGID_153_);}
	.st269{fill:url(#SVGID_154_);}
	.st270{fill:url(#SVGID_155_);}
	.st271{fill:url(#SVGID_156_);}
	.st272{fill:url(#SVGID_157_);}
	.st273{fill:url(#SVGID_158_);}
	.st274{fill:url(#SVGID_159_);}
	.st275{fill:url(#SVGID_160_);}
	.st276{fill:url(#SVGID_161_);}
	.st277{fill:url(#SVGID_162_);}
	.st278{fill:url(#SVGID_163_);}
	.st279{fill:url(#SVGID_164_);}
	.st280{fill:url(#SVGID_165_);}
	.st281{fill:url(#SVGID_166_);}
	.st282{fill:url(#SVGID_167_);}
	.st283{fill:url(#SVGID_168_);}
	.st284{fill:url(#SVGID_169_);}
	.st285{fill:url(#SVGID_170_);}
	.st286{fill:url(#SVGID_171_);}
	.st287{fill:url(#SVGID_172_);}
	.st288{fill:#BBD070;}
	.st289{fill:#97A43C;}
	.st290{fill:#48753A;}
	.st291{fill:url(#SVGID_173_);}
	.st292{fill:url(#SVGID_174_);}
	.st293{fill:url(#SVGID_175_);}
	.st294{fill:url(#SVGID_176_);}
	.st295{fill:url(#SVGID_177_);}
	.st296{fill:url(#SVGID_178_);}
	.st297{fill:url(#SVGID_179_);}
	.st298{fill:url(#SVGID_180_);}
	.st299{fill:#E3F2FF;}
	.st300{fill:url(#SVGID_181_);}
	.st301{fill:url(#SVGID_182_);}
	.st302{opacity:0.58;}
	.st303{fill:#E0F1FF;}
	.st304{fill:url(#SVGID_183_);}
	.st305{fill:url(#SVGID_184_);}
	.st306{fill:url(#SVGID_185_);}
	.st307{fill:#1D3B54;}
	.st308{fill:#D4D8E8;}
	.st309{fill:#A9ADBA;}
	.st310{fill:#E8734D;}
	.st311{fill:url(#SVGID_186_);}
	.st312{fill:url(#SVGID_187_);}
	.st313{fill:url(#SVGID_188_);}
	.st314{fill:url(#SVGID_189_);}
	.st315{fill:#FE9D82;}
	.st316{fill:url(#SVGID_190_);}
	.st317{fill:url(#SVGID_191_);}
	.st318{fill:url(#SVGID_192_);}
	.st319{fill:url(#SVGID_193_);}
	.st320{fill:url(#SVGID_194_);}
	.st321{fill:url(#SVGID_195_);}
	.st322{fill:url(#SVGID_196_);}
	.st323{fill:url(#SVGID_197_);}
	.st324{fill:url(#SVGID_198_);}
	.st325{fill:url(#SVGID_199_);}
	.st326{fill:url(#SVGID_200_);}
	.st327{fill:url(#SVGID_201_);}
	.st328{fill:url(#SVGID_202_);}
	.st329{fill:url(#SVGID_203_);}
	.st330{fill:url(#SVGID_204_);}
	.st331{fill:url(#SVGID_205_);}
	.st332{fill:url(#SVGID_206_);}
	.st333{fill:url(#SVGID_207_);}
	.st334{fill:url(#SVGID_208_);}
	.st335{fill:url(#SVGID_209_);}
	.st336{fill:url(#SVGID_210_);}
	.st337{fill:url(#SVGID_211_);}
	.st338{fill:url(#SVGID_212_);}
	.st339{fill:url(#SVGID_213_);}
	.st340{fill:url(#SVGID_214_);}
	.st341{fill:url(#SVGID_215_);}
	.st342{fill:url(#SVGID_216_);}
	.st343{fill:url(#SVGID_217_);}
	.st344{fill:url(#SVGID_218_);}
	.st345{fill:url(#SVGID_219_);}
	.st346{fill:url(#SVGID_220_);}
	.st347{fill:url(#SVGID_221_);}
	.st348{fill:url(#SVGID_222_);}
	.st349{fill:url(#SVGID_223_);}
	.st350{fill:url(#SVGID_224_);}
	.st351{fill:url(#SVGID_225_);}
	.st352{fill:url(#SVGID_226_);}
	.st353{fill:url(#SVGID_227_);}
	.st354{fill:url(#SVGID_228_);}
	.st355{fill:url(#SVGID_229_);}
	.st356{fill:url(#SVGID_230_);}
	.st357{fill:url(#SVGID_231_);}
	.st358{fill:url(#SVGID_232_);}
	.st359{fill:url(#SVGID_233_);}
	.st360{fill:url(#SVGID_234_);}
	.st361{fill:url(#SVGID_235_);}
	.st362{fill:url(#SVGID_236_);}
	.st363{fill:url(#SVGID_237_);}
	.st364{fill:url(#SVGID_238_);}
	.st365{fill:url(#SVGID_239_);}
	.st366{fill:url(#SVGID_240_);}
	.st367{fill:url(#SVGID_241_);}
	.st368{fill:url(#SVGID_242_);}
	.st369{fill:url(#SVGID_243_);}
	.st370{fill:url(#SVGID_244_);}
	.st371{fill:url(#SVGID_245_);}
	.st372{fill:url(#SVGID_246_);}
	.st373{fill:url(#SVGID_247_);}
	.st374{fill:url(#SVGID_248_);}
	.st375{fill:url(#SVGID_249_);}
	.st376{fill:url(#SVGID_250_);}
	.st377{fill:url(#SVGID_251_);}
	.st378{fill:url(#SVGID_252_);}
	.st379{fill:url(#SVGID_253_);}
	.st380{fill:url(#SVGID_254_);}
	.st381{fill:url(#SVGID_255_);}
	.st382{fill:url(#SVGID_256_);}
	.st383{fill:url(#SVGID_257_);}
	.st384{fill:url(#SVGID_258_);}
	.st385{fill:url(#SVGID_259_);}
	.st386{fill:url(#SVGID_260_);}
	.st387{fill:url(#SVGID_261_);}
	.st388{fill:url(#SVGID_262_);}
	.st389{fill:url(#SVGID_263_);}
	.st390{fill:url(#SVGID_264_);}
	.st391{fill:url(#SVGID_265_);}
	.st392{fill:url(#SVGID_266_);}
	.st393{fill:url(#SVGID_267_);}
	.st394{fill:url(#SVGID_268_);}
	.st395{fill:url(#SVGID_269_);}
	.st396{fill:url(#SVGID_270_);}
	.st397{fill:url(#SVGID_271_);}
	.st398{fill:url(#SVGID_272_);}
	.st399{fill:url(#SVGID_273_);}
	.st400{fill:url(#SVGID_274_);}
	.st401{fill:url(#SVGID_275_);}
	.st402{fill:url(#SVGID_276_);}
	.st403{fill:url(#SVGID_277_);}
	.st404{fill:url(#SVGID_278_);}
	.st405{fill:url(#SVGID_279_);}
	.st406{fill:url(#SVGID_280_);}
	.st407{fill:url(#SVGID_281_);}
	.st408{fill:url(#SVGID_282_);}
	.st409{fill:url(#SVGID_283_);}
	.st410{fill:url(#SVGID_284_);}
	.st411{fill:url(#SVGID_285_);}
	.st412{fill:url(#SVGID_286_);}
	.st413{fill:url(#SVGID_287_);}
	.st414{fill:url(#SVGID_288_);}
	.st415{fill:url(#SVGID_289_);}
	.st416{fill:url(#SVGID_290_);}
	.st417{fill:url(#SVGID_291_);}
	.st418{fill:url(#SVGID_292_);}
	.st419{fill:url(#SVGID_293_);}
	.st420{fill:url(#SVGID_294_);}
	.st421{fill:url(#SVGID_295_);}
	.st422{fill:url(#SVGID_296_);}
	.st423{fill:url(#SVGID_297_);}
	.st424{fill:url(#SVGID_298_);}
	.st425{fill:url(#SVGID_299_);}
	.st426{fill:url(#SVGID_300_);}
	.st427{fill:url(#SVGID_301_);}
	.st428{fill:url(#SVGID_302_);}
	.st429{fill:url(#SVGID_303_);}
	.st430{fill:url(#SVGID_304_);}
	.st431{opacity:0.3;fill:url(#SVGID_305_);}
	.st432{fill:#E7E7E7;}
	.st433{fill:url(#SVGID_306_);}
	.st434{fill:url(#SVGID_307_);}
	.st435{fill:url(#SVGID_308_);}
	.st436{fill:url(#SVGID_309_);}
	.st437{fill:url(#SVGID_310_);}
	.st438{fill:url(#SVGID_311_);}
	.st439{fill:url(#SVGID_312_);}
	.st440{fill:url(#_x3C_Path_x3E__1_);}
	.st441{fill:#007CFF;}
	.st442{fill:url(#SVGID_313_);}
	.st443{opacity:0.4;}
	.st444{opacity:0.6;fill:url(#SVGID_314_);}
	.st445{opacity:0.6;fill:url(#SVGID_315_);}
	.st446{opacity:0.6;fill:url(#SVGID_316_);}
	.st447{opacity:0.6;fill:url(#SVGID_317_);}
	.st448{opacity:0.6;fill:url(#SVGID_318_);}
	.st449{opacity:0.6;fill:url(#SVGID_319_);}
	.st450{opacity:0.6;fill:url(#SVGID_320_);}
	.st451{opacity:0.6;fill:url(#SVGID_321_);}
	.st452{opacity:0.6;fill:url(#SVGID_322_);}
	.st453{opacity:0.6;fill:url(#SVGID_323_);}
	.st454{opacity:0.6;fill:url(#SVGID_324_);}
	.st455{opacity:0.6;fill:url(#SVGID_325_);}
	.st456{opacity:0.6;fill:url(#SVGID_326_);}
	.st457{fill:url(#SVGID_327_);}
	.st458{fill:url(#SVGID_328_);}
	.st459{fill:url(#SVGID_329_);}
	.st460{opacity:0.6;fill:url(#SVGID_330_);}
	.st461{opacity:0.5;fill:#FFFFFF;}
	.st462{fill:url(#SVGID_331_);}
	.st463{fill:#1A2E35;}
	.st464{fill:url(#SVGID_332_);}
	.st465{fill:#FFC3BD;}
	.st466{fill:#FF847F;}
	.st467{opacity:0.2;}
	.st468{opacity:0.8;fill:#1A2E35;}
	.st469{fill:url(#SVGID_333_);}
	.st470{opacity:0.3;}
	.st471{fill:url(#SVGID_334_);}
	.st472{fill:url(#SVGID_335_);}
	.st473{fill:none;stroke:url(#SVGID_336_);stroke-miterlimit:10;}
	.st474{fill:none;stroke:url(#SVGID_337_);stroke-miterlimit:10;}
	.st475{fill:none;stroke:url(#SVGID_338_);stroke-miterlimit:10;}
	.st476{fill:none;stroke:url(#SVGID_339_);stroke-miterlimit:10;}
	.st477{fill:none;stroke:url(#SVGID_340_);stroke-miterlimit:10;}
	.st478{fill:url(#SVGID_341_);}
	.st479{fill:url(#SVGID_342_);}
	.st480{fill:url(#SVGID_343_);}
	.st481{fill:url(#SVGID_344_);}
	.st482{fill:url(#SVGID_345_);}
	.st483{fill:url(#SVGID_346_);}
	.st484{fill:url(#SVGID_347_);}
	.st485{fill:url(#SVGID_348_);}
	.st486{fill:url(#SVGID_349_);}
	.st487{fill:url(#SVGID_350_);}
	.st488{fill:url(#SVGID_351_);}
	.st489{fill:none;stroke:url(#SVGID_352_);stroke-miterlimit:10;}
	.st490{fill:none;stroke:url(#SVGID_353_);stroke-miterlimit:10;}
	.st491{fill:none;stroke:url(#SVGID_354_);stroke-miterlimit:10;}
	.st492{fill:none;stroke:url(#SVGID_355_);stroke-miterlimit:10;}
	.st493{fill:none;stroke:url(#SVGID_356_);stroke-miterlimit:10;}
	.st494{fill:url(#SVGID_357_);}
	.st495{fill:url(#SVGID_358_);}
	.st496{fill:url(#SVGID_359_);}
	.st497{fill:url(#SVGID_360_);}
	.st498{fill:url(#SVGID_361_);}
	.st499{fill:url(#SVGID_362_);}
	.st500{fill:url(#SVGID_363_);}
	.st501{fill:url(#SVGID_364_);}
	.st502{fill:url(#SVGID_365_);}
	.st503{fill:url(#SVGID_366_);}
	.st504{fill:url(#SVGID_367_);}
	.st505{fill:none;stroke:url(#SVGID_368_);stroke-miterlimit:10;}
	.st506{fill:none;stroke:url(#SVGID_369_);stroke-miterlimit:10;}
	.st507{fill:none;stroke:url(#SVGID_370_);stroke-miterlimit:10;}
	.st508{fill:none;stroke:url(#SVGID_371_);stroke-miterlimit:10;}
	.st509{fill:none;stroke:url(#SVGID_372_);stroke-miterlimit:10;}
	.st510{fill:url(#SVGID_373_);}
	.st511{fill:url(#SVGID_374_);}
	.st512{fill:url(#SVGID_375_);}
	.st513{fill:url(#SVGID_376_);}
	.st514{fill:url(#SVGID_377_);}
	.st515{fill:url(#SVGID_378_);}
	.st516{fill:url(#SVGID_379_);}
	.st517{fill:url(#SVGID_380_);}
	.st518{fill:url(#SVGID_381_);}
	.st519{fill:url(#SVGID_382_);}
	.st520{fill:url(#SVGID_383_);}
	.st521{fill:none;stroke:url(#SVGID_384_);stroke-miterlimit:10;}
	.st522{fill:none;stroke:url(#SVGID_385_);stroke-miterlimit:10;}
	.st523{fill:none;stroke:url(#SVGID_386_);stroke-miterlimit:10;}
	.st524{fill:none;stroke:url(#SVGID_387_);stroke-miterlimit:10;}
	.st525{fill:none;stroke:url(#SVGID_388_);stroke-miterlimit:10;}
	.st526{fill:url(#SVGID_389_);}
	.st527{fill:url(#SVGID_390_);}
	.st528{fill:url(#SVGID_391_);}
	.st529{fill:url(#SVGID_392_);}
	.st530{fill:url(#SVGID_393_);}
	.st531{fill:url(#SVGID_394_);}
	.st532{fill:url(#SVGID_395_);}
	.st533{fill:url(#SVGID_396_);}
	.st534{fill:url(#SVGID_397_);}
	.st535{fill:url(#SVGID_398_);}
	.st536{fill:url(#SVGID_399_);}
	.st537{fill:none;stroke:url(#SVGID_400_);stroke-miterlimit:10;}
	.st538{fill:none;stroke:url(#SVGID_401_);stroke-miterlimit:10;}
	.st539{fill:none;stroke:url(#SVGID_402_);stroke-miterlimit:10;}
	.st540{fill:none;stroke:url(#SVGID_403_);stroke-miterlimit:10;}
	.st541{fill:none;stroke:url(#SVGID_404_);stroke-miterlimit:10;}
	.st542{fill:url(#SVGID_405_);}
	.st543{fill:url(#SVGID_406_);}
	.st544{fill:url(#SVGID_407_);}
	.st545{fill:url(#SVGID_408_);}
	.st546{fill:url(#SVGID_409_);}
	.st547{fill:url(#SVGID_410_);}
	.st548{fill:url(#SVGID_411_);}
	.st549{fill:url(#SVGID_412_);}
	.st550{fill:url(#SVGID_413_);}
	.st551{fill:url(#SVGID_414_);}
	.st552{fill:url(#SVGID_415_);}
	.st553{fill:none;stroke:url(#SVGID_416_);stroke-miterlimit:10;}
	.st554{fill:none;stroke:url(#SVGID_417_);stroke-miterlimit:10;}
	.st555{fill:none;stroke:url(#SVGID_418_);stroke-miterlimit:10;}
	.st556{fill:none;stroke:url(#SVGID_419_);stroke-miterlimit:10;}
	.st557{fill:none;stroke:url(#SVGID_420_);stroke-miterlimit:10;}
	.st558{fill:url(#SVGID_421_);}
	.st559{fill:url(#SVGID_422_);}
	.st560{fill:url(#SVGID_423_);}
	.st561{fill:url(#SVGID_424_);}
	.st562{fill:url(#SVGID_425_);}
	.st563{fill:url(#SVGID_426_);}
	.st564{fill:url(#SVGID_427_);}
	.st565{fill:url(#SVGID_428_);}
	.st566{fill:url(#SVGID_429_);}
	.st567{fill:url(#SVGID_430_);}
	.st568{fill:url(#SVGID_431_);}
	.st569{opacity:0.1;}
	.st570{fill:url(#SVGID_432_);}
	.st571{fill:url(#SVGID_433_);}
	.st572{fill:url(#SVGID_434_);}
	.st573{fill:url(#SVGID_435_);}
	.st574{fill:url(#SVGID_436_);}
	.st575{fill:url(#SVGID_437_);}
	.st576{fill:url(#SVGID_438_);}
	.st577{fill:url(#SVGID_439_);}
	.st578{fill:#E9EAF4;}
	.st579{fill:none;stroke:#CCC1E0;stroke-width:0.9846;stroke-miterlimit:10;}
	.st580{fill:#CCC1E0;}
	.st581{opacity:0.3;fill:#C8CAD7;}
	.st582{fill:none;stroke:#CCC1E0;stroke-width:1.1787;stroke-miterlimit:10;}
	.st583{fill:url(#SVGID_440_);}
	.st584{fill:url(#SVGID_441_);}
	.st585{fill:#FFB69B;}
	.st586{opacity:5.000000e-02;}
	.st587{fill:#75524F;}
	.st588{fill:#EBA88F;}
	.st589{fill:#8E6863;}
	.st590{fill:#89605C;}
	.st591{fill:#A27771;}
	.st592{fill:#1E212E;}
	.st593{fill:#FF748E;}
	.st594{fill:url(#SVGID_442_);}
	.st595{fill:#6E6B87;}
	.st596{fill:url(#SVGID_443_);}
	.st597{fill:#F26886;}
	.st598{fill:url(#SVGID_444_);}
	.st599{fill:url(#SVGID_445_);}
	.st600{fill:url(#SVGID_446_);}
	.st601{fill:url(#SVGID_447_);}
	.st602{fill:url(#SVGID_448_);}
	.st603{fill:url(#SVGID_449_);}
	.st604{fill:url(#SVGID_450_);}
	.st605{fill:url(#SVGID_451_);}
	.st606{fill:url(#SVGID_452_);}
	.st607{fill:url(#SVGID_453_);}
	.st608{fill:url(#SVGID_454_);}
	.st609{fill:url(#SVGID_455_);}
	.st610{fill:url(#SVGID_456_);}
	.st611{fill:url(#SVGID_457_);}
	.st612{fill:url(#SVGID_458_);}
	.st613{fill:url(#SVGID_459_);}
	.st614{fill:url(#SVGID_460_);}
	.st615{fill:url(#SVGID_461_);}
	.st616{fill:url(#SVGID_462_);}
	.st617{fill:url(#SVGID_463_);}
	.st618{fill:url(#SVGID_464_);}
	.st619{fill:url(#SVGID_465_);}
	.st620{fill:url(#SVGID_466_);}
	.st621{fill:url(#SVGID_467_);}
	.st622{fill:url(#SVGID_468_);}
	.st623{fill:url(#SVGID_469_);}
	.st624{fill:url(#SVGID_470_);}
	.st625{fill:url(#SVGID_471_);}
	.st626{fill:url(#SVGID_472_);}
	.st627{fill:url(#SVGID_473_);}
	.st628{fill:url(#SVGID_474_);}
	.st629{fill:url(#SVGID_475_);}
	.st630{fill:url(#SVGID_476_);}
	.st631{fill:url(#SVGID_477_);}
	.st632{fill:url(#SVGID_478_);}
	.st633{fill:url(#SVGID_479_);}
	.st634{fill:url(#SVGID_480_);}
	.st635{fill:url(#SVGID_481_);}
	.st636{fill:url(#SVGID_482_);}
	.st637{fill:url(#SVGID_483_);}
	.st638{fill:url(#SVGID_484_);}
	.st639{fill:url(#SVGID_485_);}
	.st640{fill:url(#SVGID_486_);}
	.st641{fill:url(#SVGID_487_);}
	.st642{fill:url(#SVGID_488_);}
	.st643{fill:url(#SVGID_489_);}
	.st644{fill:url(#SVGID_490_);}
	.st645{fill:url(#SVGID_491_);}
	.st646{fill:url(#SVGID_492_);}
	.st647{fill:url(#SVGID_493_);}
	.st648{fill:url(#SVGID_494_);}
	.st649{fill:url(#SVGID_495_);}
	.st650{fill:url(#SVGID_496_);}
	.st651{fill:url(#SVGID_497_);}
	.st652{fill:url(#SVGID_498_);}
	.st653{fill:url(#SVGID_499_);}
	.st654{fill:url(#SVGID_500_);}
	.st655{fill:url(#SVGID_501_);}
	.st656{fill:url(#SVGID_502_);}
	.st657{fill:url(#SVGID_503_);}
	.st658{fill:url(#SVGID_504_);}
	.st659{fill:url(#SVGID_505_);}
	.st660{fill:url(#SVGID_506_);}
	.st661{fill:url(#SVGID_507_);}
	.st662{fill:url(#SVGID_508_);}
	.st663{fill:url(#SVGID_509_);}
	.st664{fill:url(#SVGID_510_);}
	.st665{fill:url(#SVGID_511_);}
	.st666{fill:url(#SVGID_512_);}
	.st667{fill:url(#SVGID_513_);}
	.st668{fill:url(#SVGID_514_);}
	.st669{fill:url(#SVGID_515_);}
	.st670{fill:url(#SVGID_516_);}
	.st671{fill:url(#SVGID_517_);}
	.st672{fill:url(#SVGID_518_);}
	.st673{fill:url(#SVGID_519_);}
	.st674{fill:url(#SVGID_520_);}
	.st675{fill:url(#SVGID_521_);}
	.st676{fill:url(#SVGID_522_);}
	.st677{fill:url(#SVGID_523_);}
	.st678{fill:url(#SVGID_524_);}
	.st679{fill:url(#SVGID_525_);}
	.st680{fill:url(#SVGID_526_);}
	.st681{fill:url(#SVGID_527_);}
	.st682{fill:url(#SVGID_528_);}
	.st683{fill:url(#SVGID_529_);}
	.st684{fill:url(#SVGID_530_);}
	.st685{fill:url(#SVGID_531_);}
	.st686{fill:url(#SVGID_532_);}
	.st687{fill:url(#SVGID_533_);}
	.st688{fill:url(#SVGID_534_);}
	.st689{fill:url(#SVGID_535_);}
	.st690{fill:url(#SVGID_536_);}
	.st691{fill:url(#SVGID_537_);}
	.st692{fill:url(#SVGID_538_);}
	.st693{fill:url(#SVGID_539_);}
	.st694{fill:url(#SVGID_540_);}
	.st695{fill:url(#SVGID_541_);}
	.st696{fill:url(#SVGID_542_);}
	.st697{fill:url(#SVGID_543_);}
	.st698{fill:url(#SVGID_544_);}
	.st699{fill:url(#SVGID_545_);}
	.st700{fill:url(#SVGID_546_);}
	.st701{fill:url(#SVGID_547_);}
	.st702{fill:url(#SVGID_548_);}
	.st703{fill:url(#SVGID_549_);}
	.st704{fill:url(#SVGID_550_);}
	.st705{fill:url(#SVGID_551_);}
	.st706{fill:url(#SVGID_552_);}
	.st707{fill:url(#SVGID_553_);}
	.st708{fill:url(#SVGID_554_);}
	.st709{fill:url(#SVGID_555_);}
	.st710{fill:url(#SVGID_556_);}
	.st711{fill:url(#SVGID_557_);}
	.st712{fill:url(#SVGID_558_);}
	.st713{fill:url(#SVGID_559_);}
	.st714{fill:url(#SVGID_560_);}
	.st715{fill:url(#SVGID_561_);}
	.st716{fill:url(#SVGID_562_);}
	.st717{fill:url(#SVGID_563_);}
	.st718{fill:url(#SVGID_564_);}
	.st719{fill:url(#SVGID_565_);}
	.st720{fill:url(#SVGID_566_);}
	.st721{fill:url(#SVGID_567_);}
	.st722{fill:url(#_x3C_Path_x3E__2_);}
	.st723{fill:url(#SVGID_568_);}
	.st724{opacity:0.6;fill:url(#SVGID_569_);}
	.st725{opacity:0.6;fill:url(#SVGID_570_);}
	.st726{opacity:0.6;fill:url(#SVGID_571_);}
	.st727{opacity:0.6;fill:url(#SVGID_572_);}
	.st728{opacity:0.6;fill:url(#SVGID_573_);}
	.st729{opacity:0.6;fill:url(#SVGID_574_);}
	.st730{opacity:0.6;fill:url(#SVGID_575_);}
	.st731{opacity:0.6;fill:url(#SVGID_576_);}
	.st732{opacity:0.6;fill:url(#SVGID_577_);}
	.st733{opacity:0.6;fill:url(#SVGID_578_);}
	.st734{opacity:0.6;fill:url(#SVGID_579_);}
	.st735{opacity:0.6;fill:url(#SVGID_580_);}
	.st736{opacity:0.6;fill:url(#SVGID_581_);}
	.st737{fill:url(#SVGID_582_);}
	.st738{fill:url(#SVGID_583_);}
	.st739{fill:url(#SVGID_584_);}
	.st740{opacity:0.6;fill:url(#SVGID_585_);}
	.st741{fill:url(#SVGID_586_);}
	.st742{fill:url(#SVGID_587_);}
	.st743{fill:url(#SVGID_588_);}
	.st744{fill:url(#SVGID_589_);}
	.st745{fill:url(#SVGID_590_);}
	.st746{fill:url(#SVGID_591_);}
	.st747{fill:url(#SVGID_592_);}
	.st748{fill:url(#SVGID_593_);}
	.st749{fill:url(#SVGID_594_);}
	.st750{fill:url(#SVGID_595_);}
	.st751{fill:url(#SVGID_596_);}
	.st752{fill:url(#SVGID_597_);}
	.st753{fill:url(#_x3C_Path_x3E__3_);}
	.st754{fill:url(#SVGID_598_);}
	.st755{opacity:0.6;fill:url(#SVGID_599_);}
	.st756{opacity:0.6;fill:url(#SVGID_600_);}
	.st757{opacity:0.6;fill:url(#SVGID_601_);}
	.st758{opacity:0.6;fill:url(#SVGID_602_);}
	.st759{opacity:0.6;fill:url(#SVGID_603_);}
	.st760{opacity:0.6;fill:url(#SVGID_604_);}
	.st761{opacity:0.6;fill:url(#SVGID_605_);}
	.st762{opacity:0.6;fill:url(#SVGID_606_);}
	.st763{opacity:0.6;fill:url(#SVGID_607_);}
	.st764{opacity:0.6;fill:url(#SVGID_608_);}
	.st765{opacity:0.6;fill:url(#SVGID_609_);}
	.st766{opacity:0.6;fill:url(#SVGID_610_);}
	.st767{opacity:0.6;fill:url(#SVGID_611_);}
	.st768{fill:url(#SVGID_612_);}
	.st769{fill:url(#SVGID_613_);}
	.st770{fill:url(#SVGID_614_);}
	.st771{opacity:0.6;fill:url(#SVGID_615_);}
	.st772{fill:url(#SVGID_616_);}
	.st773{fill:url(#SVGID_617_);}
	.st774{fill:url(#SVGID_618_);}
	.st775{fill:url(#SVGID_619_);}
	.st776{fill:url(#SVGID_620_);}
	.st777{fill:url(#SVGID_621_);}
	.st778{fill:url(#SVGID_622_);}
	.st779{fill:url(#SVGID_623_);}
	.st780{fill:url(#SVGID_624_);}
	.st781{fill:url(#SVGID_625_);}
	.st782{fill:url(#SVGID_626_);}
	.st783{fill:url(#SVGID_627_);}
	.st784{fill:url(#_x3C_Path_x3E__4_);}
	.st785{fill:url(#SVGID_628_);}
	.st786{opacity:0.6;fill:url(#SVGID_629_);}
	.st787{opacity:0.6;fill:url(#SVGID_630_);}
	.st788{opacity:0.6;fill:url(#SVGID_631_);}
	.st789{opacity:0.6;fill:url(#SVGID_632_);}
	.st790{opacity:0.6;fill:url(#SVGID_633_);}
	.st791{opacity:0.6;fill:url(#SVGID_634_);}
	.st792{opacity:0.6;fill:url(#SVGID_635_);}
	.st793{opacity:0.6;fill:url(#SVGID_636_);}
	.st794{opacity:0.6;fill:url(#SVGID_637_);}
	.st795{opacity:0.6;fill:url(#SVGID_638_);}
	.st796{opacity:0.6;fill:url(#SVGID_639_);}
	.st797{opacity:0.6;fill:url(#SVGID_640_);}
	.st798{opacity:0.6;fill:url(#SVGID_641_);}
	.st799{fill:url(#SVGID_642_);}
	.st800{fill:url(#SVGID_643_);}
	.st801{fill:url(#SVGID_644_);}
	.st802{opacity:0.6;fill:url(#SVGID_645_);}
	.st803{fill:url(#SVGID_646_);}
	.st804{fill:url(#SVGID_647_);}
	.st805{fill:url(#SVGID_648_);}
	.st806{fill:url(#SVGID_649_);}
	.st807{fill:url(#SVGID_650_);}
	.st808{fill:url(#SVGID_651_);}
	.st809{fill:url(#SVGID_652_);}
	.st810{fill:url(#SVGID_653_);}
	.st811{fill:url(#SVGID_654_);}
	.st812{fill:url(#SVGID_655_);}
	.st813{fill:url(#SVGID_656_);}
	.st814{fill:url(#SVGID_657_);}
	.st815{fill:url(#_x3C_Path_x3E__5_);}
	.st816{fill:url(#SVGID_658_);}
	.st817{opacity:0.6;fill:url(#SVGID_659_);}
	.st818{opacity:0.6;fill:url(#SVGID_660_);}
	.st819{opacity:0.6;fill:url(#SVGID_661_);}
	.st820{opacity:0.6;fill:url(#SVGID_662_);}
	.st821{opacity:0.6;fill:url(#SVGID_663_);}
	.st822{opacity:0.6;fill:url(#SVGID_664_);}
	.st823{opacity:0.6;fill:url(#SVGID_665_);}
	.st824{opacity:0.6;fill:url(#SVGID_666_);}
	.st825{opacity:0.6;fill:url(#SVGID_667_);}
	.st826{opacity:0.6;fill:url(#SVGID_668_);}
	.st827{opacity:0.6;fill:url(#SVGID_669_);}
	.st828{opacity:0.6;fill:url(#SVGID_670_);}
	.st829{opacity:0.6;fill:url(#SVGID_671_);}
	.st830{fill:url(#SVGID_672_);}
	.st831{fill:url(#SVGID_673_);}
	.st832{fill:url(#SVGID_674_);}
	.st833{opacity:0.6;fill:url(#SVGID_675_);}
	.st834{fill:url(#SVGID_676_);}
	.st835{fill:url(#SVGID_677_);}
	.st836{fill:url(#SVGID_678_);}
	.st837{fill:url(#SVGID_679_);}
	.st838{fill:url(#SVGID_680_);}
	.st839{fill:url(#SVGID_681_);}
	.st840{fill:url(#SVGID_682_);}
	.st841{fill:url(#SVGID_683_);}
	.st842{fill:url(#SVGID_684_);}
	.st843{fill:url(#SVGID_685_);}
	.st844{fill:url(#SVGID_686_);}
	.st845{fill:url(#SVGID_687_);}
	.st846{fill:url(#_x3C_Path_x3E__11_);}
	.st847{fill:url(#SVGID_688_);}
	.st848{opacity:0.6;fill:url(#SVGID_689_);}
	.st849{opacity:0.6;fill:url(#SVGID_690_);}
	.st850{opacity:0.6;fill:url(#SVGID_691_);}
	.st851{opacity:0.6;fill:url(#SVGID_692_);}
	.st852{opacity:0.6;fill:url(#SVGID_693_);}
	.st853{opacity:0.6;fill:url(#SVGID_694_);}
	.st854{opacity:0.6;fill:url(#SVGID_695_);}
	.st855{opacity:0.6;fill:url(#SVGID_696_);}
	.st856{opacity:0.6;fill:url(#SVGID_697_);}
	.st857{opacity:0.6;fill:url(#SVGID_698_);}
	.st858{opacity:0.6;fill:url(#SVGID_699_);}
	.st859{opacity:0.6;fill:url(#SVGID_700_);}
	.st860{opacity:0.6;fill:url(#SVGID_701_);}
	.st861{fill:url(#SVGID_702_);}
	.st862{fill:url(#SVGID_703_);}
	.st863{fill:url(#SVGID_704_);}
	.st864{opacity:0.6;fill:url(#SVGID_705_);}
	.st865{fill:url(#SVGID_706_);}
	.st866{fill:url(#SVGID_707_);}
	.st867{fill:url(#SVGID_708_);}
	.st868{fill:url(#SVGID_709_);}
	.st869{fill:url(#SVGID_710_);}
</style>
<path class="st31" d="M751.1,500.2H90.8c-16.6,0-30-13.4-30-30V125.1c0-16.6,13.4-30,30-30h660.3c16.6,0,30,13.4,30,30v345.1
	C781.1,486.8,767.6,500.2,751.1,500.2z"/>
<text transform="matrix(1 0 0 1 400.4751 241.2081)"><tspan x="0" y="0" class="st225 st226">Jasa</tspan><tspan x="0" y="74.7" class="st225 st226">Konsultasi</tspan><tspan x="0" y="149.4" class="st227 st226">Room 5</tspan></text>
<g>
	<g>
		
			<linearGradient id="SVGID_1_" gradientUnits="userSpaceOnUse" x1="798.4167" y1="-116.3693" x2="1046.4363" y2="-116.3693" gradientTransform="matrix(0.876 -0.4257 0.4279 0.8804 -535.3312 888.5267)">
			<stop  offset="0" style="stop-color:#FE7087"/>
			<stop  offset="1" style="stop-color:#FE734C"/>
		</linearGradient>
		<path class="st43" d="M96.7,409.5c-7.1-20,6.9-37.2,14-45.3c17.3-19.8,58.6-44.6,137.6-46.1c57.8-1.1,81.9,20.7,92,40.5
			c7.9,15.5,14.7,33.3-2.6,60.2c-15.8,24.5-56.9,46.1-104.1,23.1C173.2,412.6,111.8,451.8,96.7,409.5z"/>
		
			<linearGradient id="SVGID_2_" gradientUnits="userSpaceOnUse" x1="813.4984" y1="-182.7334" x2="1045.016" y2="-182.7334" gradientTransform="matrix(0.9147 -0.404 0.404 0.9147 -551.9468 926.1918)">
			<stop  offset="0" style="stop-color:#FE7087"/>
			<stop  offset="1" style="stop-color:#FE9D82"/>
		</linearGradient>
		<path class="st45" d="M103.3,395.1c-2.5-8.7,4-20.2,11-27.7c17.2-18.3,61.7-55.6,137.2-54.4c55.3,0.8,77.6,22.5,86.4,41.6
			c7,15.1,4.5,32.9-6.2,45.6c-17.9,21.3-57.8,55.3-102,31.9C173.3,402.2,116.8,442.6,103.3,395.1z"/>
	</g>
	<g>
		<path class="st181" d="M257.1,347.4c0,0-1,1.1-2.1,2.3s-4,3-5.3,3.8c-1.2,0.8-7,5.1-8.2,9.4c-1.2,4.3,2.9,4.8,7.1,4.1
			c4.2-0.7,8.1-4.6,9.2-6c1.1-1.4,5.1-4.5,10.2-7.2c5.1-2.7,2-6.2,2-6.2L257.1,347.4z"/>
		<path class="st181" d="M295.2,360.1c0,0,0.8,1.9,1.1,4.4c0.2,2.5,0.6,7.8,0.7,9.4c0.1,1.6,0.2,5.4-2.6,9.1
			c-2.8,3.7-4.2,5.1-7.8,3.7c-3.7-1.4-3.6-7.6-2.9-10.7c0.6-3.2,1.2-10.2,1.2-11c-0.1-0.7,0.2-1.2,0.2-1.2L295.2,360.1z"/>
		<path class="st203" d="M244.5,275c0,0,0.8,28.2,7.3,43.1c0,0,4.7,13.2,5.3,28.8c0,0-1.1,2.7,0.5,4.9c1.5,2.2,11.2,4.2,12.8-3
			c1.6-7.2,1-20.7-0.8-26.3c-1.7-5.6,0.6-21.1,0.6-21.1s2.6,1.7,6.1,12.8s6,15.4,7.2,18.4c1.2,3.1,2.3,21.9,1.5,31.1
			c0,0,7.8,1.1,10.1-2.6c2.3-3.7,3-23,2.4-29.2s-3.1-25.9-2.8-32c0.4-6.1,1.6-11,0.2-17.1c-1.4-6.1-42.6-19.6-42.6-19.6L244.5,275z"
			/>
		<linearGradient id="SVGID_3_" gradientUnits="userSpaceOnUse" x1="221.4149" y1="301.6404" x2="297.7451" y2="320.7879">
			<stop  offset="0" style="stop-color:#6E376E"/>
			<stop  offset="1" style="stop-color:#CA4B7C"/>
		</linearGradient>
		<path class="st46" d="M244.5,275c0,0,0.8,28.2,7.3,43.1c0,0,4.7,13.2,5.3,28.8c0,0-1.1,2.7,0.5,4.9c1.5,2.2,11.2,4.2,12.8-3
			c1.6-7.2,1-20.7-0.8-26.3c-1.7-5.6,0.6-21.1,0.6-21.1s2.6,1.7,6.1,12.8s6,15.4,7.2,18.4c1.2,3.1,2.3,21.9,1.5,31.1
			c0,0,7.8,1.1,10.1-2.6c2.3-3.7,3-23,2.4-29.2s-3.1-25.9-2.8-32c0.4-6.1,1.6-11,0.2-17.1c-1.4-6.1-42.6-19.6-42.6-19.6L244.5,275z"
			/>
		<path class="st181" d="M294.7,300c0.4-6.1,1.6-11,0.2-17.1c-0.5-2.3-6.7-5.6-14.1-8.9c-12.6-1.1-28.6-2.5-29.7-2.3
			c-1,0.2-3.6,1.1-5.8,2l-0.9,1.3c0,0,0,1.7,0.2,4.5c2.9,0.9,8.6,0,8.6,0c0.8,2,5.7,9,11.8,12c6.1,3,24,2,25,3.1
			c1,1.2,1.2,16.6,1.1,18.5c-0.1,2,1.7,14.3,3.3,25.2c1.6,10.7-0.9,23.8-0.9,24.2c0.6-0.4,1.1-0.8,1.4-1.4c2.3-3.7,3-23,2.4-29.2
			S294.4,306.1,294.7,300z"/>
		
			<linearGradient id="SVGID_4_" gradientUnits="userSpaceOnUse" x1="-2185.7261" y1="245.0035" x2="-2254.1379" y2="233.8568" gradientTransform="matrix(-1 0 0 1 -1966.4507 0)">
			<stop  offset="0" style="stop-color:#6E376E"/>
			<stop  offset="1" style="stop-color:#CA4B7C"/>
		</linearGradient>
		<path class="st47" d="M258.3,182.8c0,0-9.1,2.1-12.2,2.8c-0.5,0.1-0.9,0.5-1.1,1c-0.9,2.2-3.1,9.2-1.4,19.4
			c2.1,12.5,1.4,20.9,1.4,20.9l-4.2,22c0,0-5.3,20.9-4.9,21.5c0.5,0.6,12.2,9.5,15.9,8.3c3.7-1.3,2.5-3.3,2.5-3.3s3,15.2,16.2,15
			c13.2-0.1,24-0.1,26.2-5.4c2.2-5.3-0.6-27.7-2.9-36.6c-2.3-8.9-7.9-26.6-7.9-26.6l19.3-21.4l-16.5-12.6c0,0-3.9-7.3-5.6-8.3
			s-2.5-0.1-2.5-0.1L258.3,182.8z"/>
		<g>
			<path class="st181" d="M252,273.9c0,0.8-0.4,1.9-2.8,2.7c-2.6,0.9-8.8-2.9-13-5.8c2.1,1.7,12.2,9.1,15.5,7.9
				c0.7-0.3,1.3-0.5,1.7-0.8C252.7,276.2,252.2,274.8,252,273.9z"/>
		</g>
		<path class="st206" d="M282.7,179.4c0,0,3.4,4.1-1.5,9.6c-3,3.4-8.1,10.7-12.5,18.3c-2.7,4.7-5.3,7.3-6.7,11.3
			c0,0-0.2-4.8-0.4-12.3c-0.2-7.1-0.3-14.4,0-16.2C262.3,186.3,279,177.5,282.7,179.4z"/>
		<path class="st207" d="M270.1,191.6c0,0-1.7,1.1-2.3,1c-0.6-0.1-2.5-1.9-2.5-1.9s-4.8-0.1-5.3-2.1c-0.5-2.1-0.9-4.1-1.4-5.2
			c-0.5-1.1-2.6-6.2-2.6-8.3c0-2.1,0.1-5.8-0.8-7.8c-0.9-2-2.1-21.6,16.9-21.1c19,0.6,13.1,20.3,13.1,20.3s1.4,0.6,0.5,3.1
			s-1,2.8-1.5,4.1c-0.4,1.3-0.6,2.1-1.8,3.1l-0.3,2.3c0,0,0.9,3.6-1.5,7C278.3,189.7,270.1,191.6,270.1,191.6z"/>
		<path class="st203" d="M245.5,185.9c0,0-2,0.3-8.6,16.8c-3.7,9.2-9.3,18.8-10.5,25.6c-1.2,6.8-0.5,14.2,0.8,14.7
			c1.3,0.5,24.9,9.3,32.3,12.1c0.4,0.2,0.9-0.1,0.9-0.5l2-11.4l-14.6-5.7c0,0-2.8-3.4-5.4-4.7c0,0,2.9-5.4,2.7-6.9
			c-0.2-1.5,0.3-16.8-1.5-23C242,196.8,245.5,185.9,245.5,185.9z"/>
		
			<linearGradient id="SVGID_5_" gradientUnits="userSpaceOnUse" x1="-2181.822" y1="238.6708" x2="-2214.822" y2="222.6375" gradientTransform="matrix(-1 0 0 1 -1966.4507 0)">
			<stop  offset="0" style="stop-color:#6E376E"/>
			<stop  offset="1" style="stop-color:#CA4B7C"/>
		</linearGradient>
		<path class="st48" d="M245.5,185.9c0,0-2,0.3-8.6,16.8c-3.7,9.2-9.3,18.8-10.5,25.6c-1.2,6.8-0.5,14.2,0.8,14.7
			c1.3,0.5,24.9,9.3,32.3,12.1c0.4,0.2,0.9-0.1,0.9-0.5l2-11.4l-14.6-5.7c0,0-2.8-3.4-5.4-4.7c0,0,2.9-5.4,2.7-6.9
			c-0.2-1.5,0.3-16.8-1.5-23C242,196.8,245.5,185.9,245.5,185.9z"/>
		<path class="st207" d="M254.1,229.5c0,0-2-1.4-2.5-1.5c-0.5-0.2-3.2-1.1-3.7-1.3c-0.4-0.2-2,0-2.7,0c-0.3,0-0.5,0.2-0.7,0.4
			c-0.6,1.2-2.4,4.5-2.2,5.8c0,0,4.9,3.1,5.4,4.5l0.8,0.2C248.5,237.5,251.8,230.5,254.1,229.5z"/>
		<path class="st181" d="M293.7,248.4c-0.6-2.1-1.3-4.8-2.1-7.6l-29.6,12.7c0,0,8.9,10.9,24.4,10.2c4.3-0.2,7.4-1.7,9.6-3
			C295.3,255.8,294.4,251.3,293.7,248.4z"/>
		<path class="st203" d="M305.1,200.4c0,0-7.8,1.1-14.1,11.1c-6.3,10-10.9,21.6-10.9,21.6l-0.2,1.3c-0.6,3.4-4.2,5.4-7.3,3.9
			c-6.7-3-16.5-7.5-18.4-8.8c0,0-5.9,3.3-7.5,11c-1.3,6.2-1,6.2-1,6.2s26.3,12.3,36.5,12.2c10.2-0.1,23.1-33.6,24.5-40.5
			C308,211.5,309.6,202.4,305.1,200.4z"/>
		
			<linearGradient id="SVGID_6_" gradientUnits="userSpaceOnUse" x1="-2200.7219" y1="253.2117" x2="-2258.8171" y2="230.2005" gradientTransform="matrix(-1 0 0 1 -1966.4507 0)">
			<stop  offset="0" style="stop-color:#6E376E"/>
			<stop  offset="1" style="stop-color:#CA4B7C"/>
		</linearGradient>
		<path class="st49" d="M305.1,200.4c0,0-7.8,1.1-14.1,11.1c-6.3,10-10.9,21.6-10.9,21.6l-0.2,1.3c-0.6,3.4-4.2,5.4-7.3,3.9
			c-6.7-3-16.5-7.5-18.4-8.8c0,0-5.9,3.3-7.5,11c-1.3,6.2-1,6.2-1,6.2s26.3,12.3,36.5,12.2c10.2-0.1,23.1-33.6,24.5-40.5
			C308,211.5,309.6,202.4,305.1,200.4z"/>
		<path class="st210" d="M276.3,239.9c0,0,3.3,3.1,4.8,1.4c1.4-1.7,1-1.9,1-1.9s3,0,3.4-1.9c0.4-1.9,1.8-0.9,1.9-3
			c0.1-2.1-2.4-1.7-2.4-1.7L276.3,239.9z"/>
		<path class="st207" d="M272.3,238.3c0,0,0.9-0.8,2.1-1.8c1.2-1,3.1-5.1,3.4-5.5c0.3-0.4,4.3-3.4,6.2-3.5c1.9-0.1,0.5,2.1,0.1,2.4
			c-0.4,0.3-2.3,1.2-2.3,1.2s-1.9,1.6-2.1,1.9c-0.2,0.2,5.3-0.4,6.2,0.2c0.9,0.5,0.7,2,0.1,2.4c-0.6,0.4-1.1,0.4-1.1,0.4
			s0.6,1.7-1,2.5c-1.7,0.8-2.1,0.3-2.1,0.3s-0.1,2.9-2.9,2.3L272.3,238.3z"/>
		<path class="st211" d="M254.8,157.3c0,0-2.5,7.9,4,5.6c6.5-2.2,12.4-6,14.5-4.6c1.6,1.1,1.5,4.4,1.4,6c0,0.5,0.1,1,0.4,1.5
			l1.9,2.8c0.2,0.3,0.3,0.7,0.4,1.1l0.1,2c0,0.5,0.4,0.9,0.9,0.9l0.4,0c0.5,0,0.9-0.3,1-0.8l0.5-2.9c0,0,1.5-3.9,4.8-2.3
			c0,0,2.2-2.9,1.4-9.1c-0.7-6.2-3.5-12.7-15.7-13.8C258.6,142.6,254.8,157.3,254.8,157.3z"/>
		<path class="st212" d="M273.4,198.6l-1.8-1.4c0,0-1.7,1.4-2.4,2.9c-0.7,1.5,0,6.2,0,6.2l-0.6,1L268,206l-0.6-5.6
			c0,0,0.6-4.1,0.7-4.2c0.1-0.1,3.5,0.4,3.5,0.4S272.9,197.4,273.4,198.6z"/>
		<path class="st212" d="M264.6,193c0,0-2,0.1-2.8,0.9c0,0,2.1,0.1,2.4,0.1C264.5,194,264.6,193,264.6,193z"/>
		<path class="st181" d="M268.4,193.4l3.3,3.1c0,0-2.9,1.3-3.7,3.9c0,0-3.6,0.7-3.9-0.6c-0.3-1.3,0-4.6-0.4-6
			C263.2,192.4,268.4,193.4,268.4,193.4z"/>
		<path class="st181" d="M264.2,199.7c0,0-0.6,2.7-1.3,3.8c-0.7,1.1-1.3,2.4-1.3,2.4l0.1,15.7c0,0,5.8-11.9,7-14.4
			c0,0-0.2-5.8-0.7-6.8C267.4,199.3,264.2,199.7,264.2,199.7z"/>
		<path class="st213" d="M279.8,176.4c-3.8,11-14.5,14.2-14.5,14.2s1.9,1.9,2.5,1.9c0.6,0.1,2.3-1,2.3-1s8.2-2,10.5-5.5
			c2.4-3.5,1.5-7,1.5-7l0.3-2.3C280.7,177.4,279.8,176.4,279.8,176.4z"/>
		<path class="st181" d="M288.5,189.3c0,0-1.5,5.2-1.7,5.4c-0.2,0.2-3.8-0.2-3.8-0.2l1.7,3.3c0,0-18,19.3-21.8,29.7
			c0,0,8.5-13.2,23.5-28.9l-2.1-3.2l3.7,0.7L288.5,189.3z"/>
		<path class="st181" d="M258.9,184.7l-1,1.1l1.1,1l-3.3,3c0,0-1,21.1,3,35.1c0,0-5.5-12.8-4.3-35.7l3.6-2.4l-1.2-1.2L258.9,184.7z"
			/>
		<path class="st181" d="M270.2,301.4c0,0,0,0,0.1,0.1l-4.7-5c2.2,3-0.3,17-0.6,20.1c-0.3,3.2,2.5,9.8,3.5,17.5
			c1,7.7-1.1,18.7-1.1,18.7c1.3-0.8,2.4-2.1,2.8-4.1c1.6-7.2,1-20.7-0.8-26.3C267.8,316.9,270.2,301.4,270.2,301.4z"/>
		<path class="st214" d="M278.8,172.6c0.5,0,0.9-0.3,1-0.8l0.5-2.9c0,0,1.5-3.9,4.8-2.3c0,0,2-2.8,1.5-8.7
			c-3.6,5.4-11.6,7.9-11.6,7.9l1.9,2.8c0.2,0.3,0.3,0.7,0.4,1.1l0.1,2c0,0.5,0.4,0.9,0.9,0.9L278.8,172.6z"/>
		<path class="st181" d="M161.7,400.9c0,0,4.2,1,8.2,1.2c4,0.2,15.1,2.4,14.8,6.5c-0.3,4.1-6,10.1-13.2,10.9
			c-7.2,0.9-16.5-1.2-21.2-1.1c-4.7,0.1-7.9-4.7-6.1-9.3C146,404.6,161.7,400.9,161.7,400.9z"/>
		<path class="st181" d="M137.4,389.8c0,0-1.5,2.5-0.8,4c0.8,1.5,2.8,5.3,9.4,1.6c6.6-3.7,19.2-8.9,19.2-8.9s7.3-3.9,6.9-8.4
			c-0.4-4.5-7.1-3.9-7.1-3.9L137.4,389.8z"/>
		<path class="st203" d="M180.1,325.2c0,0-2.8,29.6-8.7,40.8c-6,11.4-7.7,32.3-9,36.3c-1.3,4-5.2,9.8-11.4,11
			c-6.2,1.2-7.2-3-6.9-5.5c0.3-2.5,2-6.6,2-9.3c0-2.7-0.6-4-0.7-5.2c0,0-7.1,2.1-8.1-3.4c0,0,0.6-1.6,0.7-2.4
			c0.1-0.8-0.6-20.6-0.8-23c-0.2-2.4,1.1-15.3,3.1-21.7c1.9-6.3,1.3-19.8,1.3-19.8l20.1-2.8L180.1,325.2z"/>
		<linearGradient id="SVGID_7_" gradientUnits="userSpaceOnUse" x1="201.9048" y1="345.6" x2="137.6989" y2="371.7238">
			<stop  offset="0" style="stop-color:#6E376E"/>
			<stop  offset="1" style="stop-color:#CA4B7C"/>
		</linearGradient>
		<path class="st50" d="M180.1,325.2c0,0-2.8,29.6-8.7,40.8c-6,11.4-7.7,32.3-9,36.3c-1.3,4-5.2,9.8-11.4,11c-6.2,1.2-7.2-3-6.9-5.5
			c0.3-2.5,2-6.6,2-9.3c0-2.7-0.6-4-0.7-5.2c0,0-7.1,2.1-8.1-3.4c0,0,0.6-1.6,0.7-2.4c0.1-0.8-0.6-20.6-0.8-23
			c-0.2-2.4,1.1-15.3,3.1-21.7c1.9-6.3,1.3-19.8,1.3-19.8l20.1-2.8L180.1,325.2z"/>
		<path class="st181" d="M147.6,325c0,0,0.1,4.6,2,8.5c0,0,0,15.7,1.6,23.7c0,0-2.6,16-4.2,21c-1.7,5.1-1.4,15-1.4,15
			s-0.8,0.3-2,0.3c-1.2,0-1.2-19.6,0.5-23c1.8-3.4,3.1-18.7,2.4-23.4c-0.7-4.6-0.4-17.9-1.3-20.2c-0.9-2.3,1.1-3.6,1.1-3.6
			L147.6,325z"/>
		<path class="st181" d="M164.5,218.2c0,0,5.8,4.2,5.6,11.5l-4.3-0.9C165.8,228.8,167,220.8,164.5,218.2z"/>
		<path class="st181" d="M162.3,331.5c-13.3,0.4-20.5-5.5-20.5-5.5c0-1.9-0.1-3.1-0.1-3.1l20.1-2.8l18.4,5.1c0,0-0.6,5.8-1.7,13.3
			c-3.3,0.4-6.5-7.7-6.5-7.7l-9.2,0.6C162.8,331.4,175.6,331.1,162.3,331.5z"/>
		<path class="st210" d="M177.6,325.6c0,0-29,11.8-43-10.6c-0.4-0.6-0.6-1.4-0.6-2.2l0.2-5.2c0-0.7-0.1-1.3-0.3-1.9l0,0
			c-0.4-1.3-0.6-2.8-0.3-4.2c1.1-5.8,4-21.8,4.7-26.2c0.8-5.4-2-26.9-6.8-36.3c-4.7-9.2,7.4-29.9,7.4-29.9s3-4.8,8.8-3.2
			c0,0-5.6,3.9-2.5,8c3.1,4.1,12.2,7.5,12.2,7.5s17,8.8,22.8,19.5c0,0,2,5.6,2.2,12.6c0.2,7.1-0.6,24.2-0.3,26.6
			c0.3,2.4,1.2,18.7,1.1,19.4C183.1,300.3,177.6,325.6,177.6,325.6z"/>
		<linearGradient id="SVGID_8_" gradientUnits="userSpaceOnUse" x1="197.0272" y1="258.3497" x2="128.3618" y2="272.7874">
			<stop  offset="0" style="stop-color:#6E376E"/>
			<stop  offset="1" style="stop-color:#CA4B7C"/>
		</linearGradient>
		<path class="st53" d="M177.6,325.6c0,0-29,11.8-43-10.6c-0.4-0.6-0.6-1.4-0.6-2.2l0.2-5.2c0-0.7-0.1-1.3-0.3-1.9l0,0
			c-0.4-1.3-0.6-2.8-0.3-4.2c1.1-5.8,4-21.8,4.7-26.2c0.8-5.4-2-26.9-6.8-36.3c-4.7-9.2,7.4-29.9,7.4-29.9s3-4.8,8.8-3.2
			c0,0-5.6,3.9-2.5,8c3.1,4.1,12.2,7.5,12.2,7.5s17,8.8,22.8,19.5c0,0,2,5.6,2.2,12.6c0.2,7.1-0.6,24.2-0.3,26.6
			c0.3,2.4,1.2,18.7,1.1,19.4C183.1,300.3,177.6,325.6,177.6,325.6z"/>
		<g>
			<path class="st181" d="M145,209c-0.5-1.2-0.3-2.3,0.1-3.3c0.8,0,1.7,0,2.6,0.3C147.8,206,146,207.2,145,209z"/>
			<path class="st181" d="M168.8,328.1c0,0-17.1-46.1-16.3-62.9c0.8-16.3,24.9,33.1,24.9,33.1l0.1,27.4
				C177.6,325.6,172.1,327.7,168.8,328.1z"/>
		</g>
		<linearGradient id="SVGID_9_" gradientUnits="userSpaceOnUse" x1="152.3162" y1="288.76" x2="188.6749" y2="288.76">
			<stop  offset="0" style="stop-color:#6E376E"/>
			<stop  offset="1" style="stop-color:#CA4B7C"/>
		</linearGradient>
		<path class="st54" d="M178,273.6c-0.6-3.8-1-7.5-1-11.3c-0.1-6.6-1.9-17.4-13.8-15.6c-16.8,2.7-9.6,26.2-7.8,30.3
			c1.9,4.1,9.2,22.8,9.6,23.8c0.4,1,12,24.2,16.1,29.8c0.4,0.5,1,0.6,1.5,0.2c1.7-1.4,5.5-4.8,5.9-7c0.6-2.8-1.8-12.8-1.8-12.8
			s-6.5-25.1-7.1-26.3C179.3,283.8,179,279.7,178,273.6z"/>
		<path class="st207" d="M164.3,218.8c0,0,1.3-3,4.4-3.3c3.1-0.3,4.8-1.2,5.1-2.3c0.3-1.1,0.3-2.5,1.1-4.2c0.7-1.7,1.4-5.9,1.4-6
			c0-0.1,2.3-0.8,2.4-1.8c0.1-1-1.1-4.7-1-5c0.1-0.3,1.4-2.5,1.2-4.3c-0.2-1.7-0.4-4.3-1.3-6.4c-0.9-2.1-7.5-15.2-24.4-8.4
			c-17.2,6.8-4.1,21.2-5.8,30.5c0,0-1.5,2,1.3,5.3C151.5,216.1,159.6,216.9,164.3,218.8z"/>
		<path class="st213" d="M148.6,212.8c-2.8-3.3-1.3-5.3-1.3-5.3c0.2-1.3,0.2-2.7,0-4.2l6.7,1.3c0,0,9.9-8.8,9.2-4.1
			c-0.7,4.8,1.7,5.6,1.7,5.6l-2,2.6c-0.5,0.7-0.2,1.4,0.2,2.2c2.8,4.9,9.7,3.4,9.7,3.4c-0.9,0.6-2.3,1-4.2,1.2
			c-3.1,0.3-4.4,3.3-4.4,3.3C159.6,216.9,151.5,216.1,148.6,212.8z"/>
		<g>
			<path class="st211" d="M178.3,180.5c0,0,1.2,3.5-0.7,4.9c-1.9,1.5-3.7,2.9-3.7,2.9l0,4.4c0,0.6-0.2,1.3-0.5,1.8l-2.4,3.7
				c-0.5,0.7-0.7,1.6-0.7,2.4l0,1.8c0,0.5-0.4,1-0.9,1l-0.6,0.1c-0.6,0.1-1.1-0.4-1.1-0.9l-0.3-2.5c0,0-1.3-2-4.1,0.4l-2.5,1
				c-0.7,0.3-1.2,0.9-1.5,1.6c-0.7,1.9-2.2,5.7-3.3,6.4c-1.5,0.9-7.4-2.2-8.2-3.5c-0.8-1.3-2.8-10.3-4-14.6
				c-1.2-4.2-0.5-14.7,12.1-17.4C168.5,171.4,176.6,176.7,178.3,180.5z"/>
			<path class="st214" d="M147.8,206c-0.8-1.3-2.8-10.3-4-14.6c0,0,4.9,3.3,11.2,4.2c6.4,1,18.9-6.2,18.9-6.2l0,3.2
				c0,0.6-0.2,1.3-0.5,1.8l-2.4,3.7c-0.5,0.7-0.7,1.6-0.7,2.4l0,1.8c0,0.5-0.4,1-0.9,1l-0.6,0.1c-0.6,0.1-1.1-0.4-1.1-0.9l-0.3-2.5
				c0,0-1.3-2-4.1,0.4l-3.6,1.5c0,0-2.2,6.6-3.7,7.5C154.4,210.3,148.5,207.3,147.8,206z"/>
		</g>
		<path class="st206" d="M147.5,206.4c0,0-4.9,3-2.5,7.3c2.5,4.3,20.3,12,21.2,13.1c0,0,0.7-6.4-1.7-8.6c0,0-13.6-2.7-15.8-6.1
			C146.7,208.6,147.5,206.4,147.5,206.4z"/>
		<path class="st212" d="M147.5,206.4c0,0-0.8,2.2,1.3,5.7c1.6,2.6,9.8,4.8,13.7,5.7l0,0c0,0-1.4,0.8-3.9,4.9
			c-5.5-2.8-12.1-6.5-13.6-9C142.6,209.4,147.5,206.4,147.5,206.4z"/>
		<path class="st181" d="M144.2,220.1c0,0,7.9,4.5,11.8,6.6c3.9,2.1,8.1,4.8,8.1,4.8l1.5-1.5l1.8,3.9c0,0,6.1,3.7,8.9,6.7
			c2.9,3.1,5,7.1,5.3,8c0,0-7.6-10-13.6-12.9l-1.6-0.8l-0.9-3.1l-1.5,1.6C164,233.4,146.6,222.8,144.2,220.1z"/>
		<path class="st218" d="M164.7,354.8L164.7,354.8L164.7,354.8c0.3-0.7,0.6-1.3,1.1-1.7l32.7-27.4c0.9-0.7,1.7-0.2,1.9,1.2l3.8,31.9
			c0.2,1.5-0.4,3.3-1.3,4l-27.4,23.7l0.9,9.2l-8.2-3.8l0,0c-0.4-0.2-0.6-0.8-0.7-1.6l-3-33.4C164.3,356.4,164.4,355.5,164.7,354.8z"
			/>
		<path class="st218" d="M207.3,328.8l-7.7-3.3l-0.2-0.1c-0.3-0.1-0.6,0-0.9,0.3l-32.7,27.4c-0.4,0.4-0.8,1-1.1,1.7l1.2,0.6l0,0
			l6.6,3.2l28.6-24.5l0,0L207.3,328.8z"/>
		<path class="st203" d="M210.8,366.5l-33.4,29.1c-0.9,0.8-1.8,0.2-1.9-1.4l-3.2-33.5c-0.1-1.5,0.5-3.3,1.4-4l32.6-27.6
			c0.9-0.7,1.7-0.2,1.9,1.2l4,32.1C212.2,363.9,211.7,365.7,210.8,366.5z"/>
		<path class="st219" d="M210.8,366.5l-33.4,29.1c-0.9,0.8-1.8,0.2-1.9-1.4l-3.2-33.5c-0.1-1.5,0.5-3.3,1.4-4l32.6-27.6
			c0.9-0.7,1.7-0.2,1.9,1.2l4,32.1C212.2,363.9,211.7,365.7,210.8,366.5z"/>
		<path class="st220" d="M171.3,392.2l-3.1-33.4c-0.1-1.5,0.5-3.3,1.4-4l32.6-27.5c0.3-0.2,0.5-0.3,0.8-0.3c-0.3-0.1-0.7-0.1-1,0.3
			l-32.6,27.5c-0.9,0.8-1.5,2.6-1.4,4l3.1,33.4c0.1,1.1,0.5,1.7,1.1,1.7C171.7,393.7,171.4,393.1,171.3,392.2z"/>
		<g>
			<path class="st220" d="M183.3,343l-1.7-0.9c-0.4-0.2-0.8-0.3-1.1-0.2l-0.1,0c-0.2,0-0.3,0.2-0.2,0.5l0,0.3l4.8,2.4l0-0.3
				c0-0.3-0.2-0.6-0.4-0.8l-0.2-0.2C184.1,343.5,183.7,343.2,183.3,343z"/>
			<polygon class="st220" points="182.7,347.1 185,345.2 180.2,342.1 178,344 			"/>
			
				<linearGradient id="SVGID_10_" gradientUnits="userSpaceOnUse" x1="-2812.8713" y1="191.0423" x2="-2807.7957" y2="191.0423" gradientTransform="matrix(-0.9962 -8.730000e-02 -8.730000e-02 0.9962 -2602.6914 -90.1851)">
				<stop  offset="0" style="stop-color:#5761D7"/>
				<stop  offset="7.257640e-02" style="stop-color:#5472D8"/>
				<stop  offset="0.2791" style="stop-color:#4E9CDB"/>
				<stop  offset="0.4801" style="stop-color:#49BDDD"/>
				<stop  offset="0.6715" style="stop-color:#45D5DF"/>
				<stop  offset="0.8493" style="stop-color:#43E3E0"/>
				<stop  offset="1" style="stop-color:#42E8E0"/>
			</linearGradient>
			<path class="st55" d="M181,344.9l-1.7-0.9c-0.4-0.2-0.8-0.3-1.1-0.2l-0.1,0c-0.2,0-0.3,0.2-0.2,0.5l0,0.3l4.8,2.4l0-0.3
				c0-0.3-0.2-0.6-0.4-0.8l-0.2-0.2C181.8,345.5,181.4,345.1,181,344.9z"/>
			<polygon class="st222" points="180,345.8 179.8,344.4 180,344.4 180.1,345.8 			"/>
			<polygon class="st222" points="179.8,344.4 182.2,342.4 182.3,342.5 180,344.4 			"/>
		</g>
		<g>
			<path class="st220" d="M193.7,334.3l-1.7-0.8c-0.4-0.2-0.8-0.3-1.1-0.2l-0.1,0c-0.2,0-0.3,0.2-0.2,0.5l0,0.3l4.8,2.4l0-0.3
				c0-0.3-0.2-0.6-0.4-0.8l-0.2-0.2C194.4,334.8,194.1,334.5,193.7,334.3z"/>
			<polygon class="st220" points="193.1,338.4 195.4,336.4 190.6,333.4 188.4,335.3 			"/>
			
				<linearGradient id="SVGID_11_" gradientUnits="userSpaceOnUse" x1="-2822.4717" y1="181.4142" x2="-2817.408" y2="181.4142" gradientTransform="matrix(-0.9962 -8.730000e-02 -8.730000e-02 0.9962 -2602.6914 -90.1851)">
				<stop  offset="0" style="stop-color:#5761D7"/>
				<stop  offset="7.257640e-02" style="stop-color:#5472D8"/>
				<stop  offset="0.2791" style="stop-color:#4E9CDB"/>
				<stop  offset="0.4801" style="stop-color:#49BDDD"/>
				<stop  offset="0.6715" style="stop-color:#45D5DF"/>
				<stop  offset="0.8493" style="stop-color:#43E3E0"/>
				<stop  offset="1" style="stop-color:#42E8E0"/>
			</linearGradient>
			<path class="st56" d="M191.4,336.2l-1.7-0.8c-0.4-0.2-0.8-0.3-1.1-0.2l-0.1,0c-0.2,0-0.3,0.2-0.2,0.5l0,0.3l4.8,2.4l0-0.3
				c0-0.3-0.2-0.6-0.4-0.8l-0.2-0.2C192.2,336.7,191.8,336.4,191.4,336.2z"/>
			<polygon class="st222" points="190.4,337 190.2,335.6 190.4,335.7 190.5,337.1 			"/>
			<polygon class="st222" points="190.2,335.6 192.6,333.7 192.7,333.8 190.4,335.7 			"/>
		</g>
		<path class="st210" d="M178.9,337.7l0.6,6l1.5-1.3l-0.6-5.8c-0.1-0.8,0.3-1.9,0.9-2.4l6.6-5.6c0.6-0.5,1.1-0.2,1.2,0.6l0.6,5.7
			l1.5-1.3l-0.7-5.9c-0.2-1.8-1.4-2.4-2.7-1.3l-7.1,5.9C179.6,333.4,178.7,335.8,178.9,337.7z"/>
		<path class="st210" d="M190.4,328.2l-2.7-0.3l-7.9,7.4l-0.3,4.6l0.2,3.8l1.8,0.9l0.1-4.7l0.1-3.2l1.6-2.3c0,0,3-2.4,3-2.5
			C186.1,331.6,190.4,328.2,190.4,328.2z"/>
		<polygon class="st210" points="191.7,335.8 189.9,334.9 189.4,330.7 191.1,330.8 191.6,330.9 		"/>
		<path class="st210" d="M191.6,326.9l-1.9-0.9c0,0,0.5,1,0.5,1c0,0,0.6,0.2,0.6,0.2C190.9,327.2,191.6,326.9,191.6,326.9z"/>
		<path class="st220" d="M180.7,338.6l0.6,6l1.5-1.3l-0.6-5.8c-0.1-0.8,0.3-1.9,0.9-2.4l6.6-5.6c0.6-0.5,1.1-0.2,1.2,0.6l0.6,5.7
			l1.5-1.3l-0.7-5.9c-0.2-1.8-1.4-2.4-2.7-1.4l-7.1,5.9C181.4,334.3,180.5,336.7,180.7,338.6z"/>
		<path class="st207" d="M188.1,323.5c0,0,1.1,5.8,0.8,7.3c-0.3,1.5-3.1,4.3-4.8,4.8c-1.7,0.5-1-1.5-1.4-2.7c-0.4-1.3-0.3-4-0.3-4
			L188.1,323.5z"/>
		<path class="st213" d="M182.4,328.9l5.7-5.3c0,0,0.2,1.2,0.5,2.6c0,0-2.1,4.3-5.9,6C182.4,330.9,182.4,328.9,182.4,328.9z"/>
		<linearGradient id="SVGID_12_" gradientUnits="userSpaceOnUse" x1="181.4895" y1="326.8079" x2="188.5167" y2="326.8079">
			<stop  offset="0" style="stop-color:#6E376E"/>
			<stop  offset="1" style="stop-color:#CA4B7C"/>
		</linearGradient>
		<path class="st57" d="M188.5,324c0,0-2,6.3-7,6.9l1.7-6.9c0,0,4.2-1.2,4.4-1.2C187.7,322.8,188.5,324,188.5,324z"/>
	</g>
</g>
</svg>
