<?xml version="1.0" encoding="utf-8"?>
<!-- Generator: Adobe Illustrator 22.1.0, SVG Export Plug-In . SVG Version: 6.00 Build 0)  -->
<svg version="1.1" id="Layer_1" xmlns="http://www.w3.org/2000/svg" xmlns:xlink="http://www.w3.org/1999/xlink" x="0px" y="0px"
	 viewBox="0 0 841.9 595.3" style="enable-background:new 0 0 841.9 595.3;" xml:space="preserve">
<style type="text/css">
	.st0{fill:#FFFFFF;stroke:#FFD071;stroke-width:10;stroke-miterlimit:10;}
	.st1{fill:#F17171;}
	.st2{fill:#EE4D4D;}
	.st3{fill:#D64545;}
	.st4{fill:#71D0FF;}
	.st5{fill:#4DC4FF;}
	.st6{fill:#45B0E5;}
	.st7{fill:#FFA071;}
	.st8{fill:#FF884D;}
	.st9{fill:#E57A45;}
	.st10{fill:#7EA9FF;}
	.st11{fill:#5E94FF;}
	.st12{fill:#5485E5;}
	.st13{fill:#FFD071;}
	.st14{fill:#FFC44D;}
	.st15{fill:#E5B045;}
	.st16{fill:#B38DFF;}
	.st17{fill:#A071FF;}
	.st18{fill:#9065E5;}
	.st19{fill:#A2D471;}
	.st20{fill:#8BC94D;}
	.st21{fill:#7DB545;}
	.st22{fill:#FF71B7;}
	.st23{fill:#FF4DA5;}
	.st24{fill:#E54594;}
	.st25{fill:#71E2D0;}
	.st26{fill:#4DDBC4;}
	.st27{fill:#45C5B0;}
	.st28{fill:#A2ADB8;}
	.st29{fill:#8B98A6;}
	.st30{fill:#7D8995;}
	.st31{fill:#FFFFFF;stroke:#A2D471;stroke-width:10;stroke-miterlimit:10;}
	.st32{fill:#FFFFFF;stroke:#FFA071;stroke-width:10;stroke-miterlimit:10;}
	.st33{fill:#FFFFFF;stroke:#71D0FF;stroke-width:10;stroke-miterlimit:10;}
	.st34{fill:#C2A49D;}
	.st35{fill:#CDAD8A;}
	.st36{fill:#A48465;}
	.st37{fill:#F0CFA8;}
	.st38{fill:#F0DCC5;}
	.st39{fill:#7F6B59;}
	.st40{fill:#E6D3BD;}
	.st41{fill:#B29778;}
	.st42{fill:#E0C5A4;}
	.st43{fill:url(#SVGID_1_);}
	.st44{fill:#C5B9AB;}
	.st45{fill:url(#SVGID_2_);}
	.st46{fill:url(#SVGID_3_);}
	.st47{fill:url(#SVGID_4_);}
	.st48{fill:url(#SVGID_5_);}
	.st49{fill:url(#SVGID_6_);}
	.st50{fill:url(#SVGID_7_);}
	.st51{opacity:0.3;fill:#C2A49D;}
	.st52{fill:#BB9673;}
	.st53{fill:url(#SVGID_8_);}
	.st54{fill:url(#SVGID_9_);}
	.st55{fill:url(#SVGID_10_);}
	.st56{fill:url(#SVGID_11_);}
	.st57{fill:url(#SVGID_12_);}
	.st58{fill:url(#SVGID_13_);}
	.st59{fill:#8F6E4F;}
	.st60{fill:url(#SVGID_14_);}
	.st61{fill:url(#SVGID_15_);}
	.st62{fill:url(#SVGID_16_);}
	.st63{fill:url(#SVGID_17_);}
	.st64{fill:url(#SVGID_18_);}
	.st65{fill:url(#SVGID_19_);}
	.st66{fill:url(#SVGID_20_);}
	.st67{fill:url(#SVGID_21_);}
	.st68{fill:url(#SVGID_22_);}
	.st69{fill:url(#SVGID_23_);}
	.st70{fill:url(#SVGID_24_);}
	.st71{fill:url(#SVGID_25_);}
	.st72{fill:url(#SVGID_26_);}
	.st73{fill:url(#SVGID_27_);}
	.st74{fill:url(#SVGID_28_);}
	.st75{fill:url(#SVGID_29_);}
	.st76{fill:url(#SVGID_30_);}
	.st77{fill:url(#SVGID_31_);}
	.st78{fill:url(#SVGID_32_);}
	.st79{fill:url(#SVGID_33_);}
	.st80{fill:url(#SVGID_34_);}
	.st81{fill:url(#SVGID_35_);}
	.st82{fill:url(#SVGID_36_);}
	.st83{fill:url(#SVGID_37_);}
	.st84{fill:url(#SVGID_38_);}
	.st85{fill:url(#SVGID_39_);}
	.st86{fill:#FFFFFF;stroke:#F17171;stroke-width:10;stroke-miterlimit:10;}
	.st87{fill:url(#SVGID_40_);}
	.st88{fill:url(#SVGID_41_);}
	.st89{fill:url(#SVGID_42_);}
	.st90{fill:url(#SVGID_43_);}
	.st91{fill:url(#SVGID_44_);}
	.st92{fill:url(#SVGID_45_);}
	.st93{fill:url(#SVGID_46_);}
	.st94{fill:url(#SVGID_47_);}
	.st95{fill:url(#SVGID_48_);}
	.st96{fill:url(#SVGID_49_);}
	.st97{fill:url(#SVGID_50_);}
	.st98{fill:url(#SVGID_51_);}
	.st99{fill:url(#SVGID_52_);}
	.st100{fill:url(#SVGID_53_);}
	.st101{fill:url(#SVGID_54_);}
	.st102{fill:url(#SVGID_55_);}
	.st103{fill:url(#SVGID_56_);}
	.st104{fill:url(#SVGID_57_);}
	.st105{fill:url(#SVGID_58_);}
	.st106{fill:url(#SVGID_59_);}
	.st107{fill:url(#SVGID_60_);}
	.st108{fill:url(#SVGID_61_);}
	.st109{fill:url(#SVGID_62_);}
	.st110{fill:url(#SVGID_63_);}
	.st111{fill:url(#SVGID_64_);}
	.st112{fill:url(#SVGID_65_);}
	.st113{opacity:0.3;fill:url(#SVGID_66_);}
	.st114{opacity:0.3;fill:url(#SVGID_67_);}
	.st115{opacity:0.3;fill:url(#SVGID_68_);}
	.st116{opacity:0.3;fill:url(#SVGID_69_);}
	.st117{fill:url(#SVGID_70_);}
	.st118{fill:url(#SVGID_71_);}
	.st119{fill:url(#SVGID_72_);}
	.st120{fill:url(#SVGID_73_);}
	.st121{fill:url(#SVGID_74_);}
	.st122{fill:url(#SVGID_75_);}
	.st123{fill:url(#SVGID_76_);}
	.st124{fill:url(#SVGID_77_);}
	.st125{fill:url(#SVGID_78_);}
	.st126{fill:url(#SVGID_79_);}
	.st127{fill:url(#SVGID_80_);}
	.st128{fill:url(#SVGID_81_);}
	.st129{fill:url(#SVGID_82_);}
	.st130{fill:url(#SVGID_83_);}
	.st131{fill:#595959;}
	.st132{fill:#C1C1C1;}
	.st133{fill:#DDDDDD;}
	.st134{fill:#AFAFAF;}
	.st135{fill:#A5A5A5;}
	.st136{fill:#EF8E2E;}
	.st137{fill:#FFA357;}
	.st138{fill:#FFBE83;}
	.st139{fill:#FFB176;}
	.st140{fill:#3F3F3F;}
	.st141{fill:#CECECE;}
	.st142{fill:#D8D8D8;}
	.st143{fill:#EAEAEA;}
	.st144{fill:#F9D5B2;}
	.st145{fill:#E8B679;}
	.st146{fill:#F2C18B;}
	.st147{opacity:0.5;fill:#AFAFAF;}
	.st148{fill:#7C5045;}
	.st149{fill:#684337;}
	.st150{fill:#8C5D54;}
	.st151{fill:#56352C;}
	.st152{fill:#4D4D4D;}
	.st153{fill:#444444;}
	.st154{fill:#303030;}
	.st155{fill:#494949;}
	.st156{fill:#969696;}
	.st157{fill:#FFFFFF;}
	.st158{fill:#383838;}
	.st159{fill:#262626;}
	.st160{fill:#FFA543;}
	.st161{fill:#DD7A22;}
	.st162{fill:#BBBBBB;}
	.st163{fill:#FCB275;}
	.st164{fill:#FFB061;}
	.st165{fill:#D87923;}
	.st166{fill:#CCCCCC;}
	.st167{fill:#EDEDED;}
	.st168{fill:#5B5B5B;}
	.st169{fill:#59362D;}
	.st170{fill:#F4F4F4;}
	.st171{fill:#F93D3D;}
	.st172{fill:#FF5252;}
	.st173{fill:#FF6E6E;}
	.st174{fill:url(#SVGID_84_);}
	.st175{fill:url(#SVGID_85_);}
	.st176{fill:url(#SVGID_86_);}
	.st177{fill:url(#SVGID_87_);}
	.st178{fill:url(#SVGID_88_);}
	.st179{fill:#A77860;}
	.st180{fill:#EEA886;}
	.st181{fill:#2C3144;}
	.st182{fill:url(#SVGID_89_);}
	.st183{fill:url(#SVGID_90_);}
	.st184{fill:url(#SVGID_91_);}
	.st185{opacity:0.3;fill:url(#SVGID_92_);}
	.st186{fill:#DECBC4;}
	.st187{fill:#495055;}
	.st188{fill:#353A3D;}
	.st189{fill:url(#SVGID_93_);}
	.st190{fill:url(#SVGID_94_);}
	.st191{fill:url(#SVGID_95_);}
	.st192{fill:url(#SVGID_96_);}
	.st193{fill:#F5E2D9;}
	.st194{fill:#AD9F99;}
	.st195{fill:#69737A;}
	.st196{fill:url(#SVGID_97_);}
	.st197{fill:#2D3133;}
	.st198{fill:url(#SVGID_98_);}
	.st199{opacity:0.3;fill:url(#SVGID_99_);}
	.st200{opacity:0.3;fill:url(#SVGID_100_);}
	.st201{fill:url(#SVGID_101_);}
	.st202{fill:url(#SVGID_102_);}
	.st203{fill:#24126A;}
	.st204{fill:url(#SVGID_103_);}
	.st205{fill:url(#SVGID_104_);}
	.st206{fill:#F0F6FF;}
	.st207{fill:#FCD1C5;}
	.st208{fill:url(#SVGID_105_);}
	.st209{fill:url(#SVGID_106_);}
	.st210{fill:#453C9E;}
	.st211{fill:#AA8383;}
	.st212{fill:#C4CCD6;}
	.st213{fill:#E2B1A6;}
	.st214{fill:#936D6D;}
	.st215{fill:url(#SVGID_107_);}
	.st216{fill:url(#SVGID_108_);}
	.st217{fill:url(#SVGID_109_);}
	.st218{fill:#CA4B7C;}
	.st219{fill:#6E376E;}
	.st220{fill:#160A5B;}
	.st221{fill:url(#SVGID_110_);}
	.st222{fill:#722318;}
	.st223{fill:url(#SVGID_111_);}
	.st224{fill:url(#SVGID_112_);}
	.st225{fill:url(#SVGID_113_);}
	.st226{fill:url(#SVGID_114_);}
	.st227{fill:url(#SVGID_115_);}
	.st228{fill:url(#SVGID_116_);}
	.st229{fill:url(#SVGID_117_);}
	.st230{fill:url(#SVGID_118_);}
	.st231{fill:url(#SVGID_119_);}
	.st232{fill:url(#SVGID_120_);}
	.st233{fill:url(#SVGID_121_);}
	.st234{fill:url(#SVGID_122_);}
	.st235{fill:url(#SVGID_123_);}
	.st236{fill:url(#SVGID_124_);}
	.st237{fill:url(#SVGID_125_);}
	.st238{fill:url(#SVGID_126_);}
	.st239{fill:url(#SVGID_127_);}
	.st240{fill:url(#SVGID_128_);}
	.st241{fill:url(#SVGID_129_);}
	.st242{fill:url(#SVGID_130_);}
	.st243{fill:url(#SVGID_131_);}
	.st244{fill:url(#SVGID_132_);}
	.st245{fill:url(#SVGID_133_);}
	.st246{fill:url(#SVGID_134_);}
	.st247{fill:url(#SVGID_135_);}
	.st248{fill:url(#SVGID_136_);}
	.st249{fill:url(#SVGID_137_);}
	.st250{fill:url(#SVGID_138_);}
	.st251{fill:url(#SVGID_139_);}
	.st252{fill:url(#SVGID_140_);}
	.st253{fill:url(#SVGID_141_);}
	.st254{fill:url(#SVGID_142_);}
	.st255{fill:url(#SVGID_143_);}
	.st256{fill:url(#SVGID_144_);}
	.st257{fill:url(#SVGID_145_);}
	.st258{fill:url(#SVGID_146_);}
	.st259{fill:url(#SVGID_147_);}
	.st260{fill:url(#SVGID_148_);}
	.st261{fill:url(#SVGID_149_);}
	.st262{fill:url(#SVGID_150_);}
	.st263{fill:url(#SVGID_151_);}
	.st264{fill:url(#SVGID_152_);}
	.st265{fill:url(#SVGID_153_);}
	.st266{fill:url(#SVGID_154_);}
	.st267{fill:url(#SVGID_155_);}
	.st268{fill:url(#SVGID_156_);}
	.st269{fill:url(#SVGID_157_);}
	.st270{fill:url(#SVGID_158_);}
	.st271{fill:url(#SVGID_159_);}
	.st272{fill:url(#SVGID_160_);}
	.st273{fill:url(#SVGID_161_);}
	.st274{fill:url(#SVGID_162_);}
	.st275{fill:url(#SVGID_163_);}
	.st276{fill:url(#SVGID_164_);}
	.st277{fill:url(#SVGID_165_);}
	.st278{fill:url(#SVGID_166_);}
	.st279{fill:url(#SVGID_167_);}
	.st280{fill:url(#SVGID_168_);}
	.st281{fill:url(#SVGID_169_);}
	.st282{fill:url(#SVGID_170_);}
	.st283{fill:url(#SVGID_171_);}
	.st284{fill:url(#SVGID_172_);}
	.st285{fill:#BBD070;}
	.st286{fill:#97A43C;}
	.st287{fill:#48753A;}
	.st288{fill:url(#SVGID_173_);}
	.st289{fill:url(#SVGID_174_);}
	.st290{fill:url(#SVGID_175_);}
	.st291{fill:url(#SVGID_176_);}
	.st292{fill:url(#SVGID_177_);}
	.st293{fill:url(#SVGID_178_);}
	.st294{fill:url(#SVGID_179_);}
	.st295{fill:url(#SVGID_180_);}
	.st296{fill:#E3F2FF;}
	.st297{fill:url(#SVGID_181_);}
	.st298{fill:url(#SVGID_182_);}
	.st299{opacity:0.58;}
	.st300{fill:#E0F1FF;}
	.st301{fill:url(#SVGID_183_);}
	.st302{fill:url(#SVGID_184_);}
	.st303{fill:url(#SVGID_185_);}
	.st304{fill:#1D3B54;}
	.st305{fill:#D4D8E8;}
	.st306{fill:#A9ADBA;}
	.st307{fill:#E8734D;}
	.st308{fill:url(#SVGID_186_);}
	.st309{fill:url(#SVGID_187_);}
	.st310{fill:url(#SVGID_188_);}
	.st311{fill:url(#SVGID_189_);}
	.st312{fill:#FE9D82;}
	.st313{fill:url(#SVGID_190_);}
	.st314{fill:url(#SVGID_191_);}
	.st315{fill:url(#SVGID_192_);}
	.st316{fill:url(#SVGID_193_);}
	.st317{fill:url(#SVGID_194_);}
	.st318{fill:url(#SVGID_195_);}
	.st319{fill:url(#SVGID_196_);}
	.st320{fill:url(#SVGID_197_);}
	.st321{fill:url(#SVGID_198_);}
	.st322{fill:url(#SVGID_199_);}
	.st323{fill:url(#SVGID_200_);}
	.st324{fill:url(#SVGID_201_);}
	.st325{fill:url(#SVGID_202_);}
	.st326{fill:url(#SVGID_203_);}
	.st327{fill:url(#SVGID_204_);}
	.st328{fill:url(#SVGID_205_);}
	.st329{fill:url(#SVGID_206_);}
	.st330{fill:url(#SVGID_207_);}
	.st331{fill:url(#SVGID_208_);}
	.st332{fill:url(#SVGID_209_);}
	.st333{fill:url(#SVGID_210_);}
	.st334{fill:url(#SVGID_211_);}
	.st335{fill:url(#SVGID_212_);}
	.st336{fill:url(#SVGID_213_);}
	.st337{fill:url(#SVGID_214_);}
	.st338{fill:url(#SVGID_215_);}
	.st339{fill:url(#SVGID_216_);}
	.st340{fill:url(#SVGID_217_);}
	.st341{fill:url(#SVGID_218_);}
	.st342{fill:url(#SVGID_219_);}
	.st343{fill:url(#SVGID_220_);}
	.st344{fill:url(#SVGID_221_);}
	.st345{fill:url(#SVGID_222_);}
	.st346{fill:url(#SVGID_223_);}
	.st347{fill:url(#SVGID_224_);}
	.st348{fill:url(#SVGID_225_);}
	.st349{fill:url(#SVGID_226_);}
	.st350{fill:url(#SVGID_227_);}
	.st351{fill:url(#SVGID_228_);}
	.st352{fill:url(#SVGID_229_);}
	.st353{fill:url(#SVGID_230_);}
	.st354{fill:url(#SVGID_231_);}
	.st355{fill:url(#SVGID_232_);}
	.st356{fill:url(#SVGID_233_);}
	.st357{fill:url(#SVGID_234_);}
	.st358{fill:url(#SVGID_235_);}
	.st359{fill:url(#SVGID_236_);}
	.st360{fill:url(#SVGID_237_);}
	.st361{fill:url(#SVGID_238_);}
	.st362{fill:url(#SVGID_239_);}
	.st363{fill:url(#SVGID_240_);}
	.st364{fill:url(#SVGID_241_);}
	.st365{fill:url(#SVGID_242_);}
	.st366{fill:url(#SVGID_243_);}
	.st367{fill:url(#SVGID_244_);}
	.st368{fill:url(#SVGID_245_);}
	.st369{fill:url(#SVGID_246_);}
	.st370{fill:url(#SVGID_247_);}
	.st371{fill:url(#SVGID_248_);}
	.st372{fill:url(#SVGID_249_);}
	.st373{fill:url(#SVGID_250_);}
	.st374{fill:url(#SVGID_251_);}
	.st375{fill:url(#SVGID_252_);}
	.st376{fill:url(#SVGID_253_);}
	.st377{fill:url(#SVGID_254_);}
	.st378{fill:url(#SVGID_255_);}
	.st379{fill:url(#SVGID_256_);}
	.st380{fill:url(#SVGID_257_);}
	.st381{fill:url(#SVGID_258_);}
	.st382{fill:url(#SVGID_259_);}
	.st383{fill:url(#SVGID_260_);}
	.st384{fill:url(#SVGID_261_);}
	.st385{fill:url(#SVGID_262_);}
	.st386{fill:url(#SVGID_263_);}
	.st387{fill:url(#SVGID_264_);}
	.st388{fill:url(#SVGID_265_);}
	.st389{fill:url(#SVGID_266_);}
	.st390{fill:url(#SVGID_267_);}
	.st391{fill:url(#SVGID_268_);}
	.st392{fill:url(#SVGID_269_);}
	.st393{fill:url(#SVGID_270_);}
	.st394{fill:url(#SVGID_271_);}
	.st395{fill:url(#SVGID_272_);}
	.st396{fill:url(#SVGID_273_);}
	.st397{fill:url(#SVGID_274_);}
	.st398{fill:url(#SVGID_275_);}
	.st399{fill:url(#SVGID_276_);}
	.st400{fill:url(#SVGID_277_);}
	.st401{fill:url(#SVGID_278_);}
	.st402{fill:url(#SVGID_279_);}
	.st403{fill:url(#SVGID_280_);}
	.st404{fill:url(#SVGID_281_);}
	.st405{fill:url(#SVGID_282_);}
	.st406{fill:url(#SVGID_283_);}
	.st407{fill:url(#SVGID_284_);}
	.st408{fill:url(#SVGID_285_);}
	.st409{fill:url(#SVGID_286_);}
	.st410{fill:url(#SVGID_287_);}
	.st411{fill:url(#SVGID_288_);}
	.st412{fill:url(#SVGID_289_);}
	.st413{fill:url(#SVGID_290_);}
	.st414{fill:url(#SVGID_291_);}
	.st415{fill:url(#SVGID_292_);}
	.st416{fill:url(#SVGID_293_);}
	.st417{fill:url(#SVGID_294_);}
	.st418{fill:url(#SVGID_295_);}
	.st419{fill:url(#SVGID_296_);}
	.st420{fill:url(#SVGID_297_);}
	.st421{fill:url(#SVGID_298_);}
	.st422{fill:url(#SVGID_299_);}
	.st423{fill:url(#SVGID_300_);}
	.st424{fill:url(#SVGID_301_);}
	.st425{fill:url(#SVGID_302_);}
	.st426{fill:url(#SVGID_303_);}
	.st427{fill:url(#SVGID_304_);}
	.st428{opacity:0.3;fill:url(#SVGID_305_);}
	.st429{fill:#E7E7E7;}
	.st430{fill:url(#SVGID_306_);}
	.st431{fill:url(#SVGID_307_);}
	.st432{fill:url(#SVGID_308_);}
	.st433{fill:url(#SVGID_309_);}
	.st434{fill:url(#SVGID_310_);}
	.st435{fill:url(#SVGID_311_);}
	.st436{fill:url(#SVGID_312_);}
	.st437{fill:url(#_x3C_Path_x3E__1_);}
	.st438{fill:#007CFF;}
	.st439{fill:url(#SVGID_313_);}
	.st440{opacity:0.4;}
	.st441{opacity:0.6;fill:url(#SVGID_314_);}
	.st442{opacity:0.6;fill:url(#SVGID_315_);}
	.st443{opacity:0.6;fill:url(#SVGID_316_);}
	.st444{opacity:0.6;fill:url(#SVGID_317_);}
	.st445{opacity:0.6;fill:url(#SVGID_318_);}
	.st446{opacity:0.6;fill:url(#SVGID_319_);}
	.st447{opacity:0.6;fill:url(#SVGID_320_);}
	.st448{opacity:0.6;fill:url(#SVGID_321_);}
	.st449{opacity:0.6;fill:url(#SVGID_322_);}
	.st450{opacity:0.6;fill:url(#SVGID_323_);}
	.st451{opacity:0.6;fill:url(#SVGID_324_);}
	.st452{opacity:0.6;fill:url(#SVGID_325_);}
	.st453{opacity:0.6;fill:url(#SVGID_326_);}
	.st454{fill:url(#SVGID_327_);}
	.st455{fill:url(#SVGID_328_);}
	.st456{fill:url(#SVGID_329_);}
	.st457{opacity:0.6;fill:url(#SVGID_330_);}
	.st458{opacity:0.5;fill:#FFFFFF;}
	.st459{fill:url(#SVGID_331_);}
	.st460{fill:#1A2E35;}
	.st461{fill:url(#SVGID_332_);}
	.st462{fill:#FFC3BD;}
	.st463{fill:#FF847F;}
	.st464{opacity:0.2;}
	.st465{opacity:0.8;fill:#1A2E35;}
	.st466{fill:url(#SVGID_333_);}
	.st467{opacity:0.3;}
	.st468{fill:url(#SVGID_334_);}
	.st469{fill:url(#SVGID_335_);}
	.st470{fill:none;stroke:url(#SVGID_336_);stroke-miterlimit:10;}
	.st471{fill:none;stroke:url(#SVGID_337_);stroke-miterlimit:10;}
	.st472{fill:none;stroke:url(#SVGID_338_);stroke-miterlimit:10;}
	.st473{fill:none;stroke:url(#SVGID_339_);stroke-miterlimit:10;}
	.st474{fill:none;stroke:url(#SVGID_340_);stroke-miterlimit:10;}
	.st475{fill:url(#SVGID_341_);}
	.st476{fill:url(#SVGID_342_);}
	.st477{fill:url(#SVGID_343_);}
	.st478{fill:url(#SVGID_344_);}
	.st479{fill:url(#SVGID_345_);}
	.st480{fill:url(#SVGID_346_);}
	.st481{fill:url(#SVGID_347_);}
	.st482{fill:url(#SVGID_348_);}
	.st483{fill:url(#SVGID_349_);}
	.st484{fill:url(#SVGID_350_);}
	.st485{fill:url(#SVGID_351_);}
	.st486{fill:none;stroke:url(#SVGID_352_);stroke-miterlimit:10;}
	.st487{fill:none;stroke:url(#SVGID_353_);stroke-miterlimit:10;}
	.st488{fill:none;stroke:url(#SVGID_354_);stroke-miterlimit:10;}
	.st489{fill:none;stroke:url(#SVGID_355_);stroke-miterlimit:10;}
	.st490{fill:none;stroke:url(#SVGID_356_);stroke-miterlimit:10;}
	.st491{fill:url(#SVGID_357_);}
	.st492{fill:url(#SVGID_358_);}
	.st493{fill:url(#SVGID_359_);}
	.st494{fill:url(#SVGID_360_);}
	.st495{fill:url(#SVGID_361_);}
	.st496{fill:url(#SVGID_362_);}
	.st497{fill:url(#SVGID_363_);}
	.st498{fill:url(#SVGID_364_);}
	.st499{fill:url(#SVGID_365_);}
	.st500{fill:url(#SVGID_366_);}
	.st501{fill:url(#SVGID_367_);}
	.st502{fill:none;stroke:url(#SVGID_368_);stroke-miterlimit:10;}
	.st503{fill:none;stroke:url(#SVGID_369_);stroke-miterlimit:10;}
	.st504{fill:none;stroke:url(#SVGID_370_);stroke-miterlimit:10;}
	.st505{fill:none;stroke:url(#SVGID_371_);stroke-miterlimit:10;}
	.st506{fill:none;stroke:url(#SVGID_372_);stroke-miterlimit:10;}
	.st507{fill:url(#SVGID_373_);}
	.st508{fill:url(#SVGID_374_);}
	.st509{fill:url(#SVGID_375_);}
	.st510{fill:url(#SVGID_376_);}
	.st511{fill:url(#SVGID_377_);}
	.st512{fill:url(#SVGID_378_);}
	.st513{fill:url(#SVGID_379_);}
	.st514{fill:url(#SVGID_380_);}
	.st515{fill:url(#SVGID_381_);}
	.st516{fill:url(#SVGID_382_);}
	.st517{fill:url(#SVGID_383_);}
	.st518{fill:none;stroke:url(#SVGID_384_);stroke-miterlimit:10;}
	.st519{fill:none;stroke:url(#SVGID_385_);stroke-miterlimit:10;}
	.st520{fill:none;stroke:url(#SVGID_386_);stroke-miterlimit:10;}
	.st521{fill:none;stroke:url(#SVGID_387_);stroke-miterlimit:10;}
	.st522{fill:none;stroke:url(#SVGID_388_);stroke-miterlimit:10;}
	.st523{fill:url(#SVGID_389_);}
	.st524{fill:url(#SVGID_390_);}
	.st525{fill:url(#SVGID_391_);}
	.st526{fill:url(#SVGID_392_);}
	.st527{fill:url(#SVGID_393_);}
	.st528{fill:url(#SVGID_394_);}
	.st529{fill:url(#SVGID_395_);}
	.st530{fill:url(#SVGID_396_);}
	.st531{fill:url(#SVGID_397_);}
	.st532{fill:url(#SVGID_398_);}
	.st533{fill:url(#SVGID_399_);}
	.st534{fill:none;stroke:url(#SVGID_400_);stroke-miterlimit:10;}
	.st535{fill:none;stroke:url(#SVGID_401_);stroke-miterlimit:10;}
	.st536{fill:none;stroke:url(#SVGID_402_);stroke-miterlimit:10;}
	.st537{fill:none;stroke:url(#SVGID_403_);stroke-miterlimit:10;}
	.st538{fill:none;stroke:url(#SVGID_404_);stroke-miterlimit:10;}
	.st539{fill:url(#SVGID_405_);}
	.st540{fill:url(#SVGID_406_);}
	.st541{fill:url(#SVGID_407_);}
	.st542{fill:url(#SVGID_408_);}
	.st543{fill:url(#SVGID_409_);}
	.st544{fill:url(#SVGID_410_);}
	.st545{fill:url(#SVGID_411_);}
	.st546{fill:url(#SVGID_412_);}
	.st547{fill:url(#SVGID_413_);}
	.st548{fill:url(#SVGID_414_);}
	.st549{fill:url(#SVGID_415_);}
	.st550{fill:none;stroke:url(#SVGID_416_);stroke-miterlimit:10;}
	.st551{fill:none;stroke:url(#SVGID_417_);stroke-miterlimit:10;}
	.st552{fill:none;stroke:url(#SVGID_418_);stroke-miterlimit:10;}
	.st553{fill:none;stroke:url(#SVGID_419_);stroke-miterlimit:10;}
	.st554{fill:none;stroke:url(#SVGID_420_);stroke-miterlimit:10;}
	.st555{fill:url(#SVGID_421_);}
	.st556{fill:url(#SVGID_422_);}
	.st557{fill:url(#SVGID_423_);}
	.st558{fill:url(#SVGID_424_);}
	.st559{fill:url(#SVGID_425_);}
	.st560{fill:url(#SVGID_426_);}
	.st561{fill:url(#SVGID_427_);}
	.st562{fill:url(#SVGID_428_);}
	.st563{fill:url(#SVGID_429_);}
	.st564{fill:url(#SVGID_430_);}
	.st565{fill:url(#SVGID_431_);}
	.st566{opacity:0.1;}
	.st567{fill:url(#SVGID_432_);}
	.st568{fill:url(#SVGID_433_);}
	.st569{fill:url(#SVGID_434_);}
	.st570{fill:url(#SVGID_435_);}
	.st571{fill:url(#SVGID_436_);}
	.st572{fill:url(#SVGID_437_);}
	.st573{fill:url(#SVGID_438_);}
	.st574{fill:url(#SVGID_439_);}
	.st575{fill:#E9EAF4;}
	.st576{fill:none;stroke:#CCC1E0;stroke-width:0.9846;stroke-miterlimit:10;}
	.st577{fill:#CCC1E0;}
	.st578{opacity:0.3;fill:#C8CAD7;}
	.st579{fill:none;stroke:#CCC1E0;stroke-width:1.1787;stroke-miterlimit:10;}
	.st580{fill:url(#SVGID_440_);}
	.st581{fill:url(#SVGID_441_);}
	.st582{fill:#FFB69B;}
	.st583{opacity:5.000000e-02;}
	.st584{fill:#75524F;}
	.st585{fill:#EBA88F;}
	.st586{fill:#8E6863;}
	.st587{fill:#89605C;}
	.st588{fill:#A27771;}
	.st589{fill:#1E212E;}
	.st590{fill:#FF748E;}
	.st591{fill:url(#SVGID_442_);}
	.st592{fill:#6E6B87;}
	.st593{fill:url(#SVGID_443_);}
	.st594{fill:#F26886;}
	.st595{fill:url(#SVGID_444_);}
	.st596{fill:url(#SVGID_445_);}
	.st597{fill:url(#SVGID_446_);}
	.st598{fill:url(#SVGID_447_);}
	.st599{fill:url(#SVGID_448_);}
	.st600{fill:url(#SVGID_449_);}
	.st601{fill:url(#SVGID_450_);}
	.st602{fill:url(#SVGID_451_);}
	.st603{fill:url(#SVGID_452_);}
	.st604{fill:url(#SVGID_453_);}
	.st605{fill:url(#SVGID_454_);}
	.st606{fill:url(#SVGID_455_);}
	.st607{fill:url(#SVGID_456_);}
	.st608{fill:url(#SVGID_457_);}
	.st609{fill:url(#SVGID_458_);}
	.st610{fill:url(#SVGID_459_);}
	.st611{fill:url(#SVGID_460_);}
	.st612{fill:url(#SVGID_461_);}
	.st613{fill:url(#SVGID_462_);}
	.st614{fill:url(#SVGID_463_);}
	.st615{fill:url(#SVGID_464_);}
	.st616{fill:url(#SVGID_465_);}
	.st617{fill:url(#SVGID_466_);}
	.st618{fill:url(#SVGID_467_);}
	.st619{fill:url(#SVGID_468_);}
	.st620{fill:url(#SVGID_469_);}
	.st621{fill:url(#SVGID_470_);}
	.st622{fill:url(#SVGID_471_);}
	.st623{fill:url(#SVGID_472_);}
	.st624{fill:url(#SVGID_473_);}
	.st625{fill:url(#SVGID_474_);}
	.st626{fill:url(#SVGID_475_);}
	.st627{fill:url(#SVGID_476_);}
	.st628{fill:url(#SVGID_477_);}
	.st629{fill:url(#SVGID_478_);}
	.st630{fill:url(#SVGID_479_);}
	.st631{fill:url(#SVGID_480_);}
	.st632{fill:url(#SVGID_481_);}
	.st633{fill:url(#SVGID_482_);}
	.st634{fill:url(#SVGID_483_);}
	.st635{fill:url(#SVGID_484_);}
	.st636{fill:url(#SVGID_485_);}
	.st637{fill:url(#SVGID_486_);}
	.st638{fill:url(#SVGID_487_);}
	.st639{fill:url(#SVGID_488_);}
	.st640{fill:url(#SVGID_489_);}
	.st641{fill:url(#SVGID_490_);}
	.st642{fill:url(#SVGID_491_);}
	.st643{fill:url(#SVGID_492_);}
	.st644{fill:url(#SVGID_493_);}
	.st645{fill:url(#SVGID_494_);}
	.st646{fill:url(#SVGID_495_);}
	.st647{fill:url(#SVGID_496_);}
	.st648{fill:url(#SVGID_497_);}
	.st649{fill:url(#SVGID_498_);}
	.st650{fill:url(#SVGID_499_);}
	.st651{fill:url(#SVGID_500_);}
	.st652{fill:url(#SVGID_501_);}
	.st653{fill:url(#SVGID_502_);}
	.st654{fill:url(#SVGID_503_);}
	.st655{fill:url(#SVGID_504_);}
	.st656{fill:url(#SVGID_505_);}
	.st657{fill:url(#SVGID_506_);}
	.st658{fill:url(#SVGID_507_);}
	.st659{fill:url(#SVGID_508_);}
	.st660{fill:url(#SVGID_509_);}
	.st661{fill:url(#SVGID_510_);}
	.st662{fill:url(#SVGID_511_);}
	.st663{fill:url(#SVGID_512_);}
	.st664{fill:url(#SVGID_513_);}
	.st665{fill:url(#SVGID_514_);}
	.st666{fill:url(#SVGID_515_);}
	.st667{fill:url(#SVGID_516_);}
	.st668{fill:url(#SVGID_517_);}
	.st669{fill:url(#SVGID_518_);}
	.st670{fill:url(#SVGID_519_);}
	.st671{fill:url(#SVGID_520_);}
	.st672{fill:url(#SVGID_521_);}
	.st673{fill:url(#SVGID_522_);}
	.st674{fill:url(#SVGID_523_);}
	.st675{fill:url(#SVGID_524_);}
	.st676{fill:url(#SVGID_525_);}
	.st677{fill:url(#SVGID_526_);}
	.st678{fill:url(#SVGID_527_);}
	.st679{fill:url(#SVGID_528_);}
	.st680{fill:url(#SVGID_529_);}
	.st681{fill:url(#SVGID_530_);}
	.st682{fill:url(#SVGID_531_);}
	.st683{fill:url(#SVGID_532_);}
	.st684{fill:url(#SVGID_533_);}
	.st685{fill:url(#SVGID_534_);}
	.st686{fill:url(#SVGID_535_);}
	.st687{fill:url(#SVGID_536_);}
	.st688{fill:url(#SVGID_537_);}
	.st689{fill:url(#SVGID_538_);}
	.st690{fill:url(#SVGID_539_);}
	.st691{fill:url(#SVGID_540_);}
	.st692{fill:url(#SVGID_541_);}
	.st693{fill:url(#SVGID_542_);}
	.st694{fill:url(#SVGID_543_);}
	.st695{fill:url(#SVGID_544_);}
	.st696{fill:url(#SVGID_545_);}
	.st697{fill:url(#SVGID_546_);}
	.st698{fill:url(#SVGID_547_);}
	.st699{fill:url(#SVGID_548_);}
	.st700{fill:url(#SVGID_549_);}
	.st701{fill:url(#SVGID_550_);}
	.st702{fill:url(#SVGID_551_);}
	.st703{fill:url(#SVGID_552_);}
	.st704{fill:url(#SVGID_553_);}
	.st705{fill:url(#SVGID_554_);}
	.st706{fill:url(#SVGID_555_);}
	.st707{fill:url(#SVGID_556_);}
	.st708{fill:url(#SVGID_557_);}
	.st709{fill:url(#SVGID_558_);}
	.st710{fill:url(#SVGID_559_);}
	.st711{fill:url(#SVGID_560_);}
	.st712{fill:url(#SVGID_561_);}
	.st713{fill:url(#SVGID_562_);}
	.st714{fill:url(#SVGID_563_);}
	.st715{fill:url(#SVGID_564_);}
	.st716{fill:url(#SVGID_565_);}
	.st717{fill:url(#SVGID_566_);}
	.st718{fill:url(#SVGID_567_);}
	.st719{fill:url(#_x3C_Path_x3E__2_);}
	.st720{fill:url(#SVGID_568_);}
	.st721{opacity:0.6;fill:url(#SVGID_569_);}
	.st722{opacity:0.6;fill:url(#SVGID_570_);}
	.st723{opacity:0.6;fill:url(#SVGID_571_);}
	.st724{opacity:0.6;fill:url(#SVGID_572_);}
	.st725{opacity:0.6;fill:url(#SVGID_573_);}
	.st726{opacity:0.6;fill:url(#SVGID_574_);}
	.st727{opacity:0.6;fill:url(#SVGID_575_);}
	.st728{opacity:0.6;fill:url(#SVGID_576_);}
	.st729{opacity:0.6;fill:url(#SVGID_577_);}
	.st730{opacity:0.6;fill:url(#SVGID_578_);}
	.st731{opacity:0.6;fill:url(#SVGID_579_);}
	.st732{opacity:0.6;fill:url(#SVGID_580_);}
	.st733{opacity:0.6;fill:url(#SVGID_581_);}
	.st734{fill:url(#SVGID_582_);}
	.st735{fill:url(#SVGID_583_);}
	.st736{fill:url(#SVGID_584_);}
	.st737{opacity:0.6;fill:url(#SVGID_585_);}
	.st738{fill:url(#SVGID_586_);}
	.st739{fill:url(#SVGID_587_);}
	.st740{fill:url(#SVGID_588_);}
	.st741{fill:url(#SVGID_589_);}
	.st742{fill:url(#SVGID_590_);}
	.st743{fill:url(#SVGID_591_);}
	.st744{fill:url(#SVGID_592_);}
	.st745{fill:url(#SVGID_593_);}
	.st746{fill:url(#SVGID_594_);}
	.st747{fill:url(#SVGID_595_);}
	.st748{fill:url(#SVGID_596_);}
	.st749{fill:url(#SVGID_597_);}
	.st750{fill:url(#_x3C_Path_x3E__3_);}
	.st751{fill:url(#SVGID_598_);}
	.st752{opacity:0.6;fill:url(#SVGID_599_);}
	.st753{opacity:0.6;fill:url(#SVGID_600_);}
	.st754{opacity:0.6;fill:url(#SVGID_601_);}
	.st755{opacity:0.6;fill:url(#SVGID_602_);}
	.st756{opacity:0.6;fill:url(#SVGID_603_);}
	.st757{opacity:0.6;fill:url(#SVGID_604_);}
	.st758{opacity:0.6;fill:url(#SVGID_605_);}
	.st759{opacity:0.6;fill:url(#SVGID_606_);}
	.st760{opacity:0.6;fill:url(#SVGID_607_);}
	.st761{opacity:0.6;fill:url(#SVGID_608_);}
	.st762{opacity:0.6;fill:url(#SVGID_609_);}
	.st763{opacity:0.6;fill:url(#SVGID_610_);}
	.st764{opacity:0.6;fill:url(#SVGID_611_);}
	.st765{fill:url(#SVGID_612_);}
	.st766{fill:url(#SVGID_613_);}
	.st767{fill:url(#SVGID_614_);}
	.st768{opacity:0.6;fill:url(#SVGID_615_);}
	.st769{fill:url(#SVGID_616_);}
	.st770{fill:url(#SVGID_617_);}
	.st771{fill:url(#SVGID_618_);}
	.st772{fill:url(#SVGID_619_);}
	.st773{fill:url(#SVGID_620_);}
	.st774{fill:url(#SVGID_621_);}
	.st775{fill:url(#SVGID_622_);}
	.st776{fill:url(#SVGID_623_);}
	.st777{fill:url(#SVGID_624_);}
	.st778{fill:url(#SVGID_625_);}
	.st779{fill:url(#SVGID_626_);}
	.st780{fill:url(#SVGID_627_);}
	.st781{fill:url(#_x3C_Path_x3E__4_);}
	.st782{fill:url(#SVGID_628_);}
	.st783{opacity:0.6;fill:url(#SVGID_629_);}
	.st784{opacity:0.6;fill:url(#SVGID_630_);}
	.st785{opacity:0.6;fill:url(#SVGID_631_);}
	.st786{opacity:0.6;fill:url(#SVGID_632_);}
	.st787{opacity:0.6;fill:url(#SVGID_633_);}
	.st788{opacity:0.6;fill:url(#SVGID_634_);}
	.st789{opacity:0.6;fill:url(#SVGID_635_);}
	.st790{opacity:0.6;fill:url(#SVGID_636_);}
	.st791{opacity:0.6;fill:url(#SVGID_637_);}
	.st792{opacity:0.6;fill:url(#SVGID_638_);}
	.st793{opacity:0.6;fill:url(#SVGID_639_);}
	.st794{opacity:0.6;fill:url(#SVGID_640_);}
	.st795{opacity:0.6;fill:url(#SVGID_641_);}
	.st796{fill:url(#SVGID_642_);}
	.st797{fill:url(#SVGID_643_);}
	.st798{fill:url(#SVGID_644_);}
	.st799{opacity:0.6;fill:url(#SVGID_645_);}
	.st800{fill:url(#SVGID_646_);}
	.st801{fill:url(#SVGID_647_);}
	.st802{fill:url(#SVGID_648_);}
	.st803{fill:url(#SVGID_649_);}
	.st804{fill:url(#SVGID_650_);}
	.st805{fill:url(#SVGID_651_);}
	.st806{fill:url(#SVGID_652_);}
	.st807{fill:url(#SVGID_653_);}
	.st808{fill:url(#SVGID_654_);}
	.st809{fill:url(#SVGID_655_);}
	.st810{fill:url(#SVGID_656_);}
	.st811{fill:url(#SVGID_657_);}
	.st812{fill:url(#_x3C_Path_x3E__5_);}
	.st813{fill:url(#SVGID_658_);}
	.st814{opacity:0.6;fill:url(#SVGID_659_);}
	.st815{opacity:0.6;fill:url(#SVGID_660_);}
	.st816{opacity:0.6;fill:url(#SVGID_661_);}
	.st817{opacity:0.6;fill:url(#SVGID_662_);}
	.st818{opacity:0.6;fill:url(#SVGID_663_);}
	.st819{opacity:0.6;fill:url(#SVGID_664_);}
	.st820{opacity:0.6;fill:url(#SVGID_665_);}
	.st821{opacity:0.6;fill:url(#SVGID_666_);}
	.st822{opacity:0.6;fill:url(#SVGID_667_);}
	.st823{opacity:0.6;fill:url(#SVGID_668_);}
	.st824{opacity:0.6;fill:url(#SVGID_669_);}
	.st825{opacity:0.6;fill:url(#SVGID_670_);}
	.st826{opacity:0.6;fill:url(#SVGID_671_);}
	.st827{fill:url(#SVGID_672_);}
	.st828{fill:url(#SVGID_673_);}
	.st829{fill:url(#SVGID_674_);}
	.st830{opacity:0.6;fill:url(#SVGID_675_);}
	.st831{fill:url(#SVGID_676_);}
	.st832{fill:url(#SVGID_677_);}
	.st833{fill:url(#SVGID_678_);}
	.st834{fill:url(#SVGID_679_);}
	.st835{fill:url(#SVGID_680_);}
	.st836{fill:url(#SVGID_681_);}
	.st837{fill:url(#SVGID_682_);}
	.st838{fill:url(#SVGID_683_);}
	.st839{fill:url(#SVGID_684_);}
	.st840{fill:url(#SVGID_685_);}
	.st841{fill:url(#SVGID_686_);}
	.st842{fill:url(#SVGID_687_);}
	.st843{fill:url(#_x3C_Path_x3E__11_);}
	.st844{fill:url(#SVGID_688_);}
	.st845{opacity:0.6;fill:url(#SVGID_689_);}
	.st846{opacity:0.6;fill:url(#SVGID_690_);}
	.st847{opacity:0.6;fill:url(#SVGID_691_);}
	.st848{opacity:0.6;fill:url(#SVGID_692_);}
	.st849{opacity:0.6;fill:url(#SVGID_693_);}
	.st850{opacity:0.6;fill:url(#SVGID_694_);}
	.st851{opacity:0.6;fill:url(#SVGID_695_);}
	.st852{opacity:0.6;fill:url(#SVGID_696_);}
	.st853{opacity:0.6;fill:url(#SVGID_697_);}
	.st854{opacity:0.6;fill:url(#SVGID_698_);}
	.st855{opacity:0.6;fill:url(#SVGID_699_);}
	.st856{opacity:0.6;fill:url(#SVGID_700_);}
	.st857{opacity:0.6;fill:url(#SVGID_701_);}
	.st858{fill:url(#SVGID_702_);}
	.st859{fill:url(#SVGID_703_);}
	.st860{fill:url(#SVGID_704_);}
	.st861{opacity:0.6;fill:url(#SVGID_705_);}
	.st862{fill:url(#SVGID_706_);}
	.st863{fill:url(#SVGID_707_);}
	.st864{fill:url(#SVGID_708_);}
	.st865{fill:url(#SVGID_709_);}
	.st866{fill:url(#SVGID_710_);}
</style>
<path class="st86" d="M751.1,500.2H90.8c-16.6,0-30-13.4-30-30V125.1c0-16.6,13.4-30,30-30h660.3c16.6,0,30,13.4,30,30v345.1
	C781.1,486.8,767.6,500.2,751.1,500.2z"/>
<g>
	<path d="M404.6,199.8c2.9-0.5,7-0.9,12.8-0.9c5.9,0,10,1.1,12.8,3.4c2.7,2.1,4.5,5.6,4.5,9.7c0,4.1-1.4,7.6-3.9,10
		c-3.2,3.1-8,4.4-13.6,4.4c-1.2,0-2.4-0.1-3.2-0.2v15h-9.4V199.8z M414,218.9c0.8,0.2,1.8,0.2,3.2,0.2c5,0,8.2-2.6,8.2-6.8
		c0-3.9-2.7-6.2-7.4-6.2c-1.9,0-3.2,0.2-3.9,0.4V218.9z"/>
	<path d="M440.4,197h9.5v44.2h-9.5V197z"/>
	<path d="M474.9,241.2l-0.6-3.1h-0.2c-2,2.4-5.1,3.7-8.7,3.7c-6.2,0-9.8-4.5-9.8-9.3c0-7.9,7.1-11.7,17.9-11.6v-0.4
		c0-1.6-0.9-3.9-5.5-3.9c-3.1,0-6.4,1.1-8.4,2.3l-1.7-6.1c2.1-1.2,6.3-2.7,11.8-2.7c10.1,0,13.4,6,13.4,13.1v10.6
		c0,2.9,0.1,5.7,0.4,7.4H474.9z M473.7,226.8c-5-0.1-8.8,1.1-8.8,4.8c0,2.4,1.6,3.6,3.7,3.6c2.4,0,4.3-1.6,4.9-3.5
		c0.1-0.5,0.2-1.1,0.2-1.6V226.8z"/>
	<path d="M499.9,223.6h0.1c0.7-1.2,1.4-2.5,2.2-3.7l6.2-9.2h11.4l-10.9,12.3l12.5,18.1h-11.6l-7.3-12.5l-2.4,3v9.5h-9.5V197h9.5
		V223.6z"/>
	<path d="M524.1,232.9c1.7,1.1,5.4,2.3,8.2,2.3c2.9,0,4-1,4-2.6s-0.9-2.3-4.5-3.5c-6.3-2.1-8.7-5.5-8.7-9.2c0-5.7,4.9-10,12.4-10
		c3.5,0,6.7,0.8,8.6,1.7l-1.7,6.5c-1.4-0.7-4-1.7-6.6-1.7c-2.3,0-3.6,0.9-3.6,2.5c0,1.4,1.2,2.2,4.9,3.5c5.8,2,8.2,4.9,8.3,9.4
		c0,5.7-4.5,9.8-13.2,9.8c-4,0-7.5-0.9-9.8-2.1L524.1,232.9z"/>
	<path d="M568.5,241.2l-0.6-3.1h-0.2c-2,2.4-5.1,3.7-8.7,3.7c-6.2,0-9.8-4.5-9.8-9.3c0-7.9,7.1-11.7,17.9-11.6v-0.4
		c0-1.6-0.9-3.9-5.5-3.9c-3.1,0-6.4,1.1-8.4,2.3l-1.7-6.1c2.1-1.2,6.3-2.7,11.8-2.7c10.1,0,13.4,6,13.4,13.1v10.6
		c0,2.9,0.1,5.7,0.4,7.4H568.5z M567.4,226.8c-5-0.1-8.8,1.1-8.8,4.8c0,2.4,1.6,3.6,3.7,3.6c2.4,0,4.3-1.6,4.9-3.5
		c0.1-0.5,0.2-1.1,0.2-1.6V226.8z"/>
	<path d="M584,220.5c0-3.8-0.1-7-0.2-9.7h8.2l0.4,4.2h0.2c1.2-1.9,4.4-4.9,9.4-4.9c6.2,0,10.9,4.1,10.9,13.1v18.1h-9.5v-16.9
		c0-3.9-1.4-6.6-4.8-6.6c-2.6,0-4.2,1.8-4.8,3.5c-0.2,0.6-0.4,1.5-0.4,2.4v17.6H584V220.5z"/>
	<path d="M637.8,241.2l-0.6-3.1h-0.2c-2,2.4-5.1,3.7-8.7,3.7c-6.2,0-9.8-4.5-9.8-9.3c0-7.9,7.1-11.7,17.9-11.6v-0.4
		c0-1.6-0.9-3.9-5.5-3.9c-3.1,0-6.4,1.1-8.4,2.3l-1.7-6.1c2.1-1.2,6.3-2.7,11.8-2.7c10.1,0,13.4,6,13.4,13.1v10.6
		c0,2.9,0.1,5.7,0.4,7.4H637.8z M636.7,226.8c-5-0.1-8.8,1.1-8.8,4.8c0,2.4,1.6,3.6,3.7,3.6c2.4,0,4.3-1.6,4.9-3.5
		c0.1-0.5,0.2-1.1,0.2-1.6V226.8z"/>
	<path d="M670.7,241.2l-0.6-3.1H670c-2,2.4-5.1,3.7-8.7,3.7c-6.2,0-9.8-4.5-9.8-9.3c0-7.9,7.1-11.7,17.9-11.6v-0.4
		c0-1.6-0.9-3.9-5.5-3.9c-3.1,0-6.4,1.1-8.4,2.3l-1.7-6.1c2.1-1.2,6.3-2.7,11.8-2.7c10.1,0,13.4,6,13.4,13.1v10.6
		c0,2.9,0.1,5.7,0.4,7.4H670.7z M669.6,226.8c-5-0.1-8.8,1.1-8.8,4.8c0,2.4,1.6,3.6,3.7,3.6c2.4,0,4.3-1.6,4.9-3.5
		c0.1-0.5,0.2-1.1,0.2-1.6V226.8z"/>
	<path d="M686.3,220.5c0-3.8-0.1-7-0.2-9.7h8.2l0.4,4.2h0.2c1.2-1.9,4.4-4.9,9.4-4.9c6.2,0,10.9,4.1,10.9,13.1v18.1h-9.5v-16.9
		c0-3.9-1.4-6.6-4.8-6.6c-2.6,0-4.2,1.8-4.8,3.5c-0.2,0.6-0.4,1.5-0.4,2.4v17.6h-9.5V220.5z"/>
	<path d="M404.6,273.9h9.4v18.6h0.2c0.9-1.6,1.9-3.1,2.9-4.6l9.5-13.9h11.6l-13.9,17.9l14.6,24.1h-11.1l-10.3-18.1l-3.6,4.4v13.7
		h-9.4V273.9z"/>
	<path d="M471.5,300.3c0,11.1-7.9,16.2-16.1,16.2c-8.9,0-15.8-5.9-15.8-15.7c0-9.8,6.5-16.1,16.2-16.1
		C465.3,284.8,471.5,291.2,471.5,300.3z M449.5,300.7c0,5.2,2.2,9.2,6.2,9.2c3.7,0,6-3.7,6-9.2c0-4.5-1.7-9.2-6-9.2
		C451.1,291.5,449.5,296.2,449.5,300.7z"/>
	<path d="M477.4,295.2c0-3.8-0.1-7-0.2-9.7h8.2l0.4,4.2h0.2c1.2-1.9,4.4-4.9,9.4-4.9c6.2,0,10.9,4.1,10.9,13.1v18.1h-9.5V299
		c0-3.9-1.4-6.6-4.8-6.6c-2.6,0-4.2,1.8-4.8,3.5c-0.2,0.6-0.4,1.5-0.4,2.4v17.6h-9.5V295.2z"/>
	<path d="M524,276.7v8.7h6.8v7H524v11c0,3.7,0.9,5.4,3.7,5.4c1.2,0,2.1-0.1,2.8-0.2l0.1,7.2c-1.2,0.5-3.5,0.8-6.2,0.8
		c-3.1,0-5.6-1.1-7.1-2.6c-1.7-1.8-2.6-4.7-2.6-9v-12.5h-4v-7h4v-6.6L524,276.7z"/>
	<path d="M536.3,295.5c0-4.5-0.1-7.4-0.2-10h8.2l0.3,5.6h0.2c1.6-4.4,5.3-6.3,8.2-6.3c0.9,0,1.3,0,2,0.1v8.9
		c-0.7-0.1-1.5-0.2-2.6-0.2c-3.5,0-5.9,1.9-6.5,4.8c-0.1,0.6-0.2,1.4-0.2,2.1v15.4h-9.5V295.5z"/>
	<path d="M576.6,315.9l-0.6-3.1h-0.2c-2,2.4-5.1,3.7-8.7,3.7c-6.2,0-9.8-4.5-9.8-9.3c0-7.9,7.1-11.7,17.9-11.6v-0.4
		c0-1.6-0.9-3.9-5.5-3.9c-3.1,0-6.4,1.1-8.4,2.3l-1.7-6.1c2.1-1.2,6.3-2.7,11.8-2.7c10.1,0,13.4,6,13.4,13.1v10.6
		c0,2.9,0.1,5.7,0.4,7.4H576.6z M575.5,301.5c-5-0.1-8.8,1.1-8.8,4.8c0,2.4,1.6,3.6,3.7,3.6c2.4,0,4.3-1.6,4.9-3.5
		c0.1-0.5,0.2-1.1,0.2-1.6V301.5z"/>
	<path d="M601.6,298.3h0.1c0.7-1.2,1.4-2.5,2.2-3.7l6.2-9.2h11.4l-10.9,12.3l12.5,18.1h-11.6l-7.3-12.5l-2.4,3v9.5h-9.5v-44.2h9.5
		V298.3z"/>
	<path d="M405.2,349.2c2.7-0.6,6.7-0.9,10.4-0.9c5.8,0,9.5,1.1,12.1,3.4c2.1,1.9,3.3,4.7,3.3,8c0,5.5-3.5,9.2-7.9,10.7v0.2
		c3.2,1.1,5.2,4.1,6.2,8.5c1.4,5.9,2.4,9.9,3.2,11.5h-5.6c-0.7-1.2-1.6-4.8-2.8-10c-1.2-5.8-3.5-8-8.4-8.2h-5.1v18.2h-5.4V349.2z
		 M410.6,368.3h5.5c5.8,0,9.5-3.2,9.5-8c0-5.4-3.9-7.8-9.6-7.8c-2.6,0-4.5,0.2-5.4,0.5V368.3z"/>
	<path d="M466,375.3c0,11.1-7.7,16-15,16c-8.2,0-14.4-6-14.4-15.5c0-10.1,6.6-16,14.9-16C460.2,359.8,466,366.1,466,375.3z
		 M442.1,375.6c0,6.6,3.8,11.6,9.2,11.6c5.2,0,9.2-4.9,9.2-11.7c0-5.1-2.6-11.6-9-11.6S442.1,369.9,442.1,375.6z"/>
	<path d="M500.2,375.3c0,11.1-7.7,16-15,16c-8.2,0-14.4-6-14.4-15.5c0-10.1,6.6-16,14.9-16C494.3,359.8,500.2,366.1,500.2,375.3z
		 M476.3,375.6c0,6.6,3.8,11.6,9.2,11.6c5.2,0,9.2-4.9,9.2-11.7c0-5.1-2.6-11.6-9-11.6S476.3,369.9,476.3,375.6z"/>
	<path d="M507.1,368.6c0-3.1-0.1-5.7-0.3-8.2h4.8l0.2,4.9h0.2c1.7-2.9,4.5-5.5,9.5-5.5c4.1,0,7.2,2.5,8.5,6h0.1
		c0.9-1.7,2.1-3,3.4-3.9c1.8-1.4,3.8-2.1,6.7-2.1c4,0,9.9,2.6,9.9,13.1v17.7h-5.4v-17.1c0-5.8-2.1-9.3-6.5-9.3c-3.1,0-5.5,2.3-6.5,5
		c-0.2,0.7-0.4,1.7-0.4,2.7v18.6H526v-18.1c0-4.8-2.1-8.3-6.3-8.3c-3.4,0-5.9,2.7-6.8,5.5c-0.3,0.8-0.4,1.7-0.4,2.7v18.2h-5.4V368.6
		z"/>
	<path d="M570.5,390.6v-3.4l4.3-4.2c10.3-9.8,15-15.1,15.1-21.2c0-4.1-2-7.9-8-7.9c-3.7,0-6.7,1.9-8.6,3.4l-1.7-3.9
		c2.8-2.4,6.8-4.1,11.5-4.1c8.7,0,12.4,6,12.4,11.8c0,7.5-5.4,13.5-13.9,21.7l-3.2,3v0.1h18.2v4.5H570.5z"/>
</g>
<g>
	
		<rect x="115.8" y="166.5" transform="matrix(0.9976 6.978057e-02 -6.978057e-02 0.9976 21.2847 -14.0282)" class="st181" width="191.2" height="262.3"/>
	<rect x="118.4" y="170.1" class="st157" width="186" height="255.1"/>
	<g>
		<path class="st181" d="M147.7,218.9c-1.2-1.3-1.8-3.1-1.8-5.4v-16.1c0-2.3,0.6-4.2,1.8-5.4c1.2-1.3,2.9-1.9,5.2-1.9
			c2.3,0,4,0.6,5.2,1.9s1.8,3.1,1.8,5.4v3.2h-4.5V197c0-1.9-0.8-2.8-2.4-2.8s-2.4,0.9-2.4,2.8v16.8c0,1.8,0.8,2.7,2.4,2.7
			s2.4-0.9,2.4-2.7v-4.6h4.5v4.2c0,2.3-0.6,4.2-1.8,5.4s-2.9,1.9-5.2,1.9C150.6,220.8,148.9,220.1,147.7,218.9z"/>
		<path class="st181" d="M164.2,218.8c-1.2-1.3-1.8-3.2-1.8-5.6v-15.8c0-2.4,0.6-4.3,1.8-5.6c1.2-1.3,3-2,5.3-2s4.1,0.7,5.3,2
			c1.2,1.3,1.8,3.2,1.8,5.6v15.8c0,2.4-0.6,4.3-1.8,5.6c-1.2,1.3-3,2-5.3,2S165.4,220.1,164.2,218.8z M172,213.5v-16.4
			c0-2-0.8-3-2.4-3c-1.6,0-2.4,1-2.4,3v16.4c0,2,0.8,3,2.4,3C171.1,216.5,172,215.5,172,213.5z"/>
		<path class="st181" d="M179.9,190.3h5.9l4.6,18h0.1v-18h4.2v30h-4.8l-5.7-21.9h-0.1v21.9h-4.2V190.3z"/>
		<path class="st181" d="M201.8,194.6h-4.9v-4.3h14.6v4.3h-4.9v25.7h-4.7V194.6z"/>
		<path class="st181" d="M213.8,190.3h7c2.4,0,4.2,0.6,5.3,1.7c1.1,1.1,1.7,2.9,1.7,5.2v1.8c0,3.1-1,5.1-3.1,5.9v0.1
			c1.1,0.3,2,1,2.4,2.1s0.7,2.5,0.7,4.2v5.3c0,0.9,0,1.6,0.1,2.1c0.1,0.5,0.2,1.1,0.4,1.6h-4.8c-0.2-0.5-0.3-0.9-0.3-1.4
			c-0.1-0.4-0.1-1.2-0.1-2.3v-5.5c0-1.4-0.2-2.3-0.7-2.9c-0.4-0.5-1.2-0.8-2.3-0.8h-1.6v12.9h-4.7V190.3z M220.2,203.2
			c0.9,0,1.7-0.2,2.1-0.7c0.5-0.5,0.7-1.3,0.7-2.4v-2.3c0-1.1-0.2-1.9-0.6-2.4s-1-0.7-1.8-0.7h-2.1v8.6H220.2z"/>
		<path class="st181" d="M234.7,190.3h6.4l4.9,30h-4.7l-0.9-6v0.1H235l-0.9,5.9h-4.4L234.7,190.3z M239.8,210.4l-2.1-14.8h-0.1
			l-2.1,14.8H239.8z"/>
		<path class="st181" d="M249.6,218.9c-1.2-1.3-1.8-3.1-1.8-5.4v-16.1c0-2.3,0.6-4.2,1.8-5.4c1.2-1.3,2.9-1.9,5.2-1.9
			c2.3,0,4,0.6,5.2,1.9s1.8,3.1,1.8,5.4v3.2h-4.5V197c0-1.9-0.8-2.8-2.4-2.8c-1.6,0-2.4,0.9-2.4,2.8v16.8c0,1.8,0.8,2.7,2.4,2.7
			c1.6,0,2.4-0.9,2.4-2.7v-4.6h4.5v4.2c0,2.3-0.6,4.2-1.8,5.4s-2.9,1.9-5.2,1.9C252.5,220.8,250.8,220.1,249.6,218.9z"/>
		<path class="st181" d="M268.3,194.6h-4.9v-4.3h14.6v4.3H273v25.7h-4.7V194.6z"/>
	</g>
	<linearGradient id="SVGID_1_" gradientUnits="userSpaceOnUse" x1="254.8815" y1="386.7842" x2="275.0024" y2="386.7842">
		<stop  offset="0" style="stop-color:#6E376E"/>
		<stop  offset="1" style="stop-color:#CA4B7C"/>
	</linearGradient>
	<circle style="fill:none;stroke:url(#SVGID_1_);stroke-miterlimit:10;" cx="264.9" cy="386.8" r="9.6"/>
	<linearGradient id="SVGID_2_" gradientUnits="userSpaceOnUse" x1="249.3769" y1="386.7842" x2="280.507" y2="386.7842">
		<stop  offset="0" style="stop-color:#6E376E"/>
		<stop  offset="1" style="stop-color:#CA4B7C"/>
	</linearGradient>
	<circle style="fill:none;stroke:url(#SVGID_2_);stroke-miterlimit:10;" cx="264.9" cy="386.8" r="15.1"/>
	<linearGradient id="SVGID_3_" gradientUnits="userSpaceOnUse" x1="246.4798" y1="386.7842" x2="283.4041" y2="386.7842">
		<stop  offset="0" style="stop-color:#6E376E"/>
		<stop  offset="1" style="stop-color:#CA4B7C"/>
	</linearGradient>
	<circle style="fill:none;stroke:url(#SVGID_3_);stroke-miterlimit:10;" cx="264.9" cy="386.8" r="18"/>
	<linearGradient id="SVGID_4_" gradientUnits="userSpaceOnUse" x1="147.0293" y1="228.6016" x2="274.5024" y2="228.6016">
		<stop  offset="0" style="stop-color:#6E376E"/>
		<stop  offset="1" style="stop-color:#CA4B7C"/>
	</linearGradient>
	<line style="fill:none;stroke:url(#SVGID_4_);stroke-miterlimit:10;" x1="147" y1="228.6" x2="274.5" y2="228.6"/>
	<linearGradient id="SVGID_5_" gradientUnits="userSpaceOnUse" x1="147.0293" y1="360.9998" x2="274.5024" y2="360.9998">
		<stop  offset="0" style="stop-color:#6E376E"/>
		<stop  offset="1" style="stop-color:#CA4B7C"/>
	</linearGradient>
	<line style="fill:none;stroke:url(#SVGID_5_);stroke-miterlimit:10;" x1="147" y1="361" x2="274.5" y2="361"/>
	<rect x="147" y="238.2" class="st181" width="127.5" height="4.9"/>
	<rect x="147" y="247.9" class="st181" width="127.5" height="4.9"/>
	<rect x="147" y="257.6" class="st181" width="127.5" height="4.9"/>
	<rect x="147" y="267.3" class="st181" width="127.5" height="4.9"/>
	<linearGradient id="SVGID_6_" gradientUnits="userSpaceOnUse" x1="166.3739" y1="313.0556" x2="274.5024" y2="313.0556">
		<stop  offset="0" style="stop-color:#6E376E"/>
		<stop  offset="1" style="stop-color:#CA4B7C"/>
	</linearGradient>
	<rect x="166.4" y="310.6" class="st49" width="108.1" height="4.9"/>
	<linearGradient id="SVGID_7_" gradientUnits="userSpaceOnUse" x1="166.3739" y1="330.1824" x2="274.5024" y2="330.1824">
		<stop  offset="0" style="stop-color:#6E376E"/>
		<stop  offset="1" style="stop-color:#CA4B7C"/>
	</linearGradient>
	<rect x="166.4" y="327.7" class="st50" width="108.1" height="4.9"/>
	<linearGradient id="SVGID_8_" gradientUnits="userSpaceOnUse" x1="166.3739" y1="347.3092" x2="274.5024" y2="347.3092">
		<stop  offset="0" style="stop-color:#6E376E"/>
		<stop  offset="1" style="stop-color:#CA4B7C"/>
	</linearGradient>
	<rect x="166.4" y="344.9" class="st53" width="108.1" height="4.9"/>
	<rect x="147" y="277.1" class="st181" width="93.9" height="4.9"/>
	<rect x="147" y="286.8" class="st181" width="127.5" height="4.9"/>
	<rect x="147" y="296.5" class="st181" width="127.5" height="4.9"/>
	<linearGradient id="SVGID_9_" gradientUnits="userSpaceOnUse" x1="147.0293" y1="399.5746" x2="198.1284" y2="399.5746">
		<stop  offset="0" style="stop-color:#6E376E"/>
		<stop  offset="1" style="stop-color:#CA4B7C"/>
	</linearGradient>
	<rect x="147" y="397.1" class="st54" width="51.1" height="4.9"/>
	<linearGradient id="SVGID_10_" gradientUnits="userSpaceOnUse" x1="147.0293" y1="392.1381" x2="183.7186" y2="392.1381">
		<stop  offset="0" style="stop-color:#6E376E"/>
		<stop  offset="1" style="stop-color:#CA4B7C"/>
	</linearGradient>
	<rect x="147" y="389.7" class="st55" width="36.7" height="4.9"/>
	<g>
		<linearGradient id="SVGID_11_" gradientUnits="userSpaceOnUse" x1="148.1287" y1="313.3589" x2="160.6794" y2="313.3589">
			<stop  offset="0" style="stop-color:#FE7087"/>
			<stop  offset="1" style="stop-color:#FE9D82"/>
		</linearGradient>
		<polygon class="st56" points="160.7,319.6 160.7,307.1 148.1,319.6 		"/>
		<linearGradient id="SVGID_12_" gradientUnits="userSpaceOnUse" x1="148.1287" y1="313.3589" x2="160.6794" y2="313.3589">
			<stop  offset="0" style="stop-color:#FE7087"/>
			<stop  offset="1" style="stop-color:#FE9D82"/>
		</linearGradient>
		<polygon class="st57" points="148.1,319.6 160.7,307.1 148.1,307.1 		"/>
		<path class="st181" d="M152.1,320.2c0.4,0.4,0.9,0.6,1.3,0.6h0c0.5,0,1-0.2,1.3-0.6l8.5-8.5c0.7-0.7,0.7-1.9,0-2.7
			c-0.7-0.7-1.9-0.7-2.7,0l-7.2,7.2l0,0l-3.2-3.2c-0.7-0.7-1.9-0.7-2.7,0c-0.7,0.7-0.7,1.9,0,2.7L152.1,320.2z"/>
		<linearGradient id="SVGID_13_" gradientUnits="userSpaceOnUse" x1="148.1287" y1="330.1824" x2="160.6794" y2="330.1824">
			<stop  offset="0" style="stop-color:#FE7087"/>
			<stop  offset="1" style="stop-color:#FE9D82"/>
		</linearGradient>
		<polygon class="st58" points="160.7,336.5 160.7,323.9 148.1,336.5 		"/>
		<linearGradient id="SVGID_14_" gradientUnits="userSpaceOnUse" x1="148.1287" y1="330.1824" x2="160.6794" y2="330.1824">
			<stop  offset="0" style="stop-color:#FE7087"/>
			<stop  offset="1" style="stop-color:#FE9D82"/>
		</linearGradient>
		<polygon class="st60" points="148.1,336.5 160.7,323.9 148.1,323.9 		"/>
		<path class="st181" d="M152.1,337c0.4,0.4,0.9,0.6,1.3,0.6h0c0.5,0,1-0.2,1.3-0.6l8.5-8.5c0.7-0.7,0.7-1.9,0-2.7
			c-0.7-0.7-1.9-0.7-2.7,0l-7.2,7.2h0l-3.2-3.2c-0.7-0.7-1.9-0.7-2.7,0c-0.7,0.7-0.7,1.9,0,2.7L152.1,337z"/>
		<linearGradient id="SVGID_15_" gradientUnits="userSpaceOnUse" x1="148.1287" y1="347.0058" x2="160.6794" y2="347.0058">
			<stop  offset="0" style="stop-color:#FE7087"/>
			<stop  offset="1" style="stop-color:#FE9D82"/>
		</linearGradient>
		<polygon class="st61" points="160.7,353.3 160.7,340.7 148.1,353.3 		"/>
		<linearGradient id="SVGID_16_" gradientUnits="userSpaceOnUse" x1="148.1287" y1="347.0058" x2="160.6794" y2="347.0058">
			<stop  offset="0" style="stop-color:#FE7087"/>
			<stop  offset="1" style="stop-color:#FE9D82"/>
		</linearGradient>
		<polygon class="st62" points="148.1,353.3 160.7,340.7 148.1,340.7 		"/>
		<path class="st181" d="M152.1,353.8c0.4,0.4,0.9,0.6,1.3,0.6h0c0.5,0,1-0.2,1.3-0.6l8.5-8.5c0.7-0.7,0.7-1.9,0-2.7
			c-0.7-0.7-1.9-0.7-2.7,0l-7.2,7.2h0l-3.2-3.2c-0.7-0.7-1.9-0.7-2.7,0c-0.7,0.7-0.7,1.9,0,2.7L152.1,353.8z"/>
	</g>
</g>
</svg>
