<?xml version="1.0" encoding="utf-8"?>
<!-- Generator: Adobe Illustrator 22.1.0, SVG Export Plug-In . SVG Version: 6.00 Build 0)  -->
<svg version="1.1" id="Layer_1" xmlns="http://www.w3.org/2000/svg" xmlns:xlink="http://www.w3.org/1999/xlink" x="0px" y="0px"
	 viewBox="0 0 841.9 595.3" style="enable-background:new 0 0 841.9 595.3;" xml:space="preserve">
<style type="text/css">
	.st0{fill:#FFFFFF;stroke:#FFD071;stroke-width:10;stroke-miterlimit:10;}
	.st1{fill:#F17171;}
	.st2{fill:#EE4D4D;}
	.st3{fill:#D64545;}
	.st4{fill:#71D0FF;}
	.st5{fill:#4DC4FF;}
	.st6{fill:#45B0E5;}
	.st7{fill:#FFA071;}
	.st8{fill:#FF884D;}
	.st9{fill:#E57A45;}
	.st10{fill:#7EA9FF;}
	.st11{fill:#5E94FF;}
	.st12{fill:#5485E5;}
	.st13{fill:#FFD071;}
	.st14{fill:#FFC44D;}
	.st15{fill:#E5B045;}
	.st16{fill:#B38DFF;}
	.st17{fill:#A071FF;}
	.st18{fill:#9065E5;}
	.st19{fill:#A2D471;}
	.st20{fill:#8BC94D;}
	.st21{fill:#7DB545;}
	.st22{fill:#FF71B7;}
	.st23{fill:#FF4DA5;}
	.st24{fill:#E54594;}
	.st25{fill:#71E2D0;}
	.st26{fill:#4DDBC4;}
	.st27{fill:#45C5B0;}
	.st28{fill:#A2ADB8;}
	.st29{fill:#8B98A6;}
	.st30{fill:#7D8995;}
	.st31{fill:#FFFFFF;stroke:#A2D471;stroke-width:10;stroke-miterlimit:10;}
	.st32{fill:#FFFFFF;stroke:#FFA071;stroke-width:10;stroke-miterlimit:10;}
	.st33{fill:#FFFFFF;stroke:#71D0FF;stroke-width:10;stroke-miterlimit:10;}
	.st34{fill:#C2A49D;}
	.st35{fill:#CDAD8A;}
	.st36{fill:#A48465;}
	.st37{fill:#F0CFA8;}
	.st38{fill:#F0DCC5;}
	.st39{fill:#7F6B59;}
	.st40{fill:#E6D3BD;}
	.st41{fill:#B29778;}
	.st42{fill:#E0C5A4;}
	.st43{fill:url(#SVGID_1_);}
	.st44{fill:#C5B9AB;}
	.st45{fill:url(#SVGID_2_);}
	.st46{fill:url(#SVGID_3_);}
	.st47{fill:url(#SVGID_4_);}
	.st48{fill:url(#SVGID_5_);}
	.st49{fill:url(#SVGID_6_);}
	.st50{fill:url(#SVGID_7_);}
	.st51{opacity:0.3;fill:#C2A49D;}
	.st52{fill:#BB9673;}
	.st53{fill:url(#SVGID_8_);}
	.st54{fill:url(#SVGID_9_);}
	.st55{fill:url(#SVGID_10_);}
	.st56{fill:url(#SVGID_11_);}
	.st57{fill:url(#SVGID_12_);}
	.st58{fill:url(#SVGID_13_);}
	.st59{fill:#8F6E4F;}
	.st60{fill:url(#SVGID_14_);}
	.st61{fill:url(#SVGID_15_);}
	.st62{fill:url(#SVGID_16_);}
	.st63{fill:url(#SVGID_17_);}
	.st64{fill:url(#SVGID_18_);}
	.st65{fill:url(#SVGID_19_);}
	.st66{fill:url(#SVGID_20_);}
	.st67{fill:url(#SVGID_21_);}
	.st68{fill:url(#SVGID_22_);}
	.st69{fill:url(#SVGID_23_);}
	.st70{fill:url(#SVGID_24_);}
	.st71{fill:url(#SVGID_25_);}
	.st72{fill:url(#SVGID_26_);}
	.st73{fill:url(#SVGID_27_);}
	.st74{fill:url(#SVGID_28_);}
	.st75{fill:url(#SVGID_29_);}
	.st76{fill:url(#SVGID_30_);}
	.st77{fill:url(#SVGID_31_);}
	.st78{fill:url(#SVGID_32_);}
	.st79{fill:url(#SVGID_33_);}
	.st80{fill:url(#SVGID_34_);}
	.st81{fill:url(#SVGID_35_);}
	.st82{fill:url(#SVGID_36_);}
	.st83{fill:url(#SVGID_37_);}
	.st84{fill:url(#SVGID_38_);}
	.st85{fill:url(#SVGID_39_);}
	.st86{fill:#FFFFFF;stroke:#F17171;stroke-width:10;stroke-miterlimit:10;}
	.st87{fill:url(#SVGID_40_);}
	.st88{fill:url(#SVGID_41_);}
	.st89{fill:url(#SVGID_42_);}
	.st90{fill:url(#SVGID_43_);}
	.st91{fill:url(#SVGID_44_);}
	.st92{fill:url(#SVGID_45_);}
	.st93{fill:url(#SVGID_46_);}
	.st94{fill:url(#SVGID_47_);}
	.st95{fill:url(#SVGID_48_);}
	.st96{fill:url(#SVGID_49_);}
	.st97{fill:url(#SVGID_50_);}
	.st98{fill:url(#SVGID_51_);}
	.st99{fill:url(#SVGID_52_);}
	.st100{fill:url(#SVGID_53_);}
	.st101{fill:url(#SVGID_54_);}
	.st102{fill:url(#SVGID_55_);}
	.st103{fill:url(#SVGID_56_);}
	.st104{fill:url(#SVGID_57_);}
	.st105{fill:url(#SVGID_58_);}
	.st106{fill:url(#SVGID_59_);}
	.st107{fill:url(#SVGID_60_);}
	.st108{fill:url(#SVGID_61_);}
	.st109{fill:url(#SVGID_62_);}
	.st110{fill:url(#SVGID_63_);}
	.st111{fill:url(#SVGID_64_);}
	.st112{fill:url(#SVGID_65_);}
	.st113{opacity:0.3;fill:url(#SVGID_66_);}
	.st114{opacity:0.3;fill:url(#SVGID_67_);}
	.st115{opacity:0.3;fill:url(#SVGID_68_);}
	.st116{opacity:0.3;fill:url(#SVGID_69_);}
	.st117{fill:url(#SVGID_70_);}
	.st118{fill:url(#SVGID_71_);}
	.st119{fill:url(#SVGID_72_);}
	.st120{fill:url(#SVGID_73_);}
	.st121{fill:url(#SVGID_74_);}
	.st122{fill:url(#SVGID_75_);}
	.st123{fill:url(#SVGID_76_);}
	.st124{fill:url(#SVGID_77_);}
	.st125{fill:url(#SVGID_78_);}
	.st126{fill:url(#SVGID_79_);}
	.st127{fill:url(#SVGID_80_);}
	.st128{fill:url(#SVGID_81_);}
	.st129{fill:url(#SVGID_82_);}
	.st130{fill:url(#SVGID_83_);}
	.st131{fill:#595959;}
	.st132{fill:#C1C1C1;}
	.st133{fill:#DDDDDD;}
	.st134{fill:#AFAFAF;}
	.st135{fill:#A5A5A5;}
	.st136{fill:#EF8E2E;}
	.st137{fill:#FFA357;}
	.st138{fill:#FFBE83;}
	.st139{fill:#FFB176;}
	.st140{fill:#3F3F3F;}
	.st141{fill:#CECECE;}
	.st142{fill:#D8D8D8;}
	.st143{fill:#EAEAEA;}
	.st144{fill:#F9D5B2;}
	.st145{fill:#E8B679;}
	.st146{fill:#F2C18B;}
	.st147{opacity:0.5;fill:#AFAFAF;}
	.st148{fill:#7C5045;}
	.st149{fill:#684337;}
	.st150{fill:#8C5D54;}
	.st151{fill:#56352C;}
	.st152{fill:#4D4D4D;}
	.st153{fill:#444444;}
	.st154{fill:#303030;}
	.st155{fill:#494949;}
	.st156{fill:#969696;}
	.st157{fill:#FFFFFF;}
	.st158{fill:#383838;}
	.st159{fill:#262626;}
	.st160{fill:#FFA543;}
	.st161{fill:#DD7A22;}
	.st162{fill:#BBBBBB;}
	.st163{fill:#FCB275;}
	.st164{fill:#FFB061;}
	.st165{fill:#D87923;}
	.st166{fill:#CCCCCC;}
	.st167{fill:#EDEDED;}
	.st168{fill:#5B5B5B;}
	.st169{fill:#59362D;}
	.st170{fill:#F4F4F4;}
	.st171{fill:#F93D3D;}
	.st172{fill:#FF5252;}
	.st173{fill:#FF6E6E;}
	.st174{fill:url(#SVGID_84_);}
	.st175{fill:url(#SVGID_85_);}
	.st176{fill:url(#SVGID_86_);}
	.st177{fill:url(#SVGID_87_);}
	.st178{fill:url(#SVGID_88_);}
	.st179{fill:#A77860;}
	.st180{fill:#EEA886;}
	.st181{fill:#2C3144;}
	.st182{fill:url(#SVGID_89_);}
	.st183{fill:url(#SVGID_90_);}
	.st184{fill:url(#SVGID_91_);}
	.st185{opacity:0.3;fill:url(#SVGID_92_);}
	.st186{fill:#DECBC4;}
	.st187{fill:#495055;}
	.st188{fill:#353A3D;}
	.st189{fill:url(#SVGID_93_);}
	.st190{fill:url(#SVGID_94_);}
	.st191{fill:url(#SVGID_95_);}
	.st192{fill:url(#SVGID_96_);}
	.st193{fill:#F5E2D9;}
	.st194{fill:#AD9F99;}
	.st195{fill:#69737A;}
	.st196{fill:url(#SVGID_97_);}
	.st197{fill:#2D3133;}
	.st198{fill:url(#SVGID_98_);}
	.st199{opacity:0.3;fill:url(#SVGID_99_);}
	.st200{opacity:0.3;fill:url(#SVGID_100_);}
	.st201{fill:url(#SVGID_101_);}
	.st202{fill:url(#SVGID_102_);}
	.st203{fill:#24126A;}
	.st204{fill:url(#SVGID_103_);}
	.st205{fill:url(#SVGID_104_);}
	.st206{fill:#F0F6FF;}
	.st207{fill:#FCD1C5;}
	.st208{fill:url(#SVGID_105_);}
	.st209{fill:url(#SVGID_106_);}
	.st210{fill:#453C9E;}
	.st211{fill:#AA8383;}
	.st212{fill:#C4CCD6;}
	.st213{fill:#E2B1A6;}
	.st214{fill:#936D6D;}
	.st215{fill:url(#SVGID_107_);}
	.st216{fill:url(#SVGID_108_);}
	.st217{fill:url(#SVGID_109_);}
	.st218{fill:#CA4B7C;}
	.st219{fill:#6E376E;}
	.st220{fill:#160A5B;}
	.st221{fill:url(#SVGID_110_);}
	.st222{fill:#722318;}
	.st223{fill:url(#SVGID_111_);}
	.st224{fill:url(#SVGID_112_);}
	.st225{fill:url(#SVGID_113_);}
	.st226{fill:url(#SVGID_114_);}
	.st227{fill:url(#SVGID_115_);}
	.st228{fill:url(#SVGID_116_);}
	.st229{fill:url(#SVGID_117_);}
	.st230{fill:url(#SVGID_118_);}
	.st231{fill:url(#SVGID_119_);}
	.st232{fill:url(#SVGID_120_);}
	.st233{fill:url(#SVGID_121_);}
	.st234{fill:url(#SVGID_122_);}
	.st235{fill:url(#SVGID_123_);}
	.st236{fill:url(#SVGID_124_);}
	.st237{fill:url(#SVGID_125_);}
	.st238{fill:url(#SVGID_126_);}
	.st239{fill:url(#SVGID_127_);}
	.st240{fill:url(#SVGID_128_);}
	.st241{fill:url(#SVGID_129_);}
	.st242{fill:url(#SVGID_130_);}
	.st243{fill:url(#SVGID_131_);}
	.st244{fill:url(#SVGID_132_);}
	.st245{fill:url(#SVGID_133_);}
	.st246{fill:url(#SVGID_134_);}
	.st247{fill:url(#SVGID_135_);}
	.st248{fill:url(#SVGID_136_);}
	.st249{fill:url(#SVGID_137_);}
	.st250{fill:url(#SVGID_138_);}
	.st251{fill:url(#SVGID_139_);}
	.st252{fill:url(#SVGID_140_);}
	.st253{fill:url(#SVGID_141_);}
	.st254{fill:url(#SVGID_142_);}
	.st255{fill:url(#SVGID_143_);}
	.st256{fill:url(#SVGID_144_);}
	.st257{fill:url(#SVGID_145_);}
	.st258{fill:url(#SVGID_146_);}
	.st259{fill:url(#SVGID_147_);}
	.st260{fill:url(#SVGID_148_);}
	.st261{fill:url(#SVGID_149_);}
	.st262{fill:url(#SVGID_150_);}
	.st263{fill:url(#SVGID_151_);}
	.st264{fill:url(#SVGID_152_);}
	.st265{fill:url(#SVGID_153_);}
	.st266{fill:url(#SVGID_154_);}
	.st267{fill:url(#SVGID_155_);}
	.st268{fill:url(#SVGID_156_);}
	.st269{fill:url(#SVGID_157_);}
	.st270{fill:url(#SVGID_158_);}
	.st271{fill:url(#SVGID_159_);}
	.st272{fill:url(#SVGID_160_);}
	.st273{fill:url(#SVGID_161_);}
	.st274{fill:url(#SVGID_162_);}
	.st275{fill:url(#SVGID_163_);}
	.st276{fill:url(#SVGID_164_);}
	.st277{fill:url(#SVGID_165_);}
	.st278{fill:url(#SVGID_166_);}
	.st279{fill:url(#SVGID_167_);}
	.st280{fill:url(#SVGID_168_);}
	.st281{fill:url(#SVGID_169_);}
	.st282{fill:url(#SVGID_170_);}
	.st283{fill:url(#SVGID_171_);}
	.st284{fill:url(#SVGID_172_);}
	.st285{fill:#BBD070;}
	.st286{fill:#97A43C;}
	.st287{fill:#48753A;}
	.st288{fill:url(#SVGID_173_);}
	.st289{fill:url(#SVGID_174_);}
	.st290{fill:url(#SVGID_175_);}
	.st291{fill:url(#SVGID_176_);}
	.st292{fill:url(#SVGID_177_);}
	.st293{fill:url(#SVGID_178_);}
	.st294{fill:url(#SVGID_179_);}
	.st295{fill:url(#SVGID_180_);}
	.st296{fill:#E3F2FF;}
	.st297{fill:url(#SVGID_181_);}
	.st298{fill:url(#SVGID_182_);}
	.st299{opacity:0.58;}
	.st300{fill:#E0F1FF;}
	.st301{fill:url(#SVGID_183_);}
	.st302{fill:url(#SVGID_184_);}
	.st303{fill:url(#SVGID_185_);}
	.st304{fill:#1D3B54;}
	.st305{fill:#D4D8E8;}
	.st306{fill:#A9ADBA;}
	.st307{fill:#E8734D;}
	.st308{fill:url(#SVGID_186_);}
	.st309{fill:url(#SVGID_187_);}
	.st310{fill:url(#SVGID_188_);}
	.st311{fill:url(#SVGID_189_);}
	.st312{fill:#FE9D82;}
	.st313{fill:url(#SVGID_190_);}
	.st314{fill:url(#SVGID_191_);}
	.st315{fill:url(#SVGID_192_);}
	.st316{fill:url(#SVGID_193_);}
	.st317{fill:url(#SVGID_194_);}
	.st318{fill:url(#SVGID_195_);}
	.st319{fill:url(#SVGID_196_);}
	.st320{fill:url(#SVGID_197_);}
	.st321{fill:url(#SVGID_198_);}
	.st322{fill:url(#SVGID_199_);}
	.st323{fill:url(#SVGID_200_);}
	.st324{fill:url(#SVGID_201_);}
	.st325{fill:url(#SVGID_202_);}
	.st326{fill:url(#SVGID_203_);}
	.st327{fill:url(#SVGID_204_);}
	.st328{fill:url(#SVGID_205_);}
	.st329{fill:url(#SVGID_206_);}
	.st330{fill:url(#SVGID_207_);}
	.st331{fill:url(#SVGID_208_);}
	.st332{fill:url(#SVGID_209_);}
	.st333{fill:url(#SVGID_210_);}
	.st334{fill:url(#SVGID_211_);}
	.st335{fill:url(#SVGID_212_);}
	.st336{fill:url(#SVGID_213_);}
	.st337{fill:url(#SVGID_214_);}
	.st338{fill:url(#SVGID_215_);}
	.st339{fill:url(#SVGID_216_);}
	.st340{fill:url(#SVGID_217_);}
	.st341{fill:url(#SVGID_218_);}
	.st342{fill:url(#SVGID_219_);}
	.st343{fill:url(#SVGID_220_);}
	.st344{fill:url(#SVGID_221_);}
	.st345{fill:url(#SVGID_222_);}
	.st346{fill:url(#SVGID_223_);}
	.st347{fill:url(#SVGID_224_);}
	.st348{fill:url(#SVGID_225_);}
	.st349{fill:url(#SVGID_226_);}
	.st350{fill:url(#SVGID_227_);}
	.st351{fill:url(#SVGID_228_);}
	.st352{fill:url(#SVGID_229_);}
	.st353{fill:url(#SVGID_230_);}
	.st354{fill:url(#SVGID_231_);}
	.st355{fill:url(#SVGID_232_);}
	.st356{fill:url(#SVGID_233_);}
	.st357{fill:url(#SVGID_234_);}
	.st358{fill:url(#SVGID_235_);}
	.st359{fill:url(#SVGID_236_);}
	.st360{fill:url(#SVGID_237_);}
	.st361{fill:url(#SVGID_238_);}
	.st362{fill:url(#SVGID_239_);}
	.st363{fill:url(#SVGID_240_);}
	.st364{fill:url(#SVGID_241_);}
	.st365{fill:url(#SVGID_242_);}
	.st366{fill:url(#SVGID_243_);}
	.st367{fill:url(#SVGID_244_);}
	.st368{fill:url(#SVGID_245_);}
	.st369{fill:url(#SVGID_246_);}
	.st370{fill:url(#SVGID_247_);}
	.st371{fill:url(#SVGID_248_);}
	.st372{fill:url(#SVGID_249_);}
	.st373{fill:url(#SVGID_250_);}
	.st374{fill:url(#SVGID_251_);}
	.st375{fill:url(#SVGID_252_);}
	.st376{fill:url(#SVGID_253_);}
	.st377{fill:url(#SVGID_254_);}
	.st378{fill:url(#SVGID_255_);}
	.st379{fill:url(#SVGID_256_);}
	.st380{fill:url(#SVGID_257_);}
	.st381{fill:url(#SVGID_258_);}
	.st382{fill:url(#SVGID_259_);}
	.st383{fill:url(#SVGID_260_);}
	.st384{fill:url(#SVGID_261_);}
	.st385{fill:url(#SVGID_262_);}
	.st386{fill:url(#SVGID_263_);}
	.st387{fill:url(#SVGID_264_);}
	.st388{fill:url(#SVGID_265_);}
	.st389{fill:url(#SVGID_266_);}
	.st390{fill:url(#SVGID_267_);}
	.st391{fill:url(#SVGID_268_);}
	.st392{fill:url(#SVGID_269_);}
	.st393{fill:url(#SVGID_270_);}
	.st394{fill:url(#SVGID_271_);}
	.st395{fill:url(#SVGID_272_);}
	.st396{fill:url(#SVGID_273_);}
	.st397{fill:url(#SVGID_274_);}
	.st398{fill:url(#SVGID_275_);}
	.st399{fill:url(#SVGID_276_);}
	.st400{fill:url(#SVGID_277_);}
	.st401{fill:url(#SVGID_278_);}
	.st402{fill:url(#SVGID_279_);}
	.st403{fill:url(#SVGID_280_);}
	.st404{fill:url(#SVGID_281_);}
	.st405{fill:url(#SVGID_282_);}
	.st406{fill:url(#SVGID_283_);}
	.st407{fill:url(#SVGID_284_);}
	.st408{fill:url(#SVGID_285_);}
	.st409{fill:url(#SVGID_286_);}
	.st410{fill:url(#SVGID_287_);}
	.st411{fill:url(#SVGID_288_);}
	.st412{fill:url(#SVGID_289_);}
	.st413{fill:url(#SVGID_290_);}
	.st414{fill:url(#SVGID_291_);}
	.st415{fill:url(#SVGID_292_);}
	.st416{fill:url(#SVGID_293_);}
	.st417{fill:url(#SVGID_294_);}
	.st418{fill:url(#SVGID_295_);}
	.st419{fill:url(#SVGID_296_);}
	.st420{fill:url(#SVGID_297_);}
	.st421{fill:url(#SVGID_298_);}
	.st422{fill:url(#SVGID_299_);}
	.st423{fill:url(#SVGID_300_);}
	.st424{fill:url(#SVGID_301_);}
	.st425{fill:url(#SVGID_302_);}
	.st426{fill:url(#SVGID_303_);}
	.st427{fill:url(#SVGID_304_);}
	.st428{opacity:0.3;fill:url(#SVGID_305_);}
	.st429{fill:#E7E7E7;}
	.st430{fill:url(#SVGID_306_);}
	.st431{fill:url(#SVGID_307_);}
	.st432{fill:url(#SVGID_308_);}
	.st433{fill:url(#SVGID_309_);}
	.st434{fill:url(#SVGID_310_);}
	.st435{fill:url(#SVGID_311_);}
	.st436{fill:url(#SVGID_312_);}
	.st437{fill:url(#_x3C_Path_x3E__1_);}
	.st438{fill:#007CFF;}
	.st439{fill:url(#SVGID_313_);}
	.st440{opacity:0.4;}
	.st441{opacity:0.6;fill:url(#SVGID_314_);}
	.st442{opacity:0.6;fill:url(#SVGID_315_);}
	.st443{opacity:0.6;fill:url(#SVGID_316_);}
	.st444{opacity:0.6;fill:url(#SVGID_317_);}
	.st445{opacity:0.6;fill:url(#SVGID_318_);}
	.st446{opacity:0.6;fill:url(#SVGID_319_);}
	.st447{opacity:0.6;fill:url(#SVGID_320_);}
	.st448{opacity:0.6;fill:url(#SVGID_321_);}
	.st449{opacity:0.6;fill:url(#SVGID_322_);}
	.st450{opacity:0.6;fill:url(#SVGID_323_);}
	.st451{opacity:0.6;fill:url(#SVGID_324_);}
	.st452{opacity:0.6;fill:url(#SVGID_325_);}
	.st453{opacity:0.6;fill:url(#SVGID_326_);}
	.st454{fill:url(#SVGID_327_);}
	.st455{fill:url(#SVGID_328_);}
	.st456{fill:url(#SVGID_329_);}
	.st457{opacity:0.6;fill:url(#SVGID_330_);}
	.st458{opacity:0.5;fill:#FFFFFF;}
	.st459{fill:url(#SVGID_331_);}
	.st460{fill:#1A2E35;}
	.st461{fill:url(#SVGID_332_);}
	.st462{fill:#FFC3BD;}
	.st463{fill:#FF847F;}
	.st464{opacity:0.2;}
	.st465{opacity:0.8;fill:#1A2E35;}
	.st466{fill:url(#SVGID_333_);}
	.st467{opacity:0.3;}
	.st468{fill:url(#SVGID_334_);}
	.st469{fill:url(#SVGID_335_);}
	.st470{fill:none;stroke:url(#SVGID_336_);stroke-miterlimit:10;}
	.st471{fill:none;stroke:url(#SVGID_337_);stroke-miterlimit:10;}
	.st472{fill:none;stroke:url(#SVGID_338_);stroke-miterlimit:10;}
	.st473{fill:none;stroke:url(#SVGID_339_);stroke-miterlimit:10;}
	.st474{fill:none;stroke:url(#SVGID_340_);stroke-miterlimit:10;}
	.st475{fill:url(#SVGID_341_);}
	.st476{fill:url(#SVGID_342_);}
	.st477{fill:url(#SVGID_343_);}
	.st478{fill:url(#SVGID_344_);}
	.st479{fill:url(#SVGID_345_);}
	.st480{fill:url(#SVGID_346_);}
	.st481{fill:url(#SVGID_347_);}
	.st482{fill:url(#SVGID_348_);}
	.st483{fill:url(#SVGID_349_);}
	.st484{fill:url(#SVGID_350_);}
	.st485{fill:url(#SVGID_351_);}
	.st486{fill:none;stroke:url(#SVGID_352_);stroke-miterlimit:10;}
	.st487{fill:none;stroke:url(#SVGID_353_);stroke-miterlimit:10;}
	.st488{fill:none;stroke:url(#SVGID_354_);stroke-miterlimit:10;}
	.st489{fill:none;stroke:url(#SVGID_355_);stroke-miterlimit:10;}
	.st490{fill:none;stroke:url(#SVGID_356_);stroke-miterlimit:10;}
	.st491{fill:url(#SVGID_357_);}
	.st492{fill:url(#SVGID_358_);}
	.st493{fill:url(#SVGID_359_);}
	.st494{fill:url(#SVGID_360_);}
	.st495{fill:url(#SVGID_361_);}
	.st496{fill:url(#SVGID_362_);}
	.st497{fill:url(#SVGID_363_);}
	.st498{fill:url(#SVGID_364_);}
	.st499{fill:url(#SVGID_365_);}
	.st500{fill:url(#SVGID_366_);}
	.st501{fill:url(#SVGID_367_);}
	.st502{fill:none;stroke:url(#SVGID_368_);stroke-miterlimit:10;}
	.st503{fill:none;stroke:url(#SVGID_369_);stroke-miterlimit:10;}
	.st504{fill:none;stroke:url(#SVGID_370_);stroke-miterlimit:10;}
	.st505{fill:none;stroke:url(#SVGID_371_);stroke-miterlimit:10;}
	.st506{fill:none;stroke:url(#SVGID_372_);stroke-miterlimit:10;}
	.st507{fill:url(#SVGID_373_);}
	.st508{fill:url(#SVGID_374_);}
	.st509{fill:url(#SVGID_375_);}
	.st510{fill:url(#SVGID_376_);}
	.st511{fill:url(#SVGID_377_);}
	.st512{fill:url(#SVGID_378_);}
	.st513{fill:url(#SVGID_379_);}
	.st514{fill:url(#SVGID_380_);}
	.st515{fill:url(#SVGID_381_);}
	.st516{fill:url(#SVGID_382_);}
	.st517{fill:url(#SVGID_383_);}
	.st518{fill:none;stroke:url(#SVGID_384_);stroke-miterlimit:10;}
	.st519{fill:none;stroke:url(#SVGID_385_);stroke-miterlimit:10;}
	.st520{fill:none;stroke:url(#SVGID_386_);stroke-miterlimit:10;}
	.st521{fill:none;stroke:url(#SVGID_387_);stroke-miterlimit:10;}
	.st522{fill:none;stroke:url(#SVGID_388_);stroke-miterlimit:10;}
	.st523{fill:url(#SVGID_389_);}
	.st524{fill:url(#SVGID_390_);}
	.st525{fill:url(#SVGID_391_);}
	.st526{fill:url(#SVGID_392_);}
	.st527{fill:url(#SVGID_393_);}
	.st528{fill:url(#SVGID_394_);}
	.st529{fill:url(#SVGID_395_);}
	.st530{fill:url(#SVGID_396_);}
	.st531{fill:url(#SVGID_397_);}
	.st532{fill:url(#SVGID_398_);}
	.st533{fill:url(#SVGID_399_);}
	.st534{fill:none;stroke:url(#SVGID_400_);stroke-miterlimit:10;}
	.st535{fill:none;stroke:url(#SVGID_401_);stroke-miterlimit:10;}
	.st536{fill:none;stroke:url(#SVGID_402_);stroke-miterlimit:10;}
	.st537{fill:none;stroke:url(#SVGID_403_);stroke-miterlimit:10;}
	.st538{fill:none;stroke:url(#SVGID_404_);stroke-miterlimit:10;}
	.st539{fill:url(#SVGID_405_);}
	.st540{fill:url(#SVGID_406_);}
	.st541{fill:url(#SVGID_407_);}
	.st542{fill:url(#SVGID_408_);}
	.st543{fill:url(#SVGID_409_);}
	.st544{fill:url(#SVGID_410_);}
	.st545{fill:url(#SVGID_411_);}
	.st546{fill:url(#SVGID_412_);}
	.st547{fill:url(#SVGID_413_);}
	.st548{fill:url(#SVGID_414_);}
	.st549{fill:url(#SVGID_415_);}
	.st550{fill:none;stroke:url(#SVGID_416_);stroke-miterlimit:10;}
	.st551{fill:none;stroke:url(#SVGID_417_);stroke-miterlimit:10;}
	.st552{fill:none;stroke:url(#SVGID_418_);stroke-miterlimit:10;}
	.st553{fill:none;stroke:url(#SVGID_419_);stroke-miterlimit:10;}
	.st554{fill:none;stroke:url(#SVGID_420_);stroke-miterlimit:10;}
	.st555{fill:url(#SVGID_421_);}
	.st556{fill:url(#SVGID_422_);}
	.st557{fill:url(#SVGID_423_);}
	.st558{fill:url(#SVGID_424_);}
	.st559{fill:url(#SVGID_425_);}
	.st560{fill:url(#SVGID_426_);}
	.st561{fill:url(#SVGID_427_);}
	.st562{fill:url(#SVGID_428_);}
	.st563{fill:url(#SVGID_429_);}
	.st564{fill:url(#SVGID_430_);}
	.st565{fill:url(#SVGID_431_);}
	.st566{opacity:0.1;}
	.st567{fill:url(#SVGID_432_);}
	.st568{fill:url(#SVGID_433_);}
	.st569{fill:url(#SVGID_434_);}
	.st570{fill:url(#SVGID_435_);}
	.st571{fill:url(#SVGID_436_);}
	.st572{fill:url(#SVGID_437_);}
	.st573{fill:url(#SVGID_438_);}
	.st574{fill:url(#SVGID_439_);}
	.st575{fill:#E9EAF4;}
	.st576{fill:none;stroke:#CCC1E0;stroke-width:0.9846;stroke-miterlimit:10;}
	.st577{fill:#CCC1E0;}
	.st578{opacity:0.3;fill:#C8CAD7;}
	.st579{fill:none;stroke:#CCC1E0;stroke-width:1.1787;stroke-miterlimit:10;}
	.st580{fill:url(#SVGID_440_);}
	.st581{fill:url(#SVGID_441_);}
	.st582{fill:#FFB69B;}
	.st583{opacity:5.000000e-02;}
	.st584{fill:#75524F;}
	.st585{fill:#EBA88F;}
	.st586{fill:#8E6863;}
	.st587{fill:#89605C;}
	.st588{fill:#A27771;}
	.st589{fill:#1E212E;}
	.st590{fill:#FF748E;}
	.st591{fill:url(#SVGID_442_);}
	.st592{fill:#6E6B87;}
	.st593{fill:url(#SVGID_443_);}
	.st594{fill:#F26886;}
	.st595{fill:url(#SVGID_444_);}
	.st596{fill:url(#SVGID_445_);}
	.st597{font-family:'MyriadPro-Bold';}
	.st598{font-size:62.2504px;}
	.st599{font-family:'MyriadPro-Regular';}
	.st600{fill:url(#SVGID_446_);}
	.st601{fill:url(#SVGID_447_);}
	.st602{fill:url(#SVGID_448_);}
	.st603{fill:url(#SVGID_449_);}
	.st604{fill:url(#SVGID_450_);}
	.st605{fill:url(#SVGID_451_);}
	.st606{fill:url(#SVGID_452_);}
	.st607{fill:url(#SVGID_453_);}
	.st608{fill:url(#SVGID_454_);}
	.st609{fill:url(#SVGID_455_);}
	.st610{fill:url(#SVGID_456_);}
	.st611{fill:url(#SVGID_457_);}
	.st612{fill:url(#SVGID_458_);}
	.st613{fill:url(#SVGID_459_);}
	.st614{fill:url(#SVGID_460_);}
	.st615{fill:url(#SVGID_461_);}
	.st616{fill:url(#SVGID_462_);}
	.st617{fill:url(#SVGID_463_);}
	.st618{fill:url(#SVGID_464_);}
	.st619{fill:url(#SVGID_465_);}
	.st620{fill:url(#SVGID_466_);}
	.st621{fill:url(#SVGID_467_);}
	.st622{fill:url(#SVGID_468_);}
	.st623{fill:url(#SVGID_469_);}
	.st624{fill:url(#SVGID_470_);}
	.st625{fill:url(#SVGID_471_);}
	.st626{fill:url(#SVGID_472_);}
	.st627{fill:url(#SVGID_473_);}
	.st628{fill:url(#SVGID_474_);}
	.st629{fill:url(#SVGID_475_);}
	.st630{fill:url(#SVGID_476_);}
	.st631{fill:url(#SVGID_477_);}
	.st632{fill:url(#SVGID_478_);}
	.st633{fill:url(#SVGID_479_);}
	.st634{fill:url(#SVGID_480_);}
	.st635{fill:url(#SVGID_481_);}
	.st636{fill:url(#SVGID_482_);}
	.st637{fill:url(#SVGID_483_);}
	.st638{fill:url(#SVGID_484_);}
	.st639{fill:url(#SVGID_485_);}
	.st640{fill:url(#SVGID_486_);}
	.st641{fill:url(#SVGID_487_);}
	.st642{fill:url(#SVGID_488_);}
	.st643{fill:url(#SVGID_489_);}
	.st644{fill:url(#SVGID_490_);}
	.st645{fill:url(#SVGID_491_);}
	.st646{fill:url(#SVGID_492_);}
	.st647{fill:url(#SVGID_493_);}
	.st648{fill:url(#SVGID_494_);}
	.st649{fill:url(#SVGID_495_);}
	.st650{fill:url(#SVGID_496_);}
	.st651{fill:url(#SVGID_497_);}
	.st652{fill:url(#SVGID_498_);}
	.st653{fill:url(#SVGID_499_);}
	.st654{fill:url(#SVGID_500_);}
	.st655{fill:url(#SVGID_501_);}
	.st656{fill:url(#SVGID_502_);}
	.st657{fill:url(#SVGID_503_);}
	.st658{fill:url(#SVGID_504_);}
	.st659{fill:url(#SVGID_505_);}
	.st660{fill:url(#SVGID_506_);}
	.st661{fill:url(#SVGID_507_);}
	.st662{fill:url(#SVGID_508_);}
	.st663{fill:url(#SVGID_509_);}
	.st664{fill:url(#SVGID_510_);}
	.st665{fill:url(#SVGID_511_);}
	.st666{fill:url(#SVGID_512_);}
	.st667{fill:url(#SVGID_513_);}
	.st668{fill:url(#SVGID_514_);}
	.st669{fill:url(#SVGID_515_);}
	.st670{fill:url(#SVGID_516_);}
	.st671{fill:url(#SVGID_517_);}
	.st672{fill:url(#SVGID_518_);}
	.st673{fill:url(#SVGID_519_);}
	.st674{fill:url(#SVGID_520_);}
	.st675{fill:url(#SVGID_521_);}
	.st676{fill:url(#SVGID_522_);}
	.st677{fill:url(#SVGID_523_);}
	.st678{fill:url(#SVGID_524_);}
	.st679{fill:url(#SVGID_525_);}
	.st680{fill:url(#SVGID_526_);}
	.st681{fill:url(#SVGID_527_);}
	.st682{fill:url(#SVGID_528_);}
	.st683{fill:url(#SVGID_529_);}
	.st684{fill:url(#SVGID_530_);}
	.st685{fill:url(#SVGID_531_);}
	.st686{fill:url(#SVGID_532_);}
	.st687{fill:url(#SVGID_533_);}
	.st688{fill:url(#SVGID_534_);}
	.st689{fill:url(#SVGID_535_);}
	.st690{fill:url(#SVGID_536_);}
	.st691{fill:url(#SVGID_537_);}
	.st692{fill:url(#SVGID_538_);}
	.st693{fill:url(#SVGID_539_);}
	.st694{fill:url(#SVGID_540_);}
	.st695{fill:url(#SVGID_541_);}
	.st696{fill:url(#SVGID_542_);}
	.st697{fill:url(#SVGID_543_);}
	.st698{fill:url(#SVGID_544_);}
	.st699{fill:url(#SVGID_545_);}
	.st700{fill:url(#SVGID_546_);}
	.st701{fill:url(#SVGID_547_);}
	.st702{fill:url(#SVGID_548_);}
	.st703{fill:url(#SVGID_549_);}
	.st704{fill:url(#SVGID_550_);}
	.st705{fill:url(#SVGID_551_);}
	.st706{fill:url(#SVGID_552_);}
	.st707{fill:url(#SVGID_553_);}
	.st708{fill:url(#SVGID_554_);}
	.st709{fill:url(#SVGID_555_);}
	.st710{fill:url(#SVGID_556_);}
	.st711{fill:url(#SVGID_557_);}
	.st712{fill:url(#SVGID_558_);}
	.st713{fill:url(#SVGID_559_);}
	.st714{fill:url(#SVGID_560_);}
	.st715{fill:url(#SVGID_561_);}
	.st716{fill:url(#SVGID_562_);}
	.st717{fill:url(#SVGID_563_);}
	.st718{fill:url(#SVGID_564_);}
	.st719{fill:url(#SVGID_565_);}
	.st720{fill:url(#SVGID_566_);}
	.st721{fill:url(#SVGID_567_);}
	.st722{fill:url(#_x3C_Path_x3E__2_);}
	.st723{fill:url(#SVGID_568_);}
	.st724{opacity:0.6;fill:url(#SVGID_569_);}
	.st725{opacity:0.6;fill:url(#SVGID_570_);}
	.st726{opacity:0.6;fill:url(#SVGID_571_);}
	.st727{opacity:0.6;fill:url(#SVGID_572_);}
	.st728{opacity:0.6;fill:url(#SVGID_573_);}
	.st729{opacity:0.6;fill:url(#SVGID_574_);}
	.st730{opacity:0.6;fill:url(#SVGID_575_);}
	.st731{opacity:0.6;fill:url(#SVGID_576_);}
	.st732{opacity:0.6;fill:url(#SVGID_577_);}
	.st733{opacity:0.6;fill:url(#SVGID_578_);}
	.st734{opacity:0.6;fill:url(#SVGID_579_);}
	.st735{opacity:0.6;fill:url(#SVGID_580_);}
	.st736{opacity:0.6;fill:url(#SVGID_581_);}
	.st737{fill:url(#SVGID_582_);}
	.st738{fill:url(#SVGID_583_);}
	.st739{fill:url(#SVGID_584_);}
	.st740{opacity:0.6;fill:url(#SVGID_585_);}
	.st741{fill:url(#SVGID_586_);}
	.st742{fill:url(#SVGID_587_);}
	.st743{fill:url(#SVGID_588_);}
	.st744{fill:url(#SVGID_589_);}
	.st745{fill:url(#SVGID_590_);}
	.st746{fill:url(#SVGID_591_);}
	.st747{fill:url(#SVGID_592_);}
	.st748{fill:url(#SVGID_593_);}
	.st749{fill:url(#SVGID_594_);}
	.st750{fill:url(#SVGID_595_);}
	.st751{fill:url(#SVGID_596_);}
	.st752{fill:url(#SVGID_597_);}
	.st753{fill:url(#_x3C_Path_x3E__3_);}
	.st754{fill:url(#SVGID_598_);}
	.st755{opacity:0.6;fill:url(#SVGID_599_);}
	.st756{opacity:0.6;fill:url(#SVGID_600_);}
	.st757{opacity:0.6;fill:url(#SVGID_601_);}
	.st758{opacity:0.6;fill:url(#SVGID_602_);}
	.st759{opacity:0.6;fill:url(#SVGID_603_);}
	.st760{opacity:0.6;fill:url(#SVGID_604_);}
	.st761{opacity:0.6;fill:url(#SVGID_605_);}
	.st762{opacity:0.6;fill:url(#SVGID_606_);}
	.st763{opacity:0.6;fill:url(#SVGID_607_);}
	.st764{opacity:0.6;fill:url(#SVGID_608_);}
	.st765{opacity:0.6;fill:url(#SVGID_609_);}
	.st766{opacity:0.6;fill:url(#SVGID_610_);}
	.st767{opacity:0.6;fill:url(#SVGID_611_);}
	.st768{fill:url(#SVGID_612_);}
	.st769{fill:url(#SVGID_613_);}
	.st770{fill:url(#SVGID_614_);}
	.st771{opacity:0.6;fill:url(#SVGID_615_);}
	.st772{fill:url(#SVGID_616_);}
	.st773{fill:url(#SVGID_617_);}
	.st774{fill:url(#SVGID_618_);}
	.st775{fill:url(#SVGID_619_);}
	.st776{fill:url(#SVGID_620_);}
	.st777{fill:url(#SVGID_621_);}
	.st778{fill:url(#SVGID_622_);}
	.st779{fill:url(#SVGID_623_);}
	.st780{fill:url(#SVGID_624_);}
	.st781{fill:url(#SVGID_625_);}
	.st782{fill:url(#SVGID_626_);}
	.st783{fill:url(#SVGID_627_);}
	.st784{fill:url(#_x3C_Path_x3E__4_);}
	.st785{fill:url(#SVGID_628_);}
	.st786{opacity:0.6;fill:url(#SVGID_629_);}
	.st787{opacity:0.6;fill:url(#SVGID_630_);}
	.st788{opacity:0.6;fill:url(#SVGID_631_);}
	.st789{opacity:0.6;fill:url(#SVGID_632_);}
	.st790{opacity:0.6;fill:url(#SVGID_633_);}
	.st791{opacity:0.6;fill:url(#SVGID_634_);}
	.st792{opacity:0.6;fill:url(#SVGID_635_);}
	.st793{opacity:0.6;fill:url(#SVGID_636_);}
	.st794{opacity:0.6;fill:url(#SVGID_637_);}
	.st795{opacity:0.6;fill:url(#SVGID_638_);}
	.st796{opacity:0.6;fill:url(#SVGID_639_);}
	.st797{opacity:0.6;fill:url(#SVGID_640_);}
	.st798{opacity:0.6;fill:url(#SVGID_641_);}
	.st799{fill:url(#SVGID_642_);}
	.st800{fill:url(#SVGID_643_);}
	.st801{fill:url(#SVGID_644_);}
	.st802{opacity:0.6;fill:url(#SVGID_645_);}
	.st803{fill:url(#SVGID_646_);}
	.st804{fill:url(#SVGID_647_);}
	.st805{fill:url(#SVGID_648_);}
	.st806{fill:url(#SVGID_649_);}
	.st807{fill:url(#SVGID_650_);}
	.st808{fill:url(#SVGID_651_);}
	.st809{fill:url(#SVGID_652_);}
	.st810{fill:url(#SVGID_653_);}
	.st811{fill:url(#SVGID_654_);}
	.st812{fill:url(#SVGID_655_);}
	.st813{fill:url(#SVGID_656_);}
	.st814{fill:url(#SVGID_657_);}
	.st815{fill:url(#_x3C_Path_x3E__5_);}
	.st816{fill:url(#SVGID_658_);}
	.st817{opacity:0.6;fill:url(#SVGID_659_);}
	.st818{opacity:0.6;fill:url(#SVGID_660_);}
	.st819{opacity:0.6;fill:url(#SVGID_661_);}
	.st820{opacity:0.6;fill:url(#SVGID_662_);}
	.st821{opacity:0.6;fill:url(#SVGID_663_);}
	.st822{opacity:0.6;fill:url(#SVGID_664_);}
	.st823{opacity:0.6;fill:url(#SVGID_665_);}
	.st824{opacity:0.6;fill:url(#SVGID_666_);}
	.st825{opacity:0.6;fill:url(#SVGID_667_);}
	.st826{opacity:0.6;fill:url(#SVGID_668_);}
	.st827{opacity:0.6;fill:url(#SVGID_669_);}
	.st828{opacity:0.6;fill:url(#SVGID_670_);}
	.st829{opacity:0.6;fill:url(#SVGID_671_);}
	.st830{fill:url(#SVGID_672_);}
	.st831{fill:url(#SVGID_673_);}
	.st832{fill:url(#SVGID_674_);}
	.st833{opacity:0.6;fill:url(#SVGID_675_);}
	.st834{fill:url(#SVGID_676_);}
	.st835{fill:url(#SVGID_677_);}
	.st836{fill:url(#SVGID_678_);}
	.st837{fill:url(#SVGID_679_);}
	.st838{fill:url(#SVGID_680_);}
	.st839{fill:url(#SVGID_681_);}
	.st840{fill:url(#SVGID_682_);}
	.st841{fill:url(#SVGID_683_);}
	.st842{fill:url(#SVGID_684_);}
	.st843{fill:url(#SVGID_685_);}
	.st844{fill:url(#SVGID_686_);}
	.st845{fill:url(#SVGID_687_);}
	.st846{fill:url(#_x3C_Path_x3E__11_);}
	.st847{fill:url(#SVGID_688_);}
	.st848{opacity:0.6;fill:url(#SVGID_689_);}
	.st849{opacity:0.6;fill:url(#SVGID_690_);}
	.st850{opacity:0.6;fill:url(#SVGID_691_);}
	.st851{opacity:0.6;fill:url(#SVGID_692_);}
	.st852{opacity:0.6;fill:url(#SVGID_693_);}
	.st853{opacity:0.6;fill:url(#SVGID_694_);}
	.st854{opacity:0.6;fill:url(#SVGID_695_);}
	.st855{opacity:0.6;fill:url(#SVGID_696_);}
	.st856{opacity:0.6;fill:url(#SVGID_697_);}
	.st857{opacity:0.6;fill:url(#SVGID_698_);}
	.st858{opacity:0.6;fill:url(#SVGID_699_);}
	.st859{opacity:0.6;fill:url(#SVGID_700_);}
	.st860{opacity:0.6;fill:url(#SVGID_701_);}
	.st861{fill:url(#SVGID_702_);}
	.st862{fill:url(#SVGID_703_);}
	.st863{fill:url(#SVGID_704_);}
	.st864{opacity:0.6;fill:url(#SVGID_705_);}
	.st865{fill:url(#SVGID_706_);}
	.st866{fill:url(#SVGID_707_);}
	.st867{fill:url(#SVGID_708_);}
	.st868{fill:url(#SVGID_709_);}
	.st869{fill:url(#SVGID_710_);}
</style>
<path class="st33" d="M751.1,500.2H90.8c-16.6,0-30-13.4-30-30V125.1c0-16.6,13.4-30,30-30h660.3c16.6,0,30,13.4,30,30v345.1
	C781.1,486.8,767.6,500.2,751.1,500.2z"/>
<text transform="matrix(1 0 0 1 400.4746 278.5579)"><tspan x="0" y="0" class="st597 st598">Pemilihan</tspan><tspan x="0" y="74.7" class="st599 st598">Room 1</tspan></text>
<g>
	<ellipse class="st566" cx="222.4" cy="398.3" rx="119.1" ry="11.5"/>
	<ellipse class="st566" cx="319.6" cy="414" rx="28.7" ry="7.9"/>
	<g>
		<g>
			<g>
				<linearGradient id="SVGID_1_" gradientUnits="userSpaceOnUse" x1="150.8103" y1="397.0515" x2="281.0107" y2="397.0515">
					<stop  offset="0" style="stop-color:#CA4B7C"/>
					<stop  offset="1" style="stop-color:#FE7087"/>
				</linearGradient>
				<path class="st43" d="M276,402.1H155.8c-2.8,0-5-2.3-5-5l0,0c0-2.8,2.3-5,5-5H276c2.8,0,5,2.3,5,5l0,0
					C281,399.8,278.8,402.1,276,402.1z"/>
				<linearGradient id="SVGID_2_" gradientUnits="userSpaceOnUse" x1="174.3275" y1="378.7834" x2="257.4936" y2="378.7834">
					<stop  offset="0" style="stop-color:#CA4B7C"/>
					<stop  offset="1" style="stop-color:#FE7087"/>
				</linearGradient>
				<path class="st45" d="M257.5,395.5h-83.2c15.3-5.9,16.6-18.9,15.8-26.8c-0.4-3.9-1.3-6.6-1.3-6.6h46.5c-0.6,2.4-0.9,4.5-1.1,6.6
					C232.2,392.9,257.5,395.5,257.5,395.5z"/>
			</g>
			<linearGradient id="SVGID_3_" gradientUnits="userSpaceOnUse" x1="188.7702" y1="365.3875" x2="235.3045" y2="365.3875">
				<stop  offset="0" style="stop-color:#CA4B7C"/>
				<stop  offset="1" style="stop-color:#FE7087"/>
			</linearGradient>
			<path class="st46" d="M235.3,362.1c-0.6,2.4-0.9,4.5-1.1,6.6h-44.1c-0.4-3.9-1.3-6.6-1.3-6.6H235.3z"/>
		</g>
		<linearGradient id="SVGID_4_" gradientUnits="userSpaceOnUse" x1="96.3918" y1="269.2984" x2="335.4292" y2="269.2984">
			<stop  offset="0" style="stop-color:#FE7087"/>
			<stop  offset="1" style="stop-color:#FE9D82"/>
		</linearGradient>
		<path class="st47" d="M335.4,187v164.6c0,7.5-6.1,13.7-13.6,13.7H110c-7.5,0-13.7-6.1-13.7-13.7V187c0-7.5,6.1-13.6,13.7-13.6
			h211.7C329.3,173.4,335.4,179.5,335.4,187z"/>
		<path class="st181" d="M335.4,187v147.7h-239V187c0-7.5,6.1-13.6,13.7-13.6h211.7C329.3,173.4,335.4,179.5,335.4,187z"/>
		<path class="st157" d="M328.5,189.6v132.1c0,3.7-3,6.6-6.6,6.6h-212c-3.7,0-6.6-3-6.6-6.6V189.6c0-3.7,3-6.6,6.6-6.6h212
			C325.6,183,328.5,185.9,328.5,189.6z"/>
		<linearGradient id="SVGID_5_" gradientUnits="userSpaceOnUse" x1="103.3121" y1="188.0634" x2="328.5089" y2="188.0634">
			<stop  offset="0" style="stop-color:#6E376E"/>
			<stop  offset="1" style="stop-color:#CA4B7C"/>
		</linearGradient>
		<path class="st48" d="M328.5,189.6v3.6H103.3v-3.6c0-3.7,3-6.6,6.6-6.6h212C325.6,183,328.5,185.9,328.5,189.6z"/>
		<linearGradient id="SVGID_6_" gradientUnits="userSpaceOnUse" x1="116.382" y1="188.8387" x2="122.5327" y2="188.8387">
			<stop  offset="0" style="stop-color:#FE7087"/>
			<stop  offset="1" style="stop-color:#FE9D82"/>
		</linearGradient>
		<path class="st49" d="M122.5,188.8c0,1.7-1.4,3.1-3.1,3.1c-1.7,0-3.1-1.4-3.1-3.1c0-1.7,1.4-3.1,3.1-3.1
			C121.2,185.8,122.5,187.1,122.5,188.8z"/>
		<linearGradient id="SVGID_7_" gradientUnits="userSpaceOnUse" x1="125.1887" y1="188.8387" x2="131.3394" y2="188.8387">
			<stop  offset="0" style="stop-color:#FE7087"/>
			<stop  offset="1" style="stop-color:#FE9D82"/>
		</linearGradient>
		<path class="st50" d="M131.3,188.8c0,1.7-1.4,3.1-3.1,3.1c-1.7,0-3.1-1.4-3.1-3.1c0-1.7,1.4-3.1,3.1-3.1
			C130,185.8,131.3,187.1,131.3,188.8z"/>
		<linearGradient id="SVGID_8_" gradientUnits="userSpaceOnUse" x1="133.6566" y1="188.8387" x2="139.8073" y2="188.8387">
			<stop  offset="0" style="stop-color:#FE7087"/>
			<stop  offset="1" style="stop-color:#FE9D82"/>
		</linearGradient>
		<path class="st53" d="M139.8,188.8c0,1.7-1.4,3.1-3.1,3.1c-1.7,0-3.1-1.4-3.1-3.1c0-1.7,1.4-3.1,3.1-3.1
			C138.4,185.8,139.8,187.1,139.8,188.8z"/>
		<g>
			<path class="st575" d="M206.9,225.4h-83c-2.5,0-4.5-2-4.5-4.5v-13.7c0-2.5,2-4.5,4.5-4.5h83c2.5,0,4.5,2,4.5,4.5v13.7
				C211.4,223.4,209.4,225.4,206.9,225.4z"/>
			<g>
				<path class="st576" d="M133.9,221.9h-7c-2.4,0-4.3-1.9-4.3-4.3v-7c0-2.4,1.9-4.3,4.3-4.3h7c2.4,0,4.3,1.9,4.3,4.3v7
					C138.3,220,136.3,221.9,133.9,221.9z"/>
				<path class="st577" d="M206.2,213.3h-58.4c-1.2,0-2.1-1-2.1-2.1l0,0c0-1.2,1-2.1,2.1-2.1h58.4c1.2,0,2.1,1,2.1,2.1l0,0
					C208.3,212.3,207.4,213.3,206.2,213.3z"/>
				<path class="st577" d="M171.1,219h-23.4c-1.2,0-2.1-1-2.1-2.1l0,0c0-1.2,1-2.1,2.1-2.1h23.4c1.2,0,2.1,1,2.1,2.1l0,0
					C173.2,218.1,172.3,219,171.1,219z"/>
			</g>
		</g>
		<g>
			<path class="st575" d="M206.9,256.6h-83c-2.5,0-4.5-2-4.5-4.5v-13.7c0-2.5,2-4.5,4.5-4.5h83c2.5,0,4.5,2,4.5,4.5v13.7
				C211.4,254.6,209.4,256.6,206.9,256.6z"/>
			<g>
				<path class="st576" d="M133.9,253.1h-7c-2.4,0-4.3-1.9-4.3-4.3v-7c0-2.4,1.9-4.3,4.3-4.3h7c2.4,0,4.3,1.9,4.3,4.3v7
					C138.3,251.2,136.3,253.1,133.9,253.1z"/>
				<path class="st577" d="M206.2,244.5h-58.4c-1.2,0-2.1-1-2.1-2.1l0,0c0-1.2,1-2.1,2.1-2.1h58.4c1.2,0,2.1,1,2.1,2.1l0,0
					C208.3,243.6,207.4,244.5,206.2,244.5z"/>
				<path class="st577" d="M171.1,250.3h-23.4c-1.2,0-2.1-1-2.1-2.1l0,0c0-1.2,1-2.1,2.1-2.1h23.4c1.2,0,2.1,1,2.1,2.1l0,0
					C173.2,249.3,172.3,250.3,171.1,250.3z"/>
			</g>
		</g>
		<g>
			<path class="st575" d="M307.9,256.6h-83c-2.5,0-4.5-2-4.5-4.5v-13.7c0-2.5,2-4.5,4.5-4.5h83c2.5,0,4.5,2,4.5,4.5v13.7
				C312.4,254.6,310.4,256.6,307.9,256.6z"/>
			<g>
				<path class="st576" d="M234.9,253.1h-7c-2.4,0-4.3-1.9-4.3-4.3v-7c0-2.4,1.9-4.3,4.3-4.3h7c2.4,0,4.3,1.9,4.3,4.3v7
					C239.2,251.2,237.3,253.1,234.9,253.1z"/>
				<path class="st577" d="M307.1,244.5h-58.4c-1.2,0-2.1-1-2.1-2.1l0,0c0-1.2,1-2.1,2.1-2.1h58.4c1.2,0,2.1,1,2.1,2.1l0,0
					C309.3,243.6,308.3,244.5,307.1,244.5z"/>
				<path class="st577" d="M272.1,250.3h-23.4c-1.2,0-2.1-1-2.1-2.1l0,0c0-1.2,1-2.1,2.1-2.1h23.4c1.2,0,2.1,1,2.1,2.1l0,0
					C274.2,249.3,273.3,250.3,272.1,250.3z"/>
			</g>
		</g>
		<g>
			<path class="st575" d="M307.9,287.8h-83c-2.5,0-4.5-2-4.5-4.5v-13.7c0-2.5,2-4.5,4.5-4.5h83c2.5,0,4.5,2,4.5,4.5v13.7
				C312.4,285.8,310.4,287.8,307.9,287.8z"/>
			<g>
				<path class="st576" d="M234.9,284.4h-7c-2.4,0-4.3-1.9-4.3-4.3v-7c0-2.4,1.9-4.3,4.3-4.3h7c2.4,0,4.3,1.9,4.3,4.3v7
					C239.2,282.4,237.3,284.4,234.9,284.4z"/>
				<path class="st577" d="M307.1,275.8h-58.4c-1.2,0-2.1-1-2.1-2.1l0,0c0-1.2,1-2.1,2.1-2.1h58.4c1.2,0,2.1,1,2.1,2.1l0,0
					C309.3,274.8,308.3,275.8,307.1,275.8z"/>
				<path class="st577" d="M272.1,281.5h-23.4c-1.2,0-2.1-1-2.1-2.1l0,0c0-1.2,1-2.1,2.1-2.1h23.4c1.2,0,2.1,1,2.1,2.1l0,0
					C274.2,280.6,273.3,281.5,272.1,281.5z"/>
			</g>
		</g>
		<g>
			<path class="st575" d="M206.9,319.1h-83c-2.5,0-4.5-2-4.5-4.5v-13.7c0-2.5,2-4.5,4.5-4.5h83c2.5,0,4.5,2,4.5,4.5v13.7
				C211.4,317.1,209.4,319.1,206.9,319.1z"/>
			<g>
				<path class="st576" d="M133.9,315.6h-7c-2.4,0-4.3-1.9-4.3-4.3v-7c0-2.4,1.9-4.3,4.3-4.3h7c2.4,0,4.3,1.9,4.3,4.3v7
					C138.3,313.7,136.3,315.6,133.9,315.6z"/>
				<path class="st577" d="M206.9,307h-59.8c-0.8,0-1.4-0.6-1.4-1.4v-1.4c0-0.8,0.6-1.4,1.4-1.4h59.8c0.8,0,1.4,0.6,1.4,1.4v1.4
					C208.3,306.4,207.7,307,206.9,307z"/>
				<path class="st577" d="M171.1,312.8h-23.4c-1.2,0-2.1-1-2.1-2.1l0,0c0-1.2,1-2.1,2.1-2.1h23.4c1.2,0,2.1,1,2.1,2.1l0,0
					C173.2,311.8,172.3,312.8,171.1,312.8z"/>
			</g>
		</g>
		<g>
			<path class="st575" d="M307.9,319.1h-83c-2.5,0-4.5-2-4.5-4.5v-13.7c0-2.5,2-4.5,4.5-4.5h83c2.5,0,4.5,2,4.5,4.5v13.7
				C312.4,317.1,310.4,319.1,307.9,319.1z"/>
			<g>
				<path class="st576" d="M234.9,315.6h-7c-2.4,0-4.3-1.9-4.3-4.3v-7c0-2.4,1.9-4.3,4.3-4.3h7c2.4,0,4.3,1.9,4.3,4.3v7
					C239.2,313.7,237.3,315.6,234.9,315.6z"/>
				<path class="st577" d="M307.8,307H248c-0.8,0-1.4-0.6-1.4-1.4v-1.4c0-0.8,0.6-1.4,1.4-1.4h59.8c0.8,0,1.4,0.6,1.4,1.4v1.4
					C309.3,306.4,308.6,307,307.8,307z"/>
				<path class="st577" d="M272.1,312.8h-23.4c-1.2,0-2.1-1-2.1-2.1l0,0c0-1.2,1-2.1,2.1-2.1h23.4c1.2,0,2.1,1,2.1,2.1l0,0
					C274.2,311.8,273.3,312.8,272.1,312.8z"/>
			</g>
		</g>
		<g>
			<g>
				<path class="st578" d="M322.8,228.8h-99.4c-3,0-5.4-2.4-5.4-5.4V207c0-3,2.4-5.4,5.4-5.4h99.4c3,0,5.4,2.4,5.4,5.4v16.4
					C328.2,226.4,325.8,228.8,322.8,228.8z"/>
				<path class="st575" d="M325.2,225.4h-99.4c-3,0-5.4-2.4-5.4-5.4v-16.4c0-3,2.4-5.4,5.4-5.4h99.4c3,0,5.4,2.4,5.4,5.4V220
					C330.5,223,328.1,225.4,325.2,225.4z"/>
				<g>
					<path class="st579" d="M237.7,221.2h-8.4c-2.9,0-5.2-2.3-5.2-5.2v-8.4c0-2.9,2.3-5.2,5.2-5.2h8.4c2.9,0,5.2,2.3,5.2,5.2v8.4
						C242.9,218.9,240.6,221.2,237.7,221.2z"/>
					<path class="st577" d="M324.3,210.9h-70c-1.4,0-2.5-1.1-2.5-2.5l0,0c0-1.4,1.1-2.5,2.5-2.5h70c1.4,0,2.5,1.1,2.5,2.5l0,0
						C326.8,209.8,325.7,210.9,324.3,210.9z"/>
					<path class="st577" d="M282.3,217.8h-28c-1.4,0-2.5-1.1-2.5-2.5l0,0c0-1.4,1.1-2.5,2.5-2.5h28c1.4,0,2.5,1.1,2.5,2.5l0,0
						C284.8,216.6,283.7,217.8,282.3,217.8z"/>
				</g>
			</g>
			<linearGradient id="SVGID_9_" gradientUnits="userSpaceOnUse" x1="226.7841" y1="211.8025" x2="241.4752" y2="211.8025">
				<stop  offset="0" style="stop-color:#6E376E"/>
				<stop  offset="1" style="stop-color:#CA4B7C"/>
			</linearGradient>
			<polygon class="st54" points="228.9,209.8 226.8,211.7 231.9,218.3 241.5,207.3 239.6,205.3 232.2,214.5 			"/>
		</g>
		<g>
			<g>
				<path class="st575" d="M206.9,287.8h-83c-2.5,0-4.5-2-4.5-4.5v-13.7c0-2.5,2-4.5,4.5-4.5h83c2.5,0,4.5,2,4.5,4.5v13.7
					C211.4,285.8,209.4,287.8,206.9,287.8z"/>
				<g>
					<path class="st576" d="M133.9,284.4h-7c-2.4,0-4.3-1.9-4.3-4.3v-7c0-2.4,1.9-4.3,4.3-4.3h7c2.4,0,4.3,1.9,4.3,4.3v7
						C138.3,282.4,136.3,284.4,133.9,284.4z"/>
					<path class="st577" d="M206.2,275.8h-58.4c-1.2,0-2.1-1-2.1-2.1l0,0c0-1.2,1-2.1,2.1-2.1h58.4c1.2,0,2.1,1,2.1,2.1l0,0
						C208.3,274.8,207.4,275.8,206.2,275.8z"/>
					<path class="st577" d="M171.1,281.5h-23.4c-1.2,0-2.1-1-2.1-2.1l0,0c0-1.2,1-2.1,2.1-2.1h23.4c1.2,0,2.1,1,2.1,2.1l0,0
						C173.2,280.6,172.3,281.5,171.1,281.5z"/>
				</g>
			</g>
			<linearGradient id="SVGID_10_" gradientUnits="userSpaceOnUse" x1="124.7703" y1="276.5211" x2="137.0414" y2="276.5211">
				<stop  offset="0" style="stop-color:#6E376E"/>
				<stop  offset="1" style="stop-color:#CA4B7C"/>
			</linearGradient>
			<polygon class="st55" points="126.5,274.9 124.8,276.4 129,281.9 137,272.7 135.5,271.1 129.3,278.8 			"/>
		</g>
	</g>
	<g>
		<rect x="316.7" y="255.3" class="st582" width="6.6" height="13.8"/>
		<path class="st583" d="M323.3,256.7v4.5c-2.2,0.7-4.9,1.3-6.6,1.4v-3.9l4.5-2.8C321.2,255.9,322.1,256.2,323.3,256.7z"/>
		<g>
			<path class="st584" d="M326,403.5c0,0,5.9-2.7,8.9-0.9C334.9,402.6,332.9,407.2,326,403.5z"/>
			<path class="st585" d="M325.2,393.4l1.9,12.2c0,0,7.2-1.4,7.2-1.7c0-0.3-2.4-12.9-2.4-12.9L325.2,393.4z"/>
			<g>
				<path class="st586" d="M315.1,410.1c-0.8-0.6-1.1-1.2-1-1.8c0.2-1.1,1.8-2.1,3.4-2.1c0.6,0,1.5-0.2,2.5-0.5
					c0.2,0,0.3-0.1,0.5-0.1c0.4-0.1,0.7-0.2,1.1-0.4c0.2-0.1,0.3-0.1,0.5-0.2c0.3-0.1,0.6-0.2,0.9-0.3c0.2-0.1,0.3-0.1,0.5-0.2
					c1.5-0.6,2.6-1.1,2.6-1.1c6.5,2.2,8.9-0.9,8.9-0.9c2.8,2.4,1.9,4.1,1.8,5.3c0,0.2,0,0.4,0.1,0.6
					C339.4,413,317.5,411.8,315.1,410.1z"/>
				<path class="st584" d="M315.1,410.1c-0.8-0.6-1.1-1.2-1-1.8c0.2,0.1,0.5,0.3,0.7,0.4c0.9,0.5,1.9,0.8,2.9,1.1
					c2.1,0.5,4.2,0.7,6.4,0.7c1.6,0,3.3,0,4.9-0.3c1.4-0.2,2.8-0.6,4.2-0.9c0.7-0.2,1.4-0.3,2-0.7c0.4-0.2,0.8-0.5,1.2-0.7
					c0.1,0,0.1-0.1,0.2-0.1c0,0.2,0,0.4,0.1,0.6C339.4,413,317.5,411.8,315.1,410.1z"/>
			</g>
		</g>
		<g>
			<path class="st587" d="M314,409.2c0,0,5.6-3.3,8.8-1.8C322.7,407.3,321.2,412.1,314,409.2z"/>
			<path class="st582" d="M312.2,399.1l3.2,11.9c0,0,7-2.1,7-2.5c0-0.4-3.7-12.6-3.7-12.6L312.2,399.1z"/>
			<g>
				<path class="st588" d="M303.8,416.8c-0.9-0.5-1.2-1.1-1.1-1.6c0.1-1.1,1.6-2.3,3.1-2.4c0.6-0.1,1.5-0.3,2.4-0.7
					c0.2-0.1,0.3-0.1,0.5-0.2c0.4-0.2,0.7-0.3,1.1-0.5c0.2-0.1,0.3-0.1,0.5-0.2c0.3-0.1,0.6-0.3,0.8-0.4c0.2-0.1,0.3-0.2,0.5-0.2
					c1.4-0.7,2.5-1.3,2.5-1.3c6.7,1.5,8.8-1.8,8.8-1.8c3,2.1,2.3,3.9,2.4,5c0,0.2,0.1,0.4,0.2,0.6
					C328.2,417.3,306.4,418.2,303.8,416.8z"/>
				<path class="st587" d="M303.8,416.8c-0.9-0.5-1.2-1.1-1.1-1.6c0.2,0.1,0.5,0.2,0.7,0.3c1,0.4,2,0.6,3,0.8c2.1,0.3,4.3,0.2,6.4,0
					c1.6-0.2,3.3-0.4,4.9-0.8c1.4-0.4,2.7-0.8,4.1-1.3c0.7-0.2,1.3-0.5,1.9-0.9c0.4-0.3,0.8-0.6,1.2-0.8c0.1,0,0.1-0.1,0.2-0.1
					c0,0.2,0.1,0.4,0.2,0.6C328.2,417.3,306.4,418.2,303.8,416.8z"/>
				<g>
					<path class="st157" d="M312.2,413.8c0,0.1-0.1,0.2-0.2,0.2c0,0,0,0,0,0c-1.6-0.3-2.9-1.2-3.7-2c0.2-0.1,0.3-0.1,0.5-0.2
						c0.8,0.7,1.9,1.4,3.3,1.7C312.1,413.6,312.2,413.7,312.2,413.8z"/>
				</g>
				<g>
					<path class="st157" d="M313.5,412.9c0,0.1-0.1,0.2-0.2,0.2h0c-1.5-0.3-2.7-1-3.5-1.7c0.2-0.1,0.3-0.1,0.5-0.2
						c0.8,0.6,1.8,1.2,3.1,1.5C313.4,412.7,313.5,412.8,313.5,412.9z"/>
				</g>
				<g>
					<path class="st157" d="M314.6,412.1c0,0.1-0.1,0.2-0.2,0.2c0,0,0,0,0,0c-1.4-0.3-2.5-0.9-3.3-1.6c0.2-0.1,0.3-0.2,0.5-0.2
						c0.7,0.6,1.7,1.1,2.9,1.3C314.5,411.9,314.6,412,314.6,412.1z"/>
				</g>
			</g>
		</g>
		<path class="st181" d="M322,401.1l-1.7,0.3l-9,1.8c0,0-8.8-19.6-10.8-29.7c-1.6-8.4-1.3-18.8-1.3-18.8l2.4-41.1l16.5,2.3l-0.4,3.2
			l-5.8,43L322,401.1z"/>
		<path class="st589" d="M322,401.1l-1.7,0.3c-0.2-0.2-0.3-0.4-0.4-0.6c-1.5-2.8-2.1-5.9-2.8-9c-1.2-5.3-3-10.4-5-15.5
			c-0.9-2.1-1.8-4.2-2.3-6.4c-0.5-2.2-0.6-4.5-0.6-6.7c-0.2-8-0.1-16.1,1.3-24c0.8-4.4,1.9-8.7,3.4-12.9c0.6-1.8,1.2-3.5,1.7-5.3
			c0.2-0.7,0.2-1,0.8-1.4c0.1-0.1,0.8-0.3,1.4-0.5l-5.8,43L322,401.1z"/>
		<path class="st181" d="M334,395.3l-0.8,0.2l-8.9,1.8l-6.4-39.3c0,0-0.8-42.5-0.9-43.3l15.3-1.6l-0.2,4.9l-2,41.1L334,395.3z"/>
		<path class="st589" d="M334,395.3l-0.8,0.2c-0.3-0.4-0.6-1-0.8-1.5c-0.4-1.1-0.8-2.3-0.9-3.5c-0.2-1.6-0.2-3.3-0.4-4.9
			c-0.2-1.9-0.6-3.7-1-5.5c-1-4.8-1.6-9.6-1.9-14.5c-0.6-8.8-0.2-17.7,0.6-26.5c0.4-4.5,0.9-8.9,1.5-13.4c0.3-2.1,0.3-4.5,0.8-6.6
			c0.2-0.6,0.5-1,0.9-1.2l-2,41.1L334,395.3z"/>
		<g>
			<path class="st585" d="M339,302.6c-5.3,3.3-11.7,12.4-11.7,12.4l-2.5-10.9l8.3-7.1c0,0,0,0,0.1-0.1l-3-3.6l-4-4.7
				c0,0,0-0.1,0-0.3c-0.4-2.4-3.6-20.7,2-22.7c0,0,5.3,1,6.8,9.5c0.5,2.9,1.1,5.6,1.6,8.1c1,4.7,1.9,8.4,2.5,9.7
				C339.9,294.9,344.3,299.3,339,302.6z"/>
			<path class="st590" d="M336.6,283.3c-0.7,0.4-1.4,0.7-2.1,1.1c-2.1,1-4.3,1.8-6.3,3c-0.6,0.3-1.3,1-2,1.2
				c-0.4-2.4-3.6-20.7,2-22.7c0,0,5.3,1,6.8,9.5C335.5,278.1,336.1,280.9,336.6,283.3z"/>
		</g>
		<path class="st566" d="M333.8,293.2c0,0.5,0,0.9,0,1.4c0,0.2,0,0.4-0.1,0.6c-0.1,0.3-0.3,1.6-0.5,1.8l-3-3.6
			c-0.1-0.9-0.2-1.9-0.3-2.8c-0.1-1.3-0.4-2.6-0.6-3.9c-0.3-1.9-0.4-3.9,0-5.7c0.1-0.4,0.2-0.8,0.5-1.1c0.2-0.3,0.5-0.4,0.8-0.6
			c0.6-0.3,1.7-0.9,2.1-0.1c0.4,0.8,0.5,2.1,0.6,3c0.1,0.8,0.2,1.7,0.3,2.5C334,287.5,333.9,290.4,333.8,293.2z"/>
		<linearGradient id="SVGID_11_" gradientUnits="userSpaceOnUse" x1="298.0324" y1="293.9636" x2="333.5635" y2="293.9636">
			<stop  offset="0" style="stop-color:#FE7087"/>
			<stop  offset="1" style="stop-color:#FE9D82"/>
		</linearGradient>
		<path class="st56" d="M333.6,273c0,0-1.7,23.4-0.1,39c1.5,14.7-13.9,11.7-25.8,9.3c-0.8-0.1-1.5-0.3-2.2-0.4
			c-8.4-1.6-7.9-7.2-6.7-10.4c1-2.9,1.8-6,2.3-9l3.9-21.5l1.9-10.7c2.3-5.8,6.8-4.7,16.8-4.4C333.7,265.1,333.6,273,333.6,273z"/>
		<path class="st592" d="M333.8,396.3l-8.7,1.8c-0.6,0.1-1.2-0.3-1.3-0.9l-0.2-1.2c-0.1-0.6,0.3-1.2,0.9-1.3l8.7-1.8
			c0.6-0.1,1.2,0.3,1.3,0.9l0.2,1.2C334.8,395.6,334.4,396.2,333.8,396.3z"/>
		<g>
			<path class="st582" d="M312.9,264.7l-3.2,19.1l-15.2-11l-5-3.6c0,0-5.7-3.9-5.3-24.7h4.7c0,0,4.4,10.7,4,14.6c0,0,3,2.2,8.1,3.8
				C304.4,263.9,308.3,264.7,312.9,264.7z"/>
			<linearGradient id="SVGID_12_" gradientUnits="userSpaceOnUse" x1="294.5992" y1="273.3588" x2="312.9321" y2="273.3588">
				<stop  offset="0" style="stop-color:#FE7087"/>
				<stop  offset="1" style="stop-color:#FE9D82"/>
			</linearGradient>
			<path class="st57" d="M312.9,264.7l-3.2,19.1l-15.2-11c1.9-3.3,4.6-6.2,6.4-9.6c0.1-0.1,0.1-0.2,0.2-0.4
				C304.4,263.9,308.3,264.7,312.9,264.7z"/>
			<path class="st582" d="M286.2,236.1c0.1,0.1,0.2,0.2,0.3,0.3c0.1,0,0.3,0,0.4-0.1c0.1,0,0.1-0.1,0.1-0.2c0-0.1,0-0.2,0-0.4
				c0-0.1-0.1-0.3-0.3-0.4c-0.1,0-0.1,0-0.2,0c-0.2,0-0.3,0-0.4,0.2c0,0.1,0,0.2,0,0.3C286.2,236,286.2,236,286.2,236.1
				c-0.1-0.1-0.1-0.1-0.2-0.1c-0.1,0-0.2,0-0.3,0c-0.1,0-0.2,0.1-0.2,0.1c0,0-0.1,0.2-0.1,0.2c-0.1,0-0.1,0-0.2-0.1
				c-0.4-0.2-0.9,0.1-0.9,0.6c0,0,0,0,0,0c-0.4-0.4-1.1,0.2-1.3,0.7c-0.7,2.1,1.1,4.2,1.2,6.4c0,0.6,0,1.3,0.5,1.6
				c0.3,0.2,0.7,0.2,1.1,0.2c0.6,0,1.2,0,1.8,0c0.5,0,1.2-0.1,1.4-0.6c0.1-0.3,0-0.6,0-0.9c0-0.8,0.6-1.5,1.1-2.2
				c1-1.4,1.5-3.4,0.4-4.7c-1.3-1.7-2.1-3.4-3.1-5.3c-0.2-0.4-0.6-0.9-1.1-0.9c-0.4,0.1-0.7,0.5-0.7,0.9c0,0.7,0.5,1.2,0.8,1.7
				c0.2,0.3,0.3,0.6,0.4,1c0,0.2,0,0.3-0.1,0.5c-0.1,0.2-0.4,0.1-0.5,0.1c0,0,0,0,0,0c0,0,0,0,0,0
				C286.3,235.8,286.2,236,286.2,236.1"/>
		</g>
		<path class="st592" d="M321.8,401.6l-10,2.6c-0.6,0.2-1.3-0.2-1.4-0.8l-0.3-1.1c-0.2-0.6,0.2-1.3,0.8-1.4l10-2.6
			c0.6-0.2,1.3,0.2,1.4,0.8l0.3,1.1C322.8,400.9,322.4,401.5,321.8,401.6z"/>
		<path class="st594" d="M307.6,321.4c-0.8-0.1-1.5-0.3-2.2-0.4c-8.4-1.6-7.9-7.2-6.7-10.4c1-2.9,1.8-6,2.3-9l3.9-21.5
			c0.7,2.1,0.9,4.5,0.9,6.7c0,1.5-0.1,2.9-0.4,4.4c-0.6,4.4-1.9,8.7-2.7,13.1c-0.2,1.1-0.4,2.3-0.2,3.4c0.3,1.7,1.3,3.2,2.1,4.7
			c1.5,2.6,2.7,5.5,3,8.5C307.6,321,307.6,321.2,307.6,321.4z"/>
		<g>
			<linearGradient id="SVGID_13_" gradientUnits="userSpaceOnUse" x1="314.8982" y1="243.7655" x2="335.9232" y2="243.7655">
				<stop  offset="0" style="stop-color:#6E376E"/>
				<stop  offset="1" style="stop-color:#CA4B7C"/>
			</linearGradient>
			<path class="st58" d="M324.2,231.9c-1.1-0.6-2.3-0.7-3.5-0.7c-1.9,0-4,0.4-5.1,2c-0.7,1.1-0.8,2.4-0.7,3.7c0.2,2.2,1.1,4.5,3,5.5
				c1.5,0.8,3.4,0.7,4.6,1.9c0.5,0.5,0.8,1.2,1.1,1.8c1.3,3.3,2,6.8,2.2,10.3c2.4-3,5.5-5.2,7.8-8.2c1.4-1.7,2-4.4,2.2-6.6
				c0.2-2.3-1.2-4.6-3.2-5.8c-1.7-1.1-3.4-1.1-5.4-1.2c-1.5-0.1-0.7,0.1-1.5-1C325.4,232.9,325,232.3,324.2,231.9z"/>
			<path class="st582" d="M319.8,261c-4.8,0.6-6.2,1.2-6.8-4.1c-0.1-0.5-0.1-1.1-0.2-1.8c0-0.4-0.1-0.7-0.1-1.1
				c-0.5-8.3,4.4-17,4.4-17c12.5,0.9,11.6,8.3,11.6,12.1C328.7,252.8,325.3,260.3,319.8,261z"/>
			<linearGradient id="SVGID_14_" gradientUnits="userSpaceOnUse" x1="315.5107" y1="243.6242" x2="332.1389" y2="243.6242">
				<stop  offset="0" style="stop-color:#6E376E"/>
				<stop  offset="1" style="stop-color:#CA4B7C"/>
			</linearGradient>
			<path class="st60" d="M316.7,240.9c0.7,0.4,1.6,0.6,2.5,0.8c2,0.4,4.1,1.1,5.1,2.9c0.7,1.2,0.7,2.7,1,4c0.3,1.3,1.3,2.8,2.7,2.8
				c1.2,0,2.1-1.1,2.8-2.1c0.7-1,1.3-2,1.4-3.2c0.1-0.6,0-1.3-0.2-1.9c-1-3.2-4.1-5.2-7.1-6.6c-1.6-0.8-3.3-1.5-5-1.5
				C317.5,236,313.5,238.9,316.7,240.9z"/>
			<path class="st582" d="M329.2,250.2c-0.3,1.3-1.5,2.2-2.9,1.9c-1.3-0.3-2.2-1.5-1.9-2.9c0.3-1.3,1.5-2.2,2.9-1.9
				C328.7,247.6,329.5,248.9,329.2,250.2z"/>
			<path class="st582" d="M310.9,250c-0.3,0.3-0.7,0.6-0.7,1c0,0.6,0.6,1,1.2,1.2c0.5,0.2,1.1,0.3,1.7,0.4c0.4,0,0.7,0.1,1.1-0.1
				c0.7-0.3,0.9-1.2,0.9-1.9c0-0.8-0.1-1.7-0.3-2.5c-0.3-1.1-0.8-1-1.5-0.3C312.5,248.6,311.8,249.3,310.9,250z"/>
		</g>
	</g>
</g>
</svg>
