<?xml version="1.0" encoding="utf-8"?>
<!-- Generator: Adobe Illustrator 22.1.0, SVG Export Plug-In . SVG Version: 6.00 Build 0)  -->
<svg version="1.1" id="Layer_1" xmlns="http://www.w3.org/2000/svg" xmlns:xlink="http://www.w3.org/1999/xlink" x="0px" y="0px"
	 viewBox="0 0 841.9 595.3" style="enable-background:new 0 0 841.9 595.3;" xml:space="preserve">
<style type="text/css">
	.st0{fill:#FFFFFF;stroke:#FFD071;stroke-width:10;stroke-miterlimit:10;}
	.st1{fill:#F17171;}
	.st2{fill:#EE4D4D;}
	.st3{fill:#D64545;}
	.st4{fill:#71D0FF;}
	.st5{fill:#4DC4FF;}
	.st6{fill:#45B0E5;}
	.st7{fill:#FFA071;}
	.st8{fill:#FF884D;}
	.st9{fill:#E57A45;}
	.st10{fill:#7EA9FF;}
	.st11{fill:#5E94FF;}
	.st12{fill:#5485E5;}
	.st13{fill:#FFD071;}
	.st14{fill:#FFC44D;}
	.st15{fill:#E5B045;}
	.st16{fill:#B38DFF;}
	.st17{fill:#A071FF;}
	.st18{fill:#9065E5;}
	.st19{fill:#A2D471;}
	.st20{fill:#8BC94D;}
	.st21{fill:#7DB545;}
	.st22{fill:#FF71B7;}
	.st23{fill:#FF4DA5;}
	.st24{fill:#E54594;}
	.st25{fill:#71E2D0;}
	.st26{fill:#4DDBC4;}
	.st27{fill:#45C5B0;}
	.st28{fill:#A2ADB8;}
	.st29{fill:#8B98A6;}
	.st30{fill:#7D8995;}
	.st31{fill:#FFFFFF;stroke:#A2D471;stroke-width:10;stroke-miterlimit:10;}
	.st32{fill:#FFFFFF;stroke:#FFA071;stroke-width:10;stroke-miterlimit:10;}
	.st33{fill:#FFFFFF;stroke:#71D0FF;stroke-width:10;stroke-miterlimit:10;}
	.st34{fill:#C2A49D;}
	.st35{fill:#CDAD8A;}
	.st36{fill:#A48465;}
	.st37{fill:#F0CFA8;}
	.st38{fill:#F0DCC5;}
	.st39{fill:#7F6B59;}
	.st40{fill:#E6D3BD;}
	.st41{fill:#B29778;}
	.st42{fill:#E0C5A4;}
	.st43{fill:url(#SVGID_1_);}
	.st44{fill:#C5B9AB;}
	.st45{fill:url(#SVGID_2_);}
	.st46{fill:url(#SVGID_3_);}
	.st47{fill:url(#SVGID_4_);}
	.st48{fill:url(#SVGID_5_);}
	.st49{fill:url(#SVGID_6_);}
	.st50{fill:url(#SVGID_7_);}
	.st51{opacity:0.3;fill:#C2A49D;}
	.st52{fill:#BB9673;}
	.st53{fill:url(#SVGID_8_);}
	.st54{fill:url(#SVGID_9_);}
	.st55{fill:url(#SVGID_10_);}
	.st56{fill:url(#SVGID_11_);}
	.st57{fill:url(#SVGID_12_);}
	.st58{fill:url(#SVGID_13_);}
	.st59{fill:#8F6E4F;}
	.st60{fill:url(#SVGID_14_);}
	.st61{fill:url(#SVGID_15_);}
	.st62{fill:url(#SVGID_16_);}
	.st63{fill:url(#SVGID_17_);}
	.st64{fill:url(#SVGID_18_);}
	.st65{fill:url(#SVGID_19_);}
	.st66{fill:url(#SVGID_20_);}
	.st67{fill:url(#SVGID_21_);}
	.st68{fill:url(#SVGID_22_);}
	.st69{fill:url(#SVGID_23_);}
	.st70{fill:url(#SVGID_24_);}
	.st71{fill:url(#SVGID_25_);}
	.st72{fill:url(#SVGID_26_);}
	.st73{fill:url(#SVGID_27_);}
	.st74{fill:url(#SVGID_28_);}
	.st75{fill:url(#SVGID_29_);}
	.st76{fill:url(#SVGID_30_);}
	.st77{fill:url(#SVGID_31_);}
	.st78{fill:url(#SVGID_32_);}
	.st79{fill:url(#SVGID_33_);}
	.st80{fill:url(#SVGID_34_);}
	.st81{fill:url(#SVGID_35_);}
	.st82{fill:url(#SVGID_36_);}
	.st83{fill:url(#SVGID_37_);}
	.st84{fill:url(#SVGID_38_);}
	.st85{fill:url(#SVGID_39_);}
	.st86{fill:#FFFFFF;stroke:#F17171;stroke-width:10;stroke-miterlimit:10;}
	.st87{fill:url(#SVGID_40_);}
	.st88{fill:url(#SVGID_41_);}
	.st89{fill:url(#SVGID_42_);}
	.st90{fill:url(#SVGID_43_);}
	.st91{fill:url(#SVGID_44_);}
	.st92{fill:url(#SVGID_45_);}
	.st93{fill:url(#SVGID_46_);}
	.st94{fill:url(#SVGID_47_);}
	.st95{fill:url(#SVGID_48_);}
	.st96{fill:url(#SVGID_49_);}
	.st97{fill:url(#SVGID_50_);}
	.st98{fill:url(#SVGID_51_);}
	.st99{fill:url(#SVGID_52_);}
	.st100{fill:url(#SVGID_53_);}
	.st101{fill:url(#SVGID_54_);}
	.st102{fill:url(#SVGID_55_);}
	.st103{fill:url(#SVGID_56_);}
	.st104{fill:url(#SVGID_57_);}
	.st105{fill:url(#SVGID_58_);}
	.st106{fill:url(#SVGID_59_);}
	.st107{fill:url(#SVGID_60_);}
	.st108{fill:url(#SVGID_61_);}
	.st109{fill:url(#SVGID_62_);}
	.st110{fill:url(#SVGID_63_);}
	.st111{fill:url(#SVGID_64_);}
	.st112{fill:url(#SVGID_65_);}
	.st113{opacity:0.3;fill:url(#SVGID_66_);}
	.st114{opacity:0.3;fill:url(#SVGID_67_);}
	.st115{opacity:0.3;fill:url(#SVGID_68_);}
	.st116{opacity:0.3;fill:url(#SVGID_69_);}
	.st117{fill:url(#SVGID_70_);}
	.st118{fill:url(#SVGID_71_);}
	.st119{fill:url(#SVGID_72_);}
	.st120{fill:url(#SVGID_73_);}
	.st121{fill:url(#SVGID_74_);}
	.st122{fill:url(#SVGID_75_);}
	.st123{fill:url(#SVGID_76_);}
	.st124{fill:url(#SVGID_77_);}
	.st125{fill:url(#SVGID_78_);}
	.st126{fill:url(#SVGID_79_);}
	.st127{fill:url(#SVGID_80_);}
	.st128{fill:url(#SVGID_81_);}
	.st129{fill:url(#SVGID_82_);}
	.st130{fill:url(#SVGID_83_);}
	.st131{fill:#595959;}
	.st132{fill:#C1C1C1;}
	.st133{fill:#DDDDDD;}
	.st134{fill:#AFAFAF;}
	.st135{fill:#A5A5A5;}
	.st136{fill:#EF8E2E;}
	.st137{fill:#FFA357;}
	.st138{fill:#FFBE83;}
	.st139{fill:#FFB176;}
	.st140{fill:#3F3F3F;}
	.st141{fill:#CECECE;}
	.st142{fill:#D8D8D8;}
	.st143{fill:#EAEAEA;}
	.st144{fill:#F9D5B2;}
	.st145{fill:#E8B679;}
	.st146{fill:#F2C18B;}
	.st147{opacity:0.5;fill:#AFAFAF;}
	.st148{fill:#7C5045;}
	.st149{fill:#684337;}
	.st150{fill:#8C5D54;}
	.st151{fill:#56352C;}
	.st152{fill:#4D4D4D;}
	.st153{fill:#444444;}
	.st154{fill:#303030;}
	.st155{fill:#494949;}
	.st156{fill:#969696;}
	.st157{fill:#FFFFFF;}
	.st158{fill:#383838;}
	.st159{fill:#262626;}
	.st160{fill:#FFA543;}
	.st161{fill:#DD7A22;}
	.st162{fill:#BBBBBB;}
	.st163{fill:#FCB275;}
	.st164{fill:#FFB061;}
	.st165{fill:#D87923;}
	.st166{fill:#CCCCCC;}
	.st167{fill:#EDEDED;}
	.st168{fill:#5B5B5B;}
	.st169{fill:#59362D;}
	.st170{fill:#F4F4F4;}
	.st171{fill:#F93D3D;}
	.st172{fill:#FF5252;}
	.st173{fill:#FF6E6E;}
	.st174{fill:url(#SVGID_84_);}
	.st175{fill:url(#SVGID_85_);}
	.st176{fill:url(#SVGID_86_);}
	.st177{fill:url(#SVGID_87_);}
	.st178{fill:url(#SVGID_88_);}
	.st179{fill:#A77860;}
	.st180{fill:#EEA886;}
	.st181{fill:#2C3144;}
	.st182{fill:url(#SVGID_89_);}
	.st183{fill:url(#SVGID_90_);}
	.st184{fill:url(#SVGID_91_);}
	.st185{opacity:0.3;fill:url(#SVGID_92_);}
	.st186{fill:#DECBC4;}
	.st187{fill:#495055;}
	.st188{fill:#353A3D;}
	.st189{fill:url(#SVGID_93_);}
	.st190{fill:url(#SVGID_94_);}
	.st191{fill:url(#SVGID_95_);}
	.st192{fill:url(#SVGID_96_);}
	.st193{fill:#F5E2D9;}
	.st194{fill:#AD9F99;}
	.st195{fill:#69737A;}
	.st196{fill:url(#SVGID_97_);}
	.st197{fill:#2D3133;}
	.st198{fill:url(#SVGID_98_);}
	.st199{opacity:0.3;fill:url(#SVGID_99_);}
	.st200{opacity:0.3;fill:url(#SVGID_100_);}
	.st201{fill:url(#SVGID_101_);}
	.st202{fill:url(#SVGID_102_);}
	.st203{fill:#24126A;}
	.st204{fill:url(#SVGID_103_);}
	.st205{fill:url(#SVGID_104_);}
	.st206{fill:#F0F6FF;}
	.st207{fill:#FCD1C5;}
	.st208{fill:url(#SVGID_105_);}
	.st209{fill:url(#SVGID_106_);}
	.st210{fill:#453C9E;}
	.st211{fill:#AA8383;}
	.st212{fill:#C4CCD6;}
	.st213{fill:#E2B1A6;}
	.st214{fill:#936D6D;}
	.st215{fill:url(#SVGID_107_);}
	.st216{fill:url(#SVGID_108_);}
	.st217{fill:url(#SVGID_109_);}
	.st218{fill:#CA4B7C;}
	.st219{fill:#6E376E;}
	.st220{fill:#160A5B;}
	.st221{fill:url(#SVGID_110_);}
	.st222{fill:#722318;}
	.st223{fill:url(#SVGID_111_);}
	.st224{fill:url(#SVGID_112_);}
	.st225{fill:url(#SVGID_113_);}
	.st226{fill:url(#SVGID_114_);}
	.st227{fill:url(#SVGID_115_);}
	.st228{fill:url(#SVGID_116_);}
	.st229{fill:url(#SVGID_117_);}
	.st230{fill:url(#SVGID_118_);}
	.st231{fill:url(#SVGID_119_);}
	.st232{fill:url(#SVGID_120_);}
	.st233{fill:url(#SVGID_121_);}
	.st234{fill:url(#SVGID_122_);}
	.st235{fill:url(#SVGID_123_);}
	.st236{fill:url(#SVGID_124_);}
	.st237{fill:url(#SVGID_125_);}
	.st238{fill:url(#SVGID_126_);}
	.st239{fill:url(#SVGID_127_);}
	.st240{fill:url(#SVGID_128_);}
	.st241{fill:url(#SVGID_129_);}
	.st242{fill:url(#SVGID_130_);}
	.st243{fill:url(#SVGID_131_);}
	.st244{fill:url(#SVGID_132_);}
	.st245{fill:url(#SVGID_133_);}
	.st246{fill:url(#SVGID_134_);}
	.st247{fill:url(#SVGID_135_);}
	.st248{fill:url(#SVGID_136_);}
	.st249{fill:url(#SVGID_137_);}
	.st250{fill:url(#SVGID_138_);}
	.st251{fill:url(#SVGID_139_);}
	.st252{fill:url(#SVGID_140_);}
	.st253{fill:url(#SVGID_141_);}
	.st254{fill:url(#SVGID_142_);}
	.st255{fill:url(#SVGID_143_);}
	.st256{fill:url(#SVGID_144_);}
	.st257{fill:url(#SVGID_145_);}
	.st258{fill:url(#SVGID_146_);}
	.st259{fill:url(#SVGID_147_);}
	.st260{fill:url(#SVGID_148_);}
	.st261{fill:url(#SVGID_149_);}
	.st262{fill:url(#SVGID_150_);}
	.st263{fill:url(#SVGID_151_);}
	.st264{fill:url(#SVGID_152_);}
	.st265{fill:url(#SVGID_153_);}
	.st266{fill:url(#SVGID_154_);}
	.st267{fill:url(#SVGID_155_);}
	.st268{fill:url(#SVGID_156_);}
	.st269{fill:url(#SVGID_157_);}
	.st270{fill:url(#SVGID_158_);}
	.st271{fill:url(#SVGID_159_);}
	.st272{fill:url(#SVGID_160_);}
	.st273{fill:url(#SVGID_161_);}
	.st274{fill:url(#SVGID_162_);}
	.st275{fill:url(#SVGID_163_);}
	.st276{fill:url(#SVGID_164_);}
	.st277{fill:url(#SVGID_165_);}
	.st278{fill:url(#SVGID_166_);}
	.st279{fill:url(#SVGID_167_);}
	.st280{fill:url(#SVGID_168_);}
	.st281{fill:url(#SVGID_169_);}
	.st282{fill:url(#SVGID_170_);}
	.st283{fill:url(#SVGID_171_);}
	.st284{fill:url(#SVGID_172_);}
	.st285{fill:#BBD070;}
	.st286{fill:#97A43C;}
	.st287{fill:#48753A;}
	.st288{fill:url(#SVGID_173_);}
	.st289{fill:url(#SVGID_174_);}
	.st290{fill:url(#SVGID_175_);}
	.st291{fill:url(#SVGID_176_);}
	.st292{fill:url(#SVGID_177_);}
	.st293{fill:url(#SVGID_178_);}
	.st294{fill:url(#SVGID_179_);}
	.st295{fill:url(#SVGID_180_);}
	.st296{fill:#E3F2FF;}
	.st297{fill:url(#SVGID_181_);}
	.st298{fill:url(#SVGID_182_);}
	.st299{opacity:0.58;}
	.st300{fill:#E0F1FF;}
	.st301{fill:url(#SVGID_183_);}
	.st302{fill:url(#SVGID_184_);}
	.st303{fill:url(#SVGID_185_);}
	.st304{fill:#1D3B54;}
	.st305{fill:#D4D8E8;}
	.st306{fill:#A9ADBA;}
	.st307{fill:#E8734D;}
	.st308{fill:url(#SVGID_186_);}
	.st309{fill:url(#SVGID_187_);}
	.st310{fill:url(#SVGID_188_);}
	.st311{fill:url(#SVGID_189_);}
	.st312{fill:#FE9D82;}
	.st313{fill:url(#SVGID_190_);}
	.st314{fill:url(#SVGID_191_);}
	.st315{fill:url(#SVGID_192_);}
	.st316{fill:url(#SVGID_193_);}
	.st317{fill:url(#SVGID_194_);}
	.st318{fill:url(#SVGID_195_);}
	.st319{fill:url(#SVGID_196_);}
	.st320{fill:url(#SVGID_197_);}
	.st321{fill:url(#SVGID_198_);}
	.st322{fill:url(#SVGID_199_);}
	.st323{fill:url(#SVGID_200_);}
	.st324{fill:url(#SVGID_201_);}
	.st325{fill:url(#SVGID_202_);}
	.st326{fill:url(#SVGID_203_);}
	.st327{fill:url(#SVGID_204_);}
	.st328{fill:url(#SVGID_205_);}
	.st329{fill:url(#SVGID_206_);}
	.st330{fill:url(#SVGID_207_);}
	.st331{fill:url(#SVGID_208_);}
	.st332{fill:url(#SVGID_209_);}
	.st333{fill:url(#SVGID_210_);}
	.st334{fill:url(#SVGID_211_);}
	.st335{fill:url(#SVGID_212_);}
	.st336{fill:url(#SVGID_213_);}
	.st337{fill:url(#SVGID_214_);}
	.st338{fill:url(#SVGID_215_);}
	.st339{fill:url(#SVGID_216_);}
	.st340{font-family:'MyriadPro-Bold';}
	.st341{font-size:62.2504px;}
	.st342{font-family:'MyriadPro-Regular';}
	.st343{fill:url(#SVGID_217_);}
	.st344{fill:url(#SVGID_218_);}
	.st345{fill:url(#SVGID_219_);}
	.st346{fill:url(#SVGID_220_);}
	.st347{fill:url(#SVGID_221_);}
	.st348{fill:url(#SVGID_222_);}
	.st349{fill:url(#SVGID_223_);}
	.st350{fill:url(#SVGID_224_);}
	.st351{fill:url(#SVGID_225_);}
	.st352{fill:url(#SVGID_226_);}
	.st353{fill:url(#SVGID_227_);}
	.st354{fill:url(#SVGID_228_);}
	.st355{fill:url(#SVGID_229_);}
	.st356{fill:url(#SVGID_230_);}
	.st357{fill:url(#SVGID_231_);}
	.st358{fill:url(#SVGID_232_);}
	.st359{fill:url(#SVGID_233_);}
	.st360{fill:url(#SVGID_234_);}
	.st361{fill:url(#SVGID_235_);}
	.st362{fill:url(#SVGID_236_);}
	.st363{fill:url(#SVGID_237_);}
	.st364{fill:url(#SVGID_238_);}
	.st365{fill:url(#SVGID_239_);}
	.st366{fill:url(#SVGID_240_);}
	.st367{fill:url(#SVGID_241_);}
	.st368{fill:url(#SVGID_242_);}
	.st369{fill:url(#SVGID_243_);}
	.st370{fill:url(#SVGID_244_);}
	.st371{fill:url(#SVGID_245_);}
	.st372{fill:url(#SVGID_246_);}
	.st373{fill:url(#SVGID_247_);}
	.st374{fill:url(#SVGID_248_);}
	.st375{fill:url(#SVGID_249_);}
	.st376{fill:url(#SVGID_250_);}
	.st377{fill:url(#SVGID_251_);}
	.st378{fill:url(#SVGID_252_);}
	.st379{fill:url(#SVGID_253_);}
	.st380{fill:url(#SVGID_254_);}
	.st381{fill:url(#SVGID_255_);}
	.st382{fill:url(#SVGID_256_);}
	.st383{fill:url(#SVGID_257_);}
	.st384{fill:url(#SVGID_258_);}
	.st385{fill:url(#SVGID_259_);}
	.st386{fill:url(#SVGID_260_);}
	.st387{fill:url(#SVGID_261_);}
	.st388{fill:url(#SVGID_262_);}
	.st389{fill:url(#SVGID_263_);}
	.st390{fill:url(#SVGID_264_);}
	.st391{fill:url(#SVGID_265_);}
	.st392{fill:url(#SVGID_266_);}
	.st393{fill:url(#SVGID_267_);}
	.st394{fill:url(#SVGID_268_);}
	.st395{fill:url(#SVGID_269_);}
	.st396{fill:url(#SVGID_270_);}
	.st397{fill:url(#SVGID_271_);}
	.st398{fill:url(#SVGID_272_);}
	.st399{fill:url(#SVGID_273_);}
	.st400{fill:url(#SVGID_274_);}
	.st401{fill:url(#SVGID_275_);}
	.st402{fill:url(#SVGID_276_);}
	.st403{fill:url(#SVGID_277_);}
	.st404{fill:url(#SVGID_278_);}
	.st405{fill:url(#SVGID_279_);}
	.st406{fill:url(#SVGID_280_);}
	.st407{fill:url(#SVGID_281_);}
	.st408{fill:url(#SVGID_282_);}
	.st409{fill:url(#SVGID_283_);}
	.st410{fill:url(#SVGID_284_);}
	.st411{fill:url(#SVGID_285_);}
	.st412{fill:url(#SVGID_286_);}
	.st413{fill:url(#SVGID_287_);}
	.st414{fill:url(#SVGID_288_);}
	.st415{fill:url(#SVGID_289_);}
	.st416{fill:url(#SVGID_290_);}
	.st417{fill:url(#SVGID_291_);}
	.st418{fill:url(#SVGID_292_);}
	.st419{fill:url(#SVGID_293_);}
	.st420{fill:url(#SVGID_294_);}
	.st421{fill:url(#SVGID_295_);}
	.st422{fill:url(#SVGID_296_);}
	.st423{fill:url(#SVGID_297_);}
	.st424{fill:url(#SVGID_298_);}
	.st425{fill:url(#SVGID_299_);}
	.st426{fill:url(#SVGID_300_);}
	.st427{fill:url(#SVGID_301_);}
	.st428{fill:url(#SVGID_302_);}
	.st429{fill:url(#SVGID_303_);}
	.st430{fill:url(#SVGID_304_);}
	.st431{opacity:0.3;fill:url(#SVGID_305_);}
	.st432{fill:#E7E7E7;}
	.st433{fill:url(#SVGID_306_);}
	.st434{fill:url(#SVGID_307_);}
	.st435{fill:url(#SVGID_308_);}
	.st436{fill:url(#SVGID_309_);}
	.st437{fill:url(#SVGID_310_);}
	.st438{fill:url(#SVGID_311_);}
	.st439{fill:url(#SVGID_312_);}
	.st440{fill:url(#_x3C_Path_x3E__1_);}
	.st441{fill:#007CFF;}
	.st442{fill:url(#SVGID_313_);}
	.st443{opacity:0.4;}
	.st444{opacity:0.6;fill:url(#SVGID_314_);}
	.st445{opacity:0.6;fill:url(#SVGID_315_);}
	.st446{opacity:0.6;fill:url(#SVGID_316_);}
	.st447{opacity:0.6;fill:url(#SVGID_317_);}
	.st448{opacity:0.6;fill:url(#SVGID_318_);}
	.st449{opacity:0.6;fill:url(#SVGID_319_);}
	.st450{opacity:0.6;fill:url(#SVGID_320_);}
	.st451{opacity:0.6;fill:url(#SVGID_321_);}
	.st452{opacity:0.6;fill:url(#SVGID_322_);}
	.st453{opacity:0.6;fill:url(#SVGID_323_);}
	.st454{opacity:0.6;fill:url(#SVGID_324_);}
	.st455{opacity:0.6;fill:url(#SVGID_325_);}
	.st456{opacity:0.6;fill:url(#SVGID_326_);}
	.st457{fill:url(#SVGID_327_);}
	.st458{fill:url(#SVGID_328_);}
	.st459{fill:url(#SVGID_329_);}
	.st460{opacity:0.6;fill:url(#SVGID_330_);}
	.st461{opacity:0.5;fill:#FFFFFF;}
	.st462{fill:url(#SVGID_331_);}
	.st463{fill:#1A2E35;}
	.st464{fill:url(#SVGID_332_);}
	.st465{fill:#FFC3BD;}
	.st466{fill:#FF847F;}
	.st467{opacity:0.2;}
	.st468{opacity:0.8;fill:#1A2E35;}
	.st469{fill:url(#SVGID_333_);}
	.st470{opacity:0.3;}
	.st471{fill:url(#SVGID_334_);}
	.st472{fill:url(#SVGID_335_);}
	.st473{fill:none;stroke:url(#SVGID_336_);stroke-miterlimit:10;}
	.st474{fill:none;stroke:url(#SVGID_337_);stroke-miterlimit:10;}
	.st475{fill:none;stroke:url(#SVGID_338_);stroke-miterlimit:10;}
	.st476{fill:none;stroke:url(#SVGID_339_);stroke-miterlimit:10;}
	.st477{fill:none;stroke:url(#SVGID_340_);stroke-miterlimit:10;}
	.st478{fill:url(#SVGID_341_);}
	.st479{fill:url(#SVGID_342_);}
	.st480{fill:url(#SVGID_343_);}
	.st481{fill:url(#SVGID_344_);}
	.st482{fill:url(#SVGID_345_);}
	.st483{fill:url(#SVGID_346_);}
	.st484{fill:url(#SVGID_347_);}
	.st485{fill:url(#SVGID_348_);}
	.st486{fill:url(#SVGID_349_);}
	.st487{fill:url(#SVGID_350_);}
	.st488{fill:url(#SVGID_351_);}
	.st489{fill:none;stroke:url(#SVGID_352_);stroke-miterlimit:10;}
	.st490{fill:none;stroke:url(#SVGID_353_);stroke-miterlimit:10;}
	.st491{fill:none;stroke:url(#SVGID_354_);stroke-miterlimit:10;}
	.st492{fill:none;stroke:url(#SVGID_355_);stroke-miterlimit:10;}
	.st493{fill:none;stroke:url(#SVGID_356_);stroke-miterlimit:10;}
	.st494{fill:url(#SVGID_357_);}
	.st495{fill:url(#SVGID_358_);}
	.st496{fill:url(#SVGID_359_);}
	.st497{fill:url(#SVGID_360_);}
	.st498{fill:url(#SVGID_361_);}
	.st499{fill:url(#SVGID_362_);}
	.st500{fill:url(#SVGID_363_);}
	.st501{fill:url(#SVGID_364_);}
	.st502{fill:url(#SVGID_365_);}
	.st503{fill:url(#SVGID_366_);}
	.st504{fill:url(#SVGID_367_);}
	.st505{fill:none;stroke:url(#SVGID_368_);stroke-miterlimit:10;}
	.st506{fill:none;stroke:url(#SVGID_369_);stroke-miterlimit:10;}
	.st507{fill:none;stroke:url(#SVGID_370_);stroke-miterlimit:10;}
	.st508{fill:none;stroke:url(#SVGID_371_);stroke-miterlimit:10;}
	.st509{fill:none;stroke:url(#SVGID_372_);stroke-miterlimit:10;}
	.st510{fill:url(#SVGID_373_);}
	.st511{fill:url(#SVGID_374_);}
	.st512{fill:url(#SVGID_375_);}
	.st513{fill:url(#SVGID_376_);}
	.st514{fill:url(#SVGID_377_);}
	.st515{fill:url(#SVGID_378_);}
	.st516{fill:url(#SVGID_379_);}
	.st517{fill:url(#SVGID_380_);}
	.st518{fill:url(#SVGID_381_);}
	.st519{fill:url(#SVGID_382_);}
	.st520{fill:url(#SVGID_383_);}
	.st521{fill:none;stroke:url(#SVGID_384_);stroke-miterlimit:10;}
	.st522{fill:none;stroke:url(#SVGID_385_);stroke-miterlimit:10;}
	.st523{fill:none;stroke:url(#SVGID_386_);stroke-miterlimit:10;}
	.st524{fill:none;stroke:url(#SVGID_387_);stroke-miterlimit:10;}
	.st525{fill:none;stroke:url(#SVGID_388_);stroke-miterlimit:10;}
	.st526{fill:url(#SVGID_389_);}
	.st527{fill:url(#SVGID_390_);}
	.st528{fill:url(#SVGID_391_);}
	.st529{fill:url(#SVGID_392_);}
	.st530{fill:url(#SVGID_393_);}
	.st531{fill:url(#SVGID_394_);}
	.st532{fill:url(#SVGID_395_);}
	.st533{fill:url(#SVGID_396_);}
	.st534{fill:url(#SVGID_397_);}
	.st535{fill:url(#SVGID_398_);}
	.st536{fill:url(#SVGID_399_);}
	.st537{fill:none;stroke:url(#SVGID_400_);stroke-miterlimit:10;}
	.st538{fill:none;stroke:url(#SVGID_401_);stroke-miterlimit:10;}
	.st539{fill:none;stroke:url(#SVGID_402_);stroke-miterlimit:10;}
	.st540{fill:none;stroke:url(#SVGID_403_);stroke-miterlimit:10;}
	.st541{fill:none;stroke:url(#SVGID_404_);stroke-miterlimit:10;}
	.st542{fill:url(#SVGID_405_);}
	.st543{fill:url(#SVGID_406_);}
	.st544{fill:url(#SVGID_407_);}
	.st545{fill:url(#SVGID_408_);}
	.st546{fill:url(#SVGID_409_);}
	.st547{fill:url(#SVGID_410_);}
	.st548{fill:url(#SVGID_411_);}
	.st549{fill:url(#SVGID_412_);}
	.st550{fill:url(#SVGID_413_);}
	.st551{fill:url(#SVGID_414_);}
	.st552{fill:url(#SVGID_415_);}
	.st553{fill:none;stroke:url(#SVGID_416_);stroke-miterlimit:10;}
	.st554{fill:none;stroke:url(#SVGID_417_);stroke-miterlimit:10;}
	.st555{fill:none;stroke:url(#SVGID_418_);stroke-miterlimit:10;}
	.st556{fill:none;stroke:url(#SVGID_419_);stroke-miterlimit:10;}
	.st557{fill:none;stroke:url(#SVGID_420_);stroke-miterlimit:10;}
	.st558{fill:url(#SVGID_421_);}
	.st559{fill:url(#SVGID_422_);}
	.st560{fill:url(#SVGID_423_);}
	.st561{fill:url(#SVGID_424_);}
	.st562{fill:url(#SVGID_425_);}
	.st563{fill:url(#SVGID_426_);}
	.st564{fill:url(#SVGID_427_);}
	.st565{fill:url(#SVGID_428_);}
	.st566{fill:url(#SVGID_429_);}
	.st567{fill:url(#SVGID_430_);}
	.st568{fill:url(#SVGID_431_);}
	.st569{opacity:0.1;}
	.st570{fill:url(#SVGID_432_);}
	.st571{fill:url(#SVGID_433_);}
	.st572{fill:url(#SVGID_434_);}
	.st573{fill:url(#SVGID_435_);}
	.st574{fill:url(#SVGID_436_);}
	.st575{fill:url(#SVGID_437_);}
	.st576{fill:url(#SVGID_438_);}
	.st577{fill:url(#SVGID_439_);}
	.st578{fill:#E9EAF4;}
	.st579{fill:none;stroke:#CCC1E0;stroke-width:0.9846;stroke-miterlimit:10;}
	.st580{fill:#CCC1E0;}
	.st581{opacity:0.3;fill:#C8CAD7;}
	.st582{fill:none;stroke:#CCC1E0;stroke-width:1.1787;stroke-miterlimit:10;}
	.st583{fill:url(#SVGID_440_);}
	.st584{fill:url(#SVGID_441_);}
	.st585{fill:#FFB69B;}
	.st586{opacity:5.000000e-02;}
	.st587{fill:#75524F;}
	.st588{fill:#EBA88F;}
	.st589{fill:#8E6863;}
	.st590{fill:#89605C;}
	.st591{fill:#A27771;}
	.st592{fill:#1E212E;}
	.st593{fill:#FF748E;}
	.st594{fill:url(#SVGID_442_);}
	.st595{fill:#6E6B87;}
	.st596{fill:url(#SVGID_443_);}
	.st597{fill:#F26886;}
	.st598{fill:url(#SVGID_444_);}
	.st599{fill:url(#SVGID_445_);}
	.st600{fill:url(#SVGID_446_);}
	.st601{fill:url(#SVGID_447_);}
	.st602{fill:url(#SVGID_448_);}
	.st603{fill:url(#SVGID_449_);}
	.st604{fill:url(#SVGID_450_);}
	.st605{fill:url(#SVGID_451_);}
	.st606{fill:url(#SVGID_452_);}
	.st607{fill:url(#SVGID_453_);}
	.st608{fill:url(#SVGID_454_);}
	.st609{fill:url(#SVGID_455_);}
	.st610{fill:url(#SVGID_456_);}
	.st611{fill:url(#SVGID_457_);}
	.st612{fill:url(#SVGID_458_);}
	.st613{fill:url(#SVGID_459_);}
	.st614{fill:url(#SVGID_460_);}
	.st615{fill:url(#SVGID_461_);}
	.st616{fill:url(#SVGID_462_);}
	.st617{fill:url(#SVGID_463_);}
	.st618{fill:url(#SVGID_464_);}
	.st619{fill:url(#SVGID_465_);}
	.st620{fill:url(#SVGID_466_);}
	.st621{fill:url(#SVGID_467_);}
	.st622{fill:url(#SVGID_468_);}
	.st623{fill:url(#SVGID_469_);}
	.st624{fill:url(#SVGID_470_);}
	.st625{fill:url(#SVGID_471_);}
	.st626{fill:url(#SVGID_472_);}
	.st627{fill:url(#SVGID_473_);}
	.st628{fill:url(#SVGID_474_);}
	.st629{fill:url(#SVGID_475_);}
	.st630{fill:url(#SVGID_476_);}
	.st631{fill:url(#SVGID_477_);}
	.st632{fill:url(#SVGID_478_);}
	.st633{fill:url(#SVGID_479_);}
	.st634{fill:url(#SVGID_480_);}
	.st635{fill:url(#SVGID_481_);}
	.st636{fill:url(#SVGID_482_);}
	.st637{fill:url(#SVGID_483_);}
	.st638{fill:url(#SVGID_484_);}
	.st639{fill:url(#SVGID_485_);}
	.st640{fill:url(#SVGID_486_);}
	.st641{fill:url(#SVGID_487_);}
	.st642{fill:url(#SVGID_488_);}
	.st643{fill:url(#SVGID_489_);}
	.st644{fill:url(#SVGID_490_);}
	.st645{fill:url(#SVGID_491_);}
	.st646{fill:url(#SVGID_492_);}
	.st647{fill:url(#SVGID_493_);}
	.st648{fill:url(#SVGID_494_);}
	.st649{fill:url(#SVGID_495_);}
	.st650{fill:url(#SVGID_496_);}
	.st651{fill:url(#SVGID_497_);}
	.st652{fill:url(#SVGID_498_);}
	.st653{fill:url(#SVGID_499_);}
	.st654{fill:url(#SVGID_500_);}
	.st655{fill:url(#SVGID_501_);}
	.st656{fill:url(#SVGID_502_);}
	.st657{fill:url(#SVGID_503_);}
	.st658{fill:url(#SVGID_504_);}
	.st659{fill:url(#SVGID_505_);}
	.st660{fill:url(#SVGID_506_);}
	.st661{fill:url(#SVGID_507_);}
	.st662{fill:url(#SVGID_508_);}
	.st663{fill:url(#SVGID_509_);}
	.st664{fill:url(#SVGID_510_);}
	.st665{fill:url(#SVGID_511_);}
	.st666{fill:url(#SVGID_512_);}
	.st667{fill:url(#SVGID_513_);}
	.st668{fill:url(#SVGID_514_);}
	.st669{fill:url(#SVGID_515_);}
	.st670{fill:url(#SVGID_516_);}
	.st671{fill:url(#SVGID_517_);}
	.st672{fill:url(#SVGID_518_);}
	.st673{fill:url(#SVGID_519_);}
	.st674{fill:url(#SVGID_520_);}
	.st675{fill:url(#SVGID_521_);}
	.st676{fill:url(#SVGID_522_);}
	.st677{fill:url(#SVGID_523_);}
	.st678{fill:url(#SVGID_524_);}
	.st679{fill:url(#SVGID_525_);}
	.st680{fill:url(#SVGID_526_);}
	.st681{fill:url(#SVGID_527_);}
	.st682{fill:url(#SVGID_528_);}
	.st683{fill:url(#SVGID_529_);}
	.st684{fill:url(#SVGID_530_);}
	.st685{fill:url(#SVGID_531_);}
	.st686{fill:url(#SVGID_532_);}
	.st687{fill:url(#SVGID_533_);}
	.st688{fill:url(#SVGID_534_);}
	.st689{fill:url(#SVGID_535_);}
	.st690{fill:url(#SVGID_536_);}
	.st691{fill:url(#SVGID_537_);}
	.st692{fill:url(#SVGID_538_);}
	.st693{fill:url(#SVGID_539_);}
	.st694{fill:url(#SVGID_540_);}
	.st695{fill:url(#SVGID_541_);}
	.st696{fill:url(#SVGID_542_);}
	.st697{fill:url(#SVGID_543_);}
	.st698{fill:url(#SVGID_544_);}
	.st699{fill:url(#SVGID_545_);}
	.st700{fill:url(#SVGID_546_);}
	.st701{fill:url(#SVGID_547_);}
	.st702{fill:url(#SVGID_548_);}
	.st703{fill:url(#SVGID_549_);}
	.st704{fill:url(#SVGID_550_);}
	.st705{fill:url(#SVGID_551_);}
	.st706{fill:url(#SVGID_552_);}
	.st707{fill:url(#SVGID_553_);}
	.st708{fill:url(#SVGID_554_);}
	.st709{fill:url(#SVGID_555_);}
	.st710{fill:url(#SVGID_556_);}
	.st711{fill:url(#SVGID_557_);}
	.st712{fill:url(#SVGID_558_);}
	.st713{fill:url(#SVGID_559_);}
	.st714{fill:url(#SVGID_560_);}
	.st715{fill:url(#SVGID_561_);}
	.st716{fill:url(#SVGID_562_);}
	.st717{fill:url(#SVGID_563_);}
	.st718{fill:url(#SVGID_564_);}
	.st719{fill:url(#SVGID_565_);}
	.st720{fill:url(#SVGID_566_);}
	.st721{fill:url(#SVGID_567_);}
	.st722{fill:url(#_x3C_Path_x3E__2_);}
	.st723{fill:url(#SVGID_568_);}
	.st724{opacity:0.6;fill:url(#SVGID_569_);}
	.st725{opacity:0.6;fill:url(#SVGID_570_);}
	.st726{opacity:0.6;fill:url(#SVGID_571_);}
	.st727{opacity:0.6;fill:url(#SVGID_572_);}
	.st728{opacity:0.6;fill:url(#SVGID_573_);}
	.st729{opacity:0.6;fill:url(#SVGID_574_);}
	.st730{opacity:0.6;fill:url(#SVGID_575_);}
	.st731{opacity:0.6;fill:url(#SVGID_576_);}
	.st732{opacity:0.6;fill:url(#SVGID_577_);}
	.st733{opacity:0.6;fill:url(#SVGID_578_);}
	.st734{opacity:0.6;fill:url(#SVGID_579_);}
	.st735{opacity:0.6;fill:url(#SVGID_580_);}
	.st736{opacity:0.6;fill:url(#SVGID_581_);}
	.st737{fill:url(#SVGID_582_);}
	.st738{fill:url(#SVGID_583_);}
	.st739{fill:url(#SVGID_584_);}
	.st740{opacity:0.6;fill:url(#SVGID_585_);}
	.st741{fill:url(#SVGID_586_);}
	.st742{fill:url(#SVGID_587_);}
	.st743{fill:url(#SVGID_588_);}
	.st744{fill:url(#SVGID_589_);}
	.st745{fill:url(#SVGID_590_);}
	.st746{fill:url(#SVGID_591_);}
	.st747{fill:url(#SVGID_592_);}
	.st748{fill:url(#SVGID_593_);}
	.st749{fill:url(#SVGID_594_);}
	.st750{fill:url(#SVGID_595_);}
	.st751{fill:url(#SVGID_596_);}
	.st752{fill:url(#SVGID_597_);}
	.st753{fill:url(#_x3C_Path_x3E__3_);}
	.st754{fill:url(#SVGID_598_);}
	.st755{opacity:0.6;fill:url(#SVGID_599_);}
	.st756{opacity:0.6;fill:url(#SVGID_600_);}
	.st757{opacity:0.6;fill:url(#SVGID_601_);}
	.st758{opacity:0.6;fill:url(#SVGID_602_);}
	.st759{opacity:0.6;fill:url(#SVGID_603_);}
	.st760{opacity:0.6;fill:url(#SVGID_604_);}
	.st761{opacity:0.6;fill:url(#SVGID_605_);}
	.st762{opacity:0.6;fill:url(#SVGID_606_);}
	.st763{opacity:0.6;fill:url(#SVGID_607_);}
	.st764{opacity:0.6;fill:url(#SVGID_608_);}
	.st765{opacity:0.6;fill:url(#SVGID_609_);}
	.st766{opacity:0.6;fill:url(#SVGID_610_);}
	.st767{opacity:0.6;fill:url(#SVGID_611_);}
	.st768{fill:url(#SVGID_612_);}
	.st769{fill:url(#SVGID_613_);}
	.st770{fill:url(#SVGID_614_);}
	.st771{opacity:0.6;fill:url(#SVGID_615_);}
	.st772{fill:url(#SVGID_616_);}
	.st773{fill:url(#SVGID_617_);}
	.st774{fill:url(#SVGID_618_);}
	.st775{fill:url(#SVGID_619_);}
	.st776{fill:url(#SVGID_620_);}
	.st777{fill:url(#SVGID_621_);}
	.st778{fill:url(#SVGID_622_);}
	.st779{fill:url(#SVGID_623_);}
	.st780{fill:url(#SVGID_624_);}
	.st781{fill:url(#SVGID_625_);}
	.st782{fill:url(#SVGID_626_);}
	.st783{fill:url(#SVGID_627_);}
	.st784{fill:url(#_x3C_Path_x3E__4_);}
	.st785{fill:url(#SVGID_628_);}
	.st786{opacity:0.6;fill:url(#SVGID_629_);}
	.st787{opacity:0.6;fill:url(#SVGID_630_);}
	.st788{opacity:0.6;fill:url(#SVGID_631_);}
	.st789{opacity:0.6;fill:url(#SVGID_632_);}
	.st790{opacity:0.6;fill:url(#SVGID_633_);}
	.st791{opacity:0.6;fill:url(#SVGID_634_);}
	.st792{opacity:0.6;fill:url(#SVGID_635_);}
	.st793{opacity:0.6;fill:url(#SVGID_636_);}
	.st794{opacity:0.6;fill:url(#SVGID_637_);}
	.st795{opacity:0.6;fill:url(#SVGID_638_);}
	.st796{opacity:0.6;fill:url(#SVGID_639_);}
	.st797{opacity:0.6;fill:url(#SVGID_640_);}
	.st798{opacity:0.6;fill:url(#SVGID_641_);}
	.st799{fill:url(#SVGID_642_);}
	.st800{fill:url(#SVGID_643_);}
	.st801{fill:url(#SVGID_644_);}
	.st802{opacity:0.6;fill:url(#SVGID_645_);}
	.st803{fill:url(#SVGID_646_);}
	.st804{fill:url(#SVGID_647_);}
	.st805{fill:url(#SVGID_648_);}
	.st806{fill:url(#SVGID_649_);}
	.st807{fill:url(#SVGID_650_);}
	.st808{fill:url(#SVGID_651_);}
	.st809{fill:url(#SVGID_652_);}
	.st810{fill:url(#SVGID_653_);}
	.st811{fill:url(#SVGID_654_);}
	.st812{fill:url(#SVGID_655_);}
	.st813{fill:url(#SVGID_656_);}
	.st814{fill:url(#SVGID_657_);}
	.st815{fill:url(#_x3C_Path_x3E__5_);}
	.st816{fill:url(#SVGID_658_);}
	.st817{opacity:0.6;fill:url(#SVGID_659_);}
	.st818{opacity:0.6;fill:url(#SVGID_660_);}
	.st819{opacity:0.6;fill:url(#SVGID_661_);}
	.st820{opacity:0.6;fill:url(#SVGID_662_);}
	.st821{opacity:0.6;fill:url(#SVGID_663_);}
	.st822{opacity:0.6;fill:url(#SVGID_664_);}
	.st823{opacity:0.6;fill:url(#SVGID_665_);}
	.st824{opacity:0.6;fill:url(#SVGID_666_);}
	.st825{opacity:0.6;fill:url(#SVGID_667_);}
	.st826{opacity:0.6;fill:url(#SVGID_668_);}
	.st827{opacity:0.6;fill:url(#SVGID_669_);}
	.st828{opacity:0.6;fill:url(#SVGID_670_);}
	.st829{opacity:0.6;fill:url(#SVGID_671_);}
	.st830{fill:url(#SVGID_672_);}
	.st831{fill:url(#SVGID_673_);}
	.st832{fill:url(#SVGID_674_);}
	.st833{opacity:0.6;fill:url(#SVGID_675_);}
	.st834{fill:url(#SVGID_676_);}
	.st835{fill:url(#SVGID_677_);}
	.st836{fill:url(#SVGID_678_);}
	.st837{fill:url(#SVGID_679_);}
	.st838{fill:url(#SVGID_680_);}
	.st839{fill:url(#SVGID_681_);}
	.st840{fill:url(#SVGID_682_);}
	.st841{fill:url(#SVGID_683_);}
	.st842{fill:url(#SVGID_684_);}
	.st843{fill:url(#SVGID_685_);}
	.st844{fill:url(#SVGID_686_);}
	.st845{fill:url(#SVGID_687_);}
	.st846{fill:url(#_x3C_Path_x3E__11_);}
	.st847{fill:url(#SVGID_688_);}
	.st848{opacity:0.6;fill:url(#SVGID_689_);}
	.st849{opacity:0.6;fill:url(#SVGID_690_);}
	.st850{opacity:0.6;fill:url(#SVGID_691_);}
	.st851{opacity:0.6;fill:url(#SVGID_692_);}
	.st852{opacity:0.6;fill:url(#SVGID_693_);}
	.st853{opacity:0.6;fill:url(#SVGID_694_);}
	.st854{opacity:0.6;fill:url(#SVGID_695_);}
	.st855{opacity:0.6;fill:url(#SVGID_696_);}
	.st856{opacity:0.6;fill:url(#SVGID_697_);}
	.st857{opacity:0.6;fill:url(#SVGID_698_);}
	.st858{opacity:0.6;fill:url(#SVGID_699_);}
	.st859{opacity:0.6;fill:url(#SVGID_700_);}
	.st860{opacity:0.6;fill:url(#SVGID_701_);}
	.st861{fill:url(#SVGID_702_);}
	.st862{fill:url(#SVGID_703_);}
	.st863{fill:url(#SVGID_704_);}
	.st864{opacity:0.6;fill:url(#SVGID_705_);}
	.st865{fill:url(#SVGID_706_);}
	.st866{fill:url(#SVGID_707_);}
	.st867{fill:url(#SVGID_708_);}
	.st868{fill:url(#SVGID_709_);}
	.st869{fill:url(#SVGID_710_);}
</style>
<path class="st86" d="M751.1,500.2H90.8c-16.6,0-30-13.4-30-30V125.1c0-16.6,13.4-30,30-30h660.3c16.6,0,30,13.4,30,30v345.1
	C781.1,486.8,767.6,500.2,751.1,500.2z"/>
<text transform="matrix(1 0 0 1 400.4751 241.2078)"><tspan x="0" y="0" class="st340 st341">Jasa</tspan><tspan x="0" y="74.7" class="st340 st341">Konsultasi</tspan><tspan x="0" y="149.4" class="st342 st341">Room 2</tspan></text>
<g>
	<g>
		<g>
			<g>
				<path class="st285" d="M298.1,191.1c0,0,7.8,11.8,1.2,18.1c-6.6,6.3-7.4-0.7-7.4-0.7s-3.5,0.2,3.5-7.8
					C298.8,196.9,298.1,191.1,298.1,191.1z"/>
			</g>
			<g>
				<path class="st286" d="M319,185.1c0,0,5.6,10.7-7.5,20.8c-13.1,10.1-13,17-13,17S289.2,198,319,185.1z"/>
			</g>
			<g>
				<path class="st287" d="M296.8,218.3c-5-0.1,2.3-12.8,10.4-15.3c8.1-2.6,14.6-1.5,19.5-4.6C326.7,198.3,321.3,219,296.8,218.3z"
					/>
			</g>
		</g>
		<g>
			<linearGradient id="SVGID_1_" gradientUnits="userSpaceOnUse" x1="129.612" y1="292.4721" x2="328.0025" y2="292.4721">
				<stop  offset="0" style="stop-color:#6E376E"/>
				<stop  offset="1" style="stop-color:#CA4B7C"/>
			</linearGradient>
			<path class="st43" d="M313.7,367.2H143.9c-7.9,0-14.3-6.7-14.3-14.9V232.7c0-8.2,6.4-14.9,14.3-14.9h169.8
				c7.9,0,14.3,6.7,14.3,14.9v119.6C328,360.5,321.6,367.2,313.7,367.2z M143.9,219c-7.2,0-13,6.1-13,13.7v119.6
				c0,7.5,5.8,13.7,13,13.7h169.8c7.2,0,13-6.1,13-13.7V232.7c0-7.5-5.8-13.7-13-13.7H143.9z"/>
		</g>
		<g>
			<linearGradient id="SVGID_2_" gradientUnits="userSpaceOnUse" x1="269.4539" y1="199.6119" x2="354.4835" y2="199.6119">
				<stop  offset="0" style="stop-color:#FE7087"/>
				<stop  offset="1" style="stop-color:#FE9D82"/>
			</linearGradient>
			<path class="st45" d="M347.5,190.4c-0.9-3.3-2.2-6.5-3.9-9.4l4-6l-5.5-5.5l-5.5-5.5l-6,4c-2.9-1.7-6.1-3-9.4-3.9l-1.4-7H312h-7.8
				l-1.4,7c-3.3,0.9-6.5,2.2-9.4,3.9l-6-4l-5.5,5.5l-5.5,5.5l4,6c-1.7,2.9-3,6.1-3.9,9.4l-7,1.4v7.8v7.8l7,1.4
				c0.9,3.3,2.2,6.5,3.9,9.4l-4,6l5.5,5.5l5.5,5.5l6-4c2.9,1.7,6.1,3,9.4,3.9l1.4,7h7.8h7.8l1.4-7c3.3-0.9,6.5-2.2,9.4-3.9l6,4
				l5.5-5.5l5.5-5.5l-4-6c1.7-2.9,3-6.1,3.9-9.4l7-1.4v-7.8v-7.8L347.5,190.4z M312,226.9c-15.1,0-27.3-12.2-27.3-27.3
				c0-15.1,12.2-27.3,27.3-27.3c15.1,0,27.3,12.2,27.3,27.3C339.2,214.7,327,226.9,312,226.9z"/>
		</g>
		<g>
			<path class="st157" d="M312,217.3v119.6c0,7.9-6.4,14.3-14.3,14.3H119.9c-7.9,0-14.3-6.4-14.3-14.3V217.3
				c0-7.9,6.4-14.3,14.3-14.3h177.8C305.6,203,312,209.4,312,217.3z"/>
		</g>
		<g>
			<g>
				<linearGradient id="SVGID_3_" gradientUnits="userSpaceOnUse" x1="119.1073" y1="254.6547" x2="203.7952" y2="254.6547">
					<stop  offset="0" style="stop-color:#CA4B7C"/>
					<stop  offset="1" style="stop-color:#FE7087"/>
				</linearGradient>
				<path class="st46" d="M201.3,240.4c-6.3-17.7-23.3-28.6-41.1-28.1c-4.3,0.1-8.7,0.9-13,2.5c-13,4.7-22.3,15-26.2,27.2
					c-2.7,8.5-2.7,17.9,0.6,26.9c0.3,0.9,0.7,1.8,1,2.6c1.7,3.9,3.9,7.4,6.6,10.5c11.1,13,29.5,18.5,46.5,12.4
					C197.7,286.6,209.2,262.4,201.3,240.4z M172.1,284.5c-12.8,4.6-26.6,0.4-34.9-9.3c-2-2.3-3.6-5-4.9-7.9c-0.3-0.6-0.5-1.3-0.8-2
					c-2.4-6.8-2.4-13.8-0.4-20.1c2.9-9.2,9.9-16.9,19.6-20.4c3.2-1.2,6.5-1.7,9.7-1.8c13.4-0.4,26.1,7.8,30.8,21
					C197.2,260.5,188.6,278.6,172.1,284.5z"/>
			</g>
			<g>
				<path class="st181" d="M131.2,245.2L121,242c3.8-12.2,13.2-22.6,26.2-27.2c4.3-1.5,8.7-2.3,13-2.5l0.3,10.6
					c-3.2,0.1-6.5,0.7-9.7,1.8C141,228.3,134,236,131.2,245.2z"/>
			</g>
			<g>
				<path class="st219" d="M132.3,267.3l-9.7,4.2c-0.4-0.9-0.7-1.7-1-2.6c-3.2-9-3.2-18.4-0.6-26.9l10.1,3.2c-2,6.4-2,13.4,0.4,20.1
					C131.8,266,132.1,266.7,132.3,267.3z"/>
			</g>
			<g>
				<path class="st218" d="M129.2,282.1c-2.6-3.1-4.9-6.6-6.6-10.5l9.7-4.2c1.3,2.9,2.9,5.6,4.9,7.9L129.2,282.1z"/>
			</g>
		</g>
		<g>
			<g>
				<linearGradient id="SVGID_4_" gradientUnits="userSpaceOnUse" x1="119.5473" y1="323.5691" x2="162.4639" y2="323.5691">
					<stop  offset="0" style="stop-color:#CA4B7C"/>
					<stop  offset="1" style="stop-color:#FE7087"/>
				</linearGradient>
				<path class="st47" d="M131.8,343c8.6,4.1,18.6,1.9,24.8-4.7c1.5-1.6,2.8-3.4,3.8-5.5c3-6.3,2.6-13.4-0.4-19.1
					c-2.1-4-5.4-7.4-9.8-9.4c-0.4-0.2-0.9-0.4-1.3-0.6c-2-0.8-4.1-1.3-6.1-1.4c-8.6-0.7-17.2,3.9-21.1,12.2
					C116.5,325.1,121.1,337.9,131.8,343z M126.5,316.7c2.9-6.2,9.4-9.7,15.8-9.2c1.5,0.1,3.1,0.5,4.6,1.1c0.3,0.1,0.7,0.3,1,0.4
					c3.3,1.6,5.8,4.1,7.4,7.1c2.3,4.3,2.5,9.6,0.3,14.3c-0.7,1.6-1.7,3-2.8,4.2c-4.7,4.9-12.1,6.6-18.6,3.5
					C126.1,334.3,122.7,324.7,126.5,316.7z"/>
			</g>
			<g>
				<linearGradient id="SVGID_5_" gradientUnits="userSpaceOnUse" x1="152.718" y1="325.9456" x2="162.4639" y2="325.9456">
					<stop  offset="0" style="stop-color:#6E376E"/>
					<stop  offset="1" style="stop-color:#CA4B7C"/>
				</linearGradient>
				<path class="st48" d="M155.3,316.1l4.8-2.5c3,5.8,3.4,12.8,0.4,19.1c-1,2.1-2.3,3.9-3.8,5.5l-3.9-3.7c1.1-1.2,2.1-2.6,2.8-4.2
					C157.8,325.7,157.5,320.4,155.3,316.1z"/>
			</g>
			<g>
				<linearGradient id="SVGID_6_" gradientUnits="userSpaceOnUse" x1="146.8956" y1="309.8536" x2="160.0079" y2="309.8536">
					<stop  offset="0" style="stop-color:#CA4B7C"/>
					<stop  offset="1" style="stop-color:#FE7087"/>
				</linearGradient>
				<path class="st49" d="M146.9,308.6l2-5c0.4,0.2,0.9,0.4,1.3,0.6c4.4,2.1,7.7,5.4,9.8,9.4l-4.8,2.5c-1.6-3-4.1-5.5-7.4-7.1
					C147.6,308.9,147.2,308.7,146.9,308.6z"/>
			</g>
			<g>
				<linearGradient id="SVGID_7_" gradientUnits="userSpaceOnUse" x1="142.3016" y1="305.3916" x2="148.8622" y2="305.3916">
					<stop  offset="0" style="stop-color:#FE7087"/>
					<stop  offset="1" style="stop-color:#FE9D82"/>
				</linearGradient>
				<path class="st50" d="M142.7,302.2c2.1,0.2,4.1,0.6,6.1,1.4l-2,5c-1.5-0.6-3.1-0.9-4.6-1.1L142.7,302.2z"/>
			</g>
		</g>
		<g>
			<linearGradient id="SVGID_8_" gradientUnits="userSpaceOnUse" x1="218.9651" y1="277.0661" x2="311.9681" y2="277.0661">
				<stop  offset="0" style="stop-color:#CA4B7C"/>
				<stop  offset="1" style="stop-color:#FE7087"/>
			</linearGradient>
			<path class="st53" d="M312,217.3v119.6c0,7.9-6.4,14.3-14.3,14.3H219V203h78.7C305.6,203,312,209.4,312,217.3z"/>
		</g>
		<g>
			<path class="st296" d="M298.4,225.9h-65.8c-0.9,0-1.6-0.7-1.6-1.6V220c0-0.9,0.7-1.6,1.6-1.6h65.8c0.9,0,1.6,0.7,1.6,1.6v4.3
				C300,225.2,299.3,225.9,298.4,225.9z"/>
		</g>
		<g>
			<linearGradient id="SVGID_9_" gradientUnits="userSpaceOnUse" x1="230.9164" y1="238.2717" x2="300.0179" y2="238.2717">
				<stop  offset="0" style="stop-color:#FE7087"/>
				<stop  offset="1" style="stop-color:#FE9D82"/>
			</linearGradient>
			<path class="st54" d="M298.4,242h-65.8c-0.9,0-1.6-0.7-1.6-1.6v-4.3c0-0.9,0.7-1.6,1.6-1.6h65.8c0.9,0,1.6,0.7,1.6,1.6v4.3
				C300,241.3,299.3,242,298.4,242z"/>
		</g>
		<g>
			<linearGradient id="SVGID_10_" gradientUnits="userSpaceOnUse" x1="230.9164" y1="295.5943" x2="300.0179" y2="295.5943">
				<stop  offset="0" style="stop-color:#FE7087"/>
				<stop  offset="1" style="stop-color:#FE9D82"/>
			</linearGradient>
			<path class="st55" d="M294.5,338.2h-58.2c-3,0-5.5-2.5-5.5-5.5v-74.2c0-3,2.5-5.5,5.5-5.5h58.2c3,0,5.5,2.5,5.5,5.5v74.2
				C300,335.7,297.6,338.2,294.5,338.2z"/>
		</g>
		<g class="st299">
			<path class="st300" d="M244.4,312.5h-11.5c-3.6,0-6.5-2.9-6.5-6.5v-50.1c0-3.6,2.9-6.5,6.5-6.5h11.5c3.6,0,6.5,2.9,6.5,6.5V306
				C251,309.6,248,312.5,244.4,312.5z"/>
		</g>
		<g>
			<linearGradient id="SVGID_11_" gradientUnits="userSpaceOnUse" x1="170.3203" y1="310.8221" x2="199.6449" y2="310.8221">
				<stop  offset="0" style="stop-color:#FE7087"/>
				<stop  offset="1" style="stop-color:#FE9D82"/>
			</linearGradient>
			<path class="st56" d="M197.9,314.7H172c-0.9,0-1.7-0.8-1.7-1.7v-4.4c0-0.9,0.8-1.7,1.7-1.7h25.9c0.9,0,1.7,0.8,1.7,1.7v4.4
				C199.6,314,198.9,314.7,197.9,314.7z"/>
		</g>
		<g>
			<linearGradient id="SVGID_12_" gradientUnits="userSpaceOnUse" x1="170.3203" y1="323.5688" x2="199.6449" y2="323.5688">
				<stop  offset="0" style="stop-color:#FE7087"/>
				<stop  offset="1" style="stop-color:#FE9D82"/>
			</linearGradient>
			<path class="st57" d="M197.9,327.5H172c-0.9,0-1.7-0.8-1.7-1.7v-4.4c0-0.9,0.8-1.7,1.7-1.7h25.9c0.9,0,1.7,0.8,1.7,1.7v4.4
				C199.6,326.7,198.9,327.5,197.9,327.5z"/>
		</g>
		<g>
			<linearGradient id="SVGID_13_" gradientUnits="userSpaceOnUse" x1="170.3203" y1="336.3161" x2="199.6449" y2="336.3161">
				<stop  offset="0" style="stop-color:#6E376E"/>
				<stop  offset="1" style="stop-color:#CA4B7C"/>
			</linearGradient>
			<path class="st58" d="M197.9,340.2H172c-0.9,0-1.7-0.8-1.7-1.7v-4.4c0-0.9,0.8-1.7,1.7-1.7h25.9c0.9,0,1.7,0.8,1.7,1.7v4.4
				C199.6,339.5,198.9,340.2,197.9,340.2z"/>
		</g>
	</g>
	<g>
		<g>
			<g>
				<path class="st304" d="M216.7,429.9c0,0,3.2,4.3,2.8,5c-0.4,0.7-3.8,0.8-5.9,0c-2.1-0.8-2.1-5.9-3-8c-0.4-0.9,0.4-3.6,1.6-3.8
					c1.2-0.2,2.4,0.4,2.4,0.4S213.4,426.6,216.7,429.9z"/>
			</g>
		</g>
		<g>
			<g>
				<polygon class="st304" points="210.5,426.5 210.5,431.1 211.1,431.1 211.1,427.6 				"/>
			</g>
		</g>
		<g>
			<path class="st180" d="M297.9,352.8c0,0,0.7-0.1,1.1-0.5c0.7-0.7,0.7-2.2,2.1-2.3c1.4-0.1,2.6,4.1,2.4,4.9
				c-0.2,0.9-2,1.5-4.9,1.4C295.7,356.2,297.9,352.8,297.9,352.8z"/>
		</g>
		<g>
			<path class="st305" d="M270.2,324.3l1.8-0.7c0,0,4.5,1,7,4.6l-0.2,1.1C278.8,329.2,272,327.8,270.2,324.3z"/>
		</g>
		<g>
			<path class="st306" d="M277,350.3c-0.4,0.5-0.6,0.9-0.8,1c-0.1,0.1-0.3,0.2-0.5,0.4c0,0,0,0,0,0l-0.2-6.7c0,0,0.8,2.6,1,3
				C276.6,348.3,277,350.3,277,350.3z"/>
		</g>
		<g>
			<g>
				<path class="st180" d="M286.7,319.3c0.2-0.5-0.2-2.4-1.5-1.3c-1.2,1.1-1.2,3.6-0.5,3.8C285.4,321.9,286.3,320.5,286.7,319.3z"/>
			</g>
		</g>
		<g>
			<g>
				<path class="st307" d="M282.1,308.4c0,0-6-4.3-6,10.3L282.1,308.4z"/>
			</g>
		</g>
		<g>
			<g>
				<g>
					<path class="st180" d="M285,307c0,0,6.9,1.2,7,7.1c0.1,5.8-5.3,14.3-8.8,13.7c-3.5-0.6-7.4-3.7-7.3-7.3
						c0.1-3.6,1.1-8.2,2.7-10.8C280.2,307.1,283.1,306.9,285,307z"/>
				</g>
			</g>
			<g>
				<g>
					<path class="st307" d="M276.2,317.8c0,0,0,1.2,2.4,2.1c2.4,0.9,6.7-0.4,7.8-0.2c1.1,0.2,1.4-0.3,1.4-0.3l0.1,1.2l0.9,0.6
						c0,0,0.7-3.1,2.6-3.4c2-0.3,3.6-9.2-4.8-10.9c0,0-6.2-1.7-7.8,1.5C277.1,311.6,275.9,315.6,276.2,317.8z"/>
				</g>
			</g>
			<g>
				<linearGradient id="SVGID_14_" gradientUnits="userSpaceOnUse" x1="265.4414" y1="384.3333" x2="335.686" y2="384.3333">
					<stop  offset="0" style="stop-color:#6E376E"/>
					<stop  offset="1" style="stop-color:#CA4B7C"/>
				</linearGradient>
				<path class="st60" d="M327.6,419.5h-54.1c-4.4,0-8.1-3.6-8.1-8.1v-54.1c0-4.4,3.6-8.1,8.1-8.1h54.1c4.4,0,8.1,3.6,8.1,8.1v54.1
					C335.7,415.8,332.1,419.5,327.6,419.5z"/>
			</g>
			<g>
				<path class="st296" d="M328.7,367.1h-24c-0.9,0-1.6-0.7-1.6-1.6v-4.3c0-0.9,0.7-1.6,1.6-1.6h24c0.9,0,1.6,0.7,1.6,1.6v4.3
					C330.3,366.4,329.6,367.1,328.7,367.1z"/>
			</g>
			<g>
				<path class="st296" d="M326.5,411h-19.7c-2.1,0-3.8-1.7-3.8-3.8v-32.5c0-2.1,1.7-3.8,3.8-3.8h19.7c2.1,0,3.8,1.7,3.8,3.8v32.5
					C330.3,409.3,328.6,411,326.5,411z"/>
			</g>
			<g>
				<g>
					<path class="st296" d="M281.2,380.8c1.2,0.4,2.5,0.6,3.9,0.7c4.1,0.1,7.8-1.9,10.1-4.9c1.6-2.1,2.6-4.7,2.6-7.5
						c0-0.3,0-0.6,0-0.8c-0.1-1.3-0.3-2.5-0.7-3.6c-1.7-4.8-6.3-8.2-11.6-8.3c-2.9,0-5.6,0.9-7.7,2.5c-3,2.3-4.9,5.8-5,9.9
						C272.6,374.4,276.2,379.1,281.2,380.8z M275.8,368.8c0-3,1.5-5.7,3.7-7.4c1.6-1.2,3.6-2,5.8-1.9c4,0.1,7.4,2.6,8.7,6.2l0,0
						c0.3,0.8,0.5,1.8,0.5,2.7c0,0.2,0,0.4,0,0.6c0,2.1-0.8,4.1-2,5.6c-1.7,2.3-4.5,3.7-7.6,3.6c-1,0-2-0.2-2.9-0.5
						C278.5,376.6,275.8,373,275.8,368.8z"/>
				</g>
				<g>
					<linearGradient id="SVGID_15_" gradientUnits="userSpaceOnUse" x1="281.2243" y1="378.1057" x2="295.1756" y2="378.1057">
						<stop  offset="0" style="stop-color:#CA4B7C"/>
						<stop  offset="1" style="stop-color:#FE7087"/>
					</linearGradient>
					<path class="st61" d="M292.7,374.7l2.5,1.9c-2.3,3-6,4.9-10.1,4.9c-1.4,0-2.7-0.2-3.9-0.7l1-3c0.9,0.3,1.9,0.5,2.9,0.5
						C288.2,378.4,290.9,377,292.7,374.7z"/>
				</g>
				<g>
					<linearGradient id="SVGID_16_" gradientUnits="userSpaceOnUse" x1="292.6916" y1="372.4514" x2="297.8031" y2="372.4514">
						<stop  offset="0" style="stop-color:#FE7087"/>
						<stop  offset="1" style="stop-color:#FE9D82"/>
					</linearGradient>
					<path class="st62" d="M294.6,368.4l3.1-0.2c0,0.3,0,0.6,0,0.8c0,2.8-1,5.4-2.6,7.5l-2.5-1.9c1.2-1.6,1.9-3.5,2-5.6
						C294.7,368.9,294.7,368.6,294.6,368.4z"/>
				</g>
				<g>
					<linearGradient id="SVGID_17_" gradientUnits="userSpaceOnUse" x1="294.0983" y1="366.5499" x2="297.7855" y2="366.5499">
						<stop  offset="0" style="stop-color:#6E376E"/>
						<stop  offset="1" style="stop-color:#CA4B7C"/>
					</linearGradient>
					<path class="st63" d="M294.6,368.4c-0.1-0.9-0.2-1.9-0.5-2.7l0,0l3-1.1c0.4,1.1,0.7,2.3,0.7,3.6L294.6,368.4z"/>
				</g>
				<g>
					<path class="st312" d="M277.7,358.9c2.1-1.6,4.8-2.6,7.7-2.5c5.4,0.1,9.9,3.5,11.6,8.3l-3,1.1l0,0c-1.3-3.6-4.7-6.1-8.7-6.2
						c-2.2,0-4.2,0.7-5.8,1.9L277.7,358.9z"/>
				</g>
			</g>
			<g>
				<path class="st180" d="M300.6,350.2c0,0,1.8-1,4-1.8c1.9-0.7,4.3-1.2,4.5-0.9c0.6,0.7-1.7,1.2-3.5,2.1c-1.7,0.8-1.4,0.6-1.4,0.6
					s-0.1,0,1.9-0.5c2.2-0.5,4.4-0.9,4.7-0.5c0.1,0.2,0.4,0.9-0.5,0.9c0.5-0.1,0.4-0.2,0.4,0c0.2,1-2.8,2.2-4,2.7
					c0.9-0.4,1.7-0.6,1.4,0.2c-0.3,0.8-4.7,2.4-6.2,3.1C300.2,356.9,300.6,350.2,300.6,350.2z"/>
			</g>
			<g>
				<path class="st305" d="M267.9,324.2c0,0-4.3-0.3-7.4,0c-3,0.3-7.3,2.8-9.8,3.5c-2.5,0.7-8.7,4.8-8.5,5.4
					c0.2,0.6,2.5,7.3,6.9,12.7C252.9,350.6,267.9,324.2,267.9,324.2z"/>
			</g>
			<g>
				<path class="st306" d="M258.6,326.9c0,0-4.7,3.4-6.3,6.6c-1.6,3.2-2.2,6.9-2.2,6.9L258.6,326.9z"/>
			</g>
			<g>
				<path class="st181" d="M262.1,429.5c0,0,1.3,1.4,2.1,1.8s9.9,2,10.6,2.7c0.6,0.7,0.6,3.7-1.7,3.7c-2.4,0-10.3,0-11.6,0
					c-1.3,0-6.9,1.2-7.5,0c-0.6-1.2-0.5-6.6,0.5-7.9C255.5,428.5,262.1,429.5,262.1,429.5z"/>
			</g>
			<g>
				<linearGradient id="SVGID_18_" gradientUnits="userSpaceOnUse" x1="254.4469" y1="428.9478" x2="262.1272" y2="428.9478">
					<stop  offset="0" style="stop-color:#FE7087"/>
					<stop  offset="1" style="stop-color:#FE9D82"/>
				</linearGradient>
				<path class="st64" d="M261.8,427.8l0.3,1.6c0,0-2.4,1.1-7.7,0.3v-1.7L261.8,427.8z"/>
			</g>
			<g>
				<path class="st181" d="M206.1,424.9c0,0-1,1.2-1.5,2.7c-0.3,1-1.9,5.6-1.2,6.7c0.7,1.1,5.9,1.3,8.5,0.9c2.6-0.4,8.3,0.5,8.9-0.7
					c0.6-1.1,0.9-2.8-0.8-3.4c-1.7-0.6-5.6-2.3-6.3-4C213,425.4,206.1,424.9,206.1,424.9z"/>
			</g>
			<g>
				<linearGradient id="SVGID_19_" gradientUnits="userSpaceOnUse" x1="206.1262" y1="424.3052" x2="214.4074" y2="424.3052">
					<stop  offset="0" style="stop-color:#FE7087"/>
					<stop  offset="1" style="stop-color:#FE9D82"/>
				</linearGradient>
				<path class="st65" d="M214.4,425.3l-0.7,1.9c0,0-7.5-0.6-7.6-2.2l2.4-3.4L214.4,425.3z"/>
			</g>
			<g>
				<g>
					<g>
						<path class="st180" d="M275.9,321c0,0-4.2,3.5-5.4,3.3c-1.2-0.3,4.1,7.5,4.1,7.5s5-5,6.2-5.1C282,326.6,275.9,321,275.9,321z"
							/>
					</g>
				</g>
			</g>
			<g>
				<path class="st305" d="M276.2,335.1c-1.4,0.9-1.7,1.1-1.5,5.2c0.2,4.1,1.9,7.3,2,8.5c0.1,1.1,2.4,12.2,3,12.9
					c0.6,0.6,8.1-0.8,9.6-1.3c2.3-0.7,11.8-3.9,11.8-3.9L299,352c0,0-12,2.7-12.4,1.7c-0.4-0.9-1.3-8.8-1.7-10.6
					c-0.3-1.7,0.2-4.4-1.8-8.5C281.2,331,276.2,335.1,276.2,335.1z"/>
			</g>
			<g>
				<linearGradient id="SVGID_20_" gradientUnits="userSpaceOnUse" x1="237.9391" y1="392.7971" x2="277.832" y2="392.7971">
					<stop  offset="0" style="stop-color:#CA4B7C"/>
					<stop  offset="1" style="stop-color:#FE7087"/>
				</linearGradient>
				<path class="st66" d="M262.1,365.7c0,0,2.6,2.7,3.3,3.6c4.9,6,11.5,17.1,12.4,19.1c0.8,1.9-4.1,15.6-6.1,20.4
					c-1.1,2.5-8.1,19.8-7.9,20.2c0.2,0.4-7.5,0.6-10.9-1.1c0,0,4.9-14.6,6-17.5c1.6-4.3,7-16.3,7.2-17.5c0.2-1.2-8.8-10.7-11.8-12.6
					c-3-1.8-10.3-8.3-11.1-9.1c-0.8-0.8-5.5-3-5.1-7.3c0.4-4.2,3.6-7.5,3.6-7.5L262.1,365.7z"/>
			</g>
			<g>
				<linearGradient id="SVGID_21_" gradientUnits="userSpaceOnUse" x1="206.9152" y1="390.7256" x2="252.8229" y2="390.7256">
					<stop  offset="0" style="stop-color:#CA4B7C"/>
					<stop  offset="1" style="stop-color:#FE7087"/>
				</linearGradient>
				<path class="st67" d="M248.7,376.1c0,0-0.5,1.2-1.1,3c-1.4,3.7-3.7,9.7-4.1,10.6c-0.6,1.4-3.3,7.4-4.6,8.5
					c-1.3,1.2-23.2,27.4-23.2,27.6c-0.1,0.2-8.2-4-8.7-5.6c0,0,11.8-15.4,13.7-17.7c1.8-2.3,5.6-5.6,6.9-11
					c1.3-5.4,10.4-26,10.4-26.8c0,0,1.5-6.4,3.6-8.3c2.1-1.9,9.9,0.3,11.1,4.4C253.9,364.8,248.7,376.1,248.7,376.1z"/>
			</g>
			<g>
				<linearGradient id="SVGID_22_" gradientUnits="userSpaceOnUse" x1="242.6811" y1="374.9305" x2="248.6879" y2="374.9305">
					<stop  offset="0" style="stop-color:#FE7087"/>
					<stop  offset="1" style="stop-color:#FE9D82"/>
				</linearGradient>
				<path class="st68" d="M248.7,376.1c0,0-0.5,1.2-1.1,3c-1.5-1.7-4.9-8.2-4.9-8.2c0.2,0.2,0.9,0.8,1.1,1
					C243.9,372,248.7,376.1,248.7,376.1z"/>
			</g>
			<g>
				<path class="st305" d="M277,350.3c-0.4,0.5-0.6,0.9-0.8,1c-0.1,0.1-0.3,0.2-0.5,0.4c0,0,0,0,0,0c-1.7,1.4-5.5,4-7.2,4.9
					c-1.9,1.1-5.6,9.9-5.6,9.9s-17.3-1.2-21.3-10.1c0,0,2.8-6.3,5.4-10c2.6-3.7,8.2-17.2,11.2-19.1c3-1.9,5.6-3.2,11.5-3
					c5.9,0.2,9.2,4.8,9.2,4.8s4.5,4.8,4.9,7.4C284.1,338.6,279.2,347.2,277,350.3z"/>
			</g>
		</g>
	</g>
</g>
</svg>
