<?xml version="1.0" encoding="utf-8"?>
<!-- Generator: Adobe Illustrator 22.1.0, SVG Export Plug-In . SVG Version: 6.00 Build 0)  -->
<svg version="1.1" id="Layer_1" xmlns="http://www.w3.org/2000/svg" xmlns:xlink="http://www.w3.org/1999/xlink" x="0px" y="0px"
	 viewBox="0 0 1080 1080" style="enable-background:new 0 0 1080 1080;" xml:space="preserve">
<style type="text/css">
	.st0{fill-rule:evenodd;clip-rule:evenodd;fill:url(#SVGID_1_);}
	.st1{opacity:0.3;fill-rule:evenodd;clip-rule:evenodd;fill:#882A81;}
	.st2{fill-rule:evenodd;clip-rule:evenodd;fill:#927CAE;}
	.st3{fill-rule:evenodd;clip-rule:evenodd;fill:url(#SVGID_2_);}
	.st4{fill-rule:evenodd;clip-rule:evenodd;fill:#957BB8;}
	.st5{fill-rule:evenodd;clip-rule:evenodd;fill:url(#SVGID_3_);}
	.st6{fill-rule:evenodd;clip-rule:evenodd;fill:#FFF4EC;}
	.st7{fill-rule:evenodd;clip-rule:evenodd;fill:#DBCFE3;}
	.st8{fill-rule:evenodd;clip-rule:evenodd;fill:url(#SVGID_4_);}
	.st9{fill-rule:evenodd;clip-rule:evenodd;fill:#11002D;}
	.st10{fill-rule:evenodd;clip-rule:evenodd;fill:#493C5F;}
	.st11{fill:#957BB8;}
	.st12{opacity:0.3;fill-rule:evenodd;clip-rule:evenodd;fill:#672A6E;}
	.st13{opacity:0.5;fill-rule:evenodd;clip-rule:evenodd;fill:#FFFFFF;}
	.st14{fill:url(#SVGID_5_);}
	.st15{fill:#FFFFFF;}
	.st16{opacity:0.4;fill:url(#SVGID_6_);}
	.st17{opacity:0.5;fill:url(#SVGID_7_);}
	.st18{opacity:0.4;fill:url(#SVGID_8_);}
	.st19{opacity:0.5;fill:url(#SVGID_9_);}
	.st20{opacity:0.5;fill:url(#SVGID_10_);}
	.st21{opacity:0.4;fill-rule:evenodd;clip-rule:evenodd;fill:url(#SVGID_11_);}
	.st22{fill-rule:evenodd;clip-rule:evenodd;fill:#AA9AC6;}
	.st23{fill-rule:evenodd;clip-rule:evenodd;fill:url(#SVGID_12_);}
	.st24{fill-rule:evenodd;clip-rule:evenodd;fill:url(#SVGID_13_);}
	.st25{fill-rule:evenodd;clip-rule:evenodd;fill:url(#SVGID_14_);}
	.st26{opacity:0.2;fill:#9B73A0;}
	.st27{fill:url(#SVGID_15_);}
	.st28{opacity:0.4;fill:url(#SVGID_16_);}
	.st29{opacity:0.5;fill:url(#SVGID_17_);}
	.st30{opacity:0.4;fill:url(#SVGID_18_);}
	.st31{opacity:0.5;fill:url(#SVGID_19_);}
	.st32{opacity:0.5;fill:url(#SVGID_20_);}
	.st33{opacity:0.4;fill-rule:evenodd;clip-rule:evenodd;fill:url(#SVGID_21_);}
	.st34{opacity:0.3;fill-rule:evenodd;clip-rule:evenodd;fill:#A22A6E;}
	.st35{fill-rule:evenodd;clip-rule:evenodd;fill:#ED6D2F;}
	.st36{fill-rule:evenodd;clip-rule:evenodd;fill:#FFE541;}
	.st37{fill-rule:evenodd;clip-rule:evenodd;fill:#FEE3EC;}
	.st38{fill-rule:evenodd;clip-rule:evenodd;fill:#F2775E;}
	.st39{fill:#FFBB97;}
	.st40{fill:#522530;}
	.st41{opacity:0.6;fill-rule:evenodd;clip-rule:evenodd;fill:url(#SVGID_22_);}
	.st42{opacity:0.6;fill-rule:evenodd;clip-rule:evenodd;fill:url(#SVGID_23_);}
	.st43{fill-rule:evenodd;clip-rule:evenodd;fill:#C44A4C;}
	.st44{fill-rule:evenodd;clip-rule:evenodd;fill:#BD3436;}
	.st45{fill-rule:evenodd;clip-rule:evenodd;fill:#DB5654;}
	.st46{opacity:0.6;fill-rule:evenodd;clip-rule:evenodd;fill:url(#SVGID_24_);}
	.st47{opacity:0.6;fill-rule:evenodd;clip-rule:evenodd;fill:url(#SVGID_25_);}
	.st48{fill-rule:evenodd;clip-rule:evenodd;fill:#FFFFFF;}
	.st49{fill-rule:evenodd;clip-rule:evenodd;fill:#FFB8A5;}
	.st50{fill-rule:evenodd;clip-rule:evenodd;fill:#FFCEC1;}
	.st51{fill:#812545;}
	.st52{fill:url(#SVGID_26_);}
	.st53{opacity:0.6;fill-rule:evenodd;clip-rule:evenodd;fill:url(#SVGID_27_);}
	.st54{opacity:0.6;fill-rule:evenodd;clip-rule:evenodd;fill:url(#SVGID_28_);}
	.st55{fill-rule:evenodd;clip-rule:evenodd;fill:url(#SVGID_29_);}
	.st56{opacity:0.6;fill-rule:evenodd;clip-rule:evenodd;fill:url(#SVGID_30_);}
	.st57{opacity:0.6;fill-rule:evenodd;clip-rule:evenodd;fill:url(#SVGID_31_);}
	.st58{opacity:0.6;fill-rule:evenodd;clip-rule:evenodd;fill:url(#SVGID_32_);}
	.st59{opacity:0.6;fill-rule:evenodd;clip-rule:evenodd;fill:url(#SVGID_33_);}
	.st60{fill:url(#SVGID_34_);}
	.st61{opacity:0.6;fill-rule:evenodd;clip-rule:evenodd;fill:url(#SVGID_35_);}
	.st62{opacity:0.6;fill-rule:evenodd;clip-rule:evenodd;fill:url(#SVGID_36_);}
	.st63{fill-rule:evenodd;clip-rule:evenodd;fill:url(#SVGID_37_);}
	.st64{opacity:0.9;fill-rule:evenodd;clip-rule:evenodd;fill:#E8EC9F;}
	.st65{clip-path:url(#SVGID_39_);}
	.st66{fill-rule:evenodd;clip-rule:evenodd;fill:url(#SVGID_40_);}
	.st67{opacity:0.3;fill-rule:evenodd;clip-rule:evenodd;fill:url(#SVGID_41_);}
	.st68{opacity:0.3;fill-rule:evenodd;clip-rule:evenodd;fill:url(#SVGID_42_);}
	.st69{opacity:0.3;fill-rule:evenodd;clip-rule:evenodd;fill:url(#SVGID_43_);}
	.st70{opacity:0.3;fill-rule:evenodd;clip-rule:evenodd;fill:url(#SVGID_44_);}
	.st71{opacity:0.3;fill-rule:evenodd;clip-rule:evenodd;fill:url(#SVGID_45_);}
	.st72{opacity:0.3;fill-rule:evenodd;clip-rule:evenodd;fill:url(#SVGID_46_);}
	.st73{opacity:0.3;fill-rule:evenodd;clip-rule:evenodd;fill:url(#SVGID_47_);}
	.st74{opacity:0.3;fill-rule:evenodd;clip-rule:evenodd;fill:url(#SVGID_48_);}
	.st75{opacity:0.3;fill-rule:evenodd;clip-rule:evenodd;fill:url(#SVGID_49_);}
	.st76{opacity:0.8;fill-rule:evenodd;clip-rule:evenodd;fill:url(#SVGID_50_);}
	.st77{opacity:0.3;fill-rule:evenodd;clip-rule:evenodd;fill:url(#SVGID_51_);}
	.st78{opacity:0.3;fill-rule:evenodd;clip-rule:evenodd;fill:url(#SVGID_52_);}
	.st79{opacity:0.3;fill-rule:evenodd;clip-rule:evenodd;fill:url(#SVGID_53_);}
	.st80{opacity:0.3;fill-rule:evenodd;clip-rule:evenodd;fill:url(#SVGID_54_);}
	.st81{fill-rule:evenodd;clip-rule:evenodd;fill:url(#SVGID_55_);}
	.st82{opacity:0.8;fill-rule:evenodd;clip-rule:evenodd;fill:url(#SVGID_56_);}
	.st83{opacity:0.8;fill-rule:evenodd;clip-rule:evenodd;fill:url(#SVGID_57_);}
	.st84{opacity:0.8;fill-rule:evenodd;clip-rule:evenodd;fill:#DDD7D1;}
	.st85{opacity:0.3;fill-rule:evenodd;clip-rule:evenodd;fill:url(#SVGID_58_);}
	.st86{opacity:0.8;fill-rule:evenodd;clip-rule:evenodd;fill:url(#SVGID_59_);}
	.st87{opacity:0.3;fill-rule:evenodd;clip-rule:evenodd;fill:url(#SVGID_60_);}
	.st88{opacity:0.3;fill-rule:evenodd;clip-rule:evenodd;fill:url(#SVGID_61_);}
	.st89{fill-rule:evenodd;clip-rule:evenodd;fill:#FFEDDD;}
	.st90{opacity:0.3;fill-rule:evenodd;clip-rule:evenodd;fill:url(#SVGID_62_);}
	.st91{opacity:0.3;fill-rule:evenodd;clip-rule:evenodd;fill:url(#SVGID_63_);}
	.st92{opacity:0.3;fill-rule:evenodd;clip-rule:evenodd;fill:url(#SVGID_64_);}
	.st93{opacity:0.3;fill-rule:evenodd;clip-rule:evenodd;fill:url(#SVGID_65_);}
	.st94{opacity:0.8;fill-rule:evenodd;clip-rule:evenodd;fill:url(#SVGID_66_);}
	.st95{opacity:0.3;fill-rule:evenodd;clip-rule:evenodd;fill:url(#SVGID_67_);}
	.st96{opacity:0.8;fill-rule:evenodd;clip-rule:evenodd;fill:url(#SVGID_68_);}
	.st97{fill:#D0546D;}
	.st98{fill-rule:evenodd;clip-rule:evenodd;fill:url(#SVGID_69_);}
	.st99{fill-rule:evenodd;clip-rule:evenodd;fill:url(#SVGID_70_);}
	.st100{fill-rule:evenodd;clip-rule:evenodd;fill:url(#SVGID_71_);}
	.st101{fill-rule:evenodd;clip-rule:evenodd;fill:url(#SVGID_72_);}
	.st102{fill-rule:evenodd;clip-rule:evenodd;fill:url(#SVGID_73_);}
	.st103{fill-rule:evenodd;clip-rule:evenodd;fill:url(#SVGID_74_);}
	.st104{fill-rule:evenodd;clip-rule:evenodd;fill:url(#SVGID_75_);}
	.st105{fill-rule:evenodd;clip-rule:evenodd;fill:url(#SVGID_76_);}
	.st106{opacity:0.3;fill-rule:evenodd;clip-rule:evenodd;fill:url(#SVGID_77_);}
	.st107{opacity:0.5;fill-rule:evenodd;clip-rule:evenodd;fill:url(#SVGID_78_);}
	.st108{fill-rule:evenodd;clip-rule:evenodd;fill:#795674;}
	.st109{fill-rule:evenodd;clip-rule:evenodd;fill:#FFB190;}
	.st110{fill-rule:evenodd;clip-rule:evenodd;fill:#882A81;}
	.st111{opacity:0.8;fill-rule:evenodd;clip-rule:evenodd;fill:#FFFFCF;}
	.st112{opacity:0.4;fill-rule:evenodd;clip-rule:evenodd;fill:url(#SVGID_79_);}
	.st113{clip-path:url(#SVGID_81_);fill:#FFFFFF;}
	.st114{clip-path:url(#SVGID_81_);fill:url(#SVGID_82_);}
	.st115{opacity:0.7;fill:#30A0A0;}
	.st116{fill:#EDDCDA;}
	.st117{fill:#2C1D1B;}
	.st118{fill:#3F2A28;}
	.st119{fill:#FFB65F;}
	.st120{fill:#F9BBA7;}
	.st121{fill:#FFC9B6;}
	.st122{fill:#F98F38;}
	.st123{fill:#DEC9C5;}
	.st124{fill:#F4EBEA;}
	.st125{fill:#FF5E4C;}
	.st126{fill:#EF4335;}
	.st127{fill:#FF7469;}
	.st128{fill:#FFB9A4;}
	.st129{fill:#F9F4F4;}
	.st130{fill:#513937;}
	.st131{fill:#74CACE;}
	.st132{fill:#53B7B7;}
	.st133{fill:#FF9E55;}
	.st134{fill:#3F2A2A;}
	.st135{fill:#778DFD;}
	.st136{fill:#5E4443;}
	.st137{fill:#472F2E;}
	.st138{fill:#8DA3FF;}
	.st139{fill:#42A8A5;}
	.st140{fill:#8DE0E0;}
	.st141{opacity:0.5;fill:#FF5E4C;}
	.st142{fill:#FF908A;}
	.st143{clip-path:url(#SVGID_84_);fill:#FFFFFF;}
	.st144{clip-path:url(#SVGID_84_);fill:url(#SVGID_85_);}
	.st145{fill:url(#SVGID_86_);}
	.st146{fill:url(#SVGID_87_);}
	.st147{fill:url(#SVGID_88_);}
	.st148{fill:url(#SVGID_89_);}
	.st149{fill:url(#SVGID_90_);}
	.st150{fill:url(#SVGID_91_);}
	.st151{fill:#2C3144;}
	.st152{fill:#1A1F2D;}
	.st153{fill:#43485B;}
	.st154{fill:url(#SVGID_92_);}
	.st155{fill:url(#SVGID_93_);}
	.st156{fill:url(#SVGID_94_);}
	.st157{fill:url(#SVGID_95_);}
	.st158{fill:#6E376E;}
	.st159{fill:#7B487C;}
	.st160{fill:url(#SVGID_96_);}
	.st161{fill:url(#SVGID_97_);}
	.st162{fill:url(#SVGID_98_);}
	.st163{fill:url(#SVGID_99_);}
	.st164{fill:url(#SVGID_100_);}
	.st165{fill:url(#SVGID_101_);}
	.st166{fill:url(#SVGID_102_);}
	.st167{fill:url(#SVGID_103_);}
	.st168{fill:url(#SVGID_104_);}
	.st169{fill:url(#SVGID_105_);}
	.st170{fill:url(#SVGID_106_);}
	.st171{fill:url(#SVGID_107_);}
	.st172{fill:url(#SVGID_108_);}
	.st173{fill:url(#SVGID_109_);}
	.st174{fill:url(#SVGID_110_);}
	.st175{fill:url(#SVGID_111_);}
	.st176{fill:url(#SVGID_112_);}
	.st177{fill:url(#SVGID_113_);}
	.st178{fill:url(#SVGID_114_);}
	.st179{fill:url(#SVGID_115_);}
	.st180{fill:url(#SVGID_116_);}
	.st181{fill:url(#SVGID_117_);}
	.st182{fill:url(#SVGID_118_);}
	.st183{opacity:0.5;fill:url(#SVGID_119_);}
	.st184{fill:url(#SVGID_120_);}
	.st185{fill-rule:evenodd;clip-rule:evenodd;fill:url(#SVGID_121_);}
	.st186{opacity:0.8;}
	.st187{fill-rule:evenodd;clip-rule:evenodd;fill:url(#SVGID_122_);}
	.st188{fill-rule:evenodd;clip-rule:evenodd;fill:#D4C5DA;}
	.st189{fill-rule:evenodd;clip-rule:evenodd;fill:#F0EDF8;}
	.st190{fill:#AB9AC0;}
	.st191{fill-rule:evenodd;clip-rule:evenodd;fill:#C4313B;}
	.st192{fill-rule:evenodd;clip-rule:evenodd;fill:#8D2136;}
	.st193{fill-rule:evenodd;clip-rule:evenodd;fill:#EF6F36;}
	.st194{opacity:0.5;fill-rule:evenodd;clip-rule:evenodd;fill:#D385A0;}
	.st195{fill-rule:evenodd;clip-rule:evenodd;fill:#EA5786;}
	.st196{opacity:0.5;fill-rule:evenodd;clip-rule:evenodd;fill:#C74F7E;}
	.st197{opacity:0.2;}
	.st198{fill-rule:evenodd;clip-rule:evenodd;fill:#EC7386;}
	.st199{fill-rule:evenodd;clip-rule:evenodd;fill:#FF9F86;}
	.st200{opacity:0.4;fill-rule:evenodd;clip-rule:evenodd;fill:url(#SVGID_123_);}
	.st201{fill-rule:evenodd;clip-rule:evenodd;fill:url(#SVGID_124_);}
	.st202{fill-rule:evenodd;clip-rule:evenodd;fill:url(#SVGID_125_);}
	.st203{fill-rule:evenodd;clip-rule:evenodd;fill:#6E376E;}
	.st204{fill-rule:evenodd;clip-rule:evenodd;fill:url(#SVGID_126_);}
	.st205{fill-rule:evenodd;clip-rule:evenodd;fill:#A42E36;}
	.st206{fill-rule:evenodd;clip-rule:evenodd;fill:url(#SVGID_127_);}
	.st207{fill-rule:evenodd;clip-rule:evenodd;fill:url(#SVGID_128_);}
	.st208{fill-rule:evenodd;clip-rule:evenodd;fill:#5C506F;}
	.st209{fill-rule:evenodd;clip-rule:evenodd;fill:url(#SVGID_129_);}
	.st210{fill-rule:evenodd;clip-rule:evenodd;fill:url(#SVGID_130_);}
	.st211{fill-rule:evenodd;clip-rule:evenodd;fill:url(#SVGID_131_);}
	.st212{fill-rule:evenodd;clip-rule:evenodd;fill:#FF9236;}
	.st213{fill-rule:evenodd;clip-rule:evenodd;fill:url(#SVGID_132_);}
	.st214{fill-rule:evenodd;clip-rule:evenodd;fill:#2C3144;}
	.st215{fill-rule:evenodd;clip-rule:evenodd;fill:url(#SVGID_133_);}
	.st216{fill-rule:evenodd;clip-rule:evenodd;fill:url(#SVGID_134_);}
	.st217{fill-rule:evenodd;clip-rule:evenodd;fill:url(#SVGID_135_);}
	.st218{fill:#A42E36;}
	.st219{fill-rule:evenodd;clip-rule:evenodd;fill:#836D9C;}
	.st220{fill-rule:evenodd;clip-rule:evenodd;fill:url(#SVGID_136_);}
	.st221{fill-rule:evenodd;clip-rule:evenodd;fill:url(#SVGID_137_);}
	.st222{fill-rule:evenodd;clip-rule:evenodd;fill:url(#SVGID_138_);}
	.st223{fill-rule:evenodd;clip-rule:evenodd;fill:url(#SVGID_139_);}
	.st224{fill-rule:evenodd;clip-rule:evenodd;fill:url(#SVGID_140_);}
	.st225{fill-rule:evenodd;clip-rule:evenodd;fill:#B8C4F0;}
	.st226{fill-rule:evenodd;clip-rule:evenodd;fill:url(#SVGID_141_);}
	.st227{fill-rule:evenodd;clip-rule:evenodd;fill:url(#SVGID_142_);}
	.st228{fill-rule:evenodd;clip-rule:evenodd;fill:url(#SVGID_143_);}
	.st229{fill-rule:evenodd;clip-rule:evenodd;fill:url(#SVGID_144_);}
	.st230{fill-rule:evenodd;clip-rule:evenodd;fill:url(#SVGID_145_);}
	.st231{fill-rule:evenodd;clip-rule:evenodd;fill:url(#SVGID_146_);}
	.st232{fill-rule:evenodd;clip-rule:evenodd;fill:url(#SVGID_147_);}
	.st233{fill-rule:evenodd;clip-rule:evenodd;fill:url(#SVGID_148_);}
	.st234{fill-rule:evenodd;clip-rule:evenodd;fill:url(#SVGID_149_);}
	.st235{fill-rule:evenodd;clip-rule:evenodd;fill:url(#SVGID_150_);}
	.st236{fill-rule:evenodd;clip-rule:evenodd;fill:url(#SVGID_151_);}
	.st237{fill-rule:evenodd;clip-rule:evenodd;fill:url(#SVGID_152_);}
	.st238{fill-rule:evenodd;clip-rule:evenodd;fill:url(#SVGID_153_);}
	.st239{fill-rule:evenodd;clip-rule:evenodd;fill:url(#SVGID_154_);}
	.st240{opacity:0.49;fill-rule:evenodd;clip-rule:evenodd;fill:#5A1878;}
	.st241{fill-rule:evenodd;clip-rule:evenodd;fill:url(#SVGID_155_);}
	.st242{fill-rule:evenodd;clip-rule:evenodd;fill:url(#SVGID_156_);}
	.st243{fill-rule:evenodd;clip-rule:evenodd;fill:url(#SVGID_157_);}
	.st244{fill-rule:evenodd;clip-rule:evenodd;fill:url(#SVGID_158_);}
	.st245{fill-rule:evenodd;clip-rule:evenodd;fill:url(#SVGID_159_);}
	.st246{opacity:0.4;fill-rule:evenodd;clip-rule:evenodd;fill:url(#SVGID_160_);}
	.st247{opacity:0.4;fill-rule:evenodd;clip-rule:evenodd;fill:url(#SVGID_161_);}
	.st248{fill-rule:evenodd;clip-rule:evenodd;fill:url(#SVGID_162_);}
	.st249{fill-rule:evenodd;clip-rule:evenodd;fill:url(#SVGID_163_);}
	.st250{opacity:0.5;fill-rule:evenodd;clip-rule:evenodd;fill:#E8EC9F;}
	.st251{fill-rule:evenodd;clip-rule:evenodd;fill:#E8EC9F;}
	.st252{opacity:0.4;fill-rule:evenodd;clip-rule:evenodd;fill:url(#SVGID_164_);}
	.st253{opacity:0.4;fill-rule:evenodd;clip-rule:evenodd;fill:url(#SVGID_165_);}
	.st254{fill-rule:evenodd;clip-rule:evenodd;fill:url(#SVGID_166_);}
	.st255{fill-rule:evenodd;clip-rule:evenodd;fill:url(#SVGID_167_);}
	.st256{fill-rule:evenodd;clip-rule:evenodd;fill:url(#SVGID_168_);}
	.st257{fill-rule:evenodd;clip-rule:evenodd;fill:url(#SVGID_169_);}
	.st258{fill-rule:evenodd;clip-rule:evenodd;fill:url(#SVGID_170_);}
	.st259{fill-rule:evenodd;clip-rule:evenodd;fill:url(#SVGID_171_);}
	.st260{fill-rule:evenodd;clip-rule:evenodd;fill:url(#SVGID_172_);}
	.st261{opacity:0.4;fill-rule:evenodd;clip-rule:evenodd;fill:url(#SVGID_173_);}
	.st262{fill-rule:evenodd;clip-rule:evenodd;fill:url(#SVGID_174_);}
	.st263{fill-rule:evenodd;clip-rule:evenodd;fill:url(#SVGID_175_);}
	.st264{fill-rule:evenodd;clip-rule:evenodd;fill:#8168A2;}
	.st265{fill-rule:evenodd;clip-rule:evenodd;fill:url(#SVGID_176_);}
	.st266{opacity:0.5;fill-rule:evenodd;clip-rule:evenodd;fill:#9B73A0;}
	.st267{fill-rule:evenodd;clip-rule:evenodd;fill:url(#SVGID_177_);}
	.st268{fill-rule:evenodd;clip-rule:evenodd;fill:#ECE6F0;}
	.st269{fill-rule:evenodd;clip-rule:evenodd;fill:url(#SVGID_178_);}
	.st270{fill-rule:evenodd;clip-rule:evenodd;fill:#E7E8EC;}
	.st271{fill-rule:evenodd;clip-rule:evenodd;fill:url(#SVGID_179_);}
	.st272{fill-rule:evenodd;clip-rule:evenodd;fill:url(#SVGID_180_);}
	.st273{fill-rule:evenodd;clip-rule:evenodd;fill:url(#SVGID_181_);}
	.st274{fill-rule:evenodd;clip-rule:evenodd;fill:url(#SVGID_182_);}
	.st275{fill-rule:evenodd;clip-rule:evenodd;fill:url(#SVGID_183_);}
	.st276{fill-rule:evenodd;clip-rule:evenodd;fill:url(#SVGID_184_);}
	.st277{opacity:0.2;fill-rule:evenodd;clip-rule:evenodd;fill:#9B73A0;}
	.st278{fill-rule:evenodd;clip-rule:evenodd;fill:#E79DC9;}
	.st279{fill-rule:evenodd;clip-rule:evenodd;fill:none;}
	.st280{fill:#FBC0A4;}
	.st281{fill:#3E3533;}
	.st282{fill:#F8E8D8;}
	.st283{fill:url(#SVGID_185_);}
	.st284{fill:url(#SVGID_186_);}
	.st285{fill:url(#SVGID_187_);}
	.st286{fill:#330E00;}
	.st287{fill:url(#SVGID_188_);}
	.st288{fill:url(#XMLID_11_);}
	.st289{fill:url(#SVGID_189_);}
	.st290{fill:url(#SVGID_190_);}
	.st291{fill:#F69D7D;}
	.st292{fill:#F84511;}
	.st293{fill:#F6876E;}
	.st294{fill:url(#SVGID_191_);}
	.st295{fill:url(#SVGID_192_);}
	.st296{fill:url(#SVGID_193_);}
	.st297{fill:url(#SVGID_194_);}
	.st298{fill:url(#SVGID_195_);}
	.st299{fill:url(#SVGID_196_);}
	.st300{fill:url(#SVGID_197_);}
	.st301{fill:url(#SVGID_198_);}
	.st302{fill:url(#SVGID_199_);}
	.st303{fill:url(#SVGID_200_);}
	.st304{fill:#FE7087;}
	.st305{fill:#CA4B7C;}
	.st306{fill:#FE9D82;}
</style>
<g>
	<defs>
		<path id="SVGID_83_" d="M1234.1,1097.7H-800.4c-7.8,0-14.1-6.3-14.1-14.1V-175c0-7.8,6.3-14.1,14.1-14.1h2034.4
			c7.8,0,14.1,6.3,14.1,14.1v1258.6C1248.1,1091.4,1241.8,1097.7,1234.1,1097.7z"/>
	</defs>
	<clipPath id="SVGID_1_">
		<use xlink:href="#SVGID_83_"  style="overflow:visible;"/>
	</clipPath>
	<path style="clip-path:url(#SVGID_1_);fill:#FFFFFF;" d="M1234.1,1097.7H-800.4c-7.8,0-14.1-6.3-14.1-14.1V-175
		c0-7.8,6.3-14.1,14.1-14.1h2034.4c7.8,0,14.1,6.3,14.1,14.1v1258.6C1248.1,1091.4,1241.8,1097.7,1234.1,1097.7z"/>
	<linearGradient id="SVGID_2_" gradientUnits="userSpaceOnUse" x1="408.976" y1="1275.0747" x2="408.976" y2="399.0761">
		<stop  offset="0" style="stop-color:#6E376E"/>
		<stop  offset="1" style="stop-color:#CA4B7C"/>
	</linearGradient>
	<path style="clip-path:url(#SVGID_1_);fill:url(#SVGID_2_);" d="M1416.5,681c0,0-53.3,42.7-115.9,54
		c-64.3,11.6-121.7,12.3-215.7-91.6c-80.6-89-148.2-172.8-492.8-233.2c-177.1-31-366.1,4.3-453.8,91C12,626,34.7,769.4,78.2,866.4
		c34.5,76.8,7.6,170.3-162.7,143.8c-170.3-26.5-301.5-47.1-418.2,77.6c-74.4,79.5-95.9,187.3-95.9,187.3h2015.1V681z"/>
</g>
<g>
	<linearGradient id="SVGID_3_" gradientUnits="userSpaceOnUse" x1="741.7155" y1="875.6055" x2="939.3395" y2="875.6055">
		<stop  offset="0" style="stop-color:#CA4B7C"/>
		<stop  offset="1" style="stop-color:#FE7087"/>
	</linearGradient>
	<path style="fill:url(#SVGID_3_);" d="M933,886.9l-73,42.2c-9.4,5.4-26,4.7-36.9-1.5l-72.4-42c-10.9-6.3-12.1-15.9-2.6-21.3
		l73-42.2c9.4-5.4,26-4.7,36.9,1.5l72.4,42C941.2,871.9,942.4,881.5,933,886.9z"/>
	<linearGradient id="SVGID_4_" gradientUnits="userSpaceOnUse" x1="190.2327" y1="547.6139" x2="387.8568" y2="547.6139">
		<stop  offset="0" style="stop-color:#CA4B7C"/>
		<stop  offset="1" style="stop-color:#FE7087"/>
	</linearGradient>
	<path style="fill:url(#SVGID_4_);" d="M381.5,558.9l-73,42.2c-9.4,5.4-26,4.7-36.9-1.5l-72.4-42c-10.9-6.3-12.1-15.9-2.6-21.3
		l73-42.2c9.4-5.4,26-4.7,36.9,1.5l72.4,42C389.7,543.9,390.9,553.5,381.5,558.9z"/>
	<linearGradient id="SVGID_5_" gradientUnits="userSpaceOnUse" x1="123.8865" y1="874.2701" x2="321.5108" y2="874.2701">
		<stop  offset="0" style="stop-color:#CA4B7C"/>
		<stop  offset="1" style="stop-color:#FE7087"/>
	</linearGradient>
	<path class="st14" d="M315.2,885.6l-73,42.2c-9.4,5.4-26,4.7-36.9-1.5l-72.4-42c-10.9-6.3-12.1-15.9-2.6-21.3l73-42.2
		c9.4-5.4,26-4.7,36.9,1.5l72.4,42C323.4,870.6,324.6,880.2,315.2,885.6z"/>
	<linearGradient id="SVGID_6_" gradientUnits="userSpaceOnUse" x1="246.4008" y1="731.6391" x2="959.89" y2="731.6391">
		<stop  offset="0" style="stop-color:#CA4B7C"/>
		<stop  offset="1" style="stop-color:#FE7087"/>
	</linearGradient>
	<path style="fill:url(#SVGID_6_);" d="M950.9,612l-72.4-42c-10.9-6.3-27.5-7-36.9-1.5l-73,42.2c-1.3,0.8-2.4,1.6-3.3,2.5
		c-54.8-31-132.4-50.3-218.6-50.3c-165.8,0-300.2,71.5-300.2,159.7c0,24.8,10.6,48.3,29.6,69.2c-38.2,19-22.4,32.5-8.3,37.9
		c15.2,5.8,35,13.5,50.2,27.5c12.4,11.4,34.1,30.6,42.7,38.8c8.6,8.2,29.3,4.8,51.6-9.2c9-5.6,15.4-11.5,19.8-16.6
		c35.3,7.8,74,12.1,114.6,12.1c165.8,0,300.2-71.5,300.2-159.7c0-20.9-7.6-40.9-21.4-59.2l18.1,10.5c10.9,6.3,27.5,7,36.9,1.5
		l73-42.2C963,627.9,961.8,618.3,950.9,612z"/>
	<g>
		<g>
			<path class="st116" d="M708.5,126.2c0,0-11.3,5.8-17.3,13.6c-5.9,7.8-9.8,20.8-7.2,28.7c-7.1,20.1-10.2,25-9.3,38.6
				c-12.5-8.6-35.2-4.1-35.2-4.1s1.4,5.7,0,10.3c-2.1,7-5.9,9.3-5.9,9.3c3.8,3.6,11.9,12.8,26,14.2c14.2,1.5,25.6,3.4,28.9,0.2
				c6.9-6.8,40.9-97.2,40.9-97.2L708.5,126.2z"/>
			<path class="st117" d="M689.6,250.9c0,0-18.1,46.3-21,65c-2.8,18.7-8.5,47.1-11.8,70.7c-3.4,23.6-3.3,46.6-1.8,69.6
				c0.6,9.1,4,33.1,2.2,46c2,8.4,21.8,9.5,24.1-0.3c1.5-6.1,16.7-60,18.2-76.9c1.5-17-2.5-29.1-2.5-29.1s24.7-52.9,33.4-73.7
				c8.7-20.8,2.8-46.6,2.8-46.6L689.6,250.9z"/>
			<path class="st117" d="M681,499.7c0,0,0.7,5.6,2.4,11.4c1.7,5.8-0.4,14-0.4,14s-1.3,3.6-6.7,4.6c-5,1-9.1-0.2-9.1-0.2
				s-5,6-11.4,10.6c-6.5,4.6-20.7,8.1-24.6,7.5c-6.3-1-9.6-5.8-9.1-9c0.5-3.1,7.9-11.9,13.9-15.7c3.9-2.5,12.9-10.8,15.6-13.6
				c4.4-4.8,7.7-10.1,7.7-10.1L681,499.7z"/>
			<path class="st117" d="M774.2,547.2c0,0,3.3,12.4,2.9,19.6c-0.4,7.2-2.1,8.9-4.3,11.3c-2.2,2.4-4.7,1.4-4.7,1.4s-1,14.8-8,20.8
				c-7,6-19.8,6.6-25.6,4.4c-5.9-2.2-2-12.8,3.7-23.2c5.7-10.4,13-21.6,14.9-31C767,548.5,774.2,547.2,774.2,547.2z"/>
			<path class="st118" d="M754.6,270c0,0,8.9,12.6,16,34.7c5,15.5,4.2,52.8,4.2,52.8s1.3,36.7-1.1,49.4c-2.4,12.7-2.2,15.3-2.2,15.3
				s10.2,30.4,8.6,66.4c-1.6,36-4.5,61.8-4.5,61.8s-2,6.8-11.2,7.7c-8.4,0.9-14.6-5-14.6-5s-15.4-76.2-21.2-93.5
				c-5.7-17.4-7.8-37.4-7.8-37.4l-11.7-85.5c0,0-23.1-15.1-11.3-53.1C705.3,259.7,754.6,270,754.6,270z"/>
			<linearGradient id="SVGID_7_" gradientUnits="userSpaceOnUse" x1="681.3669" y1="218.0741" x2="788.2884" y2="218.0741">
				<stop  offset="0" style="stop-color:#CA4B7C"/>
				<stop  offset="1" style="stop-color:#FE7087"/>
			</linearGradient>
			<path style="fill:url(#SVGID_7_);" d="M784.6,172.8c-11.5-22.8-45.9-39.2-70.6-35.6c-11.9,9.4-17.3,15.8-21.6,27.1
				c-3.9,10.2-5.5,22.4-4.3,33.1c3.7,32.2-3.9,63.4-6.7,75.7c13.1,13.7,30.6,22.6,49.8,26c10.4,1.8,18.1-2.1,28.2-5.9
				c1.5-0.6,2.2-1.6,2.4-3.1c3.5-26,12.4-47.8,21.4-72.1C788,205,791.1,185.8,784.6,172.8z"/>
			<path class="st120" d="M721.1,123c0,0,2.4,15.7-3.4,21.1c-5.7,5.4-5.8,16.6,5.7,20.3c13.9,4.5,23.8-5.5,32.5-12.4
				c-3.8-8-5.6-7.9-5.6-30.2C750.3,103.7,721.1,123,721.1,123z"/>
			<path class="st116" d="M798.2,188.8c-0.9-19.7-22.3-28.1-22.3-28.1s-15.4,12.5-13.1,54.4c0.8,3.9,6.8,7.7,8.6,11.6
				c-0.8,16.2,2.9,24.1,9,32.1c-5.4,3.6-18.2,24.1-26,34.3c11.4,3.3,11.2,16.1,11.2,16.1s29.3-13.2,44.2-31.4
				c6.1-7.4,4-14.5,6.3-22.6C820.6,240.1,799,206.3,798.2,188.8z"/>
			<path class="st116" d="M750.8,136.7c0,0-2.7,9.5-9.9,14.9c-8.7,6.5-25.1,7.6-25.1,12.1c4.7,0,5.7,0.3,5.7,3.7
				c0,6.4,1.9,7.9,1.9,7.9s11.8-3.4,20.3-6.9c10.7-4.4,15.5-19.2,15.5-19.2S757.2,136.1,750.8,136.7z"/>
			<path class="st116" d="M715.9,137.2c0,0-6.9,7.5-9.9,11c-3,3.5-1.2,9.8-2.7,12.7c-1.5,2.9-2.1,4.8-2.1,4.8s6.2-1.2,7.4-4.8
				c1.2-3.6,7.4,2.9,7.4,2.9l4.4-3.6c0,0-6.6-4.2-4.4-8.7c2.2-4.5,5.9-10.4,5.9-10.4L715.9,137.2z"/>
			<g>
				<path class="st121" d="M746.3,84.4c-8.6-9.6-31.4-13.5-39.6,0.5c-6.1,10.5-6.4,29.3-4.7,37.9c3.5,18.1,18.4,28.9,35.5,15
					C753.8,124.5,761.3,100.9,746.3,84.4z"/>
				<path class="st117" d="M765.1,96.3c-1.4-6.1-9.4-14.2-16.8-12.7c1.4-6.7-1.7-14.7-8.9-16.8c-14.9-4.4-28.5,4.7-42.9,8
					c-4.1,0.9-5.1,3.1,1.9,7.5c-3.9,0.3-7.5,2.5-7,6.9c0.4,3.1,2.5,4.5,5.1,5.2c-4,5.8,1.7,10.6,7.1,12.8c9.1,3.6,21.4,3.5,29.6-2.4
					c1.9,8.4,9.4,19.2,17.1,21.4C758,120.6,767.2,105.2,765.1,96.3z"/>
				<path class="st121" d="M737.4,116.7c0,0,5-7.6,9.4-1.8c4.4,5.8-4.7,11.3-4.7,11.3L737.4,116.7z"/>
			</g>
			<path class="st121" d="M754.2,293.4c-6.6,2.2-14.5,16.4-9.4,26.6c5.1,10.2,14,10.9,24.5,8.6c10.6-2.3,4.7-6.5,1.9-7.4
				c-3.6-1.2-7.5,0-7.5,0s3.6-8.8,3.6-14.4C767.3,299.5,761.6,290.9,754.2,293.4z"/>
			<path class="st121" d="M641.5,205.6c0,0-14.6-19-21.3-28.6c-4.6-6.6-8.8-6.4-8.8-3.2c0,1.6,1.1,2.8,3.2,6.2
				c2.2,3.4,5.6,8.6,5.6,8.6s-4.3,9.9-7.3,15.1c-3,5.2,3.4,7.7,6.5,10.3c3,2.6,10.7,7.2,16.7,8.5C642.2,224,646.7,215.5,641.5,205.6
				z"/>
			<linearGradient id="SVGID_8_" gradientUnits="userSpaceOnUse" x1="708.0119" y1="279.871" x2="748.9289" y2="279.871">
				<stop  offset="0" style="stop-color:#FE7087"/>
				<stop  offset="1" style="stop-color:#FE9D82"/>
			</linearGradient>
			<path style="fill:url(#SVGID_8_);" d="M708,275c1.9,0.1,10.9,7.8,20.8,9.2c10.9,1.6,16-1,20.1-2.9c-2.6-0.1-9.6,1.1-19.6-1.5
				C719.3,277.1,708,275,708,275z"/>
		</g>
		<g>
			<path class="st123" d="M943.4,585.2c-11.2-7.6-23.1-14.5-34.4-21.6c-6.6-4.1-13.6-10.3-20.9-12.8c-3-1-6.6-1-8.4,2.1
				c-2.2,3.7,0.4,5.7,3.3,7.4c8,4.6,16.2,9,24.2,13.6c12,6.9,23.9,14.1,35.7,21.5L943.4,585.2z"/>
			<path class="st123" d="M870.6,560.7c-1.6-3.2-5.2-3.4-8.2-2.6c-7.5,2-14.9,7.7-21.7,11.5c-14.8,8.1-30.5,15.7-44.7,25l-0.2,9.5
				c15.2-8.3,30.5-16.4,46-24.1c8.3-4.1,16.7-8,25-12.1C869.9,566.4,872.6,564.5,870.6,560.7z"/>
			<path class="st123" d="M883.3,480.8c0-12.5,2.5-65,4.4-78.3c1.8-12.6,4.1-24.9,6.3-37.2c1.3-7.5,10.9-46.3-1.1-40.4
				c-4.6,2.3-7.4,9.9-9.2,17c-2.7,10.6-4.5,22.2-5.9,33.6c-3.1,24.8-5.2,78.1-2.9,103.3C874.9,481,883.3,480.9,883.3,480.8z"/>
			<path class="st124" d="M950.9,443.6c1.3-9.5,3.6-18.8,5.4-28.2c2.2-11,4.8-21.6,9.2-32c0.6-1.5,1.4-3,2.1-4.5
				c-4.1-2.8-36.7-22.9-50.8-30.2c-18.4-9.6-22.8-11.8-24.3-8.8c-8.5,16.5-13.2,44.2-13.5,62.7c0,2,0,5,10.4,10.2
				c20.8,10.3,57.3,34,61,35.5C950.6,447.4,950.8,444.5,950.9,443.6z"/>
			<path class="st151" d="M962.7,383.3c-0.7-6-70.8-44.4-76.4-43.5c-9.3,1.6-19.5,47.1-10.2,56.8c8.7,9.1,60.1,38.9,73.4,43.8
				c1,0.4,2.2-0.4,2.4-1.4c2.6-10.1,4.9-20.2,6.9-30.4C960.2,401,963.6,391.1,962.7,383.3z"/>
			<path class="st152" d="M954.9,377.2c-6.6-6.4-13,17-13.8,20.2c-2.5,10.9-8.6,34.2,4,41.8c2.4,1.4,4.3,1.3,5.9-1.2
				c2.1-3.2,1.8-8.8,2.4-12.6c0.8-5.1,1.6-10.2,2.5-15.2c1.3-8.3,4.3-17.7,4.1-26.2C959.9,380.4,958.1,377.7,954.9,377.2z"/>
			<path class="st116" d="M943.3,522.3h8.3c0.1-0.1,1.1-4,1.1-4.2c0.1-11,4.7-61,6.6-74.4c1.8-12.6,4.1-24.9,6.3-37.2
				c1.3-7.5,10.9-46.3-1.1-40.4c-4.6,2.3-7.4,9.9-9.2,17c-2.7,10.6-4.5,22.2-5.9,33.6c-3.1,24.8-8.3,71.7-6,96.8
				C943.4,515.8,943.3,520.7,943.3,522.3z"/>
			<path class="st116" d="M955.2,586.7c-0.9-24.5-2.8-48.7-5.7-72.7c-0.1-1-0.8-1.4-1.4-1c-1.9,1.4-3.8,2.8-5.7,4.1
				c-0.2,0.2-0.4,0.4-0.5,0.7c-0.2-0.9-1.2-0.9-1.3,0.3c-1.7,25.5-2.1,51.2-3,76.8c-0.4,11.6-4.9,30.6,10.4,30.5
				C959.5,625.4,955.7,597.9,955.2,586.7z"/>
			<path class="st116" d="M787.1,594.4c0.9-24.5,2.8-48.7,5.7-72.7c0.1-1,0.8-1.4,1.4-1c1.9,1.4,3.8,2.8,5.7,4.1
				c0.2,0.2,0.4,0.4,0.5,0.7c0.2-0.9,1.2-0.9,1.3,0.3c1.7,25.5,2.1,51.2,3,76.8c0.4,11.6,4.9,30.6-10.4,30.5
				C782.8,633.1,786.7,605.7,787.1,594.4z"/>
			<path class="st123" d="M945.9,597.4c-1.6-3.2-5.2-3.4-8.2-2.6c-7.5,2-14.9,7.7-21.7,11.5c-14.8,8.1-30.5,15.7-44.7,25l-0.2,9.5
				c15.2-8.3,30.5-16.4,46-24.1c8.3-4.1,16.7-8,25-12.1C945.1,603.1,947.8,601.2,945.9,597.4z"/>
			<path class="st123" d="M861.1,630c-11.2-7.6-23.1-14.5-34.4-21.6c-6.6-4.1-13.6-10.3-20.9-12.8c-3-1-6.6-1-8.4,2.1
				c-2.2,3.6,0.4,5.7,3.3,7.4c8,4.6,16.2,9,24.2,13.6c12,6.9,23.9,14.1,35.7,21.5L861.1,630z"/>
			<path class="st116" d="M871.3,564.1l-9.7-8.1c-1.7,25.4-4.2,60.2-5.1,85.7c-0.4,11.6-4.9,30.6,10.4,30.5
				c11.4-0.1,7.5-27.6,7.1-38.8C873.2,610.3,873.9,586.6,871.3,564.1z"/>
			<g>
				<path class="st123" d="M953.4,512.1H945L892,481.5c-7.1-4.1-19.6-3.6-27.7,1.2l-61.9,35.5l-11.7,1.1l0.1,9.8
					c-0.1,0.4,0,0.8,0,1.2l0,1l0,0c0.4,2.1,1.9,4.2,4.6,5.7l56.7,32.7c7.1,4.1,19.6,3.6,27.7-1.1l66.8-38.3c4.8-2.8,7-6.3,6.7-9.7
					l0.1,0C953.4,520.5,953.1,513.2,953.4,512.1z"/>
				<path class="st124" d="M852.1,559l-56.7-32.7c-7.1-4.1-6.2-11.3,2-16l66.8-38.1c8.2-4.7,20.7-5.2,27.7-1.2l56.7,32.7
					c7.1,4.1,6.2,11.3-2,16l-66.8,38.1C871.7,562.5,859.2,563,852.1,559z"/>
			</g>
			<g>
				<path class="st151" d="M831.7,529.6c13.2,7.1,28.1,18.7,43.8,13.6c13.7-4.4,26.7-14.1,38.8-21.6c8.4-5.2,16.4-10.5,22.7-17.7
					c-4.2-6-11.9-11.1-16.5-14.4c-13-9.3-47.3-26.4-51.9-26c-2.1,0.2-4.2,0.6-6.3,1.1c-8.5,2.2-17.3,6.8-24.7,10.2
					c-10.8,4.9-21.3,10.8-30.4,18.4c-2.9,2.4-6.7,5.2-8.8,8.6C798.9,516.1,821.2,523.9,831.7,529.6z"/>
				<path class="st151" d="M798.7,521.3c8.2,6,23.2,12.3,30.6,16.8c7.9,4.8,23.6,15.9,32.3,17.9c5.4,1.3,15.3-1.3,21.8-4.7
					c9.9-5.1,19.3-11,29-16.5c7.8-4.5,19-8.5,24.8-15.8c4.2-5.2,3.1-10.4-0.2-15.1c-6.2,7.2-14.3,12.5-22.7,17.7
					c-12.1,7.5-25.1,17.2-38.8,21.6c-15.6,5-30.6-6.5-43.8-13.6c-10.5-5.7-32.8-13.5-33.4-27.7c-0.2,0.4-0.5,0.8-0.6,1.2
					C795.7,507.4,794.4,518.1,798.7,521.3z"/>
			</g>
			<path class="st153" d="M866.3,508.3c-2-7.8,1.2-14,2.2-21.4c3.1-22.6-37-2.8-41.3,0.6c-4.7,3.8-15.9,11.1-15.5,18.3
				c0.4,7.6,13.3,13.2,18.8,16.1c8.4,4.4,20.5,11,30.1,10.9c5.8-0.1,10.8-5.4,10.7-12C871.1,516.2,867.4,512.5,866.3,508.3z"/>
			<path class="st153" d="M906.7,351.4c-7.4-4.3-18.7-10.9-22.6-8.3c-3.2,2.1,3.6,5.2,6.7,7.3c6,4,12.3,7.6,18.7,11
				c11.7,6.1,20.9,10.8,33.2,15.4c3.7,1.4,6.3-1.4,2.9-3.5C936.7,367.8,918.5,358.4,906.7,351.4z"/>
		</g>
		<g>
			<path class="st123" d="M216.7,510c11.2-7.6,23.1-14.5,34.4-21.6c6.6-4.1,13.6-10.3,20.9-12.8c3-1,6.6-1,8.4,2.1
				c2.2,3.6-0.4,5.7-3.3,7.4c-8,4.6-16.2,9-24.2,13.6c-12,6.9-23.9,14.1-35.7,21.5L216.7,510z"/>
			<path class="st123" d="M289.5,485.6c1.6-3.2,5.2-3.4,8.2-2.6c7.5,2,14.9,7.7,21.7,11.5c14.8,8.1,30.5,15.7,44.7,25l0.2,9.5
				c-15.2-8.3-30.5-16.4-46-24.1c-8.3-4.1-16.7-8-25-12.1C290.2,491.2,287.6,489.3,289.5,485.6z"/>
			<path class="st123" d="M276.8,405.6c0-12.5-2.5-65-4.4-78.3c-1.8-12.6-4.1-24.9-6.3-37.2c-1.3-7.5-10.9-46.3,1.1-40.4
				c4.6,2.3,7.4,9.9,9.2,17c2.7,10.6,4.5,22.2,5.9,33.6c3.1,24.8,5.2,78.1,2.9,103.3C285.2,405.8,276.8,405.8,276.8,405.6z"/>
			<path class="st124" d="M209.2,368.4c-1.3-9.5-3.6-18.8-5.4-28.2c-2.2-11-4.8-21.6-9.2-32c-0.6-1.5-1.4-3-2.1-4.5
				c4.1-2.8,36.7-22.9,50.8-30.2c18.4-9.6,22.8-11.8,24.3-8.8c8.5,16.5,13.2,44.2,13.5,62.7c0,2,0,5-10.4,10.2
				c-20.8,10.3-57.3,34-61,35.5C209.6,372.2,209.3,369.3,209.2,368.4z"/>
			<path class="st151" d="M197.4,308.1c0.7-6,70.8-44.4,76.4-43.5c9.3,1.6,19.5,47.1,10.2,56.8c-8.7,9.1-60.1,38.9-73.4,43.8
				c-1,0.4-2.2-0.4-2.4-1.4c-2.6-10.1-4.9-20.2-6.9-30.4C199.9,325.8,196.5,315.9,197.4,308.1z"/>
			<path class="st152" d="M205.3,302c6.6-6.4,13,17,13.8,20.2c2.5,10.9,8.6,34.2-4,41.8c-2.4,1.4-4.3,1.3-5.9-1.2
				c-2.1-3.2-1.8-8.8-2.4-12.6c-0.8-5.1-1.6-10.2-2.5-15.2c-1.3-8.3-4.3-17.7-4.1-26.2C200.3,305.3,202.1,302.5,205.3,302z"/>
			<path class="st116" d="M216.8,447.2h-8.3c-0.1-0.1-1.1-4-1.1-4.2c-0.1-11-4.7-61-6.6-74.4c-1.8-12.6-4.1-24.9-6.3-37.2
				c-1.3-7.5-10.9-46.3,1.1-40.4c4.6,2.3,7.4,9.9,9.2,17c2.7,10.6,4.5,22.2,5.9,33.6c3.1,24.8,8.3,71.7,6,96.8
				C216.8,440.6,216.9,445.6,216.8,447.2z"/>
			<path class="st116" d="M204.9,511.5c0.9-24.5,2.8-48.7,5.7-72.7c0.1-1,0.8-1.4,1.4-1c1.9,1.4,3.8,2.8,5.7,4.1
				c0.2,0.2,0.4,0.4,0.5,0.7c0.2-0.9,1.2-0.9,1.3,0.3c1.7,25.5,2.1,51.2,3,76.8c0.4,11.6,4.9,30.6-10.4,30.5
				C200.6,550.2,204.5,522.8,204.9,511.5z"/>
			<path class="st116" d="M373,519.3c-0.9-24.5-2.8-48.7-5.7-72.7c-0.1-1-0.8-1.4-1.4-1c-1.9,1.4-3.8,2.8-5.7,4.1
				c-0.2,0.2-0.4,0.4-0.5,0.7c-0.2-0.9-1.2-0.9-1.3,0.3c-1.7,25.5-2.1,51.2-3,76.8c-0.4,11.6-4.9,30.6,10.4,30.5
				C377.3,558,373.4,530.5,373,519.3z"/>
			<path class="st123" d="M214.3,522.3c1.6-3.2,5.2-3.4,8.2-2.6c7.5,2,14.9,7.7,21.7,11.5c14.8,8.1,30.5,15.7,44.7,25l0.2,9.5
				c-15.2-8.3-30.5-16.4-46-24.1c-8.3-4.1-16.7-8-25-12.1C215,527.9,212.3,526,214.3,522.3z"/>
			<path class="st123" d="M299,554.8c11.2-7.6,23.1-14.5,34.4-21.6c6.6-4.1,13.6-10.3,20.9-12.8c3-1,6.6-1,8.4,2.1
				c2.2,3.6-0.4,5.7-3.3,7.4c-8,4.6-16.2,9-24.2,13.6c-12,6.9-23.9,14.1-35.7,21.5L299,554.8z"/>
			<path class="st116" d="M288.9,488.9l9.7-8.1c1.7,25.4,4.2,60.2,5.1,85.7c0.4,11.6,4.9,30.6-10.4,30.5
				c-11.4-0.1-7.5-27.6-7.1-38.8C286.9,535.2,286.2,511.5,288.9,488.9z"/>
			<g>
				<path class="st123" d="M206.7,436.9h8.4l53.1-30.6c7.1-4.1,19.6-3.6,27.7,1.2l61.9,35.5l11.7,1.1l-0.1,9.8c0.1,0.4,0,0.8,0,1.2
					l0,1l0,0c-0.4,2.1-1.9,4.2-4.6,5.7L308,494.5c-7.1,4.1-19.6,3.6-27.7-1.1L213.5,455c-4.8-2.8-7-6.3-6.7-9.7l-0.1,0
					C206.7,445.3,207,438,206.7,436.9z"/>
				<path class="st124" d="M308,483.8l56.7-32.7c7.1-4.1,6.2-11.3-2-16L295.9,397c-8.2-4.7-20.7-5.2-27.7-1.2l-56.7,32.7
					c-7.1,4.1-6.2,11.3,2,16l66.8,38.1C288.4,487.4,300.9,487.9,308,483.8z"/>
			</g>
			<g>
				<path class="st151" d="M328.4,454.4c-13.2,7.1-28.1,18.7-43.8,13.6c-13.7-4.4-26.7-14.1-38.8-21.6c-8.4-5.2-16.4-10.5-22.7-17.7
					c4.2-6,11.9-11.1,16.5-14.4c13-9.3,47.3-26.4,51.9-26c2.1,0.2,4.2,0.6,6.3,1.1c8.5,2.2,17.3,6.8,24.7,10.2
					c10.8,4.9,21.3,10.8,30.4,18.4c2.9,2.4,6.7,5.2,8.8,8.6C361.2,440.9,338.9,448.7,328.4,454.4z"/>
				<path class="st151" d="M361.4,446.1c-8.2,6-23.2,12.3-30.6,16.8c-7.9,4.8-23.6,15.9-32.3,17.9c-5.4,1.3-15.3-1.3-21.8-4.7
					c-9.9-5.1-19.3-11-29-16.5c-7.8-4.5-19-8.5-24.8-15.8c-4.2-5.2-3.1-10.4,0.2-15.1c6.2,7.2,14.3,12.5,22.7,17.7
					c12.1,7.5,25.1,17.2,38.8,21.6c15.6,5,30.6-6.5,43.8-13.6c10.5-5.7,32.8-13.5,33.4-27.7c0.2,0.4,0.5,0.8,0.6,1.2
					C364.4,432.3,365.7,443,361.4,446.1z"/>
			</g>
			<path class="st153" d="M293.8,433.1c2-7.8-1.2-14-2.2-21.4c-3.1-22.6,37-2.8,41.3,0.6c4.7,3.8,15.9,11.1,15.5,18.3
				c-0.4,7.6-13.3,13.2-18.8,16.1c-8.4,4.4-20.5,11-30.1,10.9c-5.8-0.1-10.8-5.4-10.7-12C289,441,292.7,437.4,293.8,433.1z"/>
			<path class="st153" d="M253.4,276.3c7.4-4.3,18.7-10.9,22.6-8.3c3.2,2.1-3.6,5.2-6.7,7.3c-6,4-12.3,7.6-18.7,11
				c-11.7,6.1-20.9,10.8-33.2,15.4c-3.7,1.4-6.3-1.4-2.9-3.5C223.5,292.6,241.6,283.2,253.4,276.3z"/>
		</g>
		<g>
			<path class="st128" d="M837.8,334.1c0,0-13,11.2-21,27.8c-4.7,9.8-15.2,23.6-21.8,32.3c-3.6-3.9-21.2-22.6-29.4-32.3
				c-7.5-8.9-12.6-7.4-19.9-8.9c-7.5-1.5-6.9-8.3-14.6-8.7c-7.7-0.4-6.4,3.3,0,11.8c4,5.2,9.4,10,12.9,10.9c7.3,2,14.3,1.6,16.4,8.2
				c1.3,4.1,14,32.5,20.4,36.9c8.5,5.8,8.8,7.7,15.3,7.3c4.6-0.3,8.5-5,10.5-7.3c6.2-7.1,13.8-14.2,19.3-22.2
				c7.6-10.8,23.3-39.7,23.9-40.8C850.3,348.1,837.8,334.1,837.8,334.1z"/>
			<path class="st129" d="M839.3,331.6c0,0-7.9,1.9-15.2,10.2c-7.3,8.3-21.6,33.5-21.6,33.5s6.7,10.2,9.9,12.4
				c3.2,2.2,11.4,6.9,11.4,6.9l27.8-41.6L839.3,331.6z"/>
			<path class="st130" d="M768.8,602.1c-3.9,4.3-8.2,9-12.2,13.2c-5.4,5.7-11.7,11.7-17.5,16.8c-7.1,6.3-7.7,14,4,13.4
				c18.8-1.1,23.2-9,32-15.6c1.2-0.9,3.2,1.3,8-0.6c6.1-2.4,6.8-3.4,6.8-9.4c0-3.8-0.6-11.7-2.4-15.7c0.1-0.1,0.1-0.1,0.2-0.2
				C788.7,603,774,596.5,768.8,602.1z"/>
			<path class="st130" d="M805.2,642.8c-3.9,4.3-8.2,9-12.2,13.2c-5.4,5.7-11.7,11.7-17.5,16.8c-7.1,6.3-7.7,14,4,13.4
				c18.8-1.1,23.2-9,32-15.6c1.2-0.9,3.2,1.3,8-0.6c6.1-2.4,6.8-3.4,6.8-9.4c0-3.8-0.6-11.7-2.4-15.7c0.1-0.1,0.1-0.1,0.2-0.2
				C825,643.7,810.3,637.2,805.2,642.8z"/>
			<path class="st117" d="M884.3,460.8c-1.6-3.3-37.7-15.3-36.7-14.9c-28.9,10.9-64.1,23-88.4,43.9c-4.5,0.7-9,2.2-8.8,10.5
				c0.2,6.4,3.9,17.5,5,23.9c3.7,22.5,8.4,58.9,10.1,81.6c3.8,6.8,15.1,6.8,22.3,1.7c2.2-16.3,3-38.1,5.8-51.1
				c3.7-17.2-2.3-25.6-7.6-34.8c14.2,0.6,45-15.4,58.8-19.3c16.7-4.7,21.3-4.8,33.8-17.5C887.1,476,890.1,473,884.3,460.8z"/>
			<path class="st117" d="M882.9,463.1c-8.9,0.2-18.9,0.9-27.6-1.8c-0.9,1.3-1.8,2.5-2.5,4c-3.2,6.5-6.2,11.4-3.7,18.8
				c-4.3,6.2-23.9,30.2-27.5,37.6c-4.5,4.5-6.9,7.1-6.4,17.4c0.6,11.7-0.2,17.1-1.5,30.1c-2.6,25-7,46.2-8.8,71.3
				c5.8,9,13.6,9.3,21.4,2.3c7.5-23.3,22.2-39.6,23.7-60c1-13.5,1.2-23.7-4.8-32.2c24.8-13.6,56.5-21.2,70.1-47.1
				c8.8-16.8,4.6-29.2-4.5-46.4C902.6,462.1,893,462.9,882.9,463.1z"/>
			<linearGradient id="SVGID_9_" gradientUnits="userSpaceOnUse" x1="812.5029" y1="402.8766" x2="914.081" y2="402.8766">
				<stop  offset="0" style="stop-color:#6E376E"/>
				<stop  offset="1" style="stop-color:#CA4B7C"/>
			</linearGradient>
			<path style="fill:url(#SVGID_9_);" d="M834.5,342.9c10.1-12.8,5.9-9.1,18.2-2.1c15,8.6,27.1,14,33.7,19.5
				c11.1,9.3,17.6,28.4,19.5,52.4c0.3,3.6,2.5,16.1,3.8,19.7c4.6,13.1,2.4,15.3-0.9,18.3c4.9,0,7.2,6.9,3.6,9.4
				c-22.9,16.2-66.9,16.4-73.2-10.5c-0.4-1.7,1.3-6.9,2.4-8.2c-2.8-1.6-4.2-7.1-4.2-10.7c-5.1-2.8-6.3-7.1-7.4-14.4
				c-10.3-2.3-21.1-13.9-16.2-25.8c4-9.7,5.4-18.4,8.3-25.1C828.7,350.2,831.6,346.6,834.5,342.9z"/>
			<path class="st128" d="M838.8,350c2.8-0.5,10.2-4.2,8-17.9c-0.6-3.8,16.6-14.1,16.6-13.6c-0.2,12.4,2.8,25.9,8.5,32.3
				c-8.2,8.6-15.9,28.1-30,21.1C834.9,368.4,833.2,365.8,838.8,350z"/>
			<path class="st129" d="M834.2,341c0,0-5.5,15.1-7.4,20.1c-1.9,5-5.5,14.3-5.5,14.3s5.3-2.4,8-0.9c2.7,1.4,6.4,5.6,8.7,6.3
				c2.3,0.7,5.3,0.2,5.3,0.2l1.8-6.3c0,0-4.8-1.5-4.7-9.6c0.1-8.1,1.4-19.1,1.4-19.1L834.2,341z"/>
			<path class="st129" d="M865.5,338.1c0,0-0.1,5.2-4.5,12.6c-4.3,7.4-14.3,16-18.9,19.7c-6.7,5.4-2.8,15.2-2.8,15.2
				s2.6-5.7,5.7-4.7c3.1,1,4.7,3.9,8.3,7.2c2.8-4.3,4.2-8,10.5-14.1c5-4.9,14.3-15.6,12-24.6C873.5,340.5,865.5,338.1,865.5,338.1z"
				/>
			<path class="st117" d="M824.6,320.5c-0.1-0.3-0.3-0.5-0.5-0.6c0.1-0.1,0.2-0.2,0.3-0.4c0.1-0.1,0-0.4-0.2-0.3
				c-0.4,0.1-0.8,0.3-1.2,0.4c-0.3,0-0.6,0.1-0.8,0.3c-7,2.8-13.7,11.7-11,19.2c1.2,3.4,4.3,4.7,7.8,4.2c0,0,0.1,0,0.1,0
				c-2.4,7.9,0.6,17.5,10.1,13.8c6.4-2.5,7.9-10.5,7.7-16.5C836.6,331.9,828.4,327.8,824.6,320.5z"/>
			<path class="st121" d="M826.5,301.8c11.7-2.6,17.8-3.1,28.2,1.1c5.8,1.6,11.3,4.2,16.6,7.6c0.4,0.3,0.7,0.8,0.6,1.3
				c-2.7,15.4-7.8,31.7-25.1,38.5c-14.2,5.6-22.2-10-24.6-20.4C819.3,317.8,818.4,303.6,826.5,301.8z"/>
			<path class="st121" d="M853.8,326c0,0,2.8-9.4,8.9-4.6c6.2,4.9-2.6,14.4-2.6,14.4L853.8,326z"/>
			<linearGradient id="SVGID_10_" gradientUnits="userSpaceOnUse" x1="866.7369" y1="442.5149" x2="902.1754" y2="442.5149">
				<stop  offset="0" style="stop-color:#CA4B7C"/>
				<stop  offset="1" style="stop-color:#FE7087"/>
			</linearGradient>
			<path style="fill:url(#SVGID_10_);" d="M866.7,443.5c0,0,13.9-4.5,21.4-3.6c7.5,0.9,14,3.6,14,3.6s-10.6,1.5-17.7,1.8
				C877.4,445.6,866.7,443.5,866.7,443.5z"/>
			<linearGradient id="SVGID_11_" gradientUnits="userSpaceOnUse" x1="863.1231" y1="454.9563" x2="899.8245" y2="454.9563">
				<stop  offset="0" style="stop-color:#CA4B7C"/>
				<stop  offset="1" style="stop-color:#FE7087"/>
			</linearGradient>
			<path style="fill:url(#SVGID_11_);" d="M863.1,454.4c0.9,0,16.5-0.5,25-1.1c8.4-0.6,11.7-1,11.7-1s-6.9,5.2-16.7,5.2
				C873.4,457.6,863.1,454.4,863.1,454.4z"/>
			<path class="st128" d="M752.3,358.2c0,0-2.8-4.8-5.4-10.4c-1.7-3.8-1-7.3,1-7.8c2.1-0.5,2.1,4.2,4.3,6.3
				c2.2,2.1,10.9,9.4,9.5,13.2C760.5,363.3,752.3,358.2,752.3,358.2z"/>
			<path class="st121" d="M905.4,404.1c-3.6-9.7-24.3,2-24.3,2s-0.1,8.8,0,17.3c0.1,8.5,0.8,30,0.8,30s-23.3,35.5-25.9,39
				c-0.9,1.2-6.3-0.1-9.9,2.3c-4.6,3.1-4.9,5.5-7.4,7c-4.9,2.9-5.1,5.8-1.3,5.7c3.6-0.2,7-4.2,8.2-4.1c1.7,0.1,0.6,3.7-1.6,8.5
				c-2.1,4.4-8.2,11.2-5.2,15.4c3,4.3,10,1.5,16.8-5.2c5.6-5.6,6.2-13.7,9.8-21.3c1.9-4.1,27-30.1,31.8-34c3.6-2.9,4.1-4.2,4.7-6.1
				c1.4-4.6,2-6.9,2-12.8C903.8,438.4,909,413.8,905.4,404.1z"/>
			<g>
				<path class="st129" d="M887.9,368.2c-7.5,2.7-11.1,13.6-11.5,27.2c-0.4,13.6-0.2,32.9-0.2,32.9s7.8,4.8,18.1,4.8
					c10.8,0,16.2-5.8,16.2-5.8s-1.7-37.5-5.6-48C901,368.8,894.3,365.8,887.9,368.2z"/>
			</g>
			<path class="st117" d="M891.2,321.7c-1-3.9-4.4-9-8.6-11.6c1.3-2.7,0.9-5.8-0.6-8.5c-2.2-3.9-9-9.8-14.6-9.9
				c1.4-2.7,2.3-5.7,1.1-8.7c-1.3-3.3-4.7-4.9-8-5.5c-5.1-0.9-10.7-0.1-13.8,3.7c-1.8-3.7-6.9-6.2-10.7-4.4
				c-1.7,0.8-3.1,2.6-3.4,4.5c-2.7-2.2-6.6-2.8-9,0.3c-1.4,1.7-1.1,3.5-0.1,5.1c-5.6-0.6-12.3,1-13.5,6c-0.7,2.9,0.5,5.3,2.6,7
				c-4.2,3.1-6.6,8.2-2.5,12.8c4.9,5.4,15.8,4.4,21.4-0.5c1.7,6.5,6.7,12.4,13.5,13.1c2.6,0.3,5.6-0.9,7.9-2.8
				c1.3,2.1,2.9,4.2,4.8,5.9c-2.3,3.5-3.3,8-2.9,12.1c0.3,2.8,2,6.7,4.6,8.4c-5.3,5-8.1,11.9-5.9,19.3c1.7,5.9,8.8,10.5,18.2,4.5
				c4.5-2.9,8.2-13,6.6-17c3.6,1,7.9-1.3,8.9-5.4c0.8-3.3-0.3-7.5-2.5-10.8C890.6,336.6,892.6,327.3,891.2,321.7z"/>
		</g>
		<g>
			<path class="st128" d="M573.5,296.9c-3.5-3.6-8.1,1.1-14.4,2.3s-10.7-0.5-10.7-0.5s0.1-2.1,4.4-2.6c4.3-0.5,6.3-7,3.5-6.3
				c-2.8,0.7-5.5,0.9-11,2.4c-3.8,1.1-8.5,4.5-12.1,6c-9-5.2-24.4-10.7-33.3-18.2c-3.9-7.4-16.2-30.4-20.8-47.8
				c-4.8-18.1-15.6-31.8-15.6-31.8s-15.2,11.6-14.8,12.7c0.4,1.2,10.4,33,15.9,45.3c5.5,12.3,13.6,32.3,19,41.3
				c4.9,2.2,37.6,10.3,47.7,12.8c9,3.4,20,4.1,29.4,1.7C570.8,311.6,577,300.6,573.5,296.9z"/>
			<linearGradient id="SVGID_12_" gradientUnits="userSpaceOnUse" x1="434.1602" y1="230.4765" x2="485.2741" y2="230.4765">
				<stop  offset="0" style="stop-color:#CA4B7C"/>
				<stop  offset="1" style="stop-color:#FE7087"/>
			</linearGradient>
			<path style="fill:url(#SVGID_12_);" d="M456.1,201.7c0,0,9.7-2.7,16.6,7.3c6.9,9.9,11.4,35.3,12.6,40.9c-2.9,0-10.9,4-16.1,7.1
				c-5.1,3.1-7.8,2.7-7.8,2.7l-27.2-50.1L456.1,201.7z"/>
			<path class="st124" d="M484,243.6c0,0-10.8,1.1-15.1,6.2c-4.3,5.1-5.1,7.1-5.1,7.1l3.5,5.6c0,0,4.7-5,9.2-7.9
				c4.4-2.9,9.7-3.6,9.7-3.6L484,243.6z"/>
			<path class="st118" d="M392.9,570.9c4,4.4,8.4,9.3,12.5,13.6c5.5,5.8,12,12,18,17.4c7.3,6.5,7.9,14.4-4.1,13.8
				c-19.4-1.1-24-9.2-32.9-16.1c-1.3-1-3.3,1.3-8.2-0.6c-6.2-2.5-7-3.5-7-9.7c0-3.9,0.7-12.1,2.4-16.2c-0.1-0.1-0.1-0.1-0.2-0.2
				C372.4,571.7,387.6,565,392.9,570.9z"/>
			<path class="st118" d="M472.2,523.7c4,4.4,8.4,9.3,12.5,13.6c5.5,5.8,12,12,18,17.4c7.3,6.5,7.9,14.5-4.1,13.8
				c-19.4-1.1-24-9.2-32.9-16.1c-1.3-1-3.3,1.3-8.2-0.6c-6.2-2.5-7-3.5-7-9.7c0-3.9,0.7-12.1,2.4-16.2c-0.1-0.1-0.1-0.1-0.2-0.2
				C451.8,524.6,466.9,517.9,472.2,523.7z"/>
			<path class="st158" d="M486.6,433.7c0.1-13.2-6.2-79.9-38.5-116.1c-3.1-4.1-13.9-5.6-14.3-5.3c-7.6-1.5-21.3,9.5-24.8,13.4
				c-6.7,7.3,7.9,55.9,14.8,69.9c8.5,17.3,17.5,30.4,26.9,43.8c-1.3,7.2-4.2,13.4-6.4,32.1c-2.8,24,8,55.7,8,55.7s12.1,6,19.8-3.5
				C476.7,497.4,481.2,474.1,486.6,433.7z"/>
			<path class="st159" d="M425.9,369.1c7.6-9.4,10-21.8,9.2-32.8c-0.4-5.9-1-11.9-7.3-13.5c-10.8-2.7-44.5-7.9-44.3-6.8
				c-19.4,22.3-20.4,54.5-18.8,83.7c1.5,27.7,16.1,51.7,22.8,77.8c-2.2,3.7-10.7,12.9-12,25.9c-2.3,24.2-1.9,56-2.2,69.4
				c5.3,7.2,18.1,2.3,20.5,1c4.1-17.1,14.6-51.7,25.5-85.6c6-18.7,9.8-33.3,12.6-63.5C434.2,401.8,431.1,388.8,425.9,369.1z"/>
			<linearGradient id="SVGID_13_" gradientUnits="userSpaceOnUse" x1="372.743" y1="269.4637" x2="480.8922" y2="269.4637">
				<stop  offset="0" style="stop-color:#CA4B7C"/>
				<stop  offset="1" style="stop-color:#FE7087"/>
			</linearGradient>
			<path style="fill:url(#SVGID_13_);" d="M462.3,212.4c-10.4-13.2-15.6-14.2-28.2-7c-15.5,8.9-28,14.4-34.7,20.1
				c-11.5,9.5-18.1,29.2-20.1,54c-0.3,3.8-2.6,16.5-3.9,20.3c-4.8,13.5-2.4,15.7,0.9,18.9c-1.9,1.8-3.7,9.7,0.2,12
				c17.9,10.5,57.7,12.4,71.5-13.1c0.9-1.6-1.4-7.1-2.5-8.5c2.9-1.6,4.9-5.6,4.9-9.3c5.3-2.9,9.8-7.2,11.1-14.7
				c10.6-2.4,22.1-8.4,18.6-21.2c-1.7-6.3-10.2-20.8-11.7-28.1C465.8,222.5,465.3,216.2,462.3,212.4z"/>
			<path class="st128" d="M455.2,216.7c-2.9-0.5-10.5-4.4-8.2-18.5c0.6-4-17.1-14.6-17.1-14c0.2,12.8-1.8,27.4-7.7,34
				c8.4,8.8,16.8,31.7,31.3,28.6C461.4,245.2,461,232.9,455.2,216.7z"/>
			<linearGradient id="SVGID_14_" gradientUnits="userSpaceOnUse" x1="448.6918" y1="228.5104" x2="474.0929" y2="228.5104">
				<stop  offset="0" style="stop-color:#FE7087"/>
				<stop  offset="1" style="stop-color:#FE9D82"/>
			</linearGradient>
			<path style="fill:url(#SVGID_14_);" d="M461.5,207.2c0,0,5.4,16.3,7.2,21.7c1.9,5.4,5.4,15.5,5.4,15.5s-5.6-2.7-8.5-1.2
				c-2.9,1.4-7,5.8-9.5,6.4c-2.5,0.6-5.7,0-5.7,0l-1.7-6.8c0,0,5.2-1.4,5.4-10.1c0.2-8.7-0.8-20.4-0.8-20.4L461.5,207.2z"/>
			<path class="st121" d="M470.5,165.4c-12-2.7-18.3-3.2-29,1.1c-6,1.6-11.7,4.3-17.1,7.9c-0.4,0.3-0.8,0.9-0.7,1.4
				c2.8,15.9,8.1,32.7,25.9,39.7c14.6,5.8,22.8-10.3,25.4-21C478,181.9,478.9,167.3,470.5,165.4z"/>
			<path class="st117" d="M412.7,153.1c4.3-16,14.2-24,21.2-16.9c1.4-7.6,8.8-12.5,13.1-6.8c3.4-8.3,12.3-6.2,17.1-2.4
				c9.1,7.2,28.7,34.2,14.4,44.5c-0.9,13.5-17.1,14.6-26.4,7.9c-5.1,4.7-14.8,4.5-17.8-0.2c-1.7,8.5-4.4,16.6-6.1,23.8
				C422.2,199.3,406.4,176.4,412.7,153.1z"/>
			<path class="st121" d="M438.3,188c0,0-2.9-9.7-9.2-4.7c-6.3,5,2.6,14.9,2.6,14.9L438.3,188z"/>
			<path class="st122" d="M440.5,297.9c0,0-14.3-4.6-22.1-3.7c-7.8,0.9-14.4,3.7-14.4,3.7s10.9,1.6,18.3,1.9
				C429.5,300.1,440.5,297.9,440.5,297.9z"/>
			<path class="st122" d="M434.2,315.4c-0.9,0-17-0.5-25.7-1.1c-8.7-0.6-12.1-1-12.1-1s7.1,5.4,17.2,5.4
				C423.6,318.7,434.2,315.4,434.2,315.4z"/>
			<path class="st121" d="M401.7,279.7c0,0-2.8,17.8-5.2,36.6c10,20.8,19.9,41.3,19.9,41.3l-15.1,12.2c0,0-11.7-14.1-20.8-32.7
				c-5.2-10.7-9.9-11.1-9-20.7c1.9-20.6,3.9-45.5,3.9-45.5S392.9,270.8,401.7,279.7z"/>
			<linearGradient id="SVGID_15_" gradientUnits="userSpaceOnUse" x1="371.959" y1="256.1565" x2="417.1698" y2="256.1565">
				<stop  offset="0" style="stop-color:#FE7087"/>
				<stop  offset="1" style="stop-color:#FE9D82"/>
			</linearGradient>
			<path class="st27" d="M407.3,224.8c9.9,7.5,12.6,23.5,6.9,39c-5.7,15.5-13.7,26-13.7,26s-12.4-3.3-26.2-4.3
				c-3.7-18.2-3.7-37,3.7-49.4C385.5,223.7,400.4,219.5,407.3,224.8z"/>
			<linearGradient id="SVGID_16_" gradientUnits="userSpaceOnUse" x1="416.421" y1="229.9847" x2="455.0383" y2="229.9847">
				<stop  offset="0" style="stop-color:#FE7087"/>
				<stop  offset="1" style="stop-color:#FE9D82"/>
			</linearGradient>
			<path style="fill:url(#SVGID_16_);" d="M428.2,203.1c0,0,0,5.5,4.3,13.6c4.4,8.1,12.8,18.4,17.6,22.5c7,6,4.4,15.5,4.4,15.5
				s-2.5-6.1-5.9-5.2c-3.3,1-5.1,4-9.1,7.4c-2.9-4.7-4.2-8.6-10.7-15.4c-5.1-5.4-14.7-17.2-12-26.6
				C419.6,205.4,428.2,203.1,428.2,203.1z"/>
			<path class="st124" d="M403.2,285.9c0,0-6.1-3.9-15-5.2c-8.9-1.3-14.7,0-14.7,0l0.5,9c0,0,9.1-1,14.3,0c5.2,1,11.3,4.3,11.3,4.3
				L403.2,285.9z"/>
		</g>
		<g>
			<path class="st118" d="M267.7,538.7V774c0,2.7,4.1,4.9,9.1,4.9c5,0,9.1-2.2,9.1-4.9V538.7H267.7z"/>
			<path class="st118" d="M811.5,538.7V774c0,2.7,4.1,4.9,9.1,4.9c5,0,9.1-2.2,9.1-4.9V538.7H811.5z"/>
			<path class="st118" d="M531.9,627.1v235.3c0,2.7,4.1,4.9,9.1,4.9c5,0,9.1-2.2,9.1-4.9V627.1H531.9z"/>
			<g>
				<path class="st123" d="M846.4,516.6c-16-79.9-143.2-142.2-297.7-142.2c-154.5,0-281.7,62.2-297.7,142.2h-1.7v17.1
					c0,88,134.1,159.3,299.4,159.3c165.4,0,299.4-71.3,299.4-159.3v-17.1H846.4z"/>
			</g>
			<g>
				<path class="st116" d="M847.2,500c-16.1-80.1-143.6-142.6-298.5-142.6c-154.9,0-282.4,62.4-298.5,142.6h-1.7v17.2
					c0,88.2,134.4,159.7,300.2,159.7c165.8,0,300.2-71.5,300.2-159.7V500H847.2z"/>
				<path class="st124" d="M548.7,340.3c-165.8,0-300.2,71.5-300.2,159.7c0,88.2,134.4,159.7,300.2,159.7
					c165.8,0,300.2-71.5,300.2-159.7C848.9,411.8,714.5,340.3,548.7,340.3z"/>
			</g>
		</g>
		<g>
			<polygon class="st15" points="490.9,440.1 545.1,408.8 460.5,360.3 406.3,391.6 			"/>
			<g>
				<path class="st118" d="M528.8,406.8c-13.1,6.8-26,14-39,21c-1,0.5-0.1,2.1,0.9,1.5c12.9-7.2,25.9-14.2,38.6-21.6
					C529.9,407.4,529.4,406.5,528.8,406.8z"/>
				<path class="st118" d="M522.9,403c-13.1,6.8-26,14-39,21c-1,0.5-0.1,2.1,0.9,1.5c12.9-7.2,25.9-14.2,38.6-21.6
					C524,403.6,523.5,402.7,522.9,403z"/>
				<path class="st118" d="M516.2,399.6c-13.1,6.8-26,14-39,21c-1,0.5-0.1,2.1,0.9,1.5c12.9-7.2,25.9-14.2,38.6-21.6
					C517.3,400.2,516.8,399.3,516.2,399.6z"/>
				<path class="st118" d="M510.4,395.8c-13.1,6.8-26,14-39,21c-1,0.5-0.1,2.1,0.9,1.5c12.9-7.2,25.9-14.2,38.6-21.6
					C511.5,396.4,511,395.5,510.4,395.8z"/>
				<path class="st118" d="M496.1,389.3c-13.1,6.8-26,14-39,21c-1,0.5-0.1,2.1,0.9,1.5c12.9-7.2,25.9-14.2,38.6-21.6
					C497.2,389.9,496.7,389,496.1,389.3z"/>
				<path class="st118" d="M490.3,385.8c-13.1,6.8-26,14-39,21c-1,0.5-0.1,2.1,0.9,1.5c12.9-7.2,25.9-14.2,38.6-21.6
					C491.4,386.4,490.9,385.5,490.3,385.8z"/>
				<path class="st118" d="M481.4,380.6c-13.1,6.8-26,14-39,21c-1,0.5-0.1,2.1,0.9,1.5c12.9-7.2,25.9-14.2,38.6-21.6
					C482.5,381.2,482,380.3,481.4,380.6z"/>
				<path class="st118" d="M475.6,376.8c-13.1,6.8-26,14-39,21c-1,0.5-0.1,2.1,0.9,1.5c12.9-7.2,25.9-14.2,38.6-21.6
					C476.7,377.3,476.2,376.5,475.6,376.8z"/>
				<path class="st118" d="M468.9,373.4c-13.1,6.8-26,14-39,21c-1,0.5-0.1,2.1,0.9,1.5c12.9-7.2,25.9-14.2,38.6-21.6
					C470,373.9,469.5,373.1,468.9,373.4z"/>
				<path class="st118" d="M463,369.5c-13.1,6.8-26,14-39,21c-1,0.5-0.1,2.1,0.9,1.5c12.9-7.2,25.9-14.2,38.6-21.6
					C464.2,370.1,463.6,369.2,463,369.5z"/>
			</g>
		</g>
		<path class="st121" d="M413.1,353.5l-18.1,8c0,0,8.3,11.5,14.7,17.8c6.3,6.2,12.6,4.8,24,12c12.1,7.5,17.4,2.6,13.9-11
			c-1.9-7.1-8.1-14-20.9-17.2C417.4,360.8,413.1,353.5,413.1,353.5z"/>
		<path class="st128" d="M800.5,397.4c-1-2.2-2-4.4-3-6.7c-0.9,1.2-1.8,2.3-2.6,3.4c-3.6-3.9-21.2-22.6-29.4-32.3
			c-7.5-8.9-12.6-7.4-19.9-8.9c-7.5-1.5-6.9-8.3-14.6-8.7c-7.7-0.4-6.4,3.3,0,11.8c4,5.2,9.4,10,12.9,10.9c7.3,2,14.3,1.6,16.4,8.2
			c1.3,4.1,14,32.5,20.4,36.9c8.5,5.8,8.8,7.7,15.3,7.3c4.5-0.3,8.3-4.8,10.3-7.2C804.5,407.3,802.7,402.3,800.5,397.4z"/>
		<g>
			<g>
				<g>
					<path class="st117" d="M466,563.2l2.2,2.5c0.9-0.8,1.8-1.6,3-2.3l32.9-19c7.4-4.3,18.8-4.8,25.3-1l52.5,30.3
						c0.4,0.2,0.7,0.5,1,0.7l2.4-2.7c0,0,2.7,5.1,0.5,10.4c0,0.1-0.1,0.1-0.1,0.2c-0.8,2.1-2.7,4.2-5.7,5.9l-32.9,19
						c-7.4,4.3-18.8,4.8-25.3,1L469.4,578c-1.9-1.1-3.1-2.4-3.7-3.9c-0.1-0.2-0.2-0.4-0.3-0.6C463.2,568.2,466,563.2,466,563.2z"/>
					<path class="st134" d="M521.9,603.2l-52.5-30.3c-6.4-3.7-5.6-10.3,1.8-14.6l32.9-19c7.4-4.3,18.8-4.8,25.3-1l52.5,30.3
						c6.4,3.7,5.6,10.3-1.8,14.6l-32.9,19C539.7,606.4,528.4,606.9,521.9,603.2z"/>
				</g>
				<g>
					<g>
						<path class="st130" d="M519.4,542.8l-4.2-2.5c-0.4-0.2-1.2-0.2-1.6,0.1l-2.3,1.4c-0.5,0.3-0.5,0.7-0.1,0.9l4.2,2.5
							c0.4,0.2,1.2,0.2,1.6-0.1l2.3-1.4C519.8,543.5,519.9,543.1,519.4,542.8z"/>
						<path class="st130" d="M536.1,552.5l-12.7-7.3c-0.4-0.2-1.2-0.2-1.6,0.1l-2.3,1.4c-0.5,0.3-0.5,0.7-0.1,0.9l12.7,7.3
							c0.4,0.2,1.2,0.2,1.6-0.1l2.3-1.4C536.5,553.1,536.5,552.7,536.1,552.5z"/>
						<path class="st130" d="M544.3,557.2l-4.2-2.5c-0.4-0.2-1.2-0.2-1.6,0.1l-2.3,1.4c-0.5,0.3-0.5,0.7-0.1,0.9l4.2,2.5
							c0.4,0.2,1.2,0.2,1.6-0.1l2.3-1.4C544.7,557.9,544.7,557.4,544.3,557.2z"/>
						<path class="st130" d="M506.9,550.1l-4.2-2.5c-0.4-0.2-1.2-0.2-1.6,0.1l-2.3,1.4c-0.5,0.3-0.5,0.7-0.1,0.9l4.2,2.5
							c0.4,0.2,1.2,0.2,1.6-0.1l2.3-1.4C507.3,550.7,507.3,550.3,506.9,550.1z"/>
						<path class="st130" d="M515.1,554.8l-4.2-2.5c-0.4-0.2-1.2-0.2-1.6,0.1l-2.3,1.4c-0.5,0.3-0.5,0.7-0.1,0.9l4.2,2.5
							c0.4,0.2,1.2,0.2,1.6-0.1l2.3-1.4C515.5,555.5,515.5,555,515.1,554.8z"/>
						<path class="st130" d="M523.6,559.7l-4.2-2.5c-0.4-0.2-1.2-0.2-1.6,0.1l-2.3,1.4c-0.5,0.3-0.5,0.7-0.1,0.9l4.2,2.5
							c0.4,0.2,1.2,0.2,1.6-0.1l2.3-1.4C523.9,560.4,524,559.9,523.6,559.7z"/>
						<path class="st130" d="M531.8,564.4l-4.2-2.5c-0.4-0.2-1.2-0.2-1.6,0.1l-2.3,1.4c-0.5,0.3-0.5,0.7-0.1,0.9l4.2,2.5
							c0.4,0.2,1.2,0.2,1.6-0.1l2.3-1.4C532.1,565.1,532.2,564.7,531.8,564.4z"/>
						<path class="st130" d="M500.6,553.7l-4.2-2.5c-0.4-0.2-1.2-0.2-1.6,0.1l-2.3,1.4c-0.5,0.3-0.5,0.7-0.1,0.9l4.2,2.5
							c0.4,0.2,1.2,0.2,1.6-0.1l2.3-1.4C501,554.4,501,553.9,500.6,553.7z"/>
						<path class="st130" d="M508.8,558.4l-4.2-2.5c-0.4-0.2-1.2-0.2-1.6,0.1l-2.3,1.4c-0.5,0.3-0.5,0.7-0.1,0.9l4.2,2.5
							c0.4,0.2,1.2,0.2,1.6-0.1l2.3-1.4C509.2,559.1,509.2,558.7,508.8,558.4z"/>
						<path class="st130" d="M517.3,563.3l-4.2-2.5c-0.4-0.2-1.2-0.2-1.6,0.1l-2.3,1.4c-0.5,0.3-0.5,0.7-0.1,0.9l4.2,2.5
							c0.4,0.2,1.2,0.2,1.6-0.1l2.3-1.4C517.7,564,517.7,563.6,517.3,563.3z"/>
						<path class="st130" d="M525.5,568.1l-4.2-2.5c-0.4-0.2-1.2-0.2-1.6,0.1l-2.3,1.4c-0.5,0.3-0.5,0.7-0.1,0.9l4.2,2.5
							c0.4,0.2,1.2,0.2,1.6-0.1l2.3-1.4C525.9,568.7,525.9,568.3,525.5,568.1z"/>
						<path class="st130" d="M492.7,558.3l-4.2-2.5c-0.4-0.2-1.2-0.2-1.6,0.1l-2.3,1.4c-0.5,0.3-0.5,0.7-0.1,0.9l4.2,2.5
							c0.4,0.2,1.2,0.2,1.6-0.1l2.3-1.4C493,558.9,493.1,558.5,492.7,558.3z"/>
						<path class="st130" d="M500.9,563l-4.2-2.5c-0.4-0.2-1.2-0.2-1.6,0.1l-2.3,1.4c-0.5,0.3-0.5,0.7-0.1,0.9l4.2,2.5
							c0.4,0.2,1.2,0.2,1.6-0.1l2.3-1.4C501.2,563.7,501.3,563.3,500.9,563z"/>
						<path class="st130" d="M509.4,567.9l-4.2-2.5c-0.4-0.2-1.2-0.2-1.6,0.1l-2.3,1.4c-0.5,0.3-0.5,0.7-0.1,0.9l4.2,2.5
							c0.4,0.2,1.2,0.2,1.6-0.1l2.3-1.4C509.7,568.6,509.8,568.2,509.4,567.9z"/>
						<path class="st130" d="M517.5,572.6l-4.2-2.5c-0.4-0.2-1.2-0.2-1.6,0.1l-2.3,1.4c-0.5,0.3-0.5,0.7-0.1,0.9l4.2,2.5
							c0.4,0.2,1.2,0.2,1.6-0.1l2.3-1.4C517.9,573.3,518,572.9,517.5,572.6z"/>
						<path class="st130" d="M513.2,546.5l-4.2-2.5c-0.4-0.2-1.2-0.2-1.6,0.1l-2.3,1.4c-0.5,0.3-0.5,0.7-0.1,0.9l4.2,2.5
							c0.4,0.2,1.2,0.2,1.6-0.1l2.3-1.4C513.5,547.1,513.6,546.7,513.2,546.5z"/>
						<path class="st130" d="M521.4,551.2l-4.2-2.5c-0.4-0.2-1.2-0.2-1.6,0.1l-2.3,1.4c-0.5,0.3-0.5,0.7-0.1,0.9l4.2,2.5
							c0.4,0.2,1.2,0.2,1.6-0.1l2.3-1.4C521.7,551.8,521.8,551.4,521.4,551.2z"/>
						<path class="st130" d="M529.8,556.1l-4.2-2.5c-0.4-0.2-1.2-0.2-1.6,0.1l-2.3,1.4c-0.5,0.3-0.5,0.7-0.1,0.9l4.2,2.5
							c0.4,0.2,1.2,0.2,1.6-0.1l2.3-1.4C530.2,556.7,530.3,556.3,529.8,556.1z"/>
						<path class="st130" d="M538,560.8l-4.2-2.5c-0.4-0.2-1.2-0.2-1.6,0.1l-2.3,1.4c-0.5,0.3-0.5,0.7-0.1,0.9l4.2,2.5
							c0.4,0.2,1.2,0.2,1.6-0.1l2.3-1.4C538.4,561.5,538.5,561.1,538,560.8z"/>
						<path class="st130" d="M552.6,562l-4.2-2.5c-0.4-0.2-1.2-0.2-1.6,0.1l-2.3,1.4c-0.5,0.3-0.5,0.7-0.1,0.9l4.2,2.5
							c0.4,0.2,1.2,0.2,1.6-0.1l2.3-1.4C553,562.7,553,562.2,552.6,562z"/>
						<path class="st130" d="M540.1,569.2l-4.2-2.5c-0.4-0.2-1.2-0.2-1.6,0.1l-8.6,5c-0.5,0.3-0.5,0.7-0.1,0.9l4.2,2.5
							c0.4,0.2,1.2,0.2,1.6-0.1l8.6-5C540.5,569.9,540.5,569.5,540.1,569.2z"/>
						<path class="st130" d="M525.9,577.4l-4.2-2.5c-0.4-0.2-1.2-0.2-1.6,0.1l-2.3,1.4c-0.5,0.3-0.5,0.7-0.1,0.9l4.2,2.5
							c0.4,0.2,1.2,0.2,1.6-0.1l2.3-1.4C526.2,578.1,526.3,577.7,525.9,577.4z"/>
						<path class="st130" d="M485.8,562.1l-4.2-2.5c-0.4-0.2-1.2-0.2-1.6,0.1l-2.3,1.4c-0.5,0.3-0.5,0.7-0.1,0.9l4.2,2.5
							c0.4,0.2,1.2,0.2,1.6-0.1l2.3-1.4C486.2,562.8,486.3,562.3,485.8,562.1z"/>
						<path class="st130" d="M494,566.8l-4.2-2.5c-0.4-0.2-1.2-0.2-1.6,0.1l-2.3,1.4c-0.5,0.3-0.5,0.7-0.1,0.9l4.2,2.5
							c0.4,0.2,1.2,0.2,1.6-0.1l2.3-1.4C494.4,567.5,494.4,567.1,494,566.8z"/>
						<path class="st130" d="M502.5,571.7l-4.2-2.5c-0.4-0.2-1.2-0.2-1.6,0.1l-2.3,1.4c-0.5,0.3-0.5,0.7-0.1,0.9l4.2,2.5
							c0.4,0.2,1.2,0.2,1.6-0.1l2.3-1.4C502.9,572.4,502.9,572,502.5,571.7z"/>
						<path class="st130" d="M510.7,576.5l-4.2-2.5c-0.4-0.2-1.2-0.2-1.6,0.1l-2.3,1.4c-0.5,0.3-0.5,0.7-0.1,0.9l4.2,2.5
							c0.4,0.2,1.2,0.2,1.6-0.1l2.3-1.4C511.1,577.1,511.1,576.7,510.7,576.5z"/>
						<path class="st130" d="M519,581.3l-4.2-2.5c-0.4-0.2-1.2-0.2-1.6,0.1l-2.3,1.4c-0.5,0.3-0.5,0.7-0.1,0.9l4.2,2.5
							c0.4,0.2,1.2,0.2,1.6-0.1l2.3-1.4C519.4,581.9,519.4,581.5,519,581.3z"/>
						<path class="st130" d="M546.4,565.6l-4.2-2.5c-0.4-0.2-1.2-0.2-1.6,0.1l-2.3,1.4c-0.5,0.3-0.5,0.7-0.1,0.9l4.2,2.5
							c0.4,0.2,1.2,0.2,1.6-0.1l2.3-1.4C546.7,566.3,546.8,565.9,546.4,565.6z"/>
					</g>
					<g>
						<path class="st130" d="M560.8,566.7l-4.2-2.5c-0.4-0.2-1.2-0.2-1.6,0.1l-2.3,1.4c-0.5,0.3-0.5,0.7-0.1,0.9l4.2,2.5
							c0.4,0.2,1.2,0.2,1.6-0.1l2.3-1.4C561.2,567.4,561.2,567,560.8,566.7z"/>
						<path class="st130" d="M574.8,567.9l-4.2-2.5c-0.4-0.2-1.2-0.2-1.6,0.1l-2.3,1.4c-0.5,0.3-0.5,0.7-0.1,0.9l4.2,2.5
							c0.4,0.2,1.2,0.2,1.6-0.1l2.3-1.4C575.2,568.6,575.3,568.2,574.8,567.9z"/>
						<path class="st130" d="M533.6,543.9l-4.2-2.5c-0.4-0.2-1.2-0.2-1.6,0.1l-2.3,1.4c-0.5,0.3-0.5,0.7-0.1,0.9l4.2,2.5
							c0.4,0.2,1.2,0.2,1.6-0.1l2.3-1.4C534,544.5,534,544.1,533.6,543.9z"/>
						<path class="st130" d="M577.5,576.4l-12.7-7.3c-0.4-0.2-1.2-0.2-1.6,0.1l-2.3,1.4c-0.5,0.3-0.5,0.7-0.1,0.9l12.7,7.3
							c0.4,0.2,1.2,0.2,1.6-0.1l2.3-1.4C577.9,577,577.9,576.6,577.5,576.4z"/>
						<path class="st130" d="M548.3,574l-4.2-2.5c-0.4-0.2-1.2-0.2-1.6,0.1l-2.3,1.4c-0.5,0.3-0.5,0.7-0.1,0.9l4.2,2.5
							c0.4,0.2,1.2,0.2,1.6-0.1l2.3-1.4C548.7,574.6,548.7,574.2,548.3,574z"/>
						<path class="st130" d="M556.5,578.7l-4.2-2.5c-0.4-0.2-1.2-0.2-1.6,0.1l-2.3,1.4c-0.5,0.3-0.5,0.7-0.1,0.9l4.2,2.5
							c0.4,0.2,1.2,0.2,1.6-0.1l2.3-1.4C556.8,579.4,556.9,578.9,556.5,578.7z"/>
						<path class="st130" d="M565,583.6l-4.2-2.5c-0.4-0.2-1.2-0.2-1.6,0.1l-2.3,1.4c-0.5,0.3-0.5,0.7-0.1,0.9l4.2,2.5
							c0.4,0.2,1.2,0.2,1.6-0.1l2.3-1.4C565.3,584.3,565.4,583.8,565,583.6z"/>
						<path class="st130" d="M542,577.6l-4.2-2.5c-0.4-0.2-1.2-0.2-1.6,0.1l-2.3,1.4c-0.5,0.3-0.5,0.7-0.1,0.9l4.2,2.5
							c0.4,0.2,1.2,0.2,1.6-0.1l2.3-1.4C542.4,578.3,542.4,577.8,542,577.6z"/>
						<path class="st130" d="M550.2,582.3l-4.2-2.5c-0.4-0.2-1.2-0.2-1.6,0.1l-2.3,1.4c-0.5,0.3-0.5,0.7-0.1,0.9l4.2,2.5
							c0.4,0.2,1.2,0.2,1.6-0.1l2.3-1.4C550.6,583,550.6,582.6,550.2,582.3z"/>
						<path class="st130" d="M558.7,587.2l-4.2-2.5c-0.4-0.2-1.2-0.2-1.6,0.1l-2.3,1.4c-0.5,0.3-0.5,0.7-0.1,0.9l4.2,2.5
							c0.4,0.2,1.2,0.2,1.6-0.1l2.3-1.4C559.1,587.9,559.1,587.5,558.7,587.2z"/>
						<path class="st130" d="M534.1,582.2l-4.2-2.5c-0.4-0.2-1.2-0.2-1.6,0.1l-2.3,1.4c-0.5,0.3-0.5,0.7-0.1,0.9l4.2,2.5
							c0.4,0.2,1.2,0.2,1.6-0.1l2.3-1.4C534.4,582.8,534.5,582.4,534.1,582.2z"/>
						<path class="st130" d="M542.3,586.9l-4.2-2.5c-0.4-0.2-1.2-0.2-1.6,0.1l-2.3,1.4c-0.5,0.3-0.5,0.7-0.1,0.9l4.2,2.5
							c0.4,0.2,1.2,0.2,1.6-0.1l2.3-1.4C542.6,587.6,542.7,587.2,542.3,586.9z"/>
						<path class="st130" d="M550.7,591.8l-4.2-2.5c-0.4-0.2-1.2-0.2-1.6,0.1l-2.3,1.4c-0.5,0.3-0.5,0.7-0.1,0.9l4.2,2.5
							c0.4,0.2,1.2,0.2,1.6-0.1l2.3-1.4C551.1,592.5,551.2,592,550.7,591.8z"/>
						<path class="st130" d="M527.2,586l-4.2-2.5c-0.4-0.2-1.2-0.2-1.6,0.1L519,585c-0.5,0.3-0.5,0.7-0.1,0.9l4.2,2.5
							c0.4,0.2,1.2,0.2,1.6-0.1l2.3-1.4C527.6,586.7,527.6,586.2,527.2,586z"/>
						<path class="st130" d="M535.4,590.7l-4.2-2.5c-0.4-0.2-1.2-0.2-1.6,0.1l-2.3,1.4c-0.5,0.3-0.5,0.7-0.1,0.9l4.2,2.5
							c0.4,0.2,1.2,0.2,1.6-0.1l2.3-1.4C535.8,591.4,535.8,591,535.4,590.7z"/>
						<path class="st130" d="M543.9,595.6l-4.2-2.5c-0.4-0.2-1.2-0.2-1.6,0.1l-2.3,1.4c-0.5,0.3-0.5,0.7-0.1,0.9l4.2,2.5
							c0.4,0.2,1.2,0.2,1.6-0.1l2.3-1.4C544.3,596.3,544.3,595.9,543.9,595.6z"/>
						<path class="st130" d="M554.6,570.3l-4.2-2.5c-0.4-0.2-1.2-0.2-1.6,0.1l-2.3,1.4c-0.5,0.3-0.5,0.7-0.1,0.9l4.2,2.5
							c0.4,0.2,1.2,0.2,1.6-0.1l2.3-1.4C554.9,571,555,570.6,554.6,570.3z"/>
						<path class="st130" d="M562.8,575.1l-4.2-2.5c-0.4-0.2-1.2-0.2-1.6,0.1l-2.3,1.4c-0.5,0.3-0.5,0.7-0.1,0.9l4.2,2.5
							c0.4,0.2,1.2,0.2,1.6-0.1l2.3-1.4C563.1,575.7,563.2,575.3,562.8,575.1z"/>
						<path class="st130" d="M571.2,580l-4.2-2.5c-0.4-0.2-1.2-0.2-1.6,0.1l-2.3,1.4c-0.5,0.3-0.5,0.7-0.1,0.9l4.2,2.5
							c0.4,0.2,1.2,0.2,1.6-0.1l2.3-1.4C571.6,580.6,571.7,580.2,571.2,580z"/>
						<path class="st130" d="M479,565.8l-4.2-2.5c-0.4-0.2-1.2-0.2-1.6,0.1l-2.3,1.4c-0.5,0.3-0.5,0.7-0.1,0.9l4.2,2.5
							c0.4,0.2,1.2,0.2,1.6-0.1l2.3-1.4C479.4,566.4,479.4,566,479,565.8z"/>
						<path class="st130" d="M495.7,575.4l-12.7-7.3c-0.4-0.2-1.2-0.2-1.6,0.1l-2.3,1.4c-0.5,0.3-0.5,0.7-0.1,0.9l12.7,7.3
							c0.4,0.2,1.2,0.2,1.6-0.1l2.3-1.4C496,576.1,496.1,575.6,495.7,575.4z"/>
						<path class="st130" d="M503.9,580.1l-4.2-2.5c-0.4-0.2-1.2-0.2-1.6,0.1l-2.3,1.4c-0.5,0.3-0.5,0.7-0.1,0.9l4.2,2.5
							c0.4,0.2,1.2,0.2,1.6-0.1l2.3-1.4C504.2,580.8,504.3,580.4,503.9,580.1z"/>
						<path class="st130" d="M512.2,584.9l-4.2-2.5c-0.4-0.2-1.2-0.2-1.6,0.1l-2.3,1.4c-0.5,0.3-0.5,0.7-0.1,0.9l4.2,2.5
							c0.4,0.2,1.2,0.2,1.6-0.1l2.3-1.4C512.6,585.6,512.6,585.2,512.2,584.9z"/>
						<path class="st130" d="M520.4,589.7l-4.2-2.5c-0.4-0.2-1.2-0.2-1.6,0.1l-2.3,1.4c-0.5,0.3-0.5,0.7-0.1,0.9l4.2,2.5
							c0.4,0.2,1.2,0.2,1.6-0.1l2.3-1.4C520.8,590.3,520.8,589.9,520.4,589.7z"/>
						<path class="st130" d="M537.1,599.3l-12.7-7.3c-0.4-0.2-1.2-0.2-1.6,0.1l-2.3,1.4c-0.5,0.3-0.5,0.7-0.1,0.9l12.7,7.3
							c0.4,0.2,1.2,0.2,1.6-0.1l2.3-1.4C537.4,600,537.5,599.5,537.1,599.3z"/>
					</g>
				</g>
			</g>
			<g>
				<path class="st117" d="M521.4,463.5c2.4-4,6.6-5.1,8.4-5.1c1.8,0,4.8,0.3,7,1.6l48,27.7c7.8,4.5,14.1,16.6,14.1,27v41
					c0,3.8-0.9,6.8-2.3,8.9c-0.2,0.2-2.5,3.6-7.5,5.1c-3.4,1-4.7-1.8-5.1-3.8l-47.2-27.3c-7.8-4.5-14.1-16.6-14.1-27v-41
					c0-0.6,0.1-1.1,0.1-1.7C521,467.8,520,465.8,521.4,463.5z"/>
				<path class="st118" d="M581.1,568.4c7.8,4.5,14.1-0.3,14.1-10.7v-41c0-10.4-6.3-22.5-14.1-27l-48-27.7
					c-7.8-4.5-14.1,0.3-14.1,10.7v41c0,10.4,6.3,22.5,14.1,27L581.1,568.4z"/>
				<linearGradient id="SVGID_17_" gradientUnits="userSpaceOnUse" x1="522.1356" y1="515.1898" x2="592.0999" y2="515.1898">
					<stop  offset="0" style="stop-color:#6E376E"/>
					<stop  offset="1" style="stop-color:#CA4B7C"/>
				</linearGradient>
				<path style="fill:url(#SVGID_17_);" d="M533.1,536.5l48,27.7c6,3.5,11-0.2,11-8.3v-41c0-8-4.9-17.5-11-21l-48-27.7
					c-6-3.5-11,0.2-11,8.3v41C522.1,523.6,527.1,533,533.1,536.5z"/>
			</g>
		</g>
		<linearGradient id="SVGID_18_" gradientUnits="userSpaceOnUse" x1="371.5102" y1="539.3409" x2="510.3065" y2="539.3409">
			<stop  offset="0" style="stop-color:#CA4B7C"/>
			<stop  offset="1" style="stop-color:#FE7087"/>
		</linearGradient>
		<polygon style="fill:url(#SVGID_18_);" points="425.7,579.2 371.5,547.9 456.1,499.5 510.3,530.7 		"/>
		<linearGradient id="SVGID_19_" gradientUnits="userSpaceOnUse" x1="668.899" y1="548.0206" x2="807.6953" y2="548.0206">
			<stop  offset="0" style="stop-color:#CA4B7C"/>
			<stop  offset="1" style="stop-color:#FE7087"/>
		</linearGradient>
		<polygon style="fill:url(#SVGID_19_);" points="723.1,587.9 668.9,556.6 753.5,508.1 807.7,539.4 		"/>
		<linearGradient id="SVGID_20_" gradientUnits="userSpaceOnUse" x1="607.3052" y1="581.3596" x2="746.1015" y2="581.3596">
			<stop  offset="0" style="stop-color:#6E376E"/>
			<stop  offset="1" style="stop-color:#CA4B7C"/>
		</linearGradient>
		<polygon style="fill:url(#SVGID_20_);" points="691.9,621.2 746.1,590 661.5,541.5 607.3,572.8 		"/>
		<g>
			<polygon class="st15" points="721,609.1 775.2,577.8 690.6,529.3 636.4,560.6 			"/>
			<g>
				<path class="st118" d="M758.9,575.8c-13.1,6.8-26,14-39,21c-1,0.5-0.1,2.1,0.9,1.5c12.9-7.2,25.9-14.2,38.6-21.6
					C760,576.4,759.5,575.5,758.9,575.8z"/>
				<path class="st118" d="M753,572c-13.1,6.8-26,14-39,21c-1,0.5-0.1,2.1,0.9,1.5c12.9-7.2,25.9-14.2,38.6-21.6
					C754.1,572.6,753.6,571.7,753,572z"/>
				<path class="st118" d="M746.3,568.6c-13.1,6.8-26,14-39,21c-1,0.5-0.1,2.1,0.9,1.5c12.9-7.2,25.9-14.2,38.6-21.6
					C747.5,569.2,746.9,568.3,746.3,568.6z"/>
				<path class="st118" d="M740.5,564.8c-13.1,6.8-26,14-39,21c-1,0.5-0.1,2.1,0.9,1.5c12.9-7.2,25.9-14.2,38.6-21.6
					C741.6,565.3,741.1,564.5,740.5,564.8z"/>
				<path class="st118" d="M726.2,558.3c-13.1,6.8-26,14-39,21c-1,0.5-0.1,2.1,0.9,1.5c12.9-7.2,25.9-14.2,38.6-21.6
					C727.4,558.9,726.8,558,726.2,558.3z"/>
				<path class="st118" d="M720.4,554.8c-13.1,6.8-26,14-39,21c-1,0.5-0.1,2.1,0.9,1.5c12.9-7.2,25.9-14.2,38.6-21.6
					C721.5,555.3,721,554.5,720.4,554.8z"/>
				<path class="st118" d="M711.6,549.6c-13.1,6.8-26,14-39,21c-1,0.5-0.1,2.1,0.9,1.5c12.9-7.2,25.9-14.2,38.6-21.6
					C712.7,550.1,712.2,549.3,711.6,549.6z"/>
				<path class="st118" d="M705.7,545.7c-13.1,6.8-26,14-39,21c-1,0.5-0.1,2.1,0.9,1.5c12.9-7.2,25.9-14.2,38.6-21.6
					C706.8,546.3,706.3,545.4,705.7,545.7z"/>
				<path class="st118" d="M699,542.4c-13.1,6.8-26,14-39,21c-1,0.5-0.1,2.1,0.9,1.5c12.9-7.2,25.9-14.2,38.6-21.6
					C700.1,542.9,699.6,542.1,699,542.4z"/>
				<path class="st118" d="M693.2,538.5c-13.1,6.8-26,14-39,21c-1,0.5-0.1,2.1,0.9,1.5c12.9-7.2,25.9-14.2,38.6-21.6
					C694.3,539.1,693.8,538.2,693.2,538.5z"/>
			</g>
		</g>
		<g>
			<linearGradient id="SVGID_21_" gradientUnits="userSpaceOnUse" x1="571.7614" y1="415.7624" x2="710.5577" y2="415.7624">
				<stop  offset="0" style="stop-color:#FE7087"/>
				<stop  offset="1" style="stop-color:#FE9D82"/>
			</linearGradient>
			<polygon style="fill:url(#SVGID_21_);" points="656.4,455.6 710.6,424.4 625.9,375.9 571.8,407.2 			"/>
			<polygon class="st151" points="611.7,423 654.8,398.1 625.9,381.6 582.8,406.5 			"/>
			<path class="st118" d="M696,424.2c-13.1,6.8-26,14-39,21c-1,0.5-0.1,2.1,0.9,1.5c12.9-7.2,25.9-14.2,38.6-21.6
				C697.1,424.7,696.6,423.9,696,424.2z"/>
			<path class="st118" d="M690.2,420.3c-13.1,6.8-26,14-39,21c-1,0.5-0.1,2.1,0.9,1.5c12.9-7.2,25.9-14.2,38.6-21.6
				C691.3,420.9,690.8,420,690.2,420.3z"/>
			<path class="st118" d="M683.5,417c-13.1,6.8-26,14-39,21c-1,0.5-0.1,2.1,0.9,1.5c12.9-7.2,25.9-14.2,38.6-21.6
				C684.6,417.5,684.1,416.6,683.5,417z"/>
			<path class="st118" d="M677.6,413.1c-13.1,6.8-26,14-39,21c-1,0.5-0.1,2.1,0.9,1.5c12.9-7.2,25.9-14.2,38.6-21.6
				C678.7,413.7,678.2,412.8,677.6,413.1z"/>
			<path class="st118" d="M663.4,406.7c-13.1,6.8-26,14-39,21c-1,0.5-0.1,2.1,0.9,1.5c12.9-7.2,25.9-14.2,38.6-21.6
				C664.5,407.2,664,406.4,663.4,406.7z"/>
			<path class="st118" d="M657.5,403.1c-13.1,6.8-26,14-39,21c-1,0.5-0.1,2.1,0.9,1.5c12.9-7.2,25.9-14.2,38.6-21.6
				C658.6,403.7,658.1,402.8,657.5,403.1z"/>
		</g>
		<g>
			<linearGradient id="SVGID_22_" gradientUnits="userSpaceOnUse" x1="371.5102" y1="508.3121" x2="510.3065" y2="508.3121">
				<stop  offset="0" style="stop-color:#FE7087"/>
				<stop  offset="1" style="stop-color:#FE9D82"/>
			</linearGradient>
			<polygon style="fill:url(#SVGID_22_);" points="425.7,548.2 371.5,516.9 456.1,468.4 510.3,499.7 			"/>
			<polygon class="st151" points="470.3,515.6 427.3,490.7 456.2,474.1 499.2,499 			"/>
			<path class="st118" d="M386.1,516.7c13.1,6.8,26,14,39,21c1,0.5,0.1,2.1-0.9,1.5c-12.9-7.2-25.9-14.2-38.6-21.6
				C384.9,517.3,385.5,516.4,386.1,516.7z"/>
			<path class="st118" d="M391.9,512.9c13.1,6.8,26,14,39,21c1,0.5,0.1,2.1-0.9,1.5c-12.9-7.2-25.9-14.2-38.6-21.6
				C390.8,513.5,391.3,512.6,391.9,512.9z"/>
			<path class="st118" d="M398.6,509.5c13.1,6.8,26,14,39,21c1,0.5,0.1,2.1-0.9,1.5c-12.9-7.2-25.9-14.2-38.6-21.6
				C397.5,510.1,398,509.2,398.6,509.5z"/>
			<path class="st118" d="M404.4,505.7c13.1,6.8,26,14,39,21c1,0.5,0.1,2.1-0.9,1.5c-12.9-7.2-25.9-14.2-38.6-21.6
				C403.3,506.2,403.8,505.4,404.4,505.7z"/>
			<path class="st118" d="M418.7,499.2c13.1,6.8,26,14,39,21c1,0.5,0.1,2.1-0.9,1.5c-12.9-7.2-25.9-14.2-38.6-21.6
				C417.6,499.8,418.1,498.9,418.7,499.2z"/>
			<path class="st118" d="M424.5,495.7c13.1,6.8,26,14,39,21c1,0.5,0.1,2.1-0.9,1.5c-12.9-7.2-25.9-14.2-38.6-21.6
				C423.4,496.2,423.9,495.4,424.5,495.7z"/>
		</g>
		<g>
			<g>
				<path class="st117" d="M687.2,439.1l2.2,2.5c0.9-0.8,1.9-1.6,3.1-2.3l33.4-19.3c7.6-4.4,19.1-4.8,25.6-1.1l53.3,30.8
					c0.4,0.2,0.7,0.5,1,0.8l2.4-2.8c0,0,2.7,5.2,0.5,10.6c0,0.1-0.1,0.1-0.1,0.2c-0.8,2.1-2.7,4.3-5.7,6l-33.4,19.3
					c-7.6,4.4-19.1,4.8-25.6,1.1l-53.3-30.8c-1.9-1.1-3.1-2.5-3.8-3.9c-0.1-0.2-0.2-0.4-0.3-0.6
					C684.4,444.2,687.2,439.1,687.2,439.1z"/>
				<path class="st134" d="M743.9,479.8L690.6,449c-6.5-3.8-5.7-10.4,1.8-14.8l33.4-19.3c7.6-4.4,19.1-4.8,25.6-1.1l53.3,30.8
					c6.5,3.8,5.7,10.4-1.8,14.8l-33.4,19.3C762,483.1,750.5,483.5,743.9,479.8z"/>
			</g>
			<g>
				<g>
					<path class="st130" d="M744.7,417l-4.3-2.5c-0.4-0.2-1.2-0.2-1.7,0.1l-2.4,1.4c-0.5,0.3-0.5,0.7-0.1,1l4.3,2.5
						c0.4,0.2,1.2,0.2,1.7-0.1l2.4-1.4C745.1,417.7,745.1,417.2,744.7,417z"/>
					<path class="st130" d="M761.6,426.8l-12.9-7.5c-0.4-0.2-1.2-0.2-1.7,0.1l-2.4,1.4c-0.5,0.3-0.5,0.7-0.1,1l12.9,7.5
						c0.4,0.2,1.2,0.2,1.7-0.1l2.4-1.4C762,427.4,762.1,427,761.6,426.8z"/>
					<path class="st130" d="M770,431.6l-4.3-2.5c-0.4-0.2-1.2-0.2-1.7,0.1l-2.4,1.4c-0.5,0.3-0.5,0.7-0.1,1l4.3,2.5
						c0.4,0.2,1.2,0.2,1.7-0.1l2.4-1.4C770.3,432.2,770.4,431.8,770,431.6z"/>
					<path class="st130" d="M732,424.3l-4.3-2.5c-0.4-0.2-1.2-0.2-1.7,0.1l-2.4,1.4c-0.5,0.3-0.5,0.7-0.1,1l4.3,2.5
						c0.4,0.2,1.2,0.2,1.7-0.1l2.4-1.4C732.3,425,732.4,424.6,732,424.3z"/>
					<path class="st130" d="M740.3,429.1l-4.3-2.5c-0.4-0.2-1.2-0.2-1.7,0.1l-2.4,1.4c-0.5,0.3-0.5,0.7-0.1,1l4.3,2.5
						c0.4,0.2,1.2,0.2,1.7-0.1l2.4-1.4C740.7,429.8,740.7,429.4,740.3,429.1z"/>
					<path class="st130" d="M748.9,434.1l-4.3-2.5c-0.4-0.2-1.2-0.2-1.7,0.1l-2.4,1.4c-0.5,0.3-0.5,0.7-0.1,1l4.3,2.5
						c0.4,0.2,1.2,0.2,1.7-0.1l2.4-1.4C749.3,434.8,749.3,434.4,748.9,434.1z"/>
					<path class="st130" d="M757.2,438.9l-4.3-2.5c-0.4-0.2-1.2-0.2-1.7,0.1l-2.4,1.4c-0.5,0.3-0.5,0.7-0.1,1l4.3,2.5
						c0.4,0.2,1.2,0.2,1.7-0.1l2.4-1.4C757.6,439.6,757.6,439.2,757.2,438.9z"/>
					<path class="st130" d="M725.6,428l-4.3-2.5c-0.4-0.2-1.2-0.2-1.7,0.1l-2.4,1.4c-0.5,0.3-0.5,0.7-0.1,1l4.3,2.5
						c0.4,0.2,1.2,0.2,1.7-0.1l2.4-1.4C726,428.7,726,428.3,725.6,428z"/>
					<path class="st130" d="M733.9,432.8l-4.3-2.5c-0.4-0.2-1.2-0.2-1.7,0.1l-2.4,1.4c-0.5,0.3-0.5,0.7-0.1,1l4.3,2.5
						c0.4,0.2,1.2,0.2,1.7-0.1l2.4-1.4C734.3,433.5,734.3,433.1,733.9,432.8z"/>
					<path class="st130" d="M742.5,437.8l-4.3-2.5c-0.4-0.2-1.2-0.2-1.7,0.1l-2.4,1.4c-0.5,0.3-0.5,0.7-0.1,1l4.3,2.5
						c0.4,0.2,1.2,0.2,1.7-0.1l2.4-1.4C742.9,438.5,743,438,742.5,437.8z"/>
					<path class="st130" d="M750.9,442.6l-4.3-2.5c-0.4-0.2-1.2-0.2-1.7,0.1l-2.4,1.4c-0.5,0.3-0.5,0.7-0.1,1l4.3,2.5
						c0.4,0.2,1.2,0.2,1.7-0.1l2.4-1.4C751.2,443.3,751.3,442.8,750.9,442.6z"/>
					<path class="st130" d="M717.5,432.7l-4.3-2.5c-0.4-0.2-1.2-0.2-1.7,0.1l-2.4,1.4c-0.5,0.3-0.5,0.7-0.1,1l4.3,2.5
						c0.4,0.2,1.2,0.2,1.7-0.1l2.4-1.4C717.9,433.3,718,432.9,717.5,432.7z"/>
					<path class="st130" d="M725.9,437.5l-4.3-2.5c-0.4-0.2-1.2-0.2-1.7,0.1l-2.4,1.4c-0.5,0.3-0.5,0.7-0.1,1l4.3,2.5
						c0.4,0.2,1.2,0.2,1.7-0.1l2.4-1.4C726.2,438.2,726.3,437.7,725.9,437.5z"/>
					<path class="st130" d="M734.5,442.4l-4.3-2.5c-0.4-0.2-1.2-0.2-1.7,0.1l-2.4,1.4c-0.5,0.3-0.5,0.7-0.1,1l4.3,2.5
						c0.4,0.2,1.2,0.2,1.7-0.1l2.4-1.4C734.8,443.1,734.9,442.7,734.5,442.4z"/>
					<path class="st130" d="M742.8,447.2l-4.3-2.5c-0.4-0.2-1.2-0.2-1.7,0.1l-2.4,1.4c-0.5,0.3-0.5,0.7-0.1,1l4.3,2.5
						c0.4,0.2,1.2,0.2,1.7-0.1l2.4-1.4C743.1,447.9,743.2,447.5,742.8,447.2z"/>
					<path class="st130" d="M738.3,420.7l-4.3-2.5c-0.4-0.2-1.2-0.2-1.7,0.1l-2.4,1.4c-0.5,0.3-0.5,0.7-0.1,1l4.3,2.5
						c0.4,0.2,1.2,0.2,1.7-0.1l2.4-1.4C738.7,421.3,738.8,420.9,738.3,420.7z"/>
					<path class="st130" d="M746.7,425.5l-4.3-2.5c-0.4-0.2-1.2-0.2-1.7,0.1l-2.4,1.4c-0.5,0.3-0.5,0.7-0.1,1l4.3,2.5
						c0.4,0.2,1.2,0.2,1.7-0.1l2.4-1.4C747,426.1,747.1,425.7,746.7,425.5z"/>
					<path class="st130" d="M755.3,430.4l-4.3-2.5c-0.4-0.2-1.2-0.2-1.7,0.1l-2.4,1.4c-0.5,0.3-0.5,0.7-0.1,1l4.3,2.5
						c0.4,0.2,1.2,0.2,1.7-0.1l2.4-1.4C755.6,431.1,755.7,430.7,755.3,430.4z"/>
					<path class="st130" d="M763.6,435.2l-4.3-2.5c-0.4-0.2-1.2-0.2-1.7,0.1l-2.4,1.4c-0.5,0.3-0.5,0.7-0.1,1l4.3,2.5
						c0.4,0.2,1.2,0.2,1.7-0.1l2.4-1.4C764,435.9,764,435.5,763.6,435.2z"/>
					<path class="st130" d="M778.4,436.4l-4.3-2.5c-0.4-0.2-1.2-0.2-1.7,0.1l-2.4,1.4c-0.5,0.3-0.5,0.7-0.1,1l4.3,2.5
						c0.4,0.2,1.2,0.2,1.7-0.1l2.4-1.4C778.8,437.1,778.8,436.7,778.4,436.4z"/>
					<path class="st130" d="M765.7,443.8l-4.3-2.5c-0.4-0.2-1.2-0.2-1.7,0.1l-8.7,5.1c-0.5,0.3-0.5,0.7-0.1,1l4.3,2.5
						c0.4,0.2,1.2,0.2,1.7-0.1l8.7-5.1C766,444.5,766.1,444,765.7,443.8z"/>
					<path class="st130" d="M751.2,452.1l-4.3-2.5c-0.4-0.2-1.2-0.2-1.7,0.1l-2.4,1.4c-0.5,0.3-0.5,0.7-0.1,1l4.3,2.5
						c0.4,0.2,1.2,0.2,1.7-0.1l2.4-1.4C751.6,452.8,751.6,452.4,751.2,452.1z"/>
					<path class="st130" d="M772,440.1l-4.3-2.5c-0.4-0.2-1.2-0.2-1.7,0.1l-2.4,1.4c-0.5,0.3-0.5,0.7-0.1,1l4.3,2.5
						c0.4,0.2,1.2,0.2,1.7-0.1l2.4-1.4C772.4,440.8,772.5,440.4,772,440.1z"/>
				</g>
				<g>
					<path class="st130" d="M786.7,441.2l-4.3-2.5c-0.4-0.2-1.2-0.2-1.7,0.1l-2.4,1.4c-0.5,0.3-0.5,0.7-0.1,1l4.3,2.5
						c0.4,0.2,1.2,0.2,1.7-0.1l2.4-1.4C787.1,441.9,787.1,441.5,786.7,441.2z"/>
					<path class="st130" d="M803.6,451l-12.9-7.5c-0.4-0.2-1.2-0.2-1.7,0.1l-2.4,1.4c-0.5,0.3-0.5,0.7-0.1,1l12.9,7.5
						c0.4,0.2,1.2,0.2,1.7-0.1l2.4-1.4C804,451.7,804.1,451.3,803.6,451z"/>
					<path class="st130" d="M774,448.6l-4.3-2.5c-0.4-0.2-1.2-0.2-1.7,0.1l-2.4,1.4c-0.5,0.3-0.5,0.7-0.1,1l4.3,2.5
						c0.4,0.2,1.2,0.2,1.7-0.1l2.4-1.4C774.4,449.3,774.4,448.8,774,448.6z"/>
					<path class="st130" d="M782.3,453.4l-4.3-2.5c-0.4-0.2-1.2-0.2-1.7,0.1l-2.4,1.4c-0.5,0.3-0.5,0.7-0.1,1l4.3,2.5
						c0.4,0.2,1.2,0.2,1.7-0.1l2.4-1.4C782.7,454.1,782.7,453.6,782.3,453.4z"/>
					<path class="st130" d="M790.9,458.4l-4.3-2.5c-0.4-0.2-1.2-0.2-1.7,0.1l-2.4,1.4c-0.5,0.3-0.5,0.7-0.1,1l4.3,2.5
						c0.4,0.2,1.2,0.2,1.7-0.1l2.4-1.4C791.3,459,791.3,458.6,790.9,458.4z"/>
					<path class="st130" d="M767.6,452.3l-4.3-2.5c-0.4-0.2-1.2-0.2-1.7,0.1l-2.4,1.4c-0.5,0.3-0.5,0.7-0.1,1l4.3,2.5
						c0.4,0.2,1.2,0.2,1.7-0.1l2.4-1.4C768,452.9,768,452.5,767.6,452.3z"/>
					<path class="st130" d="M775.9,457.1l-4.3-2.5c-0.4-0.2-1.2-0.2-1.7,0.1l-2.4,1.4c-0.5,0.3-0.5,0.7-0.1,1l4.3,2.5
						c0.4,0.2,1.2,0.2,1.7-0.1l2.4-1.4C776.3,457.7,776.4,457.3,775.9,457.1z"/>
					<path class="st130" d="M784.6,462l-4.3-2.5c-0.4-0.2-1.2-0.2-1.7,0.1l-2.4,1.4c-0.5,0.3-0.5,0.7-0.1,1l4.3,2.5
						c0.4,0.2,1.2,0.2,1.7-0.1l2.4-1.4C784.9,462.7,785,462.3,784.6,462z"/>
					<path class="st130" d="M759.5,456.9l-4.3-2.5c-0.4-0.2-1.2-0.2-1.7,0.1l-2.4,1.4c-0.5,0.3-0.5,0.7-0.1,1l4.3,2.5
						c0.4,0.2,1.2,0.2,1.7-0.1l2.4-1.4C759.9,457.6,760,457.2,759.5,456.9z"/>
					<path class="st130" d="M767.9,461.7l-4.3-2.5c-0.4-0.2-1.2-0.2-1.7,0.1l-2.4,1.4c-0.5,0.3-0.5,0.7-0.1,1l4.3,2.5
						c0.4,0.2,1.2,0.2,1.7-0.1l2.4-1.4C768.2,462.4,768.3,462,767.9,461.7z"/>
					<path class="st130" d="M776.5,466.7l-4.3-2.5c-0.4-0.2-1.2-0.2-1.7,0.1l-2.4,1.4c-0.5,0.3-0.5,0.7-0.1,1l4.3,2.5
						c0.4,0.2,1.2,0.2,1.7-0.1l2.4-1.4C776.8,467.4,776.9,466.9,776.5,466.7z"/>
					<path class="st130" d="M744.3,456l-4.3-2.5c-0.4-0.2-1.2-0.2-1.7,0.1l-2.4,1.4c-0.5,0.3-0.5,0.7-0.1,1l4.3,2.5
						c0.4,0.2,1.2,0.2,1.7-0.1l2.4-1.4C744.6,456.7,744.7,456.3,744.3,456z"/>
					<path class="st130" d="M752.6,460.8l-4.3-2.5c-0.4-0.2-1.2-0.2-1.7,0.1l-2.4,1.4c-0.5,0.3-0.5,0.7-0.1,1l4.3,2.5
						c0.4,0.2,1.2,0.2,1.7-0.1l2.4-1.4C753,461.5,753,461.1,752.6,460.8z"/>
					<path class="st130" d="M760.9,465.6l-4.3-2.5c-0.4-0.2-1.2-0.2-1.7,0.1l-2.4,1.4c-0.5,0.3-0.5,0.7-0.1,1l4.3,2.5
						c0.4,0.2,1.2,0.2,1.7-0.1l2.4-1.4C761.3,466.3,761.3,465.9,760.9,465.6z"/>
					<path class="st130" d="M769.5,470.6l-4.3-2.5c-0.4-0.2-1.2-0.2-1.7,0.1l-2.4,1.4c-0.5,0.3-0.5,0.7-0.1,1l4.3,2.5
						c0.4,0.2,1.2,0.2,1.7-0.1l2.4-1.4C769.9,471.3,770,470.8,769.5,470.6z"/>
					<path class="st130" d="M780.4,444.9l-4.3-2.5c-0.4-0.2-1.2-0.2-1.7,0.1l-2.4,1.4c-0.5,0.3-0.5,0.7-0.1,1l4.3,2.5
						c0.4,0.2,1.2,0.2,1.7-0.1l2.4-1.4C780.7,445.6,780.8,445.2,780.4,444.9z"/>
					<path class="st130" d="M788.7,449.7l-4.3-2.5c-0.4-0.2-1.2-0.2-1.7,0.1l-2.4,1.4c-0.5,0.3-0.5,0.7-0.1,1l4.3,2.5
						c0.4,0.2,1.2,0.2,1.7-0.1l2.4-1.4C789,450.4,789.1,450,788.7,449.7z"/>
					<path class="st130" d="M797.3,454.7l-4.3-2.5c-0.4-0.2-1.2-0.2-1.7,0.1l-2.4,1.4c-0.5,0.3-0.5,0.7-0.1,1l4.3,2.5
						c0.4,0.2,1.2,0.2,1.7-0.1l2.4-1.4C797.7,455.4,797.7,454.9,797.3,454.7z"/>
				</g>
			</g>
			<g>
				<path class="st117" d="M654.9,380.2c2-3.7,6.3-4.1,6.8-4.1c0,0,0,0,0.1,0c0,0,0.1,0,0.1,0l0,0c1.5-0.1,3.3,0.5,4.9,1.5l63,36
					c3.9,2.2,7.3,7.1,9.1,12.3c0.7,2.1,12.8,30.5,16.3,39.9c1.5,3.9,1.9,6.5,1.6,8.3c0,0,0,0,0,0c0,0,0,0,0,0c0,0.3-0.1,0.5-0.2,0.8
					c-0.9,4.2-6.3,4.5-6.3,4.5l-0.5-3.9c-0.1-0.1-0.3-0.1-0.4-0.2l-56.8-32.8c-5.7-3.3-10.2-10.9-13.8-18.6c0,0-13.4-28.5-17.5-37.4
					l-1.2,1.1C660,387.5,653.6,382.8,654.9,380.2z"/>
				<path class="st118" d="M688.3,445l56.8,32.8c5.7,3.3,10,1.8,5.8-9.4c-3.5-9.4-15.6-37.8-16.3-39.9c-1.8-5.2-5.2-10.1-9.1-12.3
					l-63-36c-3.4-2-7.3-2.4-8,1.1c-0.3,1.4,0.4,3.4,1.2,5c0.5,1.2,18.8,40.1,18.8,40.1C678.1,434,682.6,441.7,688.3,445z"/>
			</g>
			<g>
				<polygon class="st136" points="730.7,474.8 739.7,480 736.4,471.8 727.4,466.6 				"/>
				<polygon class="st130" points="727.4,466.6 728.9,465.7 737.8,470.9 736.4,471.8 				"/>
				<polygon class="st137" points="739.7,480 741.2,479.2 737.8,470.9 736.4,471.8 				"/>
			</g>
			<g>
				<polygon class="st136" points="692.2,452.4 701.1,457.6 697.8,449.4 688.9,444.2 				"/>
				<polygon class="st130" points="688.9,444.2 690.3,443.4 699.3,448.5 697.8,449.4 				"/>
				<polygon class="st137" points="701.1,457.6 702.6,456.8 699.3,448.5 697.8,449.4 				"/>
			</g>
		</g>
		<g>
			<path class="st121" d="M491.2,569c4-2.3,7.7-11,14.3-17.4c6.6-6.4,8.3-8.7,10.3-8.7c2,0,4,2.6,0,6.9c-4,4.2-5.6,8.3-5.6,8.3
				s6.8-0.4,14.4-5.1s11.3-8.4,15.3-5c4,3.4-3.6,16.8-11.4,20.8c-7.8,4-19.8,5.4-22.3,7c-2.5,1.7-10.3,3.7-10.3,3.7L491.2,569z"/>
			<path class="st130" d="M370.7,854.7c-1.3,3.7-4.3,11.1-8.2,17.6c-4.9,8.3,0.6,14.6,7.1,16.8c7,2.3,16.7,0.8,33-7.9
				c16.3-8.7,23.4-17.2,24-22.8c0.6-5.6-7.6-13.7-21.7-9.3c-14.1,4.4-21.2,7.7-21.2,7.7L370.7,854.7z"/>
			<path class="st130" d="M275.1,777.3c0,0-14.3,8.6-19.5,11.8c-0.1,2.3,2.8,8.9,10.7,23c7.9,14.1,22,21.5,33.6,13.9
				c11.6-7.5,19.4-19.6,9.7-22.9c-9.7-3.3-18,0-18,0s-3.2-7.8-6.8-16.1C281.3,778.7,275.1,777.3,275.1,777.3z"/>
			<path class="st117" d="M255.6,789.1c0,0,12.7,1,16.5,14.1c3.9,13.1,11.2,22.9,14.4,25.5c-11.4-1.4-15-5.3-22.1-18.7
				C258.4,798.7,252.4,791.2,255.6,789.1z"/>
			<path class="st117" d="M289.4,798.1c-0.7,0,1.2,4.8,0,9.3c-1.3,4.9-0.6,8,2.5,4.9c3.1-3.1,1.3-9.6,1.3-9.6S292.4,798,289.4,798.1
				z"/>
			<path class="st117" d="M393.6,852.8c1.5,1.2,8.2,3.9,12.2,9c4,5.1,8.4,0.9,5.5-4.2c-2.9-5.1-10.3-7.3-10.3-7.3
				S395,851.3,393.6,852.8z"/>
			<path class="st117" d="M317.6,604c0,0-13.2,5.9-17.8,30.9c-2.1,11.3,1.7,27.7,6.4,42.5c5.8,18,13.1,33.5,13.1,33.5
				s-14.4,6.3-26.8,24.2c-7.9,11.4-24.1,46.4-24.1,46.4s1.8,4.5,7.1,8.9c5.4,4.5,12.8,4.5,12.8,4.5s30.9-37,45.2-55.1
				c14.3-18.1,20.4-16.8,19.9-29.8c-0.5-11.1,0.6-66.1,0.6-66.1L317.6,604z"/>
			<path class="st118" d="M385,635.5c0,0,16.7,22.9,28.5,50.9c8.4,19.9,16,44.6,19.7,57.1c1.5,5.1,0.9,11.4-1.5,16.6
				c-5.6,12.2-16.3,35.4-24.2,53c-11.2,25-13.4,38.5-16.6,48.2c-4.8,6.1-18.3,5.7-21.8,0c0.1-16.7-2.8-20.4,0-51.2
				c3.9-42.8,26.8-54.5,26.8-54.5s-11.3-12.7-14.5-31.7c-17.9-8-27.8-24.9-33.9-36.3c-26-8.3-59.5-25.2-47.9-62.2
				c2.4-7.5,10.8-26.5,17.2-28.2C341.8,590.6,385,635.5,385,635.5z"/>
			<path class="st121" d="M420.1,425.4c-6.8-7.5-17.1-9.3-27-6.2c-9.4,3-14.3,8.4-16.3,14.9c-0.7,2.2-2.5,11.8-2.1,14.8
				c1.1,8.9,7.5,20,10.3,26c3.5,7.6,10.7,12.6,20.2,11.3c12.8-1.8,15.7-17.8,19.1-28.2C428.3,446,429,435.3,420.1,425.4z"/>
			<linearGradient id="SVGID_23_" gradientUnits="userSpaceOnUse" x1="281.7827" y1="525.569" x2="362.5417" y2="525.569">
				<stop  offset="0" style="stop-color:#6E376E"/>
				<stop  offset="1" style="stop-color:#CA4B7C"/>
			</linearGradient>
			<path style="fill:url(#SVGID_23_);" d="M362.4,478.3c0,0-16.2-19.2-32-9.1c-19.8,12.8-22.3,33.6-33.1,46
				c-10.8,12.4-12.6,15.4-15,23.9c-1.5,5.5,0.8,8.8,4.1,11.2c1.7,1.3,5.2,13.6,7.5,17.2c4.5,7.2,17.5,17.5,17.5,17.5
				S366.1,489.6,362.4,478.3z"/>
			<linearGradient id="SVGID_24_" gradientUnits="userSpaceOnUse" x1="300.7495" y1="560.4902" x2="428.1587" y2="560.4902">
				<stop  offset="0" style="stop-color:#CA4B7C"/>
				<stop  offset="1" style="stop-color:#FE7087"/>
			</linearGradient>
			<path style="fill:url(#SVGID_24_);" d="M383.7,486.6c-23.4-14.1-29.8-20.4-48.9-9.2c-11.9,7-20,35.4-21.5,50.8
				c-1.5,15.4-10.6,47.1-8.3,54.4c1.9,6.1,9.2,8-0.4,14.4c-7.7,5.1-1.8,8.8,0.4,15.3c4.1,12.1,22.1,30.6,43.4,34.6
				c21.3,4,38.2,2.6,42.8-2.4c4.6-5,5.3-9.7,0.1-17.6c-3.5-5.3,2.8-12.4,6.4-18.8c3.7-6.7,23.8-48.5,29.6-71.7
				C433,513.3,410.4,502.7,383.7,486.6z"/>
			<path class="st121" d="M381,442.9c0,0-3.4,13.3-6.3,19.3c-4.2,8.5-12.4,13.5-12.4,13.5s-9.8,10.8,2.6,18.5
				c12.4,7.7,30-1.6,30-1.6s1.2-7.3,8.1-19.1C408.1,465,381,442.9,381,442.9z"/>
			<path class="st117" d="M427.1,423.3c1-11.1-12.3-16-18.6-9.5c-3.4-12.5-21.9-15.1-32.1-10.3c-4.2,2-7.4,7-7.5,11.3
				c-4.7-1.3-11.5,2.4-12.3,7.9c-0.6,3.7,1.4,8,3.5,10.6c-2.1,1.6-5,4-4.4,9.3c1.8,14.2,17.4,22.6,16.8,36c5.6-0.4,14.5-2.7,22-4.9
				c8.7-2.6,22.1-12.5,24.5-20.1c6.3,0.9,9.1-3.9,9.1-8.7C437.3,442.9,439,428.2,427.1,423.3z"/>
			<path class="st121" d="M399.5,459.6c-5.5,9.5,4.3,15.1,4.3,15.1l8.7-9.7C412.6,465,405.7,448.8,399.5,459.6z"/>
			<linearGradient id="SVGID_25_" gradientUnits="userSpaceOnUse" x1="326.8197" y1="620.8137" x2="374.733" y2="620.8137">
				<stop  offset="0" style="stop-color:#6E376E"/>
				<stop  offset="1" style="stop-color:#CA4B7C"/>
			</linearGradient>
			<path style="fill:url(#SVGID_25_);" d="M326.8,607.3c0,0,12.7,19.2,27.3,23.2c14.7,4.1,20.6,3.9,20.6,3.9s-8.3-9.3-19.1-13.6
				C344.8,616.6,326.8,607.3,326.8,607.3z"/>
			<linearGradient id="SVGID_26_" gradientUnits="userSpaceOnUse" x1="381.4451" y1="558.6755" x2="504.5614" y2="558.6755">
				<stop  offset="0" style="stop-color:#6E376E"/>
				<stop  offset="1" style="stop-color:#CA4B7C"/>
			</linearGradient>
			<path class="st52" d="M400.9,511c-7.8,6.5-14.6,22.8-17.7,37.5c-3.2,14.7-2.3,29,4.7,33.9c7,5,10.3,6.2,20.1,4
				c2.5,5.7,14.1,15.1,31.2,25.2c28.9,0,48.1-26.9,64.3-33.9c2.7-5.3,0-16-6.6-16c-8.6,2.7-15.8,4.6-27.5,7
				c-8.9,1.8-15.1,3.5-21.3,6.4c0,0-11.2-46.7-16-54.7C420.7,501.6,409.7,503.8,400.9,511z"/>
			<linearGradient id="SVGID_27_" gradientUnits="userSpaceOnUse" x1="353.4684" y1="485.746" x2="398.8123" y2="485.746">
				<stop  offset="0" style="stop-color:#6E376E"/>
				<stop  offset="1" style="stop-color:#CA4B7C"/>
			</linearGradient>
			<path style="fill:url(#SVGID_27_);" d="M361.4,471.7c-5.3,1.1-13.3,10.3-2.7,21.5c10.6,11.2,29.7,5.8,34.9,4.1
				c5.2-1.7,5.2-1.7,5.2-1.7s0.2-8.2-11.7-9.9c-7.2-1-17.6-4.7-20.1-9.6C364.4,471.1,364.4,471.1,361.4,471.7z"/>
		</g>
		<g>
			<path class="st153" d="M146.4,643.9c0,0,6.3-8.4,17-1.7c10.7,6.7,45.3,26.8,45.3,26.8l1.5,22.5L146.4,643.9z"/>
			<path class="st123" d="M146.4,833.9c11.2-7.6,23.1-14.5,34.4-21.6c6.6-4.1,13.6-10.3,20.9-12.8c3-1,6.6-1,8.4,2.1
				c2.2,3.6-0.4,5.7-3.3,7.4c-8,4.6-16.2,9-24.2,13.6c-12,6.9-23.9,14.1-35.7,21.5L146.4,833.9z"/>
			<path class="st123" d="M219.2,809.5c1.6-3.2,5.2-3.4,8.2-2.6c7.5,2,14.9,7.7,21.7,11.5c14.8,8.1,30.5,15.7,44.7,25l0.2,9.5
				c-15.2-8.3-30.5-16.4-46-24.1c-8.3-4.1-16.7-8-25-12.1C219.9,815.2,217.3,813.3,219.2,809.5z"/>
			<path class="st116" d="M134.6,835.5c0.9-24.5,2.8-48.7,5.7-72.7c0.1-1,0.8-1.4,1.4-1c1.9,1.4,3.8,2.8,5.7,4.1
				c0.2,0.2,0.4,0.4,0.5,0.7c0.2-0.9,1.2-0.9,1.3,0.3c1.7,25.5,2.1,51.2,3,76.8c0.4,11.6,4.9,30.6-10.4,30.5
				C130.3,874.2,134.2,846.7,134.6,835.5z"/>
			<path class="st116" d="M302.7,843.2c-0.9-24.5-2.8-48.7-5.7-72.7c-0.1-1-0.8-1.4-1.4-1c-1.9,1.4-3.8,2.8-5.7,4.1
				c-0.2,0.2-0.4,0.4-0.5,0.7c-0.2-0.9-1.2-0.9-1.3,0.3c-1.7,25.5-2.1,51.2-3,76.8c-0.4,11.6-4.9,30.6,10.4,30.5
				C307,881.9,303.1,854.4,302.7,843.2z"/>
			<path class="st123" d="M144,846.2c1.6-3.2,5.2-3.4,8.2-2.6c7.5,2,14.9,7.7,21.7,11.5c14.8,8.1,30.5,15.7,44.7,25l0.2,9.5
				c-15.2-8.3-30.5-16.4-46-24.1c-8.3-4.1-16.7-8-25-12.1C144.7,851.9,142,850,144,846.2z"/>
			<path class="st123" d="M228.8,878.8c11.2-7.6,23.1-14.5,34.4-21.6c6.6-4.1,13.6-10.3,20.9-12.8c3-1,6.6-1,8.4,2.1
				c2.2,3.6-0.4,5.7-3.3,7.4c-8,4.6-16.2,9-24.2,13.6c-12,6.9-23.9,14.1-35.7,21.5L228.8,878.8z"/>
			<path class="st116" d="M218.6,812.9l9.7-8.1c1.7,25.4,4.2,60.2,5.1,85.7c0.4,11.6,4.9,30.6-10.4,30.5
				c-11.4-0.1-7.5-27.6-7.1-38.8C216.6,859.1,215.9,835.4,218.6,812.9z"/>
			<g>
				<path class="st123" d="M136.4,760.9h8.4l53.1-30.6c7.1-4.1,19.6-3.6,27.7,1.2l61.9,35.5l11.7,1.1l-0.1,9.8c0.1,0.4,0,0.8,0,1.2
					l0,1l0,0c-0.4,2.1-1.9,4.2-4.6,5.7l-56.7,32.7c-7.1,4.1-19.6,3.6-27.7-1.2L143.2,779c-4.8-2.8-7-6.3-6.7-9.7l-0.1,0
					C136.4,769.3,136.7,761.9,136.4,760.9z"/>
				<path class="st124" d="M237.7,807.7l56.7-32.7c7.1-4.1,6.2-11.3-2-16l-66.8-38.1c-8.2-4.7-20.7-5.2-27.7-1.2l-56.7,32.7
					c-7.1,4.1-6.2,11.3,2,16l66.8,38.1C218.1,811.3,230.6,811.8,237.7,807.7z"/>
			</g>
			<g>
				<path class="st151" d="M258.1,778.4c-13.2,7.1-28.1,18.7-43.8,13.6c-13.7-4.4-26.7-14.1-38.8-21.6c-8.4-5.2-16.4-10.5-22.7-17.7
					c4.2-6,11.9-11.1,16.5-14.4c13-9.3,47.3-26.4,51.9-26c2.1,0.2,4.2,0.6,6.3,1.1c8.5,2.2,17.3,6.8,24.7,10.2
					c10.8,4.9,21.3,10.8,30.4,18.4c2.9,2.4,6.7,5.2,8.8,8.6C290.9,764.8,268.6,772.7,258.1,778.4z"/>
				<path class="st151" d="M291.1,770c-8.2,6-23.2,12.3-30.6,16.8c-7.9,4.8-23.6,15.9-32.3,17.9c-5.4,1.3-15.3-1.3-21.8-4.7
					c-9.9-5.1-19.3-11-29-16.5c-7.8-4.5-19-8.5-24.8-15.8c-4.2-5.2-3.1-10.4,0.2-15.1c6.2,7.2,14.3,12.5,22.7,17.7
					c12.1,7.5,25.1,17.2,38.8,21.6c15.6,5,30.6-6.5,43.8-13.6c10.5-5.7,32.8-13.5,33.4-27.7c0.2,0.4,0.5,0.8,0.6,1.2
					C294.1,756.2,295.4,766.9,291.1,770z"/>
			</g>
			<path class="st123" d="M130.9,617.3c-5,2.7-3.2,11,0.9,28.9c2,8.7,4.2,41.4,4.7,55.8c0.4,14.5-0.7,58.3,0,67.2
				c0.7,8.9,8,9.6,8.6,2.1c0.5-7.5,3.9-58.8,3.8-74.6c-0.1-15.8-2.1-53.6-5.4-67C140,616.3,135.2,615,130.9,617.3z"/>
			<path class="st116" d="M138.3,639.2l69.1,39.8l2.9,53.5L143.6,694c0,0,0.6-17.9-1.3-31.4C140.8,652.1,138.3,639.2,138.3,639.2z"
				/>
			<polygon class="st124" points="143.8,635.7 138.3,639.2 207.3,679 212.8,675.5 			"/>
			<path class="st123" d="M202.8,658.2c-5,2.7-3.2,11,0.9,28.9c2,8.7,4.2,41.4,4.7,55.8c0.4,14.5-0.7,58.3,0,67.2
				c0.7,8.9,8,9.6,8.6,2.1c0.5-7.5,3.9-58.8,3.8-74.6c-0.1-15.8-2.1-53.6-5.4-67C211.9,657.3,207.1,656,202.8,658.2z"/>
		</g>
		<g>
			<path class="st153" d="M915.9,646.7c0,0-6.3-8.4-17.1-1.7c-10.7,6.7-45.3,26.8-45.3,26.8l-1.5,22.5L915.9,646.7z"/>
			<path class="st123" d="M915.9,836.7c-11.2-7.6-23.1-14.5-34.4-21.6c-6.6-4.1-13.6-10.3-20.9-12.8c-3-1-6.6-1-8.4,2.1
				c-2.2,3.6,0.4,5.7,3.3,7.4c8,4.6,16.2,9,24.2,13.6c12,6.9,23.9,14.1,35.7,21.5L915.9,836.7z"/>
			<path class="st123" d="M843.1,812.3c-1.6-3.2-5.2-3.4-8.2-2.6c-7.5,2-14.9,7.7-21.7,11.5c-14.8,8.1-30.5,15.7-44.7,25l-0.2,9.5
				c15.2-8.3,30.5-16.4,46-24.1c8.3-4.1,16.7-8,25-12.1C842.3,818,845,816.1,843.1,812.3z"/>
			<path class="st116" d="M927.7,838.3c-0.9-24.5-2.8-48.7-5.7-72.7c-0.1-1-0.8-1.4-1.4-1c-1.9,1.4-3.8,2.8-5.7,4.1
				c-0.2,0.2-0.4,0.4-0.5,0.7c-0.2-0.9-1.2-0.9-1.3,0.3c-1.7,25.5-2.1,51.2-3,76.8c-0.4,11.6-4.9,30.6,10.4,30.5
				C931.9,877,928.1,849.5,927.7,838.3z"/>
			<path class="st116" d="M759.5,846c0.9-24.5,2.8-48.7,5.7-72.7c0.1-1,0.8-1.4,1.4-1c1.9,1.4,3.8,2.8,5.7,4.1
				c0.2,0.2,0.4,0.4,0.5,0.7c0.2-0.9,1.2-0.9,1.3,0.3c1.7,25.5,2.1,51.2,3,76.8c0.4,11.6,4.9,30.6-10.4,30.5
				C755.3,884.7,759.1,857.2,759.5,846z"/>
			<path class="st123" d="M918.3,849c-1.6-3.2-5.2-3.4-8.2-2.6c-7.5,2-14.9,7.7-21.7,11.5c-14.8,8.1-30.5,15.7-44.7,25l-0.2,9.5
				c15.2-8.3,30.5-16.4,46-24.1c8.3-4.1,16.7-8,25-12.1C917.5,854.7,920.2,852.8,918.3,849z"/>
			<path class="st123" d="M833.5,881.6c-11.2-7.6-23.1-14.5-34.4-21.6c-6.6-4.1-13.6-10.3-20.9-12.8c-3-1-6.6-1-8.4,2.1
				c-2.2,3.6,0.4,5.7,3.3,7.4c8,4.6,16.2,9,24.2,13.6c12,6.9,23.9,14.1,35.7,21.5L833.5,881.6z"/>
			<path class="st116" d="M843.7,815.7l-9.7-8.1c-1.7,25.4-4.2,60.2-5.1,85.7c-0.4,11.6-4.9,30.6,10.4,30.5
				c11.4-0.1,7.5-27.6,7.1-38.8C845.6,861.9,846.3,838.2,843.7,815.7z"/>
			<g>
				<path class="st123" d="M925.8,763.7h-8.4L864.4,733c-7.1-4.1-19.6-3.6-27.7,1.2l-61.9,35.5l-11.7,1.1l0.1,9.8
					c-0.1,0.4,0,0.8,0,1.2l0,1l0,0c0.4,2.1,1.9,4.2,4.6,5.7l56.7,32.7c7.1,4.1,19.6,3.6,27.7-1.1l66.8-38.3c4.8-2.8,7-6.3,6.7-9.7
					l0.1,0C925.8,772.1,925.6,764.7,925.8,763.7z"/>
				<path class="st124" d="M824.5,810.5l-56.7-32.7c-7.1-4.1-6.2-11.3,2-16l66.8-38.1c8.2-4.7,20.7-5.2,27.7-1.2l56.7,32.7
					c7.1,4.1,6.2,11.3-2,16l-66.8,38.1C844.1,814.1,831.6,814.6,824.5,810.5z"/>
			</g>
			<g>
				<path class="st151" d="M804.2,781.2c13.2,7.1,28.1,18.7,43.8,13.6c13.7-4.4,26.7-14.1,38.8-21.6c8.4-5.2,16.4-10.5,22.7-17.7
					c-4.2-6-11.9-11.1-16.5-14.4c-13-9.3-47.3-26.4-51.9-26c-2.1,0.2-4.2,0.6-6.3,1.1c-8.5,2.2-17.3,6.8-24.7,10.2
					c-10.8,4.9-21.3,10.8-30.4,18.4c-2.9,2.4-6.7,5.2-8.8,8.6C771.3,767.6,793.6,775.5,804.2,781.2z"/>
				<path class="st151" d="M771.1,772.8c8.2,6,23.2,12.3,30.6,16.8c7.9,4.8,23.6,15.9,32.3,17.9c5.4,1.3,15.3-1.3,21.8-4.7
					c9.9-5.1,19.3-11,29-16.5c7.8-4.5,19-8.5,24.8-15.8c4.2-5.2,3.1-10.4-0.2-15.1c-6.2,7.2-14.3,12.5-22.7,17.7
					c-12.1,7.5-25.1,17.2-38.8,21.6c-15.6,5-30.6-6.5-43.8-13.6c-10.5-5.7-32.8-13.5-33.4-27.7c-0.2,0.4-0.5,0.8-0.6,1.2
					C768.2,759,766.8,769.7,771.1,772.8z"/>
			</g>
			<path class="st123" d="M931.4,620.1c5,2.7,3.2,11-0.9,28.9c-2,8.7-4.2,41.4-4.7,55.8c-0.4,14.5,0.7,58.3,0,67.2
				c-0.7,8.9-8,9.6-8.6,2.1c-0.5-7.5-3.9-58.8-3.8-74.6c0.1-15.8,2.1-53.6,5.4-67C922.3,619.1,927.1,617.8,931.4,620.1z"/>
			<path class="st116" d="M924,642l-69.1,39.8l-2.9,53.5l66.6-38.5c0,0-0.6-17.9,1.3-31.4C921.4,654.9,924,642,924,642z"/>
			<polygon class="st124" points="918.5,638.5 924,642 854.9,681.8 849.4,678.3 			"/>
			<path class="st123" d="M859.4,661c5,2.7,3.2,11-0.9,28.9c-2,8.7-4.2,41.4-4.7,55.8c-0.4,14.5,0.7,58.3,0,67.2
				c-0.7,8.9-8,9.6-8.6,2.1c-0.5-7.5-3.9-58.8-3.8-74.6c0.1-15.8,2.1-53.6,5.4-67C850.3,660.1,855.1,658.8,859.4,661z"/>
		</g>
		<g>
			<linearGradient id="SVGID_28_" gradientUnits="userSpaceOnUse" x1="651.8041" y1="497.4917" x2="701.6029" y2="497.4917">
				<stop  offset="0" style="stop-color:#FE7087"/>
				<stop  offset="1" style="stop-color:#FE9D82"/>
			</linearGradient>
			<polygon style="fill:url(#SVGID_28_);" points="678.5,512.3 701.6,498.6 674.9,482.6 651.8,496.4 			"/>
			<linearGradient id="SVGID_29_" gradientUnits="userSpaceOnUse" x1="678.4911" y1="512.4288" x2="701.6029" y2="512.4288">
				<stop  offset="0" style="stop-color:#FE7087"/>
				<stop  offset="1" style="stop-color:#FE9D82"/>
			</linearGradient>
			<polygon style="fill:url(#SVGID_29_);" points="678.5,526.3 678.5,512.3 701.6,498.6 701.6,512.5 			"/>
			<linearGradient id="SVGID_30_" gradientUnits="userSpaceOnUse" x1="651.8041" y1="511.3622" x2="678.4911" y2="511.3622">
				<stop  offset="0" style="stop-color:#FE7087"/>
				<stop  offset="1" style="stop-color:#FE9D82"/>
			</linearGradient>
			<polygon style="fill:url(#SVGID_30_);" points="651.8,510.4 651.8,496.4 678.5,512.3 678.5,526.3 			"/>
			<linearGradient id="SVGID_31_" gradientUnits="userSpaceOnUse" x1="672.0659" y1="510.3763" x2="685.1" y2="510.3763">
				<stop  offset="0" style="stop-color:#FE7087"/>
				<stop  offset="1" style="stop-color:#FE9D82"/>
			</linearGradient>
			<path style="fill:url(#SVGID_31_);" d="M685.1,508.4l-6.6,3.9l-6.4-3.8c0,0,4.3,0.8,6.6,0.8C681.6,509.2,685.1,508.4,685.1,508.4
				z"/>
			<linearGradient id="SVGID_32_" gradientUnits="userSpaceOnUse" x1="672.2853" y1="507.8579" x2="685.1" y2="507.8579">
				<stop  offset="0" style="stop-color:#FE7087"/>
				<stop  offset="1" style="stop-color:#FE9D82"/>
			</linearGradient>
			<path style="fill:url(#SVGID_32_);" d="M685.1,508.4c0,0-2.8,0.5-4.4-0.2c-2-0.9-2.6-2.2-2.6-2.2s-0.8,1.3-2.2,2
				c-0.9,0.4-3.6,0.6-3.6,0.6s2.1,1,6.2,1C682.3,509.6,685.1,508.4,685.1,508.4z"/>
		</g>
		<g>
			<linearGradient id="SVGID_33_" gradientUnits="userSpaceOnUse" x1="553.7386" y1="396.2341" x2="603.5374" y2="396.2341">
				<stop  offset="0" style="stop-color:#6E376E"/>
				<stop  offset="1" style="stop-color:#CA4B7C"/>
			</linearGradient>
			<polygon style="fill:url(#SVGID_33_);" points="576.9,411.1 553.7,397.3 580.4,381.4 603.5,395.2 			"/>
			<linearGradient id="SVGID_34_" gradientUnits="userSpaceOnUse" x1="553.7386" y1="411.1714" x2="576.85" y2="411.1714">
				<stop  offset="0" style="stop-color:#6E376E"/>
				<stop  offset="1" style="stop-color:#CA4B7C"/>
			</linearGradient>
			<polygon class="st60" points="576.9,425 576.9,411.1 553.7,397.3 553.7,411.3 			"/>
			<linearGradient id="SVGID_35_" gradientUnits="userSpaceOnUse" x1="576.85" y1="410.1048" x2="603.5374" y2="410.1048">
				<stop  offset="0" style="stop-color:#6E376E"/>
				<stop  offset="1" style="stop-color:#CA4B7C"/>
			</linearGradient>
			<polygon style="fill:url(#SVGID_35_);" points="603.5,409.1 603.5,395.2 576.9,411.1 576.9,425 			"/>
			<linearGradient id="SVGID_36_" gradientUnits="userSpaceOnUse" x1="570.2412" y1="409.1189" x2="583.2753" y2="409.1189">
				<stop  offset="0" style="stop-color:#6E376E"/>
				<stop  offset="1" style="stop-color:#CA4B7C"/>
			</linearGradient>
			<path style="opacity:0.5;fill:url(#SVGID_36_);" d="M570.2,407.1l6.6,3.9l6.4-3.8c0,0-4.3,0.8-6.6,0.8
				C573.8,407.9,570.2,407.1,570.2,407.1z"/>
			<linearGradient id="SVGID_37_" gradientUnits="userSpaceOnUse" x1="570.2412" y1="406.6004" x2="583.0562" y2="406.6004">
				<stop  offset="0" style="stop-color:#6E376E"/>
				<stop  offset="1" style="stop-color:#CA4B7C"/>
			</linearGradient>
			<path style="fill:url(#SVGID_37_);" d="M570.2,407.1c0,0,2.8,0.5,4.4-0.2c2-0.9,2.6-2.2,2.6-2.2s0.8,1.3,2.2,2
				c0.9,0.4,3.6,0.6,3.6,0.6s-2.1,1-6.2,1C573,408.4,570.2,407.1,570.2,407.1z"/>
		</g>
		<g>
			<path class="st15" d="M558.2,501.1c0-3-1.5-5.6-3.7-6.8c-2.1-1.2-3.6-0.7-5.1,0.5l-4.5-8.1c2.6-2.5,6.3-3.1,10.7-0.6
				c6,3.4,10.5,10,10.5,18.8c0,9.2-8.4,7.1-7.7,16.4l-7.2-4.2C550,506.3,558.2,506.7,558.2,501.1z M549.8,527.6
				c0-3.9,2.1-5.7,4.9-4.1c2.8,1.6,5,5.8,5,9.8c0,3.9-2.1,5.6-5,4C551.9,535.6,549.8,531.4,549.8,527.6z"/>
		</g>
		<g>
			<path class="st136" d="M748.4,503.8c0-1.1-0.6-2.3-1.4-2.8c-0.3-0.2-0.6-0.2-0.9-0.1l0,0l-4.7,2.7l2,3.9l4.6-2.6
				C748.2,504.7,748.4,504.3,748.4,503.8z"/>
			<path class="st119" d="M741,504.7c0,1.1,0.6,2.3,1.4,2.8c0.8,0.5,1.4,0,1.4-1.1c0-1.1-0.6-2.3-1.4-2.8
				C741.6,503.1,741,503.6,741,504.7z"/>
			<polygon class="st119" points="709.6,521.9 741.7,503.4 743.4,507.5 711.5,525.9 			"/>
			<g>
				<path class="st136" d="M711.5,525.9c0.3-0.2,0.5-0.6,0.5-1.2c0-1.1-0.6-2.3-1.4-2.8c-0.4-0.2-0.7-0.2-0.9,0l0,0l0,0
					c0,0-2.9,2.3-5.5,4.4c0.4,0.5,0.7,1.1,0.8,1.7L711.5,525.9L711.5,525.9z"/>
				<path class="st119" d="M704.1,526.4c-2.1,1.7-4,3.2-4,3.2l4.8-1.5C704.9,527.4,704.9,526.7,704.1,526.4z"/>
			</g>
		</g>
		<g>
			<path class="st136" d="M594.7,580.8c0-1.1,0.6-2.3,1.4-2.8c0.3-0.2,0.6-0.2,0.9-0.1l0,0l4.7,2.7l-2,3.9l-4.6-2.6
				C594.9,581.7,594.7,581.3,594.7,580.8z"/>
			<path class="st119" d="M602.1,581.7c0,1.1-0.6,2.3-1.4,2.8c-0.8,0.5-1.4,0-1.4-1.1c0-1.1,0.6-2.3,1.4-2.8
				C601.4,580.1,602.1,580.6,602.1,581.7z"/>
			<polygon class="st119" points="633.5,598.9 601.4,580.4 599.7,584.5 631.6,602.9 			"/>
			<g>
				<path class="st136" d="M631.6,602.9c-0.3-0.2-0.5-0.6-0.5-1.2c0-1.1,0.6-2.3,1.4-2.8c0.4-0.2,0.7-0.2,0.9-0.1l0,0l0,0
					c0,0,2.9,2.3,5.5,4.4c-0.4,0.5-0.7,1.1-0.8,1.7L631.6,602.9L631.6,602.9z"/>
				<path class="st119" d="M639,603.4c2.1,1.7,4,3.2,4,3.2l-4.8-1.5C638.2,604.4,638.2,603.6,639,603.4z"/>
			</g>
		</g>
		<g>
			<path class="st136" d="M490.7,369.2c0-1.1,0.6-2.3,1.4-2.8c0.3-0.2,0.6-0.2,0.9-0.1l0,0l4.7,2.7l-2,3.9l-4.6-2.6
				C490.9,370.1,490.7,369.8,490.7,369.2z"/>
			<path class="st119" d="M498.1,370.1c0,1.1-0.6,2.3-1.4,2.8c-0.8,0.5-1.4,0-1.4-1.1c0-1.1,0.6-2.3,1.4-2.8
				C497.5,368.5,498.1,369,498.1,370.1z"/>
			<polygon class="st119" points="529.5,387.4 497.4,368.9 495.7,372.9 527.6,391.4 			"/>
			<g>
				<path class="st136" d="M527.6,391.3c-0.3-0.2-0.5-0.6-0.5-1.2c0-1.1,0.6-2.3,1.4-2.8c0.4-0.2,0.7-0.2,0.9,0l0,0l0,0
					c0,0,2.9,2.3,5.5,4.4c-0.4,0.5-0.7,1.1-0.8,1.7L527.6,391.3L527.6,391.3z"/>
				<path class="st119" d="M535,391.8c2.1,1.7,4,3.2,4,3.2l-4.8-1.5C534.2,392.8,534.2,392.1,535,391.8z"/>
			</g>
		</g>
	</g>
</g>
</svg>
