<svg width="170" height="171" viewBox="0 0 170 171" fill="none" xmlns="http://www.w3.org/2000/svg">
<path d="M85.2002 0.799805C38.5002 0.799805 0.400146 38.8001 0.400146 85.6001C0.400146 132.3 38.4002 170.4 85.2002 170.4C132 170.4 170 132.4 170 85.6001C170 38.8001 131.9 0.799805 85.2002 0.799805ZM85.2002 159.7C44.3002 159.7 11.0002 126.4 11.0002 85.5C11.0002 44.6 44.3002 11.2998 85.2002 11.2998C126.1 11.2998 159.4 44.6 159.4 85.5C159.4 126.5 126.1 159.7 85.2002 159.7Z" fill="#CAC531"/>
<path d="M90.5002 32.6001H79.9001V87.7998L113.2 121.1L120.7 113.6L90.5002 83.3999V32.6001Z" fill="#CAC531"/>
</svg>
