<svg width="218" height="218" viewBox="0 0 218 218" fill="black" xmlns="http://www.w3.org/2000/svg">
<path d="M199.6 120.2V22.5H210.5V11.6001C210.5 5.5001 205.8 0.700195 199.6 0.700195H18.7001C12.6001 0.700195 7.80005 5.4001 7.80005 11.6001V22.5H18.7001V120.2H25.9001V22.5H192.3V120.2H199.6ZM15.1 11.7002C15.1 9.5002 16.5001 8.1001 18.7001 8.1001H199.6C201.8 8.1001 203.2 9.5002 203.2 11.7002V15.2998H15.1V11.7002Z" fill="#CAC531"/>
<path d="M185.1 152.7V138.2C185.1 132.1 180.4 127.3 174.2 127.3H44.0001C37.9001 127.3 33.1001 132 33.1001 138.2V152.7H98.2001V196.1H91.0001C84.9001 196.1 80.1001 200.8 80.1001 207V217.9H138V207C138 200.9 133.3 196.1 127.1 196.1H120V152.7H185.1ZM40.4001 138.3C40.4001 136.1 41.8001 134.7 44.0001 134.7H174.2C176.4 134.7 177.8 136.1 177.8 138.3V145.5H40.4001V138.3ZM130.8 207V210.6H87.4001V207C87.4001 204.8 88.8001 203.4 91.0001 203.4H127.2C129.4 203.4 130.8 204.8 130.8 207ZM112.8 196.1H105.6V152.7H112.8V196.1Z" fill="#CAC531"/>
<path d="M206.8 127.4C200.7 127.4 195.9 132.1 195.9 138.3V160C195.9 162.2 194.5 163.6 192.3 163.6H170.6C164.5 163.6 159.7 168.3 159.7 174.5C159.7 180.7 164.4 185.4 170.6 185.4H192.3V203.5H188.7C182.6 203.5 177.8 208.2 177.8 214.4V218H185V214.4C185 212.2 186.4 210.8 188.6 210.8H192.2V218H199.4V210.8H203C205.2 210.8 206.6 212.2 206.6 214.4V218H213.8V214.4C213.8 208.3 209.1 203.5 202.9 203.5H199.3V185.4C209.4 185.4 217.4 177.4 217.4 167.3V138.4C217.7 132.1 213 127.4 206.8 127.4ZM210.4 167.2C210.4 173.3 205.7 178.1 199.5 178.1H170.6C168.4 178.1 167 176.7 167 174.5C167 172.3 168.4 170.9 170.6 170.9H192.3C198.4 170.9 203.2 166.2 203.2 160V138.3C203.2 136.1 204.6 134.7 206.8 134.7C209 134.7 210.4 136.1 210.4 138.3V167.2Z" fill="#CAC531"/>
<path d="M18.7001 185.3V203.4H15.1C9.00004 203.4 4.20007 208.1 4.20007 214.3V217.9H11.4001V214.3C11.4001 212.1 12.8001 210.7 15.0001 210.7H18.6V217.9H25.8V210.7H29.4001C31.6001 210.7 33.0001 212.1 33.0001 214.3V217.9H40.2001V214.3C40.2001 208.2 35.5 203.4 29.3 203.4H25.7001V185.3H47.4001C53.5001 185.3 58.3 180.6 58.3 174.4C58.3 168.2 53.6001 163.5 47.4001 163.5H25.7001C23.5001 163.5 22.1 162.1 22.1 159.9V138.2C22.1 132.1 17.4001 127.3 11.2001 127.3C5.00007 127.3 0.300049 132 0.300049 138.2V167.1C0.600049 177.3 8.60007 185.3 18.7001 185.3ZM7.90009 138.3C7.90009 136.1 9.30006 134.7 11.5001 134.7C13.7001 134.7 15.1 136.1 15.1 138.3V160C15.1 166.1 19.8001 170.9 26.0001 170.9H47.7001C49.9001 170.9 51.3 172.3 51.3 174.5C51.3 176.7 49.9001 178.1 47.7001 178.1H18.8C12.7 178.1 7.90009 173.4 7.90009 167.2V138.3Z" fill="#CAC531"/>
<path d="M112.8 40.6001H181.5V47.7998H112.8V40.6001Z" fill="#CAC531"/>
<path d="M112.8 58.7002H181.5V65.8999H112.8V58.7002Z" fill="#CAC531"/>
<path d="M112.8 76.7998H181.5V84H112.8V76.7998Z" fill="#CAC531"/>
<path d="M112.8 94.8999H181.5V102.1H112.8V94.8999Z" fill="#CAC531"/>
<path d="M69.4001 37C51.3001 37 36.8 51.5001 36.8 69.6001C36.8 87.7001 51.3001 102.2 69.4001 102.2C87.5001 102.2 102 87.7001 102 69.6001V66H73.0001V37H69.4001ZM94.3 73.2002C92.1 86.9002 79.5001 96.7 65.7001 94.5C52.0001 92.3 42.2001 79.6999 44.4001 65.8999C45.8001 54.6999 54.9001 46.0001 65.7001 44.6001V73.2002H94.3Z" fill="#CAC531"/>
<path d="M105.5 55.1001C105.5 43.2001 95.7002 33.3999 83.8002 33.3999H80.2002V58.7002H105.5V55.1001ZM87.4002 51.5V41C92.5002 42.4 96.4002 46.4 97.9002 51.5H87.4002Z" fill="#CAC531"/>
</svg>
