<?xml version="1.0" encoding="utf-8"?>
<!-- Generator: Adobe Illustrator 22.1.0, SVG Export Plug-In . SVG Version: 6.00 Build 0)  -->
<svg version="1.1" id="Layer_1" xmlns="http://www.w3.org/2000/svg" xmlns:xlink="http://www.w3.org/1999/xlink" x="0px" y="0px"
	 viewBox="0 0 1920 450" style="enable-background:new 0 0 1920 450;" xml:space="preserve">
<style type="text/css">
	.st0{display:none;}
	.st1{display:inline;fill:#FBC0A4;}
	.st2{display:inline;}
	.st3{fill:#302624;}
	.st4{fill:#3E3533;}
	.st5{fill:#F8E8D8;}
	.st6{display:inline;fill:#302624;}
	.st7{display:inline;fill:#3E3533;}
	.st8{display:inline;fill:#F8E8D8;}
	.st9{fill:#FBC0A4;}
	.st10{display:inline;fill:#F84511;}
	.st11{fill:#F6876E;}
	.st12{fill:#F69D7D;}
	.st13{display:inline;fill:url(#SVGID_1_);}
	.st14{display:inline;fill:url(#SVGID_2_);}
	.st15{fill:url(#SVGID_3_);}
	.st16{fill:#027BEC;}
	.st17{fill:#00FFE5;}
	.st18{fill:#FFFFFF;}
</style>
<g class="st0">
	<path class="st1" d="M475.3,132c-0.3-6.1-4.1-22-1.7-25.3s6.6-7.3,3.9-11.4c-0.5-0.8-1-1.6-1-2.5c0-1.1,0.8-2,1.4-2.9
		s1.1-2.1,0.5-3c-0.6-1-1.9-1.1-2.7-2c-0.7-0.7-0.7-1.8-0.6-2.8s0.2-2-0.1-2.9c-1.9-4.7-9.9,2.2-11.6,3.7c-1.7,1.4-3.3,3-4.8,4.6
		c-0.4,0.4-1.9,1.5-2,2.2l-1.3,7.1l9.8,28.5L475.3,132z"/>
	<g class="st2">
		<polygon class="st3" points="458,96 446.3,59 467.7,54.1 473.4,94.8 		"/>
		<path class="st4" d="M462.4,92.4c0.3,1,1.3,1.6,2.3,1.3c1-0.3,1.6-1.3,1.3-2.3c-0.3-1-1.3-1.6-2.3-1.3
			C462.7,90.4,462.1,91.4,462.4,92.4z"/>
		<polygon class="st5" points="452.1,60.4 453,62.1 461.3,60.3 461.6,58.5 465.7,57.7 469,88.6 457.3,89.4 449.5,61 		"/>
		<polygon class="st4" points="459.8,58.7 453.5,59.9 453.8,60.9 460,59.2 		"/>
	</g>
	<path class="st1" d="M458.8,105.5c0,0-9.9-8.2-9.3-11.3c0.6-3.1,14.2-7.9,14.9-4.1S458,96,458,96s9.4,3.5,9.7,14
		c0.1,2.3-4.6,10.1-4.1,13.3C465.3,134.9,458.8,105.5,458.8,105.5z"/>
	<path class="st6" d="M422.5,251.5c-16.6,5.7-54.1,14.3-84.6,1.8c0-7.8,0.1-18.2,0-23.8l83.2,7.2C421.5,241.6,422,244.8,422.5,251.5
		z"/>
	<path class="st7" d="M356.4,113.5c-1.7-2.1-3-4.2-3.6-5.9c3-0.5,6.1-1,9.2-1.3c1.5-0.2,3.1-0.3,4.7-0.4c2.3-0.1,4.6-0.2,7-0.2
		c1.2,0,2.3,0,3.5,0c1,0,2.1,0.1,3.1,0.1c3.5,0.2,7,0.5,10.4,1.1c0.3,0,0.5,0.1,0.8,0.1c-0.2,1.8-0.6,4-1.1,6l0,0l-1.8,43.8
		l-1.5,35.6c0,0-6.2-16.1-13.3-34.3c-0.1-0.2-0.1-0.4-0.2-0.6C367.1,140.9,359.9,122.5,356.4,113.5z"/>
	<path class="st7" d="M478.8,178.5c-1.2,11.6-6.8,16.8-14.6,18.5c-0.3,0.1-0.6,0.1-0.9,0.1h-0.1c-0.3,0-0.6,0-0.9,0
		c-0.1,0-0.1,0-0.2,0c-0.3,0-0.7-0.1-1-0.2H461c-0.4-0.1-0.7-0.2-1.1-0.3c0,0,0,0-0.1,0c-0.4-0.1-0.8-0.3-1.2-0.4
		c-0.1,0-0.1,0-0.2-0.1c-0.4-0.2-0.8-0.3-1.2-0.5c-0.1,0-0.2-0.1-0.3-0.1c-0.4-0.2-0.8-0.4-1.3-0.6c-0.1,0-0.1-0.1-0.2-0.1
		c-0.4-0.2-0.8-0.5-1.3-0.7c-0.1,0-0.1-0.1-0.2-0.1c-0.4-0.3-0.9-0.5-1.4-0.8c-0.1-0.1-0.2-0.1-0.3-0.2c-0.5-0.3-0.9-0.6-1.4-0.9
		c-0.1-0.1-0.2-0.1-0.3-0.2c-0.5-0.3-1-0.6-1.4-1c0,0-0.1-0.1-0.2-0.1c-0.4-0.3-0.9-0.7-1.4-1c-0.1-0.1-0.2-0.1-0.3-0.2
		c-0.5-0.3-1-0.7-1.4-1c-0.1-0.1-0.2-0.2-0.3-0.3c-0.5-0.4-1-0.7-1.4-1.1c-0.1-0.1-0.2-0.2-0.3-0.2c-0.5-0.4-0.9-0.7-1.4-1.1
		c0,0-0.1-0.1-0.2-0.1c-0.5-0.4-1-0.8-1.4-1.2c-0.1-0.1-0.2-0.2-0.3-0.3c-0.5-0.4-0.9-0.8-1.4-1.2c-0.1-0.1-0.2-0.2-0.4-0.3
		c-0.5-0.4-0.9-0.8-1.4-1.2c-0.1-0.1-0.2-0.2-0.3-0.2c-0.4-0.4-0.9-0.8-1.3-1.1c-0.1-0.1-0.1-0.1-0.2-0.2c-0.5-0.4-0.9-0.8-1.4-1.2
		c-0.1-0.1-0.2-0.2-0.3-0.3c-0.4-0.4-0.9-0.8-1.3-1.2c-0.1-0.1-0.2-0.2-0.3-0.3c-0.5-0.4-0.9-0.8-1.3-1.2c-0.1-0.1-0.1-0.1-0.2-0.2
		c-0.4-0.4-0.8-0.7-1.2-1.1c-0.1-0.1-0.2-0.1-0.2-0.2c-0.4-0.4-0.8-0.8-1.2-1.1c-0.1-0.1-0.2-0.2-0.3-0.3c-0.4-0.4-0.8-0.7-1.2-1.1
		c-0.1-0.1-0.2-0.2-0.2-0.2c-0.4-0.4-0.8-0.7-1.1-1.1c0,0-0.1,0-0.1-0.1c-0.4-0.3-0.7-0.7-1-1c-0.1-0.1-0.1-0.1-0.2-0.2
		c-0.3-0.3-0.7-0.7-1-1c-0.1,0-0.1-0.1-0.2-0.2c-0.3-0.3-0.6-0.6-0.9-0.9l1.5,19.3l4.4,57.3c-0.5,0.3-0.9,0.6-1.4,0.9
		c-0.9,0.5-1.8,1.1-2.8,1.6c-0.5,0.3-1,0.5-1.4,0.7l0,0c-25.1,12.7-57.9,7.2-75.9,2.6c-3.4-0.9-6.2-1.7-8.4-2.4
		c-3.1-1-4.8-1.7-4.8-1.7l1.9-12.8l0,0l4.7-31.4l-11.2-40.1l-1.3-3.9l-22.5,28.8l22.1,33.6c0,0-0.1,0.1-0.2,0.4
		c-0.1,0.1-0.1,0.2-0.2,0.3c0,0,0,0.1-0.1,0.2c-0.1,0.1-0.1,0.2-0.2,0.3c-0.2,0.3-0.5,0.7-0.8,1.1l0,0l0,0c-0.5,0.8-1.2,1.7-2,2.7
		c0,0.1-0.1,0.1-0.2,0.2l0,0c-2.3,3.1-5.6,6.9-9.3,9.8l0,0c-0.1,0.1-0.2,0.1-0.3,0.2c-0.3,0.2-0.5,0.4-0.8,0.6
		c-0.2,0.2-0.4,0.3-0.7,0.5c-0.3,0.2-0.6,0.4-0.9,0.6c0,0-40.2-43-39.9-47.2c1-11.6,32.3-54.4,47.5-67.8c0.3-0.3,0.7-0.6,1.1-1
		c0.4-0.3,0.8-0.5,1.1-0.8c0.2-0.1,0.4-0.3,0.5-0.4c0.3-0.2,0.5-0.4,0.8-0.6s0.7-0.4,1-0.7c0.3-0.2,0.7-0.4,1-0.6s0.6-0.4,1-0.6
		c0.3-0.2,0.7-0.4,1-0.5c1.3-0.7,2.8-1.4,4.2-2.1c0.4-0.2,0.8-0.4,1.2-0.5c1-0.4,2-0.9,3.1-1.3c0.5-0.2,1.1-0.4,1.6-0.6
		s1.1-0.4,1.7-0.6c1.8-0.6,3.6-1.2,5.5-1.7c0.6-0.2,1.3-0.4,1.9-0.5c-0.7,3.2,0.2,10.3,0.7,11.6c0.6,1.6,10.5,8.9,10.5,8.9
		s-3.9,12.9-3.2,15.4c0.7,2.5,34.2,52.5,34.2,52.5s13.8-56,14.2-57c0.3-1-7.5-13.8-7.5-13.8s9.5-8.8,8.8-10.3
		c-0.4-0.9-1.7-4.4-2.9-7.4c0.3,0.1,0.6,0.2,0.9,0.3c0.2,0,0.4,0,0.5,0c0.3,0,0.5,0,0.8-0.1c0.2,0,0.4,0,0.6,0s0.4,0,0.7,0h1.2
		c0.2,0,0.4,0,0.5,0c0.2,0,0.4,0,0.6,0s0.3,0,0.5,0s0.4,0,0.5,0s0.3,0,0.5,0.1c0.2,0,0.4,0,0.5,0.1c0.1,0,0.3,0,0.4,0.1
		c0.2,0,0.5,0.1,0.7,0.1s0.3,0.1,0.4,0.1c0.2,0,0.4,0.1,0.5,0.1s0.2,0.1,0.3,0.1c0.1,0,0.3,0.1,0.4,0.1s0.2,0.1,0.3,0.1
		c0.1,0,0.3,0.1,0.4,0.1s0.2,0.1,0.3,0.1c0.1,0,0.3,0.1,0.4,0.2c0.1,0,0.2,0.1,0.3,0.1c0.1,0.1,0.3,0.1,0.4,0.2
		c0.1,0,0.2,0.1,0.2,0.1c0.1,0.1,0.3,0.1,0.4,0.2c0.1,0,0.1,0.1,0.2,0.1c0.2,0.1,0.4,0.2,0.5,0.3c4.4,2.4,38.9,45.3,38.9,45.3
		l1.3-45.6c0,0,0.1,0,0.3-0.1c0.1,0,0.3-0.1,0.5-0.2c0.3-0.1,0.7-0.2,1.1-0.3c0.2,0,0.4-0.1,0.6-0.1c0.3-0.1,0.6-0.1,1-0.2
		c0.2,0,0.3-0.1,0.5-0.1c0.1,0,0.2-0.1,0.4-0.1c0.2,0,0.5-0.1,0.7-0.1l0,0c2.2-0.4,5-0.6,7.8-0.4c1.7,0.1,3.4,0.4,5.1,0.9
		c0.3,0.1,0.7,0.2,1,0.3c0.3,0.1,0.6,0.2,1,0.4c0.3,0.1,0.6,0.3,1,0.4c0.3,0.1,0.6,0.3,0.9,0.5C476.6,112,480.6,161,478.8,178.5z"/>
	<path class="st1" d="M317.8,234.8c1.7-3.5,3.4-6.9,5.4-10.2c1.2,0.9,2.4,1.8,3.4,2.6c3.7,2.8,6.2,4.7,6.7,4.9
		c2.3,1.3,11.7,0.9,12.2,7.1c0,0,2.7,3.1,5,6s-6.1,3.3-6.2,6.9c-0.1,3.6-6.1,1.9-7,5.5s-1,3.3-4.1,3.4c-3,0.1-6.1-2.2-6.5-7.3
		c0,0-6.3-0.2-7.7-5.8c0-0.2-0.1-0.4-0.1-0.5C318.2,243.1,322.5,238.4,317.8,234.8z"/>
	<path class="st8" d="M313.6,234.8l2.3,2.4c0,0,7.6-4.2,11.5-12.6l-2.2-2.7c0,0-4.1,5.5-5.6,7.2
		C318.2,230.7,313.6,234.8,313.6,234.8z"/>
	<path class="st7" d="M327.4,33.9c1.9,8.8,8.1,30.6,8.1,30.6l5.5-6.3L338.2,31L327.4,33.9z"/>
	<path class="st6" d="M400.6,109c-3-0.8-6-1.4-9.1-1.9c-0.2,1.8-0.6,4-1.1,6l0,0l-1.8,43.8l-1.5,35.6c0,0-6.2-16.1-13.3-34.3
		c-0.1-0.2-0.1-0.4-0.2-0.6c-6.5-16.8-13.6-35.2-17.1-44.2c-1.7-2.1-3-4.2-3.6-5.9c-0.2-0.7-0.4-1.3-0.3-1.8l0,0
		c1-0.2,1.8-0.4,1.8-0.4l7.3-0.3l4-0.2l12-0.5l2.5-0.1l7.2-0.3l2.4-0.1c0,0,0.8,0,2,0c2.2,0,5.7,0,6.5,0.5c0.1,0,0.1,0.1,0.2,0.2
		l0.1,0.1c0,0,0.1,0.1,0.1,0.2c0,0,0.1,0.1,0.1,0.2s0.1,0.1,0.2,0.2s0.1,0.2,0.2,0.4c0.1,0.2,0.3,0.5,0.4,0.7
		c0.1,0.1,0.1,0.3,0.2,0.4s0.1,0.2,0.2,0.3C400.1,107.8,400.3,108.4,400.6,109z"/>
	<path class="st8" d="M390.8,104.2l-0.1,2.7l-0.3,6.2l0,0l-1.8,43.8c0,0-7.7,18.8-14.8,1.4c-0.1-0.2-0.1-0.4-0.2-0.6
		c-6.5-16.8-13.6-35.2-17.1-44.2c-1.4-3.6-2.2-5.7-2.2-5.7l8.1-0.9l5-0.6l6.4-0.7l3.6-0.4l2.8-0.3l7.1-0.8l1.5-0.2
		c0.2,0,0.5,0,0.9,0.1C390.1,104.1,390.5,104.1,390.8,104.2z"/>
	<g id="XMLID_3_" class="st2">
		<g id="XMLID_4_">
			<path class="st9" d="M380.9,109.3c-3.1,1.8-9.5,2.7-12.9,2.8c-5.2,0.1-3.1-2.9-4.8-3.3l-16.7-38.6l30.2,13.6l0.1,1.3L380.9,109.3
				z"/>
		</g>
	</g>
	<path class="st10" d="M388.6,156.9l-1.5,35.6c0,0-6.2-16.1-13.3-34.3c-0.1-0.2-0.1-0.4-0.2-0.6c-0.8-19.8,0.5-36.7,0.5-36.7
		l-3.8-3.4l-1.8-1.6l4.8-4.4l1.4-1.3l1.2,0.8l6.8,4.1L381,117l-3.2,3.6L388.6,156.9z"/>
	<g id="XMLID_1_" class="st2">
		<g id="XMLID_2_">
			<path class="st5" d="M391.5,107c-0.2,1.8-0.6,4-1.1,6l0,0c-0.8,3.6-1.8,6.8-2.5,7.1c-1.4,0.7-4.2-1.1-6.9-3.2
				c-3.1-2.4-6.2-5-7.1-4.3c-0.8,0.6-2.2,2.8-3.7,5c-1.7,2.6-3.5,5.1-4.4,5c-1-0.1-5.8-4.6-9.5-9.2c-1.7-2.1-3-4.2-3.6-5.9
				c-0.2-0.7-0.4-1.3-0.3-1.8c0-0.1,0-0.1,0-0.2c0.7-4.5,6.4-6.5,6.4-6.5s3.2,3,6.7,5.9c0.4,0.3,0.8,0.6,1.2,0.9
				c0.2,0.2,0.4,0.3,0.6,0.5c2.8,2.2,5.6,4,6.9,3.8c1.2-0.2,2.2-2.2,3-4.5c0-0.1,0.1-0.3,0.1-0.4c0.1-0.2,0.2-0.5,0.2-0.7
				c0.9-3.2,1.4-6.6,1.4-6.6s11.1,3.2,12.5,4.7c0.1,0.1,0.2,0.3,0.2,0.5c0,0.1,0,0.1,0,0.2c0,0.2,0.1,0.4,0.1,0.7
				C391.7,104.8,391.6,105.8,391.5,107z"/>
		</g>
	</g>
	<path class="st1" d="M335.5,49.7c0,0-10.4-2.4-9,10.1C328,72.2,337,72.5,339.7,73c0,0,5,22.2,32.4,20.1s22.9-23.3,22.7-37.4
		c-0.2-14.1,1.4-38.5-16.6-40.3C360.1,13.6,333.9,14.8,335.5,49.7z"/>
	<g class="st2">
		<path class="st11" d="M379.8,73.4c0.1,0.2-0.6,0.9-2,1.4c-0.7,0.3-1.6,0.5-2.5,0.7c-1,0.1-2.1,0.1-3.2,0c-1.1-0.2-2.2-0.4-3.1-0.8
			s-1.7-0.8-2.3-1.3c-1.2-0.9-1.7-1.7-1.5-1.9c0.2-0.2,1,0.2,2.2,0.7c0.6,0.3,1.4,0.5,2.2,0.8c0.8,0.2,1.8,0.4,2.8,0.6
			c1,0.1,2,0.1,2.8,0.1c0.9,0,1.7-0.1,2.3-0.2C378.9,73.3,379.7,73.1,379.8,73.4z"/>
	</g>
	<g class="st2">
		<path class="st12" d="M375.2,69.3c0-0.3,0.9-0.5,1.3-1.7c0.2-0.6,0.3-1.3,0.2-2.1c-0.2-0.8-0.6-1.7-1-2.8
			c-1.9-4.2-3.1-7.7-2.6-7.9s2.4,3,4.3,7.1c0.5,1,0.9,2.2,1,3.3c0.1,0.6,0,1.1-0.1,1.7c-0.1,0.5-0.4,1-0.6,1.3
			c-0.5,0.7-1.2,1.1-1.7,1.2C375.5,69.6,375.2,69.4,375.2,69.3z"/>
	</g>
	<g class="st2">
		<path class="st4" d="M367.3,47.1c-0.2,0.2-0.9-0.1-2.1-0.4c-1.2-0.3-2.9-0.6-4.8-0.5c-1.8,0.2-3.4,0.8-4.6,1.4
			c-0.6,0.3-1,0.5-1.4,0.7c-0.3,0.2-0.6,0.2-0.7,0.1c-0.1-0.1,0-0.3,0.2-0.7s0.6-0.8,1.1-1.3c1.1-0.9,2.9-1.9,5.2-2.1
			c2.2-0.2,4.2,0.4,5.4,1.1C366.9,46.1,367.4,46.9,367.3,47.1z"/>
	</g>
	<g class="st2">
		<path class="st4" d="M377.8,46.6c-0.2-0.2,0.2-1,1.3-1.9c1.1-0.9,2.9-1.9,5.1-2.1c2.3-0.2,4.2,0.4,5.5,1.1c0.6,0.4,1.1,0.7,1.3,1
			c0.3,0.3,0.4,0.5,0.3,0.6s-0.3,0.1-0.7,0c-0.4-0.1-0.9-0.2-1.5-0.4c-1.2-0.3-2.9-0.6-4.7-0.5c-1.9,0.2-3.5,0.8-4.6,1.4
			C378.7,46.3,378,46.8,377.8,46.6z"/>
	</g>
	<path class="st7" d="M364.7,56c0.1,2-1.5,3.8-3.5,3.8c-2,0.1-3.8-1.5-3.8-3.5c-0.1-2,1.5-3.8,3.5-3.8
		C362.8,52.4,364.6,53.9,364.7,56z"/>
	<path class="st7" d="M385.6,55c0.1,2-1.5,3.8-3.5,3.8c-2,0.1-3.8-1.5-3.8-3.5c-0.1-2,1.5-3.8,3.5-3.8C383.8,51.4,385.5,53,385.6,55
		z"/>
	
		<linearGradient id="SVGID_1_" gradientUnits="userSpaceOnUse" x1="767.042" y1="390.2463" x2="772.5326" y2="393.3211" gradientTransform="matrix(-1 0 0 -1 1103.7427 452)">
		<stop  offset="0" style="stop-color:#F69D7D"/>
		<stop  offset="1" style="stop-color:#F69D7D;stop-opacity:0.6"/>
	</linearGradient>
	<path class="st13" d="M330.1,55.2c-1,3.3,0.4,6.8,1.7,9.9c0.4,0.9,0.8,1.9,1.7,2.5c0.8,0.6,2.2,0.5,2.7-0.4
		c0.4-0.9-0.2-1.9-0.7-2.7c-0.5-0.9-0.8-2.1,0.1-2.7c0.4-0.2,0.9-0.2,1.3-0.4c0.9-0.5,0.9-1.7,0.7-2.7c-0.3-1.3-0.8-2.6-1.5-3.9
		c-0.7-1.2-1.7-2.4-3-2.4C331.5,52.5,330.5,53.9,330.1,55.2z"/>
	<path class="st7" d="M392.3,0.5c-16.7-11.6-38.8-3-46.4,5.4s-18.8,8.9-18.8,8.9s0,3.7,3.6,7.9c-5.2,2.6-10.2,7.2-10.2,7.2l4.7,2.4
		l4,18.4c0,0,2.4-1.9,5.5-1.3c3.8,0.7,5,12.1,5,12.1s3.8-0.2,5.5-2.2c0.8-0.9,0-5.1-1-9.2v-2.3c0,0,9.4-2.6,6-16.4
		c7.5-0.1,12.7-3.8,12.7-3.8c6.2,5,10.2,3.4,12.7,1.9s8.2,5.4,18.2,2.5C403.7,29.1,408.9,12.1,392.3,0.5z"/>
</g>
<g>
	<g>
		<path class="st18" d="M391.9,256.8c6.6,3.5,11.8,8.8,15.6,15.8c3.8,7,5.7,15.6,5.7,25.6v64.2h-17.9v-61.6
			c0-10.9-2.7-19.2-8.1-24.9c-5.4-5.8-12.9-8.6-22.3-8.6c-9.5,0-17.1,3-22.8,8.9c-5.6,6-8.4,14.6-8.4,26v60.2h-18.1v-147h18.1V269
			c3.6-5.6,8.5-9.9,14.8-12.9s13.3-4.6,21.2-4.6C377.8,251.5,385.2,253.3,391.9,256.8z"/>
		<path class="st18" d="M442.7,278.2c4.5-8.4,10.7-14.9,18.6-19.6c7.9-4.6,16.7-7,26.3-7c9.5,0,17.8,2.1,24.8,6.2
			c7,4.1,12.3,9.3,15.7,15.5v-19.9h18.3v108.9h-18.3V342c-3.6,6.4-8.9,11.6-16,15.8c-7.1,4.2-15.3,6.3-24.7,6.3
			c-9.7,0-18.4-2.4-26.2-7.2c-7.8-4.8-14-11.5-18.5-20.1s-6.8-18.4-6.8-29.4C436,296.4,438.2,286.7,442.7,278.2z M523.2,286.3
			c-3.3-6.1-7.8-10.8-13.4-14s-11.8-4.9-18.6-4.9c-6.8,0-12.9,1.6-18.5,4.8c-5.6,3.2-10,7.8-13.3,13.9s-5,13.2-5,21.5
			s1.7,15.6,5,21.8c3.3,6.2,7.8,10.9,13.3,14.1c5.6,3.2,11.7,4.9,18.5,4.9s12.9-1.6,18.6-4.9c5.6-3.2,10.1-7.9,13.4-14.1
			s5-13.3,5-21.6C528.2,299.5,526.5,292.4,523.2,286.3z"/>
		<path class="st18" d="M595.1,215.4v147H577v-147H595.1z"/>
		<path class="st18" d="M645.7,357.2c-8.3-4.6-14.8-11.2-19.5-19.8c-4.7-8.5-7.1-18.4-7.1-29.7c0-11.1,2.4-21,7.3-29.5
			c4.8-8.5,11.4-15.1,19.8-19.7c8.3-4.6,17.7-6.9,28-6.9s19.7,2.3,28,6.9c8.3,4.6,14.9,11.1,19.8,19.6c4.8,8.5,7.3,18.4,7.3,29.6
			c0,11.3-2.5,21.2-7.5,29.7s-11.7,15.1-20.2,19.8c-8.5,4.6-17.9,7-28.2,7C663.2,364.2,654,361.9,645.7,357.2z M691.7,343.7
			c5.7-3,10.3-7.6,13.8-13.7s5.3-13.5,5.3-22.3c0-8.7-1.7-16.2-5.2-22.3c-3.4-6.1-7.9-10.6-13.5-13.6s-11.6-4.5-18.1-4.5
			c-6.6,0-12.7,1.5-18.2,4.5s-9.9,7.5-13.2,13.6s-5,13.5-5,22.3c0,8.9,1.6,16.4,4.9,22.5c3.2,6.1,7.6,10.6,13,13.6
			s11.4,4.5,17.9,4.5C679.9,348.3,686,346.8,691.7,343.7z"/>
		<path class="st18" d="M787.2,258c7.1-4.2,15.3-6.3,24.7-6.3c9.7,0,18.4,2.3,26.3,7c7.9,4.6,14.1,11.2,18.6,19.6s6.8,18.2,6.8,29.3
			c0,11-2.3,20.8-6.8,29.4s-10.7,15.3-18.6,20.1c-7.9,4.8-16.7,7.2-26.3,7.2c-9.3,0-17.5-2.1-24.5-6.3c-7.1-4.2-12.5-9.4-16.2-15.6
			v71.7h-18.1V253.5h18.1v20.1C774.8,267.4,780.1,262.2,787.2,258z M840.2,286.1c-3.3-6.1-7.8-10.7-13.4-13.9
			c-5.6-3.2-11.8-4.8-18.6-4.8c-6.6,0-12.8,1.6-18.4,4.9c-5.6,3.2-10.1,7.9-13.5,14.1s-5.1,13.3-5.1,21.4c0,8.2,1.7,15.4,5.1,21.6
			c3.4,6.2,7.9,10.9,13.5,14.1s11.8,4.9,18.4,4.9c6.8,0,12.9-1.6,18.6-4.9c5.6-3.2,10.1-7.9,13.4-14.1c3.3-6.2,5-13.4,5-21.8
			C845.1,299.3,843.5,292.2,840.2,286.1z"/>
		<path class="st18" d="M986.2,314.7h-87c0.7,10.7,4.3,19.1,11,25.1s14.8,9,24.3,9c7.8,0,14.3-1.8,19.6-5.5c5.2-3.6,8.9-8.5,11-14.6
			h19.5c-2.9,10.5-8.7,19-17.5,25.5c-8.7,6.6-19.6,9.8-32.6,9.8c-10.3,0-19.6-2.3-27.7-7c-8.1-4.6-14.5-11.2-19.2-19.8
			c-4.6-8.5-7-18.4-7-29.7c0-11.3,2.3-21.1,6.8-29.6s10.8-15,19-19.6c8.1-4.6,17.5-6.9,28.1-6.9c10.3,0,19.5,2.3,27.4,6.8
			c7.9,4.5,14.1,10.7,18.4,18.6c4.3,7.9,6.5,16.8,6.5,26.7C986.8,307.2,986.6,310.9,986.2,314.7z M963.6,282.2
			c-3-5-7.2-8.7-12.4-11.3c-5.2-2.6-11-3.9-17.4-3.9c-9.1,0-16.9,2.9-23.3,8.7c-6.4,5.8-10.1,13.9-11,24.2h68.8
			C968.1,293.1,966.6,287.2,963.6,282.2z"/>
		<path class="st18" d="M1095.9,263.5c8.2,8,12.3,19.6,12.3,34.7v64.2h-17.9v-61.6c0-10.9-2.7-19.2-8.1-24.9
			c-5.4-5.8-12.9-8.6-22.3-8.6c-9.5,0-17.1,3-22.8,8.9c-5.6,6-8.4,14.6-8.4,26v60.2h-18.1V253.5h18.1V269c3.6-5.6,8.4-9.9,14.6-12.9
			s12.9-4.6,20.4-4.6C1077,251.5,1087.7,255.5,1095.9,263.5z"/>
		<path class="st18" d="M1207.5,257.9c7.1,4.1,12.4,9.3,15.8,15.5v-19.9h18.3v111.3c0,9.9-2.1,18.8-6.4,26.5
			c-4.2,7.8-10.3,13.8-18.2,18.2c-7.9,4.4-17.1,6.6-27.5,6.6c-14.3,0-26.2-3.4-35.8-10.1c-9.5-6.8-15.2-16-16.9-27.6h17.9
			c2,6.6,6.1,12,12.3,16c6.2,4,13.7,6.1,22.5,6.1c9.9,0,18-3.1,24.3-9.3c6.3-6.2,9.4-15,9.4-26.2v-22.9c-3.6,6.4-8.9,11.7-15.9,15.9
			c-7,4.2-15.2,6.4-24.6,6.4c-9.7,0-18.4-2.4-26.3-7.2c-7.9-4.8-14.1-11.5-18.6-20.1s-6.8-18.4-6.8-29.4c0-11.1,2.2-20.9,6.8-29.3
			c4.5-8.4,10.7-14.9,18.6-19.6c7.9-4.6,16.7-7,26.3-7C1192.1,251.7,1200.4,253.8,1207.5,257.9z M1218.3,286.3
			c-3.3-6.1-7.8-10.8-13.4-14s-11.8-4.9-18.6-4.9c-6.8,0-12.9,1.6-18.5,4.8c-5.6,3.2-10,7.8-13.3,13.9s-5,13.2-5,21.5
			s1.7,15.6,5,21.8c3.3,6.2,7.8,10.9,13.3,14.1c5.6,3.2,11.7,4.9,18.5,4.9s12.9-1.6,18.6-4.9c5.6-3.2,10.1-7.9,13.4-14.1
			s5-13.3,5-21.6C1223.3,299.5,1221.6,292.4,1218.3,286.3z"/>
		<path class="st18" d="M1272.2,278.2c4.5-8.4,10.7-14.9,18.6-19.6c7.9-4.6,16.7-7,26.3-7c9.5,0,17.8,2.1,24.8,6.2
			s12.3,9.3,15.7,15.5v-19.9h18.3v108.9h-18.3V342c-3.6,6.4-8.9,11.6-16,15.8c-7.1,4.2-15.3,6.3-24.7,6.3c-9.7,0-18.4-2.4-26.2-7.2
			c-7.8-4.8-14-11.5-18.5-20.1s-6.8-18.4-6.8-29.4S1267.7,286.7,1272.2,278.2z M1352.6,286.3c-3.3-6.1-7.8-10.8-13.4-14
			s-11.8-4.9-18.6-4.9c-6.8,0-12.9,1.6-18.5,4.8c-5.6,3.2-10,7.8-13.3,13.9s-5,13.2-5,21.5s1.7,15.6,5,21.8
			c3.3,6.2,7.8,10.9,13.3,14.1c5.6,3.2,11.7,4.9,18.5,4.9s12.9-1.6,18.6-4.9c5.6-3.2,10.1-7.9,13.4-14.1s5-13.3,5-21.6
			C1357.6,299.5,1356,292.4,1352.6,286.3z"/>
		<path class="st18" d="M1406.5,278.2c4.5-8.4,10.7-14.9,18.6-19.6c7.9-4.6,16.7-7,26.5-7c8.5,0,16.4,2,23.6,5.9
			c7.3,3.9,12.8,9,16.7,15.4v-57.6h18.3v147h-18.3v-20.5c-3.6,6.5-8.9,11.8-15.9,16s-15.2,6.3-24.6,6.3c-9.7,0-18.4-2.4-26.3-7.2
			c-7.9-4.8-14.1-11.5-18.6-20.1s-6.8-18.4-6.8-29.4C1399.7,296.4,1402,286.7,1406.5,278.2z M1487,286.3c-3.3-6.1-7.8-10.8-13.4-14
			s-11.8-4.9-18.6-4.9c-6.8,0-12.9,1.6-18.5,4.8s-10,7.8-13.3,13.9s-5,13.2-5,21.5s1.7,15.6,5,21.8c3.3,6.2,7.8,10.9,13.3,14.1
			c5.6,3.2,11.7,4.9,18.5,4.9s12.9-1.6,18.6-4.9c5.6-3.2,10.1-7.9,13.4-14.1s5-13.3,5-21.6C1491.9,299.5,1490.3,292.4,1487,286.3z"
			/>
		<path class="st18" d="M1540.8,278.2c4.5-8.4,10.7-14.9,18.6-19.6c7.9-4.6,16.7-7,26.3-7c9.5,0,17.8,2.1,24.8,6.2
			s12.3,9.3,15.7,15.5v-19.9h18.3v108.9h-18.3V342c-3.6,6.4-8.9,11.6-16,15.8c-7.1,4.2-15.3,6.3-24.7,6.3c-9.7,0-18.4-2.4-26.2-7.2
			c-7.8-4.8-14-11.5-18.5-20.1s-6.8-18.4-6.8-29.4C1534.1,296.4,1536.3,286.7,1540.8,278.2z M1621.3,286.3
			c-3.3-6.1-7.8-10.8-13.4-14s-11.8-4.9-18.6-4.9c-6.8,0-12.9,1.6-18.5,4.8s-10,7.8-13.3,13.9s-5,13.2-5,21.5s1.7,15.6,5,21.8
			c3.3,6.2,7.8,10.9,13.3,14.1c5.6,3.2,11.7,4.9,18.5,4.9s12.9-1.6,18.6-4.9c5.6-3.2,10.1-7.9,13.4-14.1s5-13.3,5-21.6
			C1626.3,299.5,1624.6,292.4,1621.3,286.3z"/>
		<path class="st18" d="M1675.2,278.2c4.5-8.4,10.7-14.9,18.6-19.6c7.9-4.6,16.7-7,26.3-7c9.5,0,17.8,2.1,24.8,6.2
			s12.3,9.3,15.7,15.5v-19.9h18.3v108.9h-18.3V342c-3.6,6.4-8.9,11.6-16,15.8c-7.1,4.2-15.3,6.3-24.7,6.3c-9.7,0-18.4-2.4-26.2-7.2
			c-7.8-4.8-14-11.5-18.5-20.1s-6.8-18.4-6.8-29.4S1670.6,286.7,1675.2,278.2z M1755.6,286.3c-3.3-6.1-7.8-10.8-13.4-14
			s-11.8-4.9-18.6-4.9c-6.8,0-12.9,1.6-18.5,4.8s-10,7.8-13.3,13.9s-5,13.2-5,21.5s1.7,15.6,5,21.8c3.3,6.2,7.8,10.9,13.3,14.1
			c5.6,3.2,11.7,4.9,18.5,4.9s12.9-1.6,18.6-4.9c5.6-3.2,10.1-7.9,13.4-14.1s5-13.3,5-21.6C1760.6,299.5,1758.9,292.4,1755.6,286.3z
			"/>
		<path class="st18" d="M1894.7,263.5c8.2,8,12.3,19.6,12.3,34.7v64.2h-17.9v-61.6c0-10.9-2.7-19.2-8.1-24.9
			c-5.4-5.8-12.8-8.6-22.3-8.6s-17.1,3-22.8,8.9c-5.6,6-8.4,14.6-8.4,26v60.2h-18.1V253.5h18.1V269c3.6-5.6,8.4-9.9,14.6-12.9
			s12.9-4.6,20.4-4.6C1875.8,251.5,1886.5,255.5,1894.7,263.5z"/>
	</g>
	<g>
		<path class="st18" d="M16.2,196.1c0.4-0.2,0.8-0.4,1.1-0.6c0.4-0.2,0.8-0.4,1.2-0.5c0.4-0.2,0.8-0.3,1.2-0.5
			c0.4-0.1,0.8-0.3,1.2-0.4c0-0.3,0-0.5,0-0.8c0-0.2,0-0.5-0.1-0.7c0-0.2,0-0.4-0.1-0.7c-0.1-0.4-0.1-0.8-0.2-1.1l0,0
			c-0.1-0.2-0.1-0.3-0.2-0.5c-0.1-0.3-0.3-0.6-0.4-0.8c-3-4-8.2-9.1-4.8-14.1c0.6-0.9,1.2-2,1.2-3.1c0-1.3-1-2.4-1.8-3.5
			s-1.3-2.6-0.7-3.7c0.7-1.2,2.4-1.4,3.3-2.4c0.8-0.9,0.9-2.2,0.8-3.5c-0.1-1.2-0.3-2.5,0.2-3.6c0.2-0.5,0.5-0.9,0.8-1.2
			c0.7-0.6,1.6-0.8,2.6-0.7c0.5,0.1,1.1,0.2,1.6,0.4l4.1-29.5l26.4,6.1l-12.1,38.1c0.6,0.2,1.2,0.4,1.7,0.7c0.6,0.2,1.1,0.5,1.7,0.8
			c0.7,0.4,1.4,0.7,2,1.1c0.2,0.1,0.4,0.2,0.5,0.4c0.7,0.5,1.3,1,1.7,1.5c0.1,0.1,0.1,0.2,0.2,0.3c0.1,0.1,0.1,0.2,0.2,0.3
			c0.1,0.1,0.1,0.2,0.1,0.4c0.2,0.8-0.3,1.9-1.1,3.2c-0.1,0.2-0.2,0.3-0.3,0.5c-0.3,0.4-0.6,0.8-0.9,1.2c-0.2,0.3-0.5,0.6-0.7,0.9
			c-0.8,1-1.8,2-2.7,2.9c-0.3,0.3-0.5,0.5-0.8,0.8c-1,1-2,1.9-2.9,2.7c-0.2,0.2-0.5,0.4-0.7,0.6c-0.1,0.1-0.3,0.2-0.4,0.3
			c-0.1,0.1-0.1,0.1-0.2,0.2l-2.1,6l0,0c0,0.1,0,0.1,0,0.2c0.3,0,0.6,0.1,0.9,0.2c0.2,0,0.3,0,0.5,0.1c0.2,0,0.4,0.1,0.6,0.1
			c0.4,0.1,0.8,0.2,1.2,0.3c0.2,0.1,0.5,0.1,0.7,0.2c0.5,0.1,1,0.3,1.4,0.4c0.3,0.1,0.5,0.1,0.7,0.2c0.2,0.1,0.3,0.1,0.3,0.1
			l1.6,56.4c0,0,42.6-53.1,48-56c0.2-0.1,0.4-0.2,0.7-0.3c0.1,0,0.1-0.1,0.2-0.1c0.1-0.1,0.3-0.1,0.5-0.2c0.1,0,0.2-0.1,0.3-0.1
			c0.1-0.1,0.3-0.1,0.5-0.2c0.1,0,0.2-0.1,0.3-0.1c0.1-0.1,0.3-0.1,0.5-0.2c0.1,0,0.2-0.1,0.4-0.1c0.2-0.1,0.3-0.1,0.5-0.2
			c0.1,0,0.3-0.1,0.4-0.1c0.2-0.1,0.4-0.1,0.5-0.2c0.1,0,0.3-0.1,0.4-0.1c0.2-0.1,0.4-0.1,0.7-0.2c0.2,0,0.3-0.1,0.5-0.1
			c0.3-0.1,0.6-0.1,0.9-0.2c0.2,0,0.3,0,0.5-0.1c0.2,0,0.4-0.1,0.7-0.1c0.2,0,0.4,0,0.6-0.1c0.2,0,0.4,0,0.7-0.1c0.2,0,0.4,0,0.6,0
			s0.5,0,0.7,0s0.4,0,0.7,0h1.5c0.3,0,0.5,0,0.8,0c0.2,0,0.5,0,0.7,0c0.3,0,0.7,0,1,0.1c0.2,0,0.4,0,0.6,0.1
			c0.4-0.1,0.8-0.2,1.2-0.3c-1.5,3.7-3.1,8.1-3.6,9.1c-0.8,1.9,10.9,12.8,10.9,12.8s-9.6,15.8-9.2,17.1s17.5,70.5,17.5,70.5
			s41.5-61.9,42.3-64.9c0.9-3.1-4-19-4-19s12.3-9.1,13-11c0.6-1.6,1.8-10.4,0.9-14.4c0.8,0.2,1.6,0.4,2.4,0.6
			c2.3,0.6,4.6,1.3,6.8,2.1c0.7,0.2,1.4,0.5,2,0.7c0.7,0.2,1.3,0.5,2,0.7c1.3,0.5,2.6,1,3.9,1.6c0.5,0.2,1,0.4,1.5,0.6
			c1.8,0.8,3.6,1.7,5.2,2.6c0.4,0.2,0.8,0.4,1.2,0.7c0.4,0.2,0.8,0.4,1.2,0.7c0.4,0.2,0.8,0.5,1.2,0.7c0.4,0.3,0.9,0.5,1.3,0.8
			c0.4,0.2,0.7,0.5,1,0.7c0.2,0.1,0.5,0.3,0.7,0.5c0.5,0.3,1,0.7,1.4,1c0.5,0.4,0.9,0.8,1.4,1.2c18.7,16.5,57.5,69.4,58.7,83.7
			c0.4,5.3-49.3,58.4-49.3,58.4c-0.4-0.2-0.7-0.4-1.1-0.7c-0.3-0.2-0.6-0.4-0.8-0.6c-0.3-0.2-0.6-0.4-0.9-0.7l-0.1-0.1l0.1,0.1
			l-2.8,3c0,0-0.1,0-0.3-0.2c0,0-0.1,0-0.1-0.1c-0.1,0-0.2-0.1-0.3-0.2c-0.6-0.4-1.5-1-2.6-1.8c-0.2,0.2-0.3,0.3-0.5,0.5l0,0
			c-0.3,0.4-0.6,0.7-0.8,1.1c-0.1,0.1-0.1,0.2-0.2,0.4c-0.2,0.4-0.3,0.8-0.4,1.3c-0.2,0.9-0.1,1.8,0,2.7c0.1,0.5,0.1,0.9,0.2,1.4
			c0.4,1.8,1,3.6,1.1,5.4c0,0.3,0,0.5,0,0.8c0,0.4,0,0.9-0.1,1.3c0,0.2-0.1,0.4-0.1,0.6c-1.7,6.9-9.5,7.1-9.5,7.1
			c-0.6,6.4-4.4,9.2-8.1,9.1c-3.8-0.1-3.9,0.3-5-4.2c-0.1-0.4-0.3-0.8-0.5-1.1c0-0.1-0.1-0.2-0.2-0.3c-0.1-0.1-0.2-0.2-0.3-0.3
			c-0.1-0.1-0.2-0.2-0.3-0.2c-0.7-0.6-1.6-0.9-2.5-1.2c-0.2-0.1-0.4-0.1-0.6-0.2c-0.4-0.1-0.7-0.2-1.1-0.3c-1.7-0.5-3.2-1.2-3.3-3.2
			c-0.1-4.4-10.4-4.9-7.6-8.5c2.8-3.6,6.1-7.4,6.1-7.4c0.5-6.6,9.2-7.2,13.4-8.2c0.1,0,0.3-0.1,0.4-0.1c0.3-0.1,0.7-0.2,0.9-0.3
			c0.1,0,0.3-0.1,0.4-0.2c0.6-0.3,3.7-2.6,8.3-6.1c0.2-0.1,0.4-0.3,0.6-0.5l0,0c-0.3-0.4-0.5-0.9-0.8-1.3c-0.2-0.3-0.3-0.6-0.5-1
			c-0.1-0.1-0.1-0.3-0.2-0.4l2.7-3.3l0,0c-0.4-0.6-0.7-1-1-1.4c-0.1-0.1-0.2-0.3-0.3-0.4s-0.1-0.2-0.1-0.2c-0.1-0.1-0.1-0.2-0.2-0.3
			c-0.2-0.3-0.3-0.4-0.3-0.5l27.3-41.6L201,252l-1.6,4.9l-13.9,49.6l5.3,35.6c-5.6,1.3-16.2,2.2-16.9,10.5c0,0-4.3,4.9-7.9,9.5
			c-3.6,4.6,9.7,5.2,9.8,10.9c0,0.6,0.1,1.1,0.3,1.6c-20,5.4-41.4,4.8-59.5,2.1l0,0c-1.1-0.2-2.3-0.3-3.4-0.5
			c-0.5-0.1-0.9-0.1-1.4-0.2c-0.8-0.1-1.7-0.3-2.5-0.5c-6.9-1.3-13.2-2.9-18.5-4.4c-0.9-0.3-1.8-0.5-2.6-0.8
			c-1.9-0.6-3.6-1.1-5.2-1.7c0.1-0.8,0.1-1.5,0.2-2.2c0-0.5,0.1-0.9,0.1-1.3c0.1-0.7,0.1-1.3,0.2-2l0,0c-0.6-0.3-1.2-0.6-1.8-0.9
			c-1.1-0.6-2.3-1.3-3.4-2c-0.6-0.3-1.1-0.7-1.7-1.1l5.4-70.8l1.8-23.8c-0.4,0.4-0.7,0.7-1.1,1.1c-0.1,0.1-0.1,0.1-0.2,0.2
			c-0.4,0.4-0.8,0.8-1.2,1.2c-0.1,0.1-0.1,0.1-0.2,0.2c-0.4,0.4-0.9,0.8-1.3,1.2l-0.1,0.1c-0.5,0.4-0.9,0.9-1.4,1.4
			c-0.1,0.1-0.2,0.2-0.3,0.3c-0.5,0.4-1,0.9-1.4,1.4c-0.1,0.1-0.2,0.2-0.3,0.3c-0.5,0.5-1,0.9-1.5,1.4c-0.1,0.1-0.2,0.2-0.3,0.3
			c-0.5,0.4-1,0.9-1.5,1.3c-0.1,0.1-0.2,0.1-0.3,0.2c-0.5,0.5-1.1,1-1.6,1.5c-0.1,0.1-0.3,0.2-0.4,0.4c-0.5,0.5-1.1,1-1.6,1.5
			c-0.1,0.1-0.3,0.2-0.4,0.4c-0.6,0.5-1.1,1-1.7,1.5c-0.1,0.1-0.2,0.2-0.3,0.2c-0.5,0.5-1.1,0.9-1.6,1.4c-0.1,0.1-0.2,0.2-0.4,0.3
			c-0.6,0.5-1.1,1-1.7,1.5c-0.1,0.1-0.3,0.2-0.4,0.4c-0.6,0.5-1.1,1-1.7,1.4c-0.1,0.1-0.3,0.2-0.4,0.3c-0.6,0.5-1.2,1-1.8,1.4
			c-0.1,0-0.1,0.1-0.2,0.2c-0.6,0.5-1.2,0.9-1.8,1.4c-0.1,0.1-0.2,0.2-0.4,0.3c-0.6,0.5-1.2,0.9-1.8,1.3c-0.1,0.1-0.3,0.2-0.4,0.3
			c-0.6,0.4-1.2,0.9-1.8,1.3c-0.1,0.1-0.2,0.2-0.3,0.2c-0.6,0.4-1.1,0.8-1.7,1.2c-0.1,0-0.1,0.1-0.2,0.1c-0.6,0.4-1.2,0.8-1.8,1.2
			c-0.1,0.1-0.2,0.2-0.4,0.2c-0.6,0.4-1.1,0.7-1.7,1.1c-0.1,0.1-0.2,0.1-0.4,0.2c-0.6,0.3-1.1,0.7-1.7,1c-0.1,0-0.1,0.1-0.2,0.1
			c-0.5,0.3-1.1,0.6-1.6,0.9c-0.1,0-0.1,0.1-0.2,0.1c-0.5,0.3-1.1,0.5-1.6,0.8c-0.1,0-0.2,0.1-0.3,0.1c-0.5,0.2-1,0.5-1.5,0.7
			c-0.1,0-0.2,0.1-0.3,0.1c-0.5,0.2-1,0.4-1.5,0.5h-0.1c-0.5,0.1-0.9,0.3-1.4,0.4c-0.1,0-0.1,0-0.2,0c-0.4,0.1-0.9,0.2-1.3,0.2
			c-0.1,0-0.2,0-0.2,0c-0.4,0-0.8,0.1-1.2,0c-0.1,0-0.1,0-0.2,0c-0.4,0-0.8,0-1.1-0.1c-9.7-2.1-16.6-8.5-18-22.9
			C11.3,256.6,16.2,196.1,16.2,196.1z M32.2,169c-1.2-0.3-2.5,0.4-2.8,1.6c-0.3,1.2,0.4,2.5,1.6,2.8c1.2,0.3,2.5-0.4,2.8-1.6
			C34.1,170.6,33.4,169.3,32.2,169z M37,130.1l-0.2,0.7l7.7,2.1l0.3-1.3L37,130.1z M49.7,133l-3.2-0.8l-1.1,2.1l-10.3-2.2l-0.3-2.2
			l-5.1-1.1l-4,38.3l14.4,1L49.7,133z"/>
		<g>
			<path class="st18" d="M23.1,154l4.1-29.5l26.4,6.1l-12.1,38.1l-2.4,7.6l-19-1.5L23.1,154z M37,130.1l-0.2,0.7l7.7,2.1l0.3-1.3
				L37,130.1z M31,173.4c1.2,0.3,2.5-0.4,2.8-1.6c0.3-1.2-0.4-2.5-1.6-2.8c-1.2-0.3-2.5,0.4-2.8,1.6C29,171.8,29.7,173,31,173.4z
				 M40.1,168.2l9.7-35.1l-3.2-0.8l-1.1,2.1l-10.3-2.2l-0.3-2.2l-5.1-1.1l-4,38.3L40.1,168.2z"/>
		</g>
		<path class="st18" d="M119.2,97.2L119.2,97.2c-0.1,0.6-0.2,1.2-0.3,1.8c-0.3,1.9-0.6,3.8-0.8,5.7c-0.1,1.3-0.2,2.6-0.3,3.8
			c-0.2,3.1-0.3,6.1-0.3,9c0,3.2,0,6.2-0.1,8.9c0,1.1,0,2.3-0.1,3.5c0,1.1-0.1,2.2-0.1,3.3c0,0.2,0,0.3,0,0.5
			c-0.7,15.1-0.9,33,21,37.8l0,0l-1.2,7c0,0-13.7,3.9-15.4,5.9c-0.1,0.1-0.2,0.3-0.2,0.6c0,0.1,0,0.1,0,0.2c0,0.2-0.1,0.5-0.1,0.9
			c0,1,0,2.3,0.2,3.7c0.3,2.2,0.8,4.9,1.3,7.4l0,0l2.3,54.1l13.3-44.9l-3.9-4.4c3.9-2.9,7.6-6.1,8.8-5.3c1,0.8,2.7,3.4,4.5,6.1
			l-4.7,4.2c0,0,1.7,20.8,0.6,45.3c8-20.7,16.8-43.5,21.2-54.7c2.1-2.6,3.8-5.2,4.5-7.3c0.3-0.8,0.4-1.6,0.4-2.2l0,0
			c0-0.1,0-0.2,0-0.3c-0.9-5.6-7.9-8.1-7.9-8.1l4.4-10.2l0,0c0.4-0.1,0.7-0.3,1.1-0.5c0.3-0.1,0.6-0.3,0.9-0.4
			c0.6-0.3,1.2-0.6,1.7-0.9c0.3-0.1,0.5-0.3,0.8-0.5c3.7-2.3,6.6-5,8.7-7.8c0.3-0.4,0.6-0.8,0.9-1.2c0.3-0.4,0.6-0.8,0.8-1.1
			c0.1-0.2,0.3-0.4,0.4-0.6c0.2-0.4,0.5-0.8,0.7-1.1c1.1-1.8,1.8-3.5,2.3-4.8c0.2-0.4,0.3-0.8,0.4-1.1c0.4-1.2,0.6-2,0.6-2
			c3.3-0.7,14.4-1,16.2-16.4c0.1-1,0.2-1.9,0.2-2.8c0-0.4,0-0.8,0-1.1v-0.1c0-0.3,0-0.6-0.1-0.9c0-0.3-0.1-0.6-0.1-0.9
			c0-0.1,0-0.2-0.1-0.4c0-0.3-0.1-0.5-0.2-0.7c-0.1-0.3-0.2-0.6-0.3-0.8c-0.2-0.5-0.4-0.9-0.7-1.3c-0.3-0.5-0.6-0.9-0.9-1.2
			c-0.1-0.2-0.3-0.3-0.5-0.5l0,0c-0.2-0.1-0.3-0.3-0.5-0.4s-0.3-0.2-0.5-0.3l0,0c-0.2-0.1-0.4-0.2-0.5-0.3c-0.2-0.1-0.4-0.2-0.5-0.2
			c-0.2-0.1-0.4-0.1-0.6-0.2c-0.2-0.1-0.4-0.1-0.5-0.2l0,0v-0.1c0.4,0.1,0.8,0.3,1.1,0.4c0.1,0.1,0.3,0.1,0.4,0.2
			c0.5,0.3,0.9,0.5,1,0.6c0,0,0.1,0,0.1,0.1l0,0l4.9-22.8l5.8-3c0,0-6.2-5.7-12.6-8.9c4.5-5.1,4.5-9.7,4.5-9.8c0,0-13.8-0.6-23.2-11
			s-36.7-21-57.3-6.7s-14.1,35.3-1.8,38.8C118.8,97.1,119,97.2,119.2,97.2z"/>
	</g>
</g>
</svg>
