<?xml version="1.0" encoding="utf-8"?>
<!-- Generator: Adobe Illustrator 22.1.0, SVG Export Plug-In . SVG Version: 6.00 Build 0)  -->
<svg version="1.1" id="Layer_1" xmlns="http://www.w3.org/2000/svg" xmlns:xlink="http://www.w3.org/1999/xlink" x="0px" y="0px"
	 viewBox="0 0 1920 450" style="enable-background:new 0 0 1920 450;" xml:space="preserve">
<style type="text/css">
	.st0{display:none;}
	.st1{display:inline;fill:#FBC0A4;}
	.st2{display:inline;}
	.st3{fill:#302624;}
	.st4{fill:#3E3533;}
	.st5{fill:#F8E8D8;}
	.st6{display:inline;fill:#302624;}
	.st7{display:inline;fill:#3E3533;}
	.st8{display:inline;fill:#F8E8D8;}
	.st9{fill:#FBC0A4;}
	.st10{display:inline;fill:#F84511;}
	.st11{fill:#F6876E;}
	.st12{fill:#F69D7D;}
	.st13{display:inline;fill:url(#SVGID_1_);}
	.st14{display:inline;fill:url(#SVGID_2_);}
	.st15{fill:url(#SVGID_3_);}
	.st16{fill:#027BEC;}
	.st17{fill:#00FFE5;}
</style>
<text transform="matrix(1 0 0 1 -1193.8384 -258.0948)" style="font-family:'Poppins-Regular'; font-size:89.5404px;">halopengadaan</text>
<text transform="matrix(1 0 0 1 -1158.5413 -707.0948)" style="font-family:'Poppins-Regular'; font-size:89.5404px;">halopengadaan</text>
<g class="st0">
	<path class="st1" d="M-119,121.4c-0.3-6.1-4.1-22-1.7-25.3c2.4-3.3,6.6-7.3,3.9-11.4c-0.5-0.8-1-1.6-1-2.5c0-1.1,0.8-2,1.4-2.9
		c0.6-0.9,1.1-2.1,0.5-3c-0.6-1-1.9-1.1-2.7-2c-0.7-0.7-0.7-1.8-0.6-2.8c0.1-1,0.2-2-0.1-2.9c-1.9-4.7-9.9,2.2-11.6,3.7
		c-1.7,1.4-3.3,3-4.8,4.6c-0.4,0.4-1.9,1.5-2,2.2l-1.3,7.1l9.8,28.5L-119,121.4z"/>
	<g class="st2">
		<polygon class="st3" points="-136.2,85.4 -147.9,48.3 -126.6,43.4 -120.9,84.2 		"/>
		<path class="st4" d="M-131.9,81.7c0.3,1,1.3,1.6,2.3,1.3c1-0.3,1.6-1.3,1.3-2.3c-0.3-1-1.3-1.6-2.3-1.3
			C-131.5,79.7-132.1,80.7-131.9,81.7z"/>
		<polygon class="st5" points="-142.2,49.7 -141.3,51.5 -132.9,49.7 -132.7,47.9 -128.5,47 -125.3,78 -137,78.8 -144.8,50.4 		"/>
		<polygon class="st4" points="-134.5,48 -140.8,49.3 -140.5,50.3 -134.3,48.6 		"/>
	</g>
	<path class="st1" d="M-135.5,94.9c0,0-9.9-8.2-9.3-11.3c0.6-3.1,14.2-7.9,14.9-4.1c0.7,3.8-6.4,5.9-6.4,5.9s9.4,3.5,9.7,14
		c0.1,2.3-4.6,10.1-4.1,13.3C-129,124.3-135.5,94.9-135.5,94.9z"/>
	<path class="st6" d="M-171.8,240.9c-16.6,5.7-54.1,14.3-84.6,1.8c0-7.8,0.1-18.2,0-23.8l83.2,7.2
		C-172.8,230.9-172.3,234.2-171.8,240.9z"/>
	<path class="st7" d="M-117.7,101.4c-9.2-5.3-21.8-0.9-21.8-0.9l-1.3,45.6c0,0-34.4-42.9-38.9-45.3c-0.2-0.1-0.4-0.2-0.5-0.3
		c-0.1,0-0.1-0.1-0.2-0.1c-0.1-0.1-0.3-0.1-0.4-0.2c-0.1,0-0.2-0.1-0.2-0.1c-0.1-0.1-0.2-0.1-0.4-0.2c-0.1,0-0.2-0.1-0.3-0.1
		c-0.1-0.1-0.2-0.1-0.4-0.2c-0.1,0-0.2-0.1-0.3-0.1c-0.1,0-0.3-0.1-0.4-0.1c-0.1,0-0.2-0.1-0.3-0.1c-0.1,0-0.3-0.1-0.4-0.1
		c-0.1,0-0.2-0.1-0.3-0.1c-0.2,0-0.4-0.1-0.5-0.1c-0.1,0-0.3-0.1-0.4-0.1c-0.2,0-0.5-0.1-0.7-0.1c-0.1,0-0.3,0-0.4-0.1
		c-0.2,0-0.3-0.1-0.5-0.1c-0.2,0-0.3,0-0.5-0.1c-0.2,0-0.3,0-0.5-0.1c-0.2,0-0.3,0-0.5,0c-0.2,0-0.4,0-0.6,0c-0.2,0-0.4,0-0.5,0
		c-0.2,0-0.4,0-0.6,0c-0.2,0-0.4,0-0.6,0c-0.2,0-0.4,0-0.7,0c-0.2,0-0.4,0-0.6,0c-0.3,0-0.5,0-0.8,0.1c-0.2,0-0.3,0-0.5,0
		c-29.4-8.2-64.6-1.3-81.6,11.3c-0.4,0.3-0.8,0.6-1.1,1c-15.1,13.4-46.5,56.1-47.5,67.8c-0.4,4.3,39.9,47.2,39.9,47.2
		c8.3-5.1,15.6-16.9,15.5-16.8l-22.1-33.6l22.5-28.8l1.3,3.9l11.2,40.1l-6.5,44.2c0,0,58.1,22.1,94.6-1.7l-4.3-57.3c0,0,0,0,0,0
		l-1.5-19.3c0.3,0.3,0.6,0.6,0.9,0.9c0.1,0.1,0.1,0.1,0.2,0.2c0.3,0.3,0.7,0.6,1,1c0.1,0.1,0.1,0.1,0.2,0.2c0.3,0.3,0.7,0.7,1.1,1
		c0,0,0.1,0.1,0.1,0.1c0.4,0.4,0.8,0.7,1.1,1.1c0.1,0.1,0.2,0.2,0.2,0.2c0.4,0.4,0.8,0.7,1.2,1.1c0.1,0.1,0.2,0.2,0.3,0.3
		c0.4,0.4,0.8,0.8,1.2,1.1c0.1,0.1,0.2,0.1,0.2,0.2c0.4,0.4,0.8,0.7,1.2,1.1c0.1,0.1,0.1,0.1,0.2,0.2c0.4,0.4,0.9,0.8,1.3,1.2
		c0.1,0.1,0.2,0.2,0.3,0.3c0.4,0.4,0.9,0.8,1.3,1.2c0.1,0.1,0.2,0.2,0.3,0.3c0.5,0.4,0.9,0.8,1.4,1.2c0.1,0.1,0.1,0.1,0.2,0.2
		c0.4,0.4,0.9,0.8,1.3,1.1c0.1,0.1,0.2,0.2,0.3,0.2c0.5,0.4,0.9,0.8,1.4,1.2c0.1,0.1,0.2,0.2,0.4,0.3c0.5,0.4,0.9,0.8,1.4,1.2
		c0.1,0.1,0.2,0.2,0.3,0.3c0.5,0.4,1,0.8,1.4,1.2c0.1,0,0.1,0.1,0.2,0.1c0.5,0.4,0.9,0.7,1.4,1.1c0.1,0.1,0.2,0.2,0.3,0.2
		c0.5,0.4,1,0.7,1.4,1.1c0.1,0.1,0.2,0.2,0.3,0.3c0.5,0.4,1,0.7,1.4,1.1c0.1,0.1,0.2,0.1,0.3,0.2c0.5,0.3,0.9,0.7,1.4,1
		c0,0,0.1,0.1,0.1,0.1c0.5,0.3,1,0.6,1.4,1c0.1,0.1,0.2,0.1,0.3,0.2c0.5,0.3,0.9,0.6,1.4,0.9c0.1,0.1,0.2,0.1,0.3,0.2
		c0.5,0.3,0.9,0.6,1.4,0.8c0.1,0,0.1,0.1,0.2,0.1c0.4,0.2,0.9,0.5,1.3,0.7c0.1,0,0.1,0.1,0.2,0.1c0.4,0.2,0.9,0.4,1.3,0.6
		c0.1,0,0.2,0.1,0.2,0.1c0.4,0.2,0.8,0.4,1.2,0.5c0.1,0,0.1,0.1,0.2,0.1c0.4,0.2,0.8,0.3,1.2,0.4c0,0,0.1,0,0.1,0
		c0.4,0.1,0.7,0.2,1.1,0.3c0.1,0,0.1,0,0.2,0c0.4,0.1,0.7,0.1,1,0.2c0.1,0,0.1,0,0.2,0c0.3,0,0.6,0,0.9,0c0,0,0.1,0,0.1,0
		c0.3,0,0.6,0,0.9-0.1c7.8-1.7,13.4-6.9,14.6-18.5C-113.7,150.4-117.7,101.4-117.7,101.4z"/>
	<path class="st1" d="M-276.5,224.2c1.7-3.5,3.4-6.9,5.4-10.2c1.2,0.9,2.4,1.8,3.4,2.6c3.7,2.8,6.2,4.7,6.7,4.9
		c2.3,1.3,11.7,0.9,12.2,7.1c0,0,2.7,3.1,5,6c2.3,2.9-6.1,3.3-6.2,6.9c-0.1,3.6-6.1,1.9-7,5.5c-0.9,3.6-1,3.3-4.1,3.4
		c-3,0.1-6.1-2.2-6.5-7.3c0,0-6.3-0.2-7.7-5.8c0-0.2-0.1-0.4-0.1-0.5C-276,232.4-271.7,227.8-276.5,224.2z"/>
	<path class="st8" d="M-280.7,224.2l2.3,2.4c0,0,7.6-4.2,11.5-12.6l-2.2-2.7c0,0-4.1,5.5-5.6,7.2
		C-276.1,220.1-280.7,224.2-280.7,224.2z"/>
	<path class="st7" d="M-266.9,23.3c1.9,8.8,8.1,30.6,8.1,30.6l5.5-6.3l-2.8-27.2L-266.9,23.3z"/>
	<path class="st6" d="M-204.6,93.4c0,0,7.2-0.3,8.6,0.5c1.3,0.8,4.6,10.3,5.3,11.8c0.7,1.5-8.8,10.3-8.8,10.3s7.8,12.8,7.5,13.8
		c-0.3,1-14.2,57-14.2,57s-33.6-50-34.2-52.5c-0.7-2.5,3.2-15.4,3.2-15.4s-9.9-7.3-10.5-8.9c-0.6-1.6-1.9-11.8,0-13.1
		c1.2-0.8,7.8-2.3,7.8-2.3L-204.6,93.4z"/>
	<path class="st8" d="M-240,97.2L-240,97.2c0,0,10.3,26.5,19.3,49.9c7.1,18.4,15-0.8,15-0.8l2.2-52.7c-0.5,0-1.5-0.2-2-0.2
		L-240,97.2z"/>
	<g id="XMLID_4505_" class="st2">
		<g id="XMLID_4507_">
			<path class="st9" d="M-213.4,98.7c-3.1,1.8-9.5,2.7-12.9,2.8c-5.2,0.1-3.1-2.9-4.8-3.3l-16.7-38.6l30.2,13.6l0.1,1.3L-213.4,98.7
				z"/>
		</g>
	</g>
	<path class="st10" d="M-205.7,146.2l-10.8-36.3l4.7-5.3l-8-4.9l-6.1,5.6l5.7,5c0,0-1.4,16.8-0.5,36.7c7.1,18.4,13.5,34.8,13.5,34.8
		L-205.7,146.2z"/>
	<g id="XMLID_4499_" class="st2">
		<g id="XMLID_4500_">
			<path class="st5" d="M-235.4,88.4c0,0,12.2,11.6,15.3,11.1c3.1-0.5,4.7-12.2,4.7-12.2s11.1,3.2,12.5,4.7c1.4,1.6-2,16.7-3.4,17.5
				c-3.1,1.6-12.3-8.8-14-7.5c-1.7,1.3-6.5,10.1-8,10c-1.6-0.2-14.1-12.5-13.4-17.1S-235.4,88.4-235.4,88.4z"/>
		</g>
	</g>
	<path class="st1" d="M-258.7,39.1c0,0-10.4-2.4-9,10.1c1.4,12.5,10.5,12.7,13.1,13.3c0,0,5,22.2,32.4,20.1s22.9-23.3,22.7-37.4
		c-0.2-14.1,1.4-38.5-16.6-40.3C-234.2,3-260.3,4.2-258.7,39.1z"/>
	<g class="st2">
		<path class="st11" d="M-214.4,62.7c0.1,0.2-0.6,0.9-2,1.4c-0.7,0.3-1.6,0.5-2.5,0.7c-1,0.1-2.1,0.1-3.2,0
			c-1.1-0.2-2.2-0.4-3.1-0.8c-0.9-0.4-1.7-0.8-2.3-1.3c-1.2-0.9-1.7-1.7-1.5-1.9c0.2-0.2,1,0.2,2.2,0.7c0.6,0.3,1.4,0.5,2.2,0.8
			c0.8,0.2,1.8,0.4,2.8,0.6c1,0.1,2,0.1,2.8,0.1c0.9,0,1.7-0.1,2.3-0.2C-215.4,62.7-214.5,62.5-214.4,62.7z"/>
	</g>
	<g class="st2">
		<path class="st12" d="M-219,58.7c0-0.3,0.9-0.5,1.3-1.7c0.2-0.6,0.3-1.3,0.2-2.1c-0.2-0.8-0.6-1.7-1-2.8c-1.9-4.2-3.1-7.7-2.6-7.9
			c0.5-0.2,2.4,3,4.3,7.1c0.5,1,0.9,2.2,1,3.3c0.1,0.6,0,1.1-0.1,1.7c-0.1,0.5-0.4,1-0.6,1.3c-0.5,0.7-1.2,1.1-1.7,1.2
			C-218.8,59-219,58.8-219,58.7z"/>
	</g>
	<g class="st2">
		<path class="st4" d="M-227,36.4c-0.2,0.2-0.9-0.1-2.1-0.4c-1.2-0.3-2.9-0.6-4.8-0.5c-1.8,0.2-3.4,0.8-4.6,1.4
			c-0.6,0.3-1,0.5-1.4,0.7c-0.3,0.2-0.6,0.2-0.7,0.1c-0.1-0.1,0-0.3,0.2-0.7c0.2-0.4,0.6-0.8,1.1-1.3c1.1-0.9,2.9-1.9,5.2-2.1
			c2.2-0.2,4.2,0.4,5.4,1.1C-227.4,35.5-226.9,36.2-227,36.4z"/>
	</g>
	<g class="st2">
		<path class="st4" d="M-216.4,36c-0.2-0.2,0.2-1,1.3-1.9c1.1-0.9,2.9-1.9,5.1-2.1c2.3-0.2,4.2,0.4,5.5,1.1c0.6,0.4,1.1,0.7,1.3,1
			c0.3,0.3,0.4,0.5,0.3,0.6c-0.1,0.1-0.3,0.1-0.7,0c-0.4-0.1-0.9-0.2-1.5-0.4c-1.2-0.3-2.9-0.6-4.7-0.5c-1.9,0.2-3.5,0.8-4.6,1.4
			C-215.5,35.7-216.2,36.2-216.4,36z"/>
	</g>
	<path class="st7" d="M-229.6,45.3c0.1,2-1.5,3.8-3.5,3.8c-2,0.1-3.8-1.5-3.8-3.5c-0.1-2,1.5-3.8,3.5-3.8
		C-231.4,41.7-229.7,43.3-229.6,45.3z"/>
	<path class="st7" d="M-208.7,44.4c0.1,2-1.5,3.8-3.5,3.8c-2,0.1-3.8-1.5-3.8-3.5c-0.1-2,1.5-3.8,3.5-3.8
		C-210.5,40.8-208.8,42.4-208.7,44.4z"/>
	
		<linearGradient id="SVGID_1_" gradientUnits="userSpaceOnUse" x1="521.3456" y1="51.2041" x2="526.8363" y2="48.1293" gradientTransform="matrix(-1 0 0 1 263.7427 0)">
		<stop  offset="0" style="stop-color:#F69D7D"/>
		<stop  offset="1" style="stop-color:#F69D7D;stop-opacity:0.6"/>
	</linearGradient>
	<path class="st13" d="M-264.2,44.6c-1,3.3,0.4,6.8,1.7,9.9c0.4,0.9,0.8,1.9,1.7,2.5c0.8,0.6,2.2,0.5,2.7-0.4
		c0.4-0.9-0.2-1.9-0.7-2.7c-0.5-0.9-0.8-2.1,0.1-2.7c0.4-0.2,0.9-0.2,1.3-0.4c0.9-0.5,0.9-1.7,0.6-2.7c-0.3-1.3-0.8-2.6-1.5-3.9
		c-0.7-1.2-1.7-2.4-3-2.4C-262.7,41.9-263.8,43.2-264.2,44.6z"/>
	<path class="st7" d="M-202-10.1c-16.7-11.6-38.8-3-46.4,5.4c-7.6,8.4-18.8,8.9-18.8,8.9s0,3.7,3.6,7.9c-5.2,2.6-10.2,7.2-10.2,7.2
		l4.7,2.4l4,18.4c0,0,2.4-1.9,5.5-1.3c3.8,0.7,5,12.1,5,12.1s3.8-0.2,5.5-2.2c0.8-0.9,0-5.1-1-9.2v-2.3c0,0,9.4-2.6,6-16.4
		c7.5-0.1,12.7-3.8,12.7-3.8c6.2,5,10.2,3.4,12.7,1.9c2.5-1.5,8.2,5.4,18.2,2.5C-190.6,18.4-185.3,1.4-202-10.1z"/>
</g>
<g class="st0">
	<path class="st1" d="M475.3,132c-0.3-6.1-4.1-22-1.7-25.3c2.4-3.3,6.6-7.3,3.9-11.4c-0.5-0.8-1-1.6-1-2.5c0-1.1,0.8-2,1.4-2.9
		c0.6-0.9,1.1-2.1,0.5-3c-0.6-1-1.9-1.1-2.7-2c-0.7-0.7-0.7-1.8-0.6-2.8c0.1-1,0.2-2-0.1-2.9c-1.9-4.7-9.9,2.2-11.6,3.7
		c-1.7,1.4-3.3,3-4.8,4.6c-0.4,0.4-1.9,1.5-2,2.2l-1.3,7.1l9.8,28.5L475.3,132z"/>
	<g class="st2">
		<polygon class="st3" points="458,96 446.3,59 467.7,54.1 473.4,94.8 		"/>
		<path class="st4" d="M462.4,92.4c0.3,1,1.3,1.6,2.3,1.3c1-0.3,1.6-1.3,1.3-2.3c-0.3-1-1.3-1.6-2.3-1.3
			C462.7,90.4,462.1,91.4,462.4,92.4z"/>
		<polygon class="st5" points="452.1,60.4 453,62.1 461.3,60.3 461.6,58.5 465.7,57.7 469,88.6 457.3,89.4 449.5,61 		"/>
		<polygon class="st4" points="459.8,58.7 453.5,59.9 453.8,60.9 460,59.2 		"/>
	</g>
	<path class="st1" d="M458.8,105.5c0,0-9.9-8.2-9.3-11.3c0.6-3.1,14.2-7.9,14.9-4.1S458,96,458,96s9.4,3.5,9.7,14
		c0.1,2.3-4.6,10.1-4.1,13.3C465.3,134.9,458.8,105.5,458.8,105.5z"/>
	<path class="st6" d="M422.5,251.5c-16.6,5.7-54.1,14.3-84.6,1.8c0-7.8,0.1-18.2,0-23.8l83.2,7.2C421.5,241.6,422,244.8,422.5,251.5
		z"/>
	<path class="st7" d="M356.4,113.5c-1.7-2.1-3-4.2-3.6-5.9c3-0.5,6.1-1,9.2-1.3c1.5-0.2,3.1-0.3,4.7-0.4c2.3-0.1,4.6-0.2,7-0.2
		c1.2,0,2.3,0,3.5,0c1,0,2.1,0.1,3.1,0.1c3.5,0.2,7,0.5,10.4,1.1c0.3,0,0.5,0.1,0.8,0.1c-0.2,1.8-0.6,4-1.1,6c0,0,0,0,0,0l-1.8,43.8
		l-1.5,35.6c0,0-6.2-16.1-13.3-34.3c-0.1-0.2-0.1-0.4-0.2-0.6C367.1,140.9,359.9,122.5,356.4,113.5z"/>
	<path class="st7" d="M478.8,178.5c-1.2,11.6-6.8,16.8-14.6,18.5c-0.3,0.1-0.6,0.1-0.9,0.1c0,0-0.1,0-0.1,0c-0.3,0-0.6,0-0.9,0
		c-0.1,0-0.1,0-0.2,0c-0.3,0-0.7-0.1-1-0.2c0,0-0.1,0-0.1,0c-0.4-0.1-0.7-0.2-1.1-0.3c0,0,0,0-0.1,0c-0.4-0.1-0.8-0.3-1.2-0.4
		c-0.1,0-0.1,0-0.2-0.1c-0.4-0.2-0.8-0.3-1.2-0.5c-0.1,0-0.2-0.1-0.3-0.1c-0.4-0.2-0.8-0.4-1.3-0.6c-0.1,0-0.1-0.1-0.2-0.1
		c-0.4-0.2-0.8-0.5-1.3-0.7c-0.1,0-0.1-0.1-0.2-0.1c-0.4-0.3-0.9-0.5-1.4-0.8c-0.1-0.1-0.2-0.1-0.3-0.2c-0.5-0.3-0.9-0.6-1.4-0.9
		c-0.1-0.1-0.2-0.1-0.3-0.2c-0.5-0.3-1-0.6-1.4-1c0,0-0.1-0.1-0.2-0.1c-0.4-0.3-0.9-0.7-1.4-1c-0.1-0.1-0.2-0.1-0.3-0.2
		c-0.5-0.3-1-0.7-1.4-1c-0.1-0.1-0.2-0.2-0.3-0.3c-0.5-0.4-1-0.7-1.4-1.1c-0.1-0.1-0.2-0.2-0.3-0.2c-0.5-0.4-0.9-0.7-1.4-1.1
		c0,0-0.1-0.1-0.2-0.1c-0.5-0.4-1-0.8-1.4-1.2c-0.1-0.1-0.2-0.2-0.3-0.3c-0.5-0.4-0.9-0.8-1.4-1.2c-0.1-0.1-0.2-0.2-0.4-0.3
		c-0.5-0.4-0.9-0.8-1.4-1.2c-0.1-0.1-0.2-0.2-0.3-0.2c-0.4-0.4-0.9-0.8-1.3-1.1c-0.1-0.1-0.1-0.1-0.2-0.2c-0.5-0.4-0.9-0.8-1.4-1.2
		c-0.1-0.1-0.2-0.2-0.3-0.3c-0.4-0.4-0.9-0.8-1.3-1.2c-0.1-0.1-0.2-0.2-0.3-0.3c-0.5-0.4-0.9-0.8-1.3-1.2c-0.1-0.1-0.1-0.1-0.2-0.2
		c-0.4-0.4-0.8-0.7-1.2-1.1c-0.1-0.1-0.2-0.1-0.2-0.2c-0.4-0.4-0.8-0.8-1.2-1.1c-0.1-0.1-0.2-0.2-0.3-0.3c-0.4-0.4-0.8-0.7-1.2-1.1
		c-0.1-0.1-0.2-0.2-0.2-0.2c-0.4-0.4-0.8-0.7-1.1-1.1c0,0-0.1,0-0.1-0.1c-0.4-0.3-0.7-0.7-1-1c-0.1-0.1-0.1-0.1-0.2-0.2
		c-0.3-0.3-0.7-0.7-1-1c-0.1,0-0.1-0.1-0.2-0.2c-0.3-0.3-0.6-0.6-0.9-0.9l1.5,19.3l4.4,57.3c-0.5,0.3-0.9,0.6-1.4,0.9
		c-0.9,0.5-1.8,1.1-2.8,1.6c-0.5,0.3-1,0.5-1.4,0.7v0c-25.1,12.7-57.9,7.2-75.9,2.6c-3.4-0.9-6.2-1.7-8.4-2.4
		c-3.1-1-4.8-1.7-4.8-1.7l1.9-12.8v0l4.7-31.4l-11.2-40.1l-1.3-3.9l-22.5,28.8l22.1,33.6c0,0-0.1,0.1-0.2,0.4
		c-0.1,0.1-0.1,0.2-0.2,0.3c0,0,0,0.1-0.1,0.2c-0.1,0.1-0.1,0.2-0.2,0.3c-0.2,0.3-0.5,0.7-0.8,1.1v0l0,0c-0.5,0.8-1.2,1.7-2,2.7
		c0,0.1-0.1,0.1-0.2,0.2c0,0,0,0,0,0c-2.3,3.1-5.6,6.9-9.3,9.8l0,0c-0.1,0.1-0.2,0.1-0.3,0.2c-0.3,0.2-0.5,0.4-0.8,0.6
		c-0.2,0.2-0.4,0.3-0.7,0.5c-0.3,0.2-0.6,0.4-0.9,0.6c0,0-40.2-43-39.9-47.2c1-11.6,32.3-54.4,47.5-67.8c0.3-0.3,0.7-0.6,1.1-1
		c0.4-0.3,0.8-0.5,1.1-0.8c0.2-0.1,0.4-0.3,0.5-0.4c0.3-0.2,0.5-0.4,0.8-0.6c0.3-0.2,0.7-0.4,1-0.7c0.3-0.2,0.7-0.4,1-0.6
		c0.3-0.2,0.6-0.4,1-0.6c0.3-0.2,0.7-0.4,1-0.5c1.3-0.7,2.8-1.4,4.2-2.1c0.4-0.2,0.8-0.4,1.2-0.5c1-0.4,2-0.9,3.1-1.3
		c0.5-0.2,1.1-0.4,1.6-0.6c0.5-0.2,1.1-0.4,1.7-0.6c1.8-0.6,3.6-1.2,5.5-1.7c0.6-0.2,1.3-0.4,1.9-0.5c-0.7,3.2,0.2,10.3,0.7,11.6
		c0.6,1.6,10.5,8.9,10.5,8.9s-3.9,12.9-3.2,15.4c0.7,2.5,34.2,52.5,34.2,52.5s13.8-56,14.2-57c0.3-1-7.5-13.8-7.5-13.8
		s9.5-8.8,8.8-10.3c-0.4-0.9-1.7-4.4-2.9-7.4c0.3,0.1,0.6,0.2,0.9,0.3c0.2,0,0.4,0,0.5,0c0.3,0,0.5,0,0.8-0.1c0.2,0,0.4,0,0.6,0
		c0.2,0,0.4,0,0.7,0h1.2c0.2,0,0.4,0,0.5,0c0.2,0,0.4,0,0.6,0c0.2,0,0.3,0,0.5,0c0.2,0,0.4,0,0.5,0c0.1,0,0.3,0,0.5,0.1
		c0.2,0,0.4,0,0.5,0.1c0.1,0,0.3,0,0.4,0.1c0.2,0,0.5,0.1,0.7,0.1c0.2,0,0.3,0.1,0.4,0.1c0.2,0,0.4,0.1,0.5,0.1
		c0.1,0,0.2,0.1,0.3,0.1c0.1,0,0.3,0.1,0.4,0.1c0.1,0,0.2,0.1,0.3,0.1c0.1,0,0.3,0.1,0.4,0.1c0.1,0,0.2,0.1,0.3,0.1
		c0.1,0,0.3,0.1,0.4,0.2c0.1,0,0.2,0.1,0.3,0.1c0.1,0.1,0.3,0.1,0.4,0.2c0.1,0,0.2,0.1,0.2,0.1c0.1,0.1,0.3,0.1,0.4,0.2
		c0.1,0,0.1,0.1,0.2,0.1c0.2,0.1,0.4,0.2,0.5,0.3c4.4,2.4,38.9,45.3,38.9,45.3l1.3-45.6c0,0,0.1,0,0.3-0.1c0.1,0,0.3-0.1,0.5-0.2
		c0.3-0.1,0.7-0.2,1.1-0.3c0.2,0,0.4-0.1,0.6-0.1c0.3-0.1,0.6-0.1,1-0.2c0.2,0,0.3-0.1,0.5-0.1c0.1,0,0.2-0.1,0.4-0.1
		c0.2,0,0.5-0.1,0.7-0.1h0c2.2-0.4,5-0.6,7.8-0.4c1.7,0.1,3.4,0.4,5.1,0.9c0.3,0.1,0.7,0.2,1,0.3c0.3,0.1,0.6,0.2,1,0.4
		c0.3,0.1,0.6,0.3,1,0.4c0.3,0.1,0.6,0.3,0.9,0.5C476.6,112,480.6,161,478.8,178.5z"/>
	<path class="st1" d="M317.8,234.8c1.7-3.5,3.4-6.9,5.4-10.2c1.2,0.9,2.4,1.8,3.4,2.6c3.7,2.8,6.2,4.7,6.7,4.9
		c2.3,1.3,11.7,0.9,12.2,7.1c0,0,2.7,3.1,5,6c2.3,2.9-6.1,3.3-6.2,6.9c-0.1,3.6-6.1,1.9-7,5.5c-0.9,3.6-1,3.3-4.1,3.4
		c-3,0.1-6.1-2.2-6.5-7.3c0,0-6.3-0.2-7.7-5.8c0-0.2-0.1-0.4-0.1-0.5C318.2,243.1,322.5,238.4,317.8,234.8z"/>
	<path class="st8" d="M313.6,234.8l2.3,2.4c0,0,7.6-4.2,11.5-12.6l-2.2-2.7c0,0-4.1,5.5-5.6,7.2
		C318.2,230.7,313.6,234.8,313.6,234.8z"/>
	<path class="st7" d="M327.4,33.9c1.9,8.8,8.1,30.6,8.1,30.6l5.5-6.3L338.2,31L327.4,33.9z"/>
	<path class="st6" d="M400.6,109c-3-0.8-6-1.4-9.1-1.9c-0.2,1.8-0.6,4-1.1,6c0,0,0,0,0,0l-1.8,43.8l-1.5,35.6
		c0,0-6.2-16.1-13.3-34.3c-0.1-0.2-0.1-0.4-0.2-0.6c-6.5-16.8-13.6-35.2-17.1-44.2c-1.7-2.1-3-4.2-3.6-5.9c-0.2-0.7-0.4-1.3-0.3-1.8
		h0c1-0.2,1.8-0.4,1.8-0.4l7.3-0.3l4-0.2l12-0.5l2.5-0.1l7.2-0.3l2.4-0.1c0,0,0.8,0,2,0c2.2,0,5.7,0,6.5,0.5c0.1,0,0.1,0.1,0.2,0.2
		c0,0,0.1,0.1,0.1,0.1c0,0,0.1,0.1,0.1,0.2c0,0,0.1,0.1,0.1,0.2c0,0.1,0.1,0.1,0.2,0.2c0.1,0.1,0.1,0.2,0.2,0.4
		c0.1,0.2,0.3,0.5,0.4,0.7c0.1,0.1,0.1,0.3,0.2,0.4c0.1,0.1,0.1,0.2,0.2,0.3C400.1,107.8,400.3,108.4,400.6,109z"/>
	<path class="st8" d="M390.8,104.2l-0.1,2.7l-0.3,6.2c0,0,0,0,0,0l-1.8,43.8c0,0-7.7,18.8-14.8,1.4c-0.1-0.2-0.1-0.4-0.2-0.6
		c-6.5-16.8-13.6-35.2-17.1-44.2c-1.4-3.6-2.2-5.7-2.2-5.7l8.1-0.9l5-0.6l6.4-0.7l3.6-0.4l2.8-0.3l7.1-0.8l1.5-0.2
		c0.2,0,0.5,0,0.9,0.1C390.1,104.1,390.5,104.1,390.8,104.2z"/>
	<g id="XMLID_3_" class="st2">
		<g id="XMLID_4_">
			<path class="st9" d="M380.9,109.3c-3.1,1.8-9.5,2.7-12.9,2.8c-5.2,0.1-3.1-2.9-4.8-3.3l-16.7-38.6l30.2,13.6l0.1,1.3L380.9,109.3
				z"/>
		</g>
	</g>
	<path class="st10" d="M388.6,156.9l-1.5,35.6c0,0-6.2-16.1-13.3-34.3c-0.1-0.2-0.1-0.4-0.2-0.6c-0.8-19.8,0.5-36.7,0.5-36.7
		l-3.8-3.4l-1.8-1.6l4.8-4.4l1.4-1.3l1.2,0.8l6.8,4.1L381,117l-3.2,3.6L388.6,156.9z"/>
	<g id="XMLID_1_" class="st2">
		<g id="XMLID_2_">
			<path class="st5" d="M391.5,107c-0.2,1.8-0.6,4-1.1,6c0,0,0,0,0,0c-0.8,3.6-1.8,6.8-2.5,7.1c-1.4,0.7-4.2-1.1-6.9-3.2
				c-3.1-2.4-6.2-5-7.1-4.3c-0.8,0.6-2.2,2.8-3.7,5c-1.7,2.6-3.5,5.1-4.4,5c-1-0.1-5.8-4.6-9.5-9.2c-1.7-2.1-3-4.2-3.6-5.9
				c-0.2-0.7-0.4-1.3-0.3-1.8c0-0.1,0-0.1,0-0.2c0.7-4.5,6.4-6.5,6.4-6.5s3.2,3,6.7,5.9c0.4,0.3,0.8,0.6,1.2,0.9
				c0.2,0.2,0.4,0.3,0.6,0.5c2.8,2.2,5.6,4,6.9,3.8c1.2-0.2,2.2-2.2,3-4.5c0-0.1,0.1-0.3,0.1-0.4c0.1-0.2,0.2-0.5,0.2-0.7
				c0.9-3.2,1.4-6.6,1.4-6.6s11.1,3.2,12.5,4.7c0.1,0.1,0.2,0.3,0.2,0.5c0,0.1,0,0.1,0,0.2c0,0.2,0.1,0.4,0.1,0.7
				C391.7,104.8,391.6,105.8,391.5,107z"/>
		</g>
	</g>
	<path class="st1" d="M335.5,49.7c0,0-10.4-2.4-9,10.1C328,72.2,337,72.5,339.7,73c0,0,5,22.2,32.4,20.1
		c27.4-2.1,22.9-23.3,22.7-37.4c-0.2-14.1,1.4-38.5-16.6-40.3C360.1,13.6,333.9,14.8,335.5,49.7z"/>
	<g class="st2">
		<path class="st11" d="M379.8,73.4c0.1,0.2-0.6,0.9-2,1.4c-0.7,0.3-1.6,0.5-2.5,0.7c-1,0.1-2.1,0.1-3.2,0c-1.1-0.2-2.2-0.4-3.1-0.8
			c-0.9-0.4-1.7-0.8-2.3-1.3c-1.2-0.9-1.7-1.7-1.5-1.9c0.2-0.2,1,0.2,2.2,0.7c0.6,0.3,1.4,0.5,2.2,0.8c0.8,0.2,1.8,0.4,2.8,0.6
			c1,0.1,2,0.1,2.8,0.1c0.9,0,1.7-0.1,2.3-0.2C378.9,73.3,379.7,73.1,379.8,73.4z"/>
	</g>
	<g class="st2">
		<path class="st12" d="M375.2,69.3c0-0.3,0.9-0.5,1.3-1.7c0.2-0.6,0.3-1.3,0.2-2.1c-0.2-0.8-0.6-1.7-1-2.8
			c-1.9-4.2-3.1-7.7-2.6-7.9c0.5-0.2,2.4,3,4.3,7.1c0.5,1,0.9,2.2,1,3.3c0.1,0.6,0,1.1-0.1,1.7c-0.1,0.5-0.4,1-0.6,1.3
			c-0.5,0.7-1.2,1.1-1.7,1.2C375.5,69.6,375.2,69.4,375.2,69.3z"/>
	</g>
	<g class="st2">
		<path class="st4" d="M367.3,47.1c-0.2,0.2-0.9-0.1-2.1-0.4c-1.2-0.3-2.9-0.6-4.8-0.5c-1.8,0.2-3.4,0.8-4.6,1.4
			c-0.6,0.3-1,0.5-1.4,0.7c-0.3,0.2-0.6,0.2-0.7,0.1c-0.1-0.1,0-0.3,0.2-0.7c0.2-0.4,0.6-0.8,1.1-1.3c1.1-0.9,2.9-1.9,5.2-2.1
			c2.2-0.2,4.2,0.4,5.4,1.1C366.9,46.1,367.4,46.9,367.3,47.1z"/>
	</g>
	<g class="st2">
		<path class="st4" d="M377.8,46.6c-0.2-0.2,0.2-1,1.3-1.9c1.1-0.9,2.9-1.9,5.1-2.1c2.3-0.2,4.2,0.4,5.5,1.1c0.6,0.4,1.1,0.7,1.3,1
			c0.3,0.3,0.4,0.5,0.3,0.6c-0.1,0.1-0.3,0.1-0.7,0c-0.4-0.1-0.9-0.2-1.5-0.4c-1.2-0.3-2.9-0.6-4.7-0.5c-1.9,0.2-3.5,0.8-4.6,1.4
			C378.7,46.3,378,46.8,377.8,46.6z"/>
	</g>
	<path class="st7" d="M364.7,56c0.1,2-1.5,3.8-3.5,3.8c-2,0.1-3.8-1.5-3.8-3.5c-0.1-2,1.5-3.8,3.5-3.8
		C362.8,52.4,364.6,53.9,364.7,56z"/>
	<path class="st7" d="M385.6,55c0.1,2-1.5,3.8-3.5,3.8c-2,0.1-3.8-1.5-3.8-3.5c-0.1-2,1.5-3.8,3.5-3.8C383.8,51.4,385.5,53,385.6,55
		z"/>
	
		<linearGradient id="SVGID_2_" gradientUnits="userSpaceOnUse" x1="-72.9155" y1="61.8297" x2="-67.4249" y2="58.7549" gradientTransform="matrix(-1 0 0 1 263.7427 0)">
		<stop  offset="0" style="stop-color:#F69D7D"/>
		<stop  offset="1" style="stop-color:#F69D7D;stop-opacity:0.6"/>
	</linearGradient>
	<path class="st14" d="M330.1,55.2c-1,3.3,0.4,6.8,1.7,9.9c0.4,0.9,0.8,1.9,1.7,2.5c0.8,0.6,2.2,0.5,2.7-0.4
		c0.4-0.9-0.2-1.9-0.7-2.7c-0.5-0.9-0.8-2.1,0.1-2.7c0.4-0.2,0.9-0.2,1.3-0.4c0.9-0.5,0.9-1.7,0.7-2.7c-0.3-1.3-0.8-2.6-1.5-3.9
		c-0.7-1.2-1.7-2.4-3-2.4C331.5,52.5,330.5,53.9,330.1,55.2z"/>
	<path class="st7" d="M392.3,0.5c-16.7-11.6-38.8-3-46.4,5.4c-7.6,8.4-18.8,8.9-18.8,8.9s0,3.7,3.6,7.9c-5.2,2.6-10.2,7.2-10.2,7.2
		l4.7,2.4l4,18.4c0,0,2.4-1.9,5.5-1.3c3.8,0.7,5,12.1,5,12.1s3.8-0.2,5.5-2.2c0.8-0.9,0-5.1-1-9.2v-2.3c0,0,9.4-2.6,6-16.4
		c7.5-0.1,12.7-3.8,12.7-3.8c6.2,5,10.2,3.4,12.7,1.9c2.5-1.5,8.2,5.4,18.2,2.5C403.7,29.1,408.9,12.1,392.3,0.5z"/>
</g>
<g>
	<polygon points="-1422.4,-134.9 -1395.1,-160.4 -1410.6,-174.1 -1435.2,-147.3 	"/>
	<polygon points="-1421.6,-137.6 -1398,-159.6 -1411.5,-171.5 -1432.7,-148.3 	"/>
	<path d="M-1437.8-134.5c0,0,4.1-1,2.9-5.8c-1.2-4.9,0.7-6,0.7-6l14.3,13.7c0,0-6.9,6.6-9,6.9
		C-1431.1-125.5-1439.9-131.9-1437.8-134.5z"/>
	<path d="M-1420-132.6c0,0,8.7-5.5,9.5-6.3c0.8-0.8,4.7-4.5,6.3-6.7c1.6-2.2-4.8-1.6-6.6,0.6c-1.8,2.3-3.5,2.9-4.8,3.4
		c-1.3,0.5-9,0.9-10.5,3.2C-1427.5-136.2-1420-132.6-1420-132.6z"/>
	<path d="M-1431.6-149.3c0,0,1,1.4,1.9-0.2c0.8-1.6,0.8-5.2-1.3-4.3C-1433.1-152.9-1431.6-149.3-1431.6-149.3z"/>
	<path d="M-1428.9-154.1c0,0,0.4,2.7,1.7,1.5c1.3-1.2,2.6-5.7,0.3-5.5C-1429.1-158-1428.9-154.1-1428.9-154.1z"/>
	<path d="M-1425.1-158c0,0,0,3.2,1.5,2.3c1.1-0.7,2.8-6.5,0.5-6.4C-1425.4-161.9-1425.1-158-1425.1-158z"/>
	<path d="M-1287,42.2c-1.3-2.3-5.9-6.4-4.1-6.7c2-0.3,11.4-0.2,12.1-2.4c0.7-2.1-5.4-1.2-7.2-1.5c-1.3-0.2-5.6-0.8-8.7-0.1
		c-3,0.7-8.1-2.9-8.1-2.9l-6.8,7.6c0,0,2,2.3,2.9,2.9c0.8,0.6,1.6,7.6,5.3,11.8c0.1,0.1,0.1,0.1,0.2,0.2l0,0c0,0,3.9,7.6,5.2,10.9
		c1.3,3.4,2.7,2.3,3.2,1.7c0.6-0.7-2.6-8.8-3.9-12.2c0.1,0,0.2-0.1,0.2-0.1c2.3,3.8,8.3,14.1,8.9,15.1c0.7,1.2,2.5,0.4,2.7-0.5
		c0.2-0.9-5.5-12.4-7.6-16.6c0,0,0.1,0,0.1-0.1c2.5,4.2,9.6,16.1,10.1,16.6c0.6,0.6,2.3-0.6,2.2-1.3c-0.1-1.1-6.6-14.1-8.7-18.2
		c0.1-0.1,0.2-0.1,0.2-0.2c2.4,2.9,8.9,10.7,9.7,11.7c1,1.2,1.9,0.6,2.1-0.9C-1276.9,55.4-1285.3,44.4-1287,42.2z"/>
	<path d="M-1378.4-113.6l-22.3,20.8l-2.5-20.6C-1399.5-113.5-1383.7-113.7-1378.4-113.6z"/>
	<path d="M-1295.5,30.3c0,0-10.5,8.2-14.7,7.1c-4.2-1.1-38.8-48.3-41.5-56.6c-2.8-8.2-5.8-32.7-5.8-32.7s-8.9,24.5-10.1,36.3
		c-1.2,11.8-6,33.4-6,33.4l-71,4.3c0,0-2.8-4.3-1.6-13.5c1.2-9.2,4.5-31,2.4-42.7c-0.3-1.5-0.5-3.2-0.6-4.9c7.7-3.8,15.6-7,22.7-8.6
		c20.9-4.7,22.7-36.7,22.7-36.7c0.1-1.4-6.4-0.8-6.4-0.8c0.7,33.6-17.1,34.8-17.1,34.8c-8.4,1.4-15.8,3-22.2,4.7
		c-0.2-10.2,0.7-20.5,0.7-20.5s-29.7,8.8-33.2,9.8c-3.5,1-12.5-4.4-14.8-9.9c-2.3-5.5,54-71.6,54-71.6l13,11l-16,27.1l-13.9,22
		l22.3-25.4c7.9-3,19.4-7.2,25.2-9.3l-2.3,1l2.9,26.4l6.2-8.1l3.1,9l28.2-26.5c8.2,3.9,20.7,10.2,23.1,12.2
		c3.6,3,13.6,65.3,15.5,69.5C-1328.8-24.6-1295.5,30.3-1295.5,30.3z"/>
	<path d="M-1444.7,22.2c0,0-1.8,1.8-2.9,9.9c0,0,67.1-2.5,74.3-4.9c0,0,1-8.9-0.5-9.2C-1375.3,17.7-1444.7,22.2-1444.7,22.2z"/>
	<path d="M-1400.6-92.8l-6.2,8.1l-2.9-26.4l2.3-1l0.1,0c2.1-0.8,3.5-1.3,3.6-1.3c0,0,0,0,0,0s0.3,0,0.7,0L-1400.6-92.8L-1400.6-92.8
		z"/>
	<polygon points="-1369.2,-110.5 -1369.3,-110.4 -1397.6,-83.9 -1400.6,-92.8 -1400.6,-92.9 -1378.4,-113.6 -1377,-114.9 	"/>
	<path d="M-1389,18.4c0,0,0.7,9.2,0.7,11.6l3.1-0.4c0,0-0.1-9.7-0.4-11.3L-1389,18.4z"/>
	<path d="M-1439.1,21.6c0,0-1.8,8.2-2.1,11.3l3.3-0.2c0,0,1.5-10.2,1.9-11.3L-1439.1,21.6z"/>
	<g>
		<path d="M-1399.1-84.1c0,0-1.8,32-22.7,36.7c-7.1,1.6-15,4.7-22.7,8.6c-14.9,7.4-28.8,17.5-34.2,24.1l-10,13v-14.5
			c0,0,3.1-17.8,43.8-29.1c6.4-1.8,13.8-3.4,22.2-4.7c0,0,17.8-1.2,17.1-34.8C-1405.5-84.9-1399-85.5-1399.1-84.1z"/>
	</g>
	<path d="M-1377-114.9l-1.4,1.3l-22.2,20.8l0,0l0,0l-2.4-20.6c-0.5,0-0.7,0-0.7,0c0.8-0.3,1.3-1.9,1.5-3.6c0.2-1.7,0.3-3.5,0.3-4.7
		c-0.7-0.1-1.3-0.2-2-0.4c-2.4-0.7-5.2-2.1-6.6-5.3c-10.7-25.5,0.1-44.7,0.1-44.7c5.7,1.5,10.4-0.9,20.5,0.6
		c10.1,1.5,0.2,18.9,0.2,18.9l5.6-0.6c0,0,0,0,0,0c0,2.3,0.4,4.2,1.8,4.4c1.1,0.2,3.1-1,4.8-3c0.7,4.1,0.1,10.3,0,10.6v0
		c-0.4,0.8-0.8,1.5-1.3,2.3c0,0.2-0.1,0.4-0.1,0.6C-1380.7-132.5-1378-119.2-1377-114.9z"/>
	<path d="M-1377.6-141.3c0-0.5,1.2-12-1.4-13.8c-2.6-1.8-5.2,1.8-5.2,1.8l-5.6,0.6c0,0,9.9-17.4-0.2-18.9
		c-10.1-1.5-14.8,0.9-20.5-0.6c0,0-5-7.2-5.3-13.3c-0.3-6,0.4-7.7,0.4-7.7s10.1,3.1,15.2,2.7c5.2-0.4,25.2-1,27.9,2.5
		c0,0,7.3-1.1,8.3,10.8C-1362.4-158.2-1377.6-141.3-1377.6-141.3L-1377.6-141.3z"/>
	<path d="M-1373.8-159.2c-0.5,2.7-2.1,5.4-3.8,7.3c-1.8,2-3.7,3.2-4.8,3c-1.3-0.2-1.8-2.1-1.8-4.4c0-1.5,0.2-3.2,0.5-4.8
		C-1382.7-163.5-1372.7-164.7-1373.8-159.2z"/>
	<path d="M-1406.4-85.3c0,0,4,3.4,8.5,0.6c0,0-1.7-7.8-2.8-8.1C-1401.7-93.1-1406.9-86.8-1406.4-85.3z"/>
	<path d="M-1410.7,19.5c0,0-9.9,0.4-13.2,0.9l0.4,10.8l13.4-0.8L-1410.7,19.5z"/>
</g>
<linearGradient id="SVGID_3_" gradientUnits="userSpaceOnUse" x1="-823.8768" y1="294.4052" x2="-823.8768" y2="183.4052">
	<stop  offset="0" style="stop-color:#00FFE5"/>
	<stop  offset="1" style="stop-color:#027BEC"/>
</linearGradient>
<rect x="-906.5" y="183.4" class="st15" width="165.3" height="111"/>
<rect x="-926" y="-13.9" class="st16" width="102.1" height="68.6"/>
<rect x="-823.9" y="-13.9" class="st17" width="102.1" height="68.6"/>
<g>
	<g>
		<path class="st16" d="M391.9,256.8c6.6,3.5,11.8,8.8,15.6,15.8c3.8,7,5.7,15.6,5.7,25.6v64.2h-17.9v-61.6
			c0-10.9-2.7-19.2-8.1-24.9c-5.4-5.8-12.9-8.6-22.3-8.6c-9.5,0-17.1,3-22.8,8.9c-5.6,6-8.4,14.6-8.4,26v60.2h-18.1v-147h18.1V269
			c3.6-5.6,8.5-9.9,14.8-12.9c6.3-3,13.3-4.6,21.2-4.6C377.8,251.5,385.2,253.3,391.9,256.8z"/>
		<path class="st16" d="M442.7,278.2c4.5-8.4,10.7-14.9,18.6-19.6c7.9-4.6,16.7-7,26.3-7c9.5,0,17.8,2.1,24.8,6.2
			c7,4.1,12.3,9.3,15.7,15.5v-19.9h18.3v108.9h-18.3v-20.3c-3.6,6.4-8.9,11.6-16,15.8c-7.1,4.2-15.3,6.3-24.7,6.3
			c-9.7,0-18.4-2.4-26.2-7.2c-7.8-4.8-14-11.5-18.5-20.1c-4.5-8.6-6.8-18.4-6.8-29.4C436,296.4,438.2,286.7,442.7,278.2z
			 M523.2,286.3c-3.3-6.1-7.8-10.8-13.4-14c-5.6-3.2-11.8-4.9-18.6-4.9c-6.8,0-12.9,1.6-18.5,4.8c-5.6,3.2-10,7.8-13.3,13.9
			c-3.3,6.1-5,13.2-5,21.5c0,8.3,1.7,15.6,5,21.8c3.3,6.2,7.8,10.9,13.3,14.1c5.6,3.2,11.7,4.9,18.5,4.9c6.8,0,12.9-1.6,18.6-4.9
			c5.6-3.2,10.1-7.9,13.4-14.1c3.3-6.2,5-13.3,5-21.6C528.2,299.5,526.5,292.4,523.2,286.3z"/>
		<path class="st16" d="M595.1,215.4v147h-18.1v-147H595.1z"/>
		<path class="st16" d="M645.7,357.2c-8.3-4.6-14.8-11.2-19.5-19.8c-4.7-8.5-7.1-18.4-7.1-29.7c0-11.1,2.4-21,7.3-29.5
			c4.8-8.5,11.4-15.1,19.8-19.7c8.3-4.6,17.7-6.9,28-6.9c10.3,0,19.7,2.3,28,6.9c8.3,4.6,14.9,11.1,19.8,19.6
			c4.8,8.5,7.3,18.4,7.3,29.6c0,11.3-2.5,21.2-7.5,29.7c-5,8.5-11.7,15.1-20.2,19.8c-8.5,4.6-17.9,7-28.2,7
			C663.2,364.2,654,361.9,645.7,357.2z M691.7,343.7c5.7-3,10.3-7.6,13.8-13.7c3.5-6.1,5.3-13.5,5.3-22.3c0-8.7-1.7-16.2-5.2-22.3
			c-3.4-6.1-7.9-10.6-13.5-13.6c-5.6-3-11.6-4.5-18.1-4.5c-6.6,0-12.7,1.5-18.2,4.5c-5.5,3-9.9,7.5-13.2,13.6
			c-3.3,6.1-5,13.5-5,22.3c0,8.9,1.6,16.4,4.9,22.5c3.2,6.1,7.6,10.6,13,13.6c5.4,3,11.4,4.5,17.9,4.5
			C679.9,348.3,686,346.8,691.7,343.7z"/>
		<path class="st16" d="M787.2,258c7.1-4.2,15.3-6.3,24.7-6.3c9.7,0,18.4,2.3,26.3,7c7.9,4.6,14.1,11.2,18.6,19.6
			c4.5,8.4,6.8,18.2,6.8,29.3c0,11-2.3,20.8-6.8,29.4c-4.5,8.6-10.7,15.3-18.6,20.1c-7.9,4.8-16.7,7.2-26.3,7.2
			c-9.3,0-17.5-2.1-24.5-6.3c-7.1-4.2-12.5-9.4-16.2-15.6v71.7h-18.1V253.5h18.1v20.1C774.8,267.4,780.1,262.2,787.2,258z
			 M840.2,286.1c-3.3-6.1-7.8-10.7-13.4-13.9c-5.6-3.2-11.8-4.8-18.6-4.8c-6.6,0-12.8,1.6-18.4,4.9c-5.6,3.2-10.1,7.9-13.5,14.1
			c-3.4,6.2-5.1,13.3-5.1,21.4c0,8.2,1.7,15.4,5.1,21.6c3.4,6.2,7.9,10.9,13.5,14.1c5.6,3.2,11.8,4.9,18.4,4.9
			c6.8,0,12.9-1.6,18.6-4.9c5.6-3.2,10.1-7.9,13.4-14.1c3.3-6.2,5-13.4,5-21.8C845.1,299.3,843.5,292.2,840.2,286.1z"/>
		<path class="st16" d="M986.2,314.7h-87c0.7,10.7,4.3,19.1,11,25.1c6.7,6,14.8,9,24.3,9c7.8,0,14.3-1.8,19.6-5.5
			c5.2-3.6,8.9-8.5,11-14.6h19.5c-2.9,10.5-8.7,19-17.5,25.5c-8.7,6.6-19.6,9.8-32.6,9.8c-10.3,0-19.6-2.3-27.7-7
			c-8.1-4.6-14.5-11.2-19.2-19.8c-4.6-8.5-7-18.4-7-29.7c0-11.3,2.3-21.1,6.8-29.6c4.5-8.5,10.8-15,19-19.6
			c8.1-4.6,17.5-6.9,28.1-6.9c10.3,0,19.5,2.3,27.4,6.8c7.9,4.5,14.1,10.7,18.4,18.6c4.3,7.9,6.5,16.8,6.5,26.7
			C986.8,307.2,986.6,310.9,986.2,314.7z M963.6,282.2c-3-5-7.2-8.7-12.4-11.3c-5.2-2.6-11-3.9-17.4-3.9c-9.1,0-16.9,2.9-23.3,8.7
			c-6.4,5.8-10.1,13.9-11,24.2h68.8C968.1,293.1,966.6,287.2,963.6,282.2z"/>
		<path class="st16" d="M1095.9,263.5c8.2,8,12.3,19.6,12.3,34.7v64.2h-17.9v-61.6c0-10.9-2.7-19.2-8.1-24.9
			c-5.4-5.8-12.9-8.6-22.3-8.6c-9.5,0-17.1,3-22.8,8.9c-5.6,6-8.4,14.6-8.4,26v60.2h-18.1V253.5h18.1V269c3.6-5.6,8.4-9.9,14.6-12.9
			c6.2-3,12.9-4.6,20.4-4.6C1077,251.5,1087.7,255.5,1095.9,263.5z"/>
		<path class="st16" d="M1207.5,257.9c7.1,4.1,12.4,9.3,15.8,15.5v-19.9h18.3v111.3c0,9.9-2.1,18.8-6.4,26.5
			c-4.2,7.8-10.3,13.8-18.2,18.2c-7.9,4.4-17.1,6.6-27.5,6.6c-14.3,0-26.2-3.4-35.8-10.1c-9.5-6.8-15.2-16-16.9-27.6h17.9
			c2,6.6,6.1,12,12.3,16c6.2,4,13.7,6.1,22.5,6.1c9.9,0,18-3.1,24.3-9.3c6.3-6.2,9.4-15,9.4-26.2v-22.9c-3.6,6.4-8.9,11.7-15.9,15.9
			c-7,4.2-15.2,6.4-24.6,6.4c-9.7,0-18.4-2.4-26.3-7.2c-7.9-4.8-14.1-11.5-18.6-20.1c-4.5-8.6-6.8-18.4-6.8-29.4
			c0-11.1,2.2-20.9,6.8-29.3c4.5-8.4,10.7-14.9,18.6-19.6c7.9-4.6,16.7-7,26.3-7C1192.1,251.7,1200.4,253.8,1207.5,257.9z
			 M1218.3,286.3c-3.3-6.1-7.8-10.8-13.4-14c-5.6-3.2-11.8-4.9-18.6-4.9c-6.8,0-12.9,1.6-18.5,4.8c-5.6,3.2-10,7.8-13.3,13.9
			c-3.3,6.1-5,13.2-5,21.5c0,8.3,1.7,15.6,5,21.8c3.3,6.2,7.8,10.9,13.3,14.1c5.6,3.2,11.7,4.9,18.5,4.9c6.8,0,12.9-1.6,18.6-4.9
			c5.6-3.2,10.1-7.9,13.4-14.1c3.3-6.2,5-13.3,5-21.6C1223.3,299.5,1221.6,292.4,1218.3,286.3z"/>
		<path class="st16" d="M1272.2,278.2c4.5-8.4,10.7-14.9,18.6-19.6c7.9-4.6,16.7-7,26.3-7c9.5,0,17.8,2.1,24.8,6.2
			c7,4.1,12.3,9.3,15.7,15.5v-19.9h18.3v108.9h-18.3v-20.3c-3.6,6.4-8.9,11.6-16,15.8c-7.1,4.2-15.3,6.3-24.7,6.3
			c-9.7,0-18.4-2.4-26.2-7.2c-7.8-4.8-14-11.5-18.5-20.1c-4.5-8.6-6.8-18.4-6.8-29.4C1265.4,296.4,1267.7,286.7,1272.2,278.2z
			 M1352.6,286.3c-3.3-6.1-7.8-10.8-13.4-14c-5.6-3.2-11.8-4.9-18.6-4.9c-6.8,0-12.9,1.6-18.5,4.8c-5.6,3.2-10,7.8-13.3,13.9
			c-3.3,6.1-5,13.2-5,21.5c0,8.3,1.7,15.6,5,21.8c3.3,6.2,7.8,10.9,13.3,14.1c5.6,3.2,11.7,4.9,18.5,4.9c6.8,0,12.9-1.6,18.6-4.9
			c5.6-3.2,10.1-7.9,13.4-14.1c3.3-6.2,5-13.3,5-21.6C1357.6,299.5,1356,292.4,1352.6,286.3z"/>
		<path class="st16" d="M1406.5,278.2c4.5-8.4,10.7-14.9,18.6-19.6c7.9-4.6,16.7-7,26.5-7c8.5,0,16.4,2,23.6,5.9
			c7.3,3.9,12.8,9,16.7,15.4v-57.6h18.3v147h-18.3v-20.5c-3.6,6.5-8.9,11.8-15.9,16c-7,4.2-15.2,6.3-24.6,6.3
			c-9.7,0-18.4-2.4-26.3-7.2c-7.9-4.8-14.1-11.5-18.6-20.1c-4.5-8.6-6.8-18.4-6.8-29.4C1399.7,296.4,1402,286.7,1406.5,278.2z
			 M1487,286.3c-3.3-6.1-7.8-10.8-13.4-14c-5.6-3.2-11.8-4.9-18.6-4.9c-6.8,0-12.9,1.6-18.5,4.8s-10,7.8-13.3,13.9
			c-3.3,6.1-5,13.2-5,21.5c0,8.3,1.7,15.6,5,21.8c3.3,6.2,7.8,10.9,13.3,14.1c5.6,3.2,11.7,4.9,18.5,4.9c6.8,0,12.9-1.6,18.6-4.9
			c5.6-3.2,10.1-7.9,13.4-14.1c3.3-6.2,5-13.3,5-21.6C1491.9,299.5,1490.3,292.4,1487,286.3z"/>
		<path class="st16" d="M1540.8,278.2c4.5-8.4,10.7-14.9,18.6-19.6c7.9-4.6,16.7-7,26.3-7c9.5,0,17.8,2.1,24.8,6.2
			c7,4.1,12.3,9.3,15.7,15.5v-19.9h18.3v108.9h-18.3v-20.3c-3.6,6.4-8.9,11.6-16,15.8c-7.1,4.2-15.3,6.3-24.7,6.3
			c-9.7,0-18.4-2.4-26.2-7.2c-7.8-4.8-14-11.5-18.5-20.1c-4.5-8.6-6.8-18.4-6.8-29.4C1534.1,296.4,1536.3,286.7,1540.8,278.2z
			 M1621.3,286.3c-3.3-6.1-7.8-10.8-13.4-14c-5.6-3.2-11.8-4.9-18.6-4.9c-6.8,0-12.9,1.6-18.5,4.8s-10,7.8-13.3,13.9
			c-3.3,6.1-5,13.2-5,21.5c0,8.3,1.7,15.6,5,21.8c3.3,6.2,7.8,10.9,13.3,14.1c5.6,3.2,11.7,4.9,18.5,4.9c6.8,0,12.9-1.6,18.6-4.9
			c5.6-3.2,10.1-7.9,13.4-14.1c3.3-6.2,5-13.3,5-21.6C1626.3,299.5,1624.6,292.4,1621.3,286.3z"/>
		<path class="st16" d="M1675.2,278.2c4.5-8.4,10.7-14.9,18.6-19.6c7.9-4.6,16.7-7,26.3-7c9.5,0,17.8,2.1,24.8,6.2
			c7,4.1,12.3,9.3,15.7,15.5v-19.9h18.3v108.9h-18.3v-20.3c-3.6,6.4-8.9,11.6-16,15.8c-7.1,4.2-15.3,6.3-24.7,6.3
			c-9.7,0-18.4-2.4-26.2-7.2c-7.8-4.8-14-11.5-18.5-20.1c-4.5-8.6-6.8-18.4-6.8-29.4C1668.4,296.4,1670.6,286.7,1675.2,278.2z
			 M1755.6,286.3c-3.3-6.1-7.8-10.8-13.4-14c-5.6-3.2-11.8-4.9-18.6-4.9c-6.8,0-12.9,1.6-18.5,4.8s-10,7.8-13.3,13.9
			c-3.3,6.1-5,13.2-5,21.5c0,8.3,1.7,15.6,5,21.8c3.3,6.2,7.8,10.9,13.3,14.1c5.6,3.2,11.7,4.9,18.5,4.9c6.8,0,12.9-1.6,18.6-4.9
			c5.6-3.2,10.1-7.9,13.4-14.1c3.3-6.2,5-13.3,5-21.6C1760.6,299.5,1758.9,292.4,1755.6,286.3z"/>
		<path class="st16" d="M1894.7,263.5c8.2,8,12.3,19.6,12.3,34.7v64.2h-17.9v-61.6c0-10.9-2.7-19.2-8.1-24.9
			c-5.4-5.8-12.8-8.6-22.3-8.6c-9.5,0-17.1,3-22.8,8.9c-5.6,6-8.4,14.6-8.4,26v60.2h-18.1V253.5h18.1V269c3.6-5.6,8.4-9.9,14.6-12.9
			c6.2-3,12.9-4.6,20.4-4.6C1875.8,251.5,1886.5,255.5,1894.7,263.5z"/>
	</g>
	<g>
		<path class="st16" d="M16.2,196.1c0.4-0.2,0.8-0.4,1.1-0.6c0.4-0.2,0.8-0.4,1.2-0.5c0.4-0.2,0.8-0.3,1.2-0.5
			c0.4-0.1,0.8-0.3,1.2-0.4c0-0.3,0-0.5,0-0.8c0-0.2,0-0.5-0.1-0.7c0-0.2,0-0.4-0.1-0.7c-0.1-0.4-0.1-0.8-0.2-1.1c0,0,0,0,0,0
			c-0.1-0.2-0.1-0.3-0.2-0.5c-0.1-0.3-0.3-0.6-0.4-0.8c-3-4-8.2-9.1-4.8-14.1c0.6-0.9,1.2-2,1.2-3.1c0-1.3-1-2.4-1.8-3.5
			c-0.8-1.1-1.3-2.6-0.7-3.7c0.7-1.2,2.4-1.4,3.3-2.4c0.8-0.9,0.9-2.2,0.8-3.5c-0.1-1.2-0.3-2.5,0.2-3.6c0.2-0.5,0.5-0.9,0.8-1.2
			c0.7-0.6,1.6-0.8,2.6-0.7c0.5,0.1,1.1,0.2,1.6,0.4l4.1-29.5l26.4,6.1l-12.1,38.1c0.6,0.2,1.2,0.4,1.7,0.7c0.6,0.2,1.1,0.5,1.7,0.8
			c0.7,0.4,1.4,0.7,2,1.1c0.2,0.1,0.4,0.2,0.5,0.4c0.7,0.5,1.3,1,1.7,1.5c0.1,0.1,0.1,0.2,0.2,0.3c0.1,0.1,0.1,0.2,0.2,0.3
			c0.1,0.1,0.1,0.2,0.1,0.4c0.2,0.8-0.3,1.9-1.1,3.2c-0.1,0.2-0.2,0.3-0.3,0.5c-0.3,0.4-0.6,0.8-0.9,1.2c-0.2,0.3-0.5,0.6-0.7,0.9
			c-0.8,1-1.8,2-2.7,2.9c-0.3,0.3-0.5,0.5-0.8,0.8c-1,1-2,1.9-2.9,2.7c-0.2,0.2-0.5,0.4-0.7,0.6c-0.1,0.1-0.3,0.2-0.4,0.3
			c-0.1,0.1-0.1,0.1-0.2,0.2l-2.1,6l0,0c0,0.1,0,0.1,0,0.2c0.3,0,0.6,0.1,0.9,0.2c0.2,0,0.3,0,0.5,0.1c0.2,0,0.4,0.1,0.6,0.1
			c0.4,0.1,0.8,0.2,1.2,0.3c0.2,0.1,0.5,0.1,0.7,0.2c0.5,0.1,1,0.3,1.4,0.4c0.3,0.1,0.5,0.1,0.7,0.2c0.2,0.1,0.3,0.1,0.3,0.1
			l1.6,56.4c0,0,42.6-53.1,48-56c0.2-0.1,0.4-0.2,0.7-0.3c0.1,0,0.1-0.1,0.2-0.1c0.1-0.1,0.3-0.1,0.5-0.2c0.1,0,0.2-0.1,0.3-0.1
			c0.1-0.1,0.3-0.1,0.5-0.2c0.1,0,0.2-0.1,0.3-0.1c0.1-0.1,0.3-0.1,0.5-0.2c0.1,0,0.2-0.1,0.4-0.1c0.2-0.1,0.3-0.1,0.5-0.2
			c0.1,0,0.3-0.1,0.4-0.1c0.2-0.1,0.4-0.1,0.5-0.2c0.1,0,0.3-0.1,0.4-0.1c0.2-0.1,0.4-0.1,0.7-0.2c0.2,0,0.3-0.1,0.5-0.1
			c0.3-0.1,0.6-0.1,0.9-0.2c0.2,0,0.3,0,0.5-0.1c0.2,0,0.4-0.1,0.7-0.1c0.2,0,0.4,0,0.6-0.1c0.2,0,0.4,0,0.7-0.1c0.2,0,0.4,0,0.6,0
			c0.2,0,0.5,0,0.7,0c0.2,0,0.4,0,0.7,0h1.5c0.3,0,0.5,0,0.8,0c0.2,0,0.5,0,0.7,0c0.3,0,0.7,0,1,0.1c0.2,0,0.4,0,0.6,0.1
			c0.4-0.1,0.8-0.2,1.2-0.3c-1.5,3.7-3.1,8.1-3.6,9.1c-0.8,1.9,10.9,12.8,10.9,12.8s-9.6,15.8-9.2,17.1c0.4,1.3,17.5,70.5,17.5,70.5
			s41.5-61.9,42.3-64.9c0.9-3.1-4-19-4-19s12.3-9.1,13-11c0.6-1.6,1.8-10.4,0.9-14.4c0.8,0.2,1.6,0.4,2.4,0.6
			c2.3,0.6,4.6,1.3,6.8,2.1c0.7,0.2,1.4,0.5,2,0.7c0.7,0.2,1.3,0.5,2,0.7c1.3,0.5,2.6,1,3.9,1.6c0.5,0.2,1,0.4,1.5,0.6
			c1.8,0.8,3.6,1.7,5.2,2.6c0.4,0.2,0.8,0.4,1.2,0.7c0.4,0.2,0.8,0.4,1.2,0.7c0.4,0.2,0.8,0.5,1.2,0.7c0.4,0.3,0.9,0.5,1.3,0.8
			c0.4,0.2,0.7,0.5,1,0.7c0.2,0.1,0.5,0.3,0.7,0.5c0.5,0.3,1,0.7,1.4,1c0.5,0.4,0.9,0.8,1.4,1.2c18.7,16.5,57.5,69.4,58.7,83.7
			c0.4,5.3-49.3,58.4-49.3,58.4c-0.4-0.2-0.7-0.4-1.1-0.7c-0.3-0.2-0.6-0.4-0.8-0.6c-0.3-0.2-0.6-0.4-0.9-0.7c0,0-0.1-0.1-0.1-0.1
			c0,0,0.1,0.1,0.1,0.1l-2.8,3c0,0-0.1,0-0.3-0.2c0,0-0.1,0-0.1-0.1c-0.1,0-0.2-0.1-0.3-0.2c-0.6-0.4-1.5-1-2.6-1.8
			c-0.2,0.2-0.3,0.3-0.5,0.5c0,0,0,0,0,0c-0.3,0.4-0.6,0.7-0.8,1.1c-0.1,0.1-0.1,0.2-0.2,0.4c-0.2,0.4-0.3,0.8-0.4,1.3
			c-0.2,0.9-0.1,1.8,0,2.7c0.1,0.5,0.1,0.9,0.2,1.4c0.4,1.8,1,3.6,1.1,5.4c0,0.3,0,0.5,0,0.8c0,0.4,0,0.9-0.1,1.3
			c0,0.2-0.1,0.4-0.1,0.6c-1.7,6.9-9.5,7.1-9.5,7.1c-0.6,6.4-4.4,9.2-8.1,9.1c-3.8-0.1-3.9,0.3-5-4.2c-0.1-0.4-0.3-0.8-0.5-1.1
			c0-0.1-0.1-0.2-0.2-0.3c-0.1-0.1-0.2-0.2-0.3-0.3c-0.1-0.1-0.2-0.2-0.3-0.2c-0.7-0.6-1.6-0.9-2.5-1.2c-0.2-0.1-0.4-0.1-0.6-0.2
			c-0.4-0.1-0.7-0.2-1.1-0.3c-1.7-0.5-3.2-1.2-3.3-3.2c-0.1-4.4-10.4-4.9-7.6-8.5c2.8-3.6,6.1-7.4,6.1-7.4c0.5-6.6,9.2-7.2,13.4-8.2
			c0.1,0,0.3-0.1,0.4-0.1c0.3-0.1,0.7-0.2,0.9-0.3c0.1,0,0.3-0.1,0.4-0.2c0.6-0.3,3.7-2.6,8.3-6.1c0.2-0.1,0.4-0.3,0.6-0.5l0,0
			c-0.3-0.4-0.5-0.9-0.8-1.3c-0.2-0.3-0.3-0.6-0.5-1c-0.1-0.1-0.1-0.3-0.2-0.4l2.7-3.3v0c-0.4-0.6-0.7-1-1-1.4
			c-0.1-0.1-0.2-0.3-0.3-0.4c-0.1-0.1-0.1-0.2-0.1-0.2c-0.1-0.1-0.1-0.2-0.2-0.3c-0.2-0.3-0.3-0.4-0.3-0.5l27.3-41.6L201,252
			l-1.6,4.9l-13.9,49.6l5.3,35.6c-5.6,1.3-16.2,2.2-16.9,10.5c0,0-4.3,4.9-7.9,9.5c-3.6,4.6,9.7,5.2,9.8,10.9c0,0.6,0.1,1.1,0.3,1.6
			c-20,5.4-41.4,4.8-59.5,2.1c0,0,0,0,0,0c-1.1-0.2-2.3-0.3-3.4-0.5c-0.5-0.1-0.9-0.1-1.4-0.2c-0.8-0.1-1.7-0.3-2.5-0.5
			c-6.9-1.3-13.2-2.9-18.5-4.4c-0.9-0.3-1.8-0.5-2.6-0.8c-1.9-0.6-3.6-1.1-5.2-1.7c0.1-0.8,0.1-1.5,0.2-2.2c0-0.5,0.1-0.9,0.1-1.3
			c0.1-0.7,0.1-1.3,0.2-2v0c-0.6-0.3-1.2-0.6-1.8-0.9c-1.1-0.6-2.3-1.3-3.4-2c-0.6-0.3-1.1-0.7-1.7-1.1l5.4-70.8l1.8-23.8
			c-0.4,0.4-0.7,0.7-1.1,1.1c-0.1,0.1-0.1,0.1-0.2,0.2c-0.4,0.4-0.8,0.8-1.2,1.2c-0.1,0.1-0.1,0.1-0.2,0.2c-0.4,0.4-0.9,0.8-1.3,1.2
			c0,0-0.1,0.1-0.1,0.1c-0.5,0.4-0.9,0.9-1.4,1.4c-0.1,0.1-0.2,0.2-0.3,0.3c-0.5,0.4-1,0.9-1.4,1.4c-0.1,0.1-0.2,0.2-0.3,0.3
			c-0.5,0.5-1,0.9-1.5,1.4c-0.1,0.1-0.2,0.2-0.3,0.3c-0.5,0.4-1,0.9-1.5,1.3c-0.1,0.1-0.2,0.1-0.3,0.2c-0.5,0.5-1.1,1-1.6,1.5
			c-0.1,0.1-0.3,0.2-0.4,0.4c-0.5,0.5-1.1,1-1.6,1.5c-0.1,0.1-0.3,0.2-0.4,0.4c-0.6,0.5-1.1,1-1.7,1.5c-0.1,0.1-0.2,0.2-0.3,0.2
			c-0.5,0.5-1.1,0.9-1.6,1.4c-0.1,0.1-0.2,0.2-0.4,0.3c-0.6,0.5-1.1,1-1.7,1.5c-0.1,0.1-0.3,0.2-0.4,0.4c-0.6,0.5-1.1,1-1.7,1.4
			c-0.1,0.1-0.3,0.2-0.4,0.3c-0.6,0.5-1.2,1-1.8,1.4c-0.1,0-0.1,0.1-0.2,0.2c-0.6,0.5-1.2,0.9-1.8,1.4c-0.1,0.1-0.2,0.2-0.4,0.3
			c-0.6,0.5-1.2,0.9-1.8,1.3c-0.1,0.1-0.3,0.2-0.4,0.3c-0.6,0.4-1.2,0.9-1.8,1.3c-0.1,0.1-0.2,0.2-0.3,0.2c-0.6,0.4-1.1,0.8-1.7,1.2
			c-0.1,0-0.1,0.1-0.2,0.1c-0.6,0.4-1.2,0.8-1.8,1.2c-0.1,0.1-0.2,0.2-0.4,0.2c-0.6,0.4-1.1,0.7-1.7,1.1c-0.1,0.1-0.2,0.1-0.4,0.2
			c-0.6,0.3-1.1,0.7-1.7,1c-0.1,0-0.1,0.1-0.2,0.1c-0.5,0.3-1.1,0.6-1.6,0.9c-0.1,0-0.1,0.1-0.2,0.1c-0.5,0.3-1.1,0.5-1.6,0.8
			c-0.1,0-0.2,0.1-0.3,0.1c-0.5,0.2-1,0.5-1.5,0.7c-0.1,0-0.2,0.1-0.3,0.1c-0.5,0.2-1,0.4-1.5,0.5c0,0-0.1,0-0.1,0
			c-0.5,0.1-0.9,0.3-1.4,0.4c-0.1,0-0.1,0-0.2,0c-0.4,0.1-0.9,0.2-1.3,0.2c-0.1,0-0.2,0-0.2,0c-0.4,0-0.8,0.1-1.2,0
			c-0.1,0-0.1,0-0.2,0c-0.4,0-0.8,0-1.1-0.1c-9.7-2.1-16.6-8.5-18-22.9C11.3,256.6,16.2,196.1,16.2,196.1z M32.2,169
			c-1.2-0.3-2.5,0.4-2.8,1.6c-0.3,1.2,0.4,2.5,1.6,2.8c1.2,0.3,2.5-0.4,2.8-1.6C34.1,170.6,33.4,169.3,32.2,169z M37,130.1l-0.2,0.7
			l7.7,2.1l0.3-1.3L37,130.1z M49.7,133l-3.2-0.8l-1.1,2.1l-10.3-2.2l-0.3-2.2l-5.1-1.1l-4,38.3l14.4,1L49.7,133z"/>
		<g>
			<path class="st16" d="M23.1,154l4.1-29.5l26.4,6.1l-12.1,38.1l-2.4,7.6l-19-1.5L23.1,154z M37,130.1l-0.2,0.7l7.7,2.1l0.3-1.3
				L37,130.1z M31,173.4c1.2,0.3,2.5-0.4,2.8-1.6c0.3-1.2-0.4-2.5-1.6-2.8c-1.2-0.3-2.5,0.4-2.8,1.6C29,171.8,29.7,173,31,173.4z
				 M40.1,168.2l9.7-35.1l-3.2-0.8l-1.1,2.1l-10.3-2.2l-0.3-2.2l-5.1-1.1l-4,38.3L40.1,168.2z"/>
		</g>
		<path class="st16" d="M119.2,97.2L119.2,97.2c-0.1,0.6-0.2,1.2-0.3,1.8c-0.3,1.9-0.6,3.8-0.8,5.7c-0.1,1.3-0.2,2.6-0.3,3.8
			c-0.2,3.1-0.3,6.1-0.3,9c0,3.2,0,6.2-0.1,8.9c0,1.1,0,2.3-0.1,3.5c0,1.1-0.1,2.2-0.1,3.3c0,0.2,0,0.3,0,0.5
			c-0.7,15.1-0.9,33,21,37.8v0l-1.2,7c0,0-13.7,3.9-15.4,5.9c-0.1,0.1-0.2,0.3-0.2,0.6c0,0.1,0,0.1,0,0.2c0,0.2-0.1,0.5-0.1,0.9
			c0,1,0,2.3,0.2,3.7c0.3,2.2,0.8,4.9,1.3,7.4c0,0,0,0,0,0l2.3,54.1l13.3-44.9l-3.9-4.4c3.9-2.9,7.6-6.1,8.8-5.3
			c1,0.8,2.7,3.4,4.5,6.1l-4.7,4.2c0,0,1.7,20.8,0.6,45.3c8-20.7,16.8-43.5,21.2-54.7c2.1-2.6,3.8-5.2,4.5-7.3
			c0.3-0.8,0.4-1.6,0.4-2.2h0c0-0.1,0-0.2,0-0.3c-0.9-5.6-7.9-8.1-7.9-8.1l4.4-10.2l0,0c0.4-0.1,0.7-0.3,1.1-0.5
			c0.3-0.1,0.6-0.3,0.9-0.4c0.6-0.3,1.2-0.6,1.7-0.9c0.3-0.1,0.5-0.3,0.8-0.5c3.7-2.3,6.6-5,8.7-7.8c0.3-0.4,0.6-0.8,0.9-1.2
			c0.3-0.4,0.6-0.8,0.8-1.1c0.1-0.2,0.3-0.4,0.4-0.6c0.2-0.4,0.5-0.8,0.7-1.1c1.1-1.8,1.8-3.5,2.3-4.8c0.2-0.4,0.3-0.8,0.4-1.1
			c0.4-1.2,0.6-2,0.6-2c3.3-0.7,14.4-1,16.2-16.4c0.1-1,0.2-1.9,0.2-2.8c0-0.4,0-0.8,0-1.1v-0.1c0-0.3,0-0.6-0.1-0.9
			c0-0.3-0.1-0.6-0.1-0.9c0-0.1,0-0.2-0.1-0.4c0-0.3-0.1-0.5-0.2-0.7c-0.1-0.3-0.2-0.6-0.3-0.8c-0.2-0.5-0.4-0.9-0.7-1.3
			c-0.3-0.5-0.6-0.9-0.9-1.2c-0.1-0.2-0.3-0.3-0.5-0.5h0c-0.2-0.1-0.3-0.3-0.5-0.4c-0.2-0.1-0.3-0.2-0.5-0.3c0,0,0,0,0,0
			c-0.2-0.1-0.4-0.2-0.5-0.3c-0.2-0.1-0.4-0.2-0.5-0.2c-0.2-0.1-0.4-0.1-0.6-0.2c-0.2-0.1-0.4-0.1-0.5-0.2h0c0,0,0-0.1,0-0.1
			c0.4,0.1,0.8,0.3,1.1,0.4c0.1,0.1,0.3,0.1,0.4,0.2c0.5,0.3,0.9,0.5,1,0.6c0,0,0.1,0,0.1,0.1c0,0,0,0,0,0l4.9-22.8l5.8-3
			c0,0-6.2-5.7-12.6-8.9c4.5-5.1,4.5-9.7,4.5-9.8c0,0-13.8-0.6-23.2-11c-9.4-10.4-36.7-21-57.3-6.7c-20.6,14.3-14.1,35.3-1.8,38.8
			C118.8,97.1,119,97.2,119.2,97.2z"/>
		<g id="XMLID_5_">
			<g id="XMLID_6_">
				<path class="st5" d="M169.6,188.1c0,0.1,0,0.2,0,0.3h0C169.6,188.3,169.6,188.2,169.6,188.1z"/>
			</g>
		</g>
	</g>
</g>
<g>
	<path class="st16" d="M1.3-948.6c3,1.6,5.3,4,7,7.1c1.7,3.2,2.6,7,2.6,11.6v28.9H2.8v-27.8c0-4.9-1.2-8.6-3.7-11.2
		c-2.4-2.6-5.8-3.9-10-3.9c-4.3,0-7.7,1.3-10.3,4c-2.5,2.7-3.8,6.6-3.8,11.7v27.1h-8.1v-66.3h8.1v24.2c1.6-2.5,3.8-4.4,6.7-5.8
		c2.8-1.4,6-2.1,9.5-2.1C-5-951-1.7-950.2,1.3-948.6z"/>
	<path class="st16" d="M24.2-939c2-3.8,4.8-6.7,8.4-8.8c3.6-2.1,7.5-3.1,11.9-3.1c4.3,0,8,0.9,11.2,2.8c3.2,1.9,5.5,4.2,7.1,7v-9H71
		v49.1h-8.2v-9.1c-1.6,2.9-4,5.2-7.2,7.1c-3.2,1.9-6.9,2.8-11.1,2.8c-4.4,0-8.3-1.1-11.8-3.2c-3.5-2.1-6.3-5.2-8.3-9
		c-2-3.9-3-8.3-3-13.3C21.2-930.8,22.2-935.2,24.2-939z M60.5-935.3c-1.5-2.7-3.5-4.8-6-6.3c-2.5-1.5-5.3-2.2-8.4-2.2
		c-3,0-5.8,0.7-8.3,2.1c-2.5,1.4-4.5,3.5-6,6.3c-1.5,2.7-2.2,6-2.2,9.7c0,3.8,0.7,7,2.2,9.8c1.5,2.8,3.5,4.9,6,6.4
		c2.5,1.5,5.3,2.2,8.3,2.2c3,0,5.8-0.7,8.4-2.2c2.5-1.5,4.6-3.6,6-6.4c1.5-2.8,2.2-6,2.2-9.7C62.7-929.4,62-932.6,60.5-935.3z"/>
	<path class="st16" d="M92.9-967.3v66.3h-8.1v-66.3H92.9z"/>
	<path class="st16" d="M115.7-903.4c-3.7-2.1-6.7-5.1-8.8-8.9c-2.1-3.9-3.2-8.3-3.2-13.4c0-5,1.1-9.4,3.3-13.3
		c2.2-3.9,5.1-6.8,8.9-8.9c3.8-2.1,8-3.1,12.6-3.1c4.7,0,8.9,1,12.6,3.1c3.8,2.1,6.7,5,8.9,8.8c2.2,3.8,3.3,8.3,3.3,13.3
		c0,5.1-1.1,9.5-3.4,13.4c-2.2,3.9-5.3,6.8-9.1,8.9c-3.8,2.1-8.1,3.1-12.7,3.1C123.6-900.2,119.4-901.3,115.7-903.4z M136.4-909.4
		c2.6-1.4,4.6-3.4,6.2-6.2c1.6-2.7,2.4-6.1,2.4-10s-0.8-7.3-2.3-10c-1.6-2.7-3.6-4.8-6.1-6.1c-2.5-1.3-5.2-2-8.1-2
		c-3,0-5.7,0.7-8.2,2c-2.5,1.3-4.5,3.4-6,6.1c-1.5,2.7-2.2,6.1-2.2,10c0,4,0.7,7.4,2.2,10.1c1.5,2.7,3.4,4.8,5.9,6.1
		c2.4,1.3,5.1,2,8.1,2C131.1-907.4,133.8-908.1,136.4-909.4z"/>
	<path class="st16" d="M179.4-948.1c3.2-1.9,6.9-2.8,11.1-2.8c4.4,0,8.3,1,11.9,3.1c3.6,2.1,6.3,5,8.4,8.8c2,3.8,3,8.2,3,13.2
		c0,5-1,9.4-3,13.3c-2,3.9-4.8,6.9-8.4,9c-3.6,2.1-7.5,3.2-11.9,3.2c-4.2,0-7.9-0.9-11.1-2.8c-3.2-1.9-5.6-4.2-7.3-7v32.3h-8.1
		v-72.3h8.1v9C173.8-943.9,176.2-946.2,179.4-948.1z M203.3-935.4c-1.5-2.7-3.5-4.8-6-6.3c-2.5-1.4-5.3-2.1-8.4-2.1
		c-3,0-5.7,0.7-8.3,2.2c-2.5,1.5-4.6,3.6-6.1,6.4c-1.5,2.8-2.3,6-2.3,9.6c0,3.7,0.8,6.9,2.3,9.7c1.5,2.8,3.6,4.9,6.1,6.4
		c2.5,1.5,5.3,2.2,8.3,2.2c3,0,5.8-0.7,8.4-2.2c2.5-1.5,4.6-3.6,6-6.4c1.5-2.8,2.2-6,2.2-9.8C205.5-929.4,204.8-932.7,203.3-935.4z"
		/>
	<path class="st16" d="M269.1-922.5h-39.2c0.3,4.8,2,8.6,5,11.3c3,2.7,6.7,4.1,11,4.1c3.5,0,6.5-0.8,8.8-2.5c2.4-1.6,4-3.8,5-6.6
		h8.8c-1.3,4.7-3.9,8.6-7.9,11.5c-3.9,3-8.8,4.4-14.7,4.4c-4.7,0-8.8-1-12.5-3.1c-3.7-2.1-6.6-5.1-8.6-8.9
		c-2.1-3.9-3.1-8.3-3.1-13.4c0-5.1,1-9.5,3-13.3c2-3.8,4.9-6.8,8.6-8.8c3.7-2.1,7.9-3.1,12.7-3.1c4.7,0,8.8,1,12.4,3
		c3.6,2,6.3,4.8,8.3,8.4c1.9,3.6,2.9,7.6,2.9,12C269.4-925.9,269.3-924.3,269.1-922.5z M258.9-937.2c-1.4-2.2-3.2-3.9-5.6-5.1
		c-2.4-1.2-5-1.7-7.8-1.7c-4.1,0-7.6,1.3-10.5,3.9c-2.9,2.6-4.6,6.3-5,10.9h31C261-932.3,260.3-934.9,258.9-937.2z"/>
	<path class="st16" d="M318.5-945.6c3.7,3.6,5.6,8.8,5.6,15.6v28.9H316v-27.8c0-4.9-1.2-8.6-3.7-11.2c-2.4-2.6-5.8-3.9-10-3.9
		c-4.3,0-7.7,1.3-10.3,4c-2.5,2.7-3.8,6.6-3.8,11.7v27.1h-8.1v-49.1h8.1v7c1.6-2.5,3.8-4.4,6.6-5.8c2.8-1.4,5.8-2.1,9.2-2.1
		C310-951,314.8-949.2,318.5-945.6z"/>
	<path class="st16" d="M368.8-948.1c3.2,1.9,5.6,4.2,7.1,7v-9h8.2v50.1c0,4.5-1,8.5-2.9,12c-1.9,3.5-4.6,6.2-8.2,8.2
		c-3.6,2-7.7,3-12.4,3c-6.4,0-11.8-1.5-16.1-4.6s-6.8-7.2-7.6-12.4h8.1c0.9,3,2.7,5.4,5.6,7.2c2.8,1.8,6.2,2.7,10.1,2.7
		c4.5,0,8.1-1.4,11-4.2c2.8-2.8,4.3-6.7,4.3-11.8v-10.3c-1.6,2.9-4,5.3-7.2,7.2c-3.2,1.9-6.9,2.9-11.1,2.9c-4.4,0-8.3-1.1-11.9-3.2
		c-3.6-2.1-6.3-5.2-8.4-9c-2-3.9-3-8.3-3-13.3c0-5,1-9.4,3-13.2c2-3.8,4.8-6.7,8.4-8.8c3.6-2.1,7.5-3.1,11.9-3.1
		C361.9-950.9,365.6-950,368.8-948.1z M373.7-935.3c-1.5-2.7-3.5-4.8-6-6.3c-2.5-1.5-5.3-2.2-8.4-2.2c-3,0-5.8,0.7-8.3,2.1
		s-4.5,3.5-6,6.3c-1.5,2.7-2.2,6-2.2,9.7c0,3.8,0.7,7,2.2,9.8c1.5,2.8,3.5,4.9,6,6.4c2.5,1.5,5.3,2.2,8.3,2.2c3,0,5.8-0.7,8.4-2.2
		c2.5-1.5,4.6-3.6,6-6.4c1.5-2.8,2.2-6,2.2-9.7C375.9-929.4,375.2-932.6,373.7-935.3z"/>
	<path class="st16" d="M397.9-939c2-3.8,4.8-6.7,8.4-8.8c3.6-2.1,7.5-3.1,11.9-3.1c4.3,0,8,0.9,11.2,2.8c3.2,1.9,5.5,4.2,7.1,7v-9
		h8.2v49.1h-8.2v-9.1c-1.6,2.9-4,5.2-7.2,7.1c-3.2,1.9-6.9,2.8-11.1,2.8c-4.4,0-8.3-1.1-11.8-3.2c-3.5-2.1-6.3-5.2-8.3-9
		c-2-3.9-3-8.3-3-13.3C394.9-930.8,395.9-935.2,397.9-939z M434.2-935.3c-1.5-2.7-3.5-4.8-6-6.3c-2.5-1.5-5.3-2.2-8.4-2.2
		c-3,0-5.8,0.7-8.3,2.1s-4.5,3.5-6,6.3c-1.5,2.7-2.2,6-2.2,9.7c0,3.8,0.7,7,2.2,9.8c1.5,2.8,3.5,4.9,6,6.4c2.5,1.5,5.3,2.2,8.3,2.2
		c3,0,5.8-0.7,8.4-2.2c2.5-1.5,4.6-3.6,6-6.4c1.5-2.8,2.2-6,2.2-9.7C436.5-929.4,435.7-932.6,434.2-935.3z"/>
	<path class="st16" d="M458.5-939c2-3.8,4.8-6.7,8.4-8.8c3.6-2.1,7.5-3.1,12-3.1c3.8,0,7.4,0.9,10.7,2.6c3.3,1.8,5.8,4.1,7.5,6.9
		v-26h8.2v66.3H497v-9.2c-1.6,2.9-4,5.3-7.2,7.2s-6.9,2.8-11.1,2.8c-4.4,0-8.3-1.1-11.9-3.2c-3.6-2.1-6.3-5.2-8.4-9
		c-2-3.9-3-8.3-3-13.3C455.4-930.8,456.4-935.2,458.5-939z M494.7-935.3c-1.5-2.7-3.5-4.8-6-6.3c-2.5-1.5-5.3-2.2-8.4-2.2
		c-3,0-5.8,0.7-8.3,2.1s-4.5,3.5-6,6.3c-1.5,2.7-2.2,6-2.2,9.7c0,3.8,0.7,7,2.2,9.8c1.5,2.8,3.5,4.9,6,6.4c2.5,1.5,5.3,2.2,8.3,2.2
		c3,0,5.8-0.7,8.4-2.2c2.5-1.5,4.6-3.6,6-6.4c1.5-2.8,2.2-6,2.2-9.7C497-929.4,496.2-932.6,494.7-935.3z"/>
	<path class="st16" d="M519-939c2-3.8,4.8-6.7,8.4-8.8c3.6-2.1,7.5-3.1,11.9-3.1c4.3,0,8,0.9,11.2,2.8c3.2,1.9,5.5,4.2,7.1,7v-9h8.2
		v49.1h-8.2v-9.1c-1.6,2.9-4,5.2-7.2,7.1c-3.2,1.9-6.9,2.8-11.1,2.8c-4.4,0-8.3-1.1-11.8-3.2c-3.5-2.1-6.3-5.2-8.3-9
		c-2-3.9-3-8.3-3-13.3C516-930.8,517-935.2,519-939z M555.3-935.3c-1.5-2.7-3.5-4.8-6-6.3c-2.5-1.5-5.3-2.2-8.4-2.2
		c-3,0-5.8,0.7-8.3,2.1s-4.5,3.5-6,6.3c-1.5,2.7-2.2,6-2.2,9.7c0,3.8,0.7,7,2.2,9.8c1.5,2.8,3.5,4.9,6,6.4c2.5,1.5,5.3,2.2,8.3,2.2
		c3,0,5.8-0.7,8.4-2.2c2.5-1.5,4.6-3.6,6-6.4c1.5-2.8,2.2-6,2.2-9.7C557.5-929.4,556.8-932.6,555.3-935.3z"/>
	<path class="st16" d="M579.5-939c2-3.8,4.8-6.7,8.4-8.8c3.6-2.1,7.5-3.1,11.9-3.1c4.3,0,8,0.9,11.2,2.8c3.2,1.9,5.5,4.2,7.1,7v-9
		h8.2v49.1H618v-9.1c-1.6,2.9-4,5.2-7.2,7.1c-3.2,1.9-6.9,2.8-11.1,2.8c-4.4,0-8.3-1.1-11.8-3.2c-3.5-2.1-6.3-5.2-8.3-9
		c-2-3.9-3-8.3-3-13.3C576.5-930.8,577.5-935.2,579.5-939z M615.8-935.3c-1.5-2.7-3.5-4.8-6-6.3c-2.5-1.5-5.3-2.2-8.4-2.2
		c-3,0-5.8,0.7-8.3,2.1s-4.5,3.5-6,6.3c-1.5,2.7-2.2,6-2.2,9.7c0,3.8,0.7,7,2.2,9.8c1.5,2.8,3.5,4.9,6,6.4c2.5,1.5,5.3,2.2,8.3,2.2
		c3,0,5.8-0.7,8.4-2.2c2.5-1.5,4.6-3.6,6-6.4c1.5-2.8,2.2-6,2.2-9.7C618-929.4,617.3-932.6,615.8-935.3z"/>
	<path class="st16" d="M678.5-945.6c3.7,3.6,5.6,8.8,5.6,15.6v28.9H676v-27.8c0-4.9-1.2-8.6-3.7-11.2c-2.4-2.6-5.8-3.9-10-3.9
		c-4.3,0-7.7,1.3-10.3,4c-2.5,2.7-3.8,6.6-3.8,11.7v27.1h-8.1v-49.1h8.1v7c1.6-2.5,3.8-4.4,6.6-5.8c2.8-1.4,5.8-2.1,9.2-2.1
		C669.9-951,674.8-949.2,678.5-945.6z"/>
</g>
<g>
	<path class="st16" d="M-186.6-973.4c0.2-0.1,0.4-0.2,0.6-0.3c0.2-0.1,0.4-0.2,0.6-0.3c0.2-0.1,0.4-0.2,0.6-0.2
		c0.2-0.1,0.4-0.1,0.6-0.2c0-0.1,0-0.3,0-0.4c0-0.1,0-0.3,0-0.4c0-0.1,0-0.2,0-0.3c0-0.2-0.1-0.4-0.1-0.6c0,0,0,0,0,0
		c0-0.1-0.1-0.2-0.1-0.3c-0.1-0.2-0.1-0.3-0.2-0.4c-1.6-2.1-4.3-4.8-2.5-7.4c0.3-0.5,0.6-1,0.6-1.6c0-0.7-0.5-1.3-0.9-1.9
		c-0.4-0.6-0.7-1.4-0.4-2c0.4-0.6,1.3-0.7,1.7-1.3c0.4-0.5,0.5-1.2,0.4-1.8c0-0.6-0.1-1.3,0.1-1.9c0.1-0.3,0.3-0.5,0.4-0.7
		c0.3-0.3,0.8-0.4,1.3-0.4c0.3,0,0.6,0.1,0.8,0.2l2.2-15.5l13.8,3.2l-6.3,20c0.3,0.1,0.6,0.2,0.9,0.3c0.3,0.1,0.6,0.3,0.9,0.4
		c0.4,0.2,0.7,0.4,1,0.6c0.1,0.1,0.2,0.1,0.3,0.2c0.4,0.3,0.7,0.5,0.9,0.8c0,0.1,0.1,0.1,0.1,0.2c0,0.1,0.1,0.1,0.1,0.2
		c0,0.1,0.1,0.1,0.1,0.2c0.1,0.4-0.1,1-0.6,1.7c-0.1,0.1-0.1,0.2-0.2,0.3c-0.1,0.2-0.3,0.4-0.5,0.6c-0.1,0.2-0.3,0.3-0.4,0.5
		c-0.4,0.5-0.9,1-1.4,1.5c-0.1,0.1-0.3,0.3-0.4,0.4c-0.5,0.5-1.1,1-1.5,1.4c-0.1,0.1-0.2,0.2-0.3,0.3c-0.1,0.1-0.1,0.1-0.2,0.2
		c0,0-0.1,0.1-0.1,0.1l-1.1,3.1l0,0c0,0,0,0.1,0,0.1c0.2,0,0.3,0.1,0.5,0.1c0.1,0,0.2,0,0.2,0c0.1,0,0.2,0,0.3,0.1
		c0.2,0,0.4,0.1,0.6,0.1c0.1,0,0.3,0.1,0.4,0.1c0.3,0.1,0.5,0.1,0.7,0.2c0.1,0,0.3,0.1,0.4,0.1c0.1,0,0.2,0.1,0.2,0.1l0.8,29.5
		c0,0,22.3-27.8,25.2-29.3c0.1-0.1,0.2-0.1,0.3-0.2c0,0,0.1,0,0.1-0.1c0.1,0,0.2-0.1,0.2-0.1c0.1,0,0.1-0.1,0.2-0.1
		c0.1,0,0.2-0.1,0.2-0.1c0.1,0,0.1-0.1,0.2-0.1c0.1,0,0.2-0.1,0.2-0.1c0.1,0,0.1,0,0.2-0.1c0.1,0,0.2-0.1,0.3-0.1
		c0.1,0,0.1-0.1,0.2-0.1c0.1,0,0.2-0.1,0.3-0.1c0.1,0,0.1,0,0.2-0.1c0.1,0,0.2-0.1,0.3-0.1c0.1,0,0.2,0,0.3-0.1
		c0.1,0,0.3-0.1,0.4-0.1c0.1,0,0.2,0,0.3,0c0.1,0,0.2,0,0.3-0.1c0.1,0,0.2,0,0.3,0c0.1,0,0.2,0,0.3,0c0.1,0,0.2,0,0.3,0
		c0.1,0,0.2,0,0.4,0c0.1,0,0.2,0,0.4,0h0.8c0.1,0,0.3,0,0.4,0c0.1,0,0.3,0,0.4,0c0.2,0,0.3,0,0.5,0c0.1,0,0.2,0,0.3,0
		c0.2-0.1,0.4-0.1,0.6-0.2c-0.8,1.9-1.6,4.2-1.9,4.8c-0.4,1,5.7,6.7,5.7,6.7s-5.1,8.3-4.8,9c0.2,0.7,9.2,36.9,9.2,36.9
		s21.7-32.4,22.2-34c0.4-1.6-2.1-9.9-2.1-9.9s6.4-4.7,6.8-5.8c0.3-0.8,0.9-5.4,0.5-7.5c0.4,0.1,0.8,0.2,1.2,0.3
		c1.2,0.3,2.4,0.7,3.5,1.1c0.4,0.1,0.7,0.2,1.1,0.4c0.4,0.1,0.7,0.3,1,0.4c0.7,0.3,1.4,0.5,2,0.8c0.3,0.1,0.5,0.2,0.8,0.3
		c1,0.4,1.9,0.9,2.7,1.4c0.2,0.1,0.4,0.2,0.6,0.4c0.2,0.1,0.4,0.2,0.6,0.4c0.2,0.1,0.4,0.3,0.6,0.4c0.2,0.1,0.5,0.3,0.7,0.4
		c0.2,0.1,0.4,0.2,0.5,0.4c0.1,0.1,0.2,0.2,0.4,0.2c0.3,0.2,0.5,0.3,0.7,0.5c0.3,0.2,0.5,0.4,0.7,0.6c9.8,8.7,30.1,36.3,30.7,43.9
		c0.2,2.8-25.8,30.6-25.8,30.6c-0.2-0.1-0.4-0.2-0.6-0.4c-0.1-0.1-0.3-0.2-0.4-0.3c-0.2-0.1-0.3-0.2-0.5-0.4c0,0-0.1,0-0.1-0.1
		c0,0,0,0,0,0l-1.5,1.5c0,0-0.1,0-0.1-0.1c0,0,0,0-0.1,0c0,0-0.1-0.1-0.2-0.1c-0.3-0.2-0.8-0.5-1.3-0.9c-0.1,0.1-0.2,0.2-0.3,0.3
		c0,0,0,0,0,0c-0.2,0.2-0.3,0.4-0.4,0.6c0,0.1-0.1,0.1-0.1,0.2c-0.1,0.2-0.2,0.4-0.2,0.7c-0.1,0.5-0.1,0.9,0,1.4
		c0,0.2,0.1,0.5,0.1,0.7c0.2,0.9,0.5,1.9,0.6,2.8c0,0.1,0,0.3,0,0.4c0,0.2,0,0.5-0.1,0.7c0,0.1,0,0.2-0.1,0.3c-0.9,3.6-5,3.7-5,3.7
		c-0.3,3.3-2.3,4.8-4.2,4.7c-2-0.1-2.1,0.1-2.6-2.2c-0.1-0.2-0.1-0.4-0.2-0.6c0-0.1-0.1-0.1-0.1-0.1c0-0.1-0.1-0.1-0.1-0.1
		c0-0.1-0.1-0.1-0.1-0.1c-0.4-0.3-0.8-0.5-1.3-0.6c-0.1,0-0.2-0.1-0.3-0.1c-0.2-0.1-0.4-0.1-0.6-0.2c-0.9-0.3-1.7-0.6-1.7-1.7
		c0-2.3-5.5-2.5-4-4.4c1.5-1.9,3.2-3.9,3.2-3.9c0.3-3.5,4.8-3.8,7-4.3c0.1,0,0.1,0,0.2-0.1c0.2-0.1,0.3-0.1,0.5-0.2
		c0.1,0,0.1-0.1,0.2-0.1c0.3-0.2,2-1.4,4.4-3.2c0.1-0.1,0.2-0.2,0.3-0.2l0,0c-0.1-0.2-0.3-0.5-0.4-0.7c-0.1-0.2-0.2-0.3-0.3-0.5
		c0-0.1-0.1-0.1-0.1-0.2l1.4-1.7v0c-0.2-0.3-0.4-0.5-0.5-0.7c-0.1-0.1-0.1-0.1-0.1-0.2c0-0.1-0.1-0.1-0.1-0.1c0-0.1-0.1-0.1-0.1-0.2
		c-0.1-0.2-0.1-0.2-0.1-0.2l14.3-21.8l-14.5-18.7l-0.8,2.6l-7.3,26l2.8,18.6c-2.9,0.7-8.5,1.1-8.9,5.5c0,0-2.2,2.6-4.1,5
		c-1.9,2.4,5.1,2.7,5.1,5.7c0,0.3,0.1,0.6,0.2,0.8c-10.5,2.8-21.7,2.5-31.2,1.1c0,0,0,0,0,0c-0.6-0.1-1.2-0.2-1.8-0.3
		c-0.2,0-0.5-0.1-0.7-0.1c-0.4-0.1-0.9-0.2-1.3-0.2c-3.6-0.7-6.9-1.5-9.7-2.3c-0.5-0.1-0.9-0.3-1.4-0.4c-1-0.3-1.9-0.6-2.7-0.9
		c0-0.4,0.1-0.8,0.1-1.2c0-0.2,0-0.5,0.1-0.7c0-0.4,0.1-0.7,0.1-1v0c-0.3-0.2-0.6-0.3-0.9-0.5c-0.6-0.3-1.2-0.7-1.8-1
		c-0.3-0.2-0.6-0.4-0.9-0.6l2.8-37.1l0.9-12.5c-0.2,0.2-0.4,0.4-0.6,0.6c0,0-0.1,0.1-0.1,0.1c-0.2,0.2-0.4,0.4-0.7,0.6
		c0,0-0.1,0.1-0.1,0.1c-0.2,0.2-0.4,0.4-0.7,0.7c0,0,0,0-0.1,0.1c-0.2,0.2-0.5,0.5-0.7,0.7c-0.1,0-0.1,0.1-0.2,0.1
		c-0.2,0.2-0.5,0.5-0.8,0.7c-0.1,0.1-0.1,0.1-0.2,0.2c-0.3,0.2-0.5,0.5-0.8,0.7c-0.1,0.1-0.1,0.1-0.2,0.1c-0.3,0.2-0.5,0.5-0.8,0.7
		c0,0-0.1,0.1-0.1,0.1c-0.3,0.3-0.6,0.5-0.8,0.8c-0.1,0.1-0.1,0.1-0.2,0.2c-0.3,0.3-0.6,0.5-0.8,0.8c-0.1,0.1-0.1,0.1-0.2,0.2
		c-0.3,0.3-0.6,0.5-0.9,0.8c0,0-0.1,0.1-0.1,0.1c-0.3,0.2-0.6,0.5-0.8,0.7c-0.1,0.1-0.1,0.1-0.2,0.2c-0.3,0.3-0.6,0.5-0.9,0.8
		c-0.1,0.1-0.2,0.1-0.2,0.2c-0.3,0.3-0.6,0.5-0.9,0.8c-0.1,0.1-0.1,0.1-0.2,0.2c-0.3,0.3-0.6,0.5-0.9,0.8c0,0-0.1,0.1-0.1,0.1
		c-0.3,0.2-0.6,0.5-0.9,0.7c-0.1,0.1-0.1,0.1-0.2,0.2c-0.3,0.2-0.6,0.5-0.9,0.7c-0.1,0.1-0.1,0.1-0.2,0.2c-0.3,0.2-0.6,0.5-0.9,0.7
		c-0.1,0-0.1,0.1-0.2,0.1c-0.3,0.2-0.6,0.4-0.9,0.6c0,0-0.1,0-0.1,0.1c-0.3,0.2-0.6,0.4-0.9,0.6c-0.1,0-0.1,0.1-0.2,0.1
		c-0.3,0.2-0.6,0.4-0.9,0.6c-0.1,0-0.1,0.1-0.2,0.1c-0.3,0.2-0.6,0.4-0.9,0.5c0,0-0.1,0-0.1,0.1c-0.3,0.2-0.6,0.3-0.8,0.5
		c0,0-0.1,0-0.1,0.1c-0.3,0.1-0.6,0.3-0.8,0.4c-0.1,0-0.1,0.1-0.2,0.1c-0.3,0.1-0.5,0.2-0.8,0.3c0,0-0.1,0-0.1,0.1
		c-0.3,0.1-0.5,0.2-0.8,0.3c0,0,0,0,0,0c-0.2,0.1-0.5,0.1-0.7,0.2c0,0-0.1,0-0.1,0c-0.2,0.1-0.4,0.1-0.7,0.1c0,0-0.1,0-0.1,0
		c-0.2,0-0.4,0-0.6,0c0,0-0.1,0-0.1,0c-0.2,0-0.4,0-0.6-0.1c-5.1-1.1-8.7-4.5-9.4-12C-189.2-941.7-186.6-973.4-186.6-973.4z
		 M-178.2-987.6c-0.6-0.2-1.3,0.2-1.5,0.8c-0.2,0.6,0.2,1.3,0.8,1.5c0.6,0.2,1.3-0.2,1.5-0.8C-177.2-986.8-177.6-987.4-178.2-987.6z
		 M-175.7-1007.9l-0.1,0.4l4,1.1l0.2-0.7L-175.7-1007.9z M-169-1006.4l-1.7-0.4l-0.6,1.1l-5.4-1.2l-0.2-1.1l-2.7-0.6l-2.1,20.1
		l7.5,0.5L-169-1006.4z"/>
	<g>
		<path class="st16" d="M-183-995.5l2.2-15.5l13.8,3.2l-6.3,20l-1.3,4l-10-0.8L-183-995.5z M-175.7-1007.9l-0.1,0.4l4,1.1l0.2-0.7
			L-175.7-1007.9z M-178.9-985.3c0.6,0.2,1.3-0.2,1.5-0.8c0.2-0.6-0.2-1.3-0.8-1.5c-0.6-0.2-1.3,0.2-1.5,0.8
			C-179.9-986.1-179.5-985.5-178.9-985.3z M-174.1-988l5.1-18.4l-1.7-0.4l-0.6,1.1l-5.4-1.2l-0.2-1.1l-2.7-0.6l-2.1,20.1L-174.1-988
			z"/>
	</g>
	<path class="st16" d="M-132.7-1025.2L-132.7-1025.2c-0.1,0.3-0.1,0.6-0.2,1c-0.2,1-0.3,2-0.4,3c-0.1,0.7-0.1,1.3-0.2,2
		c-0.1,1.6-0.1,3.2-0.1,4.7c0,1.7,0,3.3,0,4.7c0,0.6,0,1.2-0.1,1.9c0,0.6-0.1,1.2-0.1,1.7c0,0.1,0,0.2,0,0.2
		c-0.4,7.9-0.5,17.3,11,19.8v0l-0.6,3.7c0,0-7.2,2.1-8.1,3.1c-0.1,0.1-0.1,0.2-0.1,0.3c0,0,0,0.1,0,0.1c0,0.1,0,0.3,0,0.5
		c0,0.5,0,1.2,0.1,2c0.1,1.2,0.4,2.6,0.7,3.9c0,0,0,0,0,0l1.2,28.4l7-23.5l-2.1-2.3c2-1.5,4-3.2,4.6-2.8c0.5,0.4,1.4,1.8,2.4,3.2
		l-2.5,2.2c0,0,0.9,10.9,0.3,23.7c4.2-10.9,8.8-22.8,11.1-28.6c1.1-1.4,2-2.7,2.4-3.8c0.2-0.4,0.2-0.8,0.2-1.2h0c0,0,0-0.1,0-0.1
		c-0.5-2.9-4.1-4.2-4.1-4.2l2.3-5.3l0,0c0.2-0.1,0.4-0.2,0.6-0.3c0.2-0.1,0.3-0.1,0.5-0.2c0.3-0.1,0.6-0.3,0.9-0.5
		c0.1-0.1,0.3-0.2,0.4-0.2c2-1.2,3.5-2.6,4.6-4.1c0.2-0.2,0.3-0.4,0.5-0.6c0.1-0.2,0.3-0.4,0.4-0.6c0.1-0.1,0.1-0.2,0.2-0.3
		c0.1-0.2,0.3-0.4,0.4-0.6c0.6-1,1-1.8,1.2-2.5c0.1-0.2,0.2-0.4,0.2-0.6c0.2-0.6,0.3-1,0.3-1c1.7-0.3,7.6-0.5,8.5-8.6
		c0.1-0.5,0.1-1,0.1-1.5c0-0.2,0-0.4,0-0.6v0c0-0.2,0-0.3,0-0.5c0-0.2-0.1-0.3-0.1-0.5c0-0.1,0-0.1,0-0.2c0-0.1-0.1-0.3-0.1-0.4
		c0-0.1-0.1-0.3-0.1-0.4c-0.1-0.3-0.2-0.5-0.3-0.7c-0.1-0.2-0.3-0.4-0.5-0.6c-0.1-0.1-0.2-0.2-0.2-0.2h0c-0.1-0.1-0.2-0.1-0.3-0.2
		c-0.1-0.1-0.2-0.1-0.3-0.2c0,0,0,0,0,0c-0.1-0.1-0.2-0.1-0.3-0.2c-0.1-0.1-0.2-0.1-0.3-0.1c-0.1,0-0.2-0.1-0.3-0.1
		c-0.1,0-0.2-0.1-0.3-0.1h0c0,0,0,0,0-0.1c0.2,0.1,0.4,0.1,0.6,0.2c0.1,0,0.1,0.1,0.2,0.1c0.3,0.1,0.4,0.3,0.5,0.3c0,0,0,0,0,0
		c0,0,0,0,0,0l2.6-11.9l3-1.6c0,0-3.2-3-6.6-4.7c2.3-2.7,2.4-5.1,2.4-5.1c0,0-7.2-0.3-12.2-5.7c-4.9-5.5-19.2-11-30-3.5
		c-10.8,7.5-7.4,18.5-0.9,20.3C-132.8-1025.2-132.7-1025.2-132.7-1025.2z"/>
	<g id="XMLID_7_">
		<g id="XMLID_8_">
			<path class="st5" d="M-106.2-977.6c0,0,0,0.1,0,0.1h0C-106.2-977.5-106.2-977.5-106.2-977.6z"/>
		</g>
	</g>
</g>
</svg>
