<?xml version="1.0" encoding="utf-8"?>
<!-- Generator: Adobe Illustrator 22.1.0, SVG Export Plug-In . SVG Version: 6.00 Build 0)  -->
<svg version="1.1" id="Layer_1" xmlns="http://www.w3.org/2000/svg" xmlns:xlink="http://www.w3.org/1999/xlink" x="0px" y="0px"
	 viewBox="0 0 2873 450" style="enable-background:new 0 0 2873 450;" xml:space="preserve">
<style type="text/css">
	.st0{display:none;}
	.st1{display:inline;fill:#FBC0A4;}
	.st2{display:inline;}
	.st3{fill:#302624;}
	.st4{fill:#3E3533;}
	.st5{fill:#F8E8D8;}
	.st6{display:inline;fill:#302624;}
	.st7{display:inline;fill:#3E3533;}
	.st8{display:inline;fill:#F8E8D8;}
	.st9{fill:#FBC0A4;}
	.st10{display:inline;fill:#F84511;}
	.st11{fill:#F6876E;}
	.st12{fill:#F69D7D;}
	.st13{display:inline;fill:url(#SVGID_1_);}
	.st14{fill:#FFFFFF;}
</style>
<g class="st0">
	<path class="st1" d="M475.3,132c-0.3-6.1-4.1-22-1.7-25.3s6.6-7.3,3.9-11.4c-0.5-0.8-1-1.6-1-2.5c0-1.1,0.8-2,1.4-2.9
		s1.1-2.1,0.5-3c-0.6-1-1.9-1.1-2.7-2c-0.7-0.7-0.7-1.8-0.6-2.8s0.2-2-0.1-2.9c-1.9-4.7-9.9,2.2-11.6,3.7c-1.7,1.4-3.3,3-4.8,4.6
		c-0.4,0.4-1.9,1.5-2,2.2l-1.3,7.1l9.8,28.5L475.3,132z"/>
	<g class="st2">
		<polygon class="st3" points="458,96 446.3,59 467.7,54.1 473.4,94.8 		"/>
		<path class="st4" d="M462.4,92.4c0.3,1,1.3,1.6,2.3,1.3c1-0.3,1.6-1.3,1.3-2.3c-0.3-1-1.3-1.6-2.3-1.3
			C462.7,90.4,462.1,91.4,462.4,92.4z"/>
		<polygon class="st5" points="452.1,60.4 453,62.1 461.3,60.3 461.6,58.5 465.7,57.7 469,88.6 457.3,89.4 449.5,61 		"/>
		<polygon class="st4" points="459.8,58.7 453.5,59.9 453.8,60.9 460,59.2 		"/>
	</g>
	<path class="st1" d="M458.8,105.5c0,0-9.9-8.2-9.3-11.3c0.6-3.1,14.2-7.9,14.9-4.1S458,96,458,96s9.4,3.5,9.7,14
		c0.1,2.3-4.6,10.1-4.1,13.3C465.3,134.9,458.8,105.5,458.8,105.5z"/>
	<path class="st6" d="M422.5,251.5c-16.6,5.7-54.1,14.3-84.6,1.8c0-7.8,0.1-18.2,0-23.8l83.2,7.2C421.5,241.6,422,244.8,422.5,251.5
		z"/>
	<path class="st7" d="M356.4,113.5c-1.7-2.1-3-4.2-3.6-5.9c3-0.5,6.1-1,9.2-1.3c1.5-0.2,3.1-0.3,4.7-0.4c2.3-0.1,4.6-0.2,7-0.2
		c1.2,0,2.3,0,3.5,0c1,0,2.1,0.1,3.1,0.1c3.5,0.2,7,0.5,10.4,1.1c0.3,0,0.5,0.1,0.8,0.1c-0.2,1.8-0.6,4-1.1,6l0,0l-1.8,43.8
		l-1.5,35.6c0,0-6.2-16.1-13.3-34.3c-0.1-0.2-0.1-0.4-0.2-0.6C367.1,140.9,359.9,122.5,356.4,113.5z"/>
	<path class="st7" d="M478.8,178.5c-1.2,11.6-6.8,16.8-14.6,18.5c-0.3,0.1-0.6,0.1-0.9,0.1h-0.1c-0.3,0-0.6,0-0.9,0
		c-0.1,0-0.1,0-0.2,0c-0.3,0-0.7-0.1-1-0.2H461c-0.4-0.1-0.7-0.2-1.1-0.3c0,0,0,0-0.1,0c-0.4-0.1-0.8-0.3-1.2-0.4
		c-0.1,0-0.1,0-0.2-0.1c-0.4-0.2-0.8-0.3-1.2-0.5c-0.1,0-0.2-0.1-0.3-0.1c-0.4-0.2-0.8-0.4-1.3-0.6c-0.1,0-0.1-0.1-0.2-0.1
		c-0.4-0.2-0.8-0.5-1.3-0.7c-0.1,0-0.1-0.1-0.2-0.1c-0.4-0.3-0.9-0.5-1.4-0.8c-0.1-0.1-0.2-0.1-0.3-0.2c-0.5-0.3-0.9-0.6-1.4-0.9
		c-0.1-0.1-0.2-0.1-0.3-0.2c-0.5-0.3-1-0.6-1.4-1c0,0-0.1-0.1-0.2-0.1c-0.4-0.3-0.9-0.7-1.4-1c-0.1-0.1-0.2-0.1-0.3-0.2
		c-0.5-0.3-1-0.7-1.4-1c-0.1-0.1-0.2-0.2-0.3-0.3c-0.5-0.4-1-0.7-1.4-1.1c-0.1-0.1-0.2-0.2-0.3-0.2c-0.5-0.4-0.9-0.7-1.4-1.1
		c0,0-0.1-0.1-0.2-0.1c-0.5-0.4-1-0.8-1.4-1.2c-0.1-0.1-0.2-0.2-0.3-0.3c-0.5-0.4-0.9-0.8-1.4-1.2c-0.1-0.1-0.2-0.2-0.4-0.3
		c-0.5-0.4-0.9-0.8-1.4-1.2c-0.1-0.1-0.2-0.2-0.3-0.2c-0.4-0.4-0.9-0.8-1.3-1.1c-0.1-0.1-0.1-0.1-0.2-0.2c-0.5-0.4-0.9-0.8-1.4-1.2
		c-0.1-0.1-0.2-0.2-0.3-0.3c-0.4-0.4-0.9-0.8-1.3-1.2c-0.1-0.1-0.2-0.2-0.3-0.3c-0.5-0.4-0.9-0.8-1.3-1.2c-0.1-0.1-0.1-0.1-0.2-0.2
		c-0.4-0.4-0.8-0.7-1.2-1.1c-0.1-0.1-0.2-0.1-0.2-0.2c-0.4-0.4-0.8-0.8-1.2-1.1c-0.1-0.1-0.2-0.2-0.3-0.3c-0.4-0.4-0.8-0.7-1.2-1.1
		c-0.1-0.1-0.2-0.2-0.2-0.2c-0.4-0.4-0.8-0.7-1.1-1.1c0,0-0.1,0-0.1-0.1c-0.4-0.3-0.7-0.7-1-1c-0.1-0.1-0.1-0.1-0.2-0.2
		c-0.3-0.3-0.7-0.7-1-1c-0.1,0-0.1-0.1-0.2-0.2c-0.3-0.3-0.6-0.6-0.9-0.9l1.5,19.3l4.4,57.3c-0.5,0.3-0.9,0.6-1.4,0.9
		c-0.9,0.5-1.8,1.1-2.8,1.6c-0.5,0.3-1,0.5-1.4,0.7l0,0c-25.1,12.7-57.9,7.2-75.9,2.6c-3.4-0.9-6.2-1.7-8.4-2.4
		c-3.1-1-4.8-1.7-4.8-1.7l1.9-12.8l0,0l4.7-31.4l-11.2-40.1l-1.3-3.9l-22.5,28.8l22.1,33.6c0,0-0.1,0.1-0.2,0.4
		c-0.1,0.1-0.1,0.2-0.2,0.3c0,0,0,0.1-0.1,0.2c-0.1,0.1-0.1,0.2-0.2,0.3c-0.2,0.3-0.5,0.7-0.8,1.1l0,0l0,0c-0.5,0.8-1.2,1.7-2,2.7
		c0,0.1-0.1,0.1-0.2,0.2l0,0c-2.3,3.1-5.6,6.9-9.3,9.8l0,0c-0.1,0.1-0.2,0.1-0.3,0.2c-0.3,0.2-0.5,0.4-0.8,0.6
		c-0.2,0.2-0.4,0.3-0.7,0.5c-0.3,0.2-0.6,0.4-0.9,0.6c0,0-40.2-43-39.9-47.2c1-11.6,32.3-54.4,47.5-67.8c0.3-0.3,0.7-0.6,1.1-1
		c0.4-0.3,0.8-0.5,1.1-0.8c0.2-0.1,0.4-0.3,0.5-0.4c0.3-0.2,0.5-0.4,0.8-0.6s0.7-0.4,1-0.7c0.3-0.2,0.7-0.4,1-0.6s0.6-0.4,1-0.6
		c0.3-0.2,0.7-0.4,1-0.5c1.3-0.7,2.8-1.4,4.2-2.1c0.4-0.2,0.8-0.4,1.2-0.5c1-0.4,2-0.9,3.1-1.3c0.5-0.2,1.1-0.4,1.6-0.6
		s1.1-0.4,1.7-0.6c1.8-0.6,3.6-1.2,5.5-1.7c0.6-0.2,1.3-0.4,1.9-0.5c-0.7,3.2,0.2,10.3,0.7,11.6c0.6,1.6,10.5,8.9,10.5,8.9
		s-3.9,12.9-3.2,15.4c0.7,2.5,34.2,52.5,34.2,52.5s13.8-56,14.2-57c0.3-1-7.5-13.8-7.5-13.8s9.5-8.8,8.8-10.3
		c-0.4-0.9-1.7-4.4-2.9-7.4c0.3,0.1,0.6,0.2,0.9,0.3c0.2,0,0.4,0,0.5,0c0.3,0,0.5,0,0.8-0.1c0.2,0,0.4,0,0.6,0s0.4,0,0.7,0h1.2
		c0.2,0,0.4,0,0.5,0c0.2,0,0.4,0,0.6,0s0.3,0,0.5,0s0.4,0,0.5,0s0.3,0,0.5,0.1c0.2,0,0.4,0,0.5,0.1c0.1,0,0.3,0,0.4,0.1
		c0.2,0,0.5,0.1,0.7,0.1s0.3,0.1,0.4,0.1c0.2,0,0.4,0.1,0.5,0.1s0.2,0.1,0.3,0.1c0.1,0,0.3,0.1,0.4,0.1s0.2,0.1,0.3,0.1
		c0.1,0,0.3,0.1,0.4,0.1s0.2,0.1,0.3,0.1c0.1,0,0.3,0.1,0.4,0.2c0.1,0,0.2,0.1,0.3,0.1c0.1,0.1,0.3,0.1,0.4,0.2
		c0.1,0,0.2,0.1,0.2,0.1c0.1,0.1,0.3,0.1,0.4,0.2c0.1,0,0.1,0.1,0.2,0.1c0.2,0.1,0.4,0.2,0.5,0.3c4.4,2.4,38.9,45.3,38.9,45.3
		l1.3-45.6c0,0,0.1,0,0.3-0.1c0.1,0,0.3-0.1,0.5-0.2c0.3-0.1,0.7-0.2,1.1-0.3c0.2,0,0.4-0.1,0.6-0.1c0.3-0.1,0.6-0.1,1-0.2
		c0.2,0,0.3-0.1,0.5-0.1c0.1,0,0.2-0.1,0.4-0.1c0.2,0,0.5-0.1,0.7-0.1l0,0c2.2-0.4,5-0.6,7.8-0.4c1.7,0.1,3.4,0.4,5.1,0.9
		c0.3,0.1,0.7,0.2,1,0.3c0.3,0.1,0.6,0.2,1,0.4c0.3,0.1,0.6,0.3,1,0.4c0.3,0.1,0.6,0.3,0.9,0.5C476.6,112,480.6,161,478.8,178.5z"/>
	<path class="st1" d="M317.8,234.8c1.7-3.5,3.4-6.9,5.4-10.2c1.2,0.9,2.4,1.8,3.4,2.6c3.7,2.8,6.2,4.7,6.7,4.9
		c2.3,1.3,11.7,0.9,12.2,7.1c0,0,2.7,3.1,5,6s-6.1,3.3-6.2,6.9c-0.1,3.6-6.1,1.9-7,5.5s-1,3.3-4.1,3.4c-3,0.1-6.1-2.2-6.5-7.3
		c0,0-6.3-0.2-7.7-5.8c0-0.2-0.1-0.4-0.1-0.5C318.2,243.1,322.5,238.4,317.8,234.8z"/>
	<path class="st8" d="M313.6,234.8l2.3,2.4c0,0,7.6-4.2,11.5-12.6l-2.2-2.7c0,0-4.1,5.5-5.6,7.2
		C318.2,230.7,313.6,234.8,313.6,234.8z"/>
	<path class="st7" d="M327.4,33.9c1.9,8.8,8.1,30.6,8.1,30.6l5.5-6.3L338.2,31L327.4,33.9z"/>
	<path class="st6" d="M400.6,109c-3-0.8-6-1.4-9.1-1.9c-0.2,1.8-0.6,4-1.1,6l0,0l-1.8,43.8l-1.5,35.6c0,0-6.2-16.1-13.3-34.3
		c-0.1-0.2-0.1-0.4-0.2-0.6c-6.5-16.8-13.6-35.2-17.1-44.2c-1.7-2.1-3-4.2-3.6-5.9c-0.2-0.7-0.4-1.3-0.3-1.8l0,0
		c1-0.2,1.8-0.4,1.8-0.4l7.3-0.3l4-0.2l12-0.5l2.5-0.1l7.2-0.3l2.4-0.1c0,0,0.8,0,2,0c2.2,0,5.7,0,6.5,0.5c0.1,0,0.1,0.1,0.2,0.2
		l0.1,0.1c0,0,0.1,0.1,0.1,0.2c0,0,0.1,0.1,0.1,0.2s0.1,0.1,0.2,0.2s0.1,0.2,0.2,0.4c0.1,0.2,0.3,0.5,0.4,0.7
		c0.1,0.1,0.1,0.3,0.2,0.4s0.1,0.2,0.2,0.3C400.1,107.8,400.3,108.4,400.6,109z"/>
	<path class="st8" d="M390.8,104.2l-0.1,2.7l-0.3,6.2l0,0l-1.8,43.8c0,0-7.7,18.8-14.8,1.4c-0.1-0.2-0.1-0.4-0.2-0.6
		c-6.5-16.8-13.6-35.2-17.1-44.2c-1.4-3.6-2.2-5.7-2.2-5.7l8.1-0.9l5-0.6l6.4-0.7l3.6-0.4l2.8-0.3l7.1-0.8l1.5-0.2
		c0.2,0,0.5,0,0.9,0.1C390.1,104.1,390.5,104.1,390.8,104.2z"/>
	<g id="XMLID_3_" class="st2">
		<g id="XMLID_4_">
			<path class="st9" d="M380.9,109.3c-3.1,1.8-9.5,2.7-12.9,2.8c-5.2,0.1-3.1-2.9-4.8-3.3l-16.7-38.6l30.2,13.6l0.1,1.3L380.9,109.3
				z"/>
		</g>
	</g>
	<path class="st10" d="M388.6,156.9l-1.5,35.6c0,0-6.2-16.1-13.3-34.3c-0.1-0.2-0.1-0.4-0.2-0.6c-0.8-19.8,0.5-36.7,0.5-36.7
		l-3.8-3.4l-1.8-1.6l4.8-4.4l1.4-1.3l1.2,0.8l6.8,4.1L381,117l-3.2,3.6L388.6,156.9z"/>
	<g id="XMLID_1_" class="st2">
		<g id="XMLID_2_">
			<path class="st5" d="M391.5,107c-0.2,1.8-0.6,4-1.1,6l0,0c-0.8,3.6-1.8,6.8-2.5,7.1c-1.4,0.7-4.2-1.1-6.9-3.2
				c-3.1-2.4-6.2-5-7.1-4.3c-0.8,0.6-2.2,2.8-3.7,5c-1.7,2.6-3.5,5.1-4.4,5c-1-0.1-5.8-4.6-9.5-9.2c-1.7-2.1-3-4.2-3.6-5.9
				c-0.2-0.7-0.4-1.3-0.3-1.8c0-0.1,0-0.1,0-0.2c0.7-4.5,6.4-6.5,6.4-6.5s3.2,3,6.7,5.9c0.4,0.3,0.8,0.6,1.2,0.9
				c0.2,0.2,0.4,0.3,0.6,0.5c2.8,2.2,5.6,4,6.9,3.8c1.2-0.2,2.2-2.2,3-4.5c0-0.1,0.1-0.3,0.1-0.4c0.1-0.2,0.2-0.5,0.2-0.7
				c0.9-3.2,1.4-6.6,1.4-6.6s11.1,3.2,12.5,4.7c0.1,0.1,0.2,0.3,0.2,0.5c0,0.1,0,0.1,0,0.2c0,0.2,0.1,0.4,0.1,0.7
				C391.7,104.8,391.6,105.8,391.5,107z"/>
		</g>
	</g>
	<path class="st1" d="M335.5,49.7c0,0-10.4-2.4-9,10.1C328,72.2,337,72.5,339.7,73c0,0,5,22.2,32.4,20.1s22.9-23.3,22.7-37.4
		c-0.2-14.1,1.4-38.5-16.6-40.3C360.1,13.6,333.9,14.8,335.5,49.7z"/>
	<g class="st2">
		<path class="st11" d="M379.8,73.4c0.1,0.2-0.6,0.9-2,1.4c-0.7,0.3-1.6,0.5-2.5,0.7c-1,0.1-2.1,0.1-3.2,0c-1.1-0.2-2.2-0.4-3.1-0.8
			s-1.7-0.8-2.3-1.3c-1.2-0.9-1.7-1.7-1.5-1.9c0.2-0.2,1,0.2,2.2,0.7c0.6,0.3,1.4,0.5,2.2,0.8c0.8,0.2,1.8,0.4,2.8,0.6
			c1,0.1,2,0.1,2.8,0.1c0.9,0,1.7-0.1,2.3-0.2C378.9,73.3,379.7,73.1,379.8,73.4z"/>
	</g>
	<g class="st2">
		<path class="st12" d="M375.2,69.3c0-0.3,0.9-0.5,1.3-1.7c0.2-0.6,0.3-1.3,0.2-2.1c-0.2-0.8-0.6-1.7-1-2.8
			c-1.9-4.2-3.1-7.7-2.6-7.9s2.4,3,4.3,7.1c0.5,1,0.9,2.2,1,3.3c0.1,0.6,0,1.1-0.1,1.7c-0.1,0.5-0.4,1-0.6,1.3
			c-0.5,0.7-1.2,1.1-1.7,1.2C375.5,69.6,375.2,69.4,375.2,69.3z"/>
	</g>
	<g class="st2">
		<path class="st4" d="M367.3,47.1c-0.2,0.2-0.9-0.1-2.1-0.4c-1.2-0.3-2.9-0.6-4.8-0.5c-1.8,0.2-3.4,0.8-4.6,1.4
			c-0.6,0.3-1,0.5-1.4,0.7c-0.3,0.2-0.6,0.2-0.7,0.1c-0.1-0.1,0-0.3,0.2-0.7s0.6-0.8,1.1-1.3c1.1-0.9,2.9-1.9,5.2-2.1
			c2.2-0.2,4.2,0.4,5.4,1.1C366.9,46.1,367.4,46.9,367.3,47.1z"/>
	</g>
	<g class="st2">
		<path class="st4" d="M377.8,46.6c-0.2-0.2,0.2-1,1.3-1.9c1.1-0.9,2.9-1.9,5.1-2.1c2.3-0.2,4.2,0.4,5.5,1.1c0.6,0.4,1.1,0.7,1.3,1
			c0.3,0.3,0.4,0.5,0.3,0.6s-0.3,0.1-0.7,0c-0.4-0.1-0.9-0.2-1.5-0.4c-1.2-0.3-2.9-0.6-4.7-0.5c-1.9,0.2-3.5,0.8-4.6,1.4
			C378.7,46.3,378,46.8,377.8,46.6z"/>
	</g>
	<path class="st7" d="M364.7,56c0.1,2-1.5,3.8-3.5,3.8c-2,0.1-3.8-1.5-3.8-3.5c-0.1-2,1.5-3.8,3.5-3.8
		C362.8,52.4,364.6,53.9,364.7,56z"/>
	<path class="st7" d="M385.6,55c0.1,2-1.5,3.8-3.5,3.8c-2,0.1-3.8-1.5-3.8-3.5c-0.1-2,1.5-3.8,3.5-3.8C383.8,51.4,385.5,53,385.6,55
		z"/>
	
		<linearGradient id="SVGID_1_" gradientUnits="userSpaceOnUse" x1="1607.042" y1="689.7537" x2="1612.5326" y2="686.6789" gradientTransform="matrix(-1 0 0 1 1943.7427 -628)">
		<stop  offset="0" style="stop-color:#F69D7D"/>
		<stop  offset="1" style="stop-color:#F69D7D;stop-opacity:0.6"/>
	</linearGradient>
	<path class="st13" d="M330.1,55.2c-1,3.3,0.4,6.8,1.7,9.9c0.4,0.9,0.8,1.9,1.7,2.5c0.8,0.6,2.2,0.5,2.7-0.4
		c0.4-0.9-0.2-1.9-0.7-2.7c-0.5-0.9-0.8-2.1,0.1-2.7c0.4-0.2,0.9-0.2,1.3-0.4c0.9-0.5,0.9-1.7,0.7-2.7c-0.3-1.3-0.8-2.6-1.5-3.9
		c-0.7-1.2-1.7-2.4-3-2.4C331.5,52.5,330.5,53.9,330.1,55.2z"/>
	<path class="st7" d="M392.3,0.5c-16.7-11.6-38.8-3-46.4,5.4s-18.8,8.9-18.8,8.9s0,3.7,3.6,7.9c-5.2,2.6-10.2,7.2-10.2,7.2l4.7,2.4
		l4,18.4c0,0,2.4-1.9,5.5-1.3c3.8,0.7,5,12.1,5,12.1s3.8-0.2,5.5-2.2c0.8-0.9,0-5.1-1-9.2v-2.3c0,0,9.4-2.6,6-16.4
		c7.5-0.1,12.7-3.8,12.7-3.8c6.2,5,10.2,3.4,12.7,1.9s8.2,5.4,18.2,2.5C403.7,29.1,408.9,12.1,392.3,0.5z"/>
</g>
<g>
	<g>
		<path class="st14" d="M475.8,159.9c10.4,5.5,18.6,13.9,24.6,24.9c6,11,9,24.6,9,40.3v101.1h-28.2v-97c0-17.2-4.3-30.2-12.8-39.2
			c-8.5-9.1-20.3-13.5-35.1-13.5c-15,0-26.9,4.7-35.9,14c-8.8,9.4-13.2,23-13.2,40.9v94.8h-28.5V94.7h28.5v84.4
			c5.7-8.8,13.4-15.6,23.3-20.3c9.9-4.7,20.9-7.2,33.4-7.2C453.6,151.6,465.2,154.4,475.8,159.9z"/>
		<path class="st14" d="M555.8,193.6c7.1-13.2,16.9-23.5,29.3-30.9c12.4-7.2,26.3-11,41.4-11c15,0,28,3.3,39.1,9.8
			c11,6.5,19.4,14.6,24.7,24.4v-31.3h28.8v171.5h-28.8v-32c-5.7,10.1-14,18.3-25.2,24.9c-11.2,6.6-24.1,9.9-38.9,9.9
			c-15.3,0-29-3.8-41.3-11.3c-12.3-7.6-22-18.1-29.1-31.7c-7.1-13.5-10.7-29-10.7-46.3C545.2,222.3,548.7,207,555.8,193.6z
			 M682.6,206.4c-5.2-9.6-12.3-17-21.1-22s-18.6-7.7-29.3-7.7c-10.7,0-20.3,2.5-29.1,7.6c-8.8,5-15.7,12.3-20.9,21.9
			c-5.2,9.6-7.9,20.8-7.9,33.9s2.7,24.6,7.9,34.3c5.2,9.8,12.3,17.2,20.9,22.2c8.8,5,18.4,7.7,29.1,7.7c10.7,0,20.3-2.5,29.3-7.7
			c8.8-5,15.9-12.4,21.1-22.2c5.2-9.8,7.9-20.9,7.9-34C690.4,227.2,687.8,216,682.6,206.4z"/>
		<path class="st14" d="M795.8,94.7v231.5h-28.5V94.7H795.8z"/>
		<path class="st14" d="M875.5,318c-13.1-7.2-23.3-17.6-30.7-31.2c-7.4-13.4-11.2-29-11.2-46.8c0-17.5,3.8-33.1,11.5-46.5
			c7.6-13.4,18-23.8,31.2-31c13.1-7.2,27.9-10.9,44.1-10.9s31,3.6,44.1,10.9c13.1,7.2,23.5,17.5,31.2,30.9
			c7.6,13.4,11.5,29,11.5,46.6c0,17.8-3.9,33.4-11.8,46.8c-7.9,13.4-18.4,23.8-31.8,31.2c-13.4,7.2-28.2,11-44.4,11
			C903.1,329.1,888.6,325.4,875.5,318z M947.9,296.8c9-4.7,16.2-12,21.7-21.6c5.5-9.6,8.3-21.3,8.3-35.1c0-13.7-2.7-25.5-8.2-35.1
			c-5.4-9.6-12.4-16.7-21.3-21.4c-8.8-4.7-18.3-7.1-28.5-7.1c-10.4,0-20,2.4-28.7,7.1c-8.7,4.7-15.6,11.8-20.8,21.4
			c-5.2,9.6-7.9,21.3-7.9,35.1c0,14,2.5,25.8,7.7,35.4c5,9.6,12,16.7,20.5,21.4c8.5,4.7,18,7.1,28.2,7.1
			C929.4,304,939,301.7,947.9,296.8z"/>
		<path class="st14" d="M1098.4,161.8c11.2-6.6,24.1-9.9,38.9-9.9c15.3,0,29,3.6,41.4,11c12.4,7.2,22.2,17.6,29.3,30.9
			c7.1,13.2,10.7,28.7,10.7,46.1c0,17.3-3.6,32.8-10.7,46.3c-7.1,13.5-16.9,24.1-29.3,31.7c-12.4,7.6-26.3,11.3-41.4,11.3
			c-14.6,0-27.6-3.3-38.6-9.9c-11.2-6.6-19.7-14.8-25.5-24.6v112.9h-28.5V154.7h28.5v31.7C1078.8,176.6,1087.2,168.4,1098.4,161.8z
			 M1181.8,206.1c-5.2-9.6-12.3-16.9-21.1-21.9c-8.8-5-18.6-7.6-29.3-7.6c-10.4,0-20.2,2.5-29,7.7c-8.8,5-15.9,12.4-21.3,22.2
			c-5.4,9.8-8,20.9-8,33.7c0,12.9,2.7,24.3,8,34s12.4,17.2,21.3,22.2c8.8,5,18.6,7.7,29,7.7c10.7,0,20.3-2.5,29.3-7.7
			c8.8-5,15.9-12.4,21.1-22.2c5.2-9.8,7.9-21.1,7.9-34.3C1189.5,226.8,1187,215.7,1181.8,206.1z"/>
		<path class="st14" d="M1411.8,251.1h-137c1.1,16.9,6.8,30.1,17.3,39.5c10.6,9.4,23.3,14.2,38.3,14.2c12.3,0,22.5-2.8,30.9-8.7
			c8.2-5.7,14-13.4,17.3-23h30.7c-4.6,16.5-13.7,29.9-27.6,40.2c-13.7,10.4-30.9,15.4-51.3,15.4c-16.2,0-30.9-3.6-43.6-11
			c-12.8-7.2-22.8-17.6-30.2-31.2c-7.2-13.4-11-29-11-46.8c0-17.8,3.6-33.2,10.7-46.6c7.1-13.4,17-23.6,29.9-30.9
			c12.8-7.2,27.6-10.9,44.3-10.9c16.2,0,30.7,3.6,43.2,10.7c12.4,7.1,22.2,16.9,29,29.3c6.8,12.4,10.2,26.5,10.2,42.1
			C1412.7,239.3,1412.4,245.1,1411.8,251.1z M1376.2,199.9c-4.7-7.9-11.3-13.7-19.5-17.8c-8.2-4.1-17.3-6.1-27.4-6.1
			c-14.3,0-26.6,4.6-36.7,13.7c-10.1,9.1-15.9,21.9-17.3,38.1h108.4C1383.3,217.1,1380.9,207.8,1376.2,199.9z"/>
		<path class="st14" d="M1584.5,170.5c12.9,12.6,19.4,30.9,19.4,54.7v101.1h-28.2v-97c0-17.2-4.3-30.2-12.8-39.2
			c-8.5-9.1-20.3-13.5-35.1-13.5c-15,0-26.9,4.7-35.9,14c-8.8,9.4-13.2,23-13.2,40.9v94.8h-28.5V154.7h28.5v24.4
			c5.7-8.8,13.2-15.6,23-20.3c9.8-4.7,20.3-7.2,32.1-7.2C1554.8,151.6,1571.6,157.9,1584.5,170.5z"/>
		<path class="st14" d="M1760.3,161.6c11.2,6.5,19.5,14.6,24.9,24.4v-31.3h28.8V330c0,15.6-3.3,29.6-10.1,41.7
			c-6.6,12.3-16.2,21.7-28.7,28.7c-12.4,6.9-26.9,10.4-43.3,10.4c-22.5,0-41.3-5.4-56.4-15.9c-15-10.7-23.9-25.2-26.6-43.5h28.2
			c3.1,10.4,9.6,18.9,19.4,25.2c9.8,6.3,21.6,9.6,35.4,9.6c15.6,0,28.3-4.9,38.3-14.6c9.9-9.8,14.8-23.6,14.8-41.3v-36.1
			c-5.7,10.1-14,18.4-25,25c-11,6.6-23.9,10.1-38.7,10.1c-15.3,0-29-3.8-41.4-11.3c-12.4-7.6-22.2-18.1-29.3-31.7
			s-10.7-29-10.7-46.3c0-17.5,3.5-32.9,10.7-46.1c7.1-13.2,16.9-23.5,29.3-30.9c12.4-7.2,26.3-11,41.4-11
			C1736.1,151.9,1749.1,155.2,1760.3,161.6z M1777.3,206.4c-5.2-9.6-12.3-17-21.1-22c-8.8-5-18.6-7.7-29.3-7.7
			c-10.7,0-20.3,2.5-29.1,7.6c-8.8,5-15.7,12.3-20.9,21.9c-5.2,9.6-7.9,20.8-7.9,33.9s2.7,24.6,7.9,34.3
			c5.2,9.8,12.3,17.2,20.9,22.2c8.8,5,18.4,7.7,29.1,7.7c10.7,0,20.3-2.5,29.3-7.7c8.8-5,15.9-12.4,21.1-22.2
			c5.2-9.8,7.9-20.9,7.9-34C1785.2,227.2,1782.5,216,1777.3,206.4z"/>
		<path class="st14" d="M1862.2,193.6c7.1-13.2,16.9-23.5,29.3-30.9c12.4-7.2,26.3-11,41.4-11c15,0,28,3.3,39.1,9.8
			s19.4,14.6,24.7,24.4v-31.3h28.8v171.5h-28.8v-32c-5.7,10.1-14,18.3-25.2,24.9c-11.2,6.6-24.1,9.9-38.9,9.9
			c-15.3,0-29-3.8-41.3-11.3c-12.3-7.6-22-18.1-29.1-31.7s-10.7-29-10.7-46.3S1855.1,207,1862.2,193.6z M1988.8,206.4
			c-5.2-9.6-12.3-17-21.1-22c-8.8-5-18.6-7.7-29.3-7.7c-10.7,0-20.3,2.5-29.1,7.6c-8.8,5-15.7,12.3-20.9,21.9
			c-5.2,9.6-7.9,20.8-7.9,33.9s2.7,24.6,7.9,34.3c5.2,9.8,12.3,17.2,20.9,22.2c8.8,5,18.4,7.7,29.1,7.7c10.7,0,20.3-2.5,29.3-7.7
			c8.8-5,15.9-12.4,21.1-22.2c5.2-9.8,7.9-20.9,7.9-34C1996.7,227.2,1994.2,216,1988.8,206.4z"/>
		<path class="st14" d="M2073.7,193.6c7.1-13.2,16.9-23.5,29.3-30.9c12.4-7.2,26.3-11,41.7-11c13.4,0,25.8,3.1,37.2,9.3
			c11.5,6.1,20.2,14.2,26.3,24.3V94.5h28.8v231.5h-28.8v-32.3c-5.7,10.2-14,18.6-25,25.2c-11,6.6-23.9,9.9-38.7,9.9
			c-15.3,0-29-3.8-41.4-11.3c-12.4-7.6-22.2-18.1-29.3-31.7s-10.7-29-10.7-46.3C2063,222.3,2066.6,207,2073.7,193.6z M2200.5,206.4
			c-5.2-9.6-12.3-17-21.1-22s-18.6-7.7-29.3-7.7c-10.7,0-20.3,2.5-29.1,7.6c-8.8,5-15.7,12.3-20.9,21.9c-5.2,9.6-7.9,20.8-7.9,33.9
			s2.7,24.6,7.9,34.3c5.2,9.8,12.3,17.2,20.9,22.2c8.8,5,18.4,7.7,29.1,7.7s20.3-2.5,29.3-7.7c8.8-5,15.9-12.4,21.1-22.2
			s7.9-20.9,7.9-34C2208.2,227.2,2205.7,216,2200.5,206.4z"/>
		<path class="st14" d="M2285.2,193.6c7.1-13.2,16.9-23.5,29.3-30.9c12.4-7.2,26.3-11,41.4-11c15,0,28,3.3,39.1,9.8
			s19.4,14.6,24.7,24.4v-31.3h28.8v171.5h-28.8v-32c-5.7,10.1-14,18.3-25.2,24.9c-11.2,6.6-24.1,9.9-38.9,9.9
			c-15.3,0-29-3.8-41.3-11.3c-12.3-7.6-22-18.1-29.1-31.7c-7.1-13.5-10.7-29-10.7-46.3C2274.7,222.3,2278.2,207,2285.2,193.6z
			 M2412,206.4c-5.2-9.6-12.3-17-21.1-22c-8.8-5-18.6-7.7-29.3-7.7c-10.7,0-20.3,2.5-29.1,7.6c-8.8,5-15.7,12.3-20.9,21.9
			c-5.2,9.6-7.9,20.8-7.9,33.9s2.7,24.6,7.9,34.3c5.2,9.8,12.3,17.2,20.9,22.2c8.8,5,18.4,7.7,29.1,7.7c10.7,0,20.3-2.5,29.3-7.7
			c8.8-5,15.9-12.4,21.1-22.2c5.2-9.8,7.9-20.9,7.9-34C2419.9,227.2,2417.2,216,2412,206.4z"/>
		<path class="st14" d="M2496.9,193.6c7.1-13.2,16.9-23.5,29.3-30.9c12.4-7.2,26.3-11,41.4-11c15,0,28,3.3,39.1,9.8
			s19.4,14.6,24.7,24.4v-31.3h28.8v171.5h-28.8v-32c-5.7,10.1-14,18.3-25.2,24.9c-11.2,6.6-24.1,9.9-38.9,9.9
			c-15.3,0-29-3.8-41.3-11.3c-12.3-7.6-22-18.1-29.1-31.7c-7.1-13.5-10.7-29-10.7-46.3S2489.7,207,2496.9,193.6z M2623.5,206.4
			c-5.2-9.6-12.3-17-21.1-22c-8.8-5-18.6-7.7-29.3-7.7c-10.7,0-20.3,2.5-29.1,7.6c-8.8,5-15.7,12.3-20.9,21.9
			c-5.2,9.6-7.9,20.8-7.9,33.9s2.7,24.6,7.9,34.3c5.2,9.8,12.3,17.2,20.9,22.2c8.8,5,18.4,7.7,29.1,7.7c10.7,0,20.3-2.5,29.3-7.7
			c8.8-5,15.9-12.4,21.1-22.2c5.2-9.8,7.9-20.9,7.9-34C2631.4,227.2,2628.7,216,2623.5,206.4z"/>
		<path class="st14" d="M2842.6,170.5c12.9,12.6,19.4,30.9,19.4,54.7v101.1h-28.2v-97c0-17.2-4.3-30.2-12.8-39.2
			c-8.5-9.1-20.2-13.5-35.1-13.5c-15,0-26.9,4.7-35.9,14c-8.8,9.4-13.2,23-13.2,40.9v94.8h-28.5V154.7h28.5v24.4
			c5.7-8.8,13.2-15.6,23-20.3c9.8-4.7,20.3-7.2,32.1-7.2C2812.9,151.6,2829.7,157.9,2842.6,170.5z"/>
	</g>
	<g>
		<path class="st14" d="M16.2,196.1c0.4-0.2,0.8-0.4,1.1-0.6c0.4-0.2,0.8-0.4,1.2-0.5c0.4-0.2,0.8-0.3,1.2-0.5
			c0.4-0.1,0.8-0.3,1.2-0.4c0-0.3,0-0.5,0-0.8c0-0.2,0-0.5-0.1-0.7c0-0.2,0-0.4-0.1-0.7c-0.1-0.4-0.1-0.8-0.2-1.1l0,0
			c-0.1-0.2-0.1-0.3-0.2-0.5c-0.1-0.3-0.3-0.6-0.4-0.8c-3-4-8.2-9.1-4.8-14.1c0.6-0.9,1.2-2,1.2-3.1c0-1.3-1-2.4-1.8-3.5
			s-1.3-2.6-0.7-3.7c0.7-1.2,2.4-1.4,3.3-2.4c0.8-0.9,0.9-2.2,0.8-3.5c-0.1-1.2-0.3-2.5,0.2-3.6c0.2-0.5,0.5-0.9,0.8-1.2
			c0.7-0.6,1.6-0.8,2.6-0.7c0.5,0.1,1.1,0.2,1.6,0.4l4.1-29.5l26.4,6.1l-12.1,38.1c0.6,0.2,1.2,0.4,1.7,0.7c0.6,0.2,1.1,0.5,1.7,0.8
			c0.7,0.4,1.4,0.7,2,1.1c0.2,0.1,0.4,0.2,0.5,0.4c0.7,0.5,1.3,1,1.7,1.5c0.1,0.1,0.1,0.2,0.2,0.3c0.1,0.1,0.1,0.2,0.2,0.3
			c0.1,0.1,0.1,0.2,0.1,0.4c0.2,0.8-0.3,1.9-1.1,3.2c-0.1,0.2-0.2,0.3-0.3,0.5c-0.3,0.4-0.6,0.8-0.9,1.2c-0.2,0.3-0.5,0.6-0.7,0.9
			c-0.8,1-1.8,2-2.7,2.9c-0.3,0.3-0.5,0.5-0.8,0.8c-1,1-2,1.9-2.9,2.7c-0.2,0.2-0.5,0.4-0.7,0.6c-0.1,0.1-0.3,0.2-0.4,0.3
			c-0.1,0.1-0.1,0.1-0.2,0.2l-2.1,6l0,0c0,0.1,0,0.1,0,0.2c0.3,0,0.6,0.1,0.9,0.2c0.2,0,0.3,0,0.5,0.1c0.2,0,0.4,0.1,0.6,0.1
			c0.4,0.1,0.8,0.2,1.2,0.3c0.2,0.1,0.5,0.1,0.7,0.2c0.5,0.1,1,0.3,1.4,0.4c0.3,0.1,0.5,0.1,0.7,0.2c0.2,0.1,0.3,0.1,0.3,0.1
			l1.6,56.4c0,0,42.6-53.1,48-56c0.2-0.1,0.4-0.2,0.7-0.3c0.1,0,0.1-0.1,0.2-0.1c0.1-0.1,0.3-0.1,0.5-0.2c0.1,0,0.2-0.1,0.3-0.1
			c0.1-0.1,0.3-0.1,0.5-0.2c0.1,0,0.2-0.1,0.3-0.1c0.1-0.1,0.3-0.1,0.5-0.2c0.1,0,0.2-0.1,0.4-0.1c0.2-0.1,0.3-0.1,0.5-0.2
			c0.1,0,0.3-0.1,0.4-0.1c0.2-0.1,0.4-0.1,0.5-0.2c0.1,0,0.3-0.1,0.4-0.1c0.2-0.1,0.4-0.1,0.7-0.2c0.2,0,0.3-0.1,0.5-0.1
			c0.3-0.1,0.6-0.1,0.9-0.2c0.2,0,0.3,0,0.5-0.1c0.2,0,0.4-0.1,0.7-0.1c0.2,0,0.4,0,0.6-0.1c0.2,0,0.4,0,0.7-0.1c0.2,0,0.4,0,0.6,0
			s0.5,0,0.7,0s0.4,0,0.7,0h1.5c0.3,0,0.5,0,0.8,0c0.2,0,0.5,0,0.7,0c0.3,0,0.7,0,1,0.1c0.2,0,0.4,0,0.6,0.1
			c0.4-0.1,0.8-0.2,1.2-0.3c-1.5,3.7-3.1,8.1-3.6,9.1c-0.8,1.9,10.9,12.8,10.9,12.8s-9.6,15.8-9.2,17.1s17.5,70.5,17.5,70.5
			s41.5-61.9,42.3-64.9c0.9-3.1-4-19-4-19s12.3-9.1,13-11c0.6-1.6,1.8-10.4,0.9-14.4c0.8,0.2,1.6,0.4,2.4,0.6
			c2.3,0.6,4.6,1.3,6.8,2.1c0.7,0.2,1.4,0.5,2,0.7c0.7,0.2,1.3,0.5,2,0.7c1.3,0.5,2.6,1,3.9,1.6c0.5,0.2,1,0.4,1.5,0.6
			c1.8,0.8,3.6,1.7,5.2,2.6c0.4,0.2,0.8,0.4,1.2,0.7c0.4,0.2,0.8,0.4,1.2,0.7c0.4,0.2,0.8,0.5,1.2,0.7c0.4,0.3,0.9,0.5,1.3,0.8
			c0.4,0.2,0.7,0.5,1,0.7c0.2,0.1,0.5,0.3,0.7,0.5c0.5,0.3,1,0.7,1.4,1c0.5,0.4,0.9,0.8,1.4,1.2c18.7,16.5,57.5,69.4,58.7,83.7
			c0.4,5.3-49.3,58.4-49.3,58.4c-0.4-0.2-0.7-0.4-1.1-0.7c-0.3-0.2-0.6-0.4-0.8-0.6c-0.3-0.2-0.6-0.4-0.9-0.7l-0.1-0.1l0.1,0.1
			l-2.8,3c0,0-0.1,0-0.3-0.2c0,0-0.1,0-0.1-0.1c-0.1,0-0.2-0.1-0.3-0.2c-0.6-0.4-1.5-1-2.6-1.8c-0.2,0.2-0.3,0.3-0.5,0.5l0,0
			c-0.3,0.4-0.6,0.7-0.8,1.1c-0.1,0.1-0.1,0.2-0.2,0.4c-0.2,0.4-0.3,0.8-0.4,1.3c-0.2,0.9-0.1,1.8,0,2.7c0.1,0.5,0.1,0.9,0.2,1.4
			c0.4,1.8,1,3.6,1.1,5.4c0,0.3,0,0.5,0,0.8c0,0.4,0,0.9-0.1,1.3c0,0.2-0.1,0.4-0.1,0.6c-1.7,6.9-9.5,7.1-9.5,7.1
			c-0.6,6.4-4.4,9.2-8.1,9.1c-3.8-0.1-3.9,0.3-5-4.2c-0.1-0.4-0.3-0.8-0.5-1.1c0-0.1-0.1-0.2-0.2-0.3c-0.1-0.1-0.2-0.2-0.3-0.3
			c-0.1-0.1-0.2-0.2-0.3-0.2c-0.7-0.6-1.6-0.9-2.5-1.2c-0.2-0.1-0.4-0.1-0.6-0.2c-0.4-0.1-0.7-0.2-1.1-0.3c-1.7-0.5-3.2-1.2-3.3-3.2
			c-0.1-4.4-10.4-4.9-7.6-8.5c2.8-3.6,6.1-7.4,6.1-7.4c0.5-6.6,9.2-7.2,13.4-8.2c0.1,0,0.3-0.1,0.4-0.1c0.3-0.1,0.7-0.2,0.9-0.3
			c0.1,0,0.3-0.1,0.4-0.2c0.6-0.3,3.7-2.6,8.3-6.1c0.2-0.1,0.4-0.3,0.6-0.5l0,0c-0.3-0.4-0.5-0.9-0.8-1.3c-0.2-0.3-0.3-0.6-0.5-1
			c-0.1-0.1-0.1-0.3-0.2-0.4l2.7-3.3l0,0c-0.4-0.6-0.7-1-1-1.4c-0.1-0.1-0.2-0.3-0.3-0.4s-0.1-0.2-0.1-0.2c-0.1-0.1-0.1-0.2-0.2-0.3
			c-0.2-0.3-0.3-0.4-0.3-0.5l27.3-41.6L201,252l-1.6,4.9l-13.9,49.6l5.3,35.6c-5.6,1.3-16.2,2.2-16.9,10.5c0,0-4.3,4.9-7.9,9.5
			c-3.6,4.6,9.7,5.2,9.8,10.9c0,0.6,0.1,1.1,0.3,1.6c-20,5.4-41.4,4.8-59.5,2.1l0,0c-1.1-0.2-2.3-0.3-3.4-0.5
			c-0.5-0.1-0.9-0.1-1.4-0.2c-0.8-0.1-1.7-0.3-2.5-0.5c-6.9-1.3-13.2-2.9-18.5-4.4c-0.9-0.3-1.8-0.5-2.6-0.8
			c-1.9-0.6-3.6-1.1-5.2-1.7c0.1-0.8,0.1-1.5,0.2-2.2c0-0.5,0.1-0.9,0.1-1.3c0.1-0.7,0.1-1.3,0.2-2l0,0c-0.6-0.3-1.2-0.6-1.8-0.9
			c-1.1-0.6-2.3-1.3-3.4-2c-0.6-0.3-1.1-0.7-1.7-1.1l5.4-70.8l1.8-23.8c-0.4,0.4-0.7,0.7-1.1,1.1c-0.1,0.1-0.1,0.1-0.2,0.2
			c-0.4,0.4-0.8,0.8-1.2,1.2c-0.1,0.1-0.1,0.1-0.2,0.2c-0.4,0.4-0.9,0.8-1.3,1.2l-0.1,0.1c-0.5,0.4-0.9,0.9-1.4,1.4
			c-0.1,0.1-0.2,0.2-0.3,0.3c-0.5,0.4-1,0.9-1.4,1.4c-0.1,0.1-0.2,0.2-0.3,0.3c-0.5,0.5-1,0.9-1.5,1.4c-0.1,0.1-0.2,0.2-0.3,0.3
			c-0.5,0.4-1,0.9-1.5,1.3c-0.1,0.1-0.2,0.1-0.3,0.2c-0.5,0.5-1.1,1-1.6,1.5c-0.1,0.1-0.3,0.2-0.4,0.4c-0.5,0.5-1.1,1-1.6,1.5
			c-0.1,0.1-0.3,0.2-0.4,0.4c-0.6,0.5-1.1,1-1.7,1.5c-0.1,0.1-0.2,0.2-0.3,0.2c-0.5,0.5-1.1,0.9-1.6,1.4c-0.1,0.1-0.2,0.2-0.4,0.3
			c-0.6,0.5-1.1,1-1.7,1.5c-0.1,0.1-0.3,0.2-0.4,0.4c-0.6,0.5-1.1,1-1.7,1.4c-0.1,0.1-0.3,0.2-0.4,0.3c-0.6,0.5-1.2,1-1.8,1.4
			c-0.1,0-0.1,0.1-0.2,0.2c-0.6,0.5-1.2,0.9-1.8,1.4c-0.1,0.1-0.2,0.2-0.4,0.3c-0.6,0.5-1.2,0.9-1.8,1.3c-0.1,0.1-0.3,0.2-0.4,0.3
			c-0.6,0.4-1.2,0.9-1.8,1.3c-0.1,0.1-0.2,0.2-0.3,0.2c-0.6,0.4-1.1,0.8-1.7,1.2c-0.1,0-0.1,0.1-0.2,0.1c-0.6,0.4-1.2,0.8-1.8,1.2
			c-0.1,0.1-0.2,0.2-0.4,0.2c-0.6,0.4-1.1,0.7-1.7,1.1c-0.1,0.1-0.2,0.1-0.4,0.2c-0.6,0.3-1.1,0.7-1.7,1c-0.1,0-0.1,0.1-0.2,0.1
			c-0.5,0.3-1.1,0.6-1.6,0.9c-0.1,0-0.1,0.1-0.2,0.1c-0.5,0.3-1.1,0.5-1.6,0.8c-0.1,0-0.2,0.1-0.3,0.1c-0.5,0.2-1,0.5-1.5,0.7
			c-0.1,0-0.2,0.1-0.3,0.1c-0.5,0.2-1,0.4-1.5,0.5h-0.1c-0.5,0.1-0.9,0.3-1.4,0.4c-0.1,0-0.1,0-0.2,0c-0.4,0.1-0.9,0.2-1.3,0.2
			c-0.1,0-0.2,0-0.2,0c-0.4,0-0.8,0.1-1.2,0c-0.1,0-0.1,0-0.2,0c-0.4,0-0.8,0-1.1-0.1c-9.7-2.1-16.6-8.5-18-22.9
			C11.3,256.6,16.2,196.1,16.2,196.1z M32.2,169c-1.2-0.3-2.5,0.4-2.8,1.6c-0.3,1.2,0.4,2.5,1.6,2.8c1.2,0.3,2.5-0.4,2.8-1.6
			C34.1,170.6,33.4,169.3,32.2,169z M37,130.1l-0.2,0.7l7.7,2.1l0.3-1.3L37,130.1z M49.7,133l-3.2-0.8l-1.1,2.1l-10.3-2.2l-0.3-2.2
			l-5.1-1.1l-4,38.3l14.4,1L49.7,133z"/>
		<g>
			<path class="st14" d="M23.1,154l4.1-29.5l26.4,6.1l-12.1,38.1l-2.4,7.6l-19-1.5L23.1,154z M37,130.1l-0.2,0.7l7.7,2.1l0.3-1.3
				L37,130.1z M31,173.4c1.2,0.3,2.5-0.4,2.8-1.6c0.3-1.2-0.4-2.5-1.6-2.8c-1.2-0.3-2.5,0.4-2.8,1.6C29,171.8,29.7,173,31,173.4z
				 M40.1,168.2l9.7-35.1l-3.2-0.8l-1.1,2.1l-10.3-2.2l-0.3-2.2l-5.1-1.1l-4,38.3L40.1,168.2z"/>
		</g>
		<path class="st14" d="M119.2,97.2L119.2,97.2c-0.1,0.6-0.2,1.2-0.3,1.8c-0.3,1.9-0.6,3.8-0.8,5.7c-0.1,1.3-0.2,2.6-0.3,3.8
			c-0.2,3.1-0.3,6.1-0.3,9c0,3.2,0,6.2-0.1,8.9c0,1.1,0,2.3-0.1,3.5c0,1.1-0.1,2.2-0.1,3.3c0,0.2,0,0.3,0,0.5
			c-0.7,15.1-0.9,33,21,37.8l0,0l-1.2,7c0,0-13.7,3.9-15.4,5.9c-0.1,0.1-0.2,0.3-0.2,0.6c0,0.1,0,0.1,0,0.2c0,0.2-0.1,0.5-0.1,0.9
			c0,1,0,2.3,0.2,3.7c0.3,2.2,0.8,4.9,1.3,7.4l0,0l2.3,54.1l13.3-44.9l-3.9-4.4c3.9-2.9,7.6-6.1,8.8-5.3c1,0.8,2.7,3.4,4.5,6.1
			l-4.7,4.2c0,0,1.7,20.8,0.6,45.3c8-20.7,16.8-43.5,21.2-54.7c2.1-2.6,3.8-5.2,4.5-7.3c0.3-0.8,0.4-1.6,0.4-2.2l0,0
			c0-0.1,0-0.2,0-0.3c-0.9-5.6-7.9-8.1-7.9-8.1l4.4-10.2l0,0c0.4-0.1,0.7-0.3,1.1-0.5c0.3-0.1,0.6-0.3,0.9-0.4
			c0.6-0.3,1.2-0.6,1.7-0.9c0.3-0.1,0.5-0.3,0.8-0.5c3.7-2.3,6.6-5,8.7-7.8c0.3-0.4,0.6-0.8,0.9-1.2c0.3-0.4,0.6-0.8,0.8-1.1
			c0.1-0.2,0.3-0.4,0.4-0.6c0.2-0.4,0.5-0.8,0.7-1.1c1.1-1.8,1.8-3.5,2.3-4.8c0.2-0.4,0.3-0.8,0.4-1.1c0.4-1.2,0.6-2,0.6-2
			c3.3-0.7,14.4-1,16.2-16.4c0.1-1,0.2-1.9,0.2-2.8c0-0.4,0-0.8,0-1.1v-0.1c0-0.3,0-0.6-0.1-0.9c0-0.3-0.1-0.6-0.1-0.9
			c0-0.1,0-0.2-0.1-0.4c0-0.3-0.1-0.5-0.2-0.7c-0.1-0.3-0.2-0.6-0.3-0.8c-0.2-0.5-0.4-0.9-0.7-1.3c-0.3-0.5-0.6-0.9-0.9-1.2
			c-0.1-0.2-0.3-0.3-0.5-0.5l0,0c-0.2-0.1-0.3-0.3-0.5-0.4s-0.3-0.2-0.5-0.3l0,0c-0.2-0.1-0.4-0.2-0.5-0.3c-0.2-0.1-0.4-0.2-0.5-0.2
			c-0.2-0.1-0.4-0.1-0.6-0.2c-0.2-0.1-0.4-0.1-0.5-0.2l0,0v-0.1c0.4,0.1,0.8,0.3,1.1,0.4c0.1,0.1,0.3,0.1,0.4,0.2
			c0.5,0.3,0.9,0.5,1,0.6c0,0,0.1,0,0.1,0.1l0,0l4.9-22.8l5.8-3c0,0-6.2-5.7-12.6-8.9c4.5-5.1,4.5-9.7,4.5-9.8c0,0-13.8-0.6-23.2-11
			s-36.7-21-57.3-6.7s-14.1,35.3-1.8,38.8C118.8,97.1,119,97.2,119.2,97.2z"/>
	</g>
</g>
</svg>
