<svg xmlns="http://www.w3.org/2000/svg" xmlns:xlink="http://www.w3.org/1999/xlink" viewBox="0 0 720 720"><defs><style>.cls-1{isolation:isolate;}.cls-2{opacity:0.3;fill:url(#Degradado_sin_nombre_8);}.cls-3{fill:url(#linear-gradient);}.cls-4{opacity:0.8;mix-blend-mode:soft-light;}.cls-5{fill:#fff;}.cls-6{fill:url(#linear-gradient-2);}.cls-7{fill:url(#linear-gradient-3);}.cls-8{fill:url(#linear-gradient-4);}.cls-9{fill:url(#linear-gradient-5);}.cls-10{fill:url(#linear-gradient-6);}.cls-11{fill:url(#linear-gradient-7);}.cls-12{fill:url(#linear-gradient-8);}.cls-13,.cls-44{opacity:0.2;}.cls-13,.cls-25,.cls-26,.cls-29,.cls-36,.cls-42,.cls-44{mix-blend-mode:multiply;}.cls-13{fill:url(#linear-gradient-9);}.cls-14{fill:url(#linear-gradient-10);}.cls-15{fill:url(#Degradado_sin_nombre_13);}.cls-16{opacity:0.7;}.cls-17{fill:#f4f7fa;}.cls-18{fill:url(#linear-gradient-11);}.cls-19{fill:url(#linear-gradient-12);}.cls-20{fill:url(#linear-gradient-13);}.cls-21{fill:url(#linear-gradient-14);}.cls-22{fill:url(#linear-gradient-15);}.cls-23{fill:#fec045;}.cls-24{fill:url(#linear-gradient-16);}.cls-25{opacity:0.15;fill:url(#linear-gradient-17);}.cls-26{opacity:0.42;}.cls-27{fill:url(#linear-gradient-18);}.cls-28{fill:url(#linear-gradient-19);}.cls-29{opacity:0.26;fill:url(#linear-gradient-20);}.cls-30{opacity:0.53;}.cls-31{fill:url(#linear-gradient-21);}.cls-32{fill:url(#linear-gradient-22);}.cls-33{fill:url(#linear-gradient-23);}.cls-34{fill:url(#linear-gradient-24);}.cls-35{fill:url(#linear-gradient-25);}.cls-36,.cls-42{opacity:0.3;}.cls-36{fill:url(#linear-gradient-26);}.cls-37{fill:url(#linear-gradient-27);}.cls-38{fill:url(#linear-gradient-28);}.cls-39{fill:url(#linear-gradient-29);}.cls-40{fill:url(#linear-gradient-30);}.cls-41{fill:url(#linear-gradient-31);}.cls-42{fill:url(#linear-gradient-32);}.cls-43{fill:url(#Degradado_sin_nombre_8-2);}.cls-44{fill:url(#linear-gradient-33);}.cls-45{fill:url(#linear-gradient-34);}.cls-46{fill:url(#linear-gradient-35);}</style><linearGradient id="Degradado_sin_nombre_8" x1="66.22" y1="360" x2="653.78" y2="360" gradientUnits="userSpaceOnUse"><stop offset="0" stop-color="#6e376e"/><stop offset="1" stop-color="#ca4b7c"/></linearGradient><linearGradient id="linear-gradient" x1="-2912.05" y1="993.1" x2="-3017.25" y2="1807.54" gradientTransform="matrix(-0.86, 0.5, 0.5, 0.86, -2956.66, 840.98)" gradientUnits="userSpaceOnUse"><stop offset="0" stop-color="#ff9085"/><stop offset="1" stop-color="#fb6fbb"/></linearGradient><linearGradient id="linear-gradient-2" x1="2195.56" y1="279.5" x2="2127.65" y2="805.25" gradientTransform="matrix(-0.33, 0.94, 0.94, 0.33, 543.7, -1738.66)" gradientUnits="userSpaceOnUse"><stop offset="0" stop-color="#aa80f9"/><stop offset="1" stop-color="#6165d7"/></linearGradient><linearGradient id="linear-gradient-3" x1="-3850.89" y1="-2029.06" x2="-3706.04" y2="-1548.02" gradientTransform="translate(4267.96 -1473.93) rotate(-50.36)" gradientUnits="userSpaceOnUse"><stop offset="0" stop-color="#ffc444"/><stop offset="1" stop-color="#f36f56"/></linearGradient><linearGradient id="linear-gradient-4" x1="-3980.22" y1="-2004.73" x2="-3807.06" y2="-1429.65" xlink:href="#linear-gradient-3"/><linearGradient id="linear-gradient-5" x1="-4032.35" y1="-2029.94" x2="-3850.09" y2="-1424.63" xlink:href="#linear-gradient-3"/><linearGradient id="linear-gradient-6" x1="-3699.91" y1="-2129.87" x2="-3518.54" y2="-1527.5" xlink:href="#linear-gradient-3"/><linearGradient id="linear-gradient-7" x1="-3745.33" y1="-2133.2" x2="-3571.24" y2="-1555.02" xlink:href="#linear-gradient-3"/><linearGradient id="linear-gradient-8" x1="-3805.43" y1="-1878.32" x2="-3776.79" y2="-1783.19" gradientTransform="translate(4267.96 -1473.93) rotate(-50.36)" xlink:href="#linear-gradient-2"/><linearGradient id="linear-gradient-9" x1="-3965.61" y1="-1820.41" x2="-3616.61" y2="-1820.41" gradientTransform="translate(4267.96 -1473.93) rotate(-50.36)" xlink:href="#linear-gradient-2"/><linearGradient id="linear-gradient-10" x1="-7080.87" y1="-2143.23" x2="-7401.83" y2="-2172.61" gradientTransform="matrix(0.37, -0.92, 0.96, 0.27, 5166.33, -5789.23)" gradientUnits="userSpaceOnUse"><stop offset="0" stop-color="#311944"/><stop offset="1" stop-color="#893976"/></linearGradient><linearGradient id="Degradado_sin_nombre_13" x1="-7358.61" y1="-2215.75" x2="-6904.63" y2="-2198.87" gradientTransform="matrix(0.37, -0.93, 0.96, 0.27, 5156.52, -5793.86)" gradientUnits="userSpaceOnUse"><stop offset="0" stop-color="#fe7087"/><stop offset="1" stop-color="#fe9d82"/></linearGradient><linearGradient id="linear-gradient-11" x1="-7382.9" y1="-2270.98" x2="-7241.75" y2="-2190.97" gradientTransform="matrix(0.37, -0.93, 0.96, 0.27, 5156.52, -5793.86)" gradientUnits="userSpaceOnUse"><stop offset="0" stop-color="#f57e53"/><stop offset="0" stop-color="#f68252"/><stop offset="0.04" stop-color="#f99a4d"/><stop offset="0.08" stop-color="#fcad49"/><stop offset="0.13" stop-color="#feba46"/><stop offset="0.2" stop-color="#ffc244"/><stop offset="0.32" stop-color="#ffc444"/><stop offset="0.45" stop-color="#fdb946"/><stop offset="0.69" stop-color="#f99c4c"/><stop offset="1" stop-color="#f36f56"/></linearGradient><linearGradient id="linear-gradient-12" x1="-7347.84" y1="-2181.88" x2="-7316.71" y2="-2181.88" gradientTransform="matrix(0.37, -0.92, 0.96, 0.27, 5166.33, -5789.23)" xlink:href="#linear-gradient"/><linearGradient id="linear-gradient-13" x1="-7332.27" y1="-2241.54" x2="-7304.07" y2="-2241.54" gradientTransform="matrix(0.37, -0.93, 0.96, 0.27, 5156.52, -5793.86)" xlink:href="#linear-gradient"/><linearGradient id="linear-gradient-14" x1="-7333.04" y1="-2234.78" x2="-7304.82" y2="-2234.78" gradientTransform="matrix(0.37, -0.93, 0.96, 0.27, 5156.52, -5793.86)" xlink:href="#linear-gradient"/><linearGradient id="linear-gradient-15" x1="-7333.81" y1="-2228" x2="-7305.58" y2="-2228" gradientTransform="matrix(0.37, -0.93, 0.96, 0.27, 5156.52, -5793.86)" xlink:href="#linear-gradient"/><linearGradient id="linear-gradient-16" x1="-7341.15" y1="-2181.87" x2="-7323.35" y2="-2181.87" gradientTransform="matrix(0.37, -0.92, 0.96, 0.27, 5166.33, -5789.23)" xlink:href="#linear-gradient"/><linearGradient id="linear-gradient-17" x1="-7361.22" y1="-2158.37" x2="-6921.1" y2="-2141.99" gradientTransform="matrix(0.37, -0.93, 0.96, 0.27, 5156.52, -5793.86)" gradientUnits="userSpaceOnUse"><stop offset="0" stop-color="#fb6fbb"/><stop offset="1" stop-color="#ff9085"/></linearGradient><linearGradient id="linear-gradient-18" x1="-7359.09" y1="-2096.5" x2="-7296.69" y2="-2096.5" gradientTransform="matrix(0.37, -0.92, 0.96, 0.27, 5166.33, -5789.23)" xlink:href="#linear-gradient-17"/><linearGradient id="linear-gradient-19" x1="-7267.89" y1="-2095.58" x2="-7186.63" y2="-2095.58" gradientTransform="matrix(0.37, -0.92, 0.96, 0.27, 5166.33, -5789.23)" xlink:href="#linear-gradient-17"/><linearGradient id="linear-gradient-20" x1="-6943.34" y1="-2944.95" x2="-6899.95" y2="-2944.95" gradientTransform="matrix(0.26, -0.95, 1, 0.16, 5101.1, -5875.44)" xlink:href="#linear-gradient"/><linearGradient id="linear-gradient-21" x1="279.43" y1="341.42" x2="188.38" y2="370.64" gradientUnits="userSpaceOnUse"><stop offset="0" stop-color="#fcb148"/><stop offset="0.05" stop-color="#fdba46"/><stop offset="0.14" stop-color="#ffc244"/><stop offset="0.32" stop-color="#ffc444"/><stop offset="0.48" stop-color="#fdb946"/><stop offset="0.78" stop-color="#f99c4d"/><stop offset="0.87" stop-color="#f8924f"/><stop offset="1" stop-color="#f8924f"/></linearGradient><linearGradient id="linear-gradient-22" x1="353.09" y1="250.79" x2="271.8" y2="430.12" gradientUnits="userSpaceOnUse"><stop offset="0" stop-color="#ffdb44"/><stop offset="1" stop-color="#feef06"/></linearGradient><linearGradient id="linear-gradient-23" x1="338.13" y1="440.14" x2="322.45" y2="354.46" xlink:href="#linear-gradient-21"/><linearGradient id="linear-gradient-24" x1="304.88" y1="301.46" x2="369.52" y2="438.67" xlink:href="#linear-gradient-21"/><linearGradient id="linear-gradient-25" x1="302.3" y1="271.93" x2="334.81" y2="393.74" xlink:href="#linear-gradient-22"/><linearGradient id="linear-gradient-26" x1="285.86" y1="310.34" x2="350.37" y2="447.27" xlink:href="#linear-gradient-21"/><linearGradient id="linear-gradient-27" x1="273.4" y1="171.97" x2="212.07" y2="191.65" xlink:href="#linear-gradient-21"/><linearGradient id="linear-gradient-28" x1="323.01" y1="110.92" x2="268.26" y2="231.71" xlink:href="#linear-gradient-22"/><linearGradient id="linear-gradient-29" x1="312.94" y1="238.46" x2="302.37" y2="180.75" xlink:href="#linear-gradient-21"/><linearGradient id="linear-gradient-30" x1="290.54" y1="145.05" x2="334.08" y2="237.46" xlink:href="#linear-gradient-21"/><linearGradient id="linear-gradient-31" x1="288.81" y1="125.16" x2="310.7" y2="207.2" xlink:href="#linear-gradient-22"/><linearGradient id="linear-gradient-32" x1="277.73" y1="151.03" x2="321.18" y2="243.26" xlink:href="#linear-gradient-21"/><linearGradient id="Degradado_sin_nombre_8-2" x1="416.78" y1="113.47" x2="336.89" y2="817.58" xlink:href="#Degradado_sin_nombre_8"/><linearGradient id="linear-gradient-33" x1="1207.37" y1="172.76" x2="71.32" y2="601.46" gradientUnits="userSpaceOnUse"><stop offset="0" stop-color="#ab316d"/><stop offset="1" stop-color="#792d3d"/></linearGradient><linearGradient id="linear-gradient-34" x1="766.73" y1="388.24" x2="408.75" y2="523.32" xlink:href="#linear-gradient-33"/><linearGradient id="linear-gradient-35" x1="542.16" y1="460.1" x2="452.35" y2="493.99" gradientTransform="matrix(1, 0, 0, 1, 0, 0)" xlink:href="#linear-gradient-3"/></defs><title>vector [Recovered]</title><g class="cls-1"><g id="Layer_1" data-name="Layer 1"><path class="cls-2" d="M311.45,636.3C165.69,614.22,47.23,476.41,68.75,323.24,87.11,192.6,201.64,90.94,339,81.34q14.92-1.05,30.16-.62a300.06,300.06,0,0,1,195,79.24c50.12,46.15,82.68,107.88,88.6,172.65C668.58,504.92,492.74,663.76,311.45,636.3Z"/><path class="cls-3" d="M275.83,508.07c-38,16-89.68,30.08-127.21,6.91-8.93-5.52-22.25-18.56-14.85-30.69,6.77-11.09,22.82-12.86,34.2-10.16,8.37,2,19.22,11,27.38,11.05,12,.13,8.34-17.07,4.69-22.91-8.15-13.07-27.69-9-40.25-5.58-20.85,5.7-44.27,13.81-55-7.21s2.06-44.75,22.5-44.72c16.85,0,24.18,16.72,38.23,21.13,12.49,3.91,7.27-11.19,2.9-17.53-9.49-13.79-28.24-16.86-43.19-21.1-16.91-4.8-41.35-20-38.5-41,1.64-12.08,16.95-23.59,27.49-27.83,51.58-20.78,55.8,59.13,68.44,61s13.84-14.94,3.2-33.22-15.68-33.38,6.8-38.62S246.56,348,235.43,379s23.67,37.59,21.88,21c-1.3-11.95-12-39-1.42-48.8,17.71-16.36,41.53,25.35,41.3,38.41-.34,18.32-17.18,32-20.75,49.75-1,5.14-2.95,17.5,2.58,20.93,7.7,4.79,13.67-8.59,15.58-14,4.29-12.14,1.8-43.48,23.21-34.14C344.24,423.71,336.88,467.85,275.83,508.07Z"/><g class="cls-4"><path class="cls-5" d="M269,508a2.09,2.09,0,0,0,.49-2.67c-.41-.73-41.58-73.86-123.25-141.61a1.82,1.82,0,0,0-2.53.16,1.72,1.72,0,0,0,.21,2.45C225.1,433.7,266,506.37,266.42,507.1a2,2,0,0,0,2.56.95Z"/></g><path class="cls-6" d="M244.26,518.43c-3.13-8.11,9.84-18.48,14.93-22.88,2.95-2.56,7.3-5.95,7-10.36-.31-4.65-4.65-5.85-8.51-4.46-6.91,2.49-11.33,10.37-16.09,15.55-5.11,5.57-11.05,10.24-18.79,11.16-6.18.73-14.18-1.42-18.35-6.13-11.57-13.06,3.74-20.82,14.6-24.35,5.27-1.71,14.92-6.3,11.9-13.4-3.21-7.56-14.24-5.9-19.89-2.9-7.4,3.93-13.58,9.65-20.46,14.34-6.19,4.23-14.26,8-20.39,1.58-4.72-4.95-5.33-13.44-2.63-19.57,6.23-14.18,28.29-9,39.82-15.73,4.07-2.38,9.07-9.29,7.65-14.33s-9-4.77-13.12-4.55c-12.22.65-59.09,19.62-54.44-8.07,1.17-7,6.41-15.31,12.39-19,11.3-7,28.73-6.69,41.47-5.1a140.28,140.28,0,0,1,57.64,21c37.48,24.31,42.44,52.33,42.44,52.33-.21,11.29-3,24.52-8.89,34.24-6.94,11.42-21.24,23-34.77,25.09C253.42,523.52,246.2,523.46,244.26,518.43Z"/><path class="cls-7" d="M482.51,86.59,620,200.45C501.76,253.6,515.51,416.06,397.32,469.21L259.87,355.35C378.07,302.2,364.31,139.74,482.51,86.59Z"/><path class="cls-5" d="M596.78,198.51C496.52,255,500.29,397.7,400,454.2L283,357.29C383.31,300.79,379.53,158.1,479.8,101.6Z"/><path class="cls-8" d="M303.83,340.63c.52.43,1,.83,1.44,1.28l.12.11c5.33,5.14,7.83,11.62,7.22,17.83-.54,5.43-3.48,10.61-9.05,14.44a26.52,26.52,0,0,1-2.61,1.57,37.19,37.19,0,0,1-11.72,3.81l-29.36-24.32A158,158,0,0,0,293.41,335,30.26,30.26,0,0,1,303.83,340.63Z"/><path class="cls-9" d="M423.55,439.8a27.37,27.37,0,0,1,7.15,9.14,157.33,157.33,0,0,1-33.38,20.27l-30-24.88a38.46,38.46,0,0,1,8.75-6.27q1.38-.75,2.82-1.41c14.26-6.54,31.76-6.54,43.42,2.15l.14.1C422.79,439.18,423.19,439.5,423.55,439.8Z"/><path class="cls-10" d="M482.51,86.59l29.35,24.32a38.93,38.93,0,0,1-8.74,6.27c-.93.5-1.87,1-2.82,1.4-14.13,6.48-31.36,6.58-43-1.84-.54-.39-1-.73-1.5-1.16A23.83,23.83,0,0,1,449,107,157.74,157.74,0,0,1,482.51,86.59Z"/><path class="cls-11" d="M589.92,175.57l30,24.88a157.51,157.51,0,0,0-33.37,20.27,34.86,34.86,0,0,1-11.1-6c-.36-.3-.74-.63-1.08-.94l-.12-.11c-5.2-4.8-7.87-10.86-7.77-16.79s3-11.76,9.11-15.93a29.77,29.77,0,0,1,2.59-1.59A37.32,37.32,0,0,1,589.92,175.57Z"/><path class="cls-12" d="M463.87,230.46c21.94,18.17,28.42,53.67,15.78,80.36s-41.9,32.58-64,14.24c-21.94-18.17-28.42-53.67-15.78-80.36S441.73,212.12,463.87,230.46Z"/><path class="cls-5" d="M447.79,262.31c-3.86.91-7.86,3.53-12.47,8.91l-9.76-8.09.38-.67a32.48,32.48,0,0,1,4.25-5.78,27.43,27.43,0,0,1,2.79-2.62,2.68,2.68,0,0,0,0-3.85l-4-4.05a2,2,0,0,0-2.84-.07c-1.32,1.33-2.62,2.82-3.81,4.28a58.75,58.75,0,0,0-4.52,6.35l-3.41-2.82a1.89,1.89,0,0,0-3,.41,2.69,2.69,0,0,0,.65,3.42l3.48,2.88c-2.78,5.75-3.95,11.12-3.42,16a17.79,17.79,0,0,0,6.6,12.15q5.61,4.63,11.38,3.26T442,283.24l10.84,9a43.62,43.62,0,0,1-4.8,6.8,40.17,40.17,0,0,1-3.67,3.71,2.93,2.93,0,0,0,0,4.09l5.21,5.14a1.92,1.92,0,0,0,2.87,0,50.4,50.4,0,0,0,3.72-4.58,68,68,0,0,0,4.57-7.38l.52-1,3.71,3.07a1.76,1.76,0,0,0,2.87-.47l0,0a2.9,2.9,0,0,0-.75-3.47L463.35,295a35.32,35.32,0,0,0,2.93-12.17A25.37,25.37,0,0,0,466,278a19.5,19.5,0,0,0-7-12.55C455.39,262.43,451.64,261.41,447.79,262.31Zm-2.88,17.43a9.76,9.76,0,0,1,4.45-3,4.68,4.68,0,0,1,4,1.21,7,7,0,0,1,2.56,4.41,9.3,9.3,0,0,1-1.06,5.6Zm-16.48-2.32a4,4,0,0,1-3.59-1,6.08,6.08,0,0,1-2.19-4,11.11,11.11,0,0,1,.82-5.32l9,7.43A8.19,8.19,0,0,1,428.43,277.42Z"/><path class="cls-13" d="M619.51,200.08l.44.37C501.76,253.6,515.51,416.06,397.32,469.21L262.78,357.76a170.08,170.08,0,0,1,21.16-1,161.4,161.4,0,0,1,28.67,3.07,193.82,193.82,0,0,1,38.13,11.94c69.08,29.31,88.93,4.63,100.9-37.06,3.29-11.05,6.13-23.21,9.57-35.58,1.52-5.43,3.21-10.92,5.09-16.36a201.65,201.65,0,0,1,13.54-30.92c17.59-33.38,48.47-56,86.67-55a107.94,107.94,0,0,1,21.29,2.47,54.18,54.18,0,0,0,5.87.93C601.11,201.11,609.75,200.8,619.51,200.08Z"/><path class="cls-14" d="M504.27,224.38c4.1,1.62,6.23,6,4.72,9.65L414,467.52c-1.62,4-7.31,6.82-11.54,5.06L247.8,408.26c-4.14-1.72-5.86-7.72-4.15-11.6L339.4,166.84c1.58-3.61,6.15-5.25,10.16-3.66Z"/><path class="cls-15" d="M506.8,219.75c4.13,1.64,6.27,6,4.74,9.74L414.83,465.94A8.1,8.1,0,0,1,404.11,470L248.46,405.31A7.82,7.82,0,0,1,244,395.05L340.79,161.9c1.58-3.65,6.19-5.31,10.23-3.71Z"/><g class="cls-16"><path class="cls-17" d="M390,381.54l-16.39,38.37a3.74,3.74,0,0,1-4.53,2l-9.66-3.24a3.07,3.07,0,0,1-1.87-4.19L374,376.16a3.71,3.71,0,0,1,4.5-2l9.58,3.23A3.05,3.05,0,0,1,390,381.54Z"/><path class="cls-17" d="M411.53,331l-16.09,37.67a3.67,3.67,0,0,1-4.47,2l-9.57-3.23a3,3,0,0,1-1.86-4.12l16.2-37.66a3.64,3.64,0,0,1,4.44-1.94l9.49,3.21A3,3,0,0,1,411.53,331Z"/><path class="cls-17" d="M432.7,281.46l-15.8,37a3.62,3.62,0,0,1-4.42,1.94L403,317.18a3,3,0,0,1-1.86-4.07l15.91-37a3.6,3.6,0,0,1,4.39-1.9l9.4,3.2A3,3,0,0,1,432.7,281.46Z"/><path class="cls-17" d="M453.49,232.77,438,269.1a3.56,3.56,0,0,1-4.37,1.88l-9.39-3.19a3,3,0,0,1-1.84-4L438,227.48a3.54,3.54,0,0,1,4.34-1.85l9.3,3.18A3,3,0,0,1,453.49,232.77Z"/></g><path class="cls-18" d="M343.69,384.15,336,402.35a6.87,6.87,0,0,1-9,3.36l-19.3-8a6.65,6.65,0,0,1-3.84-8.65l7.8-18.13a6.86,6.86,0,0,1,9-3.32l19.23,7.9A6.65,6.65,0,0,1,343.69,384.15Z"/><path class="cls-19" d="M341.29,384.67l-6.64,15.63a6.33,6.33,0,0,1-8.3,3.1l-16.58-6.85a6.14,6.14,0,0,1-3.55-8l6.7-15.57a6.31,6.31,0,0,1,8.27-3.07l16.52,6.79A6.13,6.13,0,0,1,341.29,384.67ZM307,388.9a5.3,5.3,0,0,0,3.06,6.88l16.58,6.84a5.45,5.45,0,0,0,7.15-2.66l6.64-15.63a5.27,5.27,0,0,0-3.08-6.85l-16.53-6.8a5.44,5.44,0,0,0-7.12,2.65Z"/><path class="cls-17" d="M312,397l11.08-25.87Z"/><polygon class="cls-20" points="323.48 371.31 312.4 397.18 311.58 396.84 322.66 370.97 323.48 371.31"/><path class="cls-17" d="M318.22,399.58l11.06-25.89Z"/><polygon class="cls-21" points="329.69 373.86 318.63 399.75 317.81 399.41 328.87 373.52 329.69 373.86"/><path class="cls-17" d="M324.45,402.16l11.05-25.91Z"/><polygon class="cls-22" points="335.91 376.42 324.87 402.33 324.04 401.99 335.09 376.08 335.91 376.42"/><path class="cls-23" d="M336.12,387.45,333,394.7a3.81,3.81,0,0,1-5,1.86l-14.46-6a3.7,3.7,0,0,1-2.15-4.81l3.1-7.23a3.83,3.83,0,0,1,5-1.86L334,382.64A3.71,3.71,0,0,1,336.12,387.45Z"/><path class="cls-24" d="M336.53,387.62l-3.08,7.25a4.27,4.27,0,0,1-5.59,2.08l-14.47-6a4.13,4.13,0,0,1-2.39-5.37l3.1-7.23a4.27,4.27,0,0,1,5.58-2.07l14.44,5.95A4.13,4.13,0,0,1,336.53,387.62ZM311.82,386a3.27,3.27,0,0,0,1.9,4.26l14.47,6a3.38,3.38,0,0,0,4.43-1.65l3.09-7.25a3.29,3.29,0,0,0-1.92-4.26l-14.44-5.94a3.39,3.39,0,0,0-4.43,1.64Z"/><path class="cls-25" d="M407.15,371.42c-5.64,20.52-10.63,33-21.34,45-14.69,16.46-33,24-44.45,27.49L404.11,470a8.1,8.1,0,0,0,10.72-4.05l96.71-236.45c1.53-3.72-.61-8.1-4.74-9.74l-24.94-9.87c-38,25.92-52.39,52.36-58.37,72.18C416.27,306,420.55,322.68,407.15,371.42Z"/><g class="cls-26"><path class="cls-27" d="M424.73,382.18l-21.84,52.93a2.06,2.06,0,0,1-2.71,1l-8.88-3.68a2,2,0,0,1-1.2-2.63L412,377a2,2,0,0,1,2.69-1l8.82,3.6A2,2,0,0,1,424.73,382.18Z"/><path class="cls-28" d="M466.94,280.66l-29.07,70.41a2.06,2.06,0,0,1-2.71,1l-8.88-3.61a2,2,0,0,1-1.2-2.62l29.16-70.3a2.06,2.06,0,0,1,2.69-1l8.8,3.53A2,2,0,0,1,466.94,280.66Z"/></g><path class="cls-29" d="M376.73,195.75c10.71,4.26,15.64,16.65,11,27.56S371,239.39,360.51,235.17,345,218.83,349.38,208,366,191.5,376.73,195.75Z"/><g class="cls-30"><path class="cls-17" d="M336.77,360.68a3.41,3.41,0,0,1-1.84,4.41,3.32,3.32,0,0,1-4.39-1.8,3.41,3.41,0,0,1,1.87-4.39A3.32,3.32,0,0,1,336.77,360.68Z"/><path class="cls-17" d="M353,355.93a1.25,1.25,0,0,1-2.32,0A19.21,19.21,0,0,0,326,345.84a1.26,1.26,0,0,1-1.64-.67,1.22,1.22,0,0,1,.72-1.59A21.77,21.77,0,0,1,353,355,1.28,1.28,0,0,1,353,355.93Z"/><path class="cls-17" d="M348.43,357.87a1.23,1.23,0,0,1-.68.68,1.27,1.27,0,0,1-1.66-.68,14.06,14.06,0,0,0-18.22-7.44,1.27,1.27,0,0,1-1.66-.68,1.25,1.25,0,0,1,.73-1.62,16.63,16.63,0,0,1,21.47,8.77A1.3,1.3,0,0,1,348.43,357.87Z"/><path class="cls-17" d="M343.77,359.83a1.24,1.24,0,0,1-.68.69,1.27,1.27,0,0,1-1.67-.68,9,9,0,0,0-11.67-4.77,1.26,1.26,0,1,1-.95-2.33,11.62,11.62,0,0,1,8.77,0,11.32,11.32,0,0,1,6.19,6.12A1.28,1.28,0,0,1,343.77,359.83Z"/></g><path class="cls-31" d="M384.25,338.12c0,42.24-33,75.47-75.25,74.17-43.93-1.35-80.88-39.29-80.88-84.7S265.07,249.23,309,253.8C351.22,258.2,384.25,295.88,384.25,338.12Z"/><path class="cls-32" d="M395.66,334.48c0,42.24-33,75.47-75.25,74.17-43.93-1.35-80.88-39.29-80.88-84.7s37-78.37,80.88-73.79C362.63,254.55,395.66,292.24,395.66,334.48Z"/><path class="cls-33" d="M392.34,334.25c0,40.38-31.6,72.1-71.93,70.79-41.89-1.36-77.07-37.57-77.07-80.83s35.18-74.73,77.07-70.44C360.74,257.9,392.34,293.87,392.34,334.25Z"/><path class="cls-34" d="M390,334.09c0,39.05-30.58,69.68-69.56,68.37-40.44-1.36-74.35-36.33-74.35-78.07s33.91-72.14,74.35-68C359.39,260.29,390,295.05,390,334.09Z"/><path class="cls-35" d="M320,269.63h0a4.26,4.26,0,0,1,3.76,4.17V281a106.9,106.9,0,0,1,12.46,2.16q4.59,1.08,9.14,2.58a4.2,4.2,0,0,1,2.86,4.31l-.88,9a3.38,3.38,0,0,1-4.83,2.8,51.24,51.24,0,0,0-6.13-2.28,55,55,0,0,0-11.56-2.16l-1.06-.09v20.59c10.82,3,18.76,7.1,23.9,12.22a25.85,25.85,0,0,1,7.66,19.08q0,12.38-8.47,19.83c-5.69,5-13.65,7.83-24,8.44v7.93a3.61,3.61,0,0,1-3.75,3.67h-.07a4,4,0,0,1-3.77-4v-7.83l-1.67-.08a108.27,108.27,0,0,1-13.88-1.48,90.92,90.92,0,0,1-9.59-2.2,4.15,4.15,0,0,1-3-4.27l1-11.59a3.67,3.67,0,0,1,5.13-3,74.52,74.52,0,0,0,21.92,5l.06-22.91c-10.38-2.57-18.16-6.37-23.27-11.42s-7.71-11.55-7.71-19.43q0-12.24,8.36-18.87t23.56-6.58V273.1A3.39,3.39,0,0,1,320,269.63Zm-3.76,27.48a12.75,12.75,0,0,0-7.51,2.65,7.72,7.72,0,0,0-2.69,6.18,8.29,8.29,0,0,0,2.49,6.14,17.58,17.58,0,0,0,7.71,3.93Zm6.65,41.48v21c3.49,0,6.17-.83,8-2.5a9,9,0,0,0,2.79-7.07,9.63,9.63,0,0,0-2.6-6.91Q328.54,340.36,322.9,338.59Z"/><path class="cls-36" d="M307.83,343.66c2.35-23.22,23.68-33,20.89-54.39C327,276.11,317,265,305.91,256.36c-33.75,3.54-59.85,31.48-59.85,68,0,41.74,33.91,76.71,74.35,78.07a70.24,70.24,0,0,0,11.49-.56C315.84,385.92,305.81,363.6,307.83,343.66Z"/><path class="cls-37" d="M344,169.74c0,28.45-22.25,50.83-50.68,50-29.59-.91-54.48-26.47-54.48-57s24.89-52.78,54.48-49.7C321.75,115.91,344,141.29,344,169.74Z"/><path class="cls-38" d="M351.68,167.29c0,28.45-22.24,50.83-50.68,50-29.59-.9-54.47-26.46-54.47-57s24.88-52.78,54.47-49.7C329.44,113.46,351.68,138.84,351.68,167.29Z"/><path class="cls-39" d="M349.45,167.14c0,27.19-21.29,48.55-48.45,47.67-28.21-.91-51.9-25.3-51.9-54.44S272.79,110,301,112.93C328.16,115.71,349.45,139.94,349.45,167.14Z"/><path class="cls-40" d="M347.85,167c0,26.3-20.59,46.93-46.85,46.05-27.23-.92-50.07-24.47-50.07-52.58s22.84-48.59,50.07-45.83C327.26,117.33,347.85,140.73,347.85,167Z"/><path class="cls-41" d="M300.73,123.61h0a2.87,2.87,0,0,1,2.53,2.81v4.85a70.13,70.13,0,0,1,8.39,1.45c2.07.49,4.12,1.06,6.16,1.73a2.85,2.85,0,0,1,1.93,2.91l-.6,6.07a2.27,2.27,0,0,1-3.25,1.89,34.62,34.62,0,0,0-4.13-1.54,37.33,37.33,0,0,0-7.78-1.45l-.72-.06v13.87c7.29,2,12.64,4.78,16.1,8.23a17.4,17.4,0,0,1,5.16,12.85q0,8.33-5.71,13.36t-16.13,5.68v5.34a2.43,2.43,0,0,1-2.53,2.47h0a2.69,2.69,0,0,1-2.54-2.68v-5.27l-1.13-.05a74,74,0,0,1-9.34-1,58.92,58.92,0,0,1-6.46-1.49,2.77,2.77,0,0,1-2-2.87l.7-7.81a2.47,2.47,0,0,1,3.45-2,51,51,0,0,0,5.68,1.87,50.21,50.21,0,0,0,9.08,1.52l.05-15.43q-10.5-2.59-15.68-7.69A17.64,17.64,0,0,1,276.7,148q0-8.23,5.63-12.71t15.87-4.43v-5A2.29,2.29,0,0,1,300.73,123.61Zm-2.53,18.51a8.6,8.6,0,0,0-5.06,1.79,5.18,5.18,0,0,0-1.81,4.16,5.59,5.59,0,0,0,1.68,4.14,11.92,11.92,0,0,0,5.19,2.64Zm4.48,27.94V184.2a7.78,7.78,0,0,0,5.41-1.68,6,6,0,0,0,1.88-4.76,6.52,6.52,0,0,0-1.75-4.66A12.77,12.77,0,0,0,302.68,170.06Z"/><path class="cls-42" d="M292.53,173.47c1.58-15.63,16-22.25,14.07-36.63-1.15-8.86-7.87-16.33-15.37-22.17-22.73,2.39-40.3,21.21-40.3,45.83,0,28.11,22.84,51.66,50.07,52.58a47,47,0,0,0,7.74-.38C297.93,201.94,291.17,186.9,292.53,173.47Z"/><path class="cls-43" d="M508,382.78l17,198a17,17,0,0,1-4.37,13.34,16.76,16.76,0,0,1-10.89,5.33l-249.79,21c-10.58.89-19.65-6.63-20.4-16.72L223.8,393.11c-.74-9.92,7.12-18.55,17.65-18.89l248.23-8.07C499.1,365.84,507.18,373.45,508,382.78Z"/><path class="cls-44" d="M520.84,594.1a17,17,0,0,1-11,5.32L260,620.46c-10.59.89-19.74-6.63-20.49-16.72L223.8,393.11c-.74-9.92,7.12-18.55,17.65-18.89l2.89-.09c1,5.43,2.45,11.54,3.79,17.39.19.82.38,1.7.56,2.48,1.56,6.76,2.9,12.32,3.13,13,7.79,23.32,18.81,50.12,42.07,63.16,35.55,19.94,80.56,16.36,118,27.27,24.62,7.19,49.89,16.91,69.48,33.18,14.31,11.88,26.39,26.53,33.45,43.68A118.32,118.32,0,0,1,520.84,594.1Z"/><g class="cls-16"><path class="cls-5" d="M489.7,590.81h0l-8.61.53a1.85,1.85,0,0,1-1.92-1.71,1.65,1.65,0,0,1,1.61-1.78l8.59-.57h0a14.17,14.17,0,0,0,4.28-1,1.73,1.73,0,0,1,2.24,1,1.89,1.89,0,0,1-1.11,2.36A16.26,16.26,0,0,1,489.7,590.81Zm-22.09,1.46-13.55,1.11a1.78,1.78,0,1,1-.29-3.55l13.54-1.1a1.78,1.78,0,1,1,.3,3.54Zm-27.17,2.22-13.71,1.13a1.8,1.8,0,1,1-.29-3.58l13.71-1.11a1.79,1.79,0,1,1,.29,3.56ZM413,596.74l-13.87,1.14a1.81,1.81,0,1,1-.29-3.6l13.87-1.12a1.8,1.8,0,1,1,.29,3.58ZM385.12,599l-14,1.15a1.82,1.82,0,1,1-.29-3.62l14-1.14a1.81,1.81,0,1,1,.28,3.61ZM357,601.33l-14.2,1.16a1.83,1.83,0,1,1-.29-3.64l14.21-1.15a1.84,1.84,0,0,1,2,1.66A1.86,1.86,0,0,1,357,601.33Zm-28.5,2.33-14.38,1.18a1.84,1.84,0,1,1-.28-3.67L328.18,600a1.85,1.85,0,0,1,2,1.67A1.87,1.87,0,0,1,328.46,603.66ZM299.61,606l-14.56,1.19a1.85,1.85,0,1,1-.28-3.68l14.56-1.18a1.87,1.87,0,0,1,2.05,1.68A1.89,1.89,0,0,1,299.61,606Zm-29.21,2H270a24.33,24.33,0,0,1-14.11-6.56,1.79,1.79,0,0,1,0-2.63,2,2,0,0,1,2.76,0,20.34,20.34,0,0,0,11.81,5.5,1.85,1.85,0,0,1,1.68,2.06A1.94,1.94,0,0,1,270.4,608Zm234.35-26.44a1.77,1.77,0,0,1-1.62-2.73,18,18,0,0,0,2.93-11.55,1.74,1.74,0,0,1,1.59-1.89,1.77,1.77,0,0,1,1.9,1.62,21.46,21.46,0,0,1-3.48,13.77A1.75,1.75,0,0,1,504.75,581.54Zm-253.51,7.91a1.92,1.92,0,0,1-2.12-1.6c0-.27-.09-.51-.11-.78l-1-13.29a1.78,1.78,0,0,1,1.65-2,1.75,1.75,0,0,1,1.92,1.69l1,13.27c0,.24.24.44.27.67a1.8,1.8,0,0,1-1.64,2Zm256.34-27.26c-1,.07-1.49-.65-1.57-1.62l-1.13-13.27c-.08-1,.31-1.81,1.27-1.88s1.49.65,1.57,1.62l1.13,13.26C508.93,561.27,508.55,562.11,507.58,562.19Zm-258.69-.73a1.76,1.76,0,0,1-1.92-1.71l-1.05-14a1.79,1.79,0,1,1,3.56-.28l1.06,14A1.79,1.79,0,0,1,248.89,561.46Zm256.43-25.8c-1,.07-1.48-.66-1.56-1.62l-1.13-13.25c-.08-1,.31-1.8,1.27-1.86s1.49.66,1.57,1.63l1.12,13.23C506.68,534.75,506.29,535.59,505.32,535.66Zm-258.53-2.21a1.76,1.76,0,0,1-1.92-1.71l-1.05-14a1.75,1.75,0,0,1,1.65-2,1.78,1.78,0,0,1,1.92,1.71l1,14A1.75,1.75,0,0,1,246.79,533.45Zm256.28-24.26c-1,.06-1.48-.67-1.56-1.63l-1.13-13.22c-.08-1,.31-1.79,1.27-1.85s1.49.68,1.57,1.64l1.12,13.2C504.42,508.3,504,509.13,503.07,509.19ZM244.7,505.51a1.78,1.78,0,0,1-1.93-1.72l-1-14a1.73,1.73,0,0,1,1.64-1.95,1.78,1.78,0,0,1,1.92,1.72l1.05,13.94A1.74,1.74,0,0,1,244.7,505.51Zm256.13-22.74c-1,.06-1.49-.68-1.57-1.64l-1.12-13.19c-.08-1,.31-1.78,1.27-1.83s1.48.68,1.56,1.64l1.13,13.18C502.18,481.89,501.79,482.72,500.83,482.77ZM242.6,477.63a1.79,1.79,0,0,1-1.92-1.73l-1-13.92a1.73,1.73,0,0,1,1.65-1.94,1.79,1.79,0,0,1,1.91,1.74l1.05,13.91A1.73,1.73,0,0,1,242.6,477.63Zm256-21.22c-1,0-1.48-.69-1.56-1.65L495.9,441.6c-.08-1,.31-1.77,1.27-1.82s1.48.7,1.56,1.65l1.12,13.16C499.94,455.55,499.55,456.36,498.58,456.41Zm-258.06-6.6a1.8,1.8,0,0,1-1.92-1.74l-1-13.89a1.7,1.7,0,0,1,1.64-1.92,1.81,1.81,0,0,1,1.92,1.74l1,13.88A1.7,1.7,0,0,1,240.52,449.81ZM496.35,430.1c-1,0-1.49-.7-1.57-1.66l-1.11-13.13c-.09-1,.3-1.76,1.27-1.8s1.48.7,1.56,1.66l1.12,13.12C497.7,429.25,497.31,430.06,496.35,430.1Zm-257.91-8.05a1.81,1.81,0,0,1-1.92-1.75l-.78-10.43a21.11,21.11,0,0,1,.07-3.73,1.9,1.9,0,0,1,2.14-1.59,1.78,1.78,0,0,1,1.57,2,19.31,19.31,0,0,0-.23,3.13l.79,10.42A1.7,1.7,0,0,1,238.44,422.05Zm255.68-18.2c-1,0-1.49-.71-1.57-1.67l-.22-2.54a18.84,18.84,0,0,0-3.58-9.08,1.61,1.61,0,1,1,2.59-1.88,22.05,22.05,0,0,1,3.83,10.84l.21,2.53C495.46,403,495.08,403.81,494.12,403.85ZM243.93,396a2.06,2.06,0,0,1-1.48-.54,1.75,1.75,0,0,1-.07-2.58,23.73,23.73,0,0,1,13.92-6.34,2,2,0,0,1,2.19,1.61,1.77,1.77,0,0,1-1.63,2,19.91,19.91,0,0,0-11.66,5.33A2,2,0,0,1,243.93,396Zm235.49-12.58a1.77,1.77,0,0,1-.64-.09,18.79,18.79,0,0,0-6.65-1l-6,.22a1.87,1.87,0,0,1-1.91-1.68,1.65,1.65,0,0,1,1.62-1.79l6-.21a22.31,22.31,0,0,1,7.93,1.15,1.81,1.81,0,0,1,1.19,2.2A1.66,1.66,0,0,1,479.42,383.42Zm-26.65-.36-13.47.48a1.87,1.87,0,0,1-1.93-1.68,1.67,1.67,0,0,1,1.64-1.81l13.47-.47a1.86,1.86,0,0,1,1.92,1.68A1.66,1.66,0,0,1,452.77,383.06Zm-27,1-13.63.49a1.87,1.87,0,0,1-1.94-1.69,1.68,1.68,0,0,1,1.66-1.82l13.62-.48a1.88,1.88,0,0,1,1.94,1.69A1.68,1.68,0,0,1,425.75,384Zm-27.34,1-13.79.5a1.9,1.9,0,0,1-2-1.7,1.72,1.72,0,0,1,1.69-1.84l13.79-.48a1.88,1.88,0,0,1,1.95,1.7A1.68,1.68,0,0,1,398.41,385Zm-27.66,1-14,.5a1.92,1.92,0,0,1-2-1.71,1.73,1.73,0,0,1,1.71-1.85l13.95-.49a1.91,1.91,0,0,1,2,1.71A1.72,1.72,0,0,1,370.75,386Zm-28,1-14.12.51a1.93,1.93,0,0,1-2-1.72,1.75,1.75,0,0,1,1.73-1.86l14.12-.49a1.92,1.92,0,0,1,2,1.71A1.73,1.73,0,0,1,342.75,387Zm-28.33,1-14.3.52a2,2,0,0,1-2-1.74,1.75,1.75,0,0,1,1.75-1.86l14.3-.51a2,2,0,0,1,2,1.73A1.74,1.74,0,0,1,314.42,388Zm-28.68,1-14.47.52a2,2,0,0,1-2-1.74A1.78,1.78,0,0,1,271,386l14.47-.51a2,2,0,0,1,2,1.74A1.76,1.76,0,0,1,285.74,389.06Z"/></g><path class="cls-45" d="M518.05,437.3a5.39,5.39,0,0,0-4.94-.39l-50.79,21.74c-7.29,3.14-12.26,10.52-11.6,18.46l1.75,21.1c.7,8.44,7.53,15.5,15.9,17.35l52.56,11.5a5.47,5.47,0,0,0,4.73-1.17,5.36,5.36,0,0,0,1.85-4.45l-6.86-79.86A5.54,5.54,0,0,0,518.05,437.3Z"/><path class="cls-46" d="M484.49,485.26a10.34,10.34,0,0,1-9.76,11.22,11,11,0,0,1-11.6-10A10.34,10.34,0,0,1,473,475.3,11,11,0,0,1,484.49,485.26Z"/></g></g></svg>