<svg id="Layer_1" data-name="Layer 1" xmlns="http://www.w3.org/2000/svg" xmlns:xlink="http://www.w3.org/1999/xlink" viewBox="0 0 720 720"><defs><style>.cls-1{fill:none;}.cls-2{opacity:0.3;fill:url(#Degradado_sin_nombre_8);}.cls-3{fill:url(#Degradado_sin_nombre_13);}.cls-4{fill:url(#linear-gradient);}.cls-5{fill:url(#Degradado_sin_nombre_11);}.cls-6{fill:#bdd0fb;}.cls-7{fill:#6e376e;}.cls-8{fill:url(#Degradado_sin_nombre_8-2);}.cls-9{fill:url(#Degradado_sin_nombre_13-2);}.cls-10{fill:url(#Degradado_sin_nombre_8-3);}.cls-11{clip-path:url(#clip-path);}.cls-12{fill:url(#Degradado_sin_nombre_13-3);}.cls-13{fill:#91b3fa;}.cls-14{fill:#fff;opacity:0.69;}.cls-15{fill:#ca4b7c;}</style><linearGradient id="Degradado_sin_nombre_8" x1="96.7" y1="360" x2="626.55" y2="360" gradientUnits="userSpaceOnUse"><stop offset="0" stop-color="#6e376e"/><stop offset="1" stop-color="#ca4b7c"/></linearGradient><linearGradient id="Degradado_sin_nombre_13" x1="118.24" y1="271.28" x2="266.36" y2="271.28" gradientUnits="userSpaceOnUse"><stop offset="0" stop-color="#fe7087"/><stop offset="1" stop-color="#fe9d82"/></linearGradient><linearGradient id="linear-gradient" x1="334.19" y1="45.74" x2="143.96" y2="352.11" gradientUnits="userSpaceOnUse"><stop offset="0" stop-color="#dae3fe"/><stop offset="1" stop-color="#e9effd"/></linearGradient><linearGradient id="Degradado_sin_nombre_11" x1="81.91" y1="328.66" x2="211.32" y2="328.66" gradientUnits="userSpaceOnUse"><stop offset="0" stop-color="#ca4b7c"/><stop offset="1" stop-color="#fe7087"/></linearGradient><linearGradient id="Degradado_sin_nombre_8-2" x1="-139.01" y1="695.41" x2="365.56" y2="412.42" xlink:href="#Degradado_sin_nombre_8"/><linearGradient id="Degradado_sin_nombre_13-2" x1="972.66" y1="201.55" x2="746.38" y2="281.64" xlink:href="#Degradado_sin_nombre_13"/><linearGradient id="Degradado_sin_nombre_8-3" x1="526.4" y1="478.02" x2="521.67" y2="227.1" xlink:href="#Degradado_sin_nombre_8"/><clipPath id="clip-path"><path class="cls-1" d="M524.18,505.28c-2.85-2.9-9.06-14.08-14.38-43-5.14-27.94-8-64.17-8-102s2.83-74.09,8-102c5.32-28.91,11.53-40.09,14.38-43,2.85,2.89,9.05,14.07,14.37,43,5.15,27.93,45.73,64.17,45.73,102s-40.58,74.09-45.73,102C533.23,491.2,527,502.38,524.18,505.28Z"/></clipPath><linearGradient id="Degradado_sin_nombre_13-3" x1="471.64" y1="359.12" x2="564.58" y2="359.12" xlink:href="#Degradado_sin_nombre_13"/></defs><title>vector [Recovered]</title><path class="cls-2" d="M604.34,454.63C550.66,580.09,409,634,298,624.79c-30.31-2.51-91.3-7.56-138.92-52.59C67.59,485.72,81.68,305,169.22,198.52,180.49,184.82,258.53,93,380.13,94.22c89,.9,151.53,51.19,159.12,57.46a245.09,245.09,0,0,1,49.86,56.56C633.94,278.35,637.88,376.23,604.34,454.63Z"/><path class="cls-3" d="M235.18,416.18s1.5-62.86-27.46-79.69-84-27.34-86.07-117.61c-1.21-52.85-2.51-75.95-3.39-86a6,6,0,0,1,7-6.37c27.42,5.16,116.51,26.43,135.18,87.23C282.61,285.8,235.18,416.18,235.18,416.18Z"/><path class="cls-4" d="M146.5,151.59C176.6,178.44,211.41,226,230,273.47c2.38,7.83,9.34,24.48,12.37,54.07,2.7,24.67,1.36,50.75-1.92,68a2,2,0,0,1-2.35,1.6,2.06,2.06,0,0,1-1.61-2.31,275.92,275.92,0,0,0-6.38-99.32c-11-40.66-35.39-80.09-60.65-113.53l-2.6-3.29c-19.58-25.14-23.7-25.33-21.87-27.08A1.15,1.15,0,0,1,146.5,151.59Z"/><path class="cls-5" d="M207.18,337.12C204.35,318,201,293.76,185.3,280.46c-18.29-15.5-80.52-5.71-100.88-2A3.05,3.05,0,0,0,83,283.81c9.76,8.2,30.65,27.54,36.1,47,5,17.85,18.74,31.92,35.07,40.07,8.9,4.44,15.63,3.79,24.81,5.36,11.11,1.9,20.88,8.51,32.33,9.06C211.47,369.09,209.58,353.21,207.18,337.12Z"/><path class="cls-6" d="M113.06,289.32c26,1.09,53.86,12.94,68,35.17l1.34,2.12c3.08,5,20.57,40.33,30.28,69.64a.71.71,0,0,1-.44.89.73.73,0,0,1-.88-.42c-6.76-16.56-16.48-37.55-24.22-53.25-8.3-17.13-14.1-28.73-33-39.84A105.43,105.43,0,0,0,113,290.44a.56.56,0,0,1,.08-1.12Z"/><path class="cls-7" d="M130.87,420.17s51.62,136.15,67.93,164.47c18.93,32.88,74.23,11.93,71.48-15.58s-67.36-141.25-67.36-141.25Z"/><polygon class="cls-8" points="200.62 320.99 521.48 209.75 518.11 510.8 191.85 438 200.62 320.99"/><ellipse class="cls-9" cx="521.78" cy="361.15" rx="31.52" ry="154.71"/><path class="cls-10" d="M524.18,505.28c-2.85-2.9-9.06-14.08-14.38-43-5.14-27.94-8-64.17-8-102s2.83-74.09,8-102c5.32-28.91,11.53-40.09,14.38-43,2.85,2.89,9.05,14.07,14.37,43,5.15,27.93,8,64.17,8,102s-2.83,74.09-8,102C533.23,491.2,527,502.38,524.18,505.28Z"/><g class="cls-11"><path class="cls-12" d="M564.58,359.12c0,26.29-14.16,47.6-42.19,47.6s-50.75-21.31-50.75-47.6,22.72-47.6,50.75-47.6S564.58,332.83,564.58,359.12Z"/></g><path class="cls-7" d="M148.87,314.52a179.83,179.83,0,0,1,60.14,3c-7.71,40.27-6.54,82.25,2.37,125.72h-66a21.38,21.38,0,0,1-21.14-18c-3.29-20.83-7.31-55.85-3-84A31.67,31.67,0,0,1,148.87,314.52Z"/><path class="cls-13" d="M188.49,345.37H137.06a4.69,4.69,0,0,1-3.94-7.24,1.32,1.32,0,1,1,2.22,1.44,2,2,0,0,0,1.72,3.15h51.43a2,2,0,0,0,2-2V337a2,2,0,0,0-2-2H136.68a1.33,1.33,0,1,1,0-2.65h51.81a4.7,4.7,0,0,1,4.69,4.69v3.66A4.7,4.7,0,0,1,188.49,345.37Z"/><path class="cls-13" d="M183.9,368.15H132.47a4.69,4.69,0,0,1-3.93-7.24,1.32,1.32,0,0,1,2.22,1.44,2,2,0,0,0-.08,2.08,2,2,0,0,0,1.79,1.07H183.9a2,2,0,0,0,2-2V359.8a2,2,0,0,0-2-2.05H132.09a1.32,1.32,0,0,1,0-2.64H183.9a4.69,4.69,0,0,1,4.69,4.69v3.66A4.7,4.7,0,0,1,183.9,368.15Z"/><path class="cls-14" d="M247.24,312.85a1.3,1.3,0,0,1-1.25-.93,1.32,1.32,0,0,1,.85-1.66l243-77.33a1.32,1.32,0,0,1,.8,2.52l-243,77.33A1.18,1.18,0,0,1,247.24,312.85Z"/><path class="cls-14" d="M214.38,326.28a1.33,1.33,0,0,1-.5-2.55l12.51-5.11a1.32,1.32,0,0,1,1,2.45l-12.51,5.11A1.24,1.24,0,0,1,214.38,326.28Z"/><path class="cls-13" d="M188.49,394.82H137.06a4.69,4.69,0,0,1-3.94-7.24,1.32,1.32,0,1,1,2.22,1.44,2,2,0,0,0,1.72,3.15h51.43a2,2,0,0,0,2-2v-3.66a2,2,0,0,0-2-2H136.68a1.33,1.33,0,1,1,0-2.65h51.81a4.7,4.7,0,0,1,4.69,4.69v3.66A4.7,4.7,0,0,1,188.49,394.82Z"/><path class="cls-13" d="M193.3,424.43H141.87a4.69,4.69,0,0,1-3.93-7.24,1.32,1.32,0,0,1,2.22,1.44,2,2,0,0,0-.08,2.08,2,2,0,0,0,1.79,1.07H193.3a2,2,0,0,0,2-2v-3.66a2.05,2.05,0,0,0-2-2.05H141.49a1.32,1.32,0,0,1,0-2.64H193.3a4.69,4.69,0,0,1,4.69,4.69v3.66A4.7,4.7,0,0,1,193.3,424.43Z"/><path class="cls-13" d="M239.23,585.4a33.58,33.58,0,0,1-7.15-.77,33.12,33.12,0,0,1-23.36-18.92l-41.08-91.28a1.32,1.32,0,1,1,2.41-1.08l41.08,91.28A30.48,30.48,0,0,0,232.64,582a29.83,29.83,0,0,0,26.27-6.72c.39-.34.78-.68,1.17-1a1.32,1.32,0,1,1,1.78,2c-.4.37-.8.73-1.21,1.08A32.34,32.34,0,0,1,239.23,585.4Z"/><path class="cls-13" d="M162.77,461.71a1.32,1.32,0,0,1-1.21-.78L157,450.75a1.32,1.32,0,1,1,2.41-1.08L164,459.85a1.32,1.32,0,0,1-.66,1.75A1.31,1.31,0,0,1,162.77,461.71Z"/><path class="cls-13" d="M557.07,357.75a1.32,1.32,0,0,1-1.32-1.23c-.91-12.88-5.38-22.48-13.27-28.54-13.64-10.48-33.12-6.88-33.31-6.84a1.32,1.32,0,1,1-.5-2.59c.84-.17,20.84-3.86,35.42,7.33,8.52,6.54,13.33,16.79,14.3,30.46a1.33,1.33,0,0,1-1.23,1.41Z"/><polygon class="cls-15" points="626.88 445.43 587.48 440.51 592.59 420.46 549.02 407.13 612.97 410.27 604.51 430.97 626.88 445.43"/><polygon class="cls-15" points="598.27 561.4 571.73 542.49 583.23 529.99 556.96 503.38 601.93 530.58 587.75 542.24 598.27 561.4"/><polygon class="cls-15" points="638.09 202.57 606.88 251.7 591.65 239.1 562.34 271.28 591.17 217.33 605.6 233.09 638.09 202.57"/></svg>