<svg id="Layer_1" data-name="Layer 1" xmlns="http://www.w3.org/2000/svg" xmlns:xlink="http://www.w3.org/1999/xlink" viewBox="0 0 720 720"><defs><style>.cls-1{opacity:0.3;fill:url(#Degradado_sin_nombre_8);}.cls-2{fill:#7d6da9;}.cls-3{fill:url(#linear-gradient);}.cls-4{fill:url(#linear-gradient-2);}.cls-5{fill:url(#linear-gradient-3);}.cls-6{fill:url(#linear-gradient-4);}.cls-7{fill:#fade91;}.cls-8{fill:#fbe0bd;}.cls-13,.cls-14,.cls-9{fill:#fff;}.cls-9{opacity:0.78;}.cls-10{fill:url(#Degradado_sin_nombre_8-2);}.cls-11{fill:url(#Degradado_sin_nombre_8-3);}.cls-12,.cls-14{opacity:0.6;}.cls-15{fill:url(#linear-gradient-5);}.cls-16{fill:url(#linear-gradient-6);}.cls-17{fill:url(#linear-gradient-7);}.cls-18{fill:url(#linear-gradient-8);}.cls-19{fill:url(#linear-gradient-9);}.cls-20{fill:url(#linear-gradient-10);}.cls-21{fill:url(#Degradado_sin_nombre_13);}.cls-22{fill:url(#Degradado_sin_nombre_8-4);}.cls-23{fill:url(#linear-gradient-11);}.cls-24{fill:url(#linear-gradient-12);}.cls-25{fill:url(#linear-gradient-13);}.cls-26{fill:url(#linear-gradient-14);}.cls-27{fill:url(#linear-gradient-15);}.cls-28{fill:url(#linear-gradient-16);}.cls-29{fill:url(#linear-gradient-17);}.cls-30{fill:url(#linear-gradient-18);}.cls-31{fill:url(#linear-gradient-19);}.cls-32{fill:url(#linear-gradient-20);}.cls-33{fill:url(#linear-gradient-21);}.cls-34{fill:url(#linear-gradient-22);}.cls-35{fill:url(#linear-gradient-23);}.cls-36{fill:url(#linear-gradient-24);}.cls-37{fill:url(#linear-gradient-25);}.cls-38{fill:url(#linear-gradient-26);}.cls-39{fill:url(#linear-gradient-27);}.cls-40{fill:url(#linear-gradient-28);}.cls-41{fill:url(#linear-gradient-29);}</style><linearGradient id="Degradado_sin_nombre_8" x1="639.61" y1="694.86" x2="126.12" y2="109.86" gradientUnits="userSpaceOnUse"><stop offset="0" stop-color="#6e376e"/><stop offset="1" stop-color="#ca4b7c"/></linearGradient><linearGradient id="linear-gradient" x1="793.04" y1="-382.58" x2="896.18" y2="-382.58" gradientTransform="translate(-374.52 400.03) rotate(9.98)" gradientUnits="userSpaceOnUse"><stop offset="0" stop-color="#dae3fe"/><stop offset="1" stop-color="#e9effd"/></linearGradient><linearGradient id="linear-gradient-2" x1="481.48" y1="258.24" x2="641.85" y2="258.24" gradientUnits="userSpaceOnUse"><stop offset="0" stop-color="#aa80f9"/><stop offset="1" stop-color="#6165d7"/></linearGradient><linearGradient id="linear-gradient-3" x1="486.3" y1="255.48" x2="571.08" y2="255.48" gradientTransform="matrix(1, 0, 0, 1, 0, 0)" xlink:href="#linear-gradient"/><linearGradient id="linear-gradient-4" x1="295.39" y1="609.78" x2="267.52" y2="-215.28" gradientUnits="userSpaceOnUse"><stop offset="0" stop-color="#311944"/><stop offset="1" stop-color="#893976"/></linearGradient><linearGradient id="Degradado_sin_nombre_8-2" x1="184.46" y1="328.31" x2="261.21" y2="118.99" gradientTransform="translate(375.65 -53.34) rotate(74)" xlink:href="#Degradado_sin_nombre_8"/><linearGradient id="Degradado_sin_nombre_8-3" x1="190.21" y1="368.77" x2="266.97" y2="159.44" xlink:href="#Degradado_sin_nombre_8"/><linearGradient id="linear-gradient-5" x1="242.83" y1="328.68" x2="132.47" y2="517.03" gradientUnits="userSpaceOnUse"><stop offset="0" stop-color="#e1473d"/><stop offset="1" stop-color="#e9605a"/></linearGradient><linearGradient id="linear-gradient-6" x1="263.03" y1="340.51" x2="152.68" y2="528.87" xlink:href="#linear-gradient-5"/><linearGradient id="linear-gradient-7" x1="280.02" y1="386.94" x2="134.81" y2="589.4" xlink:href="#linear-gradient-5"/><linearGradient id="linear-gradient-8" x1="300.45" y1="179.9" x2="190.09" y2="368.26" xlink:href="#linear-gradient-5"/><linearGradient id="linear-gradient-9" x1="339.07" y1="34.33" x2="199.67" y2="217.7" xlink:href="#linear-gradient-4"/><linearGradient id="linear-gradient-10" x1="354.36" y1="45.95" x2="214.96" y2="229.33" xlink:href="#linear-gradient-4"/><linearGradient id="Degradado_sin_nombre_13" x1="179.58" y1="147.67" x2="395.76" y2="147.67" gradientUnits="userSpaceOnUse"><stop offset="0" stop-color="#fe7087"/><stop offset="1" stop-color="#fe9d82"/></linearGradient><linearGradient id="Degradado_sin_nombre_8-4" x1="396.35" y1="452.06" x2="742.18" y2="214.56" xlink:href="#Degradado_sin_nombre_8"/><linearGradient id="linear-gradient-11" x1="304.84" y1="430.54" x2="629.25" y2="430.54" gradientUnits="userSpaceOnUse"><stop offset="0" stop-color="#ffc444"/><stop offset="1" stop-color="#f36f56"/></linearGradient><linearGradient id="linear-gradient-12" x1="506.19" y1="404.19" x2="755.32" y2="102.73" xlink:href="#linear-gradient-11"/><linearGradient id="linear-gradient-13" x1="-2910.41" y1="323.06" x2="-2893.33" y2="371.86" gradientTransform="translate(3269.47)" gradientUnits="userSpaceOnUse"><stop offset="0" stop-color="#febbba"/><stop offset="1" stop-color="#ff928e"/></linearGradient><linearGradient id="linear-gradient-14" x1="-2897.28" y1="354.24" x2="-2910.15" y2="328.28" xlink:href="#linear-gradient-13"/><linearGradient id="linear-gradient-15" x1="831.37" y1="619.33" x2="722.38" y2="737.87" gradientTransform="matrix(-1, 0, 0, 1, 1251.32, 0)" gradientUnits="userSpaceOnUse"><stop offset="0" stop-color="#09005d"/><stop offset="1" stop-color="#1a0f91"/></linearGradient><linearGradient id="linear-gradient-16" x1="795.99" y1="628.13" x2="805.67" y2="628.13" gradientTransform="matrix(-1, 0, 0, 1, 1251.32, 0)" xlink:href="#linear-gradient-13"/><linearGradient id="linear-gradient-17" x1="856.87" y1="103.08" x2="302.1" y2="726.94" gradientTransform="matrix(1, 0, 0, 1, 0, 0)" xlink:href="#linear-gradient-15"/><linearGradient id="linear-gradient-18" x1="806.92" y1="596.85" x2="697.93" y2="715.39" xlink:href="#linear-gradient-15"/><linearGradient id="linear-gradient-19" x1="761.1" y1="627.63" x2="769.46" y2="627.63" gradientTransform="matrix(-1, 0, 0, 1, 1251.32, 0)" xlink:href="#linear-gradient-13"/><linearGradient id="linear-gradient-20" x1="865.12" y1="110.41" x2="310.34" y2="734.27" gradientTransform="matrix(1, 0, 0, 1, 0, 0)" xlink:href="#linear-gradient-15"/><linearGradient id="linear-gradient-21" x1="548.69" y1="148.12" x2="456.59" y2="428.62" gradientUnits="userSpaceOnUse"><stop offset="0" stop-color="#ff928e"/><stop offset="1" stop-color="#fe7062"/></linearGradient><linearGradient id="linear-gradient-22" x1="-2895.81" y1="317.95" x2="-2878.73" y2="366.75" xlink:href="#linear-gradient-13"/><linearGradient id="linear-gradient-23" x1="590.34" y1="161.8" x2="498.23" y2="442.29" xlink:href="#linear-gradient-21"/><linearGradient id="linear-gradient-24" x1="775.67" y1="378.72" x2="800.41" y2="378.72" gradientTransform="matrix(-1, 0, 0, 1, 1251.32, 0)" xlink:href="#linear-gradient-13"/><linearGradient id="linear-gradient-25" x1="-6423.88" y1="-264.17" x2="-6433.13" y2="-294.67" gradientTransform="matrix(-0.75, -0.67, -0.67, 0.75, -4523.1, -3717.62)" xlink:href="#linear-gradient-13"/><linearGradient id="linear-gradient-26" x1="-6432.22" y1="-317.31" x2="-6424.49" y2="-273.19" gradientTransform="matrix(-0.75, -0.67, -0.67, 0.75, -4523.1, -3717.62)" xlink:href="#linear-gradient-11"/><linearGradient id="linear-gradient-27" x1="-6433.33" y1="-264.31" x2="-6441.65" y2="-291.75" gradientTransform="matrix(-0.75, -0.67, -0.67, 0.75, -4523.1, -3717.62)" xlink:href="#linear-gradient-13"/><linearGradient id="linear-gradient-28" x1="-5343.73" y1="560.66" x2="-5363.85" y2="416.18" gradientTransform="matrix(-1, 0, 0, 1, -4847.36, 0)" xlink:href="#linear-gradient-13"/><linearGradient id="linear-gradient-29" x1="-5346.13" y1="546.76" x2="-5362.18" y2="431.47" gradientTransform="matrix(-1, 0, 0, 1, -4847.36, 0)" xlink:href="#linear-gradient-13"/></defs><title>vector [Recovered]</title><path class="cls-1" d="M569.17,565.58c-103.42,109.14-262.28,76.85-285.76,71.67-29.58-6.54-100-22.09-152.48-83.49-80.41-94-72.29-240.92-10.19-340C138.81,185,199.62,99.32,313.81,80.7c6.67-1.09,125.92-18.57,221.86,61.93a262.78,262.78,0,0,1,52.12,59.13C644.56,290.55,671.43,457.67,569.17,565.58Z"/><path class="cls-2" d="M453,276c-6.39,23.19-17.16,53.45-28.23,79.2l-4-.7a452,452,0,0,0,36-125.65c6.84-52,5.22-116.92,34.07-142.71,24-21.47,107.92-10.55,135.4-6.28A4.1,4.1,0,0,1,628.4,87c-12.82,11.36-40.18,38.08-46.79,64.46-8.72,34.76-40.94,57.58-70.15,64.3S466.06,228.63,453,276Z"/><path class="cls-3" d="M588.25,95.58a133.3,133.3,0,0,0-50.67,14.26,104.61,104.61,0,0,0-22,15,90.39,90.39,0,0,0-17.08,20.5l-1.71,2.89c-.57,1-1,2-1.56,3s-1,2-1.49,3l-1.38,3q-2.79,6-5.48,12-5.4,12-10.41,24.15c-6.69,16.21-12.88,32.62-18.07,49.4a.77.77,0,0,0,1.45.49v0q4.53-12.27,9.54-24.4t10.19-24.15l5.27-12,5.4-11.94q2.7-6,5.5-11.9l1.39-3c.46-1,1-1.91,1.45-2.88s.94-1.92,1.47-2.85l1.63-2.77A89.37,89.37,0,0,1,518,127.44,100,100,0,0,1,528,119.38l1.32-.93,1.35-.89c.91-.59,1.79-1.2,2.71-1.76,1.85-1.11,3.69-2.25,5.6-3.26a133.71,133.71,0,0,1,23.9-10.09,139,139,0,0,1,25.41-5.65h0a.61.61,0,0,0-.12-1.22Z"/><path class="cls-4" d="M499.85,289.05c-4.48,28,2.95,39,7.24,49.27.76,1.83,1.85,4.4,3,7.48l-3.95,1.85a94,94,0,0,0-4.18-13c-11.65-28.43-27.66-78.78-17-118.39s35.63-54.53,80.79-44.28c37.64,8.53,59.91,11.3,70.93,8.58a4.21,4.21,0,0,1,5.17,4.35c-.87,14.93-6.29,50.85-37.87,63.35C563.7,264.18,504.33,261,499.85,289.05Z"/><path class="cls-5" d="M570.61,211.38a87.53,87.53,0,0,0-9.51-2.5c-3.2-.68-6.44-1.23-9.71-1.59a80.8,80.8,0,0,0-19.78,0,56.41,56.41,0,0,0-9.81,2.17,42.34,42.34,0,0,0-9.21,4.29c-.7.48-1.44.92-2.12,1.44s-1.37,1-2,1.6l-3.69,3.36-3.45,3.63-3.16,3.88a57.07,57.07,0,0,0-9,17.84,70.65,70.65,0,0,0-2.81,19.65l0,2.47c0,.83.06,1.65.09,2.47.09,1.64.13,3.28.27,4.92l.53,4.89c.14,1.64.49,3.24.74,4.85a171.13,171.13,0,0,0,4.39,19.07.66.66,0,0,0,1.28-.31v0c-1.29-6.34-2.65-12.67-3.35-19.07-.45-3.19-.62-6.4-.89-9.59-.08-1.6-.08-3.21-.12-4.81,0-.79-.06-1.6,0-2.39l.11-2.39a71.79,71.79,0,0,1,3.15-18.7,55.63,55.63,0,0,1,8.65-16.65l3-3.64,3.28-3.41,3.52-3.18c.59-.51,1.2-1,1.8-1.44s1.26-.86,1.89-1.3a37.93,37.93,0,0,1,8.36-4,53.36,53.36,0,0,1,9.13-2.23,89,89,0,0,1,19-.7c3.2.22,6.4.51,9.58,1s6.38,1,9.5,1.71h0a.68.68,0,0,0,.36-1.31Z"/><path class="cls-6" d="M99.29,175.11a35.64,35.64,0,0,1,35.64-35.64H438a31.4,31.4,0,0,1,31.36,29.8l22.37,439.39A23.15,23.15,0,0,1,469,633L121.67,639.3a22,22,0,0,1-22.38-22Z"/><path class="cls-7" d="M124.12,146.23a10.35,10.35,0,0,1,11.74-10.32c41.39,5.61,183.7,23,301.37,13.94a9.58,9.58,0,0,1,10.31,9L471,600.22a11,11,0,0,1-10.35,11.58c-49.48,2.93-253.29,14.25-326,6.64a8.72,8.72,0,0,1-7.81-8.64Z"/><path class="cls-8" d="M129,157.29a10,10,0,0,1,11.29-9.93c39.83,5.4,176.79,22.1,290,13.41a9.21,9.21,0,0,1,9.92,8.69l22.58,424.72a10.6,10.6,0,0,1-10,11.15c-47.63,2.82-243.76,13.71-313.72,6.39a8.41,8.41,0,0,1-7.51-8.31Z"/><path class="cls-9" d="M165.86,190l4.23,91.06a5.8,5.8,0,0,0,5.62,5.52c16.87.47,69.41,1.76,99.09.21a6.47,6.47,0,0,0,6.12-6.25c.56-17.08,1.8-66.78-2.09-87.56a7.3,7.3,0,0,0-6.93-5.93l-99.67-3.49A6.17,6.17,0,0,0,165.86,190Z"/><circle class="cls-10" cx="223.22" cy="222.59" r="19.57" transform="translate(-52.29 375.8) rotate(-74)"/><path class="cls-11" d="M193.49,280.06h62.36a4.83,4.83,0,0,0,4.06-7.44c-5.3-8.29-16.38-20.46-35.58-19.91-18.5.53-29.46,11.52-35,19.41A5,5,0,0,0,193.49,280.06Z"/><g class="cls-12"><path class="cls-13" d="M417.88,198a.88.88,0,0,0,.88-.91l-.12-4.3a1,1,0,0,0-.93-.92l-114.59-2a.59.59,0,0,0-.61.84l2.28,6.47A1.39,1.39,0,0,0,306,198Z"/></g><g class="cls-12"><path class="cls-13" d="M303.12,206.77a.59.59,0,0,0-.61.84l2.28,6.48a1.38,1.38,0,0,0,1.21.85H417.88a.87.87,0,0,0,.88-.9l-.12-4.3a1,1,0,0,0-.93-.92Z"/></g><g class="cls-12"><path class="cls-13" d="M303.12,224a.58.58,0,0,0-.61.83l2.28,6.48a1.38,1.38,0,0,0,1.21.85H417.88a.87.87,0,0,0,.88-.9l-.12-4.3a1,1,0,0,0-.93-.92Z"/></g><g class="cls-12"><path class="cls-13" d="M428.5,315.22a.85.85,0,0,0,.85-.91l-.29-4.3a1,1,0,0,0-1-.91L166.74,307c-.5,0-.65.31-.34.7l5.39,6.77a2.13,2.13,0,0,0,1.47.71Z"/></g><g class="cls-12"><path class="cls-13" d="M166.74,324c-.5,0-.65.32-.34.71l5.39,6.76a2.13,2.13,0,0,0,1.47.71H428.5a.84.84,0,0,0,.85-.9l-.29-4.3a1,1,0,0,0-1-.92Z"/></g><path class="cls-13" d="M201.28,439.79h-.06l-21.61-.2a5.81,5.81,0,0,1-5.93-4.94l-1.9-18.14a4,4,0,0,1,.93-3,4.72,4.72,0,0,1,3.3-1.63h0c1.82-.13,4.39-.34,7.1-.58,5.72-.48,12.83-1.09,16.84-1.14a6.06,6.06,0,0,1,6.05,4.23c1.12,4.17,1,12.05.81,20.44A5.34,5.34,0,0,1,201.28,439.79Zm-25.15-26.22a3.07,3.07,0,0,0-2.15,1.05,2.27,2.27,0,0,0-.55,1.72l1.9,18.13a4.15,4.15,0,0,0,4.29,3.46l21.61.21h.05a3.68,3.68,0,0,0,3.87-3.31c.21-8.27.31-16-.75-20a4.47,4.47,0,0,0-4.43-3c-3.95.05-11,.65-16.72,1.14-2.72.23-5.29.45-7.12.57Z"/><path class="cls-14" d="M178.45,415.45c4.54-.31,14.41-1.32,19.09-1.37a4.19,4.19,0,0,1,4.19,2.89c.9,3.34.78,10,.62,16.14a3.59,3.59,0,0,1-3.8,3.29l-17.27-.17a4,4,0,0,1-4.08-3.35l-1.52-14.49A2.8,2.8,0,0,1,178.45,415.45Z"/><g class="cls-12"><path class="cls-13" d="M220.26,427.75a5.35,5.35,0,0,0,5.23,4l200-1.7a4.06,4.06,0,0,0,0-8.12l-200-.91A5.36,5.36,0,0,0,220.26,427.75Z"/></g><path class="cls-15" d="M179.37,418.29h0a3.33,3.33,0,0,1,4.58,1.24l4.26,7.65a1.07,1.07,0,0,0,1.9-.09l10.58-23.54a1.18,1.18,0,0,1,2.25.51,46.52,46.52,0,0,1-13.52,32.35s-6.34-2.47-11.45-13.68A3.49,3.49,0,0,1,179.37,418.29Z"/><path class="cls-13" d="M201.28,486.11h-.06l-21.61-.2a5.81,5.81,0,0,1-5.93-4.94l-1.9-18.14a4,4,0,0,1,.93-3,4.72,4.72,0,0,1,3.3-1.63h0c1.82-.13,4.39-.35,7.1-.58,5.72-.48,12.83-1.09,16.84-1.14H200a6,6,0,0,1,6,4.23c1.12,4.17,1,12.05.81,20.44A5.34,5.34,0,0,1,201.28,486.11Zm-25.15-26.22a3.07,3.07,0,0,0-2.15,1.05,2.27,2.27,0,0,0-.55,1.72l1.9,18.13a4.15,4.15,0,0,0,4.29,3.46l21.61.2h.05a3.68,3.68,0,0,0,3.87-3.3c.21-8.27.31-16-.75-20a4.45,4.45,0,0,0-4.43-3c-3.95.05-11,.65-16.72,1.14-2.72.23-5.29.45-7.12.57Z"/><path class="cls-14" d="M178.45,461.77c4.54-.32,14.41-1.32,19.09-1.38a4.2,4.2,0,0,1,4.19,2.9c.9,3.34.78,10,.62,16.14a3.59,3.59,0,0,1-3.8,3.29l-17.27-.17a4,4,0,0,1-4.08-3.35l-1.52-14.49A2.8,2.8,0,0,1,178.45,461.77Z"/><g class="cls-12"><path class="cls-13" d="M220.26,474.07a5.35,5.35,0,0,0,5.23,4l200-1.7a4.06,4.06,0,0,0,0-8.12l-200-.91A5.36,5.36,0,0,0,220.26,474.07Z"/></g><path class="cls-16" d="M179.37,464.61h0a3.33,3.33,0,0,1,4.58,1.24l4.26,7.64a1.06,1.06,0,0,0,1.9-.08l10.58-23.54a1.18,1.18,0,0,1,2.25.51,46.52,46.52,0,0,1-13.52,32.35s-6.34-2.47-11.45-13.68A3.49,3.49,0,0,1,179.37,464.61Z"/><path class="cls-13" d="M201.28,532.43h-.06l-21.61-.2a5.81,5.81,0,0,1-5.93-4.94l-1.9-18.14a4,4,0,0,1,.93-3,4.72,4.72,0,0,1,3.3-1.63h0c1.82-.13,4.39-.35,7.1-.58,5.72-.48,12.83-1.09,16.84-1.14H200a6,6,0,0,1,6,4.23c1.12,4.17,1,12.05.81,20.44A5.34,5.34,0,0,1,201.28,532.43Zm-25.15-26.22a3.07,3.07,0,0,0-2.15,1.05,2.27,2.27,0,0,0-.55,1.72l1.9,18.13a4.15,4.15,0,0,0,4.29,3.46l21.61.2h.05a3.68,3.68,0,0,0,3.87-3.3c.21-8.27.31-16-.75-20a4.43,4.43,0,0,0-4.43-3c-3.95.05-11,.65-16.72,1.14-2.72.23-5.29.45-7.12.57Z"/><path class="cls-14" d="M178.45,508.08c4.54-.31,14.41-1.31,19.09-1.37a4.2,4.2,0,0,1,4.19,2.9c.9,3.34.78,10,.62,16.14a3.59,3.59,0,0,1-3.8,3.29l-17.27-.17a4,4,0,0,1-4.08-3.35L175.68,511A2.81,2.81,0,0,1,178.45,508.08Z"/><g class="cls-12"><path class="cls-13" d="M220.26,520.39a5.35,5.35,0,0,0,5.23,4l200-1.7a4.06,4.06,0,0,0,0-8.12l-200-.91A5.36,5.36,0,0,0,220.26,520.39Z"/></g><path class="cls-17" d="M179.37,510.93h0a3.33,3.33,0,0,1,4.58,1.24l4.26,7.64a1.06,1.06,0,0,0,1.9-.08l10.58-23.54a1.18,1.18,0,0,1,2.25.51,46.52,46.52,0,0,1-13.52,32.35s-6.34-2.47-11.45-13.68A3.49,3.49,0,0,1,179.37,510.93Z"/><path class="cls-13" d="M201.28,578.75h-.06l-21.61-.2a5.81,5.81,0,0,1-5.93-4.94l-1.9-18.14a4,4,0,0,1,.93-3,4.72,4.72,0,0,1,3.3-1.63h0c1.82-.13,4.39-.35,7.1-.58,5.72-.48,12.83-1.09,16.84-1.14H200a6,6,0,0,1,6,4.23c1.12,4.17,1,12.05.81,20.44A5.34,5.34,0,0,1,201.28,578.75Zm-25.15-26.22a3.07,3.07,0,0,0-2.15,1.05,2.25,2.25,0,0,0-.55,1.72l1.9,18.13a4.15,4.15,0,0,0,4.29,3.46l21.61.2h.05a3.68,3.68,0,0,0,3.87-3.3c.21-8.27.31-16-.75-20a4.42,4.42,0,0,0-4.43-3c-3.95,0-11,.65-16.72,1.14-2.72.23-5.29.45-7.12.57Z"/><path class="cls-14" d="M178.45,554.4c4.54-.31,14.41-1.31,19.09-1.37a4.2,4.2,0,0,1,4.19,2.9c.9,3.34.78,10,.62,16.14a3.59,3.59,0,0,1-3.8,3.29l-17.27-.17a4,4,0,0,1-4.08-3.35l-1.52-14.49A2.81,2.81,0,0,1,178.45,554.4Z"/><g class="cls-12"><path class="cls-13" d="M220.26,566.71h0a5.35,5.35,0,0,0,5.23,4l200-1.7a4.06,4.06,0,0,0,0-8.12l-200-.91A5.36,5.36,0,0,0,220.26,566.71Z"/></g><path class="cls-13" d="M198.28,394.47h-.06l-21.61-.21a5.8,5.8,0,0,1-5.93-4.94l-1.9-18.13a4,4,0,0,1,.93-3,4.78,4.78,0,0,1,3.31-1.63h0c1.82-.12,4.38-.34,7.1-.57,5.71-.49,12.83-1.09,16.83-1.14H197a6,6,0,0,1,6,4.24c1.13,4.16,1,12,.82,20.43A5.35,5.35,0,0,1,198.28,394.47Zm-25.15-26.22a3.1,3.1,0,0,0-2.15,1,2.31,2.31,0,0,0-.55,1.72l1.9,18.14a4.16,4.16,0,0,0,4.3,3.45l21.61.21h0a3.69,3.69,0,0,0,3.88-3.31c.21-8.26.31-16-.76-20a4.43,4.43,0,0,0-4.43-3c-3.94.05-11,.66-16.71,1.14-2.72.23-5.29.45-7.13.58Z"/><path class="cls-14" d="M175.46,370.12c4.54-.31,14.41-1.31,19.09-1.37a4.16,4.16,0,0,1,4.18,2.89c.91,3.34.79,10,.63,16.14a3.6,3.6,0,0,1-3.8,3.29l-17.27-.16a4,4,0,0,1-4.09-3.36l-1.51-14.49A2.79,2.79,0,0,1,175.46,370.12Z"/><g class="cls-12"><path class="cls-13" d="M217.26,382.43h0a5.38,5.38,0,0,0,5.24,4l200-1.71a4.06,4.06,0,0,0,0-8.11l-200-.92A5.37,5.37,0,0,0,217.26,382.43Z"/></g><path class="cls-18" d="M176.38,373h0a3.31,3.31,0,0,1,4.57,1.25l4.27,7.64a1.06,1.06,0,0,0,1.9-.08l10.57-23.54a1.18,1.18,0,0,1,2.26.51,46.47,46.47,0,0,1-13.53,32.34s-6.33-2.46-11.44-13.68A3.47,3.47,0,0,1,176.38,373Z"/><path class="cls-19" d="M305.26,79.56c-10.95-7.61-20.47-7.46-27.17-5.48a13.36,13.36,0,0,0-9.49,14l2.89,31.54,34.38,3S326.73,94.5,305.26,79.56ZM290.14,105a8.58,8.58,0,1,1,8.57-8.57A8.58,8.58,0,0,1,290.14,105Z"/><path class="cls-20" d="M224.56,140.05V124.19a9.68,9.68,0,0,1,10-9.67l109.33,3.75a9.42,9.42,0,0,1,9.07,8.84l.91,15.24Z"/><path class="cls-21" d="M180,144.06a10.3,10.3,0,0,1,10.29-9.81H381.49A14.13,14.13,0,0,1,395.41,146l.16.94a12.12,12.12,0,0,1-11.95,14.2H187.47a7.88,7.88,0,0,1-7.88-8.26Z"/><path class="cls-22" d="M290.18,279.76a12.43,12.43,0,0,1,9.63-3.32c37.84,3.41,108.45-14.82,154.59-62,3.21-3.27,9.05-1.42,12.72,1.32C518.44,254.08,603.5,262,633,263.65a12.45,12.45,0,0,1,11.69,11.16c26.86,259.37-142,353.36-177,370a12.47,12.47,0,0,1-11.93-.69C281.18,535.34,288.65,393.93,286.24,289.16A12.43,12.43,0,0,1,290.18,279.76Z"/><path class="cls-23" d="M463,626.09a4.35,4.35,0,0,1-2.33-.68c-67-42.8-110.6-94-133.42-156.44C306.83,413.18,305.84,356.39,305,306.28l-.12-6.68a4.29,4.29,0,0,1,4.32-4.37h0c41.41,0,103.57-18.29,149.16-59.15a4.33,4.33,0,0,1,5.26-.38c50.1,33.25,121.57,42.93,159.72,45.74a4.28,4.28,0,0,1,4,3.92c8.88,101.25-12.18,186.87-62.6,254.48-37.65,50.5-82.3,76.81-99.75,85.78h0A4.23,4.23,0,0,1,463,626.09ZM309.19,297.26a2.29,2.29,0,0,0-1.67.69,2.19,2.19,0,0,0-.64,1.61l.12,6.68c.87,49.95,1.87,106.56,22.13,162,22.66,62,66,112.87,132.6,155.42a2.28,2.28,0,0,0,2.26.12h0c17.32-8.91,61.65-35,99-85.19,50.1-67.2,71-152.35,62.2-253.08a2.26,2.26,0,0,0-2.09-2.07c-38.34-2.82-110.21-12.57-160.7-46.07a2.26,2.26,0,0,0-2.76.2c-46,41.22-108.73,59.66-150.5,59.66Z"/><polygon class="cls-24" points="519.57 322.86 560.02 404.2 612.03 288.65 558.01 348.45 519.57 322.86"/><path class="cls-25" d="M366.65,349.24c-.27.83,2.78,2.1,4.57-1.31.06-1.64,1.06-8.66.08-10-5.21-7.11-15.32-16-15.32-16a2.4,2.4,0,0,0-.3,3.34l4.9,5.11c-1,1.85-2.27,3.42-2.86,5.66a6.89,6.89,0,0,0,.69,5.06c.86,1.55,2,3.56,3.14,5.14A6.81,6.81,0,0,0,366.65,349.24Z"/><path class="cls-26" d="M362.73,333.68l4.47,3.79,1.4,3.77-4,4.42s-1.33-7.48-2.33-9.1S361.8,334.16,362.73,333.68Z"/><path class="cls-27" d="M454.41,628.16s1.13,6.39,1.68,12.71a4.36,4.36,0,0,1-4.17,4.72c-8.42.35-26.44,1-32.91.75a1.42,1.42,0,0,1-1.24-2,3.19,3.19,0,0,1,1.62-1.71L449.15,629Z"/><path class="cls-28" d="M455.33,624.4l-.91,7.64s-5.21,2.43-8.77-.3l2.16-8.52Z"/><path class="cls-29" d="M454.65,480.71c.39,2,2.1,99.6-8.33,143.34a1.49,1.49,0,0,0,.87,1.73,26.05,26.05,0,0,0,8.5,1.73,2.55,2.55,0,0,0,2.53-1.84c3-10.15,17.28-61,19.14-109.56,2.08-54.28,0-1.85,0-1.85l-1.22-33.55Z"/><path class="cls-30" d="M488.64,631.49s1.8,3.23,3.54,11.8a2.66,2.66,0,0,1-2.34,3.18c-2.78.27-7.06.63-10.49.6a2.64,2.64,0,0,1-2.63-3c.38-3.13,1.56-8.27,5.22-12.27Z"/><path class="cls-31" d="M490.22,621.66l-2.12,11.56s-2.09,1.56-6.24.43l1-12.44Z"/><path class="cls-32" d="M495.94,483.71c8.54,51.49-1.85,127.28-5.35,142.11a2.32,2.32,0,0,1-1.87,1.76,15.62,15.62,0,0,1-6.67-.27,2.11,2.11,0,0,1-1.52-1.95c-.47-12,.37-85.61-7.58-114.7A6.58,6.58,0,0,0,470.4,507L455,496l-1.18-17.73Z"/><path class="cls-33" d="M441.57,386.13c25.57-.42,53.79,6.71,53.79,6.71,7.62,44.48,1.33,95.78,1.33,95.78-19.79,5.19-42.13-3.17-42.13-3.17-3.29-18.59-18.64-70.91-18.64-70.91a84.31,84.31,0,0,1-31.26-9.92c6.46-7.5,9.51-17,10.83-22.67A85.85,85.85,0,0,0,441.57,386.13Z"/><path class="cls-34" d="M366,348.46a4.89,4.89,0,0,1,5.69-1.59c3.76,15.89,23.49,28.78,43.76,35.08-1.32,5.64-4.37,15.17-10.83,22.67C371,385.7,366,348.46,366,348.46Z"/><path class="cls-35" d="M485.55,417.61l9.81-24.77s23.88,16.23,27.81,36.81a56.49,56.49,0,0,0-20.76,5.57C500.64,425.5,485.55,417.61,485.55,417.61Z"/><path class="cls-36" d="M467.47,365.37l8.14,23.53a.83.83,0,0,1-.39,1c-2.21,1.23-10.2,4.77-19.83-1.33a4,4,0,0,1-1.84-2.85l-2.64-20.37Z"/><path class="cls-37" d="M449.77,343.58s-8.93,16.82-7.79,23.61,12.22,6.31,21.89.79l6.76-18.16Z"/><path class="cls-38" d="M463.44,359.06a.69.69,0,0,1-.3-1,18.18,18.18,0,0,0,2.48-5.28s1.61-1-4.08-2.39-14.19-3.48-16-8.33,2.83-16.61,10.12-7.14a.7.7,0,0,0,1.1,0c1.2-1.56,4.34-4.79,8.71-2.83,4.08,1.83,4.54,4.83,4.48,6.34a.69.69,0,0,0,.82.7c2.07-.39,7-.73,9.33,4.35,1.91,4.19.67,6.56-.46,7.72a.7.7,0,0,0,.3,1.15c1.36.41,3.11,1.57,2.93,4.74-.24,4.4-5.15,4-6.55,3.81a.72.72,0,0,0-.62.22c-1.2,1.33-6.6,7-12.46,7.65a.71.71,0,0,1-.73-.93l2.53-7.36a.69.69,0,0,0-.37-.86Z"/><path class="cls-39" d="M462.42,360.11s6.36-4.37,6.83-.69-5.73,5.32-8.8,3.95Z"/><path class="cls-40" d="M502.41,435.22s8.35,37.66.78,58.83c9.28,4.3,7.56,3.49,7.56,3.49s18.34-53.59,12.42-67.89C511.5,428.41,505.71,431.55,502.41,435.22Z"/><path class="cls-41" d="M503.19,494.05s-4.77,6.19-4.39,8.65.47,3.46.47,3.46,2.4-1.64,2.25-3.74c-.33,6.66-2.56,14.23-.53,13.87s12.51-10,10.14-20.34C505.75,492.21,504.24,492.61,503.19,494.05Z"/></svg>