<svg id="Layer_1" data-name="Layer 1" xmlns="http://www.w3.org/2000/svg" xmlns:xlink="http://www.w3.org/1999/xlink" viewBox="0 0 720 720"><defs><style>.cls-1{opacity:0.3;fill:url(#Degradado_sin_nombre_8);}.cls-2{fill:#6e376e;}.cls-3{fill:url(#Degradado_sin_nombre_13);}.cls-4{fill:#decbc4;}.cls-5{fill:#eea886;}.cls-6{fill:#a77860;}.cls-7{fill:url(#linear-gradient);}.cls-8{fill:url(#Degradado_sin_nombre_8-2);}.cls-9{fill:url(#Degradado_sin_nombre_8-3);}.cls-10{fill:url(#Degradado_sin_nombre_8-4);}.cls-11{fill:url(#Degradado_sin_nombre_8-5);}.cls-12{fill:#f5e2d9;}.cls-13{fill:url(#linear-gradient-2);}.cls-14{fill:url(#linear-gradient-3);}.cls-15{fill:#2d3133;}.cls-16{fill:url(#linear-gradient-4);}.cls-17{fill:url(#linear-gradient-5);}.cls-18{fill:url(#linear-gradient-6);}.cls-19{fill:url(#linear-gradient-7);}.cls-20{fill:url(#linear-gradient-8);}.cls-21{fill:url(#linear-gradient-9);}.cls-22{fill:url(#linear-gradient-10);}.cls-23{fill:url(#linear-gradient-11);}.cls-24{fill:url(#linear-gradient-12);}.cls-25{fill:url(#linear-gradient-13);}</style><linearGradient id="Degradado_sin_nombre_8" x1="360" y1="736.83" x2="360" y2="234.87" gradientUnits="userSpaceOnUse"><stop offset="0" stop-color="#6e376e"/><stop offset="1" stop-color="#ca4b7c"/></linearGradient><linearGradient id="Degradado_sin_nombre_13" x1="148.66" y1="298.12" x2="466.07" y2="298.12" gradientUnits="userSpaceOnUse"><stop offset="0" stop-color="#fe7087"/><stop offset="1" stop-color="#fe9d82"/></linearGradient><linearGradient id="linear-gradient" x1="246.69" y1="113.71" x2="346.59" y2="113.71" gradientUnits="userSpaceOnUse"><stop offset="0" stop-color="#f36f56"/><stop offset="1" stop-color="#ffc444"/></linearGradient><linearGradient id="Degradado_sin_nombre_8-2" x1="292.89" y1="307.04" x2="443.81" y2="307.04" xlink:href="#Degradado_sin_nombre_8"/><linearGradient id="Degradado_sin_nombre_8-3" x1="149.1" y1="309.4" x2="266.13" y2="309.4" xlink:href="#Degradado_sin_nombre_8"/><linearGradient id="Degradado_sin_nombre_8-4" x1="292.89" y1="307.04" x2="353.94" y2="307.04" xlink:href="#Degradado_sin_nombre_8"/><linearGradient id="Degradado_sin_nombre_8-5" x1="234.01" y1="309.26" x2="266.42" y2="309.26" xlink:href="#Degradado_sin_nombre_8"/><linearGradient id="linear-gradient-2" x1="276.76" y1="256.51" x2="293.29" y2="256.51" gradientUnits="userSpaceOnUse"><stop offset="0" stop-color="#ffc444"/><stop offset="1" stop-color="#f36f56"/></linearGradient><linearGradient id="linear-gradient-3" x1="262.17" y1="326.79" x2="290.21" y2="326.79" xlink:href="#linear-gradient-2"/><linearGradient id="linear-gradient-4" x1="423.42" y1="228.08" x2="565.85" y2="228.08" xlink:href="#linear-gradient"/><linearGradient id="linear-gradient-5" x1="448.85" y1="200.1" x2="540.42" y2="200.1" xlink:href="#linear-gradient"/><linearGradient id="linear-gradient-6" x1="525.15" y1="108.54" x2="535.33" y2="108.54" xlink:href="#linear-gradient"/><linearGradient id="linear-gradient-7" x1="545.5" y1="108.54" x2="555.68" y2="108.54" xlink:href="#linear-gradient"/><linearGradient id="linear-gradient-8" x1="535.33" y1="98.36" x2="545.5" y2="98.36" xlink:href="#linear-gradient"/><linearGradient id="linear-gradient-9" x1="535.33" y1="118.71" x2="545.5" y2="118.71" xlink:href="#linear-gradient"/><linearGradient id="linear-gradient-10" x1="469.2" y1="83.1" x2="479.37" y2="83.1" xlink:href="#linear-gradient"/><linearGradient id="linear-gradient-11" x1="489.55" y1="83.1" x2="499.72" y2="83.1" xlink:href="#linear-gradient"/><linearGradient id="linear-gradient-12" x1="479.37" y1="72.93" x2="489.55" y2="72.93" xlink:href="#linear-gradient"/><linearGradient id="linear-gradient-13" x1="479.37" y1="93.27" x2="489.55" y2="93.27" xlink:href="#linear-gradient"/></defs><title>vector [Recovered]</title><rect class="cls-1" x="124.27" y="102.19" width="471.46" height="553.39" rx="69.12" ry="69.12"/><rect class="cls-2" x="196.07" y="492.12" width="217.59" height="13.41"/><rect class="cls-2" x="196.07" y="556.49" width="175.95" height="13.41"/><rect class="cls-2" x="196.07" y="524.31" width="103.15" height="13.41"/><path class="cls-3" d="M148.66,201.57h6.77V164.15H195.3v-6.77H148.66ZM459.29,394.66V432.1H419.42v6.77h46.65V394.66Zm-303.86,0h-6.77v44.21H195.3V432.1H155.43Z"/><path class="cls-2" d="M496.12,570.89A39.88,39.88,0,1,1,536,531,39.93,39.93,0,0,1,496.12,570.89Zm0-72A32.16,32.16,0,1,0,528.27,531,32.19,32.19,0,0,0,496.12,498.85Z"/><polygon class="cls-2" points="493.57 546.7 475.46 528.59 480.91 523.13 493.57 535.79 511.32 518.04 516.77 523.5 493.57 546.7"/><path class="cls-4" d="M443.12,391.56H420.44c-.42-.91-.75-1.7-1-2.33C412.68,373.34,378,336.91,378,336.91V337a.07.07,0,0,0,0,0v0c0,.05,0,.09-.06.15s0,.18-.08.3a.71.71,0,0,0,0,.2l-.06.16c-1.42,5.3-8.4,31.75-11.9,53.68H212.38c-.36-2-.77-4-1.24-5.76a124.22,124.22,0,0,1-3-15.87c0-.26-.06-.49-.08-.75-.12-.93-.22-1.86-.3-2.76a145.91,145.91,0,0,1-.26-25.41c-.43.93-3.53,12.3-7.59,26.33-2.24,7.7-4.76,16.21-7.27,24.22H156.44l45.48-131.2c1-.79,12.81-6.49,21.41-10.59,8.79-4.19,19.39-10.33,29-15.58,4.89-2.68,9.51-5.11,13.52-6.95l.61-.27v0l11-5h0l2.86-.27c9.23-.89,37.89-3.57,47.49-4.13.79-.06,1.46-.08,2-.1s.77,0,1,0c1.2.08,7.12,2.14,14.88,5.1.3.1.59.21.89.33l1.1.42c.67.25,1.37.51,2.06.79l4.26,1.67,1.52.6C371,232.49,388.8,240.13,393,243.17c2.8,2,11.51,18.4,21.59,38.69C425.47,316.64,438.75,366.81,443.12,391.56Z"/><path class="cls-5" d="M330.5,213c-.41,20.63-40.35,31.92-40.35,31.92s-16.71-20.95-12.72-22.95c1.57-.79,2.21-3.92,2.4-7.42a71.87,71.87,0,0,0-.23-9.36c-.11-1.46-.23-2.4-.23-2.4s5.71-6,13-13.19C305,177,322.47,161,322.5,167.35a5.92,5.92,0,0,1-.15,1.21C319.28,183,330.5,213,330.5,213Z"/><path class="cls-6" d="M315.12,182.75h0c-.08.12-1.77,2.66-4.66,6.29-6.13,7.72-17.66,20.39-30.62,25.48a71.87,71.87,0,0,0-.23-9.36,20.5,20.5,0,0,1-4-.48A123.06,123.06,0,0,1,284.32,192l8-2.4Z"/><path class="cls-5" d="M322.78,167.63c-3.45,7.51-6.73,13-7.66,15.12h0a26.29,26.29,0,0,1-4.66,6.29c-6.58,7.1-18.82,16.45-30.85,16.12a20.5,20.5,0,0,1-4-.48c-4.86-1.06-10.59-3.31-13.75-9.49C237,146.4,255,106.51,255,106.51s68.14-19.27,78.8,1.24C341.29,122.14,330.9,150,322.78,167.63Z"/><path class="cls-7" d="M255,106.51s-6.32-.35-7.89-12.35C245.58,82.31,248.7,79,248.7,79s28.13-11.77,38.23-13.3,34.94-3,40.76,3.65c0,0,14.15-3.28,18,20.2C351.8,126.82,324.86,163,324.86,163s.23-24.34-5.14-27.57-10,4.45-10,4.45l-11,2s16.68-36-3.33-37.34S266.47,108.59,255,106.51Z"/><path class="cls-5" d="M310,130.17c1.05-10.72,20.44-14.81,19.14-3.57s-10.85,22-15.26,21.65S309.22,138.35,310,130.17Z"/><path class="cls-8" d="M423.52,282.87c-6.32-20.24-11.79-36.24-14.22-38-4.24-3-37.87-12.3-53.84-18.55l-1.52-.6-4.26-1.67c-.69-.28-1.39-.54-2.06-.79l-1.1-.42c-.3-.12-.59-.23-.89-.33,0,0,0,.06-.08.08a259.55,259.55,0,0,0-17.62,22.54c-16.51,23.44-38,61.44-34.7,96.51,1.06,11.26,2.36,27.42,4.56,45.56.15,1.44.33,2.88.53,4.34h74.45c.91-19,2.53-44,5-53.68l.06-.16a.71.71,0,0,1,0-.2c0-.1.06-.2.08-.3s0-.1.06-.15v0a.07.07,0,0,1,0,0s18,28.16,18.95,54.57h46.86C441.52,367,434.35,317.58,423.52,282.87Z"/><path class="cls-9" d="M266.13,227.48s-5.63,18.71-12.89,65.43v0c-.26,1.56-.5,3.16-.75,4.8,0,.18-.06.37-.08.57-.18,1.07-.34,2.17-.5,3.28,0,.14,0,.25,0,.39-.12.73-.24,1.48-.34,2.25-.28,1.84-.55,3.73-.83,5.65-2.72,19.06-6.35,49.36-10.05,81.69H211.21c-1.59-9-3.09-17.15-3-22.76a2.92,2.92,0,0,0-.14.38c-2.35,6.51-4.94,13.6-7.56,20.49-.24.63-.48,1.26-.71,1.89H149.1l50.53-132.18c1-.79,14-7.8,22.62-11.88,9-4.29,20.33-9.56,30.4-14.2,4.81-2.23,9.33-4.3,13.16-6.06Z"/><path class="cls-10" d="M334.56,273.71l-19.44,11,8.31,8.47-18.24,98.41h-6.87c-2.53-19.89-4-37.76-5.09-49.9-5.08-54.24,49-115.4,52.4-119.13,2.61,1,5.41,2.07,8.31,3.21Z"/><path class="cls-11" d="M266.42,227s-7.26,23.7-15.71,82.9c-2.72,19-6.37,49.36-10.07,81.69h-2.86l-3.77-93,9.26-10L235,278.27l17.61-45c4.81-2.23,9.33-4.3,13.16-6.06Z"/><path class="cls-12" d="M346.61,222.76,330.5,213s-.45,8.84-40.35,31.92l11.33,31.91Z"/><path class="cls-12" d="M279.54,217.43s.62,9.53,10.61,27.46L268,273.72,266.42,227Z"/><path class="cls-13" d="M290.21,244.89S294.5,262,293,266.83c0,0-9.42,3.43-16.19-.86C276.76,266,281.55,254,290.21,244.89Z"/><path class="cls-14" d="M285,303.18c-4.52,30.79-4.52,61.93-2.85,88.38H263.28q-.37-5.6-.73-11.68c-3.51-61,18-115.45,18-115.45l9.62-2.41S287.11,289,285,303.18Z"/><path class="cls-15" d="M208.84,341.17c-.71,14.63-.61,27.62-.61,27.62h0c0,.07,0,.47,0,1.12l-.09-.73c-2.34,6.51-4.94,13.59-7.55,20.48a218.3,218.3,0,0,1-.59-22.32c1.05-41,14-62.53,14-62.53C210.94,312,209.52,327.31,208.84,341.17Z"/><path class="cls-16" d="M564.12,194.67a9.47,9.47,0,0,0-2.26-2.25v0l-10.6-7.48,5.43-11.78a9.41,9.41,0,0,0-4.59-12.5,9.56,9.56,0,0,0-3.11-.83l-12.91-1.16-1.17-12.92a9.42,9.42,0,0,0-10.25-8.51,9.64,9.64,0,0,0-3.07.82l-11.77,5.44-7.48-10.61a9.45,9.45,0,0,0-15.4,0l-7.47,10.6L467.67,138a9.42,9.42,0,0,0-12.5,4.59,9.2,9.2,0,0,0-.83,3.12l-1.16,12.91-12.93,1.16a9.42,9.42,0,0,0-8.5,10.26,9,9,0,0,0,.82,3.06L438,184.91l-10.61,7.48a9.45,9.45,0,0,0,0,15.4L438,215.26l-5.44,11.81a9.41,9.41,0,0,0,4.59,12.5,9.62,9.62,0,0,0,3.11.83l12.92,1.16,1.16,12.92a9.42,9.42,0,0,0,4.67,7.3V322.2a5.08,5.08,0,0,0,8.68,3.59l26.93-26.92,26.93,26.92a5.09,5.09,0,0,0,8.68-3.59V261.78a9.44,9.44,0,0,0,4.67-7.31l1.16-12.91L549,240.39a9.41,9.41,0,0,0,7.7-13.32l-5.43-11.78,10.6-7.48A9.43,9.43,0,0,0,564.12,194.67Zm-44,115.25-21.84-21.84a5.08,5.08,0,0,0-7.19,0L469.2,309.92V261.48l10.26-4.75,7.48,10.61a9.44,9.44,0,0,0,13.14,2.26,9.29,9.29,0,0,0,2.25-2.26l7.48-10.6,10.26,4.74v48.44Zm24.81-102.59A9.41,9.41,0,0,0,541.76,219L547,230.35l-12.47,1.13A9.41,9.41,0,0,0,526,240l-1.13,12.49-11.36-5.25a9.44,9.44,0,0,0-11.66,3.11l-7.23,10.24-7.22-10.24a9.4,9.4,0,0,0-11.66-3.12l-11.37,5.26L463.26,240a9.42,9.42,0,0,0-8.54-8.55l-12.49-1.13L447.49,219a9.41,9.41,0,0,0-3.11-11.66l-10.24-7.23,10.24-7.22a9.39,9.39,0,0,0,3.12-11.65l-5.27-11.37,12.47-1.13a9.4,9.4,0,0,0,8.55-8.53l1.13-12.48L475.74,153a9.4,9.4,0,0,0,11.65-3.11l7.24-10.25,7.23,10.24A9.38,9.38,0,0,0,513.51,153l11.37-5.26L526,160.18a9.43,9.43,0,0,0,8.54,8.55L547,169.85l-5.26,11.36a9.41,9.41,0,0,0,3.12,11.66l10.25,7.23Z"/><path class="cls-17" d="M494.63,154.32a45.79,45.79,0,1,0,45.79,45.78A45.78,45.78,0,0,0,494.63,154.32Zm0,81.39a35.61,35.61,0,1,1,35.61-35.61A35.61,35.61,0,0,1,494.63,235.71Z"/><rect class="cls-18" x="525.15" y="103.45" width="10.17" height="10.17"/><rect class="cls-19" x="545.5" y="103.45" width="10.17" height="10.17"/><rect class="cls-20" x="535.33" y="93.27" width="10.17" height="10.17"/><rect class="cls-21" x="535.33" y="113.62" width="10.17" height="10.17"/><rect class="cls-22" x="469.2" y="78.01" width="10.17" height="10.17"/><rect class="cls-23" x="489.55" y="78.01" width="10.17" height="10.17"/><rect class="cls-24" x="479.37" y="67.84" width="10.17" height="10.17"/><rect class="cls-25" x="479.37" y="88.19" width="10.17" height="10.17"/></svg>