<svg xmlns="http://www.w3.org/2000/svg" xmlns:xlink="http://www.w3.org/1999/xlink" viewBox="0 0 720 720"><defs><style>.cls-1{fill:none;}.cls-2{isolation:isolate;}.cls-3{opacity:0.3;fill:url(#Degradado_sin_nombre_8);}.cls-4{fill:url(#linear-gradient);}.cls-5{fill:#f4f7fa;}.cls-16,.cls-17,.cls-5{opacity:0.5;}.cls-12,.cls-17,.cls-5{mix-blend-mode:soft-light;}.cls-6{fill:url(#linear-gradient-2);}.cls-7{fill:url(#linear-gradient-3);}.cls-8{fill:#6e376e;}.cls-9{fill:url(#Degradado_sin_nombre_8-2);}.cls-10{fill:url(#linear-gradient-4);}.cls-11,.cls-12{fill:#fff;}.cls-12{opacity:0.48;}.cls-13{fill:url(#Degradado_sin_nombre_8-3);}.cls-14{fill:url(#linear-gradient-5);}.cls-15,.cls-26{fill:#d8dee8;}.cls-18{clip-path:url(#clip-path);}.cls-19{fill:url(#linear-gradient-6);}.cls-20{opacity:0.7;fill:url(#linear-gradient-7);}.cls-20,.cls-26,.cls-38{mix-blend-mode:multiply;}.cls-21{fill:url(#linear-gradient-8);}.cls-22{fill:url(#linear-gradient-9);}.cls-23{fill:url(#linear-gradient-10);}.cls-24{fill:url(#linear-gradient-11);}.cls-25{fill:url(#linear-gradient-12);}.cls-27{fill:url(#linear-gradient-13);}.cls-28{clip-path:url(#clip-path-2);}.cls-29{fill:url(#linear-gradient-14);}.cls-30{fill:url(#linear-gradient-15);}.cls-31{fill:url(#linear-gradient-16);}.cls-32{fill:url(#linear-gradient-17);}.cls-33{fill:url(#linear-gradient-18);}.cls-34{fill:url(#linear-gradient-19);}.cls-35{fill:#26264f;}.cls-36{fill:url(#linear-gradient-20);}.cls-37{fill:url(#linear-gradient-21);}.cls-38{opacity:0.3;}.cls-39{fill:url(#linear-gradient-22);}</style><linearGradient id="Degradado_sin_nombre_8" x1="78.82" y1="360.53" x2="648.54" y2="360.53" gradientUnits="userSpaceOnUse"><stop offset="0" stop-color="#6e376e"/><stop offset="1" stop-color="#ca4b7c"/></linearGradient><linearGradient id="linear-gradient" x1="226.7" y1="303.73" x2="496.04" y2="303.73" gradientUnits="userSpaceOnUse"><stop offset="0" stop-color="#ffc444"/><stop offset="1" stop-color="#f36f56"/></linearGradient><linearGradient id="linear-gradient-2" x1="742.02" y1="124.24" x2="1033.94" y2="124.24" gradientTransform="translate(-394.53 203.73) rotate(3.95)" gradientUnits="userSpaceOnUse"><stop offset="0" stop-color="#ff9085"/><stop offset="1" stop-color="#fb6fbb"/></linearGradient><linearGradient id="linear-gradient-3" x1="-95.95" y1="714.31" x2="-266.43" y2="903.29" gradientTransform="matrix(0.98, -0.19, 0.19, 0.98, 536.02, -394.73)" xlink:href="#linear-gradient"/><linearGradient id="Degradado_sin_nombre_8-2" x1="119.78" y1="450.83" x2="485.5" y2="450.83" xlink:href="#Degradado_sin_nombre_8"/><linearGradient id="linear-gradient-4" x1="134.8" y1="448.43" x2="473.13" y2="448.43" gradientUnits="userSpaceOnUse"><stop offset="0" stop-color="#aa80f9"/><stop offset="1" stop-color="#6165d7"/></linearGradient><linearGradient id="Degradado_sin_nombre_8-3" x1="119.78" y1="591.45" x2="670.72" y2="591.45" xlink:href="#Degradado_sin_nombre_8"/><linearGradient id="linear-gradient-5" x1="332.06" y1="264.93" x2="559.1" y2="264.93" gradientUnits="userSpaceOnUse"><stop offset="0" stop-color="#fff"/><stop offset="1" stop-color="#ebeff2"/></linearGradient><clipPath id="clip-path"><polygon class="cls-1" points="538.33 344.61 354.73 347.26 354.73 157.26 538.33 162.48 538.33 344.61"/></clipPath><linearGradient id="linear-gradient-6" x1="501.46" y1="181.48" x2="457.86" y2="266.86" gradientUnits="userSpaceOnUse"><stop offset="0" stop-color="#ab316d"/><stop offset="1" stop-color="#792d3d"/></linearGradient><linearGradient id="linear-gradient-7" x1="502.5" y1="179.84" x2="458.46" y2="266.08" xlink:href="#linear-gradient-6"/><linearGradient id="linear-gradient-8" x1="458.69" y1="455.68" x2="437.79" y2="304.14" gradientUnits="userSpaceOnUse"><stop offset="0" stop-color="#e38ddd"/><stop offset="1" stop-color="#9571f6"/></linearGradient><linearGradient id="linear-gradient-9" x1="445.36" y1="327.31" x2="442.3" y2="260.92" xlink:href="#linear-gradient"/><linearGradient id="linear-gradient-10" x1="442.09" y1="268.94" x2="443.27" y2="224.07" xlink:href="#linear-gradient"/><linearGradient id="linear-gradient-11" x1="423.69" y1="264.22" x2="424.76" y2="222.9" xlink:href="#linear-gradient"/><linearGradient id="linear-gradient-12" x1="459.99" y1="265.28" x2="461.05" y2="224.6" xlink:href="#linear-gradient"/><linearGradient id="linear-gradient-13" x1="111.87" y1="376.38" x2="398.6" y2="376.38" xlink:href="#linear-gradient-5"/><clipPath id="clip-path-2"><polygon class="cls-1" points="371.72 465.48 141.08 475.06 141.08 257.74 371.72 259 371.72 465.48"/></clipPath><linearGradient id="linear-gradient-14" x1="342.37" y1="281.3" x2="220.55" y2="521.09" gradientTransform="matrix(1, 0, 0, 1, 0, 0)" xlink:href="#linear-gradient-2"/><linearGradient id="linear-gradient-15" x1="256.41" y1="458.56" x2="258.43" y2="348.24" gradientUnits="userSpaceOnUse"><stop offset="0" stop-color="#311944"/><stop offset="0.56" stop-color="#6f2b60"/><stop offset="1" stop-color="#a03976"/></linearGradient><linearGradient id="linear-gradient-16" x1="259.69" y1="385" x2="267.33" y2="434.66" xlink:href="#linear-gradient"/><linearGradient id="linear-gradient-17" x1="256.07" y1="308.75" x2="254.15" y2="435.35" xlink:href="#linear-gradient"/><linearGradient id="linear-gradient-18" x1="316.68" y1="701.25" x2="314.76" y2="828.12" gradientTransform="translate(-168.86 -358.95) rotate(-6.51)" xlink:href="#linear-gradient"/><linearGradient id="linear-gradient-19" x1="282.45" y1="308.96" x2="280.54" y2="435.31" xlink:href="#linear-gradient"/><linearGradient id="linear-gradient-20" x1="262.42" y1="284.41" x2="256.94" y2="331.7" xlink:href="#linear-gradient"/><linearGradient id="linear-gradient-21" x1="-4348.32" y1="256.97" x2="-4225.78" y2="256.97" gradientTransform="translate(4428.12)" xlink:href="#linear-gradient-4"/><linearGradient id="linear-gradient-22" x1="-4332.14" y1="224.74" x2="-4225.81" y2="364.78" gradientTransform="translate(4428.12)" xlink:href="#linear-gradient-4"/></defs><title>vector [Recovered]</title><g class="cls-2"><g id="Layer_1" data-name="Layer 1"><path class="cls-3" d="M595.43,517.8C480.25,665.13,210.5,667.5,135.83,585.66,106,553,98.15,496.91,86.59,414.52,81,374.86,80.22,342.89,79.75,321,78.12,246.34,77.31,209,89.32,183.65,123.72,111,243.24,82.72,320.49,81.4q8.08-.14,16.32.11c90.45,2.7,192.52,40.35,255.48,120.81a270.38,270.38,0,0,1,18.19,26.29C667.94,323.1,658.27,437.43,595.43,517.8Z"/><path class="cls-4" d="M459.71,526.85c27.11-5,33.83-63.17,34.68-71.46,2.13-20.72,4.77-46.42-10.22-68.16C462.5,355.81,425.6,364,416.8,337.91c-5.41-16,7.9-21,8.53-51.62.18-8.8.83-40.56-21.38-66.24-15.84-18.31-36-25.05-46.62-27.66a102.33,102.33,0,0,1-7.41-38.3c.15-26,10.79-36.08,5.27-49.88-6.33-15.82-28.89-24.08-46.06-23.92-45.73.42-70.79,60.76-72.51,65.05-4.43,11.09-18.48,46.23-2.4,71.8,12.7,20.2,34.29,18.65,37.58,35.26s-17.23,23-22.09,48.31c-4.14,21.6,5,47.36,21.11,61.86,26.95,24.22,59.93,4.88,74.36,24.95,16.79,23.37-17.09,64.64-2.11,78.57,14.23,13.22,51.43-17.78,69.55-2.34,13.1,11.16.95,33.56,18.62,51.49C432.3,516.32,445.56,529.43,459.71,526.85Z"/><path class="cls-5" d="M317.28,94c-17.37,4-25.42,56.34-16.23,101.15,6.32,30.85,15.33,31.43,38.48,83.66,31.38,70.78,19.72,80.77,42.54,105.5,31.31,33.94,63.42,26.14,80.65,58.78,11.67,22.1,8.29,47.15,3.23,65.57a122.86,122.86,0,0,0,19.32-53.17c1.83-16.2,5.13-45.5-11.73-63.33-20.22-21.4-50-5.7-63.89-25.59-7.87-11.28-.8-19.91,1-58.43,1.84-38.85,2.75-58.28-7.76-74.85-18.76-29.58-52.5-17.52-64-43.17-12-26.6,18.42-52.59,2.61-79.54C336.39,101.91,325.85,92.05,317.28,94Z"/><path class="cls-6" d="M350.86,536.35c-14.81-2.54-23-39-19.82-67.34,1.22-10.95,2.45-21.84,10.41-31.77,13.45-16.75,29-9.41,40.82-22.91,17.47-19.95-4.27-49.84,12.54-66.06,12.37-11.92,28,.47,42.8-12.46,17.12-15,6.69-41,21.42-47.64,8.56-3.84,14.33,3.92,37.5,2.29,9.06-.64,13.59-1,17.74-3.46,14.53-8.76,7.51-28.58,19.13-40.73,12.81-13.37,40.53-9.42,57-2C620,257.47,633.27,290.6,633.72,317c.1,5.64.14,42.41-26.22,61.88-19.16,14.15-44.93,13.73-49.11,13.66-16.29-.27-19.55-5-25.33-1.58-16.71,9.88,6.6,51.71-14.75,78.38-8.71,10.89-23.57,17.62-36.74,18.23-21.3,1-30.47-14.42-41.78-9.14C425.15,485.23,434,514,418,522.5c-11.36,6-20.08-6.14-39.23-1.08C361.72,525.92,359.63,537.86,350.86,536.35Z"/><path class="cls-5" d="M351.69,509.65c6.76,1.67,10.36-16.68,33.41-40.77,25.19-26.31,38.72-23.05,62.16-46.72,26.76-27,14.41-36.61,36.84-57.53,30.39-28.36,56.22-13.68,92.77-46.88,11-10,25.56-23.6,23.18-40.34C598,262.9,583.44,248,567,247.93c-.69,0-14.56.19-23.42,10.85-10.86,13.08-1.52,26.69-11.59,36.61-5.27,5.19-13.5,5.8-30,7-23.66,1.73-27.6-3.27-34.08,1.05-14.62,9.77,0,39-14.85,51.11-12.76,10.41-31.11-4.95-42.29,5-13.48,12,7.52,39.53-6.37,59.64-12,17.31-34.34,6.77-50.45,24.85C334.91,465.42,341.94,507.23,351.69,509.65Z"/><path class="cls-7" d="M437.37,521.16c11.25.78,12.77-19.88,32.41-26.07,21.73-6.85,35.52,13.51,50.65,5.73,17-8.74,7.43-38.46,26.53-49.62,13-7.62,22.14,3.55,38.55-3.44,17.1-7.29,33.8-30.76,27.23-53.77-5.48-19.2-25.24-31.37-41.13-31.49-13-.09-16.71,7.93-28.08,5.56-14.17-2.94-13.84-16.52-28.69-22.63s-35-.82-46.09,11.25c-9.25,10-10.19,22.58-11,33.53-2.21,29.38,11.2,40.7,4,52-8.94,14.09-33.42,2.15-44.58,16.12C403.23,475.8,421.19,520,437.37,521.16Z"/><path class="cls-5" d="M431.91,499.54c4.12.82,5.33-12.57,18.27-23.75,14.83-12.82,26-6.25,42.59-16.37,20.56-12.54,12.74-28.32,31.05-41.05,25.66-17.84,57.54,1.69,66.16-12.87,5-8.51-.62-24-9.7-29.08-9.69-5.4-16.56,4.85-33.19,2.42-15.58-2.27-16.45-12.27-35.68-17.29-9.37-2.45-21.68-5.66-29.55.36-15.41,11.82-7,54-4.49,66.85,2.35,11.84,4.53,16.44,1.45,21.26-8.08,12.63-34.85-.41-47.24,13.23C421.22,474.66,426.59,498.48,431.91,499.54Z"/><path class="cls-8" d="M670.72,587.45l-550.94-4.7v13.89c0,3.78,2.41,7,5.66,7.55l155.79,27.37a21.81,21.81,0,0,0,5.59.25l377.91-31.19c3.38-.28,6-3.5,6-7.37Z"/><path class="cls-8" d="M470.79,565.18,125.48,590.6a10.47,10.47,0,0,1-11.2-10.8V322.66A11.42,11.42,0,0,1,125.48,311H470.79c5.09,0,9.2,4.7,9.2,10.5V554C480,559.8,475.88,564.8,470.79,565.18Z"/><path class="cls-9" d="M476.29,565.18,131,590.6a10.48,10.48,0,0,1-11.21-10.8V322.66A11.43,11.43,0,0,1,131,311h345.3c5.09,0,9.21,4.7,9.21,10.5V554C485.5,559.8,481.38,564.8,476.29,565.18Z"/><path class="cls-10" d="M465.54,548.79,143.92,570.87A8.58,8.58,0,0,1,134.8,562V336.88a9.37,9.37,0,0,1,9.12-9.53L465.54,326c4.19,0,7.59,3.83,7.59,8.61V539.63C473.13,544.4,469.73,548.5,465.54,548.79Z"/><path class="cls-11" d="M315.83,318.07a4,4,0,1,1-4-4.32A4.17,4.17,0,0,1,315.83,318.07Z"/><path class="cls-12" d="M131,590.6l343.56-25.29,1.75-.13a9.25,9.25,0,0,0,6.08-3.08c-24.72-1.35-40.07-10.13-50-19.19C412.5,524.7,416,506.75,394.5,494.78c-26.76-14.93-47.8,4-68.1-14.68-12.31-11.32-6.27-19.75-21.42-36.66-16.77-18.73-27.69-12.44-44.55-29.3-21.32-21.31-10.66-37.89-29-53.2-22.28-18.56-46.3-1.38-67.51-19.18-9.14-7.68-14.16-18.85-16.78-30.72H131a11.43,11.43,0,0,0-11.21,11.62V579.8A10.47,10.47,0,0,0,131,590.6Z"/><path class="cls-13" d="M490.06,563.77,119.78,590.52l161.45,28.36a22.28,22.28,0,0,0,5.59.26l383.9-31.69L496,564A29,29,0,0,0,490.06,563.77Z"/><polygon class="cls-8" points="173.81 590.75 482.07 568.15 577.48 580.87 271.87 605.04 173.81 590.75"/><path class="cls-11" d="M562.51,186.67v157c0,7.24-4.93,13.23-11.12,13.38l-51.6,1.26-159.16,3.89c-6.48.16-12.5-5.11-13.22-12.05-.06-.53-.77-1.06-.77-1.6V181.28c0-2.82,1.45-5.42,2.76-7.58,0-.07.42-.12.45-.17a12.26,12.26,0,0,1,10.63-5.86l24.14.64,186.73,5C557.54,173.43,562.51,179.43,562.51,186.67Z"/><path class="cls-14" d="M340.65,357.74c-4.73.11-8.59-4.06-8.59-9.29v-167c0-5.24,3.86-9.4,8.59-9.28l210.82,5.35c4.21.11,7.63,4.2,7.63,9.12V343.73c0,4.92-3.42,9-7.63,9.11Z"/><path class="cls-15" d="M551.47,173.27l-210.82-5.59c-7-.19-12.63,5.91-12.63,13.63v10l234.64,4.76v-9.4C562.66,179.44,557.66,173.43,551.47,173.27Z"/><path class="cls-11" d="M350.49,180.09a4,4,0,0,1-4.11,4.07,4.26,4.26,0,0,1-4.11-4.26,4,4,0,0,1,4.11-4.07A4.26,4.26,0,0,1,350.49,180.09Z"/><path class="cls-11" d="M364.82,180.43a4,4,0,0,1-4.07,4,4.23,4.23,0,0,1-4.08-4.24,4,4,0,0,1,4.08-4.06A4.24,4.24,0,0,1,364.82,180.43Z"/><path class="cls-11" d="M379.05,180.76a4,4,0,0,1-4,4,4.21,4.21,0,0,1-4.05-4.23,4,4,0,0,1,4.05-4A4.21,4.21,0,0,1,379.05,180.76Z"/><polygon class="cls-15" points="549.6 343.99 342.74 348.29 342.74 216.73 549.6 219.56 549.6 343.99"/><g class="cls-16"><polygon class="cls-11" points="453.35 205.01 342.74 203.1 342.74 210.21 453.35 211.91 453.35 205.01"/><polygon class="cls-11" points="537.65 206.47 537.65 213.21 549.6 213.4 549.6 206.67 537.65 206.47"/></g><g class="cls-17"><path class="cls-11" d="M501.13,358.3,342,362.19a13.44,13.44,0,0,1-13.27-12.05c0-.15-.75-.3-.75-.45V181.21c0-2.79,1.47-5.36,2.73-7.52,0-.06.43-.11.47-.16a12.23,12.23,0,0,1,10.71-6l24,.64c0,.06.09.12.11.18.44,1.46,1,2.94,1.5,4.45a95.9,95.9,0,0,0,8.79,18.4c.23.38.47.75.71,1.12a78.9,78.9,0,0,0,8.92,11.54A74,74,0,0,0,393.6,211a80.55,80.55,0,0,0,9.52,6.57c23.37,13.87,49.62,15.68,67,43.48,14.93,23.83,4.24,36.33,18.67,72.78,1.57,4,3.25,7.75,5,11.38q2.28,4.63,4.77,8.92C499.44,355.53,500.29,356.93,501.13,358.3Z"/></g><g class="cls-18"><path class="cls-19" d="M416.91,342.72c-35.92-5.53-43.91-9.61-47.62-17.23-5.4-11.09-1.47-29.14,7.74-40.24,8.06-9.71,18.07-11.59,17.78-18.31-.24-5.52-7.1-6.26-12.15-16.69-1.48-3.05-4.34-9-3.09-16.06,1.82-10.38,11.12-15.7,11.87-16.12,9.69-5.35,15.2,1.05,22.46-3.76,9.06-6,5-19,13.43-22.53,6.15-2.59,14,1.87,16,3,6.81,3.87,6.09,7.64,11.83,10.06,6.71,2.83,9.91-1.42,17.68.44,6.4,1.53,11,6.25,14.79,11,8.45,10.61,4.25,16.8,10.49,29.8,8.75,18.26,21.9,16.23,24.23,30.78,1.22,7.6-1.91,11.05.49,22.7,1.62,7.85,3.66,9.25,4,13.87,1,13.29-14,25.12-16.79,27.21C492.16,354,467.12,350.46,416.91,342.72Z"/><path class="cls-20" d="M474,306.75c-23.51-1.64-39.52,20.8-45.89,15.29-6.05-5.22,11-23.11,5.19-43.88-5.72-20.43-28.27-24.83-26.48-36.38,2-13.05,32.17-16.06,31.46-25.65-.42-5.66-11-7-13.17-16.06a14.41,14.41,0,0,1,.22-7.13c-5.87,4.66-3.2,15.91-11.45,21.37-7.26,4.81-12.77-1.59-22.46,3.76-.75.42-10.05,5.74-11.87,16.12-1.25,7.09,1.61,13,3.09,16.06,5,10.43,11.91,11.17,12.15,16.69.29,6.72-9.72,8.6-17.78,18.31-9.21,11.1-13.14,29.15-7.74,40.24,3.71,7.62,11.7,11.7,47.62,17.23,50.21,7.73,75.25,11.26,93.2-2.07,6.93-5.15,15.08-13.87,16.82-21.58a20.25,20.25,0,0,1-10.1,5.56C501.91,327.57,495,308.22,474,306.75Z"/><path class="cls-21" d="M376.85,391.17c-5.44-13.65-2.12-35.21-1.42-39.75,2.72-17.71,9.14-28.69,11.48-32.59,16-26.68,40.15-26.48,58.28-26.34,8.93.08,18.17-.12,29.43,4A76.81,76.81,0,0,1,491,305.29c22.35,16.3,39.92,69.69,22,90.18-11.48,13.1-23.28-3.2-74.83,5.53-20.85,3.53-42.93,9.3-56.08-2.09A19.46,19.46,0,0,1,376.85,391.17Z"/><path class="cls-22" d="M435.68,260.52s3.82,28.59-15.6,34.3a3.18,3.18,0,0,0-1.23,5.29l23.93,23.27a3.44,3.44,0,0,0,5-.26l21.44-25a3.15,3.15,0,0,0-1.17-5c-6.86-2.64-19.2-10.36-16.61-31.21Z"/><path class="cls-23" d="M423.78,244.54c0,.31,5.25,28.3,18.64,28.33,12.62,0,17.4-20.39,18.95-29.91.16-1.62.33-3.24.49-4.86a9.33,9.33,0,0,1-5.51.11c-.57-.17-4.23-1.25-5.59-4.42-1.51-3.53,1.27-6.3-.31-9.39a6.79,6.79,0,0,0-4.19-3.1c.94,1.45,2.77,4.7,1.74,7.62-.7,2-2.64,3.82-7,4.92C428.54,237,423.66,238.2,423.78,244.54Z"/><path class="cls-24" d="M427.07,247.91s-6.94-6.16-7.55-2.43c-1.26,7.79,4.68,12.13,7.9,9.82S427.07,247.91,427.07,247.91Z"/><path class="cls-25" d="M457.42,248.16s6.83-6,7.42-2.29c1.24,7.73-4.59,11.95-7.76,9.62S457.42,248.16,457.42,248.16Z"/></g><path class="cls-11" d="M422.28,332.3a7.38,7.38,0,0,1-7.13,7.49,7.17,7.17,0,0,1-7.15-7.32,7.38,7.38,0,0,1,7.15-7.5A7.19,7.19,0,0,1,422.28,332.3Z"/><path class="cls-11" d="M455.4,331.93a7.31,7.31,0,0,1-7,7.43,7.1,7.1,0,0,1-7-7.27,7.3,7.3,0,0,1,7-7.44A7.12,7.12,0,0,1,455.4,331.93Z"/><path class="cls-11" d="M488,331.56a7.22,7.22,0,0,1-6.91,7.38,7,7,0,0,1-6.94-7.22,7.22,7.22,0,0,1,6.94-7.38A7,7,0,0,1,488,331.56Z"/><path class="cls-26" d="M409.62,409.59v61.33c0,8.71-6.26,16.09-14,16.48l-46.21,2.4-8.68.44-3.63.19V423c0-.13,0-.24,0-.37s0-.28,0-.42a13.36,13.36,0,0,1,1.79-5.42c0-.06.16-.1.19-.15a10.46,10.46,0,0,1,8.61-5.38l19.52-.55a1.21,1.21,0,0,0,0,.14Z"/><path class="cls-15" d="M402.53,275.62c0-7.62-4.82-14-11.19-15.5-.23-.06-.48-.1-.71-.15a13.84,13.84,0,0,0-2.14-.19L254.76,259l-132-.77H122a15.46,15.46,0,0,0-9.31,3.73l-.14.12c-.37.33-.72.66-1.06,1l0,0c-.2.21-.39.43-.58.65a17.32,17.32,0,0,0-4.13,11.33v12.17h0v191.1a17,17,0,0,0,1.26,6.54,15.24,15.24,0,0,0,11.55,9.41,14.72,14.72,0,0,0,3.27.19l201.93-10.46h0l63.79-3.3c7.72-.4,14-7.78,14-16.48V286.92h0Z"/><path class="cls-11" d="M403.08,275.52V464.38c0,8.71-6.26,16.09-14,16.49l-64.72,3.35L122.83,494.65a15.85,15.85,0,0,1-16.46-14.19c-.08-.64-.58-205.46-.58-205.46a17.9,17.9,0,0,1,3.11-9.3c0-.07.32-.14.36-.21a16,16,0,0,1,13.46-7.39l30.71.18,235.63,1.38C396.8,259.71,403.08,266.8,403.08,275.52Z"/><path class="cls-27" d="M122.83,489.24c-6,.31-11-4.62-11-11V275c0-6.37,4.93-11.53,11-11.5l266.24,1.2c5.26,0,9.53,4.87,9.53,10.79V464.58c0,5.93-4.27,11-9.53,11.23Z"/><path class="cls-15" d="M389.07,259.66,122.83,258.1c-8.88-.05-16.12,7.52-16.12,16.9v12.19l296.35-.36V275.51C403.06,266.8,396.81,259.7,389.07,259.66Z"/><path class="cls-11" d="M135.38,273a5.24,5.24,0,1,1-5.23-5.07A5.14,5.14,0,0,1,135.38,273Z"/><path class="cls-11" d="M153.63,273a5.19,5.19,0,1,1-5.18-5.05A5.1,5.1,0,0,1,153.63,273Z"/><path class="cls-11" d="M171.73,273a5.14,5.14,0,1,1-5.14-5A5.07,5.07,0,0,1,171.73,273Z"/><polygon class="cls-15" points="386.73 465.23 125.5 477.68 125.5 317.7 386.73 315.43 386.73 465.23"/><g class="cls-16"><polygon class="cls-11" points="265.83 300.48 125.5 301.13 125.5 309.77 265.83 308.83 265.83 300.48"/><polygon class="cls-11" points="371.79 299.99 371.79 308.11 386.73 308.01 386.73 299.92 371.79 299.99"/></g><g class="cls-17"><path class="cls-11" d="M324.36,484.21,122.83,494.65a15.9,15.9,0,0,1-16.51-14.19c0-.18-.53-205.55-.53-205.55a18.15,18.15,0,0,1,3.06-9.21c.05-.07.34-.14.39-.21a16,16,0,0,1,13.56-7.6l30.55.18a2.12,2.12,0,0,0,.11.21c.57,1.77,1.21,3.56,1.89,5.38a112.66,112.66,0,0,0,11.18,22.11c.3.46.6.9.91,1.35a93.59,93.59,0,0,0,11.32,13.77,90.53,90.53,0,0,0,9.79,8.46,101.48,101.48,0,0,0,12.09,7.7c29.61,16.15,62.78,17.59,84.74,50.7,18.79,28.33,5.33,43.77,23.5,87.33q3,7.1,6.34,13.55,2.86,5.52,6,10.61C322.23,480.93,323.29,482.59,324.36,484.21Z"/></g><path class="cls-11" d="M227.94,449.12a11.15,11.15,0,0,1-10.41,11.22A10.11,10.11,0,0,1,207.07,450a11.15,11.15,0,0,1,10.46-11.23A10.12,10.12,0,0,1,227.94,449.12Z"/><path class="cls-11" d="M269.76,447.43a11,11,0,0,1-10.18,11.1,10,10,0,0,1-10.24-10.28,11,11,0,0,1,10.24-11.1A10,10,0,0,1,269.76,447.43Z"/><path class="cls-11" d="M310.67,445.77c0,5.82-4.45,10.74-10,11s-10-4.32-10-10.17,4.49-10.77,10-11S310.67,440,310.67,445.77Z"/><g class="cls-28"><path class="cls-29" d="M262.47,484.45c-70.71,3.71-96,14.23-107.59-.72-10.69-13.82-1.83-65.38,10.87-80.09,19.94-23.09,51.6-24.87,94.2-26.94,39.35-1.92,63.25-3.08,81.95,13.37,17.34,15.25,28.34,68.89,17.61,84.38C349.51,488.89,328,481,262.47,484.45Z"/><path class="cls-30" d="M236.54,377.11l-8.26,2.28a3.1,3.1,0,0,0-1.82,4.65c5.63,8.61,20.48,30.11,29.73,32.41,9.52,2.37,27.2-25.64,33.06-35.44a3,3,0,0,0-1.65-4.4l-5.92-1.78a38.92,38.92,0,0,0-15.08-1.43l-22.35,2.27A47.16,47.16,0,0,0,236.54,377.11Z"/><path class="cls-31" d="M242.65,345.11s4.52,32.36-1.73,35.6l17.74,18.9,17.82-23.22s-6.72-4.95-5-31.67Z"/><path class="cls-32" d="M232.14,298.69c-.65.88-9.06,42,19.9,45.88,28.59,3.86,29.84-26.13,29.48-38.84s-13.39-17.31-20.88-18.19S234.42,295.6,232.14,298.69Z"/><path class="cls-33" d="M230.45,322.64S229,316,224,320.17s2.94,15.26,9.47,14.73Z"/><path class="cls-34" d="M280.65,317.59c-.82.56-3.17,16.15-3.17,16.15s4.11.44,7.07-5.18S288.94,311.88,280.65,317.59Z"/><path class="cls-35" d="M291.79,287.85c-3-5-10.53-2.62-12.73-7.44-1.86-4.06,2.5-7.86.16-11.37-2-2.93-6.75-2.88-7.6-2.87-6.5.08-8,5.24-12.63,5.11-5.68-.16-5.91-7.94-13.45-11.26-7.34-3.23-18.11-.69-22.48,5.3-3.4,4.65-.5,8.09-5,14.09-3.07,4.13-5.79,4.31-7.32,8.36-1.44,3.8-.47,7.42.29,10.11,1.83,6.43,5.22,9.26,10.34,16.08a109.66,109.66,0,0,1,8.65,13.5,154.22,154.22,0,0,1,5.08,16.13c1.62,6.36,1.52,7.66,3,9.7,5.23,7,17.11,6.15,22.09,5.78,5.69-.43,12.76-1,16.31-6,1.92-2.71,1.68-5.12,2.12-11.58a161.07,161.07,0,0,1,2.46-18.95,58,58,0,0,1,2.31-8c2.05-5.54,4.19-6.43,6.5-12.15C291.82,297.81,294.21,291.9,291.79,287.85Zm-23.54,43.31c-3.51,1-5.89.16-10.67-.07-9.58-.45-12.62,4.08-17.17,2.16-1.9-.81-6.29-3.07-7.22-7.5a35.5,35.5,0,0,1-.3-11.35c.75-5.56,1.62-12,6.09-14.83,6.46-4.12,14.68,2.9,20.56-1.68a10.63,10.63,0,0,0,3.56-6.43c1.3.44,11.64,4.19,15.43,15.24a25,25,0,0,1-.14,16.21C276.26,326.17,273,329.82,268.25,331.16Z"/><path class="cls-36" d="M248.41,338.12a23.57,23.57,0,0,0,15.48-.63c.64-.25,1.19.45.66.84-2.22,1.61-5.47,3.33-9,3.11a18.43,18.43,0,0,1-7.69-2.42C247.27,338.69,247.74,337.92,248.41,338.12Z"/></g><path class="cls-11" d="M226.47,449.07a9.42,9.42,0,0,1-9,9.31,8.63,8.63,0,0,1-9.06-8.65,9.42,9.42,0,0,1,9.06-9.31A8.63,8.63,0,0,1,226.47,449.07Z"/><path class="cls-11" d="M268.32,447.54a9.28,9.28,0,0,1-8.86,9.22,8.49,8.49,0,0,1-8.89-8.57,9.28,9.28,0,0,1,8.89-9.22A8.51,8.51,0,0,1,268.32,447.54Z"/><path class="cls-11" d="M309.41,446a9.17,9.17,0,0,1-8.7,9.14,8.39,8.39,0,0,1-8.73-8.5,9.15,9.15,0,0,1,8.73-9.13A8.39,8.39,0,0,1,309.41,446Z"/><path class="cls-37" d="M193.47,281.17a38.61,38.61,0,0,0,8.88-24.2c0-25.76-27.43-46.65-61.27-46.65S79.81,231.21,79.81,257s27.43,46.65,61.27,46.65a75.09,75.09,0,0,0,34.24-8c6.46,1.1,16.49,3,21.78,3.94a2,2,0,0,0,2.28-2.72Z"/><g class="cls-38"><path class="cls-39" d="M174.61,266.84c-13.74-5.77-28.85,6.42-38.3-2.09s.77-25.51-8.35-37.59c-4.35-5.76-11.65-8.48-20-9.44C91,226,79.81,240.5,79.81,257c0,25.76,27.43,46.65,61.27,46.65a75.09,75.09,0,0,0,34.24-8c5.09.87,12.41,2.21,17.87,3.22C189.17,278,181.75,269.85,174.61,266.84Z"/></g><path class="cls-11" d="M181.71,239.92a2.35,2.35,0,0,1-2.35,2.35H104.87a2.35,2.35,0,0,1-2.35-2.35h0a2.35,2.35,0,0,1,2.35-2.35h74.49a2.35,2.35,0,0,1,2.35,2.35Z"/><path class="cls-11" d="M181.71,254a2.35,2.35,0,0,1-2.35,2.35H104.87a2.35,2.35,0,0,1-2.35-2.35h0a2.36,2.36,0,0,1,2.35-2.36h74.49a2.36,2.36,0,0,1,2.35,2.36Z"/><path class="cls-11" d="M146.43,268.15a2.35,2.35,0,0,1-2.35,2.35H104.87a2.35,2.35,0,0,1-2.35-2.35h0a2.35,2.35,0,0,1,2.35-2.35h39.21a2.35,2.35,0,0,1,2.35,2.35Z"/></g></g></svg>