<svg id="Layer_1" data-name="Layer 1" xmlns="http://www.w3.org/2000/svg" xmlns:xlink="http://www.w3.org/1999/xlink" viewBox="0 0 720 720"><defs><style>.cls-1{opacity:0.3;fill:url(#Degradado_sin_nombre_8);}.cls-2{fill:url(#linear-gradient);}.cls-3{fill:#bdd0fb;}.cls-4{fill:url(#linear-gradient-2);}.cls-11,.cls-5{fill:#fff;}.cls-6{fill:#6e376e;}.cls-7{fill:url(#linear-gradient-3);}.cls-8{opacity:0.6;}.cls-9{fill:url(#Degradado_sin_nombre_13);}.cls-10{fill:url(#Degradado_sin_nombre_13-2);}.cls-11,.cls-12{opacity:0.78;}.cls-13{fill:url(#linear-gradient-4);}.cls-14{fill:url(#linear-gradient-5);}.cls-15{fill:url(#linear-gradient-6);}.cls-16{fill:url(#linear-gradient-7);}.cls-17{fill:url(#linear-gradient-8);}.cls-18{fill:url(#linear-gradient-9);}.cls-19{fill:url(#linear-gradient-10);}.cls-20{fill:url(#linear-gradient-11);}.cls-21{fill:url(#linear-gradient-12);}.cls-22{fill:url(#linear-gradient-13);}.cls-23{fill:url(#linear-gradient-14);}.cls-24{fill:url(#linear-gradient-15);}.cls-25{fill:url(#linear-gradient-16);}.cls-26{fill:url(#linear-gradient-17);}.cls-27{fill:url(#linear-gradient-18);}.cls-28{fill:url(#linear-gradient-19);}.cls-29{fill:url(#linear-gradient-20);}.cls-30{fill:url(#linear-gradient-21);}.cls-31{fill:url(#Degradado_sin_nombre_8-2);}.cls-32{fill:url(#Degradado_sin_nombre_8-3);}.cls-33{fill:url(#linear-gradient-22);}.cls-34{fill:url(#linear-gradient-23);}.cls-35{fill:url(#linear-gradient-24);}.cls-36{fill:url(#linear-gradient-25);}</style><linearGradient id="Degradado_sin_nombre_8" x1="718.39" y1="695.83" x2="283.85" y2="306.03" gradientUnits="userSpaceOnUse"><stop offset="0" stop-color="#6e376e"/><stop offset="1" stop-color="#ca4b7c"/></linearGradient><linearGradient id="linear-gradient" x1="490.57" y1="315.8" x2="611.53" y2="315.8" gradientUnits="userSpaceOnUse"><stop offset="0" stop-color="#aa80f9"/><stop offset="1" stop-color="#6165d7"/></linearGradient><linearGradient id="linear-gradient-2" x1="452.03" y1="252.54" x2="556.71" y2="252.54" xlink:href="#linear-gradient"/><linearGradient id="linear-gradient-3" x1="111.28" y1="564.71" x2="615.77" y2="290.93" gradientUnits="userSpaceOnUse"><stop offset="0" stop-color="#ffc444"/><stop offset="1" stop-color="#f36f56"/></linearGradient><linearGradient id="Degradado_sin_nombre_13" x1="130.51" y1="362.09" x2="483.95" y2="362.09" gradientUnits="userSpaceOnUse"><stop offset="0" stop-color="#fe7087"/><stop offset="1" stop-color="#fe9d82"/></linearGradient><linearGradient id="Degradado_sin_nombre_13-2" x1="509.54" y1="126.29" x2="628.48" y2="-1.89" xlink:href="#Degradado_sin_nombre_13"/><linearGradient id="linear-gradient-4" x1="-6658.88" y1="572.65" x2="-6625.98" y2="572.65" gradientTransform="matrix(-1, 0, 0, 1, -6146.26, 0)" gradientUnits="userSpaceOnUse"><stop offset="0" stop-color="#4f52ff"/><stop offset="1" stop-color="#4042e2"/></linearGradient><linearGradient id="linear-gradient-5" x1="-6658.88" y1="566.2" x2="-6626.91" y2="566.2" gradientTransform="matrix(-1, 0, 0, 1, -6146.26, 0)" gradientUnits="userSpaceOnUse"><stop offset="0" stop-color="#09005d"/><stop offset="1" stop-color="#1a0f91"/></linearGradient><linearGradient id="linear-gradient-6" x1="513.93" y1="549.67" x2="574.43" y2="503.86" gradientUnits="userSpaceOnUse"><stop offset="0" stop-color="#febbba"/><stop offset="1" stop-color="#ff928e"/></linearGradient><linearGradient id="linear-gradient-7" x1="-6724.46" y1="571.94" x2="-6711.86" y2="571.94" xlink:href="#linear-gradient-4"/><linearGradient id="linear-gradient-8" x1="-6724.37" y1="562.24" x2="-6705.87" y2="562.24" xlink:href="#linear-gradient-5"/><linearGradient id="linear-gradient-9" x1="567.78" y1="545.94" x2="622.13" y2="506.29" xlink:href="#linear-gradient-6"/><linearGradient id="linear-gradient-10" x1="627.91" y1="290.01" x2="542.8" y2="453.05" gradientTransform="matrix(1, 0, 0, 1, 0, 0)" xlink:href="#linear-gradient-4"/><linearGradient id="linear-gradient-11" x1="-6575.48" y1="318.29" x2="-6829.36" y2="539.11" xlink:href="#linear-gradient-4"/><linearGradient id="linear-gradient-12" x1="-6677.43" y1="508.47" x2="-6672.13" y2="497.85" gradientTransform="matrix(-1, 0, 0, 1, -6146.26, 0)" gradientUnits="userSpaceOnUse"><stop offset="0" stop-color="#53d8ff"/><stop offset="1" stop-color="#3840f7"/></linearGradient><linearGradient id="linear-gradient-13" x1="-6699.29" y1="419.28" x2="-6738.71" y2="454.19" gradientTransform="matrix(-1, 0, 0, 1, -6146.26, 0)" xlink:href="#linear-gradient-6"/><linearGradient id="linear-gradient-14" x1="-6596.65" y1="294.89" x2="-6849.39" y2="514.71" xlink:href="#linear-gradient-4"/><linearGradient id="linear-gradient-15" x1="-6556.92" y1="340.57" x2="-6809.66" y2="560.39" xlink:href="#linear-gradient-4"/><linearGradient id="linear-gradient-16" x1="-6590.11" y1="391.35" x2="-6559.06" y2="391.35" gradientTransform="matrix(-1, 0, 0, 1, -6146.26, 0)" xlink:href="#linear-gradient-6"/><linearGradient id="linear-gradient-17" x1="-6620.29" y1="308.38" x2="-6620.63" y2="366.36" gradientTransform="matrix(-1, 0, 0, 1, -6146.26, 0)" xlink:href="#linear-gradient-6"/><linearGradient id="linear-gradient-18" x1="-6891.1" y1="1268.62" x2="-6919.64" y2="1306.38" gradientTransform="matrix(-0.99, -0.14, -0.14, 0.99, -6183.75, -1940.76)" xlink:href="#linear-gradient-6"/><linearGradient id="linear-gradient-19" x1="-6912.9" y1="1277.73" x2="-6878.81" y2="1277.73" gradientTransform="matrix(-0.99, -0.14, -0.14, 0.99, -6183.75, -1940.76)" xlink:href="#linear-gradient-5"/><linearGradient id="linear-gradient-20" x1="-6932.9" y1="1298.52" x2="-6910.01" y2="1275.04" gradientTransform="matrix(-0.99, -0.14, -0.14, 0.99, -6183.75, -1940.76)" xlink:href="#linear-gradient-6"/><linearGradient id="linear-gradient-21" x1="-6562.36" y1="387.71" x2="-6551.24" y2="387.71" gradientTransform="matrix(-1, 0, 0, 1, -6146.26, 0)" xlink:href="#linear-gradient-6"/><linearGradient id="Degradado_sin_nombre_8-2" x1="282.67" y1="421.03" x2="631.69" y2="421.03" xlink:href="#Degradado_sin_nombre_8"/><linearGradient id="Degradado_sin_nombre_8-3" x1="197.23" y1="339.78" x2="244.41" y2="339.78" xlink:href="#Degradado_sin_nombre_8"/><linearGradient id="linear-gradient-22" x1="-6368.01" y1="298.74" x2="-6596.72" y2="533.79" gradientTransform="matrix(-1, 0, 0, 1, -6146.26, 0)" gradientUnits="userSpaceOnUse"><stop offset="0" stop-color="#ff928e"/><stop offset="1" stop-color="#fe7062"/></linearGradient><linearGradient id="linear-gradient-23" x1="-6507.48" y1="305.6" x2="-6713.88" y2="517.72" xlink:href="#linear-gradient-4"/><linearGradient id="linear-gradient-24" x1="-6502.14" y1="324.24" x2="-6708.55" y2="536.36" xlink:href="#linear-gradient-4"/><linearGradient id="linear-gradient-25" x1="-6648.45" y1="405.63" x2="-6687.87" y2="440.54" gradientTransform="matrix(-1, 0, 0, 1, -6146.26, 0)" xlink:href="#linear-gradient-6"/></defs><title>vector [Recovered]</title><path class="cls-1" d="M573.59,560.91c-14.65,15.09-17.72,17.26-27.75,24-97.83,65.33-239.4,49.54-274,43.1-55.79-10.38-83.19-14.05-123.64-50.6C56.29,494.31,60.76,321,131,213.71,139.34,201,208.26,102.23,320.34,87.58c2.74-.36,132.58-17.5,220.19,55.9A260.94,260.94,0,0,1,592,201.84C660.39,307.52,660.61,471.2,573.59,560.91Z"/><path class="cls-2" d="M597.6,142.15a2.61,2.61,0,0,1,5-.12c8.5,24.25,24.13,91.73-28.28,168.22-65.75,96-63.85,144.44-49.14,181.06,0,0-30.91-29.7-34.14-79.56C483.08,289.31,585.2,185.39,597.6,142.15Z"/><path class="cls-3" d="M593.61,180.73c-3.85,12.48-8,24.89-12.49,37.12s-9.33,24.38-14.55,36.32-10.75,23.76-16.73,35.33S537.49,312.44,531,323.8s-13,22.82-18.33,35a132.66,132.66,0,0,0-10.94,38.35c-.38,3.31-.7,6.65-.82,10s-.22,6.65-.19,10a137.52,137.52,0,0,0,13.36,58,2.52,2.52,0,0,0,4.6-2.07h0c-1.28-3-2.53-5.93-3.64-8.94-.57-1.5-1.08-3-1.62-4.54s-1-3-1.46-4.58a133.6,133.6,0,0,1-4.18-18.75,145.76,145.76,0,0,1-.53-38.36,128.05,128.05,0,0,1,3.8-18.78,143.3,143.3,0,0,1,6.53-18.1c5.13-11.82,11.5-23.19,17.84-34.63s12.6-23,18.39-34.77q4.37-8.82,8.41-17.8c1.37-3,2.68-6,4-9s2.55-6,3.79-9.08q7.43-18.23,13.7-36.87c4.12-12.44,7.91-25,11.21-37.66a.68.68,0,0,0-.49-.83A.67.67,0,0,0,593.61,180.73Z"/><path class="cls-4" d="M478.82,402.2a6.58,6.58,0,0,1-10.73-1.95c-10.35-23.55-33.59-92.78,7-171.77,34.24-66.71,46.47-106.14,50.78-124.42a4.12,4.12,0,0,1,7.8-.67C550.87,143.68,596,280.57,478.82,402.2Z"/><path class="cls-5" d="M473,399.66a1.37,1.37,0,0,1-.35,0,1.81,1.81,0,0,1-1.77-1.87c0-1.13,3.52-115,46.94-209.89a1.82,1.82,0,0,1,3.31,1.51c-43.11,94.21-46.59,207.35-46.62,208.48A1.81,1.81,0,0,1,473,399.66Z"/><path class="cls-6" d="M116.49,573.66a8.87,8.87,0,0,0,8.86,8.85h479a8.87,8.87,0,0,0,8.86-8.85l4-275.27c0-4.87-5.74-14.37-16.25-13.66L132.82,272.62a22.32,22.32,0,0,0-22.91,22.83Z"/><path class="cls-7" d="M125.23,565.17a8.41,8.41,0,0,0,8.38,8.38h459.2a8.4,8.4,0,0,0,8.38-8.38L605,315.27c-.44-15-13.62-20.44-21.62-20.12l-448.67-12a15.7,15.7,0,0,0-16.1,16.06Z"/><g class="cls-8"><path class="cls-5" d="M596.23,446.45h0a1.22,1.22,0,0,1-1.21-1.24l.3-20.27a1.23,1.23,0,0,1,1.23-1.21h0a1.24,1.24,0,0,1,1.21,1.25l-.3,20.26A1.22,1.22,0,0,1,596.23,446.45Z"/><path class="cls-5" d="M597,396.79h0a1.23,1.23,0,0,1-1.21-1.25l1.14-77.62c0-4.61-1.42-8.29-4.16-10.91-5.11-4.9-13.23-4.65-13.57-4.64l-143.41-3.84a1.23,1.23,0,0,1-1.19-1.26,1.18,1.18,0,0,1,1.26-1.2l143.32,3.85c.89-.05,9.53-.2,15.29,5.31,3.24,3.1,4.89,7.38,4.92,12.7l-1.14,77.65A1.23,1.23,0,0,1,597,396.79Z"/></g><rect class="cls-6" x="77.63" y="581.18" width="564.74" height="24.19" rx="4.3" ry="4.3" transform="translate(720 1186.54) rotate(180)"/><path class="cls-9" d="M431.12,153.38l-284.24-1.74a16.27,16.27,0,0,0-16.35,17.08l19.56,403.83h316.3L484,211.75Z"/><path class="cls-10" d="M442.94,210a16.28,16.28,0,0,1-15.65-17.54l3-38.57L484,211.51Z"/><path class="cls-11" d="M280.5,230.47c25.51,0,123.47-.36,148.2-.44,3.12,0,5.6,3,5.47,6.58h0c-.11,3.43-2.56,6.16-5.53,6.19l-148.13,1.26c-2.86,0-5.24-2.47-5.49-5.75l-.06-.83C274.67,233.73,277.24,230.47,280.5,230.47Z"/><path class="cls-11" d="M279.34,258.79c25.51,0,123.46-.35,148.2-.43,3.12,0,5.6,3,5.47,6.57h0c-.12,3.43-2.56,6.17-5.53,6.19l-148.14,1.27c-2.85,0-5.23-2.47-5.48-5.75l-.07-.83C273.5,262.05,276.07,258.8,279.34,258.79Z"/><path class="cls-11" d="M190.85,299.16c39.41,0,190.68,0,228.88,0,4.82,0,8.73,3,8.65,6.59h0c-.09,3.43-3.78,6.16-8.37,6.18l-228.75.87c-4.41,0-8.15-2.48-8.64-5.77l-.12-.83C181.94,302.41,185.81,299.16,190.85,299.16Z"/><path class="cls-11" d="M189,328.89c30.67-.14,148.43-.81,178.16-1a6.52,6.52,0,0,1,6.68,6.56h0a6.5,6.5,0,0,1-6.55,6.21l-178.07,1.8a6.56,6.56,0,0,1-6.68-5.73l-.09-.83A6.45,6.45,0,0,1,189,328.89Z"/><path class="cls-11" d="M190.46,367.81c39.41,0,190.69,0,228.89,0,4.81,0,8.73,3,8.64,6.59h0c-.08,3.43-3.78,6.16-8.36,6.18l-228.76.87c-4.41,0-8.15-2.48-8.64-5.77l-.12-.83C181.55,371.06,185.42,367.81,190.46,367.81Z"/><path class="cls-11" d="M187,398c30.81.06,149.12.12,179,.13a6.54,6.54,0,0,1,6.68,6.59h0a6.53,6.53,0,0,1-6.63,6.18l-178.91.7a6.58,6.58,0,0,1-6.68-5.77l-.09-.83A6.48,6.48,0,0,1,187,398Z"/><path class="cls-11" d="M188.52,437.86c39.41,0,190.68,0,228.88,0,4.82,0,8.73,3,8.65,6.59h0c-.09,3.44-3.78,6.17-8.37,6.18l-228.75.87c-4.41,0-8.15-2.48-8.64-5.76l-.12-.83C179.61,441.11,183.48,437.86,188.52,437.86Z"/><path class="cls-11" d="M186.14,467.73c30.82.06,149.13.11,179,.13a6.53,6.53,0,0,1,6.67,6.59h0a6.51,6.51,0,0,1-6.62,6.17l-178.91.71a6.6,6.6,0,0,1-6.69-5.77l-.08-.83A6.47,6.47,0,0,1,186.14,467.73Z"/><path class="cls-11" d="M190.85,507.1c39.41,0,190.68,0,228.88,0,4.82,0,8.73,3,8.65,6.59h0c-.09,3.43-3.78,6.17-8.37,6.18l-228.75.87c-4.41,0-8.15-2.48-8.64-5.76l-.12-.83C181.94,510.35,185.81,507.1,190.85,507.1Z"/><path class="cls-11" d="M188.62,540.2c30.43,0,147.25-.15,176.75-.19a6.49,6.49,0,0,1,6.59,6.58h0a6.47,6.47,0,0,1-6.53,6.19l-176.65,1a6.53,6.53,0,0,1-6.61-5.76l-.08-.83A6.44,6.44,0,0,1,188.62,540.2Z"/><g class="cls-12"><path class="cls-5" d="M219.2,212.48l-16,59-4.33-.08L170.59,199q-1.93-5.11-4-6.12c-1.34-.66-5-1.1-11-1.32v-1.11l44,1.59v1.1c-5.2-.18-8.8,0-10.81.41s-3,1.47-3,3a7.49,7.49,0,0,0,.77,3l20.05,51.92,11.57-42.09-2.7-8.8c-1-3.31-2.25-5.31-3.7-6s-5.17-1.17-11.16-1.38v-1.1l43.21,1.56v1.09c-5.06-.18-8.57,0-10.53.41s-2.94,1.54-2.94,3.24a7.79,7.79,0,0,0,.5,2.69L247,252.49l13.68-37.22a30,30,0,0,0,2.08-9.58q0-10.26-14.89-10.79v-1.08L279.76,195v1.08q-8.72-.31-12.91,8.32-.63,1.31-4.57,11.66L241.9,272.1l-4.13-.07Z"/></g><path class="cls-13" d="M480.65,571.06c5.63.49,15.41,1.28,23.12,1.62,4.64.2,7.31-.25,8.85-.87,0,.18,0,.34,0,.49a1.6,1.6,0,0,1-1.51,1.51,272.11,272.11,0,0,1-30.29,0,1.14,1.14,0,0,1-.92-1.71A8.19,8.19,0,0,1,480.65,571.06Z"/><path class="cls-14" d="M503.77,572.68c-7.71-.34-17.49-1.13-23.12-1.62,5.54-6.8,23.12-11.38,23.12-11.38h5a20.88,20.88,0,0,1,3.88,12.13C511.08,572.43,508.41,572.88,503.77,572.68Z"/><path class="cls-15" d="M509.58,551.57l-.47,9.2a2.1,2.1,0,0,1-1.79,2,8.19,8.19,0,0,1-3.73-.31,2.48,2.48,0,0,1-1.67-1.91l-1.61-9Z"/><path class="cls-16" d="M574.1,572.61a4.47,4.47,0,0,0,4-3v0A3.18,3.18,0,0,1,576,573.3a14.07,14.07,0,0,1-5.93.93,5.91,5.91,0,0,1-4.44-2.05l0,0C567.43,573.07,570,573.18,574.1,572.61Z"/><path class="cls-17" d="M562.57,551.51h4.1c6.24-.12,10.16,13,11.44,18.13a4.47,4.47,0,0,1-4,3c-4.08.57-6.67.46-8.51-.45-3.37-4.44-5-10.93-5.84-14.72A5.17,5.17,0,0,1,562.57,551.51Z"/><path class="cls-18" d="M566.14,543l2.28,9a2.47,2.47,0,0,1-1.28,2.79,8.83,8.83,0,0,1-4.71,1.14,2.07,2.07,0,0,1-1.68-1.37l-3.33-9.52Z"/><path class="cls-19" d="M568.86,545.59c-2.84,2.51-12,2.84-12,2.84-33.16-79.58-46.72-90.89-46.72-90.89,4.79,30,.77,96.54.77,96.54-5.47,2.42-12.53,0-12.53,0a512.36,512.36,0,0,0-16.93-125.87c22.41-.5,34.33-8.17,38.22-11.25C538.31,447.08,568.86,545.59,568.86,545.59Z"/><path class="cls-20" d="M513.94,325.44c4.24,21.16,2.72,59,1.72,76.3-.28,4.86,3.11,11.59,5.85,16.18a1.43,1.43,0,0,1-.58,2c-4.59,2.36-20.12,9.67-38.13,10.58a2.59,2.59,0,0,1-2.59-1.92c-13.35-49.88-28.87-81.75-28.87-81.75C468.47,319.5,513.94,325.44,513.94,325.44Z"/><path class="cls-21" d="M507.84,455.66a1.06,1.06,0,0,0,.9-1.61,33.31,33.31,0,0,0-13.14-11.42,1.07,1.07,0,0,0-.93,1.92,31.74,31.74,0,0,1,12.26,10.6A1.06,1.06,0,0,0,507.84,455.66Z"/><path class="cls-22" d="M540.55,386.16c-1.37,9.86-5.39,20.61-13.44,32L524,415.7a94.42,94.42,0,0,0,1.53-30.61C530.54,384.12,536.4,385.12,540.55,386.16Z"/><path class="cls-23" d="M509.2,351.55l4.74-26.11s31.66,24.2,26.61,60.72c-4.15-1-10-2-15-1.07C524.12,373.36,519.8,360.64,509.2,351.55Z"/><path class="cls-24" d="M451.34,346.85l12.22,26.31c-2,15.89-10.51,22.76-19.71,25.4a56,56,0,0,0-4.11-17.14C451.5,369.28,451.34,346.85,451.34,346.85Z"/><path class="cls-25" d="M439.74,381.42a56,56,0,0,1,4.11,17.14c-24.55,9.52-31.05-8.95-31.05-8.95l4.54-.8C427.58,389.89,434.74,386.58,439.74,381.42Z"/><path class="cls-26" d="M462.6,314.36l5.9,21.69a4.22,4.22,0,0,0,5.64,2.8,85.28,85.28,0,0,0,8.5-3.88,5.69,5.69,0,0,0,2-8.17l-12.27-18.29Z"/><path class="cls-27" d="M449.69,297.88c-.05.38,4.92,24.75,4.92,24.75l13.86-3.13-1.28-23.81S450.59,291.65,449.69,297.88Z"/><path class="cls-28" d="M464.07,301l1.66,12.47a1.93,1.93,0,0,1,0,.48c-.14,1-.87,4.31-4.23,3.36-3.05-.87-5.85-1.61-7.78-1a1.76,1.76,0,0,0-1.21,2,76.06,76.06,0,0,0,3.19,11.36,1.76,1.76,0,0,0,2.13,1,56.67,56.67,0,0,0,12.21-5,1.74,1.74,0,0,0,.86-1.58c-.13-3.15-.5-12.73-.19-15.41.29-2.52,3.38-4,4.73-4.57a1.73,1.73,0,0,0,1-1c.62-1.55,1.48-5.16-3.07-6.64a1.76,1.76,0,0,1-1.11-2.28c.67-1.87.95-4.73-2.56-6.31s-6.25.31-7.69,1.85a1.75,1.75,0,0,1-2.24.27,1.38,1.38,0,0,0-1.58.05,1.73,1.73,0,0,1-2.45-.74,5.25,5.25,0,0,0-6.1-3c-6.21,1.06-6.92,7.94-5.28,12s8.31,2.49,11.65.46c2.54-1.55,5.84.07,7.28.94A1.74,1.74,0,0,1,464.07,301Z"/><path class="cls-29" d="M471.27,313.28s-2.56-7.15.07-8.9,6.5-.84,5.65,4.34C475.93,315.16,471.27,313.28,471.27,313.28Z"/><path class="cls-30" d="M414.62,393c-1.24,1-5.47-1.05-8.06-2.44a3,3,0,0,1-1.44-3.53c.62-2,1.66-4.5,2.94-4.82C410.18,381.67,419.71,389,414.62,393Z"/><path class="cls-31" d="M623.09,452.7l-323.31-115-17.11,47.52,323.2,118.2a15.08,15.08,0,0,0,18.21-6.59c3.78-6.49,7.39-16.63,7.6-31.81A12.91,12.91,0,0,0,623.09,452.7Z"/><path class="cls-32" d="M199.75,325.43l44.66,5.49c0,6.14-2.06,14.1-8.87,23.22l-37.3-24.6A2.25,2.25,0,0,1,199.75,325.43Z"/><path class="cls-33" d="M299.78,337.71c2,29.78-17.11,47.52-17.11,47.52l-47.13-31.09c6.81-9.12,8.83-17.08,8.87-23.22Z"/><path class="cls-34" d="M619.08,467.27a.95.95,0,0,0,.32-1.84L310.07,356.11a.95.95,0,1,0-.63,1.79L618.76,467.22A.93.93,0,0,0,619.08,467.27Z"/><path class="cls-35" d="M613.74,485.91a.95.95,0,0,0,.32-1.84L304.74,374.75a1,1,0,1,0-.64,1.79L613.43,485.86A.84.84,0,0,0,613.74,485.91Z"/><path class="cls-36" d="M525.31,415.26,511,414.1l-6.19,5.7s1.46,2,6,.86a66.06,66.06,0,0,1,10.85-1.45s6.32,2.85,6.39-2.48Z"/></svg>