<svg xmlns="http://www.w3.org/2000/svg" xmlns:xlink="http://www.w3.org/1999/xlink" viewBox="0 0 720 720"><defs><style>.cls-1{fill:url(#linear-gradient);}.cls-2{fill:none;}.cls-3{fill:url(#linear-gradient-2);}.cls-4{isolation:isolate;}.cls-5{opacity:0.3;fill:url(#Degradado_sin_nombre_8);}.cls-6{clip-path:url(#clip-path);}.cls-7{fill:#beb8f2;}.cls-8{fill:url(#Degradado_sin_nombre_2);}.cls-9{fill:url(#Degradado_sin_nombre_11);}.cls-10{clip-path:url(#clip-path-2);}.cls-11{clip-path:url(#clip-path-3);}.cls-12{fill:#fcfdfe;}.cls-13{fill:url(#Degradado_sin_nombre_2-2);}.cls-14{fill:url(#Degradado_sin_nombre_11-2);}.cls-15{fill:url(#linear-gradient-5);}.cls-16{fill:url(#linear-gradient-6);}.cls-17{opacity:0.3;fill:url(#linear-gradient-7);}.cls-17,.cls-21{mix-blend-mode:multiply;}.cls-18{fill:url(#linear-gradient-8);}.cls-19{fill:url(#linear-gradient-9);}.cls-20{fill:url(#linear-gradient-10);}.cls-21{opacity:0.54;}.cls-22{fill:#d8dee8;}.cls-23{fill:url(#linear-gradient-11);}.cls-24{fill:url(#Degradado_sin_nombre_13);}.cls-25{fill:url(#Degradado_sin_nombre_13-2);}</style><linearGradient id="linear-gradient" x1="-85.41" y1="-383.69" x2="-143.26" y2="-219.25" gradientTransform="translate(192.06 702.95) rotate(21.21)" gradientUnits="userSpaceOnUse"><stop offset="0" stop-color="#aa80f9"/><stop offset="1" stop-color="#6165d7"/></linearGradient><linearGradient id="linear-gradient-2" x1="189.8" y1="377.93" x2="256.09" y2="801.7" gradientUnits="userSpaceOnUse"><stop offset="0" stop-color="#e38ddd"/><stop offset="1" stop-color="#9571f6"/></linearGradient><linearGradient id="Degradado_sin_nombre_8" x1="95.56" y1="360" x2="683.84" y2="360" gradientUnits="userSpaceOnUse"><stop offset="0" stop-color="#6e376e"/><stop offset="1" stop-color="#ca4b7c"/></linearGradient><clipPath id="clip-path"><path class="cls-1" d="M276,563.08q24.56-12.51,48.7-26.22c.35.16-5.17-39.78-28.69-53.77-46.27-26.87-32.86-69.5-32.16-92.32,2.17-32.55-12.6-62-41.58-52.77-32.33,9.63-54-42.54-62.56-93.72-2.54-25.53-33.23-47.19-57.29-46.39-24.74.24-42.86,22.93-35.76,73.12,5.75,58.93,55.09,79,77.87,101.85,22.39,22.42-4.69,55.79,29.37,70.85,29,13.82,62.12,19.61,59.54,50.11C230.51,524.11,239.47,545,276,563.08Z"/></clipPath><linearGradient id="Degradado_sin_nombre_2" x1="506.78" y1="305.32" x2="679.23" y2="305.32" gradientUnits="userSpaceOnUse"><stop offset="0" stop-color="#b84471"/><stop offset="1" stop-color="#d45d70"/></linearGradient><linearGradient id="Degradado_sin_nombre_11" x1="526.08" y1="306.81" x2="682.24" y2="306.81" gradientUnits="userSpaceOnUse"><stop offset="0" stop-color="#ca4b7c"/><stop offset="1" stop-color="#fe7087"/></linearGradient><clipPath id="clip-path-2"><rect class="cls-2" x="36.16" y="327.56" width="339.38" height="219.28"/></clipPath><clipPath id="clip-path-3"><path class="cls-3" d="M364.57,546.64c2.38-2.72,5.18-10.73,5-13.12-.88-15.9-.61-45.77-12.45-57.73-2-2.05-13.41,4.43-16.5,3.64-8.27,2.37-11,3.7-20,2.09-26.45-4.75-23.94-59.6-66.42-40.72-31.11,13.83-44.31,40.36-75,.19S57.82,358.26,41.1,419.86c-9.61,35.36,42,47.05,51.12,81.19,8.65,32.44,34.57,42.59,70.46,35s32.25,14.13,44.16,41.71c14.31,33.12,58,2.8,76.91-12.91C299,552.22,346.42,530.3,364.57,546.64Z"/></clipPath><linearGradient id="Degradado_sin_nombre_2-2" x1="324.74" y1="199.93" x2="555.46" y2="199.93" xlink:href="#Degradado_sin_nombre_2"/><linearGradient id="Degradado_sin_nombre_11-2" x1="350.56" y1="201.91" x2="559.49" y2="201.91" xlink:href="#Degradado_sin_nombre_11"/><linearGradient id="linear-gradient-5" x1="961.99" y1="556.44" x2="16.27" y2="290.76" gradientUnits="userSpaceOnUse"><stop offset="0" stop-color="#311944"/><stop offset="1" stop-color="#893976"/></linearGradient><linearGradient id="linear-gradient-6" x1="495.89" y1="271.89" x2="94.78" y2="874.49" gradientUnits="userSpaceOnUse"><stop offset="0" stop-color="#ffc444"/><stop offset="1" stop-color="#f36f56"/></linearGradient><linearGradient id="linear-gradient-7" x1="515.15" y1="253.57" x2="394.65" y2="422.08" xlink:href="#linear-gradient-6"/><linearGradient id="linear-gradient-8" x1="287.63" y1="60.87" x2="469.23" y2="546.71" xlink:href="#linear-gradient-6"/><linearGradient id="linear-gradient-9" x1="178.23" y1="1018.3" x2="539.85" y2="43.65" gradientUnits="userSpaceOnUse"><stop offset="0" stop-color="#ebeff2"/><stop offset="1" stop-color="#fff"/></linearGradient><linearGradient id="linear-gradient-10" x1="542.87" y1="251.24" x2="327.76" y2="683.9" xlink:href="#linear-gradient-6"/><linearGradient id="linear-gradient-11" x1="306.5" y1="209.34" x2="537.54" y2="640.04" gradientUnits="userSpaceOnUse"><stop offset="0" stop-color="#ff9085"/><stop offset="1" stop-color="#fb6fbb"/></linearGradient><linearGradient id="Degradado_sin_nombre_13" x1="326.96" y1="198.36" x2="558" y2="629.06" gradientUnits="userSpaceOnUse"><stop offset="0" stop-color="#fe7087"/><stop offset="1" stop-color="#fe9d82"/></linearGradient><linearGradient id="Degradado_sin_nombre_13-2" x1="86.32" y1="-93.97" x2="614.07" y2="889.87" xlink:href="#Degradado_sin_nombre_13"/></defs><title>vector [Recovered]</title><g class="cls-4"><g id="Layer_1" data-name="Layer 1"><path class="cls-5" d="M345.1,76.23c-79.77,1.33-203.18,30.08-238.7,104C94,206,94.83,243.91,96.51,319.77c.49,22.29,1.31,54.79,7.06,95.11,12,83.77,20.08,140.79,50.85,174,77.11,83.2,355.64,80.8,474.58-69,64.88-81.71,74.86-197.94,15.54-294C579.22,120.12,451.89,74.44,345.1,76.23Z"/><path class="cls-1" d="M276,563.08q24.56-12.51,48.7-26.22c.35.16-5.17-39.78-28.69-53.77-46.27-26.87-32.86-69.5-32.16-92.32,2.17-32.55-12.6-62-41.58-52.77-32.33,9.63-54-42.54-62.56-93.72-2.54-25.53-33.23-47.19-57.29-46.39-24.74.24-42.86,22.93-35.76,73.12,5.75,58.93,55.09,79,77.87,101.85,22.39,22.42-4.69,55.79,29.37,70.85,29,13.82,62.12,19.61,59.54,50.11C230.51,524.11,239.47,545,276,563.08Z"/><g class="cls-6"><path class="cls-7" d="M300.45,557.32c-.09-.33-39.87-74.88-90.91-143.31-7.58-11.3-15.54-22.59-23.23-33.52C143.46,319.66,103,262.2,105.16,182.4h-1.08c-2.17,80.17,38.4,137.78,81.35,198.76,7.69,10.92,15.65,22.21,23.24,33.52,51.31,68.8,90.56,142.54,90.76,143Z"/><path class="cls-7" d="M147,324l.56-1c-25.43-15.24-57.47-38.28-74.69-50.66-13.93-10-14-10-14.47-9.74l.23.49-.11.54c.67.24,6.43,4.38,13.72,9.62C89.45,285.67,121.51,308.73,147,324Z"/><path class="cls-7" d="M132.77,296c-3.3-26,1.88-45.69,6.8-57.57,5.37-12.95,11.86-20.25,12.77-20.76l-.19-.38.2-.67c-.3-.09-.58.09-1,.44-5.63,5.06-25.48,33.31-19.67,79.11Z"/><path class="cls-7" d="M240.25,459.73l1-.47c-20.23-47.51-.87-104.74,8.4-127.14.5-1.2.65-1.59.7-1.78l-1.05-.23.53.12-.53-.12c0,.13-.31.81-.64,1.6A238.77,238.77,0,0,0,234.23,380C228.7,410.52,230.72,437.35,240.25,459.73Z"/><path class="cls-7" d="M151.67,423.66l-.19-.5,0,.55-.5-.4.24-.62h0c.68-.31,44.57-12.42,75,14.53l-.71.85C195.36,411.38,152.07,423.51,151.67,423.66Zm-.19-.51,0-.55Z"/><path class="cls-7" d="M293.77,545.21c-3.3-9.92-4.79-28.22,6.82-59.09.66-1.75.66-1.75.55-2l-1,.5.49-.25-.53-.06c0,.13-.26.74-.53,1.45-11.73,31.18-10.2,49.76-6.84,59.84Z"/><path class="cls-7" d="M282.87,528.14l.91-.63c-10.32-16.19-38.59-21.05-54.53-22.5l-.95-.09-.19,1.09,1,.11C244.88,507.55,272.8,512.32,282.87,528.14Z"/></g><path class="cls-8" d="M652.81,346.51l3.08-6.77c1.15-2.53.47-5.58-1.53-6.81l-8-4.89a87.29,87.29,0,0,0,4.42-19.25l8.89-.62c2.29-.16,4.14-2.55,4.14-5.34V295.4c0-2.79-1.85-4.95-4.14-4.82l-8.65.49a81.42,81.42,0,0,0-4-19.14l7.32-5.43a4.43,4.43,0,0,0,.64-.59l.94,2.44,12-14.78-15.68-1.34a3.9,3.9,0,0,0-2.6-1.54,3.68,3.68,0,0,0-2.61.72l-7.22,5.25a66.5,66.5,0,0,0-11.93-14.29l.55-1.13,11,2.25,1.4-18.28-16.77-2.77a4.13,4.13,0,0,0-5.17,2.39l-4.17,8.59c-5.36-2.66-.92-5.46-7-6.27l6.36-9.38c0-2.92-18.65-4.87-21.17-4.87h-6.74c-2.55,0-4.63,2.4-4.63,5.36v10a60.07,60.07,0,0,0-18.08,5.87l11.52-8.46s-20.29-3.84-22.6-2.32l-6.18,4.08a5.93,5.93,0,0,0-1.78,7.53l4.67,9A53,53,0,0,0,538,257.23l-10.85-2.45a4.85,4.85,0,0,0-6.86,2.24l-3.72,7.24a5.8,5.8,0,0,0,1.86,7.58l8.75,5.25a87.27,87.27,0,0,0-4.78,21.34l-10.49.6a5.8,5.8,0,0,0-5.13,5.94v8.28a5.06,5.06,0,0,0,4.35,5.27l11.93,1.91A79,79,0,0,0,527.94,338l-9.51,6.9a6.25,6.25,0,0,0-1.86,7.82l3.72,6.77c1.39,2.54,23.49,4.08,23.49,4.08l-7-9.84A63.66,63.66,0,0,0,550,367l-5.54,11.43c-1.35,2.78-.55,6.06,1.78,7.3l6.18,3.3a4.55,4.55,0,0,0,1.21.41l0,.11,19.26,2.37,1.88-14.53a55.2,55.2,0,0,0,6.83.61v12.44a4.68,4.68,0,0,0,2.81,4.57l-.09.37,19.09,2.38.38-23.58a63.27,63.27,0,0,0,10.07-4.9l5.09,9.84a3.84,3.84,0,0,0,2.8,2.13l18.44,2.5-6.32-17.38-2.55.78-4.2-8.24A79.12,79.12,0,0,0,638.83,344l8.23,4.93C649.08,350.16,651.66,349.07,652.81,346.51Zm-63.19-6.37c-18.06,1.61-33-14.23-33-35.42s15-38.91,33-39.57c17.61-.65,31.57,15.26,31.57,35.51S607.23,338.58,589.62,340.14Zm77.12-40.68,12.49-5.92L666.74,292ZM651.4,349.93l14.29,1.93,2.09-4.87-11.84-7.2Z"/><path class="cls-9" d="M678.12,293.33l-8.6.49a81.49,81.49,0,0,0-4-19.09l7.28-5.41a5.87,5.87,0,0,0,1.52-7L671.27,256c-1.15-2.4-3.71-3.16-5.72-1.7l-7.18,5.24a66.21,66.21,0,0,0-11.86-14.24l4.13-8.66a5.72,5.72,0,0,0-1.57-7l-5.5-3.75c-2.08-1.42-4.75-.55-6,1.95l-4.15,8.57a54.58,54.58,0,0,0-17.15-5.27v-9.9c0-2.92-2-5.28-4.53-5.28h-6.7c-2.54,0-4.61,2.4-4.61,5.35v10a59.55,59.55,0,0,0-18,5.86l-4.48-8.8a4.45,4.45,0,0,0-6.53-1.94l-6.14,4.07a5.93,5.93,0,0,0-1.78,7.51l4.65,9a77.23,77.23,0,0,0-13.48,15.89l-8.4-5.17a4.81,4.81,0,0,0-6.82,2.23l-3.7,7.22a5.8,5.8,0,0,0,1.85,7.56l8.69,5.23a87.8,87.8,0,0,0-4.75,21.28l-10.43.61a5.77,5.77,0,0,0-5.09,5.92V316c0,3.11,2.28,5.46,5.09,5.26l10.71-.75a79.68,79.68,0,0,0,5.23,20.14l-9.45,6.89a6.25,6.25,0,0,0-1.85,7.8l3.7,6.75a4.49,4.49,0,0,0,6.82,1.36l9.56-7.12a63.34,63.34,0,0,0,13.18,13.23L563.56,381c-1.34,2.78-.54,6,1.78,7.28l6.14,3.28c2.29,1.23,5.22,0,6.53-2.78l5.46-11.43a54.22,54.22,0,0,0,17,3.21v12.4c0,3,2.07,5.09,4.61,4.76l6.7-.86c2.51-.32,4.53-2.94,4.53-5.87V378.69a61.53,61.53,0,0,0,16.24-6.88l5.06,9.81a3.76,3.76,0,0,0,6,1.19l5.5-4.46a6.14,6.14,0,0,0,1.57-7.23l-4.91-9.66a78.25,78.25,0,0,0,11.64-14.84l8.18,4.92c2,1.2,4.57.11,5.72-2.44l3.06-6.75c1.14-2.53.46-5.57-1.52-6.79l-7.92-4.87a86.83,86.83,0,0,0,4.4-19.2l8.83-.62c2.28-.16,4.12-2.55,4.12-5.33v-7.41C682.24,295.35,680.4,293.19,678.12,293.33Zm-69.68,49.45c-18,1.61-32.85-14.18-32.85-35.31s14.89-38.81,32.85-39.47c17.51-.65,31.39,15.2,31.39,35.4S626,341.21,608.44,342.78Z"/><g class="cls-10"><path class="cls-3" d="M364.57,546.64c2.38-2.72,5.18-10.73,5-13.12-.88-15.9-.61-45.77-12.45-57.73-2-2.05-13.41,4.43-16.5,3.64-8.27,2.37-11,3.7-20,2.09-26.45-4.75-23.94-59.6-66.42-40.72-31.11,13.83-44.31,40.36-75,.19S57.82,358.26,41.1,419.86c-9.61,35.36,42,47.05,51.12,81.19,8.65,32.44,34.57,42.59,70.46,35s32.25,14.13,44.16,41.71c14.31,33.12,58,2.8,76.91-12.91C299,552.22,346.42,530.3,364.57,546.64Z"/><g class="cls-11"><path class="cls-12" d="M364,506l-.21-.74C249.62,536.69,129.19,497,41.65,399l-.58.51c41.49,46.44,92.35,81,147.07,100.11C245.67,519.63,306.48,521.86,364,506Z"/><path class="cls-12" d="M211.21,592.24c16.43-27.92,54.88-62.13,85.72-76.28l-.32-.7c-31,14.2-69.57,48.56-86.06,76.59Z"/><path class="cls-12" d="M341.52,511.94v-.76c-17.63-.22-34.48-9.35-50.07-27.13-11.43-13-21.93-30.34-31.21-51.42l-.71.31c9.32,21.15,19.86,38.52,31.34,51.62C306.62,502.51,323.66,511.72,341.52,511.94Z"/><path class="cls-12" d="M180.48,496.58l.05-.76c-33.22-2.13-63.23,15.9-82.55,31.39l.48.6C117.68,512.4,147.51,494.48,180.48,496.58Z"/><path class="cls-12" d="M112.6,462l.54-.55C86.4,435.12,80.77,396.16,79.8,375.28l-.77,0C80,396.31,85.67,435.49,112.6,462Z"/></g></g><path class="cls-13" d="M520.12,255l4.11-9.06c1.54-3.39.63-7.47-2.05-9.11l-10.65-6.55a116.44,116.44,0,0,0,5.92-25.75l11.89-.83c3.06-.22,5.54-3.42,5.54-7.15v-9.94c0-3.73-2.48-6.62-5.54-6.45l-11.57.67a109.33,109.33,0,0,0-5.37-25.62l9.78-7.26a5.84,5.84,0,0,0,.86-.79l1.26,3.26,16.07-19.77-21-1.79a5.19,5.19,0,0,0-3.47-2.07,5,5,0,0,0-3.49,1l-9.67,7A88.72,88.72,0,0,0,486.8,115.7l.73-1.52,14.77,3,1.88-24.46L481.74,89c-2.58-1-5.5.26-6.92,3.19l-5.58,11.5c-7.16-3.56-1.22-7.31-9.37-8.4l8.52-12.54c0-3.91-24.95-6.51-28.32-6.51h-9c-3.42,0-6.2,3.21-6.2,7.17V96.88a80,80,0,0,0-24.19,7.86l15.41-11.33s-27.14-5.14-30.23-3.1l-8.26,5.46a7.92,7.92,0,0,0-2.39,10.08l6.24,12.09c-6.83,6.09-9.74,9.6-14.92,17.64L352,132.31c-3.21-2-7.32-.64-9.19,3l-5,9.69c-1.88,3.65-.76,8.2,2.48,10.15l11.7,7a117.82,117.82,0,0,0-6.39,28.56l-14,.8c-3.77.22-6.85,3.77-6.85,7.94v11.09c0,3.78,2.53,6.72,5.82,7l15.95,2.56A106.2,106.2,0,0,0,353,243.63l-12.72,9.24a8.35,8.35,0,0,0-2.48,10.46l5,9.06c1.87,3.39,31.44,5.45,31.44,5.45l-9.39-13.16a85,85,0,0,0,17.74,17.75l-7.41,15.29c-1.81,3.73-.74,8.11,2.39,9.77l8.26,4.41a5.45,5.45,0,0,0,1.62.55l0,.15,25.77,3.18,2.52-19.45a74.45,74.45,0,0,0,9.13.83v16.63a6.27,6.27,0,0,0,3.76,6.12l-.12.49L454,323.58l.51-31.54A85.07,85.07,0,0,0,468,285.48l6.81,13.17a5.12,5.12,0,0,0,3.75,2.85l24.67,3.34-8.45-23.25-3.41,1.05-5.63-11a105.51,105.51,0,0,0,15.66-19.91l11,6.6C515.12,259.92,518.57,258.45,520.12,255Zm-84.55-8.52c-24.16,2.15-44.2-19.05-44.2-47.4s20-52.06,44.2-52.94c23.56-.86,42.24,20.42,42.24,47.51S459.13,244.42,435.57,246.52Zm103.17-54.44,16.72-7.91-16.72-2Zm-20.52,67.53,19.13,2.58,2.79-6.52L524.3,246Z"/><path class="cls-14" d="M554,183.88l-11.51.66A108.85,108.85,0,0,0,537.13,159l9.73-7.24a7.83,7.83,0,0,0,2-9.35l-4.09-8.51c-1.54-3.21-5-4.23-7.66-2.27l-9.61,7a88,88,0,0,0-15.86-19.06L517.21,108c1.59-3.33.65-7.53-2.11-9.41l-7.36-5c-2.78-1.9-6.35-.73-8,2.61l-5.54,11.47a73,73,0,0,0-23-7.05V87.36c0-3.91-2.71-7.08-6.06-7.07h-9c-3.4,0-6.16,3.21-6.16,7.16v13.39A79.72,79.72,0,0,0,426,108.68L420,96.9c-1.76-3.46-5.67-4.63-8.74-2.59l-8.22,5.44a7.93,7.93,0,0,0-2.37,10l6.21,12a103.52,103.52,0,0,0-18,21.26l-11.24-6.92c-3.19-2-7.28-.63-9.13,3l-4.94,9.67c-1.87,3.64-.76,8.18,2.46,10.11l11.64,7a116.78,116.78,0,0,0-6.35,28.48l-14,.81c-3.76.21-6.81,3.76-6.81,7.92v11.05c0,4.16,3.05,7.31,6.81,7l14.33-1a107,107,0,0,0,7,26.95L366,256.41a8.36,8.36,0,0,0-2.46,10.44l4.94,9a6,6,0,0,0,9.13,1.82l12.79-9.52a84.87,84.87,0,0,0,17.64,17.71l-7.37,15.24c-1.8,3.72-.73,8.08,2.37,9.74l8.22,4.4c3.07,1.64,7,0,8.74-3.72l7.31-15.3a72.55,72.55,0,0,0,22.74,4.3v16.59c0,3.95,2.76,6.8,6.16,6.37l9-1.15c3.35-.43,6.06-4,6.06-7.85V298.09A82.24,82.24,0,0,0,493,288.88L499.77,302a5,5,0,0,0,8,1.59l7.36-6a8.2,8.2,0,0,0,2.11-9.68L510.64,275a105.55,105.55,0,0,0,15.57-19.86l10.94,6.58c2.69,1.61,6.12.15,7.66-3.26l4.09-9c1.53-3.39.62-7.45-2-9.09l-10.58-6.52a117.49,117.49,0,0,0,5.88-25.68l11.82-.83c3-.22,5.51-3.41,5.51-7.14V190.3C559.49,186.58,557,183.7,554,183.88ZM460.74,250c-24,2.15-43.94-19-43.94-47.24s19.92-51.92,43.94-52.81c23.43-.87,42,20.34,42,47.36S484.17,247.94,460.74,250Z"/><path class="cls-15" d="M576.08,394c.25,114.53-60.63,208-169,211.07-1.68,0-29.35,0-31,0-110.76.27-200.75-93.79-201-210.1s89.32-210.8,200.08-211.07c2.59,0,26.9.24,29.46.33C511.72,188.24,575.83,280.42,576.08,394Z"/><ellipse class="cls-16" cx="413.03" cy="396.37" rx="200.54" ry="210.58"/><ellipse class="cls-17" cx="413.03" cy="396.37" rx="195.49" ry="205.28"/><ellipse class="cls-18" cx="413.03" cy="396.37" rx="189.58" ry="199.08"/><ellipse class="cls-19" cx="408.98" cy="396.37" rx="185.53" ry="194.82"/><path class="cls-20" d="M428.57,390.79l141.33,54.8a171.93,171.93,0,0,0,7.08-49c0-87.92-65.74-159.71-148.41-164.14Z"/><g class="cls-21"><path class="cls-22" d="M362.4,392c-14.68-47.52,38.37-81.81,30-137.2-3.69-24.44-18.06-44.46-35.72-60.53C273.2,219.84,212.28,300.93,212.5,396.86c.25,116.3,90.24,210.36,201,210.09a191.6,191.6,0,0,0,76.63-16.14c-3.42-67.21-24-105.18-46-128C410.38,427.51,373.58,428.18,362.4,392Z"/></g><ellipse class="cls-23" cx="408.46" cy="399.42" rx="11.8" ry="12.39"/><path class="cls-24" d="M408.46,300.7a7.65,7.65,0,0,0-7.46,7.83V392a7.46,7.46,0,1,0,14.91,0v-83.5A7.65,7.65,0,0,0,408.46,300.7Z"/><path class="cls-25" d="M410.38,398.25,276.82,359A4.75,4.75,0,0,0,271,361.9a4.23,4.23,0,0,0,2.75,5.52l133.57,39.26a4.72,4.72,0,0,0,5.77-2.91A4.21,4.21,0,0,0,410.38,398.25Z"/></g></g></svg>